<?xml version="1.0" encoding="utf-8"?>
<!-- Generator: Adobe Illustrator 25.2.1, SVG Export Plug-In . SVG Version: 6.00 Build 0)  -->
<svg version="1.1" id="Layer_2_1_" xmlns="http://www.w3.org/2000/svg" xmlns:xlink="http://www.w3.org/1999/xlink" x="0px" y="0px"
	 viewBox="0 0 200 200" style="enable-background:new 0 0 200 200;" xml:space="preserve">
<style type="text/css">
	.st0{fill:#070505;}
	.st1{fill:url(#SVGID_1_);}
	.st2{fill:url(#SVGID_2_);}
	.st3{fill:url(#SVGID_3_);}
	.st4{fill:url(#SVGID_4_);}
	.st5{fill:url(#SVGID_5_);}
	.st6{fill:url(#SVGID_6_);}
	.st7{fill:url(#SVGID_7_);}
	.st8{fill:url(#SVGID_8_);}
	.st9{fill:url(#SVGID_9_);}
	.st10{fill:url(#SVGID_10_);}
	.st11{fill:url(#SVGID_11_);}
	.st12{fill:url(#SVGID_12_);}
	.st13{fill:url(#SVGID_13_);}
	.st14{fill:url(#SVGID_14_);}
	.st15{fill:url(#SVGID_15_);}
	.st16{fill:url(#SVGID_16_);}
	.st17{display:none;fill:url(#SVGID_17_);}
	.st18{display:none;fill:#FFFFFF;}
	.st19{fill:url(#SVGID_18_);}
	.st20{fill:url(#SVGID_19_);}
	.st21{fill:url(#SVGID_20_);}
	.st22{fill:url(#SVGID_21_);}
	.st23{fill:url(#SVGID_22_);}
	.st24{fill:url(#SVGID_23_);}
	.st25{fill:url(#SVGID_24_);}
	.st26{fill:url(#SVGID_25_);}
	.st27{fill:url(#SVGID_26_);}
	.st28{fill:url(#SVGID_27_);}
	.st29{fill:url(#SVGID_28_);}
	.st30{fill:url(#SVGID_29_);}
	.st31{fill:url(#SVGID_30_);}
	.st32{fill:url(#SVGID_31_);}
	.st33{fill:url(#SVGID_32_);}
	.st34{fill:url(#SVGID_33_);}
	.st35{opacity:0.3;enable-background:new    ;}
	.st36{fill:#FFFFFF;}
	.st37{fill:url(#SVGID_34_);}
</style>
<g id="Layer_1_2_">
	<g id="Layer_7_1_">
		<path class="st0" d="M162.3,47.7l-0.2,1.7l-4,0.3l0.7,10.7l11.1-2.7l-1.3-10H162.3z M161.5,52.6l-0.2-1.9L163,51v1.4L161.5,52.6z"
			/>
		
			<linearGradient id="SVGID_1_" gradientUnits="userSpaceOnUse" x1="158.4603" y1="143.75" x2="168.0985" y2="143.75" gradientTransform="matrix(1 0 0 -1 0 200)">
			<stop  offset="0.2183" style="stop-color:#BA780E"/>
			<stop  offset="0.7649" style="stop-color:#C48218"/>
		</linearGradient>
		<polygon class="st1" points="158.5,55 167.8,52.6 168.1,58 158.8,59.9 		"/>
		
			<linearGradient id="SVGID_2_" gradientUnits="userSpaceOnUse" x1="60.0141" y1="256.9724" x2="65.8948" y2="258.3145" gradientTransform="matrix(0.9552 -0.2959 -0.2959 -0.9552 53.977 356.7493)">
			<stop  offset="0.2183" style="stop-color:#8F6A29"/>
			<stop  offset="1" style="stop-color:#BE872C"/>
		</linearGradient>
		<polygon class="st2" points="38.9,93.2 35.2,94.3 34.5,92.2 38.2,91.1 		"/>
		<path class="st0" d="M172.4,51c0,0-23.8,6.7-64.7,19.1C61.1,84.3,27.9,90.8,27.9,90.8l5.4,43.6l142.8-32.3L172.4,51z M42.6,92
			L42,89.9l3.7-1.1l0.6,2.1L42.6,92z M68.3,86.6l-0.6-2.1l3.7-1.1l0.6,2.1L68.3,86.6z M75,84.5l-0.6-2.1l3.7-1.1l0.6,2.1L75,84.5z
			 M80.8,122.4l-0.5-2.1l3.7-0.9l0.5,2.1L80.8,122.4z M81.7,82.4l-0.6-2.1l3.7-1.1l0.6,2.1L81.7,82.4z M87.7,120.8l-0.5-2.1l3.7-0.9
			l0.5,2.1L87.7,120.8z M88.5,80.3l-0.6-2.1l3.7-1.1l0.6,2.1L88.5,80.3z M94.6,119.2l-0.5-2.1l3.7-0.9l0.5,2.1L94.6,119.2z
			 M95.2,78.2l-0.6-2.1l3.7-1.1l0.6,2.1L95.2,78.2z M101.4,117.6l-0.5-2.1l3.7-0.9l0.5,2.1L101.4,117.6z M101.9,76.2l-0.6-2.1
			L105,73l0.6,2.1L101.9,76.2z M169.6,54.4l0.3,2.2l-3.8,0.6l-0.3-2.2L169.6,54.4z M108.3,116l-0.5-2.1l3.7-0.9l0.5,2.1L108.3,116z
			 M108.7,74.1L108,72l3.7-1.1l0.6,2.1L108.7,74.1z M115.2,114.4l-0.5-2.1l3.7-0.9l0.5,2.1L115.2,114.4z M115.4,72l-0.6-2.1l3.7-1.1
			l0.6,2.1L115.4,72z M122,112.8l-0.5-2.1l3.7-0.9l0.5,2.1L122,112.8z M122.1,69.9l-0.6-2.1l3.7-1.1l0.6,2.1L122.1,69.9z
			 M131.9,64.6l0.6,2.1l-3.7,1.1l-0.6-2.1L131.9,64.6z M128.9,111.2l-0.5-2.1l3.7-0.9l0.5,2.1L128.9,111.2z M138.6,62.5l0.6,2.1
			l-3.7,1.1l-0.6-2.1L138.6,62.5z M135.7,109.6l-0.5-2.1l3.7-0.9l0.5,2.1L135.7,109.6z M145.4,60.4l0.6,2.1l-3.7,1.1l-0.6-2.1
			L145.4,60.4z M142.6,108l-0.5-2.1l3.7-0.9l0.5,2.1L142.6,108z M152.1,58.3l0.6,2.1l-3.7,1.1l-0.6-2.1L152.1,58.3z M149.5,106.3
			l-0.5-2.1l3.7-0.9l0.5,2.1L149.5,106.3z M156.3,104.7l-0.5-2.1l3.7-0.9l0.5,2.1L156.3,104.7z M157.7,59.1l-0.5-2.1l3.8-0.8
			l0.5,2.1L157.7,59.1z M163.2,103.1l-0.5-2.1l3.7-0.9l0.5,2.1L163.2,103.1z M169.6,99.4l3.7-0.9l0.5,2.1l-3.7,0.9L169.6,99.4z"/>
		
			<linearGradient id="SVGID_3_" gradientUnits="userSpaceOnUse" x1="161.8314" y1="119.7345" x2="177.4904" y2="121.7251" gradientTransform="matrix(1 0 0 -1 0 200)">
			<stop  offset="0" style="stop-color:#000000;stop-opacity:0"/>
			<stop  offset="0.4368" style="stop-color:#FFFFFF"/>
			<stop  offset="0.9406" style="stop-color:#000000;stop-opacity:0"/>
		</linearGradient>
		<path class="st3" d="M172.4,51l-47.6,14l9.4,46.7l41.9-9.5L172.4,51z M169.6,54.4l0.3,2.2l-3.8,0.6l-0.3-2.2L169.6,54.4z
			 M131.9,64.6l0.6,2.1l-3.7,1.1l-0.6-2.1L131.9,64.6z M138.6,62.5l0.6,2.1l-3.7,1.1l-0.6-2.1L138.6,62.5z M135.7,109.6l-0.5-2.1
			l3.7-0.9l0.5,2.1L135.7,109.6z M145.4,60.4l0.6,2.1l-3.7,1.1l-0.6-2.1L145.4,60.4z M142.6,108l-0.5-2.1l3.7-0.9l0.5,2.1L142.6,108
			z M152.1,58.3l0.6,2.1l-3.7,1.1l-0.6-2.1L152.1,58.3z M149.5,106.3l-0.5-2.1l3.7-0.9l0.5,2.1L149.5,106.3z M156.3,104.7l-0.5-2.1
			l3.7-0.9l0.5,2.1L156.3,104.7z M157.7,59.1l-0.5-2.1l3.8-0.8l0.5,2.1L157.7,59.1z M163.2,103.1l-0.5-2.1l3.7-0.9l0.5,2.1
			L163.2,103.1z M169.6,99.4l3.7-0.9l0.5,2.1l-3.7,0.9L169.6,99.4z"/>
		
			<linearGradient id="SVGID_4_" gradientUnits="userSpaceOnUse" x1="118.1926" y1="110.1151" x2="151.3451" y2="117.6814" gradientTransform="matrix(1 0 0 -1 0 200)">
			<stop  offset="0.2207" style="stop-color:#C07800"/>
			<stop  offset="0.7649" style="stop-color:#CD8200"/>
		</linearGradient>
		<polygon class="st4" points="117.9,109.2 158.1,100 149.9,63.4 110.2,75.7 		"/>
		
			<linearGradient id="SVGID_5_" gradientUnits="userSpaceOnUse" x1="159.2554" y1="119.6164" x2="175.7394" y2="123.3785" gradientTransform="matrix(1 0 0 -1 0 200)">
			<stop  offset="0.2183" style="stop-color:#8F6A29"/>
			<stop  offset="0.7593" style="stop-color:#BE872C"/>
			<stop  offset="0.9145" style="stop-color:#CF942B"/>
		</linearGradient>
		<path class="st5" d="M161.3,99c0,0,4.8-0.9,9.3-1.8c3.9-0.8,5.1-1,5.1-1l-2.8-38.5l-20,5.2L161.3,99z"/>
		
			<linearGradient id="SVGID_6_" gradientUnits="userSpaceOnUse" x1="84.5224" y1="100.455" x2="109.8554" y2="106.2367" gradientTransform="matrix(1 0 0 -1 0 200)">
			<stop  offset="0.2207" style="stop-color:#C07800"/>
			<stop  offset="0.7649" style="stop-color:#CD8200"/>
		</linearGradient>
		<polygon class="st6" points="85.7,117 77.7,85.5 107.4,76.6 115.7,109.7 		"/>
		
			<linearGradient id="SVGID_7_" gradientUnits="userSpaceOnUse" x1="61.963" y1="92.0424" x2="93.0918" y2="107.2518" gradientTransform="matrix(1 0 0 -1 0 200)">
			<stop  offset="0.2207" style="stop-color:#C07800"/>
			<stop  offset="0.7649" style="stop-color:#CD8200"/>
		</linearGradient>
		<polygon class="st7" points="66,122.4 83.2,118 75.3,86.1 51.4,92.7 		"/>
		
			<linearGradient id="SVGID_8_" gradientUnits="userSpaceOnUse" x1="40.7599" y1="125.2569" x2="65.3203" y2="148.4818" gradientTransform="matrix(1 0 0 -1 0 200)">
			<stop  offset="3.732527e-02" style="stop-color:#660C0C"/>
			<stop  offset="0.3083" style="stop-color:#EF4E2C"/>
			<stop  offset="0.4398" style="stop-color:#F05A37"/>
			<stop  offset="0.6178" style="stop-color:#FF953B"/>
		</linearGradient>
		<circle class="st8" cx="49.9" cy="66.1" r="9.6"/>
		
			<linearGradient id="SVGID_9_" gradientUnits="userSpaceOnUse" x1="37.9148" y1="121.9115" x2="58.5224" y2="146.6138" gradientTransform="matrix(1 0 0 -1 0 200)">
			<stop  offset="0.2183" style="stop-color:#D44228"/>
			<stop  offset="0.7593" style="stop-color:#F05A37"/>
			<stop  offset="0.9145" style="stop-color:#FFFFFF"/>
		</linearGradient>
		<ellipse class="st9" cx="48.5" cy="65.4" rx="9.1" ry="9.3"/>
		
			<linearGradient id="SVGID_10_" gradientUnits="userSpaceOnUse" x1="51.8106" y1="113.0687" x2="75.9662" y2="144.7893" gradientTransform="matrix(1 0 0 -1 0 200)">
			<stop  offset="3.732527e-02" style="stop-color:#660C0C"/>
			<stop  offset="0.3083" style="stop-color:#EF4E2C"/>
			<stop  offset="0.4398" style="stop-color:#F05A37"/>
			<stop  offset="0.6178" style="stop-color:#FF953B"/>
		</linearGradient>
		<path class="st10" d="M63.9,97.4c0,0,6.6-28.6,7.7-36.2s-4.4-5.3-5-2.8s-2,10.5-9.5,16.6S39,82,36.4,82.1c-2.1,0.1-1.4,1.2,0,1.3
			c1,0.1,7.3,1.1,9.6,3.1s2.9,11.2,2.9,11.2L63.9,97.4z"/>
		
			<linearGradient id="SVGID_11_" gradientUnits="userSpaceOnUse" x1="49.8465" y1="113.446" x2="74.0316" y2="145.2054" gradientTransform="matrix(1 0 0 -1 0 200)">
			<stop  offset="0.2183" style="stop-color:#D44228"/>
			<stop  offset="0.7593" style="stop-color:#FF5800"/>
			<stop  offset="0.9145" style="stop-color:#F47800"/>
		</linearGradient>
		<path class="st11" d="M61.9,97c0,0,6.6-28.6,7.7-36.2s-2.6-4.2-3.2-1.7s-3.8,9.4-11.3,15.5s-18.1,7-20.7,7.1
			c-2.1,0.1-1.2,1.5,0.2,1.6c1,0.1,7.1,0.8,9.4,2.8s2.9,11.2,2.9,11.2L61.9,97z"/>
		<path class="st0" d="M56.5,145.9l-5,3l0.5,5.3c0,0-2.9-0.9-3.2-1.9s-0.9-6.4-0.9-6.4h2.6l0.3,1.2l2.6-1.2L56.5,145.9z"/>
		<path class="st0" d="M80.5,141.8l-6.8-51H27.9l5.9,52.9c0,0-0.9,3,23.8,2.1C82.3,145,80.5,141.8,80.5,141.8z M38.4,92.7h4.4v2.6
			h-4.4V92.7z M30.6,95.5v-2.6H35v2.6H30.6z M39.2,143.5l-4.4-0.6l0.4-2.5l4.4,0.6L39.2,143.5z M47.3,143.8h-4.4v-2.6h4.4V143.8z
			 M50.6,95.3h-4.4v-2.6h4.4V95.3z M55.1,143.8h-4.4v-2.6h4.4V143.8z M58.2,95.3h-4.4v-2.6h4.4V95.3z M62.9,143.8h-4.4v-2.6h4.4
			V143.8z M65.7,95.1h-4.4v-2.6h4.4V95.1z M66.4,143.4l-0.3-2.6l4.4-0.5l0.3,2.6L66.4,143.4z M73.1,94.9h-4.4v-2.6h4.1L73.1,94.9z
			 M74.5,142.1l-0.6-2.5l4.3-1l0.6,2.5L74.5,142.1z"/>
		
			<linearGradient id="SVGID_12_" gradientUnits="userSpaceOnUse" x1="64.0975" y1="84.3508" x2="80.9386" y2="86.9123" gradientTransform="matrix(1 0 0 -1 0 200)">
			<stop  offset="0" style="stop-color:#000000;stop-opacity:0"/>
			<stop  offset="0.4368" style="stop-color:#FFFFFF"/>
			<stop  offset="0.9406" style="stop-color:#000000;stop-opacity:0"/>
		</linearGradient>
		<path class="st12" d="M80.5,141.8l-6.8-51H27.9l5.9,52.9c0,0-0.9,3,23.8,2.1C82.3,145,80.5,141.8,80.5,141.8z M38.4,92.7h4.4v2.6
			h-4.4V92.7z M30.6,95.5v-2.6H35v2.6H30.6z M39.2,143.5l-4.4-0.6l0.4-2.5l4.4,0.6L39.2,143.5z M47.3,143.8h-4.4v-2.6h4.4V143.8z
			 M50.6,95.3h-4.4v-2.6h4.4V95.3z M55.1,143.8h-4.4v-2.6h4.4V143.8z M58.2,95.3h-4.4v-2.6h4.4V95.3z M62.9,143.8h-4.4v-2.6h4.4
			V143.8z M65.7,95.1h-4.4v-2.6h4.4V95.1z M66.4,143.4l-0.3-2.6l4.4-0.5l0.3,2.6L66.4,143.4z M73.1,94.9h-4.4v-2.6h4.1L73.1,94.9z
			 M74.5,142.1l-0.6-2.5l4.3-1l0.6,2.5L74.5,142.1z"/>
		
			<linearGradient id="SVGID_13_" gradientUnits="userSpaceOnUse" x1="47.0693" y1="79.8378" x2="75.8685" y2="86.4106" gradientTransform="matrix(1 0 0 -1 0 200)">
			<stop  offset="0.2183" style="stop-color:#BA780E"/>
			<stop  offset="0.7649" style="stop-color:#C48218"/>
		</linearGradient>
		<path class="st13" d="M74.5,96.9l4.9,39.3c0,0-5,1.8-14.6,2.4c-9.6,0.6-17.6,0.5-17.6,0.5l-1.4-42.2
			C45.8,96.9,74.5,96.9,74.5,96.9z"/>
		
			<linearGradient id="SVGID_14_" gradientUnits="userSpaceOnUse" x1="31.102" y1="81.0023" x2="56.6658" y2="86.8367" gradientTransform="matrix(1 0 0 -1 0 200)">
			<stop  offset="0.2207" style="stop-color:#C07800"/>
			<stop  offset="0.7649" style="stop-color:#CD8200"/>
		</linearGradient>
		<path class="st14" d="M44.1,138.8l-1.3-42H28.6l4.6,40.4c0,0,2.9,0.9,5.1,1.1C40.4,138.6,44.1,138.8,44.1,138.8z"/>
		
			<linearGradient id="SVGID_15_" gradientUnits="userSpaceOnUse" x1="99.6686" y1="101.6906" x2="107.109" y2="112.8687" gradientTransform="matrix(1 0 0 -1 0 200)">
			<stop  offset="0" style="stop-color:#FFB213"/>
			<stop  offset="0.5967" style="stop-color:#F8AB26"/>
			<stop  offset="1" style="stop-color:#F4DE97"/>
		</linearGradient>
		<path class="st15" d="M107.6,89.1c-0.5,0.5-1.3,2.6-5.4,2.7S97,88,96.5,87.3c-0.5-0.8-1.8-0.3-1.2,1.4c1.2,2.2,3.6,4.9,4.6,9.7
			s0.8,9,0.7,10s0.7,0.8,0.9,0c0.2-0.8,1.2-6.2,1.2-6.2s0.6,6.1,0.5,6.6c-0.1,0.6,0.9,1,1.1,0c0.1-0.9,0.6-8.2,1.2-10.8
			c0.6-2.6,2.6-7.1,3.1-8.2C108.9,88.7,108.1,88.6,107.6,89.1z"/>
		<linearGradient id="SVGID_16_" gradientUnits="userSpaceOnUse" x1="100.1871" y1="89.3776" x2="103.9803" y2="85.6625">
			<stop  offset="0" style="stop-color:#FF9B13"/>
			<stop  offset="1" style="stop-color:#F4C733"/>
		</linearGradient>
		<ellipse class="st16" cx="101.9" cy="87.7" rx="3.7" ry="3.1"/>
		
			<linearGradient id="SVGID_17_" gradientUnits="userSpaceOnUse" x1="125.016" y1="70.4462" x2="131.1597" y2="43.2851" gradientTransform="matrix(1 0 0 -1 0 200)">
			<stop  offset="0" style="stop-color:#FFFFFF"/>
			<stop  offset="1" style="stop-color:#000000"/>
		</linearGradient>
		<path class="st17" d="M163.5,133l-0.9,0.6c-0.9,0.6-2,1.3-4.1,1.8c-0.5,0.1-1,0.2-1.5,0.2c-2,0-3.4-1-4.2-3l11-2.6l0.5-0.9l0,0
			c0-0.4-0.1-1-0.3-1.6c-0.8-3.3-3.3-7.2-7.8-7.2c-0.7,0-1.4,0.1-2.1,0.2c-5.2,1.2-7.8,6.1-6.4,12c1.1,4.7,4.4,7.5,8.7,7.5
			c0.8,0,1.7-0.1,2.6-0.3c2.8-0.7,4.7-1.7,5.7-2.5l0.8-1.4L163.5,133z M158.9,138.8c-5.1,1.2-9-1.5-10.2-6.5
			c-1.2-5.1,0.9-9.7,5.7-10.8c5.4-1.3,8,3.2,8.7,6.2c0.1,0.6,0.2,1.1,0.2,1.4l-11.7,2.7c1,4.1,4,5.2,7.1,4.5
			c2.2-0.5,3.4-1.2,4.4-1.9l1,2C163.3,137.1,161.5,138.1,158.9,138.8z M103.6,147.4c-0.8,0.6-1.7,1.2-3.2,1.5
			c-0.4,0.1-0.9,0.2-1.3,0.2c-2.4,0-4.2-1.6-4.9-4.3c-0.4-1.7-0.2-3.2,0.5-4.4c0.7-1.1,1.8-1.8,3.2-2.1c0.6-0.1,1.2-0.2,1.8-0.2
			c0.5,0,1,0.1,1.5,0.2l1.1,0.3l0.2-4.4l-0.7-0.2c-0.6-0.1-1.3-0.2-2.1-0.2c-0.9,0-1.9,0.1-2.8,0.3c-2.9,0.7-5.1,2.2-6.5,4.5
			c-1.3,2.2-1.7,4.9-1.1,7.6c1.1,4.7,4.5,7.6,8.9,7.6c0.8,0,1.7-0.1,2.5-0.3c2.2-0.5,4-1.5,4.9-2.3l0.8-1.6l-2.1-2.7L103.6,147.4z
			 M100.6,152.4c-5,1.2-9.1-1.5-10.3-6.6c-1.2-5.1,1.4-9.7,6.9-11c1.8-0.4,3.5-0.3,4.4-0.1l-0.1,2.5c-0.8-0.2-2.1-0.4-3.7,0
			c-3.8,0.9-5.2,4.2-4.4,7.7c0.9,3.9,3.9,5.7,7.3,4.9c1.7-0.4,2.8-1.1,3.5-1.7l1,2.2C104.5,150.9,102.9,151.9,100.6,152.4z
			 M129.2,141.7l-4.9-20.7l-4.8,1.1l5.9,25.1l14.4-3.4l0.4-1.1l-1-3.4L129.2,141.7z M126,146.1l-5.4-23.2l3-0.7l4.9,20.7l9.9-2.3
			l0.6,2.5L126,146.1z M146.3,122.8l-4,0.9c-0.9-3.9,0.7-4.3,1.4-4.5c0.4-0.1,0.7-0.1,1-0.1c0.2,0,0.4,0,0.6,0.1l1.2,0.2l-0.3-4.3
			l-0.7-0.1c-0.4-0.1-0.8-0.1-1.2-0.1c-0.6,0-1.3,0.1-1.9,0.2c-1.8,0.4-3.3,1.5-4.3,2.9c-1.1,1.8-1.4,4.1-0.7,6.9l-2.3,0.5l1,4.1
			l2.3-0.5l3.4,14.4l4.5-1l0.4-1.1l-3.5-13.3l4-0.9L146.3,122.8z M142.1,127.1l3.4,14.4l-3,0.7l-3.4-14.4l-2.3,0.5l-0.5-2.3l2.3-0.5
			l-0.2-0.8c-0.6-2.4-0.5-4.6,0.6-6.3c0.9-1.4,2.3-2.2,3.7-2.5c1.1-0.3,2.1-0.2,2.7-0.1l0.1,2.4c-0.5-0.1-1.1-0.1-2,0.1
			c-2.6,0.6-2.7,3-2.1,5.6l0.2,0.9l4-0.9l0.5,2.3L142.1,127.1z M119.5,143.7c-0.9,0.6-2,1.3-4.1,1.8c-0.5,0.1-1,0.2-1.5,0.2l0,0
			c-2,0-3.4-1-4.2-3l11.5-2.7v-0.8c0-0.4-0.1-0.9-0.3-1.6c-0.8-3.3-3.3-7.2-7.8-7.2c-0.7,0-1.4,0.1-2.1,0.2c-5.2,1.2-7.8,6.1-6.4,12
			c1.1,4.7,4.4,7.5,8.7,7.5c0.8,0,1.7-0.1,2.6-0.3c2.8-0.7,4.7-1.7,5.7-2.5l0.7-1.4l-2-2.8L119.5,143.7z M115.8,148.9
			c-5.1,1.2-9-1.5-10.2-6.5c-1.2-5.1,0.9-9.7,5.7-10.8c5.4-1.3,8,3.2,8.7,6.2c0.1,0.6,0.2,1.1,0.2,1.4l-11.7,2.7
			c1,4.1,4,5.2,7.1,4.5c2.2-0.5,3.4-1.2,4.4-1.9l1,2C120.1,147.2,118.4,148.3,115.8,148.9z"/>
		<path class="st18" d="M105.2,149.3c-0.7,0.6-2.3,1.6-4.6,2.1c-5,1.2-9.1-1.5-10.3-6.6c-1.2-5.1,1.4-9.7,6.9-11
			c1.8-0.4,3.5-0.3,4.4-0.1l-0.1,2.5c-0.8-0.2-2.1-0.4-3.7,0c-3.8,0.9-5.2,4.2-4.4,7.7c0.9,3.9,3.9,5.7,7.3,4.9
			c1.7-0.4,2.8-1.1,3.5-1.7L105.2,149.3z M108.5,141c1,4.1,4,5.2,7.1,4.5c2.2-0.5,3.4-1.2,4.4-1.9l1,2c-0.9,0.7-2.7,1.7-5.3,2.4
			c-5.1,1.2-9-1.5-10.2-6.5c-1.2-5.1,0.9-9.7,5.7-10.8c5.4-1.3,8,3.2,8.7,6.2c0.1,0.6,0.2,1.1,0.2,1.4L108.5,141z M116.9,136.7
			c-0.4-1.9-1.9-4.7-5.3-3.9c-3.1,0.7-3.8,3.8-3.5,6L116.9,136.7z M120.6,121.8l3-0.7l4.9,20.7l9.9-2.3l0.6,2.5l-13,3L120.6,121.8z
			 M142.5,141.2l-3.4-14.4l-2.3,0.5l-0.5-2.3l2.3-0.5l-0.2-0.8c-0.6-2.4-0.5-4.6,0.6-6.3c0.9-1.4,2.3-2.2,3.7-2.5
			c1.1-0.3,2.1-0.2,2.7-0.1l0.1,2.4c-0.5-0.1-1.1-0.1-2,0.1c-2.6,0.6-2.7,3-2.1,5.6l0.2,0.9l4-0.9l0.5,2.3l-4,0.9l3.4,14.4
			L142.5,141.2z M151.7,130.9c1,4.1,4,5.2,7.1,4.5c2.2-0.5,3.4-1.2,4.4-1.9l1,2c-0.9,0.7-2.7,1.7-5.3,2.4c-5.1,1.2-9-1.5-10.2-6.5
			c-1.2-5.1,0.9-9.7,5.7-10.8c5.4-1.3,8,3.2,8.7,6.2c0.1,0.6,0.2,1.1,0.2,1.4L151.7,130.9z M160,126.6c-0.4-1.9-1.9-4.7-5.3-3.9
			c-3.1,0.7-3.8,3.8-3.5,6L160,126.6z"/>
		
			<linearGradient id="SVGID_18_" gradientUnits="userSpaceOnUse" x1="85.6916" y1="102.799" x2="90.0643" y2="108.8465" gradientTransform="matrix(1 0 0 -1 0 200)">
			<stop  offset="0.4577" style="stop-color:#9A2B7B"/>
			<stop  offset="0.8729" style="stop-color:#FF76BF"/>
		</linearGradient>
		<ellipse class="st19" cx="87.5" cy="94.7" rx="3.7" ry="3.2"/>
		
			<linearGradient id="SVGID_19_" gradientUnits="userSpaceOnUse" x1="85.007" y1="90.5093" x2="96.5866" y2="108.0848" gradientTransform="matrix(1 0 0 -1 0 200)">
			<stop  offset="0.4577" style="stop-color:#9A2B7B"/>
			<stop  offset="0.8729" style="stop-color:#FF76BF"/>
		</linearGradient>
		<path class="st20" d="M84.3,100.2c1.7,0.3,4.1-0.4,4.1,4s-1.5,7.6-1.8,8.6c-0.2,1.1,0.6,1.1,0.9,0.3c0.3-0.7,2.3-5.5,2.3-5.5
			s0.6,1.6-1.1,5.8c-0.4,1,0.6,1.5,1.1,0.4s2.7-4.8,4.2-11.2c1.5-6.4,1.6-10.1,1.6-11.1s-1-1.1-1.3-0.3C94,92,94,95.5,90.9,97.8
			c-3.1,2.4-5.1,1.2-6.2,1.2C83.9,99.1,83.4,100.2,84.3,100.2z"/>
		<linearGradient id="SVGID_20_" gradientUnits="userSpaceOnUse" x1="90.359" y1="91.6133" x2="85.9872" y2="109.1949">
			<stop  offset="3.032111e-02" style="stop-color:#FC75AF"/>
			<stop  offset="0.743" style="stop-color:#CE559E"/>
		</linearGradient>
		<path class="st21" d="M83.8,94.7c0-1.7,1.5-3,3.3-3s3.3,1.3,3.3,3s-1.5,3-3.3,3S83.8,96.4,83.8,94.7z M93.8,91.2
			c-0.3,0.8-0.3,4.3-3.4,6.6c-3.1,2.4-5.1,1.2-6.2,1.2c-0.8,0.1-1.3,1.2-0.4,1.2c1.7,0.3,4.1-0.4,4.1,4s-1.5,7.6-1.8,8.6
			c-0.2,1.1,0.6,1.1,0.9,0.3c0.3-0.7,2.3-5.5,2.3-5.5s0.6,1.6-1.1,5.8c-0.4,1,0.6,1.5,1.1,0.4s2.7-4.8,4.2-11.2
			c1.5-6.4,1.6-10.1,1.6-11.1S94.1,90.4,93.8,91.2z"/>
		
			<linearGradient id="SVGID_21_" gradientUnits="userSpaceOnUse" x1="118.4792" y1="108.9435" x2="135.9533" y2="108.9435" gradientTransform="matrix(1 0 0 -1 0 200)">
			<stop  offset="0.1648" style="stop-color:#1E9A65"/>
			<stop  offset="0.4752" style="stop-color:#75C27A"/>
			<stop  offset="0.9692" style="stop-color:#75F2A2"/>
		</linearGradient>
		<path class="st22" d="M121.4,80.2c0.7,1.1,3.1,5.6,1.8,11.4s-4.5,10.1-4.7,11.1s1.1,0.5,1.4,0s4.7-6,6.6-5.5s6.7,4.2,7.5,4.9
			s1.3,0.2,0.9-0.4c-0.4-0.6-5.9-6.5-5.4-9.6c0.4-3.1,4.3-4.4,5.6-4.3c1.3-0.2,1.1-1.4-0.5-1.2c-1.5,0.2-4.4-0.7-6.4-2
			s-4.9-4.7-5.7-5.4C121.5,78.4,120.7,79,121.4,80.2z"/>
		
			<linearGradient id="SVGID_22_" gradientUnits="userSpaceOnUse" x1="126.4543" y1="117.1942" x2="131.5317" y2="122.0129" gradientTransform="matrix(1 0 0 -1 0 200)">
			<stop  offset="0.1648" style="stop-color:#1E9A65"/>
			<stop  offset="0.4752" style="stop-color:#75C27A"/>
			<stop  offset="0.9692" style="stop-color:#75F2A2"/>
		</linearGradient>
		<circle class="st23" cx="129.2" cy="80.2" r="3.5"/>
		<linearGradient id="SVGID_23_" gradientUnits="userSpaceOnUse" x1="132.7835" y1="81.9751" x2="119.7029" y2="104.3875">
			<stop  offset="0.1648" style="stop-color:#61FF60"/>
			<stop  offset="0.719" style="stop-color:#61EB7E"/>
		</linearGradient>
		<path class="st24" d="M134.7,87.8c-1.3-0.1-5.2,1.2-5.6,4.3c-0.5,3.1,5,9,5.4,9.6s-0.1,1.1-0.9,0.4c-0.8-0.7-5.6-4.4-7.5-4.9
			s-6.3,5-6.6,5.5s-1.6,1-1.4,0s3.4-5.3,4.7-11.1c1.3-5.8-1.1-10.3-1.8-11.4c-0.7-1.2,0.1-1.8,1.1-1c0.8,0.7,3.7,4.1,5.7,5.4
			c2,1.3,4.9,2.2,6.4,2C135.8,86.4,136,87.6,134.7,87.8z M128.8,82.9c1.7,0,3.1-1.4,3.1-3.1s-1.4-3.1-3.1-3.1
			c-1.7,0-3.1,1.4-3.1,3.1S127.1,82.9,128.8,82.9z"/>
		
			<linearGradient id="SVGID_24_" gradientUnits="userSpaceOnUse" x1="141.5839" y1="120.4592" x2="146.9401" y2="125.6412" gradientTransform="matrix(1 0 0 -1 0 200)">
			<stop  offset="0.1648" style="stop-color:#3552A2"/>
			<stop  offset="0.4847" style="stop-color:#407CD3"/>
			<stop  offset="0.9562" style="stop-color:#86BFD9"/>
		</linearGradient>
		<ellipse class="st25" cx="143.9" cy="77.3" rx="4" ry="3.5"/>
		
			<linearGradient id="SVGID_25_" gradientUnits="userSpaceOnUse" x1="141.2166" y1="120.9844" x2="146.1109" y2="125.7195" gradientTransform="matrix(1 0 0 -1 0 200)">
			<stop  offset="0.1648" style="stop-color:#4263AD"/>
			<stop  offset="0.4847" style="stop-color:#4063AD"/>
			<stop  offset="0.9692" style="stop-color:#5F7CBC"/>
		</linearGradient>
		<ellipse class="st26" cx="143.3" cy="77" rx="3.6" ry="3.2"/>
		
			<linearGradient id="SVGID_26_" gradientUnits="userSpaceOnUse" x1="135.7079" y1="106.2554" x2="151.9373" y2="121.9572" gradientTransform="matrix(1 0 0 -1 0 200)">
			<stop  offset="0.1648" style="stop-color:#3552A2"/>
			<stop  offset="0.4847" style="stop-color:#407CD3"/>
			<stop  offset="0.9562" style="stop-color:#86BFD9"/>
		</linearGradient>
		<path class="st27" d="M137.3,75c0,0.6,0.8,8.5,1.3,11.3s0.7,11.1,0.5,12.3c-0.2,1.2,0.6,2,1,0.7c0.4-1.2,0.7-4,1.9-5
			s4.3,3.8,4.8,4.7c0.5,0.9,1.7,0.5,1.1-0.5s-3.4-4.4-2.7-10.5s4.8-6.7,5.6-7.1s0.8-2.1-1-1.3c-1.8,0.8-3,2.1-7,1.8
			c-4-0.3-4.2-5.9-4.5-6.5C138,74.4,137.3,74.4,137.3,75z"/>
		
			<linearGradient id="SVGID_27_" gradientUnits="userSpaceOnUse" x1="135.5079" y1="106.2554" x2="151.7373" y2="121.9572" gradientTransform="matrix(1 0 0 -1 0 200)">
			<stop  offset="0.1648" style="stop-color:#3552A2"/>
			<stop  offset="0.4847" style="stop-color:#2C81CC"/>
			<stop  offset="0.9692" style="stop-color:#3B86D0"/>
		</linearGradient>
		<path class="st28" d="M137.1,75c0,0.6,0.8,8.5,1.3,11.3s0.7,11.1,0.5,12.3c-0.2,1.2,0.6,2,1,0.7c0.4-1.2,0.7-4,1.9-5
			s4.3,3.8,4.8,4.7c0.5,0.9,1.7,0.5,1.1-0.5c-0.6-1-3.4-4.4-2.7-10.5s4.8-6.7,5.6-7.1s0.8-2.1-1-1.3c-1.8,0.8-3,2.1-7,1.8
			c-4-0.3-4.2-5.9-4.5-6.5C137.8,74.4,137.1,74.4,137.1,75z"/>
		
			<linearGradient id="SVGID_28_" gradientUnits="userSpaceOnUse" x1="75.4488" y1="93.509" x2="77.1644" y2="78.5189" gradientTransform="matrix(1 0 0 -1 0 200)">
			<stop  offset="0" style="stop-color:#FFFFFF;stop-opacity:0"/>
			<stop  offset="1" style="stop-color:#FFE97E"/>
		</linearGradient>
		<polygon class="st29" points="74.5,96.9 79.4,136.2 78.8,136.4 73.8,96.9 		"/>
		
			<linearGradient id="SVGID_29_" gradientUnits="userSpaceOnUse" x1="75.1527" y1="83.7081" x2="66.9049" y2="82.5299" gradientTransform="matrix(1 0 0 -1 0 200)">
			<stop  offset="0" style="stop-color:#FFFFFF;stop-opacity:0"/>
			<stop  offset="0.2822" style="stop-color:#FFE97E"/>
			<stop  offset="0.9406" style="stop-color:#FFE97E;stop-opacity:0"/>
		</linearGradient>
		<path class="st30" d="M73.8,96.9l5.3,39.4c0,0-1.2,0.3-2.9,0.8s-6.4,1-6.4,1l-6.6-41.2C63.2,96.9,73.8,96.9,73.8,96.9z"/>
		
			<linearGradient id="SVGID_30_" gradientUnits="userSpaceOnUse" x1="158.716" y1="119.4933" x2="175.1999" y2="123.2554" gradientTransform="matrix(1 0 0 -1 0 200)">
			<stop  offset="0.2183" style="stop-color:#CD8200"/>
			<stop  offset="0.7649" style="stop-color:#C48218"/>
		</linearGradient>
		<path class="st31" d="M161.3,99c0,0,4.8-0.9,9.3-1.8c3.9-0.8,5.1-1,5.1-1l-2.8-38.5l-20,5.2L161.3,99z"/>
		
			<linearGradient id="SVGID_31_" gradientUnits="userSpaceOnUse" x1="171.3008" y1="122.3682" x2="176.4996" y2="123.5547" gradientTransform="matrix(1 0 0 -1 0 200)">
			<stop  offset="0" style="stop-color:#FFFFFF;stop-opacity:0"/>
			<stop  offset="1" style="stop-color:#FFE97E"/>
		</linearGradient>
		<polygon class="st32" points="175,96.3 175.7,96.2 172.9,57.7 172,57.9 		"/>
		
			<linearGradient id="SVGID_32_" gradientUnits="userSpaceOnUse" x1="165.3777" y1="121.6236" x2="173.2068" y2="122.6214" gradientTransform="matrix(1 0 0 -1 0 200)">
			<stop  offset="0" style="stop-color:#FFFFFF;stop-opacity:0"/>
			<stop  offset="0.4368" style="stop-color:#FFE97E"/>
			<stop  offset="0.9406" style="stop-color:#FFE97E;stop-opacity:0"/>
		</linearGradient>
		<polygon class="st33" points="166.9,97.9 175,96.3 172.9,57.7 161.7,60.6 		"/>
		<linearGradient id="SVGID_33_" gradientUnits="userSpaceOnUse" x1="96.7424" y1="103.8207" x2="104.2488" y2="86.9246">
			<stop  offset="0.4577" style="stop-color:#F4C733"/>
			<stop  offset="0.9692" style="stop-color:#FCF939"/>
		</linearGradient>
		<path class="st34" d="M98.3,87.6c0-1.7,1.4-3,3.1-3s3.1,1.3,3.1,3s-1.4,3-3.1,3C99.7,90.6,98.3,89.3,98.3,87.6z M107.1,89.1
			c-0.5,0.5-1.3,2.6-5.4,2.7S96.5,88,96,87.3c-0.5-0.8-1.8-0.3-1.2,1.4c1.2,2.2,3.6,4.9,4.6,9.7c1,4.8,0.8,9,0.7,10
			c-0.1,1,0.7,0.8,0.9,0c0.2-0.8,1.2-6.2,1.2-6.2s0.6,6.1,0.5,6.6c-0.1,0.6,0.9,1,1.1,0c0.1-0.9,0.6-8.2,1.2-10.8s2.6-7.1,3.1-8.2
			C108.4,88.7,107.6,88.6,107.1,89.1z"/>
	</g>
</g>
<path class="st35" d="M101.3,157.7c-6.3,0-11.4-4.2-12.9-10.8c-0.9-3.8-0.4-7.5,1.4-10.4l-3.3,0.8l-5-21.4l7.6-1.8
	c1.6-0.4,2.9-0.5,4-0.5c0.4,0,0.9,0,1.3,0.1l-0.2-0.8l6.7-1.7l0,0l1.1-0.3l3.6-0.9l0,0l15.8-3.8l-3,12l2.6-0.6l0.2,0.7l9.1-2.2
	l4.9,20.7l3.8-0.9l-0.5-2.2l-2.4,0.5l-2.5-12.1l2.7-0.6c0.1-2.7,1-4.7,1.8-6c1.6-2.3,4-4,6.8-4.6c0.7-0.1,1.6-0.3,2.6-0.3
	c0.5,0,1.2,0,2,0.2l4,0.5l0.3,6.4c0.9-0.4,1.8-0.8,2.8-1c1-0.3,2-0.4,3.1-0.4c6.5,0,10.6,5.3,11.7,10.3l0.1,0.5l0.1,0.3
	c0.1,0.5,0.2,1.1,0.2,1.7v4h-0.2l2.3,4.6l-3,2.5c-0.8,0.6-3,2.2-7.2,3.4c-1.2,0.4-2.5,0.6-3.8,0.6c-2,0-3.9-0.4-5.6-1.2l0.5,2.2
	l-12.7,3.1v-0.1l-16.6,3.9v-0.2c-1.2,0.6-2.8,1.4-5,1.9c-1.2,0.4-2.4,0.5-3.8,0.5c-1.6,0-3.1-0.3-4.4-0.7l-0.5,0.4
	c-1.2,1.1-3.5,2.5-6.6,3.2C103.8,157.5,102.6,157.7,101.3,157.7z"/>
<path d="M107.5,146.4l1.9,4.1l-0.6,0.5c-0.4,0.4-2.1,1.7-5,2.3c-0.8,0.3-1.7,0.4-2.5,0.4c-4.4,0-7.9-2.9-9-7.7
	c-1.4-5.8,1.8-10.8,7.6-12.2c0.9-0.2,1.8-0.3,2.8-0.3c0.8,0,1.5,0.1,2.1,0.2l0.8,0.2l-0.2,4.6l-1.2-0.3c-0.5-0.1-1.1-0.2-1.6-0.2
	s-1.1,0.1-1.6,0.2c-3.6,0.9-4.2,4-3.7,6.5c0.6,2.7,2.4,4.3,4.8,4.3c0.4,0,0.9-0.1,1.3-0.2c1.2-0.3,2.3-0.8,3.1-1.5L107.5,146.4z
	 M168.6,136.7l-0.6,0.5c-0.6,0.5-2.4,1.7-5.7,2.6c-1,0.3-1.9,0.4-2.7,0.4c-4.4,0-7.7-2.8-8.8-7.5c-0.7-3.1-0.3-6,1.1-8.3
	c1.2-1.9,3.1-3.2,5.4-3.8c0.7-0.2,1.4-0.3,2.1-0.3c4.5,0,7.1,3.9,7.8,7.2l0.1,0.4c0.1,0.5,0.2,0.9,0.2,1.2v0.8l-11.3,2.6
	c0.8,1.9,2.2,3,4.1,3c0.5,0,1-0.1,1.5-0.2c2.1-0.5,3.2-1.2,4-1.7l0.9-0.7L168.6,136.7z M155.1,128.5l6.6-1.6c-0.4-1-1.2-2.3-2.9-2.3
	c-0.3,0-0.6,0-0.9,0.1C155.8,125.2,155.2,127,155.1,128.5z M123.5,143l1.9,3.8l-0.6,0.5c-0.6,0.5-2.4,1.7-5.7,2.6
	c-1,0.3-1.9,0.4-2.7,0.4c-4.4,0-7.7-2.8-8.8-7.5c-0.7-3.1-0.3-6,1.1-8.3c1.2-1.9,3.1-3.2,5.4-3.8c0.7-0.2,1.4-0.3,2.1-0.3
	c4.5,0,7.1,3.9,7.8,7.2l0.1,0.4c0.1,0.5,0.2,0.9,0.2,1.2v0.8l-11.3,2.6c0.8,1.9,2.2,3,4.1,3c0.5,0,1-0.1,1.5-0.2
	c2.1-0.5,3.2-1.2,4-1.7L123.5,143z M112,138.6l6.6-1.6c-0.4-1-1.2-2.3-2.9-2.3c-0.3,0-0.6,0-0.9,0.1
	C112.7,135.3,112.1,137.1,112,138.6z M132.2,141.6l-4.9-20.7l-4.9,1.2l5.8,25.1l15-3.5l-1.1-4.4L132.2,141.6z M149.4,122.6l-4,0.9
	c-0.8-3.8,0.7-4.1,1.4-4.3c0.4-0.1,0.8-0.1,1.1-0.1c0.2,0,0.3,0,0.5,0l1.2,0.3l-0.2-4.5l-0.8-0.1c-0.4-0.1-0.9-0.1-1.3-0.1
	c-0.6,0-1.2,0.1-1.7,0.2c-1.8,0.4-3.3,1.4-4.3,2.9c-1.2,1.8-1.5,4.1-0.8,6.9l-2.3,0.5l0.9,4.3l2.3-0.5l3.4,14.4l4.9-1.2l-3.4-14.4
	l4-0.9L149.4,122.6z M94.3,131.2l-4.8,1.2l-3.2-13.6l3.7-0.9c2.2-0.5,3.8-0.6,4.9-0.1s1.8,1.3,2.1,2.4c0.3,1.2-0.2,2.3-1.4,3.4
	c1.7,0.1,2.7,0.9,3.1,2.4c0.3,1.2,0,2.2-0.8,3.2C97.1,130.2,95.9,130.8,94.3,131.2z M91.3,123.4c1.6-0.4,2.3-1.1,2.1-2
	c-0.1-0.5-0.4-0.9-0.9-1c-0.4-0.2-1.1-0.1-1.9,0.1L91.3,123.4z M92.6,128.7c0.9-0.2,1.6-0.5,2-0.9c0.4-0.3,0.5-0.8,0.4-1.3
	c-0.2-1-1.2-1.2-2.8-0.8l-0.3,0.1L92.6,128.7z M105.9,128.3l-3.3-13.5l-3.6,0.9l3.3,13.5L105.9,128.3z M110.9,115.9l-2.9,12
	l10.7-2.6l-0.7-2.9l-5.1,1.2l3-12l-10.4,2.5l0.6,3L110.9,115.9z"/>
<path class="st36" d="M101.3,153.7c-4.4,0-7.9-2.9-9-7.7c-1.4-5.8,1.8-10.8,7.6-12.2c0.9-0.2,1.8-0.3,2.8-0.3c0.8,0,1.5,0.1,2.1,0.2
	l0.8,0.2l-0.2,4.6l-1.2-0.3c-0.5-0.1-1.1-0.2-1.6-0.2s-1.1,0.1-1.6,0.2c-3.6,0.9-4.2,4-3.7,6.5c0.6,2.7,2.4,4.3,4.8,4.3
	c0.4,0,0.9-0.1,1.3-0.2c1.2-0.3,2.3-0.8,3.1-1.5l1-0.9l1.9,4.1l-0.6,0.5c-0.4,0.4-2.1,1.7-5,2.3C103,153.6,102.1,153.7,101.3,153.7z
	 M116.4,150.3c-4.4,0-7.7-2.8-8.8-7.5c-0.7-3.1-0.3-6,1.1-8.3c1.2-1.9,3.1-3.2,5.4-3.8c0.7-0.2,1.4-0.3,2.1-0.3
	c4.5,0,7.1,3.9,7.8,7.2l0.1,0.4c0.1,0.5,0.2,0.9,0.2,1.2v0.8l-11.3,2.6c0.8,1.9,2.2,3,4.1,3l0,0c0.5,0,1-0.1,1.5-0.2
	c2.1-0.5,3.2-1.2,4-1.7l0.9-0.7l1.9,3.8l-0.6,0.5c-0.6,0.5-2.4,1.7-5.7,2.6C118.1,150.2,117.2,150.3,116.4,150.3z M115.7,134.7
	c-0.3,0-0.6,0-0.9,0.1c-2.1,0.5-2.7,2.3-2.8,3.8l6.6-1.6C118.2,136,117.4,134.7,115.7,134.7z M122.4,122.1l4.9-1.2l4.9,20.7l9.9-2.3
	l1.1,4.4l-15,3.5L122.4,122.1z M141.4,129l-2.3,0.5l-0.9-4.3l2.3-0.5c-0.7-2.8-0.4-5.1,0.8-6.9c1-1.5,2.5-2.5,4.3-2.9
	c0.5-0.1,1.1-0.2,1.7-0.2c0.4,0,0.9,0,1.3,0.1l0.8,0.1l0.2,4.5l-1.2-0.3c-0.2,0-0.3,0-0.5,0c-0.3,0-0.7,0-1.1,0.1
	c-0.7,0.2-2.2,0.5-1.4,4.3l4-0.9l0.9,4.3l-4,0.9l3.4,14.4l-4.9,1.2L141.4,129z M159.6,140.2c-4.4,0-7.7-2.8-8.8-7.5
	c-0.7-3.1-0.3-6,1.1-8.3c1.2-1.9,3.1-3.2,5.4-3.8c0.7-0.2,1.4-0.3,2.1-0.3c4.5,0,7.1,3.9,7.8,7.2l0.1,0.4c0.1,0.5,0.2,0.9,0.2,1.2
	v0.8l-11.3,2.6c0.8,1.9,2.2,3,4.1,3l0,0c0.5,0,1-0.1,1.5-0.2c2.1-0.5,3.2-1.2,4-1.7l0.9-0.7l1.9,3.8l-0.6,0.5
	c-0.6,0.5-2.4,1.7-5.7,2.6C161.3,140.1,160.4,140.2,159.6,140.2z M158.8,124.6c-0.3,0-0.6,0-0.9,0.1c-2.1,0.5-2.7,2.3-2.8,3.8
	l6.6-1.6C161.3,125.9,160.5,124.6,158.8,124.6z"/>
<linearGradient id="SVGID_34_" gradientUnits="userSpaceOnUse" x1="104.2914" y1="145.2399" x2="101.8551" y2="113.7015">
	<stop  offset="0.4577" style="stop-color:#F4C733"/>
	<stop  offset="0.9692" style="stop-color:#FCF939"/>
</linearGradient>
<path class="st37" d="M86.3,118.8l3.7-0.9c2.2-0.5,3.8-0.6,4.9-0.1s1.8,1.3,2.1,2.4c0.3,1.2-0.2,2.3-1.4,3.4
	c1.7,0.1,2.7,0.9,3.1,2.4c0.3,1.2,0,2.2-0.8,3.2s-2,1.6-3.6,2l-4.8,1.2L86.3,118.8z M90.6,120.5l0.7,2.9c1.6-0.4,2.3-1.1,2.1-2
	c-0.1-0.5-0.4-0.9-0.9-1C92.1,120.2,91.4,120.3,90.6,120.5z M91.9,125.8l0.7,2.9c0.9-0.2,1.6-0.5,2-0.9c0.4-0.3,0.5-0.8,0.4-1.3
	c-0.2-1-1.2-1.2-2.8-0.8L91.9,125.8z M99,115.7l3.6-0.9l3.3,13.5l-3.6,0.9L99,115.7z M105.5,114.1l10.4-2.5l-3,12l5.1-1.2l0.7,2.9
	l-10.7,2.6l2.9-12l-4.8,1.2L105.5,114.1z"/>
</svg>
