<?xml version="1.0" encoding="UTF-8"?>
<svg id="Layer_1" xmlns="http://www.w3.org/2000/svg" version="1.1" xmlns:xlink="http://www.w3.org/1999/xlink" viewBox="0 0 200 200">
  <!-- Generator: Adobe Illustrator 29.0.1, SVG Export Plug-In . SVG Version: 2.1.0 Build 192)  -->
  <defs>
    <style>
      .st0 {
        fill: url(#linear-gradient2);
      }

      .st1 {
        fill: #020202;
      }

      .st2 {
        fill: url(#radial-gradient4);
      }

      .st2, .st3, .st4, .st5 {
        display: none;
      }

      .st6 {
        fill: #fff;
      }

      .st7 {
        fill: url(#linear-gradient1);
      }

      .st8 {
        fill: url(#radial-gradient1);
      }

      .st9, .st10 {
        isolation: isolate;
      }

      .st10 {
        fill: url(#radial-gradient6);
        mix-blend-mode: soft-light;
      }

      .st3 {
        fill: url(#radial-gradient3);
      }

      .st11 {
        fill: url(#radial-gradient2);
      }

      .st4 {
        fill: url(#radial-gradient);
      }

      .st12 {
        fill: url(#linear-gradient);
      }

      .st13 {
        fill: #392770;
      }

      .st5 {
        fill: url(#radial-gradient5);
      }
    </style>
    <linearGradient id="linear-gradient" x1="62.9" y1="50.2" x2="91.9" y2="94.6" gradientUnits="userSpaceOnUse">
      <stop offset=".3" stop-color="#fdc010"/>
      <stop offset="1" stop-color="#c17928"/>
    </linearGradient>
    <linearGradient id="linear-gradient1" x1="143.7" y1="53.5" x2="111.7" y2="95.7" gradientUnits="userSpaceOnUse">
      <stop offset=".3" stop-color="#fd6e2f"/>
      <stop offset="1" stop-color="#d0492d"/>
    </linearGradient>
    <linearGradient id="linear-gradient2" x1="27.3" y1="115.7" x2="70.1" y2="115.7" gradientUnits="userSpaceOnUse">
      <stop offset=".3" stop-color="#4e92ce"/>
      <stop offset="1" stop-color="#218ebe"/>
    </linearGradient>
    <radialGradient id="radial-gradient" cx="69.3" cy="175.2" fx="69.3" fy="175.2" r="11.5" gradientTransform="translate(6.1 -5.6) rotate(3.4)" gradientUnits="userSpaceOnUse">
      <stop offset=".3" stop-color="#fdc010"/>
      <stop offset="1" stop-color="#be5c27"/>
    </radialGradient>
    <radialGradient id="radial-gradient1" cx="166" cy="118" fx="166" fy="118" r="11.5" gradientTransform="translate(6 -5.7) rotate(3.3)" gradientUnits="userSpaceOnUse">
      <stop offset=".3" stop-color="#828e3f"/>
      <stop offset="1" stop-color="#629e58"/>
    </radialGradient>
    <radialGradient id="radial-gradient2" cx="150" cy="118.1" fx="150" fy="118.1" r="22.9" gradientTransform="translate(5.9 -5.6) rotate(3.3)" gradientUnits="userSpaceOnUse">
      <stop offset=".3" stop-color="#828e3f"/>
      <stop offset="1" stop-color="#629e58"/>
    </radialGradient>
    <radialGradient id="radial-gradient3" cx="130.3" cy="163.7" fx="130.3" fy="163.7" r="25" gradientTransform="translate(5.9 -5.6) rotate(3.3)" gradientUnits="userSpaceOnUse">
      <stop offset=".3" stop-color="#fdc010"/>
      <stop offset="1" stop-color="#be5c27"/>
    </radialGradient>
    <radialGradient id="radial-gradient4" cx="134.2" cy="174.5" fx="134.2" fy="174.5" r="11.5" gradientTransform="translate(6.2 -5.5) rotate(3.4)" gradientUnits="userSpaceOnUse">
      <stop offset=".3" stop-color="#fdc010"/>
      <stop offset="1" stop-color="#be5c27"/>
    </radialGradient>
    <radialGradient id="radial-gradient5" cx="72.1" cy="163" fx="72.1" fy="163" r="24.9" gradientTransform="translate(5.9 -5.6) rotate(3.3)" gradientUnits="userSpaceOnUse">
      <stop offset=".3" stop-color="#fdc010"/>
      <stop offset="1" stop-color="#be5c27"/>
    </radialGradient>
    <radialGradient id="radial-gradient6" cx="100.1" cy="99.5" fx="100.1" fy="99.5" r="64.8" gradientTransform="translate(0 200) scale(1 -1)" gradientUnits="userSpaceOnUse">
      <stop offset="0" stop-color="#6c6365" stop-opacity="0"/>
      <stop offset="0" stop-color="#726a6c" stop-opacity="0"/>
      <stop offset=".3" stop-color="#867e80" stop-opacity="0"/>
      <stop offset=".6" stop-color="#a6a1a2" stop-opacity=".2"/>
      <stop offset=".8" stop-color="#d2d0d0" stop-opacity=".3"/>
      <stop offset="1" stop-color="#fff" stop-opacity=".5"/>
    </radialGradient>
  </defs>
  <g class="st9">
    <g id="Layer_11" data-name="Layer_1">
      <path class="st1" d="M165.2,138.5c9.1,0,16.6-7.4,16.8-16.4,0-4.4-1.6-8.7-4.7-12-3.1-3.2-7.3-5.1-11.7-5.1h-1.3c3.6-5.6,6-10.7,2.5-15.1-.9-1.2-2.6-2.5-5.3-2.7,2-2.2,2.8-4.5,2.1-6.9-1.5-5.9-8.6-5.9-12.9-5.9s-1.3,0-2,0c.4-.5.8-1.2,1.2-1.7,2.3-3.8,3-8.3,2-12.7-1.1-4.4-3.7-8-7.6-10.3-2.6-1.6-5.6-2.4-8.7-2.4-5.9,0-11.3,3-14.4,8.1-.3.4-.4.8-.6,1.2-2.8-5.6-5.8-9.9-10.7-9.9s-.8,0-1.2,0c-2,.3-3.6,1.2-5,3.3-1-2.8-2.5-4.6-5-5.2-.5-.2-1.2-.3-1.8-.3-4.6,0-7.5,4.2-10.7,10.3-.3-.6-.5-1.3-.9-2-2.9-5.3-8.6-8.7-14.7-8.7s-5.6.7-8.1,2c-3.9,2.1-6.7,5.7-8,10-1.2,4.3-.7,8.8,1.4,12.8.2.4.4.8.7,1.2h-3.2c-2.2,0-9.1,0-11.2,5.5-.7,1.9-.8,3.7.4,5.9-1-.2-1.6-.2-2-.2-2.5,0-4.1,1.1-5,1.9-4.1,4-1.5,9.3,2.4,15.9-.7,0-1.4-.2-2.1-.2h-.4c-9.1,0-16.6,7.4-16.8,16.4-.2,9.2,7.2,16.9,16.4,17.1h1.3c-3.6,5.6-6,10.7-2.5,15.1,1,1.2,2.8,2.7,6.1,2.7h0c1.9,0,7.5,0,27.6-12.4l3.8-2.4-1.7-4.2c-1.9-4.6-2.7-9.4-2.4-14.4.3-5.1,1.7-9.8,4.1-14.1l1.2-2.1,1.5-2c6.2-8,15.5-12.6,25.6-12.8h2.5l2.5.3c9.9,1.3,18.6,7.1,23.9,15.7l1.2,2.1,1,2.3c1.9,4.6,2.7,9.4,2.4,14.4-.3,5.1-1.7,9.8-4.1,14.1l-2.5,4.4,4.3,2.7c22.4,14.2,27.4,14.3,29.3,14.3h0c2.5,0,4.1-1.1,5-1.9,4.1-4,1.5-9.3-2.4-15.9.7,0,1.4.2,2.1.2h.4-.2,0Z"/>
      <g>
        <path class="st12" d="M46.9,77.5c2.1-5.3,23.1,1.8,31.2-2.7s14.6-26.1,18.9-24.9c3.4,1,2.9,21.7,2.5,30.5-12,.2-22.7,5.9-29.7,14.8-8.3-4.5-24.4-13.8-22.9-17.8h0ZM75.7,71c5.5-3,7.5-10,4.5-15.5s-10-7.5-15.5-4.5-7.5,10-4.5,15.5,10,7.5,15.5,4.5Z"/>
        <path class="st7" d="M125.3,58.1c3.3-5.4,10.3-7.1,15.7-3.9,5.4,3.3,7.1,10.3,3.9,15.7-3.3,5.4-10.3,7.1-15.7,3.9-5.4-3.3-7.1-10.3-3.9-15.7ZM132.9,99c7.8-4.1,26-13.9,25.1-17.4-1.2-4.4-23.1.9-31-3.9s-12.2-26.5-17.9-25.7c-4.3.6-4.3,19.2-3.9,28.7,11.9,1.6,21.9,8.6,27.7,18.3Z"/>
        <path class="st0" d="M35,127c-6.3,0-11.4-5.3-11.2-11.6,0-6.3,5.3-11.4,11.6-11.2,6.3,0,11.4,5.3,11.2,11.6,0,6.3-5.3,11.4-11.6,11.2ZM61.8,116.4c.4-5.9,2-11.5,4.8-16.4-7.5-4.7-25.1-15.5-27.6-13.1-3.2,3.2,12.3,19.5,12.1,28.9-.2,9.2-16.9,23.8-13.2,28.3,2.7,3.4,18.7-5.9,26.8-10.9-2.1-5.1-3.1-10.8-2.8-16.8h0Z"/>
        <circle class="st4" cx="64.9" cy="173.4" r="11.5"/>
        <circle class="st8" cx="165" cy="121.6" r="11.5"/>
        <path class="st11" d="M162.3,93.2c-2.7-3.4-18.7,5.9-26.8,10.9,2.1,5.1,3.1,10.8,2.8,16.8-.4,5.9-2,11.5-4.8,16.4,7.5,4.7,25.1,15.5,27.6,13.1s-12.3-19.5-12.1-28.9c.2-9.2,16.9-23.8,13.2-28.3h.1Z"/>
        <path class="st3" d="M130.3,142.1c-6.9,9-17.8,14.7-29.7,14.8-.4,8.8-.9,29.6,2.5,30.5,4.4,1.2,10.8-20.4,18.9-24.9,8.1-4.4,29,2.7,31.2-2.7,1.5-4-14.5-13.2-22.9-17.8h0Z"/>
        <circle class="st2" cx="129.9" cy="176.5" r="11.5"/>
        <path class="st5" d="M67.2,138.3c-7.8,4.1-26,13.9-25.1,17.4,1.2,4.4,23.1-.9,31,3.9,7.9,4.8,12.2,26.5,17.9,25.7,4.3-.6,4.3-19.2,3.9-28.7-11.9-1.6-21.9-8.6-27.7-18.3h0Z"/>
      </g>
      <g>
        <path class="st13" d="M142.2,153.2c0-1.5-.4-2.6-1-3.4,0,0,0-.1.1-.2.4-.7.5-1.6.3-2.4-.4-1.7-1.5-3.1-2.8-4-1-.7-2.5-1.1-4.1-1.3h-1.1c-2.4,0-4.3.6-5.7,1.8-.2.1-.4.3-.5.5-1.3-1.3-3-2.1-4.9-2.2h-.6c-.9,0-1.8.1-2.6.4-.3,0-.5-.1-.9-.2h-.3v-2.5c0-1.5-1.2-2.8-2.7-3l1.6-1.9c.4-.5.7-1.3.7-2v-2.2c0-.8-.3-1.5-.9-2.1-.5-.5-1.2-.8-1.9-.9h-9.3v-1.5c0-.8-.3-1.5-.9-2.1s-1.2-.8-1.9-.9h-3.3c-1.3,0-2.4.9-2.8,2-.3-.2-.5-.4-.8-.6-.9-.6-1.9-.9-2.8-1.1h-9.9c-.8,0-1.5.3-2.1.9s-.9,1.3-.9,2.1v16.1h-1.4c-.3,0-.6,0-.9.1-.6-1.2-1.5-2.2-2.5-3.1-1.4-1-3.3-1.6-5.4-1.8h-1.1c-2,0-3.8.4-5.2,1.1-1.9,1-3.4,2.4-4.4,4.3-.9,1.7-1.4,3.7-1.4,5.9s.4,3.9,1.3,5.6c.9,1.9,2.2,3.3,4.1,4.4,1.5.8,3.1,1.3,4.9,1.4h1c1.7,0,3.4-.3,5-1,.8-.3,1.5-.7,2.1-1,.4.9,1.4,1.6,2.5,1.6h3.3c.8,0,1.5-.3,2.1-.9.5-.6.9-1.3.9-2.1v-1.7c0,.2,0,.4.3.5.8,1.5,2,2.6,3.5,3.4,1.2.6,2.5.9,3.7,1h.7c2.5,0,4.8-.9,6.4-2.7v-.2c.5.8,1.3,1.5,2.1,1.9.9.5,1.9.8,3,.9h.6c.9,0,1.9-.2,2.7-.5.3.1.6.2.9.2h3.2v1.5c0,1.6,1.3,2.8,2.8,3h3.3c.8,0,1.5-.3,2.1-.9s.9-1.3.9-2.1v-1.2h.4c2.1,0,3.9-.8,5.5-2.3.3.3.6.6,1,.8,1.3.9,2.7,1.3,4.5,1.5h1c2.5,0,4.5-.7,6-1.9,1.6-1.3,2.4-3.1,2.4-5h0v.2l.2-.2h-.2.1Z"/>
        <g>
          <path class="st6" d="M69,151.2v-2.7h7v6.4c-.7.7-1.6,1.3-3,1.8s-2.6.8-4,.8-3.2-.3-4.4-1-2.2-1.7-2.8-3.1-1-2.8-1-4.3.3-3.2,1-4.5,1.7-2.3,3.1-3.1c1-.5,2.3-.8,3.8-.8s3.6.4,4.7,1.3c1.1.9,1.9,2,2.2,3.5l-3.3.6c-.2-.8-.7-1.4-1.3-1.9s-1.4-.7-2.4-.7c-1.5,0-2.6.4-3.4,1.4-.9.9-1.3,2.2-1.3,4s.4,3.4,1.3,4.3,2,1.5,3.4,1.5,1.4-.1,2.1-.4c.7-.3,1.3-.6,1.8-1v-2.1h-3.8v-.2l.2.2h.1Z"/>
          <path class="st6" d="M82,157.1h-3.1v-11.7h2.8v1.6c.4-.8.9-1.3,1.3-1.6s.9-.4,1.3-.4c.7,0,1.4.2,2.1.6l-.9,2.7c-.5-.3-1-.5-1.5-.5s-.8.1-1.1.4c-.3.3-.5.7-.7,1.3s-.3,1.9-.3,3.9v3.7h0Z"/>
          <path class="st6" d="M87,151.1c0-1,.3-2.1.7-3,.5-1,1.2-1.7,2.1-2.2s2-.8,3.1-.8c1.8,0,3.3.6,4.4,1.7s1.7,2.6,1.7,4.4-.5,3.3-1.7,4.4-2.6,1.7-4.3,1.8c-1,0-2.1-.3-3.1-.7s-1.7-1.2-2.2-2.1-.8-2.1-.8-3.4h.1ZM90.2,151.2c0,1.2.3,2.1.9,2.7.5.6,1.3.9,2.1.9s1.5-.3,2.1-.9.8-1.5.8-2.7-.3-2.1-.9-2.7c-.5-.6-1.3-.9-2.1-.9s-1.5.3-2.1.9c-.5.6-.8,1.5-.8,2.7h0Z"/>
          <path class="st6" d="M109.4,157v-1.7c-.4.6-1,1.1-1.6,1.5s-1.5.5-2.2.5-1.5-.1-2.1-.5c-.6-.3-1-.8-1.4-1.5s-.4-1.5-.4-2.6v-7.4h3.1v5.4c0,1.6,0,2.7.2,3.1,0,.4.3.7.6.9s.7.3,1.1.3,1-.1,1.5-.4c.4-.3.7-.7.9-1s.2-1.5.2-3.2v-5h3.1v11.7h-3,0Z"/>
          <path class="st6" d="M115.4,145.3h2.9v1.7c.4-.6.9-1,1.5-1.5.7-.4,1.3-.5,2.1-.5,1.4,0,2.5.5,3.4,1.6s1.5,2.6,1.5,4.4-.4,3.4-1.4,4.6c-.9,1-2.1,1.6-3.4,1.6s-1.3-.1-1.8-.4c-.5-.3-1-.7-1.6-1.3v5.9h-3.1v-16.2h0ZM118.4,150.9c0,1.3.3,2.2.8,2.9.5.6,1.2.9,1.9.9s1.3-.3,1.8-.9.7-1.5.7-2.8-.3-2.1-.7-2.7c-.5-.6-1.1-.9-1.9-.9s-1.4.3-1.9.9c-.5.6-.7,1.5-.7,2.6h0Z"/>
          <path class="st6" d="M128.1,153.6l3.1-.4c.1.6.4,1,.8,1.4s1,.4,1.7.4,1.4-.1,1.8-.4c.3-.2.4-.4.4-.8s0-.4-.2-.6-.5-.3-1-.4c-2.5-.5-4.1-1-4.8-1.5-.9-.6-1.4-1.5-1.4-2.7s.4-1.9,1.2-2.6,2.1-1,3.7-1,2.8.3,3.6.8,1.3,1.3,1.6,2.3l-2.9.5c-.1-.4-.4-.8-.7-1-.3-.3-.9-.4-1.5-.3-.8,0-1.4.1-1.7.3-.3.1-.3.4-.3.6s.1.4.3.6c.3.2,1.3.4,2.9.9s2.8.8,3.4,1.4c.7.5,1,1.3,1,2.3s-.4,2-1.3,2.8-2.2,1.2-4,1.2-2.8-.3-3.8-.9c-.9-.7-1.5-1.5-1.9-2.7h0v-.2h0Z"/>
        </g>
        <g>
          <path class="st6" d="M83.2,126.3h9.3c.6,0,1.2.3,1.7.7s.9.8,1.3,1.3.5,1.2.5,1.9-.2,1.5-.6,2.1-.9,1.1-1.6,1.5c1,.3,1.7.8,2.2,1.5s.8,1.5.8,2.5,0,1.5-.5,2.1-.8,1.3-1.4,1.6-1.3.7-2.2.8c-.5,0-1.9,0-3.9.1h-5.5v-16.2h-.1ZM86.5,129v3.8h4.5c.5,0,1-.3,1.3-.6s.4-.7.4-1.3,0-.9-.4-1.2-.7-.5-1.3-.5h-4.6v-.2h0ZM86.5,135.5v4.3h3.1c1.2,0,1.9,0,2.2-.1.4,0,.9-.3,1.2-.7s.4-.8.4-1.4,0-.9-.3-1.3c-.3-.3-.6-.6-1-.7s-1.4-.2-2.9-.2h-2.7,0Z"/>
          <path class="st6" d="M99.5,129.2v-2.8h3.1v2.8h-3.1ZM99.6,142.5v-11.7h3.1v11.7h-3.1Z"/>
          <path class="st6" d="M104.6,142.4v-2.4l4.4-5c.7-.8,1.3-1.4,1.6-1.8h-5.6v-2.5h9.7v2.2l-4.4,5.2-1.6,1.7h6.4v2.7h-10.5Z"/>
        </g>
      </g>
      <path class="st10" d="M46.9,77.8c2.1-5.3,23.1,1.8,31.2-2.7s14.6-26.1,18.9-24.9c3.4,1,2.9,21.7,2.5,30.5-12,.2-22.7,5.9-29.7,14.8-8.3-4.5-24.4-13.8-22.9-17.8h0ZM75.7,71.3c5.5-3,7.5-10,4.5-15.5s-10-7.5-15.5-4.5-7.5,10-4.5,15.5,10,7.5,15.5,4.5ZM125.3,58.4c3.3-5.4,10.3-7.1,15.7-3.9,5.4,3.3,7.1,10.3,3.9,15.7-3.3,5.4-10.3,7.1-15.7,3.9-5.4-3.3-7.1-10.3-3.9-15.7ZM132.9,99.3c7.8-4.1,26-13.9,25.1-17.4-1.2-4.4-23.1.9-31-3.9s-12.2-26.5-17.9-25.7c-4.3.6-4.3,19.2-3.9,28.7,11.9,1.6,21.9,8.6,27.7,18.3ZM35,127.3c-6.3,0-11.4-5.3-11.2-11.6,0-6.3,5.3-11.4,11.6-11.2,6.3,0,11.4,5.3,11.2,11.6,0,6.3-5.3,11.4-11.6,11.2ZM61.8,116.7c.4-5.9,2-11.5,4.8-16.4-7.5-4.7-25.1-15.5-27.6-13.1-3.2,3.2,12.3,19.5,12.1,28.9-.2,9.2-16.9,23.8-13.2,28.3,2.7,3.4,18.7-5.9,26.8-10.9-2.1-5.1-3.1-10.8-2.8-16.8h0ZM165,110.4c6.4,0,11.5,5.1,11.5,11.5s-5.1,11.5-11.5,11.5-11.5-5.1-11.5-11.5,5.1-11.5,11.5-11.5ZM162.3,93.5c-2.7-3.4-18.7,5.9-26.8,10.9,2.1,5.1,3.1,10.8,2.8,16.8-.4,5.9-2,11.5-4.8,16.4,7.5,4.7,25.1,15.5,27.6,13.1s-12.3-19.5-12.1-28.9c.2-9.2,16.9-23.8,13.2-28.3h.1Z"/>
    </g>
  </g>
</svg>