<?xml version="1.0" encoding="utf-8"?>
<!-- Generator: Adobe Illustrator 25.2.1, SVG Export Plug-In . SVG Version: 6.00 Build 0)  -->
<svg version="1.1" xmlns="http://www.w3.org/2000/svg" xmlns:xlink="http://www.w3.org/1999/xlink" x="0px" y="0px"
	 viewBox="0 0 200 200" style="enable-background:new 0 0 200 200;" xml:space="preserve">
<style type="text/css">
	.st0{fill:#365BAB;}
	.st1{display:none;fill:url(#SVGID_1_);}
	.st2{fill:#D24222;}
	.st3{display:none;fill:#365BAB;}
	.st4{display:none;fill:#D24222;}
	.st5{fill:#FEFDFE;}
	.st6{display:none;fill:url(#SVGID_2_);}
	.st7{display:none;}
	.st8{display:inline;fill:url(#SVGID_3_);}
</style>
<g id="Layer_1">
	<g>
		<path class="st0" d="M144.2,172.3c1.1,12.1-6.1,20.3-18,20.3c-17.8-0.1-35.6-0.3-53.4-0.3c-16.5,0-29.1-10.9-29.1-28.5
			c0-9.8-0.4-24-0.7-35.9c-0.3-15,8.7-24.5,23.8-24.7c14.8-0.2,29.6,0,44.4-0.1c3.1,0,4.1,0.9,4.3,4.1c0.9,14.8-7.3,22.7-22.8,23.5
			c-4,0.2-8,0-12,0.2c-4.8,0.3-7.4,3.2-7.4,8c0,5-0.5,28.9-0.5,33.4c0,4.4,0.5,5.8,5.2,5.8c17.4-0.2,34.9-0.2,52.3,0.1
			C136,178.2,140.9,177.5,144.2,172.3z"/>
		<linearGradient id="SVGID_1_" gradientUnits="userSpaceOnUse" x1="93.5302" y1="102.4638" x2="93.5619" y2="115.3005">
			<stop  offset="6.918926e-02" style="stop-color:#D8DFEF"/>
			<stop  offset="0.1837" style="stop-color:#365BAB"/>
			<stop  offset="0.786" style="stop-color:#223F72;stop-opacity:0.11"/>
			<stop  offset="1" style="stop-color:#27467F;stop-opacity:0"/>
		</linearGradient>
		<path class="st1" d="M144.2,172.3c-3.3,5.2-8.3,5.9-14,5.8c-17.4-0.3-34.9-0.3-52.3-0.1c-4.7,0.1-5.2-1.3-5.2-5.8
			c0-4.4,0.5-28.4,0.5-33.4c0-4.9,2.6-7.7,7.4-8c4-0.2,8,0,12-0.2c15.5-0.8,23.7-8.7,22.8-23.5c-0.2-3.2-1.2-4.2-4.3-4.1
			c-14.8,0.1-29.6-0.1-44.4,0.1c-15.1,0.2-24.1,9.7-23.8,24.7c0.3,12,0.7,26.1,0.7,35.9c0,17.6,12.6,28.6,29.1,28.5
			c17.8,0,35.6,0.2,53.4,0.3C138.1,192.6,145.4,184.4,144.2,172.3z M137,184.4c-2.5,2.7-6.2,4.1-10.7,4.1h-0.1
			c-6.8,0-13.6-0.1-20.4-0.1c-10.1-0.1-20.5-0.2-30.8-0.2l-2.3,0c-7.1,0-13.5-2.3-18-6.6c-4.7-4.4-7.1-10.6-7.1-18
			c0-7-0.2-16.3-0.4-25.3c-0.1-3.7-0.2-7.3-0.3-10.7c-0.1-6.3,1.6-11.5,5-15.1c3.4-3.5,8.5-5.4,14.8-5.5c4.3-0.1,9-0.1,14.8-0.1
			c3.5,0,7,0,10.6,0c3.5,0,7.1,0,10.6,0c2.8,0,5.7,0,8.5,0c0,0,0.1,0,0.2,0c0,0.1,0,0.2,0,0.4c0.4,5.8-0.9,10.4-3.7,13.5
			c-3.1,3.5-8.3,5.4-15.4,5.8c-1.8,0.1-3.6,0.1-5.5,0.1c-2.1,0-4.3,0-6.5,0.1c-6.9,0.4-11.1,5-11.1,12c0,2.5-0.1,10.1-0.3,17.5
			c-0.1,7-0.2,13.7-0.2,15.9c0,3.4,0,9.8,8.9,9.8l0.4,0c7.2-0.1,14.6-0.1,22-0.1c9.7,0,19.8,0.1,30.1,0.3c0.3,0,0.6,0,1,0
			c2.6,0,5.4-0.2,8-1C138.6,182.3,137.9,183.5,137,184.4z"/>
		<path class="st2" d="M144.2,172.3c-3.3,5.2-8.3,5.9-14,5.8c-17.4-0.3-34.5-0.3-51.9-0.1c-4.7,0.1-5.6-0.9-5.6-5.3
			c0-6.2,0.3-14.4,0.3-19c2,0.3,3.2,2.3,4.6,3.5c10.5,8.7,25.6,7.3,36.4,2.5c2.6-1.2,2.4-3.8,2.4-6.1c0.3-22.8,0.6-45.6,0.9-68.4
			c0.1-7.8,0.1-15.6,0.4-23.5c0.4-9.5,5.7-14.6,15.1-14.8c13.2-0.3,13.2-0.3,13.1,13c-0.4,34.8-0.8,69.6-1.2,104.3
			C144.7,167,144.4,169.6,144.2,172.3z"/>
		<path class="st3" d="M128.1,34.6c-5.9-1.6-7-6.7-7.4-11.5c-0.5-5.3,2.2-9.6,6.6-12.6c7.9-5.3,15.8-1.2,19.4,4.4
			c4.1,6.4,2.5,16.8-4.2,19c-4,1.3-5.6,3.4-7.7,6.1c-2.5,3.2-1.2-1.7-2.4-1.2c0,0-0.1,0-0.1,0c1.8,0,1.2-1.1,0.9-2
			c1-1.3,0.2-2.6,0.2-3.9c1.8-1.9,3.7-2.3,5.4-1c1.6,1.3,2.1-0.1,2.7-0.8c5.2-5.5,5.2-10.7,0.1-16.7c-2.3-2.7-8.9-3.4-11.8-1.1
			c-7.5,5.8-7.4,13.1,0.3,18.8C129.4,32.9,128.7,33.7,128.1,34.6z"/>
		<path class="st4" d="M133.4,32.9c0,1.3,0.9,2.6-0.2,3.9c-0.8,0.5-1.8,0.8-0.9,2c0,0,0.1,0,0.1,0c-0.7-0.7-3.6,2.9-2.5-1.3
			c0.5-1.7-0.4-2.4-1.7-3c0.7-0.8,1.3-1.7,2-2.5C131.8,30.1,131.8,34.6,133.4,32.9z"/>
		<path class="st5" d="M132.3,38.9c-0.8-1.2,0.2-1.6,0.9-2C133.4,37.8,134.1,38.9,132.3,38.9z"/>
		<linearGradient id="SVGID_2_" gradientUnits="userSpaceOnUse" x1="126.8984" y1="136.1125" x2="106.3859" y2="109.1792">
			<stop  offset="6.918926e-02" style="stop-color:#D24222"/>
			<stop  offset="0.1837" style="stop-color:#D24222"/>
			<stop  offset="0.6204" style="stop-color:#D24222;stop-opacity:0.3088"/>
			<stop  offset="0.786" style="stop-color:#D24222;stop-opacity:0.11"/>
			<stop  offset="0.9093" style="stop-color:#FFFFFF;stop-opacity:0.4"/>
		</linearGradient>
		<path class="st6" d="M132.9,47c-9.4,0.2-14.8,5.3-15.1,14.8c-0.3,7.8-0.3,15.6-0.4,23.5c-0.3,22.8-0.6,45.6-0.9,68.4
			c0,2.3,0.2,4.9-2.4,6.1c-10.8,4.8-25.9,6.2-36.4-2.5c-1.4-1.1-2.6-3.1-4.6-3.5c0,4.6-0.3,12.8-0.3,19c0,4.4,0.9,5.3,5.6,5.3
			c17.4-0.2,34.5-0.2,51.9,0.1c5.7,0.1,10.7-0.6,14-5.8c0.2-2.7,0.5-5.3,0.5-8c0.4-34.8,0.8-69.6,1.2-104.3
			C146.1,46.7,146.1,46.7,132.9,47z M140.9,59.9c-0.4,34.8-0.8,69.6-1.2,104.3c0,1.6-0.1,3.3-0.3,5.1c0,0.4-0.1,0.8-0.1,1.2
			c-1.6,1.9-3.9,2.6-8.2,2.6c-0.3,0-0.5,0-0.8,0c-10.5-0.2-20.3-0.3-30-0.3c-7.4,0-14.8,0-22,0.1c0,0-0.5,0-0.5,0c0-0.1,0-0.2,0-0.3
			c0-2.8-4.8-15.8-4.7-19c3,6,9.1,12.3,22,12.5c6.4,0.1,12.6,0,18.8-2.7c5.4-2.4,7.6-7,7.6-9.3l0-0.6c0.2-12.4,0.3-24.9,0.5-37.3
			c0.1-10.4,0.3-20.7,0.4-31.1c0-2.1,0-4.1,0.1-6.2c0.1-5.6,0.1-11.4,0.3-17.1c0.3-6.8,3.4-9.9,10.3-10c1.6,0,3.1-0.1,4.3-0.1
			c1.9,0,2.9,0.1,3.5,0.2C141,53.5,141,56.8,140.9,59.9z"/>
		<g class="st7">
			<linearGradient id="SVGID_3_" gradientUnits="userSpaceOnUse" x1="173.3822" y1="123.4077" x2="111.2777" y2="107.3993">
				<stop  offset="6.918926e-02" style="stop-color:#D24222"/>
				<stop  offset="0.1837" style="stop-color:#D24222"/>
				<stop  offset="0.6204" style="stop-color:#D24222;stop-opacity:0.3088"/>
				<stop  offset="0.786" style="stop-color:#D24222;stop-opacity:0.11"/>
				<stop  offset="0.9093" style="stop-color:#FFFFFF;stop-opacity:0.4"/>
			</linearGradient>
			<path class="st8" d="M98.9,169c-7.1,0-14.4-1.9-20.4-6.8c-0.5-0.4-1-0.9-1.4-1.4c-0.7-0.8-1.4-1.5-2-1.6l-2-5.5
				c2.3,0.4,5.8,4.6,6.1,4.8c10.8,7.3,26,5.3,35.4,1.1c0.7-0.3,1.8-3.1,1.8-3.1c0.2-12.4,0.3-24.9,0.5-37.3
				c0.1-10.4,0.3-20.7,0.4-31.1c0-2.1,0-4.1,0.1-6.2c0.1-5.7,0.5-11.6,0.3-17.4c-0.3-13.1,5.6-16.9,15-17.7c1.4-0.1,2.6,1,2.6,2.4
				l0,0c0.1,1.6-1.1,3-2.8,3.3c-6.3,1-9.5,5-9.8,12.2c-0.2,5.7-0.3,11.6-0.3,17.2c0,2.1,0,4.1-0.1,6.2c-0.1,10.4-0.3,20.7-0.4,31.1
				c-0.2,12.4-0.3,24.9-0.5,37.3l0,0.6c0,2.2,0,6-3.9,7.7C112.2,167.3,105.6,169,98.9,169z"/>
		</g>
	</g>
</g>
<g id="Layer_2">
	<g>
		<g>
			<circle class="st2" cx="132" cy="31.8" r="1.3"/>
			<path class="st2" d="M128.8,33.8c0,0,2.8,0.2,4-0.7s2.1-2.6,2.1-2.6s-0.4,2.9-1.7,5.7c-1.1,2.3-1.9,3.5-2.2,3.9c0,0-0.1,0-0.1,0
				s0.2-0.1,0.3-1c0.1-0.9,0.2-0.9,0.2-0.9s-1.3,1.8-1.5,2c-0.2,0.2-0.1-0.1-0.1-0.1S133.7,34.5,128.8,33.8z"/>
		</g>
		<g>
			<circle class="st0" cx="137.6" cy="32.1" r="1.2"/>
			<path class="st0" d="M135.2,30.5c0,0,0.5,4,0.2,5.3c-0.3,1.3-2,4.1-2,4.1s2.1-2,2.8-2.1c0.7-0.1,2.6,2.1,2.6,2.1
				s-1.2-2.4-1.4-3.9c-0.2-1.5,2.5-1.6,2.5-1.6s-2.4-0.4-3.3-1.2C135.8,32.5,135.2,30.5,135.2,30.5z"/>
		</g>
	</g>
	<path class="st0" d="M129.3,31.5c-3.2-2-5.1-5.8-4.6-9.9c0.6-4.5,4.3-8.2,8.9-8.7c6.1-0.7,11.3,4.1,11.3,10.1
		c0,3.6-1.9,6.8-4.8,8.6c-0.8,0.5-1.1,1.5-0.8,2.4v0c0.4,1.2,1.9,1.7,2.9,1c4.5-2.8,7.3-8.1,6.5-14c-0.9-6.3-6.1-11.3-12.4-12
		c-8.5-0.9-15.7,5.7-15.7,14c0,5,2.6,9.4,6.5,11.9c1,0.6,2.3,0.3,2.9-0.7v0C130.5,33.2,130.2,32.1,129.3,31.5z"/>
</g>
</svg>
