<?xml version="1.0" encoding="utf-8"?>
<!-- Generator: Adobe Illustrator 25.2.1, SVG Export Plug-In . SVG Version: 6.00 Build 0)  -->
<svg version="1.1" id="Layer_1" xmlns="http://www.w3.org/2000/svg" xmlns:xlink="http://www.w3.org/1999/xlink" x="0px" y="0px"
	 viewBox="0 0 200 200" style="enable-background:new 0 0 200 200;" xml:space="preserve">
<style type="text/css">
	.st0{display:none;}
	.st1{display:inline;}
	.st2{fill:url(#SVGID_1_);}
	.st3{fill:url(#SVGID_2_);}
	.st4{fill:url(#SVGID_3_);}
	.st5{fill:url(#SVGID_4_);}
	.st6{fill:url(#SVGID_5_);}
	.st7{fill:url(#SVGID_6_);}
	.st8{fill:url(#SVGID_7_);}
	.st9{fill:url(#SVGID_8_);}
	.st10{fill:#FFFFFF;}
	.st11{opacity:0.3;fill:url(#SVGID_9_);enable-background:new    ;}
	.st12{display:inline;fill:#3550A2;}
	.st13{fill:#3550A2;}
</style>
<g id="digipal" class="st0">
	<g id="Digipal" class="st1">
		<g>
			
				<linearGradient id="SVGID_1_" gradientUnits="userSpaceOnUse" x1="36.6413" y1="150.8678" x2="31.1771" y2="115.9678" gradientTransform="matrix(1 0 0 -1 0 200)">
				<stop  offset="0" style="stop-color:#FFFFFF"/>
				<stop  offset="1" style="stop-color:#000000"/>
			</linearGradient>
			<path class="st2" d="M44.1,50.3v33.1h-7v-1.8c-1.8,1.5-3.9,2.2-6.2,2.2c-3,0-5.5-1.1-7.5-3.3c-2-2.2-3-5-3-8.3c0-3.4,1-6.2,3-8.4
				c2-2.2,4.6-3.3,7.8-3.3c2,0,3.9,0.5,5.8,1.4V50.3H44.1z M37.1,77.3V66.6c-1.3-0.9-2.6-1.3-3.9-1.3c-1.8,0-3.1,0.6-4.1,1.8
				c-1,1.2-1.5,3-1.5,5.2c0,2.1,0.5,3.7,1.5,4.9c1,1.2,2.3,1.9,3.9,1.9C34.4,79.1,35.8,78.5,37.1,77.3z"/>
			
				<linearGradient id="SVGID_2_" gradientUnits="userSpaceOnUse" x1="62.1433" y1="149.778" x2="56.926" y2="116.4544" gradientTransform="matrix(1 0 0 -1 0 200)">
				<stop  offset="0" style="stop-color:#FFFFFF"/>
				<stop  offset="1" style="stop-color:#000000"/>
			</linearGradient>
			<path class="st3" d="M55.6,53.7c0-1.1,0.4-2,1.1-2.7c0.8-0.8,1.7-1.1,2.7-1.1c1.1,0,2,0.4,2.8,1.1c0.8,0.8,1.1,1.7,1.1,2.7
				c0,1.1-0.4,2-1.1,2.7c-0.8,0.8-1.7,1.1-2.8,1.1s-2-0.4-2.7-1.1C55.9,55.7,55.6,54.8,55.6,53.7z M63,61v22.4h-7V61H63z"/>
			
				<linearGradient id="SVGID_3_" gradientUnits="userSpaceOnUse" x1="86.9059" y1="140.3768" x2="81.4218" y2="105.349" gradientTransform="matrix(1 0 0 -1 0 200)">
				<stop  offset="0" style="stop-color:#FFFFFF"/>
				<stop  offset="1" style="stop-color:#000000"/>
			</linearGradient>
			<path class="st4" d="M95.7,61v4.7h-3.2c0.7,1.3,1.1,2.5,1.1,3.7c0,1.7-0.6,3.3-1.9,4.8s-3.2,2.3-5.7,2.6c-2.5,0.3-4,0.5-4.3,0.8
				c-0.3,0.2-0.5,0.6-0.5,1s0.2,0.7,0.7,1c0.4,0.2,2.2,0.5,5.2,0.8s5.2,1.1,6.4,2.4c1.2,1.3,1.8,2.8,1.8,4.3c0,2.4-1,4.3-3,5.6
				c-2,1.3-5,1.9-8.8,1.9c-3.9,0-6.9-0.6-8.9-1.8c-2-1.2-3-2.8-3-4.7c0-2.7,2-4.6,6-5.7c-1.8-0.5-2.7-1.5-2.7-2.9
				c0-1.6,1.4-2.8,4.1-3.4c-1.8-0.3-3.3-1.1-4.5-2.4s-1.8-2.8-1.8-4.5c0-2.1,0.9-4,2.6-5.7c1.7-1.6,4.2-2.5,7.4-2.5
				C82.7,61,95.7,61,95.7,61z M83.6,90.4c1.5,0,2.7-0.3,3.7-0.8c0.9-0.6,1.4-1.2,1.4-2c0-1.6-1.8-2.5-5.5-2.5c-1.7,0-3,0.2-3.9,0.7
				s-1.4,1.1-1.4,1.9C77.8,89.5,79.8,90.4,83.6,90.4z M83,65.2c-1.1,0-2.1,0.4-2.9,1.2c-0.8,0.8-1.2,1.8-1.2,2.9s0.4,2,1.2,2.8
				c0.8,0.8,1.8,1.2,2.9,1.2s2-0.4,2.8-1.3c0.8-0.8,1.2-1.8,1.2-3c0-1.1-0.4-2-1.1-2.7C85.1,65.6,84.2,65.2,83,65.2z"/>
			
				<linearGradient id="SVGID_4_" gradientUnits="userSpaceOnUse" x1="110.4435" y1="149.7787" x2="105.2261" y2="116.4551" gradientTransform="matrix(1 0 0 -1 0 200)">
				<stop  offset="0" style="stop-color:#FFFFFF"/>
				<stop  offset="1" style="stop-color:#000000"/>
			</linearGradient>
			<path class="st5" d="M103.9,53.7c0-1.1,0.4-2,1.1-2.7c0.8-0.8,1.7-1.1,2.7-1.1c1.1,0,2,0.4,2.8,1.1c0.8,0.8,1.1,1.7,1.1,2.7
				c0,1.1-0.4,2-1.1,2.7c-0.8,0.8-1.7,1.1-2.8,1.1c-1.1,0-2-0.4-2.7-1.1C104.2,55.7,103.9,54.8,103.9,53.7z M111.3,61v22.4h-7V61
				H111.3z"/>
		</g>
		<g>
			
				<linearGradient id="SVGID_5_" gradientUnits="userSpaceOnUse" x1="49.0365" y1="89.5984" x2="45.4197" y2="66.498" gradientTransform="matrix(1 0 0 -1 0 200)">
				<stop  offset="0" style="stop-color:#FFFFFF"/>
				<stop  offset="1" style="stop-color:#000000"/>
			</linearGradient>
			<path class="st6" d="M39.9,110.6h9.8c2.2,0,4,0.6,5.3,1.9s2,2.8,2,4.6c0,1.8-0.6,3.4-1.9,4.7c-1.3,1.3-3.1,2-5.3,2h-4.4v8.8h-5.5
				C39.9,132.6,39.9,110.6,39.9,110.6z M45.4,114.7v5.1H48c2.3,0,3.4-0.9,3.4-2.6c0-1-0.3-1.6-0.9-2c-0.6-0.4-1.6-0.6-3.1-0.6
				L45.4,114.7L45.4,114.7z"/>
		</g>
		<g>
			
				<linearGradient id="SVGID_6_" gradientUnits="userSpaceOnUse" x1="104.9218" y1="89.2551" x2="101.196" y2="65.4586" gradientTransform="matrix(1 0 0 -1 0 200)">
				<stop  offset="0" style="stop-color:#FFFFFF"/>
				<stop  offset="1" style="stop-color:#000000"/>
			</linearGradient>
			<path class="st7" d="M104.2,110.6l9.8,22h-5.9l-1.8-4.3h-9.9l-1.6,4.3H89l8.9-22C97.9,110.6,104.2,110.6,104.2,110.6z
				 M104.7,124.4l-3.6-8.6l-3.2,8.6H104.7z"/>
		</g>
		<g>
			
				<linearGradient id="SVGID_7_" gradientUnits="userSpaceOnUse" x1="156.2063" y1="88.6595" x2="152.7126" y2="66.3454" gradientTransform="matrix(1 0 0 -1 0 200)">
				<stop  offset="0" style="stop-color:#FFFFFF"/>
				<stop  offset="1" style="stop-color:#000000"/>
			</linearGradient>
			<path class="st8" d="M163,128.6v4h-16.8v-22h5.5v18H163z"/>
		</g>
		
			<linearGradient id="SVGID_8_" gradientUnits="userSpaceOnUse" x1="105.7327" y1="119.3827" x2="90.1659" y2="19.9569" gradientTransform="matrix(1 0 0 -1 0 200)">
			<stop  offset="0" style="stop-color:#FFFFFF"/>
			<stop  offset="1" style="stop-color:#000000"/>
		</linearGradient>
		<path class="st9" d="M126.4,130.8l1-8.9c0-0.3-0.2-0.5-0.4-0.6l-4.1-0.5c-0.2,0-0.4-0.2-0.4-0.4c-0.3-2.6-1.1-5.1-2.2-7.4
			c-0.1-0.2-0.1-0.5,0.1-0.6l3.2-2.7c0.2-0.2,0.2-0.5,0.1-0.7l-5.8-6.9c-0.2-0.2-0.5-0.2-0.7-0.1l-3.2,2.7c-0.2,0.1-0.4,0.2-0.6,0
			c-1.6-1.2-3.4-2.2-5.3-2.9c-0.2-0.1-0.3-0.3-0.3-0.5l0.6-4.1c0-0.3-0.2-0.5-0.4-0.6l-8.9-1.2c-0.3,0-0.5,0.2-0.6,0.4l-0.6,4.1
			c0,0.2-0.2,0.4-0.4,0.4c-2,0.2-3.9,0.6-5.7,1.3c-0.2,0.1-0.5,0-0.6-0.2l-2.3-3.5c-0.2-0.2-0.5-0.3-0.7-0.1l-7.5,5
			c-0.2,0.2-0.3,0.5-0.1,0.7l2.3,3.5c0.1,0.2,0.1,0.4,0,0.6c-2.1,2.2-3.7,4.9-4.7,7.8c-0.1,0.2-0.3,0.4-0.5,0.3l-4.1-0.5
			c-0.3,0-0.5,0.2-0.6,0.4l-1,8.9c0,0.3,0.2,0.5,0.4,0.6l4.1,0.5c0.2,0,0.4,0.2,0.4,0.4c0.3,2.6,1.1,5.1,2.2,7.4
			c0.1,0.2,0.1,0.5-0.1,0.6l-3.2,2.7c-0.2,0.2-0.2,0.5-0.1,0.7l5.8,6.9c0.2,0.2,0.5,0.2,0.7,0.1l3.2-2.7c0.2-0.1,0.4-0.2,0.6,0
			c1.6,1.2,3.4,2.2,5.3,2.9c0.2,0.1,0.3,0.3,0.3,0.5l-0.6,4.1c0,0.3,0.2,0.5,0.4,0.6l8.9,1.2c0.3,0,0.5-0.2,0.6-0.4l0.6-4.1
			c0-0.2,0.2-0.4,0.4-0.4c2-0.2,3.9-0.6,5.7-1.3c0.2-0.1,0.5,0,0.6,0.2l2.3,3.5c0.2,0.2,0.5,0.3,0.7,0.1l7.5-5
			c0.2-0.2,0.3-0.5,0.1-0.7l-2.3-3.5c-0.1-0.2-0.1-0.4,0-0.6c2.1-2.2,3.7-4.9,4.7-7.8c0.1-0.2,0.3-0.4,0.5-0.3l4.1,0.5
			C126.1,131.2,126.4,131,126.4,130.8z M101.4,141.2c-11.4,1.1-20.9-8.4-19.7-19.7c0.8-8.4,7.6-15.2,16.1-16.1
			c11.4-1.1,20.9,8.4,19.7,19.7C116.6,133.6,109.8,140.4,101.4,141.2z M176.2,136.1l2.8-8.6c0.1-0.3-0.1-0.5-0.3-0.6l-4-1.3
			c-0.2-0.1-0.4-0.3-0.3-0.5c0.2-2.6,0-5.2-0.7-7.7c-0.1-0.2,0-0.5,0.2-0.6l3.7-2c0.2-0.1,0.3-0.4,0.2-0.7l-4.3-7.9
			c-0.1-0.2-0.4-0.3-0.7-0.2l-3.7,2c-0.2,0.1-0.4,0.1-0.6-0.1c-1.3-1.5-2.9-2.8-4.6-3.9c-0.2-0.1-0.3-0.4-0.2-0.6l1.4-3.9
			c0.1-0.3,0-0.5-0.3-0.6l-8.5-3c-0.3-0.1-0.5,0-0.6,0.3l-1.4,3.9c-0.1,0.2-0.3,0.3-0.5,0.3c-2-0.2-3.9-0.2-5.8,0.1
			c-0.2,0-0.4-0.1-0.5-0.3l-1.6-3.9c-0.1-0.3-0.4-0.4-0.7-0.3l-8.3,3.4c-0.3,0.1-0.4,0.4-0.3,0.7l1.6,3.9c0.1,0.2,0,0.5-0.2,0.6
			c-2.5,1.8-4.6,4-6.2,6.7c-0.1,0.2-0.4,0.3-0.6,0.2l-4-1.3c-0.3-0.1-0.5,0.1-0.6,0.3l-2.8,8.6c-0.1,0.3,0.1,0.5,0.3,0.6l4,1.3
			c0.2,0.1,0.4,0.3,0.3,0.5c-0.2,2.6,0,5.2,0.7,7.7c0.1,0.2,0,0.5-0.2,0.6l-3.7,2c-0.2,0.1-0.3,0.4-0.2,0.7l4.3,7.9
			c0.1,0.2,0.4,0.3,0.7,0.2l3.7-2c0.2-0.1,0.4-0.1,0.6,0.1c1.3,1.5,2.9,2.8,4.6,3.9c0.2,0.1,0.3,0.4,0.2,0.6l-1.4,3.9
			c-0.1,0.3,0,0.5,0.3,0.6l8.5,3c0.3,0.1,0.5,0,0.6-0.3l1.4-3.9c0.1-0.2,0.3-0.3,0.5-0.3c2,0.2,3.9,0.2,5.8-0.1
			c0.2,0,0.4,0.1,0.5,0.3l1.6,3.9c0.1,0.3,0.4,0.4,0.7,0.3l8.3-3.4c0.3-0.1,0.4-0.4,0.3-0.7l-1.6-3.9c-0.1-0.2,0-0.5,0.2-0.6
			c2.5-1.8,4.6-4,6.2-6.7c0.1-0.2,0.4-0.3,0.6-0.2l4,1.3C175.8,136.5,176.1,136.3,176.2,136.1z M149.6,141.2
			c-11.4-1.2-18.7-12.4-15.3-23.4c2.5-8.1,10.6-13.4,19-12.5c11.4,1.2,18.7,12.4,15.3,23.4C166.1,136.8,158,142.1,149.6,141.2z
			 M71.5,136.1l2.8-8.6c0.1-0.3-0.1-0.5-0.3-0.6l-4-1.3c-0.2-0.1-0.4-0.3-0.3-0.5c0.2-2.6,0-5.2-0.7-7.7c-0.1-0.2,0-0.5,0.2-0.6
			l3.7-2c0.2-0.1,0.3-0.4,0.2-0.7l-4.3-7.9c-0.1-0.2-0.4-0.3-0.7-0.2l-3.7,2c-0.2,0.1-0.4,0.1-0.6-0.1c-1.3-1.5-2.9-2.8-4.6-3.9
			c-0.2-0.1-0.3-0.4-0.2-0.6l1.4-3.9c0.1-0.3,0-0.5-0.3-0.6l-8.5-3c-0.3-0.1-0.5,0-0.6,0.3l-1.4,3.9c-0.1,0.2-0.3,0.3-0.5,0.3
			c-2-0.2-3.9-0.2-5.8,0.1c-0.2,0-0.4-0.1-0.5-0.3l-1.6-3.9c-0.1-0.3-0.4-0.4-0.7-0.3l-8.3,3.4c-0.3,0.1-0.4,0.4-0.3,0.7l1.6,3.9
			c0.1,0.2,0,0.5-0.2,0.6c-2.5,1.8-4.6,4-6.2,6.7c-0.1,0.2-0.4,0.3-0.6,0.2l-4-1.3c-0.3-0.1-0.5,0.1-0.6,0.3l-2.8,8.6
			c-0.1,0.3,0.1,0.5,0.3,0.6l4,1.3c0.2,0.1,0.4,0.3,0.3,0.5c-0.2,2.6,0,5.2,0.7,7.7c0.1,0.2,0,0.5-0.2,0.6l-3.7,2
			c-0.2,0.1-0.3,0.4-0.2,0.7l4.3,7.9c0.1,0.2,0.4,0.3,0.7,0.2l3.7-2c0.2-0.1,0.4-0.1,0.6,0.1c1.3,1.5,2.9,2.8,4.6,3.9
			c0.2,0.1,0.3,0.4,0.2,0.6l-1.4,3.9c-0.1,0.3,0,0.5,0.3,0.6l8.5,3c0.3,0.1,0.5,0,0.6-0.3l1.4-3.9c0.1-0.2,0.3-0.3,0.5-0.3
			c2,0.2,3.9,0.2,5.8-0.1c0.2,0,0.4,0.1,0.5,0.3l1.6,3.9c0.1,0.3,0.4,0.4,0.7,0.3l8.3-3.4c0.3-0.1,0.4-0.4,0.3-0.7l-1.6-3.9
			c-0.1-0.2,0-0.5,0.2-0.6c2.5-1.8,4.6-4,6.2-6.7c0.1-0.2,0.4-0.3,0.6-0.2l4,1.3C71.2,136.5,71.5,136.3,71.5,136.1z M44.9,141.2
			c-11.4-1.2-18.7-12.4-15.3-23.4c2.5-8.1,10.6-13.4,19-12.5c11.4,1.2,18.7,12.4,15.3,23.4C61.4,136.8,53.3,142.1,44.9,141.2z"/>
		<path class="st10" d="M128.2,129.2l1-8.9c0-0.3-0.2-0.5-0.4-0.6l-4.1-0.5c-0.2,0-0.4-0.2-0.4-0.4c-0.3-2.6-1.1-5.1-2.2-7.4
			c-0.1-0.2-0.1-0.5,0.1-0.6l3.2-2.7c0.2-0.2,0.2-0.5,0.1-0.7l-5.8-6.9c-0.2-0.2-0.5-0.2-0.7-0.1l-3.2,2.7c-0.2,0.1-0.4,0.2-0.6,0
			c-1.6-1.2-3.4-2.2-5.3-2.9c-0.2-0.1-0.3-0.3-0.3-0.5l0.6-4.1c0-0.3-0.2-0.5-0.4-0.6l-8.9-1.2c-0.3,0-0.5,0.2-0.6,0.4l-0.6,4.1
			c0,0.2-0.2,0.4-0.4,0.4c-2,0.2-3.9,0.6-5.7,1.3c-0.2,0.1-0.5,0-0.6-0.2l-2.3-3.5c-0.2-0.2-0.5-0.3-0.7-0.1l-7.5,5
			c-0.2,0.2-0.3,0.5-0.1,0.7l2.3,3.5c0.1,0.2,0.1,0.4,0,0.6c-2.1,2.2-3.7,4.9-4.7,7.8c-0.1,0.2-0.3,0.4-0.5,0.3l-4.1-0.5
			c-0.3,0-0.5,0.2-0.6,0.4l-1,8.9c0,0.3,0.2,0.5,0.4,0.6l4.1,0.5c0.2,0,0.4,0.2,0.4,0.4c0.3,2.6,1.1,5.1,2.2,7.4
			c0.1,0.2,0.1,0.5-0.1,0.6l-3.2,2.7c-0.2,0.2-0.2,0.5-0.1,0.7l5.8,6.9c0.2,0.2,0.5,0.2,0.7,0.1l3.2-2.7c0.2-0.1,0.4-0.2,0.6,0
			c1.6,1.2,3.4,2.2,5.3,2.9c0.2,0.1,0.3,0.3,0.3,0.5l-0.6,4.1c0,0.3,0.2,0.5,0.4,0.6l8.9,1.2c0.3,0,0.5-0.2,0.6-0.4l0.6-4.1
			c0-0.2,0.2-0.4,0.4-0.4c2-0.2,3.9-0.6,5.7-1.3c0.2-0.1,0.5,0,0.6,0.2l2.3,3.5c0.2,0.2,0.5,0.3,0.7,0.1l7.5-5
			c0.2-0.2,0.3-0.5,0.1-0.7l-2.3-3.5c-0.1-0.2-0.1-0.4,0-0.6c2.1-2.2,3.7-4.9,4.7-7.8c0.1-0.2,0.3-0.4,0.5-0.3l4.1,0.5
			C127.9,129.7,128.2,129.5,128.2,129.2z M103.2,139.7c-11.4,1.1-20.9-8.4-19.7-19.7c0.8-8.4,7.6-15.2,16.1-16.1
			c11.4-1.1,20.9,8.4,19.7,19.7C118.4,132,111.6,138.9,103.2,139.7z M178,134.6l2.8-8.6c0.1-0.3-0.1-0.5-0.3-0.6l-4-1.3
			c-0.2-0.1-0.4-0.3-0.3-0.5c0.2-2.6,0-5.2-0.7-7.7c-0.1-0.2,0-0.5,0.2-0.6l3.7-2c0.2-0.1,0.3-0.4,0.2-0.7l-4.3-7.9
			c-0.1-0.2-0.4-0.3-0.7-0.2l-3.7,2c-0.2,0.1-0.4,0.1-0.6-0.1c-1.3-1.5-2.9-2.8-4.6-3.9c-0.2-0.1-0.3-0.4-0.2-0.6l1.4-3.9
			c0.1-0.3,0-0.5-0.3-0.6l-8.5-3c-0.3-0.1-0.5,0-0.6,0.3l-1.4,3.9c-0.1,0.2-0.3,0.3-0.5,0.3c-2-0.2-3.9-0.2-5.8,0.1
			c-0.2,0-0.4-0.1-0.5-0.3l-1.6-3.9c-0.1-0.3-0.4-0.4-0.7-0.3l-8.3,3.4c-0.3,0.1-0.4,0.4-0.3,0.7l1.6,3.9c0.1,0.2,0,0.5-0.2,0.6
			c-2.5,1.8-4.6,4-6.2,6.7c-0.1,0.2-0.4,0.3-0.6,0.2l-4-1.3c-0.3-0.1-0.5,0.1-0.6,0.3l-2.8,8.6c-0.1,0.3,0.1,0.5,0.3,0.6l4,1.3
			c0.2,0.1,0.4,0.3,0.3,0.5c-0.2,2.6,0,5.2,0.7,7.7c0.1,0.2,0,0.5-0.2,0.6l-3.7,2c-0.2,0.1-0.3,0.4-0.2,0.7l4.3,7.9
			c0.1,0.2,0.4,0.3,0.7,0.2l3.7-2c0.2-0.1,0.4-0.1,0.6,0.1c1.3,1.5,2.9,2.8,4.6,3.9c0.2,0.1,0.3,0.4,0.2,0.6l-1.4,3.9
			c-0.1,0.3,0,0.5,0.3,0.6l8.5,3c0.3,0.1,0.5,0,0.6-0.3l1.4-3.9c0.1-0.2,0.3-0.3,0.5-0.3c2,0.2,3.9,0.2,5.8-0.1
			c0.2,0,0.4,0.1,0.5,0.3l1.6,3.9c0.1,0.3,0.4,0.4,0.7,0.3l8.3-3.4c0.3-0.1,0.4-0.4,0.3-0.7l-1.6-3.9c-0.1-0.2,0-0.5,0.2-0.6
			c2.5-1.8,4.6-4,6.2-6.7c0.1-0.2,0.4-0.3,0.6-0.2l4,1.3C177.6,135,177.9,134.8,178,134.6z M151.4,139.7
			c-11.4-1.2-18.7-12.4-15.3-23.4c2.5-8.1,10.6-13.4,19-12.5c11.4,1.2,18.7,12.4,15.3,23.4C167.8,135.3,159.8,140.6,151.4,139.7z
			 M73.3,134.6l2.8-8.6c0.1-0.3-0.1-0.5-0.3-0.6l-4-1.3c-0.2-0.1-0.4-0.3-0.3-0.5c0.2-2.6,0-5.2-0.7-7.7c-0.1-0.2,0-0.5,0.2-0.6
			l3.7-2c0.2-0.1,0.3-0.4,0.2-0.7l-4.3-7.9c-0.1-0.2-0.4-0.3-0.7-0.2l-3.7,2c-0.2,0.1-0.4,0.1-0.6-0.1c-1.3-1.5-2.9-2.8-4.6-3.9
			c-0.2-0.1-0.3-0.4-0.2-0.6l1.4-3.9c0.1-0.3,0-0.5-0.3-0.6l-8.5-3c-0.3-0.1-0.5,0-0.6,0.3l-1.4,3.9c-0.1,0.2-0.3,0.3-0.5,0.3
			c-2-0.2-3.9-0.2-5.8,0.1c-0.2,0-0.4-0.1-0.5-0.3L43,94.8c-0.1-0.3-0.4-0.4-0.7-0.3L34.1,98c-0.3,0.1-0.4,0.4-0.3,0.7l1.6,3.9
			c0.1,0.2,0,0.5-0.2,0.6c-2.5,1.8-4.6,4-6.2,6.7c-0.1,0.2-0.4,0.3-0.6,0.2l-4-1.3c-0.3-0.1-0.5,0.1-0.6,0.3l-2.8,8.6
			c-0.1,0.3,0.1,0.5,0.3,0.6l4,1.3c0.2,0.1,0.4,0.3,0.3,0.5c-0.2,2.6,0,5.2,0.7,7.7c0.1,0.2,0,0.5-0.2,0.6l-3.7,2
			c-0.2,0.1-0.3,0.4-0.2,0.7l4.3,7.9c0.1,0.2,0.4,0.3,0.7,0.2l3.7-2c0.2-0.1,0.4-0.1,0.6,0.1c1.3,1.5,2.9,2.8,4.6,3.9
			c0.2,0.1,0.3,0.4,0.2,0.6l-1.4,3.9c-0.1,0.3,0,0.5,0.3,0.6l8.5,3c0.3,0.1,0.5,0,0.6-0.3l1.4-3.9c0.1-0.2,0.3-0.3,0.5-0.3
			c2,0.2,3.9,0.2,5.8-0.1c0.2,0,0.4,0.1,0.5,0.3l1.6,3.9c0.1,0.3,0.4,0.4,0.7,0.3l8.3-3.4c0.3-0.1,0.4-0.4,0.3-0.7l-1.6-3.9
			c-0.1-0.2,0-0.5,0.2-0.6c2.5-1.8,4.6-4,6.2-6.7c0.1-0.2,0.4-0.3,0.6-0.2l4,1.3C73,135,73.2,134.8,73.3,134.6z M46.7,139.7
			c-11.4-1.2-18.7-12.4-15.3-23.4c2.5-8.1,10.6-13.4,19-12.5c11.4,1.2,18.7,12.4,15.3,23.4C63.2,135.3,55.1,140.6,46.7,139.7z"/>
		<g>
			<path class="st10" d="M46.1,49.3v33.1h-7v-1.8c-1.8,1.5-3.9,2.2-6.2,2.2c-3,0-5.5-1.1-7.5-3.3c-2-2.2-3-5-3-8.3
				c0-3.4,1-6.2,3-8.4c2-2.2,4.6-3.3,7.8-3.3c2,0,3.9,0.5,5.8,1.4V49.3H46.1z M39.1,76.3V65.6c-1.3-0.9-2.6-1.3-3.9-1.3
				c-1.8,0-3.1,0.6-4.1,1.8c-1,1.2-1.5,3-1.5,5.2c0,2.1,0.5,3.7,1.5,4.9c1,1.2,2.3,1.9,3.9,1.9C36.4,78.1,37.8,77.5,39.1,76.3z"/>
			<path class="st10" d="M57.6,52.7c0-1.1,0.4-2,1.1-2.7c0.8-0.8,1.7-1.1,2.7-1.1c1.1,0,2,0.4,2.8,1.1c0.8,0.8,1.1,1.7,1.1,2.7
				c0,1.1-0.4,2-1.1,2.7c-0.8,0.8-1.7,1.1-2.8,1.1s-2-0.4-2.7-1.1C57.9,54.7,57.6,53.8,57.6,52.7z M65,60v22.4h-7V60H65z"/>
			<path class="st10" d="M97.7,60v4.7h-3.2c0.7,1.3,1.1,2.5,1.1,3.7c0,1.7-0.6,3.3-1.9,4.8s-3.2,2.3-5.7,2.6c-2.5,0.3-4,0.5-4.3,0.8
				c-0.3,0.2-0.5,0.6-0.5,1s0.2,0.7,0.7,1c0.4,0.2,2.2,0.5,5.2,0.8s5.2,1.1,6.4,2.4c1.2,1.3,1.8,2.8,1.8,4.3c0,2.4-1,4.3-3,5.6
				c-2,1.3-5,1.9-8.8,1.9c-3.9,0-6.9-0.6-8.9-1.8c-2-1.2-3-2.8-3-4.7c0-2.7,2-4.6,6-5.7c-1.8-0.5-2.7-1.5-2.7-2.9
				c0-1.6,1.4-2.8,4.1-3.4c-1.8-0.3-3.3-1.1-4.5-2.4s-1.8-2.8-1.8-4.5c0-2.1,0.9-4,2.6-5.7c1.7-1.6,4.2-2.5,7.4-2.5
				C84.7,60,97.7,60,97.7,60z M85.6,89.4c1.5,0,2.7-0.3,3.7-0.8c0.9-0.6,1.4-1.2,1.4-2c0-1.6-1.8-2.5-5.5-2.5c-1.7,0-3,0.2-3.9,0.7
				s-1.4,1.1-1.4,1.9C79.8,88.5,81.8,89.4,85.6,89.4z M85,64.2c-1.1,0-2.1,0.4-2.9,1.2c-0.8,0.8-1.2,1.8-1.2,2.9s0.4,2,1.2,2.8
				c0.8,0.8,1.8,1.2,2.9,1.2s2-0.4,2.8-1.3c0.8-0.8,1.2-1.8,1.2-3c0-1.1-0.4-2-1.1-2.7C87.1,64.6,86.2,64.2,85,64.2z"/>
			<path class="st10" d="M105.9,52.7c0-1.1,0.4-2,1.1-2.7c0.8-0.8,1.7-1.1,2.7-1.1c1.1,0,2,0.4,2.8,1.1c0.8,0.8,1.1,1.7,1.1,2.7
				c0,1.1-0.4,2-1.1,2.7c-0.8,0.8-1.7,1.1-2.8,1.1c-1.1,0-2-0.4-2.7-1.1C106.2,54.7,105.9,53.8,105.9,52.7z M113.3,60v22.4h-7V60
				H113.3z"/>
		</g>
		<g>
			<path class="st10" d="M40.9,109.6h9.8c2.2,0,4,0.6,5.3,1.9s2,2.8,2,4.6c0,1.8-0.6,3.4-1.9,4.7c-1.3,1.3-3.1,2-5.3,2h-4.4v8.8
				h-5.5C40.9,131.6,40.9,109.6,40.9,109.6z M46.4,113.7v5.1H49c2.3,0,3.4-0.9,3.4-2.6c0-1-0.3-1.6-0.9-2c-0.6-0.4-1.6-0.6-3.1-0.6
				L46.4,113.7L46.4,113.7z"/>
		</g>
		<g>
			<path class="st10" d="M105.2,109.6l9.8,22h-5.9l-1.8-4.3h-9.9l-1.6,4.3H90l8.9-22C98.9,109.6,105.2,109.6,105.2,109.6z
				 M105.7,123.4l-3.6-8.6l-3.2,8.6H105.7z"/>
		</g>
		<g>
			<path class="st10" d="M164,127.6v4h-16.8v-22h5.5v18C152.7,127.6,164,127.6,164,127.6z"/>
		</g>
	</g>
</g>
<g id="Layer_2">
	
		<linearGradient id="SVGID_9_" gradientUnits="userSpaceOnUse" x1="37.1" y1="100.3" x2="165" y2="100.3" gradientTransform="matrix(1 0 0 -1 0 200)">
		<stop  offset="0" style="stop-color:#000000"/>
		<stop  offset="1" style="stop-color:#000000"/>
	</linearGradient>
	<path class="st11" d="M54.1,163.9c-0.9,0-1.8-0.3-2.6-0.8c-1.6-1-1.7-3.1-1.4-4.5v-0.1l0.3-0.8l0.1-0.2c2.7-3.9,8-14.1,5.8-19.2
		c-0.5-1.2-1.7-2.9-6-3.7h-0.1H50c-1.3-0.2-2.3-0.9-2.9-2c-0.6-1-0.7-2.3-0.2-3.4c0.5-1.5,2-2.5,3.7-2.5c0.2,0,0.4,0,0.6,0h0.2
		c0.8,0.1,1.9,0.2,3.3,0.2c-0.8-1.4-1.2-3-1.2-4.7c0-5.2,4.2-9.6,9.4-9.9c0.2,0,0.3,0,0.5,0c3.6,0,6.8,1.9,8.5,4.9
		c0.5-0.9,1-1.6,1.2-2l0.1-0.1c0.4-0.6,0.8-1,1.4-1.4c-1.7-1.1-2.8-2.9-2.8-5c0-2.4,1.5-4.5,3.7-5.5c-0.3-0.9-0.5-1.9-0.5-2.9
		c0-0.4,0-0.8,0.1-1.2c-1.6-0.3-3.2-0.7-4.9-1.3h-1c-17.7,0-32.1-10.9-32.1-24.2c0-8.3,5.7-16.1,14.8-20.4
		c5.4-10.8,16.6-17.7,28.6-17.7c6.4,0,12.7,1.9,17.9,5.5c4.3-1.9,8.8-2.8,13.4-2.8c3.4,0,6.6,0.5,9.7,1.5c3.7-1.5,7.7-2.3,11.7-2.3
		C150.7,37.6,165,52,165,69.5s-14.3,31.8-31.9,31.8c-1.4,0-2.7-0.1-3.9-0.2c-0.5,0.3-0.9,0.5-1.3,0.8c-0.1,0.9-0.2,1.7-0.5,2.5
		c1.9,1.1,3.1,3,3.1,5.2c0,0.9-0.2,1.8-0.6,2.6c0.6,0.5,1.1,1.1,1.4,1.9c0,0,0.3,0.8,0.3,0.9c1.8-1.8,4.2-2.9,6.8-2.9
		c0.3,0,0.7,0,1.1,0.1c4.4,0.5,7.8,3.9,8.5,8.2c0.4,2.7-0.3,5.3-1.9,7.3c1.3,0.3,2.7,0.5,3.8,0.6c2.2,0.4,3.7,2.4,3.5,4.5
		s-1.8,3.7-3.8,3.9c-3.7,0.5-7,1.6-7.9,2.5c-0.1,0.1-0.1,0.2-0.1,0.5c0.5,3.9,3.3,11,5.8,16.3c0.9,1.8,0.3,4-1.4,5.3l-0.1,0.1
		c-0.7,0.5-1.5,0.7-2.4,0.7c-1.3,0-2.4-0.5-3.2-1.5c-4-4.5-7-7.3-8.2-8.2c-1.5,1-5.4,4.1-10.3,8.5c-0.8,0.9-1.9,1.4-3,1.4
		c-0.9,0-1.8-0.3-2.6-0.9c-1.7-1.3-2.1-3.8-0.9-5.6c4.8-8.1,8.2-14.7,8.9-17.8c0.8-3.5-0.1-15.1-1-22.3c0,0,0,0,0-0.1
		c-3-0.1-5.4-1.8-6.3-4.2c-0.6,0.1-1.1,0.1-1.8,0.1c-5.5,0-10.3-2.8-12.1-6.8c-0.2-0.1-0.5-0.1-0.7-0.2c-0.8,0.2-1.7,0.3-2.7,0.4
		c-2.2,3.5-6.6,5.7-11.6,5.7c-0.8,0-1.6-0.1-2.4-0.2c-0.7,2.2-2.8,3.8-5.3,4.2c0.7,0.9,1,2,0.8,3.2c-1.2,6.8-3.6,16.8-8.1,26
		c-3.1,6.6-6.5,13.1-9.2,17.1c-1,1.5-2.6,2.3-4.3,2.3c-0.7,0-1.4-0.1-2-0.4l-0.4-0.2C56.3,163.4,55.2,163.9,54.1,163.9z"/>
</g>
<g id="truchat">
	<g id="truchat_1_">
		<g>
			<path class="st10" d="M161,69.5c0,15.4-12.5,27.8-27.9,27.8c-1.6,0-3.2-0.1-4.7-0.4c-1.5,1-3.1,1.9-4.7,2.6
				c0.2,0.5,0.3,1.1,0.3,1.7c0,3.6-4,6.4-8.9,6.4c-4.8,0-8.7-2.7-8.9-6.2c-1.3-0.2-2.6-0.6-3.9-1c-1.7,0.5-3.5,0.7-5.4,0.7h-0.1
				c-0.6,3.1-4.3,5.6-8.9,5.6c-4.9,0-8.9-2.9-8.9-6.4c0-1.9,1.1-3.6,2.9-4.8c-0.5,0-1,0-1.4,0c-3.4,0-6.7-0.6-9.7-1.7
				c-0.5,0-1.1,0-1.6,0c-15.5,0-28.1-9-28.1-20.2c0-7.4,5.5-13.9,13.8-17.4c4.4-9.8,14.2-16.7,25.6-16.7c6.6,0,12.7,2.3,17.5,6.1
				c4.1-2.2,8.8-3.4,13.8-3.4c3.5,0,6.8,0.6,9.9,1.7c3.5-1.6,7.4-2.5,11.5-2.5C148.5,41.6,161,54.1,161,69.5z"/>
			<ellipse class="st10" cx="123.5" cy="109.5" rx="3" ry="2.2"/>
			<ellipse class="st10" cx="78.8" cy="108.7" rx="3" ry="2.2"/>
			<g class="st0">
				<path class="st12" d="M54.3,63.8h13.1v3.9h-4.3V85h-4.8V67.9h-4.2v-4.1C54.1,63.8,54.3,63.8,54.3,63.8z"/>
				<path class="st12" d="M67.8,69.4h3.8v3.8c0.7-2.6,2-3.9,3.7-3.9c0.2,0,0.5,0,0.7,0.1v4.2c-0.3,0-0.6-0.1-0.7-0.1
					c-2.1,0-3.2,1.6-3.2,4.9V85h-4.3V69.4z"/>
				<path class="st12" d="M77.4,69.4h4.3v10.1c0,1,0.1,1.7,0.2,2s0.6,0.5,1.3,0.5c0.6,0,1-0.1,1.3-0.3c0.2-0.2,0.5-0.6,0.5-1.2
					c0.1-0.5,0.1-1.5,0.1-3v-8h4.3V85h-4.1v-2c-0.6,1.2-1.3,1.7-1.9,2c-0.6,0.2-1.4,0.5-2.2,0.5c-1.2,0-2-0.2-2.6-0.7
					s-1-1.2-1.2-1.7c-0.1-0.7-0.1-1.9-0.1-3.4C77.4,79.6,77.4,69.4,77.4,69.4z"/>
				<path class="st12" d="M103.4,77.4l4.3,0.2c-0.1,2.3-0.8,4.2-2.2,5.6c-1.4,1.5-3,2.1-5.2,2.1c-2.6,0-4.6-1-5.9-2.9
					c-1.4-2-2.1-4.6-2.1-7.9c0-3.5,0.6-6,2-8s3.4-2.9,6-2.9c4.4,0,6.8,2.8,7.2,8.2l-4.2,0.2c-0.1-3.1-1.2-4.8-3-4.8
					c-1,0-1.7,0.5-2.3,1.5c-0.6,1-0.8,3-0.8,5.9c0,2.6,0.2,4.3,0.7,5.3s1.4,1.5,2.3,1.5C102.1,81.6,103.2,80.2,103.4,77.4z"/>
				<path class="st12" d="M110.1,63.8h4.3V71c0.7-1.4,2.1-2,3.8-2c1.2,0,1.9,0.2,2.4,0.7c0.6,0.5,1,1.2,1.2,1.9
					c0.1,0.7,0.2,1.9,0.2,3.4v10h-4.3V75c0-1-0.1-1.7-0.2-2s-0.6-0.5-1.3-0.5c-0.6,0-1.2,0.1-1.4,0.5c-0.3,0.3-0.5,1-0.5,2.2v10H110
					C110.1,85.2,110.1,63.8,110.1,63.8z"/>
				<path class="st12" d="M129.5,74.4l-4.1-0.3c0.2-1.6,0.8-2.8,2-3.6c1.2-0.8,2.6-1.3,4.3-1.3c1.5,0,2.6,0.2,3.6,0.8
					c0.8,0.6,1.5,1.3,1.7,2s0.3,1.9,0.3,3.5v6.1c0,2,0.1,3.1,0.2,3.5h-4.1c-0.1-0.3-0.2-1.3-0.2-2.3c-1,1.9-2.3,2.8-4.3,2.8
					c-1.3,0-2.2-0.3-3-1.2c-0.8-0.8-1.2-1.7-1.2-3.2c0-1.7,0.6-3.1,1.7-4.1c1.2-1,3.2-1.5,6.4-1.7v-0.6c0-1-0.1-1.7-0.3-2.2
					s-0.6-0.6-1.3-0.6C130.2,72.1,129.6,72.8,129.5,74.4z M132.9,77.6c-1.3,0.1-2.2,0.3-2.8,0.8c-0.5,0.3-0.8,1.2-0.8,2.1
					c0,1.4,0.5,2,1.5,2c0.5,0,1-0.2,1.5-0.8c0.3-0.6,0.6-1.7,0.6-3.2V77.6z"/>
				<path class="st12" d="M141,64.5l4.2-0.1v5h2.9v3.5h-2.9v5.7c0,1.2,0,1.7,0.1,2.1c0,0.3,0.2,0.6,0.5,0.7c0.2,0.2,0.7,0.3,1.4,0.3
					c0.3,0,0.7,0,1.3,0v3.2c-1,0.2-1.9,0.3-2.8,0.3c-1.4,0-2.3-0.2-3.1-0.7c-0.7-0.5-1.2-1.2-1.4-1.9c-0.2-0.7-0.2-2-0.2-3.6v-6
					h-1.6v-3.5h1.7L141,64.5L141,64.5z"/>
			</g>
		</g>
		<g>
			<circle class="st10" cx="64.6" cy="121.1" r="5.9"/>
			<path class="st10" d="M50.1,130.5c0,0,12.7,1,18.5-3.4c5.8-4.3,9.8-11.9,9.8-11.9s-1.8,13.4-7.9,26c-4.9,10.6-8.6,16.2-10,17.7
				c-0.1,0.1-0.4-0.1-0.4-0.1s0.8-0.6,1.5-4.7c0.7-4.2,0.9-4.3,0.9-4.3s-6.2,8.3-7,9.1c-0.9,0.8-0.4-0.3-0.4-0.3
				S72.2,133.4,50.1,130.5z"/>
		</g>
		<g>
			<circle class="st10" cx="138.4" cy="121.6" r="5.6"/>
			<path class="st10" d="M127.1,114.1c0,0,2.5,18.8,1,24.9s-9.3,19.4-9.3,19.4s9.9-9.5,13.1-10s12.1,10,12.1,10s-5.6-11.3-6.4-18.1
				c-0.8-6.9,11.9-7.7,11.9-7.7s-11-2.1-15.3-5.4C130,123.9,127.1,114.1,127.1,114.1z"/>
		</g>
	</g>
</g>
<g>
	<path class="st13" d="M52.3,83.9V63.6h8.6c1.8,0,3.1,0.6,3.9,1.7S66,67.6,66,69c0,1-0.2,1.9-0.7,2.8c-0.5,0.8-1.2,1.4-2.1,1.7
		c2.2,0.6,3.3,2.2,3.3,4.7c0,1.6-0.4,2.9-1.2,4.1s-2.4,1.8-5,1.8h-8V83.9z M57.1,71.4h2.4c0.6,0,1-0.2,1.3-0.6
		c0.2-0.4,0.4-0.7,0.4-1.2c0-1.1-0.6-1.7-1.7-1.7h-2.3v3.5H57.1z M57.1,79.4h2.5c0.6,0,1.1-0.2,1.4-0.6c0.3-0.4,0.4-0.8,0.4-1.2
		s-0.1-0.8-0.4-1.3c-0.3-0.4-0.8-0.6-1.6-0.6H57L57.1,79.4L57.1,79.4z"/>
	<path class="st13" d="M73.8,63.6v20.2h-5.2V63.6H73.8z"/>
	<path class="st13" d="M89.8,79.1v4.8H75.7V80l7.5-11.7h-6.9v-4.7h13.3v4l-7.3,11.5H89.8z"/>
	<path class="st13" d="M107.3,76.2l4.7,0.4c-0.2,2.5-1,4.4-2.3,5.7c-1.3,1.3-2.9,2-4.8,2c-2.3,0-4.2-1-5.6-2.8
		c-1.4-1.8-2.1-4.3-2.1-7.5c0-3.2,0.7-5.7,2-7.7s3.2-2.9,5.6-2.9c2.2,0,4,0.7,5.2,2.3c1.2,1.4,1.9,3.5,2,5.9l-4.8,0.4
		c0-1.3-0.2-2.3-0.7-3c-0.5-0.7-0.9-1-1.5-1c-1.6,0-2.5,1.9-2.5,5.9c0,2.2,0.2,3.7,0.6,4.6c0.4,0.8,1,1.2,1.8,1.2
		C106.4,79.6,107.1,78.4,107.3,76.2z"/>
	<path class="st13" d="M126.2,83.9h-4.9v-9.1c0-0.8-0.1-1.4-0.2-1.7c-0.1-0.2-0.4-0.5-0.9-0.5c-0.3,0-0.6,0.1-0.9,0.4
		c-0.2,0.2-0.4,0.5-0.4,0.7s-0.1,0.8-0.1,1.7v8.5h-4.9V63.6h4.9v6.9c0.9-1.4,2.1-2,3.5-2c0.7,0,1.4,0.1,1.9,0.5
		c0.5,0.4,1,0.7,1.3,1.2c0.3,0.5,0.5,1,0.6,1.4c0.1,0.5,0.2,1.3,0.2,2.6L126.2,83.9L126.2,83.9z"/>
	<path class="st13" d="M141.5,83.9h-4.7c-0.1-0.6-0.2-1.3-0.2-2.2c-0.9,1.6-2.2,2.4-4.1,2.4c-1.5,0-2.6-0.5-3.3-1.3
		s-1.1-1.9-1.1-3.1c0-1.6,0.6-2.9,1.8-3.8c1.2-1,3.4-1.6,6.4-1.8v-0.4c0-0.7-0.1-1.1-0.4-1.3c-0.3-0.2-0.6-0.4-1.1-0.4
		c-1.1,0-1.8,0.6-1.9,1.7l-4.5-0.5c0.6-3.1,2.8-4.8,6.6-4.8c1,0,2,0.1,2.8,0.4c0.9,0.2,1.5,0.6,2,1.1c0.5,0.5,0.8,1.1,1,1.7
		s0.3,1.7,0.3,3.4v6C141.1,82.1,141.2,83,141.5,83.9z M136.3,76.8c-2.1,0.2-3.2,1.1-3.2,2.4c0,1,0.4,1.3,1.3,1.3
		c0.5,0,1-0.2,1.4-0.6s0.6-1.2,0.6-2.5v-0.6H136.3z"/>
	<path class="st13" d="M151.4,68.8v3.8h-2.5v5.6c0,0.7,0.1,1.2,0.4,1.3c0.2,0.1,0.5,0.2,0.7,0.2c0.4,0,0.9-0.1,1.4-0.2v4.2
		c-1,0.2-1.9,0.4-2.9,0.4c-1.5,0-2.6-0.4-3.4-1.2s-1.1-2-1.1-3.7v-1.8v-4.8h-1.9v-3.8h1.9l0.1-4.9l4.7-0.1v5
		C148.8,68.8,151.4,68.8,151.4,68.8z"/>
</g>
</svg>
