<?xml version="1.0" encoding="utf-8"?>
<!-- Generator: Adobe Illustrator 25.2.1, SVG Export Plug-In . SVG Version: 6.00 Build 0)  -->
<svg version="1.1" id="Layer_1" xmlns="http://www.w3.org/2000/svg" xmlns:xlink="http://www.w3.org/1999/xlink" x="0px" y="0px"
	 viewBox="0 0 200 200" style="enable-background:new 0 0 200 200;" xml:space="preserve">
<style type="text/css">
	.st0{opacity:0.3;}
	.st1{fill:url(#SVGID_1_);}
	.st2{fill:url(#SVGID_2_);}
	.st3{fill:url(#SVGID_3_);}
	.st4{fill:url(#SVGID_4_);}
	.st5{fill:#1A7AFF;}
	.st6{fill:url(#SVGID_5_);}
	.st7{fill:url(#SVGID_6_);}
	.st8{fill:url(#SVGID_7_);}
	.st9{fill:#FFFFFF;}
</style>
<g id="Layer_1_1_">
	<g id="Digipal">
		<path class="st0" d="M102.8,151.6l-8.7-1.2l-0.6-0.3c-2.4-1.2-2.6-3.2-2.6-4.1v-0.3l0.2-1.2c-0.2-0.1-0.4-0.2-0.6-0.3l-1.1,1
			l-0.4,0.2c-0.6,0.3-1.3,0.5-2,0.5c-1.2,0-2.3-0.5-3.2-1.3l-0.1-0.1l-4.7-5.6l-0.6,0.6l-3.3-1c-0.8,1-1.8,2-2.8,3l0.3,0.8
			c0.5,1.1,0.5,2.3,0,3.4c-0.5,1.1-1.4,2-2.5,2.5l-7.2,3c-0.5,0.2-1.1,0.4-1.7,0.4c-1.9,0-3.5-1.2-4.2-2.9l-0.4-0.9
			c-0.1,0-0.2,0-0.3,0l-0.3,0.9c-0.7,2.2-2.6,3-4.1,3c-0.5,0-1-0.1-1.5-0.2l-7.5-2.6c-2.4-0.8-3.6-3.2-2.8-5.5l0.3-0.9
			c-0.2-0.1-0.4-0.3-0.6-0.5l-1.1,0.6c-0.6,0.3-1.3,0.5-2,0.5c-1.6,0-3.2-0.9-4-2.4l-3.8-7.1c-0.5-1-0.6-2.3-0.2-3.4
			c0.4-1.1,1.1-2,2.1-2.5l1-0.5c-0.1-0.8-0.2-1.6-0.2-2.4l-1.2-0.4L30,124c-2.4-1.2-2.9-3.6-2.3-5.3l2.6-7.9l0.1-0.3
			c1.1-2.3,3.1-2.5,3.9-2.5c0.5,0,0.9,0.1,1.4,0.2l0.9,0.3c0.8-1,1.8-2,2.8-3l-0.3-0.8c-0.5-1.1-0.5-2.3,0-3.4c0.4-1,1.1-1.8,2-2.2
			H29.9V57.7h20.9c4.7,0,8.3,1.4,10.7,4c0.1,0.1,0.1,0.2,0.2,0.2v-5.3h17.7v9.4h25v10.6l-6.5,8.2h6.8V95l6.1,0.9l0.6,0.3
			c2.4,1.2,2.6,3.2,2.6,4.1v0.3l-0.2,1.2c0.2,0.1,0.4,0.2,0.6,0.3l1.1-1l0.4-0.2c0.6-0.3,1.3-0.5,2-0.5c1.2,0,2.3,0.5,3.2,1.3
			l0.1,0.1l5.1,6.1c0,0,0,0,0,0c0.5,0,1,0.1,1.4,0.2l0.9,0.3c0.8-1,1.8-2,2.8-3l-0.3-0.8c-0.5-1.1-0.5-2.3,0-3.4
			c0.5-1.1,1.4-2,2.5-2.5l7.2-3c0.5-0.2,1.1-0.4,1.7-0.4c1.9,0,3.5,1.2,4.2,2.9l0.4,0.9c0.1,0,0.2,0,0.3,0l0.3-0.9
			c0.7-2.2,2.6-3,4.1-3c0.5,0,1,0.1,1.5,0.2l7.5,2.6c2.4,0.8,3.6,3.2,2.8,5.5l-0.3,0.9c0.2,0.1,0.4,0.3,0.6,0.5l1.1-0.6
			c0.6-0.3,1.3-0.5,2-0.5c1.6,0,3.2,0.9,4,2.4l3.9,7.1c0.5,1.1,0.6,2.3,0.2,3.4c-0.4,1.1-1.1,2-2.1,2.5l-1,0.5
			c0.1,0.8,0.2,1.6,0.2,2.4l1.2,0.4l0.3,0.1c2.4,1.2,2.9,3.5,2.3,5.3l-2.5,7.6c-0.6,1.9-2.3,3.1-4.2,3.1l0,0c-0.5,0-1-0.1-1.5-0.3
			l-0.8-0.3c-0.8,1-1.8,2-2.8,3l0.3,0.8c0.5,1.1,0.5,2.3,0,3.4c-0.5,1.1-1.4,2-2.5,2.5l-7.2,2.9c-0.5,0.2-1.1,0.4-1.7,0.4
			c-1.9,0-3.5-1.2-4.2-2.9l-0.4-0.9c-0.1,0-0.2,0-0.3,0l-0.3,0.9c-0.7,2.2-2.6,3-4.1,3c-0.5,0-1-0.1-1.5-0.2l-7.5-2.6
			c-1.5-0.5-2.2-1.5-2.6-2.2c-0.3-0.6-0.7-1.8-0.2-3.4l0.3-0.9c-0.2-0.1-0.4-0.3-0.6-0.5l-1.1,0.6c-0.6,0.3-1.3,0.5-2,0.5
			c-1.7,0-3.2-0.9-4-2.4l-2.1-3.9c-0.2,0.3-0.4,0.6-0.7,1l0.5,0.7c0.6,0.7,0.9,1.6,0.9,2.6c0,0.8-0.2,2.1-1.4,3.2l-0.3,0.3l-6.8,4.5
			c-0.8,0.6-1.7,0.9-2.6,0.9c-0.8,0-2.1-0.2-3.2-1.4l-0.3-0.3l-0.8-1.3c-0.1,0-0.2,0.1-0.4,0.1l-0.2,1.6l-0.3,0.6
			c-1.2,2.4-3.2,2.6-4.1,2.6H102.8z M81.3,111.1c0.4-0.8,0.9-1.6,1.5-2.3l-0.5-0.7c-0.8-1-1.1-2.3-0.7-3.6c0.2-0.8,0.6-1.5,1.3-2.2
			l0.3-0.3l4.5-3H70.3c1.3,1.1,1.8,2.9,1.2,4.7l-0.3,0.9c0.2,0.1,0.4,0.3,0.6,0.5l1.1-0.6c0.6-0.3,1.3-0.5,2-0.5
			c1.6,0,3.2,0.9,4,2.4L81.3,111.1z M96.8,99.5c0.1,0,0.2-0.1,0.4-0.1l0.1-0.4h-0.8L96.8,99.5z M55,99.2c0.1,0,0.2,0,0.3,0l0.2-0.6
			c-0.2,0-0.5,0.1-0.8,0.1L55,99.2z M79.4,82.3l1.6-2.1h-1.6V82.3z"/>
		<g>
			<linearGradient id="SVGID_1_" gradientUnits="userSpaceOnUse" x1="56.0686" y1="113.162" x2="52.8806" y2="133.524">
				<stop  offset="0" style="stop-color:#FFFFFF"/>
				<stop  offset="1" style="stop-color:#1A7AFF"/>
			</linearGradient>
			<path class="st1" d="M48,113.3l0.9-0.8l7.7,0.8c1.9,0,3.5,0.5,4.7,1.7c1.1,1.1,1.8,2.5,1.8,4.1s-0.5,3-1.7,4.1
				c-1.1,1.1-2.7,1.8-4.7,1.8h-3.9l0.9,7l-0.9,0.8H48C48,132.7,48,113.3,48,113.3z M52.9,117v4.5h2.3c2,0,3-0.8,3-2.3
				c0-0.9-0.3-1.4-0.8-1.8s-1.4-0.5-2.7-0.5L52.9,117L52.9,117z"/>
		</g>
		<g>
			<linearGradient id="SVGID_2_" gradientUnits="userSpaceOnUse" x1="105.6999" y1="113.4588" x2="102.4048" y2="134.505">
				<stop  offset="0" style="stop-color:#FFFFFF"/>
				<stop  offset="1" style="stop-color:#1A7AFF"/>
			</linearGradient>
			<path class="st2" d="M104.7,113.3l9.5,18.6l-0.9,0.8h-5.2l-1.6-3.8h-8.7l-0.5,3l-0.9,0.8h-5.1l7.8-19.4l0.9-0.8L104.7,113.3z
				 M105.1,125.5l-3.2-7.6l-2.8,7.6H105.1z"/>
		</g>
		<g>
			<linearGradient id="SVGID_3_" gradientUnits="userSpaceOnUse" x1="150.9258" y1="113.7625" x2="147.802" y2="133.7143">
				<stop  offset="0" style="stop-color:#FFFFFF"/>
				<stop  offset="1" style="stop-color:#1A7AFF"/>
			</linearGradient>
			<path class="st3" d="M156.5,129.2l0.9,2.6l-0.9,0.9h-14.8v-19.4l0.9-0.9l3.9,0.9v15.9H156.5z"/>
		</g>
		<linearGradient id="SVGID_4_" gradientUnits="userSpaceOnUse" x1="106.4395" y1="85.3868" x2="92.4124" y2="174.9783">
			<stop  offset="0" style="stop-color:#FFFFFF"/>
			<stop  offset="0.8444" style="stop-color:#1A7AFF"/>
		</linearGradient>
		<path class="st4" d="M125.7,130l-0.5-6.7c0-0.3-0.2-0.4-0.4-0.5l-3.6-0.4c-0.2,0-0.4-0.2-0.4-0.4c-0.3-2.3-1-4.5-1.9-6.5
			c-0.1-0.2-0.1-0.4,0.1-0.5l2.8-2.4c0.2-0.2,0.2-0.4,0.1-0.6l-5.1-6.1c-0.2-0.2-0.4-0.2-0.6-0.1l-2.8,2.4c-0.2,0.1-0.4,0.2-0.5,0
			c-1.4-1.1-3-1.9-4.7-2.6c-0.2-0.1-0.3-0.3-0.3-0.4l0.5-3.6c0-0.3-0.2-0.4-0.4-0.5l-6.5-2.4c0,0-1.7,1.5-1.8,1.7l-0.5,3.6
			c0,0.2-0.2,0.4-0.4,0.4c-1.8,0.2-3.4,0.5-5,1.1c-0.2,0.1-0.4,0-0.5-0.2l-2-3.1c-0.2-0.2-0.4-0.3-0.6-0.1l-5.1,3.1l-1.5,1.3
			c-0.2,0.2-0.3,0.4-0.1,0.6l2,3.1c0.1,0.2,0.1,0.4,0,0.5c-1.9,1.9-3.3,4.3-4.1,6.9c-0.1,0.2-0.3,0.4-0.4,0.3l-2.2-1.7
			c0,0-1.8,1.5-1.9,1.7l-0.9,7.8c0,0.3,0.2,0.4,0.4,0.5l3.6,0.4c0.2,0,0.4,0.2,0.4,0.4c0.3,2.3,1,4.5,1.9,6.5
			c0.1,0.2,0.1,0.4-0.1,0.5l-2.8,2.4c-0.2,0.2-0.2,0.4-0.1,0.6l5.1,6.1c0.2,0.2,0.4,0.2,0.6,0.1l2.8-2.4c0.2-0.1,0.4-0.2,0.5,0
			c1.4,1.1,3,1.9,4.7,2.6c0.2,0.1,0.3,0.3,0.3,0.4l-0.5,3.6c0,0.3,0.2,0.4,0.4,0.5l7.8,1.1c0.3,0,2-1.6,2-1.6l-1-2.4
			c0-0.2,0.2-0.4,0.4-0.4c1.8-0.2,3.4-0.5,5-1.1c0.2-0.1,0.4,0,0.5,0.2l2,3.1c0.2,0.2,0.4,0.3,0.6,0.1l6.6-4.4
			c0.2-0.2,1.9-1.3,1.8-1.7l-3.7-2c-0.1-0.2-0.1-0.4,0-0.5c1.9-1.9,3.3-4.3,4.1-6.9c0.1-0.2,0.3-0.4,0.4-0.3l3.6,0.4
			C124,131.5,125.7,130,125.7,130z M102.2,140.3c-10,1-18.4-7.4-17.4-17.4c0.7-7.4,6.7-13.4,14.2-14.2c10-1,18.4,7.4,17.4,17.4
			C115.6,133.6,109.6,139.6,102.2,140.3z M169.6,134.7l1.1-6.5c0.1-0.3-0.1-0.4-0.3-0.5l-3.5-1.1c-0.2-0.1-0.4-0.3-0.3-0.4
			c0.2-2.3,0-4.6-0.6-6.8c-0.1-0.2,0-0.4,0.2-0.5l3.3-1.8c0.2-0.1,1.8-1.4,1.7-1.6l-5.3-6c-0.1-0.2-0.4-0.3-0.6-0.2l-3.3,1.8
			c-0.2,0.1-0.4,0.1-0.5-0.1c-1.1-1.3-2.6-2.5-4.1-3.4c-0.2-0.1-0.3-0.4-0.2-0.5l1.2-3.4c0.1-0.3,0-0.4-0.3-0.5l-6.4-3.9
			c0,0-1.5,1.3-1.6,1.6l-1.2,3.4c-0.1,0.2-0.3,0.3-0.4,0.3c-1.8-0.2-3.4-0.2-5.1,0.1c-0.2,0-0.4-0.1-0.4-0.3l-1.4-3.4
			c-0.1-0.3-0.4-0.4-0.6-0.3l-6,1.8l-1.3,1.2c-0.3,0.1-0.4,0.4-0.3,0.6l1.4,3.4c0.1,0.2,0,0.4-0.2,0.5c-2.2,1.6-4.1,3.5-5.5,5.9
			c-0.1,0.2-0.4,0.3-0.5,0.2l-2.2-2.4c0,0-1.8,1.2-1.9,1.4l-2.5,7.6c-0.1,0.3,0.1,0.4,0.3,0.5l3.5,1.1c0.2,0.1,0.4,0.3,0.3,0.4
			c-0.2,2.3,0,4.6,0.6,6.8c0.1,0.2,0,0.4-0.2,0.5l-1.8,0.8l-1.5,1c-0.2,0.1-0.3,0.4-0.2,0.6l3.8,7c0.1,0.2,0.4,0.3,0.6,0.2l3.3-1.8
			c0.2-0.1,0.4-0.1,0.5,0.1c1.1,1.3,2.6,2.5,4.1,3.4c0.2,0.1,0.3,0.4,0.2,0.5l-1.2,3.4c-0.1,0.3,0,0.4,0.3,0.5l7.5,2.6
			c0.3,0.1,1.9-1.1,1.9-1.1l-0.2-2.6c0.1-0.2,0.3-0.3,0.4-0.3c1.8,0.2,3.4,0.2,5.1-0.1c0.2,0,0.4,0.1,0.4,0.3l1.4,3.4
			c0.1,0.3,0.4,0.4,0.6,0.3l7.3-3c0.3-0.1,1.9-1.1,1.9-1.4l-3-2.6c-0.1-0.2,0-0.4,0.2-0.5c2.2-1.6,4.1-3.5,5.5-5.9
			c0.1-0.2,0.4-0.3,0.5-0.2l3.5,1.1C168,136.1,169.6,134.7,169.6,134.7z M144.7,140.3c-10-1.1-16.5-10.9-13.5-20.6
			c2.2-7.1,9.3-11.8,16.7-11c10,1.1,16.5,10.9,13.5,20.6C159.3,136.4,152.1,141.1,144.7,140.3z M77.3,134.7l1.1-6.5
			c0.1-0.3-0.1-0.4-0.3-0.5l-3.5-1.1c-0.2-0.1-0.4-0.3-0.3-0.4c0.2-2.3,0-4.6-0.6-6.8c-0.1-0.2,0-0.4,0.2-0.5l3.3-1.8
			c0.2-0.1,1.7-1.4,1.7-1.4l-5.3-6.2c-0.1-0.2-0.4-0.3-0.6-0.2l-3.3,1.8c-0.2,0.1-0.4,0.1-0.5-0.1c-1.1-1.3-2.6-2.5-4.1-3.4
			c-0.2-0.1-0.3-0.4-0.2-0.5l1.2-3.4c0.1-0.3,0-0.4-0.3-0.5l-6.2-3.9c0,0-1.7,1.3-1.8,1.6l-1.2,3.4c-0.1,0.2-0.3,0.3-0.4,0.3
			c-1.8-0.2-3.4-0.2-5.1,0.1c-0.2,0-0.4-0.1-0.4-0.3l-1.4-3.4c-0.1-0.3-0.4-0.4-0.6-0.3l-5.7,1.8l-1.6,1.2c-0.3,0.1-0.4,0.4-0.3,0.6
			l1.4,3.4c0.1,0.2,0,0.4-0.2,0.5c-2.2,1.6-4.1,3.5-5.5,5.9c-0.1,0.2-0.4,0.3-0.5,0.2l-2.1-2.3c0,0-1.2,0.9-1.7,1.3
			c-0.1,0.1-0.2,0.2-0.2,0.3l-2.4,7.4c-0.1,0.3,0.1,0.4,0.3,0.5l3.5,1.1c0.2,0.1,0.4,0.3,0.3,0.4c-0.2,2.3,0,4.6,0.6,6.8
			c0.1,0.2,0,0.4-0.2,0.5l-1.6,0.6l-1.7,1.2c-0.2,0.1-0.3,0.4-0.2,0.6l3.8,7c0.1,0.2,0.4,0.3,0.6,0.2l3.3-1.8
			c0.2-0.1,0.4-0.1,0.5,0.1c1.1,1.3,2.6,2.5,4.1,3.4c0.2,0.1,0.3,0.4,0.2,0.5l-1.2,3.4c-0.1,0.3,0,0.4,0.3,0.5l7.5,2.6
			c0.3,0.1,2.1-1.2,2.1-1.2l-0.2-2.5c-0.1-0.2,0.1-0.3,0.2-0.3c1.8,0.2,3.4,0.2,5.1-0.1c0.2,0,0.4,0.1,0.4,0.3l1.4,3.4
			c0.1,0.3,0.4,0.4,0.6,0.3l7.3-3c0.3-0.1,2.1-1.3,2-1.5l-3.1-2.5c-0.1-0.2,0-0.4,0.2-0.5c2.2-1.6,4.1-3.5,5.5-5.9
			c0.1-0.2,0.4-0.3,0.5-0.2l3.5,1.1C75.6,136.2,77.3,134.7,77.3,134.7z M52.4,140.3c-10-1.1-16.5-10.9-13.5-20.6
			c2.2-7.1,9.3-11.8,16.7-11c10,1.1,16.5,10.9,13.5,20.6C67,136.4,59.8,141.1,52.4,140.3z"/>
		<path class="st5" d="M125.9,129.7l0.9-7.8c0-0.3-0.2-0.4-0.4-0.5l-3.6-0.4c-0.2,0-0.4-0.2-0.4-0.4c-0.3-2.3-1-4.5-1.9-6.5
			c-0.1-0.2-0.1-0.4,0.1-0.5l2.8-2.4c0.2-0.2,0.2-0.4,0.1-0.6l-5.1-6.1c-0.2-0.2-0.4-0.2-0.6-0.1l-2.8,2.4c-0.2,0.1-0.4,0.2-0.5,0
			c-1.4-1.1-3-1.9-4.7-2.6c-0.2-0.1-0.3-0.3-0.3-0.4l0.5-3.6c0-0.3-0.2-0.4-0.4-0.5l-7.8-1.1c-0.3,0-0.4,0.2-0.5,0.4l-0.5,3.6
			c0,0.2-0.2,0.4-0.4,0.4c-1.8,0.2-3.4,0.5-5,1.1c-0.2,0.1-0.4,0-0.5-0.2l-2-3.1c-0.2-0.2-0.4-0.3-0.6-0.1l-6.6,4.4
			c-0.2,0.2-0.3,0.4-0.1,0.6l2,3.1c0.1,0.2,0.1,0.4,0,0.5c-1.9,1.9-3.3,4.3-4.1,6.9c-0.1,0.2-0.3,0.4-0.4,0.3l-3.6-0.4
			c-0.3,0-0.4,0.2-0.5,0.4l-0.9,7.8c0,0.3,0.2,0.4,0.4,0.5l3.6,0.4c0.2,0,0.4,0.2,0.4,0.4c0.3,2.3,1,4.5,1.9,6.5
			c0.1,0.2,0.1,0.4-0.1,0.5l-2.8,2.4c-0.2,0.2-0.2,0.4-0.1,0.6l5.1,6.1c0.2,0.2,0.4,0.2,0.6,0.1l2.8-2.4c0.2-0.1,0.4-0.2,0.5,0
			c1.4,1.1,3,1.9,4.7,2.6c0.2,0.1,0.3,0.3,0.3,0.4l-0.5,3.6c0,0.3,0.2,0.4,0.4,0.5l7.8,1.1c0.3,0,0.4-0.2,0.5-0.4l0.5-3.6
			c0-0.2,0.2-0.4,0.4-0.4c1.8-0.2,3.4-0.5,5-1.1c0.2-0.1,0.4,0,0.5,0.2l2,3.1c0.2,0.2,0.4,0.3,0.6,0.1l6.6-4.4
			c0.2-0.2,0.3-0.4,0.1-0.6l-2-3.1c-0.1-0.2-0.1-0.4,0-0.5c1.9-1.9,3.3-4.3,4.1-6.9c0.1-0.2,0.3-0.4,0.4-0.3l3.6,0.4
			C125.6,130.2,125.9,130,125.9,129.7z M103.8,139c-10,1-18.4-7.4-17.4-17.4c0.7-7.4,6.7-13.4,14.2-14.2c10-1,18.4,7.4,17.4,17.4
			C117.2,132.2,111.2,138.3,103.8,139z M169.7,134.5l2.5-7.6c0.1-0.3-0.1-0.4-0.3-0.5l-3.5-1.1c-0.2-0.1-0.4-0.3-0.3-0.4
			c0.2-2.3,0-4.6-0.6-6.8c-0.1-0.2,0-0.4,0.2-0.5l3.3-1.8c0.2-0.1,0.3-0.4,0.2-0.6l-3.8-7c-0.1-0.2-0.4-0.3-0.6-0.2l-3.3,1.8
			c-0.2,0.1-0.4,0.1-0.5-0.1c-1.1-1.3-2.6-2.5-4.1-3.4c-0.2-0.1-0.3-0.4-0.2-0.5l1.2-3.4c0.1-0.3,0-0.4-0.3-0.5l-7.5-2.6
			c-0.3-0.1-0.4,0-0.5,0.3l-1.2,3.4c-0.1,0.2-0.3,0.3-0.4,0.3c-1.8-0.2-3.4-0.2-5.1,0.1c-0.2,0-0.4-0.1-0.4-0.3l-1.4-3.4
			c-0.1-0.3-0.4-0.4-0.6-0.3l-7.3,3c-0.3,0.1-0.4,0.4-0.3,0.6l1.4,3.4c0.1,0.2,0,0.4-0.2,0.5c-2.2,1.6-4.1,3.5-5.5,5.9
			c-0.1,0.2-0.4,0.3-0.5,0.2l-3.5-1.1c-0.3-0.1-0.4,0.1-0.5,0.3l-2.5,7.6c-0.1,0.3,0.1,0.4,0.3,0.5l3.5,1.1c0.2,0.1,0.4,0.3,0.3,0.4
			c-0.2,2.3,0,4.6,0.6,6.8c0.1,0.2,0,0.4-0.2,0.5l-3.3,1.8c-0.2,0.1-0.3,0.4-0.2,0.6l3.8,7c0.1,0.2,0.4,0.3,0.6,0.2l3.3-1.8
			c0.2-0.1,0.4-0.1,0.5,0.1c1.1,1.3,2.6,2.5,4.1,3.4c0.2,0.1,0.3,0.4,0.2,0.5l-1.2,3.4c-0.1,0.3,0,0.4,0.3,0.5l7.5,2.6
			c0.3,0.1,0.4,0,0.5-0.3l1.2-3.4c0.1-0.2,0.3-0.3,0.4-0.3c1.8,0.2,3.4,0.2,5.1-0.1c0.2,0,0.4,0.1,0.4,0.3l1.4,3.4
			c0.1,0.3,0.4,0.4,0.6,0.3l7.3-3c0.3-0.1,0.4-0.4,0.3-0.6l-1.4-3.4c-0.1-0.2,0-0.4,0.2-0.5c2.2-1.6,4.1-3.5,5.5-5.9
			c0.1-0.2,0.4-0.3,0.5-0.2l3.5,1.1C169.4,134.9,169.6,134.8,169.7,134.5z M146.3,139c-10-1.1-16.5-10.9-13.5-20.6
			c2.2-7.1,9.3-11.8,16.7-11c10,1.1,16.5,10.9,13.5,20.6C160.8,135.1,153.7,139.8,146.3,139z M77.5,134.5l2.5-7.6
			c0.1-0.3-0.1-0.4-0.3-0.5l-3.5-1.1c-0.2-0.1-0.4-0.3-0.3-0.4c0.2-2.3,0-4.6-0.6-6.8c-0.1-0.2,0-0.4,0.2-0.5l3.3-1.8
			c0.2-0.1,0.3-0.4,0.2-0.6l-3.8-7c-0.1-0.2-0.4-0.3-0.6-0.2l-3.3,1.8c-0.2,0.1-0.4,0.1-0.5-0.1c-1.1-1.3-2.6-2.5-4.1-3.4
			c-0.2-0.1-0.3-0.4-0.2-0.5l1.2-3.4c0.1-0.3,0-0.4-0.3-0.5l-7.5-2.6c-0.3-0.1-0.4,0-0.5,0.3l-1.2,3.4c-0.1,0.2-0.3,0.3-0.4,0.3
			c-1.8-0.2-3.4-0.2-5.1,0.1c-0.2,0-0.4-0.1-0.4-0.3l-1.4-3.4c-0.1-0.3-0.4-0.4-0.6-0.3l-7.2,3.1c-0.3,0.1-0.4,0.4-0.3,0.6l1.4,3.4
			c0.1,0.2,0,0.4-0.2,0.5c-2.2,1.6-4.1,3.5-5.5,5.9c-0.1,0.2-0.4,0.3-0.5,0.2l-3.5-1.1c-0.3-0.1-0.4,0.1-0.5,0.3l-2.5,7.6
			c-0.1,0.3,0.1,0.4,0.3,0.5l3.5,1.1c0.2,0.1,0.4,0.3,0.3,0.4c-0.2,2.3,0,4.6,0.6,6.8c0.1,0.2,0,0.4-0.2,0.5l-3.3,1.8
			c-0.2,0.1-0.3,0.4-0.2,0.6l3.8,7c0.1,0.2,0.4,0.3,0.6,0.2l3.3-1.8c0.2-0.1,0.4-0.1,0.5,0.1c1.1,1.3,2.6,2.5,4.1,3.4
			c0.2,0.1,0.3,0.4,0.2,0.5l-1.2,3.4c-0.1,0.3,0,0.4,0.3,0.5l7.5,2.6c0.3,0.1,0.4,0,0.5-0.3l1.2-3.4c0.1-0.2,0.3-0.3,0.4-0.3
			c1.8,0.2,3.4,0.2,5.1-0.1c0.2,0,0.4,0.1,0.4,0.3l1.4,3.4c0.1,0.3,0.4,0.4,0.6,0.3l7.3-3c0.3-0.1,0.4-0.4,0.3-0.6l-1.4-3.4
			c-0.1-0.2,0-0.4,0.2-0.5c2.2-1.6,4.1-3.5,5.5-5.9c0.1-0.2,0.4-0.3,0.5-0.2l3.5,1.1C77.2,134.8,77.4,134.7,77.5,134.5z M54,139
			c-10-1.1-16.5-10.9-13.5-20.6c2.2-7.1,9.3-11.8,16.7-11c10,1.1,16.5,10.9,13.5,20.6C68.6,135.1,61.4,139.8,54,139z"/>
		<g>
			<path class="st5" d="M48.9,112.5h8.6c1.9,0,3.5,0.5,4.7,1.7c1.1,1.1,1.8,2.5,1.8,4.1s-0.5,3-1.7,4.1c-1.1,1.1-2.7,1.8-4.7,1.8
				h-3.9v7.8h-4.8C48.9,131.8,48.9,112.5,48.9,112.5z M53.7,116.1v4.5H56c2,0,3-0.8,3-2.3c0-0.9-0.3-1.4-0.8-1.8s-1.4-0.5-2.7-0.5
				L53.7,116.1L53.7,116.1z"/>
		</g>
		<g>
			<path class="st5" d="M105.6,112.5l8.6,19.4H109l-1.6-3.8h-8.7l-1.4,3.8h-5.1l7.8-19.4C100,112.5,105.6,112.5,105.6,112.5z
				 M106,124.6l-3.2-7.6l-2.8,7.6H106z"/>
		</g>
		<g>
			<path class="st5" d="M157.4,128.3v3.5h-14.8v-19.4h4.8v15.9H157.4z"/>
		</g>
		<g>
			<linearGradient id="SVGID_5_" gradientUnits="userSpaceOnUse" x1="46.3325" y1="64.4103" x2="45.0361" y2="92.2859">
				<stop  offset="0" style="stop-color:#AFAFAF"/>
				<stop  offset="0.4584" style="stop-color:#616161"/>
				<stop  offset="1" style="stop-color:#363636"/>
			</linearGradient>
			<path class="st6" d="M31.9,96V62.7l2-1l14.9,1c3.5,0,6.1,0.9,7.7,2.7c1.6,1.8,2.4,3.8,2.4,6.1c0,1.7-0.5,3.2-1.4,4.5
				s-2.3,2.3-4.2,2.8c4.3,1,6.5,3.6,6.5,7.8c0,2.5-0.8,4.7-2.3,6.6C56,95.1,52.7,96,47.7,96H31.9z M41.3,75.5H46
				c1.2,0,2-0.3,2.5-0.9s0.7-1.2,0.7-1.9c0-1.9-1.1-2.8-3.4-2.8h-4.6L41.3,75.5L41.3,75.5z M41.3,88.6h5c1.2,0,2.1-0.3,2.7-0.9
				c0.6-0.6,0.9-1.3,0.9-2.1c0-0.8-0.3-1.5-0.8-2.1c-0.6-0.6-1.6-1-3.1-1h-4.6v6.1H41.3z"/>
			<linearGradient id="SVGID_6_" gradientUnits="userSpaceOnUse" x1="69.4655" y1="63.0857" x2="69.5902" y2="91.2989">
				<stop  offset="0" style="stop-color:#AFAFAF"/>
				<stop  offset="0.4584" style="stop-color:#616161"/>
				<stop  offset="1" style="stop-color:#363636"/>
			</linearGradient>
			<path class="st7" d="M73.4,61.7l2,6.7l-2,1h-9.7v-7.7l2-1L73.4,61.7z M73.4,71.2l2,23.8l-2,1h-9.7V71.2l2-1L73.4,71.2z"/>
			<linearGradient id="SVGID_7_" gradientUnits="userSpaceOnUse" x1="88.8463" y1="72.7723" x2="88.7319" y2="96.6714">
				<stop  offset="0" style="stop-color:#AFAFAF"/>
				<stop  offset="0.4584" style="stop-color:#616161"/>
				<stop  offset="1" style="stop-color:#363636"/>
			</linearGradient>
			<path class="st8" d="M98.7,89.9l2,5.2l-2,1H76.8v-5.4l10.5-13.5c-1.3,0-2.1,0.1-2.5,0.1h-7.1v-6.1l2-1l18.7,1v5.2L87.6,89.9h1.3
				c0.3,0,0.5,0,0.7,0H98.7z"/>
		</g>
	</g>
	<path class="st9" d="M33.9,95V61.7h16.9c3.5,0,6.1,0.9,7.7,2.7c1.6,1.8,2.4,3.8,2.4,6.1c0,1.7-0.5,3.2-1.4,4.5s-2.3,2.3-4.2,2.8
		c4.3,1,6.5,3.6,6.5,7.8c0,2.5-0.8,4.7-2.3,6.6C58,94.1,54.7,95,49.7,95H33.9z M43.3,74.5H48c1.2,0,2-0.3,2.5-0.9s0.7-1.2,0.7-1.9
		c0-1.9-1.1-2.8-3.4-2.8h-4.6L43.3,74.5L43.3,74.5z M43.3,87.6h5c1.2,0,2.1-0.3,2.7-0.9c0.6-0.6,0.9-1.3,0.9-2.1
		c0-0.8-0.3-1.5-0.8-2.1c-0.6-0.6-1.6-1-3.1-1h-4.6v6.1H43.3z M75.4,60.7v7.7h-9.7v-7.7H75.4z M75.4,70.2V95h-9.7V70.2H75.4z
		 M100.7,88.9V95H78.8v-5.4l10.5-13.5c-1.3,0-2.1,0.1-2.5,0.1h-7.1v-6.1h20.7v5.2L89.6,88.9h1.3c0.3,0,0.5,0,0.7,0H100.7z"/>
</g>
</svg>
