<?xml version="1.0" encoding="utf-8"?>
<!-- Generator: Adobe Illustrator 25.2.1, SVG Export Plug-In . SVG Version: 6.00 Build 0)  -->
<svg version="1.1" id="Layer_1" xmlns="http://www.w3.org/2000/svg" xmlns:xlink="http://www.w3.org/1999/xlink" x="0px" y="0px"
	 viewBox="0 0 200 200" style="enable-background:new 0 0 200 200;" xml:space="preserve">
<style type="text/css">
	.st0{opacity:0.3;fill:url(#SVGID_1_);}
	.st1{fill:url(#SVGID_2_);stroke:url(#SVGID_3_);stroke-miterlimit:10;}
	.st2{fill:url(#SVGID_4_);}
	.st3{display:none;fill:url(#SVGID_5_);}
	.st4{fill:url(#SVGID_6_);stroke:url(#SVGID_7_);stroke-miterlimit:10;}
	.st5{fill:url(#SVGID_8_);}
	.st6{fill:url(#SVGID_9_);}
	.st7{fill:url(#SVGID_10_);}
</style>
<g id="pdfkit">
	<g id="pdf">
		<g>
			<linearGradient id="SVGID_1_" gradientUnits="userSpaceOnUse" x1="66.746" y1="157.112" x2="128.2445" y2="52.0322">
				<stop  offset="2.924409e-02" style="stop-color:#000000"/>
				<stop  offset="1" style="stop-color:#000000"/>
			</linearGradient>
			<path class="st0" d="M70.1,157.2c-6.6,0-12-5.4-12-12V52.3c0-6.6,5.4-12,12-12h38.1l35.5,37.8v67.1c-0.1,6.6-5.6,12-12.1,12H70.1
				z"/>
			<linearGradient id="SVGID_2_" gradientUnits="userSpaceOnUse" x1="69.3688" y1="152.6513" x2="125.7353" y2="56.3405">
				<stop  offset="2.924409e-02" style="stop-color:#FFFFFF"/>
				<stop  offset="0.6457" style="stop-color:#F6F6F6"/>
				<stop  offset="1" style="stop-color:#B4B4B4"/>
			</linearGradient>
			<linearGradient id="SVGID_3_" gradientUnits="userSpaceOnUse" x1="69.4474" y1="153.2536" x2="125.8198" y2="55.614">
				<stop  offset="0.1453" style="stop-color:#B4B4B4"/>
				<stop  offset="0.5451" style="stop-color:#F6F6F6"/>
				<stop  offset="1" style="stop-color:#FFFFFF"/>
			</linearGradient>
			<path class="st1" d="M130.7,152.3H71.1c-4.7,0-8.6-3.8-8.6-8.6V53.8c0-4.7,3.8-8.6,8.6-8.6h35.6L139.4,80v63.7
				C139.3,148.4,135.5,152.3,130.7,152.3z"/>
		</g>
		
			<linearGradient id="SVGID_4_" gradientUnits="userSpaceOnUse" x1="86.4953" y1="76.612" x2="140.3673" y2="168.6605" gradientTransform="matrix(1 0 0 -1 0 200)">
			<stop  offset="0.2688" style="stop-color:#FFFFFF"/>
			<stop  offset="1" style="stop-color:#D0D2D3"/>
		</linearGradient>
		<path class="st2" d="M130.7,152.3H71.1c-4.7,0-8.6-3.8-8.6-8.6V53.8c0-4.7,3.8-8.6,8.6-8.6h35.6L139.4,80v63.7
			C139.3,148.4,135.5,152.3,130.7,152.3z"/>
		
			<linearGradient id="SVGID_5_" gradientUnits="userSpaceOnUse" x1="127.9913" y1="146.949" x2="52.302" y2="19.0363" gradientTransform="matrix(1 0 0 -1 0 200)">
			<stop  offset="0.2688" style="stop-color:#FFFFFF"/>
			<stop  offset="1" style="stop-color:#D0D2D3"/>
		</linearGradient>
		<path class="st3" d="M71.1,155.3c-6.4,0-11.6-5.2-11.6-11.6V53.8c0-6.4,5.2-11.6,11.6-11.6H108l34.4,36.6v64.9
			c0,6.4-5.2,11.6-11.6,11.6H71.1z"/>
		<g>
			<linearGradient id="SVGID_6_" gradientUnits="userSpaceOnUse" x1="69.3688" y1="152.6513" x2="125.7353" y2="56.3405">
				<stop  offset="2.924409e-02" style="stop-color:#FFFFFF"/>
				<stop  offset="0.6457" style="stop-color:#F6F6F6"/>
				<stop  offset="1" style="stop-color:#B4B4B4"/>
			</linearGradient>
			<linearGradient id="SVGID_7_" gradientUnits="userSpaceOnUse" x1="69.4474" y1="153.2536" x2="125.8198" y2="55.614">
				<stop  offset="0.1453" style="stop-color:#B4B4B4"/>
				<stop  offset="0.5451" style="stop-color:#F6F6F6"/>
				<stop  offset="1" style="stop-color:#FFFFFF"/>
			</linearGradient>
			<path class="st4" d="M130.7,152.3H71.1c-4.7,0-8.6-3.8-8.6-8.6V53.8c0-4.7,3.8-8.6,8.6-8.6h35.6L139.4,80v63.7
				C139.3,148.4,135.5,152.3,130.7,152.3z"/>
		</g>
		
			<linearGradient id="SVGID_8_" gradientUnits="userSpaceOnUse" x1="124.2845" y1="138.5874" x2="107.6141" y2="122.5533" gradientTransform="matrix(1 0 0 -1 0 200)">
			<stop  offset="0.2403" style="stop-color:#FFFFFF"/>
			<stop  offset="0.7999" style="stop-color:#B4B4B4"/>
		</linearGradient>
		<path class="st5" d="M106.3,69.6l0.4-24.4L139.4,80l-22.9-0.1C110.8,79.9,106.3,75.3,106.3,69.6z"/>
		
			<linearGradient id="SVGID_9_" gradientUnits="userSpaceOnUse" x1="93.9203" y1="89.2327" x2="104.2753" y2="113.5294" gradientTransform="matrix(1 0 0 -1 0 200)">
			<stop  offset="0.2554" style="stop-color:#FF2200"/>
			<stop  offset="0.7893" style="stop-color:#FF6D00"/>
		</linearGradient>
		<path class="st6" d="M79.6,102v6.5h-4.9v-18h6.8c1.7,0,3,0.2,3.9,0.7c0.9,0.4,1.6,1.1,2.1,2s0.8,1.9,0.8,3c0,1.7-0.5,3.1-1.6,4.2
			s-2.5,1.6-4.2,1.6C82.5,102,79.6,102,79.6,102z M79.5,98.1h1.6c1.4,0,2.2-0.6,2.2-1.8c0-1.1-0.7-1.7-2-1.7h-1.8
			C79.5,94.6,79.5,98.1,79.5,98.1z M94.7,108.5v-18h6.1c2.7,0,4.7,0.9,6,2.7c1.3,1.8,2,3.9,2,6.2c0,2.7-0.7,4.9-2.1,6.6
			s-3.3,2.5-5.5,2.5C101.2,108.5,94.7,108.5,94.7,108.5z M99.6,104.4h1.3c0.8,0,1.5-0.4,2-1.3c0.6-0.9,0.8-2.1,0.8-3.6
			c0-1.3-0.2-2.4-0.7-3.4c-0.5-0.9-1.2-1.4-2.1-1.4h-1.3C99.6,94.7,99.6,104.4,99.6,104.4z M125.6,101.8h-5.2v6.7h-4.8v-18h11.5v4.3
			h-6.7v2.9h5.2V101.8z"/>
		
			<linearGradient id="SVGID_10_" gradientUnits="userSpaceOnUse" x1="113.8007" y1="76.6474" x2="117.155" y2="88.0762" gradientTransform="matrix(1 0 0 -1 0 200)">
			<stop  offset="0" style="stop-color:#00287F"/>
			<stop  offset="1" style="stop-color:#3F5CFF"/>
		</linearGradient>
		<path class="st7" d="M114.4,110.7l-3.1,3.9l4.6,8.5h-4l-2.9-5.5l-0.5,0.6v4.9h-3.6v-12.5h3.6v5.5l4.3-5.5L114.4,110.7L114.4,110.7
			z M116.7,123.2V114c1,0,2.2-0.1,3.3-0.2v9.4C120,123.2,116.7,123.2,116.7,123.2z M118.4,110.4c1,0,1.6,0.4,1.6,1.2
			c0,0.8-0.5,1.2-1.6,1.2c-1,0-1.6-0.4-1.6-1.2S117.3,110.4,118.4,110.4z M126.8,114v1h-1.5v6.5c0,0.4,0.1,0.6,0.4,0.6
			c0.2,0,0.3-0.1,0.3-0.4l0.9,0.1c-0.3,1-1.1,1.4-2.5,1.4c-1.7,0-2.5-0.7-2.5-2.1V115h-1.1v-1h1.1v-1.6c1.2-0.3,2.3-0.8,3.3-1.4v3
			H126.8z"/>
	</g>
</g>
</svg>
