<?xml version="1.0" encoding="utf-8"?>
<!-- Generator: Adobe Illustrator 25.2.1, SVG Export Plug-In . SVG Version: 6.00 Build 0)  -->
<svg version="1.1" id="Layer_1" xmlns="http://www.w3.org/2000/svg" xmlns:xlink="http://www.w3.org/1999/xlink" x="0px" y="0px"
	 viewBox="0 0 200 200" style="enable-background:new 0 0 200 200;" xml:space="preserve">
<style type="text/css">
	.st0{display:none;}
	.st1{display:inline;}
	.st2{fill:url(#SVGID_1_);}
	.st3{fill:url(#SVGID_2_);}
	.st4{fill:url(#SVGID_3_);}
	.st5{fill:url(#SVGID_4_);}
	.st6{fill:url(#SVGID_5_);}
	.st7{fill:url(#SVGID_6_);}
	.st8{fill:url(#SVGID_7_);}
	.st9{fill:url(#SVGID_8_);}
	.st10{fill:#FFFFFF;}
	.st11{opacity:0.3;fill:url(#SVGID_9_);}
	.st12{fill:#3550A2;}
</style>
<g id="digipal" class="st0">
	<g id="Digipal" class="st1">
		<g>
			<linearGradient id="SVGID_1_" gradientUnits="userSpaceOnUse" x1="36.6413" y1="49.1322" x2="31.1771" y2="84.0322">
				<stop  offset="0" style="stop-color:#FFFFFF"/>
				<stop  offset="1" style="stop-color:#000000"/>
			</linearGradient>
			<path class="st2" d="M44.1,50.3v33.1h-7v-1.8c-1.8,1.5-3.9,2.2-6.2,2.2c-3,0-5.5-1.1-7.5-3.3c-2-2.2-3-5-3-8.3c0-3.4,1-6.2,3-8.4
				c2-2.2,4.6-3.3,7.8-3.3c2,0,3.9,0.5,5.8,1.4V50.3H44.1z M37.1,77.3V66.6c-1.3-0.9-2.6-1.3-3.9-1.3c-1.8,0-3.1,0.6-4.1,1.8
				c-1,1.2-1.5,3-1.5,5.2c0,2.1,0.5,3.7,1.5,4.9c1,1.2,2.3,1.9,3.9,1.9C34.4,79.1,35.8,78.5,37.1,77.3z"/>
			<linearGradient id="SVGID_2_" gradientUnits="userSpaceOnUse" x1="62.1433" y1="50.222" x2="56.926" y2="83.5456">
				<stop  offset="0" style="stop-color:#FFFFFF"/>
				<stop  offset="1" style="stop-color:#000000"/>
			</linearGradient>
			<path class="st3" d="M55.6,53.7c0-1.1,0.4-2,1.1-2.7c0.8-0.8,1.7-1.1,2.7-1.1c1.1,0,2,0.4,2.8,1.1c0.8,0.8,1.1,1.7,1.1,2.7
				c0,1.1-0.4,2-1.1,2.7c-0.8,0.8-1.7,1.1-2.8,1.1s-2-0.4-2.7-1.1C55.9,55.7,55.6,54.8,55.6,53.7z M63,61v22.4h-7V61H63z"/>
			<linearGradient id="SVGID_3_" gradientUnits="userSpaceOnUse" x1="86.9059" y1="59.6232" x2="81.4218" y2="94.651">
				<stop  offset="0" style="stop-color:#FFFFFF"/>
				<stop  offset="1" style="stop-color:#000000"/>
			</linearGradient>
			<path class="st4" d="M95.7,61v4.7h-3.2c0.7,1.3,1.1,2.5,1.1,3.7c0,1.7-0.6,3.3-1.9,4.8s-3.2,2.3-5.7,2.6c-2.5,0.3-4,0.5-4.3,0.8
				c-0.3,0.2-0.5,0.6-0.5,1s0.2,0.7,0.7,1c0.4,0.2,2.2,0.5,5.2,0.8s5.2,1.1,6.4,2.4c1.2,1.3,1.8,2.8,1.8,4.3c0,2.4-1,4.3-3,5.6
				c-2,1.3-5,1.9-8.8,1.9c-3.9,0-6.9-0.6-8.9-1.8c-2-1.2-3-2.8-3-4.7c0-2.7,2-4.6,6-5.7c-1.8-0.5-2.7-1.5-2.7-2.9
				c0-1.6,1.4-2.8,4.1-3.4c-1.8-0.3-3.3-1.1-4.5-2.4s-1.8-2.8-1.8-4.5c0-2.1,0.9-4,2.6-5.7c1.7-1.6,4.2-2.5,7.4-2.5
				C82.7,61,95.7,61,95.7,61z M83.6,90.4c1.5,0,2.7-0.3,3.7-0.8c0.9-0.6,1.4-1.2,1.4-2c0-1.6-1.8-2.5-5.5-2.5c-1.7,0-3,0.2-3.9,0.7
				s-1.4,1.1-1.4,1.9C77.8,89.5,79.8,90.4,83.6,90.4z M83,65.2c-1.1,0-2.1,0.4-2.9,1.2c-0.8,0.8-1.2,1.8-1.2,2.9s0.4,2,1.2,2.8
				c0.8,0.8,1.8,1.2,2.9,1.2s2-0.4,2.8-1.3c0.8-0.8,1.2-1.8,1.2-3c0-1.1-0.4-2-1.1-2.7C85.1,65.6,84.2,65.2,83,65.2z"/>
			<linearGradient id="SVGID_4_" gradientUnits="userSpaceOnUse" x1="110.4435" y1="50.2213" x2="105.2261" y2="83.5449">
				<stop  offset="0" style="stop-color:#FFFFFF"/>
				<stop  offset="1" style="stop-color:#000000"/>
			</linearGradient>
			<path class="st5" d="M103.9,53.7c0-1.1,0.4-2,1.1-2.7c0.8-0.8,1.7-1.1,2.7-1.1c1.1,0,2,0.4,2.8,1.1c0.8,0.8,1.1,1.7,1.1,2.7
				c0,1.1-0.4,2-1.1,2.7c-0.8,0.8-1.7,1.1-2.8,1.1c-1.1,0-2-0.4-2.7-1.1C104.2,55.7,103.9,54.8,103.9,53.7z M111.3,61v22.4h-7V61
				H111.3z"/>
		</g>
		<g>
			<linearGradient id="SVGID_5_" gradientUnits="userSpaceOnUse" x1="49.0365" y1="110.4016" x2="45.4197" y2="133.502">
				<stop  offset="0" style="stop-color:#FFFFFF"/>
				<stop  offset="1" style="stop-color:#000000"/>
			</linearGradient>
			<path class="st6" d="M39.9,110.6h9.8c2.2,0,4,0.6,5.3,1.9s2,2.8,2,4.6c0,1.8-0.6,3.4-1.9,4.7c-1.3,1.3-3.1,2-5.3,2h-4.4v8.8h-5.5
				C39.9,132.6,39.9,110.6,39.9,110.6z M45.4,114.7v5.1H48c2.3,0,3.4-0.9,3.4-2.6c0-1-0.3-1.6-0.9-2c-0.6-0.4-1.6-0.6-3.1-0.6
				L45.4,114.7L45.4,114.7z"/>
		</g>
		<g>
			<linearGradient id="SVGID_6_" gradientUnits="userSpaceOnUse" x1="104.9218" y1="110.7449" x2="101.196" y2="134.5414">
				<stop  offset="0" style="stop-color:#FFFFFF"/>
				<stop  offset="1" style="stop-color:#000000"/>
			</linearGradient>
			<path class="st7" d="M104.2,110.6l9.8,22h-5.9l-1.8-4.3h-9.9l-1.6,4.3H89l8.9-22C97.9,110.6,104.2,110.6,104.2,110.6z
				 M104.7,124.4l-3.6-8.6l-3.2,8.6H104.7z"/>
		</g>
		<g>
			<linearGradient id="SVGID_7_" gradientUnits="userSpaceOnUse" x1="156.2063" y1="111.3405" x2="152.7126" y2="133.6546">
				<stop  offset="0" style="stop-color:#FFFFFF"/>
				<stop  offset="1" style="stop-color:#000000"/>
			</linearGradient>
			<path class="st8" d="M163,128.6v4h-16.8v-22h5.5v18H163z"/>
		</g>
		<linearGradient id="SVGID_8_" gradientUnits="userSpaceOnUse" x1="105.7327" y1="80.6173" x2="90.1659" y2="180.0431">
			<stop  offset="0" style="stop-color:#FFFFFF"/>
			<stop  offset="1" style="stop-color:#000000"/>
		</linearGradient>
		<path class="st9" d="M126.4,130.8l1-8.9c0-0.3-0.2-0.5-0.4-0.6l-4.1-0.5c-0.2,0-0.4-0.2-0.4-0.4c-0.3-2.6-1.1-5.1-2.2-7.4
			c-0.1-0.2-0.1-0.5,0.1-0.6l3.2-2.7c0.2-0.2,0.2-0.5,0.1-0.7l-5.8-6.9c-0.2-0.2-0.5-0.2-0.7-0.1l-3.2,2.7c-0.2,0.1-0.4,0.2-0.6,0
			c-1.6-1.2-3.4-2.2-5.3-2.9c-0.2-0.1-0.3-0.3-0.3-0.5l0.6-4.1c0-0.3-0.2-0.5-0.4-0.6l-8.9-1.2c-0.3,0-0.5,0.2-0.6,0.4l-0.6,4.1
			c0,0.2-0.2,0.4-0.4,0.4c-2,0.2-3.9,0.6-5.7,1.3c-0.2,0.1-0.5,0-0.6-0.2l-2.3-3.5c-0.2-0.2-0.5-0.3-0.7-0.1l-7.5,5
			c-0.2,0.2-0.3,0.5-0.1,0.7l2.3,3.5c0.1,0.2,0.1,0.4,0,0.6c-2.1,2.2-3.7,4.9-4.7,7.8c-0.1,0.2-0.3,0.4-0.5,0.3l-4.1-0.5
			c-0.3,0-0.5,0.2-0.6,0.4l-1,8.9c0,0.3,0.2,0.5,0.4,0.6l4.1,0.5c0.2,0,0.4,0.2,0.4,0.4c0.3,2.6,1.1,5.1,2.2,7.4
			c0.1,0.2,0.1,0.5-0.1,0.6l-3.2,2.7c-0.2,0.2-0.2,0.5-0.1,0.7l5.8,6.9c0.2,0.2,0.5,0.2,0.7,0.1l3.2-2.7c0.2-0.1,0.4-0.2,0.6,0
			c1.6,1.2,3.4,2.2,5.3,2.9c0.2,0.1,0.3,0.3,0.3,0.5l-0.6,4.1c0,0.3,0.2,0.5,0.4,0.6l8.9,1.2c0.3,0,0.5-0.2,0.6-0.4l0.6-4.1
			c0-0.2,0.2-0.4,0.4-0.4c2-0.2,3.9-0.6,5.7-1.3c0.2-0.1,0.5,0,0.6,0.2l2.3,3.5c0.2,0.2,0.5,0.3,0.7,0.1l7.5-5
			c0.2-0.2,0.3-0.5,0.1-0.7l-2.3-3.5c-0.1-0.2-0.1-0.4,0-0.6c2.1-2.2,3.7-4.9,4.7-7.8c0.1-0.2,0.3-0.4,0.5-0.3l4.1,0.5
			C126.1,131.2,126.4,131,126.4,130.8z M101.4,141.2c-11.4,1.1-20.9-8.4-19.7-19.7c0.8-8.4,7.6-15.2,16.1-16.1
			c11.4-1.1,20.9,8.4,19.7,19.7C116.6,133.6,109.8,140.4,101.4,141.2z M176.2,136.1l2.8-8.6c0.1-0.3-0.1-0.5-0.3-0.6l-4-1.3
			c-0.2-0.1-0.4-0.3-0.3-0.5c0.2-2.6,0-5.2-0.7-7.7c-0.1-0.2,0-0.5,0.2-0.6l3.7-2c0.2-0.1,0.3-0.4,0.2-0.7l-4.3-7.9
			c-0.1-0.2-0.4-0.3-0.7-0.2l-3.7,2c-0.2,0.1-0.4,0.1-0.6-0.1c-1.3-1.5-2.9-2.8-4.6-3.9c-0.2-0.1-0.3-0.4-0.2-0.6l1.4-3.9
			c0.1-0.3,0-0.5-0.3-0.6l-8.5-3c-0.3-0.1-0.5,0-0.6,0.3l-1.4,3.9c-0.1,0.2-0.3,0.3-0.5,0.3c-2-0.2-3.9-0.2-5.8,0.1
			c-0.2,0-0.4-0.1-0.5-0.3l-1.6-3.9c-0.1-0.3-0.4-0.4-0.7-0.3l-8.3,3.4c-0.3,0.1-0.4,0.4-0.3,0.7l1.6,3.9c0.1,0.2,0,0.5-0.2,0.6
			c-2.5,1.8-4.6,4-6.2,6.7c-0.1,0.2-0.4,0.3-0.6,0.2l-4-1.3c-0.3-0.1-0.5,0.1-0.6,0.3l-2.8,8.6c-0.1,0.3,0.1,0.5,0.3,0.6l4,1.3
			c0.2,0.1,0.4,0.3,0.3,0.5c-0.2,2.6,0,5.2,0.7,7.7c0.1,0.2,0,0.5-0.2,0.6l-3.7,2c-0.2,0.1-0.3,0.4-0.2,0.7l4.3,7.9
			c0.1,0.2,0.4,0.3,0.7,0.2l3.7-2c0.2-0.1,0.4-0.1,0.6,0.1c1.3,1.5,2.9,2.8,4.6,3.9c0.2,0.1,0.3,0.4,0.2,0.6l-1.4,3.9
			c-0.1,0.3,0,0.5,0.3,0.6l8.5,3c0.3,0.1,0.5,0,0.6-0.3l1.4-3.9c0.1-0.2,0.3-0.3,0.5-0.3c2,0.2,3.9,0.2,5.8-0.1
			c0.2,0,0.4,0.1,0.5,0.3l1.6,3.9c0.1,0.3,0.4,0.4,0.7,0.3l8.3-3.4c0.3-0.1,0.4-0.4,0.3-0.7l-1.6-3.9c-0.1-0.2,0-0.5,0.2-0.6
			c2.5-1.8,4.6-4,6.2-6.7c0.1-0.2,0.4-0.3,0.6-0.2l4,1.3C175.8,136.5,176.1,136.3,176.2,136.1z M149.6,141.2
			c-11.4-1.2-18.7-12.4-15.3-23.4c2.5-8.1,10.6-13.4,19-12.5c11.4,1.2,18.7,12.4,15.3,23.4C166.1,136.8,158,142.1,149.6,141.2z
			 M71.5,136.1l2.8-8.6c0.1-0.3-0.1-0.5-0.3-0.6l-4-1.3c-0.2-0.1-0.4-0.3-0.3-0.5c0.2-2.6,0-5.2-0.7-7.7c-0.1-0.2,0-0.5,0.2-0.6
			l3.7-2c0.2-0.1,0.3-0.4,0.2-0.7l-4.3-7.9c-0.1-0.2-0.4-0.3-0.7-0.2l-3.7,2c-0.2,0.1-0.4,0.1-0.6-0.1c-1.3-1.5-2.9-2.8-4.6-3.9
			c-0.2-0.1-0.3-0.4-0.2-0.6l1.4-3.9c0.1-0.3,0-0.5-0.3-0.6l-8.5-3c-0.3-0.1-0.5,0-0.6,0.3l-1.4,3.9c-0.1,0.2-0.3,0.3-0.5,0.3
			c-2-0.2-3.9-0.2-5.8,0.1c-0.2,0-0.4-0.1-0.5-0.3l-1.6-3.9c-0.1-0.3-0.4-0.4-0.7-0.3l-8.3,3.4c-0.3,0.1-0.4,0.4-0.3,0.7l1.6,3.9
			c0.1,0.2,0,0.5-0.2,0.6c-2.5,1.8-4.6,4-6.2,6.7c-0.1,0.2-0.4,0.3-0.6,0.2l-4-1.3c-0.3-0.1-0.5,0.1-0.6,0.3l-2.8,8.6
			c-0.1,0.3,0.1,0.5,0.3,0.6l4,1.3c0.2,0.1,0.4,0.3,0.3,0.5c-0.2,2.6,0,5.2,0.7,7.7c0.1,0.2,0,0.5-0.2,0.6l-3.7,2
			c-0.2,0.1-0.3,0.4-0.2,0.7l4.3,7.9c0.1,0.2,0.4,0.3,0.7,0.2l3.7-2c0.2-0.1,0.4-0.1,0.6,0.1c1.3,1.5,2.9,2.8,4.6,3.9
			c0.2,0.1,0.3,0.4,0.2,0.6l-1.4,3.9c-0.1,0.3,0,0.5,0.3,0.6l8.5,3c0.3,0.1,0.5,0,0.6-0.3l1.4-3.9c0.1-0.2,0.3-0.3,0.5-0.3
			c2,0.2,3.9,0.2,5.8-0.1c0.2,0,0.4,0.1,0.5,0.3l1.6,3.9c0.1,0.3,0.4,0.4,0.7,0.3l8.3-3.4c0.3-0.1,0.4-0.4,0.3-0.7l-1.6-3.9
			c-0.1-0.2,0-0.5,0.2-0.6c2.5-1.8,4.6-4,6.2-6.7c0.1-0.2,0.4-0.3,0.6-0.2l4,1.3C71.2,136.5,71.5,136.3,71.5,136.1z M44.9,141.2
			c-11.4-1.2-18.7-12.4-15.3-23.4c2.5-8.1,10.6-13.4,19-12.5c11.4,1.2,18.7,12.4,15.3,23.4C61.4,136.8,53.3,142.1,44.9,141.2z"/>
		<path class="st10" d="M128.2,129.2l1-8.9c0-0.3-0.2-0.5-0.4-0.6l-4.1-0.5c-0.2,0-0.4-0.2-0.4-0.4c-0.3-2.6-1.1-5.1-2.2-7.4
			c-0.1-0.2-0.1-0.5,0.1-0.6l3.2-2.7c0.2-0.2,0.2-0.5,0.1-0.7l-5.8-6.9c-0.2-0.2-0.5-0.2-0.7-0.1l-3.2,2.7c-0.2,0.1-0.4,0.2-0.6,0
			c-1.6-1.2-3.4-2.2-5.3-2.9c-0.2-0.1-0.3-0.3-0.3-0.5l0.6-4.1c0-0.3-0.2-0.5-0.4-0.6l-8.9-1.2c-0.3,0-0.5,0.2-0.6,0.4l-0.6,4.1
			c0,0.2-0.2,0.4-0.4,0.4c-2,0.2-3.9,0.6-5.7,1.3c-0.2,0.1-0.5,0-0.6-0.2l-2.3-3.5c-0.2-0.2-0.5-0.3-0.7-0.1l-7.5,5
			c-0.2,0.2-0.3,0.5-0.1,0.7l2.3,3.5c0.1,0.2,0.1,0.4,0,0.6c-2.1,2.2-3.7,4.9-4.7,7.8c-0.1,0.2-0.3,0.4-0.5,0.3l-4.1-0.5
			c-0.3,0-0.5,0.2-0.6,0.4l-1,8.9c0,0.3,0.2,0.5,0.4,0.6l4.1,0.5c0.2,0,0.4,0.2,0.4,0.4c0.3,2.6,1.1,5.1,2.2,7.4
			c0.1,0.2,0.1,0.5-0.1,0.6l-3.2,2.7c-0.2,0.2-0.2,0.5-0.1,0.7l5.8,6.9c0.2,0.2,0.5,0.2,0.7,0.1l3.2-2.7c0.2-0.1,0.4-0.2,0.6,0
			c1.6,1.2,3.4,2.2,5.3,2.9c0.2,0.1,0.3,0.3,0.3,0.5l-0.6,4.1c0,0.3,0.2,0.5,0.4,0.6l8.9,1.2c0.3,0,0.5-0.2,0.6-0.4l0.6-4.1
			c0-0.2,0.2-0.4,0.4-0.4c2-0.2,3.9-0.6,5.7-1.3c0.2-0.1,0.5,0,0.6,0.2l2.3,3.5c0.2,0.2,0.5,0.3,0.7,0.1l7.5-5
			c0.2-0.2,0.3-0.5,0.1-0.7l-2.3-3.5c-0.1-0.2-0.1-0.4,0-0.6c2.1-2.2,3.7-4.9,4.7-7.8c0.1-0.2,0.3-0.4,0.5-0.3l4.1,0.5
			C127.9,129.7,128.2,129.5,128.2,129.2z M103.2,139.7c-11.4,1.1-20.9-8.4-19.7-19.7c0.8-8.4,7.6-15.2,16.1-16.1
			c11.4-1.1,20.9,8.4,19.7,19.7C118.4,132,111.6,138.9,103.2,139.7z M178,134.6l2.8-8.6c0.1-0.3-0.1-0.5-0.3-0.6l-4-1.3
			c-0.2-0.1-0.4-0.3-0.3-0.5c0.2-2.6,0-5.2-0.7-7.7c-0.1-0.2,0-0.5,0.2-0.6l3.7-2c0.2-0.1,0.3-0.4,0.2-0.7l-4.3-7.9
			c-0.1-0.2-0.4-0.3-0.7-0.2l-3.7,2c-0.2,0.1-0.4,0.1-0.6-0.1c-1.3-1.5-2.9-2.8-4.6-3.9c-0.2-0.1-0.3-0.4-0.2-0.6l1.4-3.9
			c0.1-0.3,0-0.5-0.3-0.6l-8.5-3c-0.3-0.1-0.5,0-0.6,0.3l-1.4,3.9c-0.1,0.2-0.3,0.3-0.5,0.3c-2-0.2-3.9-0.2-5.8,0.1
			c-0.2,0-0.4-0.1-0.5-0.3l-1.6-3.9c-0.1-0.3-0.4-0.4-0.7-0.3l-8.3,3.4c-0.3,0.1-0.4,0.4-0.3,0.7l1.6,3.9c0.1,0.2,0,0.5-0.2,0.6
			c-2.5,1.8-4.6,4-6.2,6.7c-0.1,0.2-0.4,0.3-0.6,0.2l-4-1.3c-0.3-0.1-0.5,0.1-0.6,0.3l-2.8,8.6c-0.1,0.3,0.1,0.5,0.3,0.6l4,1.3
			c0.2,0.1,0.4,0.3,0.3,0.5c-0.2,2.6,0,5.2,0.7,7.7c0.1,0.2,0,0.5-0.2,0.6l-3.7,2c-0.2,0.1-0.3,0.4-0.2,0.7l4.3,7.9
			c0.1,0.2,0.4,0.3,0.7,0.2l3.7-2c0.2-0.1,0.4-0.1,0.6,0.1c1.3,1.5,2.9,2.8,4.6,3.9c0.2,0.1,0.3,0.4,0.2,0.6l-1.4,3.9
			c-0.1,0.3,0,0.5,0.3,0.6l8.5,3c0.3,0.1,0.5,0,0.6-0.3l1.4-3.9c0.1-0.2,0.3-0.3,0.5-0.3c2,0.2,3.9,0.2,5.8-0.1
			c0.2,0,0.4,0.1,0.5,0.3l1.6,3.9c0.1,0.3,0.4,0.4,0.7,0.3l8.3-3.4c0.3-0.1,0.4-0.4,0.3-0.7l-1.6-3.9c-0.1-0.2,0-0.5,0.2-0.6
			c2.5-1.8,4.6-4,6.2-6.7c0.1-0.2,0.4-0.3,0.6-0.2l4,1.3C177.6,135,177.9,134.8,178,134.6z M151.4,139.7
			c-11.4-1.2-18.7-12.4-15.3-23.4c2.5-8.1,10.6-13.4,19-12.5c11.4,1.2,18.7,12.4,15.3,23.4C167.8,135.3,159.8,140.6,151.4,139.7z
			 M73.3,134.6l2.8-8.6c0.1-0.3-0.1-0.5-0.3-0.6l-4-1.3c-0.2-0.1-0.4-0.3-0.3-0.5c0.2-2.6,0-5.2-0.7-7.7c-0.1-0.2,0-0.5,0.2-0.6
			l3.7-2c0.2-0.1,0.3-0.4,0.2-0.7l-4.3-7.9c-0.1-0.2-0.4-0.3-0.7-0.2l-3.7,2c-0.2,0.1-0.4,0.1-0.6-0.1c-1.3-1.5-2.9-2.8-4.6-3.9
			c-0.2-0.1-0.3-0.4-0.2-0.6l1.4-3.9c0.1-0.3,0-0.5-0.3-0.6l-8.5-3c-0.3-0.1-0.5,0-0.6,0.3l-1.4,3.9c-0.1,0.2-0.3,0.3-0.5,0.3
			c-2-0.2-3.9-0.2-5.8,0.1c-0.2,0-0.4-0.1-0.5-0.3L43,94.8c-0.1-0.3-0.4-0.4-0.7-0.3L34.1,98c-0.3,0.1-0.4,0.4-0.3,0.7l1.6,3.9
			c0.1,0.2,0,0.5-0.2,0.6c-2.5,1.8-4.6,4-6.2,6.7c-0.1,0.2-0.4,0.3-0.6,0.2l-4-1.3c-0.3-0.1-0.5,0.1-0.6,0.3l-2.8,8.6
			c-0.1,0.3,0.1,0.5,0.3,0.6l4,1.3c0.2,0.1,0.4,0.3,0.3,0.5c-0.2,2.6,0,5.2,0.7,7.7c0.1,0.2,0,0.5-0.2,0.6l-3.7,2
			c-0.2,0.1-0.3,0.4-0.2,0.7l4.3,7.9c0.1,0.2,0.4,0.3,0.7,0.2l3.7-2c0.2-0.1,0.4-0.1,0.6,0.1c1.3,1.5,2.9,2.8,4.6,3.9
			c0.2,0.1,0.3,0.4,0.2,0.6l-1.4,3.9c-0.1,0.3,0,0.5,0.3,0.6l8.5,3c0.3,0.1,0.5,0,0.6-0.3l1.4-3.9c0.1-0.2,0.3-0.3,0.5-0.3
			c2,0.2,3.9,0.2,5.8-0.1c0.2,0,0.4,0.1,0.5,0.3l1.6,3.9c0.1,0.3,0.4,0.4,0.7,0.3l8.3-3.4c0.3-0.1,0.4-0.4,0.3-0.7l-1.6-3.9
			c-0.1-0.2,0-0.5,0.2-0.6c2.5-1.8,4.6-4,6.2-6.7c0.1-0.2,0.4-0.3,0.6-0.2l4,1.3C73,135,73.2,134.8,73.3,134.6z M46.7,139.7
			c-11.4-1.2-18.7-12.4-15.3-23.4c2.5-8.1,10.6-13.4,19-12.5c11.4,1.2,18.7,12.4,15.3,23.4C63.2,135.3,55.1,140.6,46.7,139.7z"/>
		<g>
			<path class="st10" d="M46.1,49.3v33.1h-7v-1.8c-1.8,1.5-3.9,2.2-6.2,2.2c-3,0-5.5-1.1-7.5-3.3c-2-2.2-3-5-3-8.3
				c0-3.4,1-6.2,3-8.4c2-2.2,4.6-3.3,7.8-3.3c2,0,3.9,0.5,5.8,1.4V49.3H46.1z M39.1,76.3V65.6c-1.3-0.9-2.6-1.3-3.9-1.3
				c-1.8,0-3.1,0.6-4.1,1.8c-1,1.2-1.5,3-1.5,5.2c0,2.1,0.5,3.7,1.5,4.9c1,1.2,2.3,1.9,3.9,1.9C36.4,78.1,37.8,77.5,39.1,76.3z"/>
			<path class="st10" d="M57.6,52.7c0-1.1,0.4-2,1.1-2.7c0.8-0.8,1.7-1.1,2.7-1.1c1.1,0,2,0.4,2.8,1.1c0.8,0.8,1.1,1.7,1.1,2.7
				c0,1.1-0.4,2-1.1,2.7c-0.8,0.8-1.7,1.1-2.8,1.1s-2-0.4-2.7-1.1C57.9,54.7,57.6,53.8,57.6,52.7z M65,60v22.4h-7V60H65z"/>
			<path class="st10" d="M97.7,60v4.7h-3.2c0.7,1.3,1.1,2.5,1.1,3.7c0,1.7-0.6,3.3-1.9,4.8s-3.2,2.3-5.7,2.6c-2.5,0.3-4,0.5-4.3,0.8
				c-0.3,0.2-0.5,0.6-0.5,1s0.2,0.7,0.7,1c0.4,0.2,2.2,0.5,5.2,0.8s5.2,1.1,6.4,2.4c1.2,1.3,1.8,2.8,1.8,4.3c0,2.4-1,4.3-3,5.6
				c-2,1.3-5,1.9-8.8,1.9c-3.9,0-6.9-0.6-8.9-1.8c-2-1.2-3-2.8-3-4.7c0-2.7,2-4.6,6-5.7c-1.8-0.5-2.7-1.5-2.7-2.9
				c0-1.6,1.4-2.8,4.1-3.4c-1.8-0.3-3.3-1.1-4.5-2.4s-1.8-2.8-1.8-4.5c0-2.1,0.9-4,2.6-5.7c1.7-1.6,4.2-2.5,7.4-2.5
				C84.7,60,97.7,60,97.7,60z M85.6,89.4c1.5,0,2.7-0.3,3.7-0.8c0.9-0.6,1.4-1.2,1.4-2c0-1.6-1.8-2.5-5.5-2.5c-1.7,0-3,0.2-3.9,0.7
				s-1.4,1.1-1.4,1.9C79.8,88.5,81.8,89.4,85.6,89.4z M85,64.2c-1.1,0-2.1,0.4-2.9,1.2c-0.8,0.8-1.2,1.8-1.2,2.9s0.4,2,1.2,2.8
				c0.8,0.8,1.8,1.2,2.9,1.2s2-0.4,2.8-1.3c0.8-0.8,1.2-1.8,1.2-3c0-1.1-0.4-2-1.1-2.7C87.1,64.6,86.2,64.2,85,64.2z"/>
			<path class="st10" d="M105.9,52.7c0-1.1,0.4-2,1.1-2.7c0.8-0.8,1.7-1.1,2.7-1.1c1.1,0,2,0.4,2.8,1.1c0.8,0.8,1.1,1.7,1.1,2.7
				c0,1.1-0.4,2-1.1,2.7c-0.8,0.8-1.7,1.1-2.8,1.1c-1.1,0-2-0.4-2.7-1.1C106.2,54.7,105.9,53.8,105.9,52.7z M113.3,60v22.4h-7V60
				H113.3z"/>
		</g>
		<g>
			<path class="st10" d="M40.9,109.6h9.8c2.2,0,4,0.6,5.3,1.9s2,2.8,2,4.6c0,1.8-0.6,3.4-1.9,4.7c-1.3,1.3-3.1,2-5.3,2h-4.4v8.8
				h-5.5C40.9,131.6,40.9,109.6,40.9,109.6z M46.4,113.7v5.1H49c2.3,0,3.4-0.9,3.4-2.6c0-1-0.3-1.6-0.9-2c-0.6-0.4-1.6-0.6-3.1-0.6
				L46.4,113.7L46.4,113.7z"/>
		</g>
		<g>
			<path class="st10" d="M105.2,109.6l9.8,22h-5.9l-1.8-4.3h-9.9l-1.6,4.3H90l8.9-22C98.9,109.6,105.2,109.6,105.2,109.6z
				 M105.7,123.4l-3.6-8.6l-3.2,8.6H105.7z"/>
		</g>
		<g>
			<path class="st10" d="M164,127.6v4h-16.8v-22h5.5v18C152.7,127.6,164,127.6,164,127.6z"/>
		</g>
	</g>
</g>
<g id="truchat">
	<g id="truchat_1_">
		<linearGradient id="SVGID_9_" gradientUnits="userSpaceOnUse" x1="37.1001" y1="99.6816" x2="165" y2="99.6816">
			<stop  offset="0" style="stop-color:#000000"/>
			<stop  offset="1" style="stop-color:#000000"/>
		</linearGradient>
		<path class="st11" d="M54.1,163.9c-0.9,0-1.8-0.3-2.6-0.8c-1.6-1-1.7-3.1-1.4-4.5l0-0.1l0.3-0.8l0.1-0.2c2.7-3.9,8-14.1,5.8-19.2
			c-0.5-1.2-1.7-2.9-6-3.7h-0.1l-0.2,0c-1.3-0.2-2.3-0.9-2.9-2c-0.6-1-0.7-2.3-0.2-3.4c0.5-1.5,2-2.5,3.7-2.5c0.2,0,0.4,0,0.6,0
			l0.2,0c0.8,0.1,1.9,0.2,3.3,0.2c-0.8-1.4-1.2-3-1.2-4.7c0-5.2,4.2-9.6,9.4-9.9c0.2,0,0.3,0,0.5,0c3.6,0,6.8,1.9,8.5,4.9
			c0.5-0.9,1-1.6,1.2-2l0.1-0.1c0.4-0.6,0.8-1,1.4-1.4c-1.7-1.1-2.8-2.9-2.8-5c0-2.4,1.5-4.5,3.7-5.5c-0.3-0.9-0.5-1.9-0.5-2.9
			c0-0.4,0-0.8,0.1-1.2c-1.6-0.3-3.2-0.7-4.9-1.3h-1c-17.7,0-32.1-10.9-32.1-24.2c0-8.3,5.7-16.1,14.8-20.4
			c5.4-10.8,16.6-17.7,28.6-17.7c6.4,0,12.7,1.9,17.9,5.5c4.3-1.9,8.8-2.8,13.4-2.8c3.4,0,6.6,0.5,9.7,1.5c3.7-1.5,7.7-2.3,11.7-2.3
			C150.7,37.6,165,52,165,69.5c0,17.5-14.3,31.8-31.9,31.8c-1.4,0-2.7-0.1-3.9-0.2c-0.5,0.3-0.9,0.5-1.3,0.8
			c-0.1,0.9-0.2,1.7-0.5,2.5c1.9,1.1,3.1,3,3.1,5.2c0,0.9-0.2,1.8-0.6,2.6c0.6,0.5,1.1,1.1,1.4,1.9c0,0,0.3,0.8,0.3,0.9
			c1.8-1.8,4.2-2.9,6.8-2.9c0.3,0,0.7,0,1.1,0.1c4.4,0.5,7.8,3.9,8.5,8.2c0.4,2.7-0.3,5.3-1.9,7.3c1.3,0.3,2.7,0.5,3.8,0.6
			c2.2,0.4,3.7,2.4,3.5,4.5c-0.2,2.1-1.8,3.7-3.8,3.9c-3.7,0.5-7,1.6-7.9,2.5c-0.1,0.1-0.1,0.2-0.1,0.5c0.5,3.9,3.3,11,5.8,16.3
			c0.9,1.8,0.3,4-1.4,5.3l-0.1,0.1c-0.7,0.5-1.5,0.7-2.4,0.7c-1.3,0-2.4-0.5-3.2-1.5c-4-4.5-7-7.3-8.2-8.2c-1.5,1-5.4,4.1-10.3,8.5
			c-0.8,0.9-1.9,1.4-3,1.4c-0.9,0-1.8-0.3-2.6-0.9c-1.7-1.3-2.1-3.8-0.9-5.6c4.8-8.1,8.2-14.7,8.9-17.8c0.8-3.5-0.1-15.1-1-22.3
			c0,0,0,0,0-0.1c-3-0.1-5.4-1.8-6.3-4.2c-0.6,0.1-1.1,0.1-1.8,0.1c-5.5,0-10.3-2.8-12.1-6.8c-0.2-0.1-0.5-0.1-0.7-0.2
			c-0.8,0.2-1.7,0.3-2.7,0.4c-2.2,3.5-6.6,5.7-11.6,5.7c-0.8,0-1.6-0.1-2.4-0.2c-0.7,2.2-2.8,3.8-5.3,4.2c0.7,0.9,1,2,0.8,3.2
			c-1.2,6.8-3.6,16.8-8.1,26c-3.1,6.6-6.5,13.1-9.2,17.1c-1,1.5-2.6,2.3-4.3,2.3c-0.7,0-1.4-0.1-2-0.4l-0.4-0.2
			C56.3,163.4,55.2,163.9,54.1,163.9z"/>
		<path class="st10" d="M63.5,128.2c-3.3,0-5.9-2.6-5.9-5.9s2.6-5.9,5.9-5.9s5.9,2.6,5.9,5.9S66.8,128.2,63.5,128.2z M67.5,128.2
			c-4.8,3.7-13.7,2.8-16.5,2.4c20.7,3.5,3,29.1,3,29.1s-0.4,1.1,0.4,0.3c0.8-0.8,6.9-8.9,7-9.1c-0.1,0.1-0.3,0.6-0.9,4.3
			c-0.7,4.1-1.5,4.7-1.5,4.7s0.3,0.2,0.4,0.1c1.4-1.5,5.1-7.1,10-17.7c6.1-12.6,7.9-26,7.9-26S73.3,123.9,67.5,128.2z M51,130.6
			c-0.3,0-0.6-0.1-0.9-0.1C50.1,130.5,50.4,130.6,51,130.6z M133.2,41.4c-4.1,0-8,0.9-11.5,2.5c-3.1-1.1-6.4-1.7-9.9-1.7
			c-5,0-9.7,1.2-13.8,3.4c-4.8-3.8-10.9-6.1-17.5-6.1c-11.4,0-21.2,6.9-25.6,16.7c-8.3,3.5-13.8,10-13.8,17.4
			c0,11.2,12.6,20.2,28.1,20.2c0.5,0,1.1,0,1.6,0c3,1.1,6.3,1.7,9.7,1.7c0.4,0,0.9,0,1.4,0c-1.8,1.2-2.9,2.9-2.9,4.8
			c0,3.5,4,6.4,8.9,6.4c4.6,0,8.3-2.5,8.9-5.6h0.1c1.9,0,3.7-0.2,5.4-0.7c1.3,0.4,2.6,0.8,3.9,1c0.2,3.5,4.1,6.2,8.9,6.2
			c4.9,0,8.9-2.8,8.9-6.4c0-0.6-0.1-1.2-0.3-1.7c1.6-0.7,3.2-1.6,4.7-2.6c1.5,0.3,3.1,0.4,4.7,0.4c15.4,0,27.9-12.4,27.9-27.8
			S148.5,41.6,133.2,41.4z M126.5,109.5c0-1.2-1.3-2.2-3-2.2s-3,1-3,2.2s1.3,2.2,3,2.2S126.5,110.7,126.5,109.5z M78.8,106.5
			c-1.7,0-3,1-3,2.2s1.3,2.2,3,2.2s3-1,3-2.2S80.5,106.5,78.8,106.5z M138.4,127.2c3.1,0,5.6-2.5,5.6-5.6s-2.5-5.6-5.6-5.6
			s-5.6,2.5-5.6,5.6C132.8,124.7,135.3,127.2,138.4,127.2z M149.5,132.6c0,0-11-2.1-15.3-5.4c-4.2-3.3-7.1-13.1-7.1-13.1
			s2.5,18.8,1,24.9c-1.5,6.1-9.3,19.4-9.3,19.4s9.9-9.5,13.1-10s12.1,10,12.1,10s-5.6-11.3-6.4-18.1
			C136.8,133.4,149.5,132.6,149.5,132.6z"/>
		<path class="st10" d="M63.5,128.2c-3.3,0-5.9-2.6-5.9-5.9s2.6-5.9,5.9-5.9s5.9,2.6,5.9,5.9S66.8,128.2,63.5,128.2z M67.5,128.2
			c-4.8,3.7-13.7,2.8-16.5,2.4c20.7,3.5,3,29.1,3,29.1s-0.4,1.1,0.4,0.3c0.8-0.8,6.9-8.9,7-9.1c-0.1,0.1-0.3,0.6-0.9,4.3
			c-0.7,4.1-1.5,4.7-1.5,4.7s0.3,0.2,0.4,0.1c1.4-1.5,5.1-7.1,10-17.7c6.1-12.6,7.9-26,7.9-26S73.3,123.9,67.5,128.2z M51,130.6
			c-0.3,0-0.6-0.1-0.9-0.1C50.1,130.5,50.4,130.6,51,130.6z M133.2,41.4c-4.1,0-8,0.9-11.5,2.5c-3.1-1.1-6.4-1.7-9.9-1.7
			c-5,0-9.7,1.2-13.8,3.4c-4.8-3.8-10.9-6.1-17.5-6.1c-11.4,0-21.2,6.9-25.6,16.7c-8.3,3.5-13.8,10-13.8,17.4
			c0,11.2,12.6,20.2,28.1,20.2c0.5,0,1.1,0,1.6,0c3,1.1,6.3,1.7,9.7,1.7c0.4,0,0.9,0,1.4,0c-1.8,1.2-2.9,2.9-2.9,4.8
			c0,3.5,4,6.4,8.9,6.4c4.6,0,8.3-2.5,8.9-5.6h0.1c1.9,0,3.7-0.2,5.4-0.7c1.3,0.4,2.6,0.8,3.9,1c0.2,3.5,4.1,6.2,8.9,6.2
			c4.9,0,8.9-2.8,8.9-6.4c0-0.6-0.1-1.2-0.3-1.7c1.6-0.7,3.2-1.6,4.7-2.6c1.5,0.3,3.1,0.4,4.7,0.4c15.4,0,27.9-12.4,27.9-27.8
			S148.5,41.6,133.2,41.4z M126.5,109.5c0-1.2-1.3-2.2-3-2.2s-3,1-3,2.2s1.3,2.2,3,2.2S126.5,110.7,126.5,109.5z M78.8,106.5
			c-1.7,0-3,1-3,2.2s1.3,2.2,3,2.2s3-1,3-2.2S80.5,106.5,78.8,106.5z M138.4,127.2c3.1,0,5.6-2.5,5.6-5.6s-2.5-5.6-5.6-5.6
			s-5.6,2.5-5.6,5.6C132.8,124.7,135.3,127.2,138.4,127.2z M149.5,132.6c0,0-11-2.1-15.3-5.4c-4.2-3.3-7.1-13.1-7.1-13.1
			s2.5,18.8,1,24.9c-1.5,6.1-9.3,19.4-9.3,19.4s9.9-9.5,13.1-10s12.1,10,12.1,10s-5.6-11.3-6.4-18.1
			C136.8,133.4,149.5,132.6,149.5,132.6z"/>
		<g>
			<path class="st12" d="M51.4,63.1h13.9v4.1h-4.6v18.4h-5.1V67.5h-4.5v-4.3C51.2,63.1,51.4,63.1,51.4,63.1z"/>
			<path class="st12" d="M65.8,69.1h4v4c0.7-2.8,2.1-4.1,3.9-4.1c0.2,0,0.5,0,0.7,0.1v4.5c-0.3,0-0.6-0.1-0.7-0.1
				c-2.2,0-3.4,1.7-3.4,5.2v7h-4.6L65.8,69.1L65.8,69.1z"/>
			<path class="st12" d="M75.9,69.1h4.6v10.7c0,1.1,0.1,1.8,0.2,2.1c0.1,0.3,0.6,0.5,1.4,0.5c0.6,0,1.1-0.1,1.4-0.3
				c0.2-0.2,0.5-0.6,0.5-1.3c0.1-0.5,0.1-1.6,0.1-3.2v-8.5h4.6v16.4h-4.3v-2.1c-0.6,1.3-1.4,1.8-2,2.1c-0.6,0.2-1.5,0.5-2.3,0.5
				c-1.3,0-2.1-0.2-2.8-0.7c-0.6-0.5-1.1-1.3-1.3-1.8c-0.1-0.7-0.1-2-0.1-3.6C75.9,79.9,75.9,69.1,75.9,69.1z"/>
			<path class="st12" d="M103.5,77.6l4.6,0.2c-0.1,2.4-0.8,4.5-2.3,5.9c-1.5,1.6-3.2,2.2-5.5,2.2c-2.8,0-4.9-1.1-6.3-3.1
				c-1.5-2.1-2.2-4.9-2.2-8.4c0-3.7,0.6-6.4,2.1-8.5s3.6-3.1,6.4-3.1c4.7,0,7.2,3,7.6,8.7l-4.5,0.2c-0.1-3.3-1.3-5.1-3.2-5.1
				c-1.1,0-1.8,0.5-2.4,1.6S97,71.4,97,74.5c0,2.8,0.2,4.6,0.7,5.6c0.5,1.1,1.5,1.6,2.4,1.6C102.1,82,103.3,80.5,103.5,77.6z"/>
			<path class="st12" d="M110.6,63.1h4.6v7.6c0.7-1.5,2.2-2.1,4-2.1c1.3,0,2,0.2,2.5,0.7c0.6,0.5,1.1,1.3,1.3,2
				c0.1,0.7,0.2,2,0.2,3.6v10.6h-4.6V75c0-1.1-0.1-1.8-0.2-2.1c-0.1-0.3-0.6-0.5-1.4-0.5c-0.6,0-1.3,0.1-1.5,0.5
				c-0.3,0.3-0.5,1.1-0.5,2.3v10.6h-4.6C110.6,85.8,110.6,63.1,110.6,63.1z"/>
			<path class="st12" d="M131.2,74.4l-4.3-0.3c0.2-1.7,0.8-3,2.1-3.8s2.8-1.4,4.6-1.4c1.6,0,2.8,0.2,3.8,0.8
				c0.8,0.6,1.6,1.4,1.8,2.1s0.3,2,0.3,3.7V82c0,2.1,0.1,3.3,0.2,3.7h-4.3c-0.1-0.3-0.2-1.4-0.2-2.4c-1.1,2-2.4,3-4.6,3
				c-1.4,0-2.3-0.3-3.2-1.3c-0.8-0.8-1.3-1.8-1.3-3.4c0-1.8,0.6-3.3,1.8-4.3c1.3-1.1,3.4-1.6,6.8-1.8v-0.6c0-1.1-0.1-1.8-0.3-2.3
				S133.8,72,133,72C132,71.9,131.3,72.7,131.2,74.4z M134.8,77.8c-1.4,0.1-2.3,0.3-3,0.8c-0.5,0.3-0.8,1.3-0.8,2.2
				c0,1.5,0.5,2.1,1.6,2.1c0.5,0,1.1-0.2,1.6-0.8c0.3-0.6,0.6-1.8,0.6-3.4L134.8,77.8L134.8,77.8z"/>
			<path class="st12" d="M143.4,63.9l4.5-0.1v5.3h3.1v3.7h-3.1v6c0,1.3,0,1.8,0.1,2.2c0,0.3,0.2,0.6,0.5,0.7
				c0.2,0.2,0.7,0.3,1.5,0.3c0.3,0,0.7,0,1.4,0v3.4c-1.1,0.2-2,0.3-3,0.3c-1.5,0-2.4-0.2-3.3-0.7c-0.7-0.5-1.3-1.3-1.5-2
				s-0.2-2.1-0.2-3.8v-6.4h-1.7v-3.7h1.8v-5.3L143.4,63.9L143.4,63.9z"/>
		</g>
	</g>
</g>
</svg>
