<?xml version="1.0" encoding="utf-8"?>
<!-- Generator: Adobe Illustrator 21.1.0, SVG Export Plug-In . SVG Version: 6.00 Build 0)  -->
<svg version="1.1" xmlns="http://www.w3.org/2000/svg" xmlns:xlink="http://www.w3.org/1999/xlink" x="0px" y="0px"
	 viewBox="0 0 24 24" style="enable-background:new 0 0 24 24;" xml:space="preserve">
<style type="text/css">
	.st0{fill:none;stroke:#FFFFFF;stroke-miterlimit:10;}
	.st1{fill:#FFFFFF;}
</style>
<g id="Layer_2">
	<line class="st0" x1="3.1" y1="21.1" x2="20.6" y2="3.6"/>
	<path class="st1" d="M17.3,12.4c-2.8,0-5.1,2.3-5.1,5.1s2.3,5.1,5.1,5.1s5.1-2.3,5.1-5.1S20.1,12.4,17.3,12.4z M19.8,19.3l-0.7,0.7
		l-1.8-1.8l-1.8,1.8l-0.7-0.7l1.8-1.8l-1.8-1.8l0.7-0.7l1.8,1.8l1.8-1.8l0.7,0.7L18,17.5L19.8,19.3z"/>
</g>
<g id="Layer_1">
	<path class="st1" d="M8.6,1.5H2.4c-0.6,0-1,0.5-1,1v7.2c0,0.6,0.5,1,1,1h7.2c0.6,0,1-0.5,1-1V3.6L8.6,1.5z M6,9.7
		C5.1,9.7,4.5,9,4.5,8.2S5.1,6.6,6,6.6s1.5,0.7,1.5,1.5S6.9,9.7,6,9.7z M7.5,4.6H2.4V2.5h5.1V4.6z"/>
</g>
</svg>
