<?xml version="1.0" encoding="utf-8"?>
<!-- Generator: Adobe Illustrator 25.2.1, SVG Export Plug-In . SVG Version: 6.00 Build 0)  -->
<svg version="1.1" xmlns="http://www.w3.org/2000/svg" xmlns:xlink="http://www.w3.org/1999/xlink" x="0px" y="0px"
	 viewBox="0 0 200 200" style="enable-background:new 0 0 200 200;" xml:space="preserve">
<style type="text/css">
	.st0{opacity:0.3;fill:url(#SVGID_1_);enable-background:new    ;}
	.st1{fill:url(#SVGID_2_);}
	.st2{fill:url(#SVGID_3_);}
	.st3{fill:url(#SVGID_4_);}
	.st4{fill:url(#SVGID_5_);}
	.st5{fill:url(#SVGID_6_);}
	.st6{fill:url(#SVGID_7_);}
	.st7{enable-background:new    ;}
	.st8{fill:#231F20;}
	.st9{fill:#020202;}
	.st10{fill:#FFFFFF;}
	.st11{font-family:'FranklinGothic-Heavy';}
	.st12{font-size:16.1646px;}
</style>
<g id="Layer_1">
	<linearGradient id="SVGID_1_" gradientUnits="userSpaceOnUse" x1="72.3971" y1="164.5202" x2="148.2133" y2="39.812">
		<stop  offset="0" style="stop-color:#000000"/>
		<stop  offset="0.2877" style="stop-color:#000000"/>
		<stop  offset="0.4162" style="stop-color:#000000"/>
		<stop  offset="0.867" style="stop-color:#000000"/>
		<stop  offset="1" style="stop-color:#000000"/>
	</linearGradient>
	<path class="st0" d="M52.5,151.7c-15.7,0-28.6-14.5-28.6-32.4c0-14.7,8.7-27.4,20.9-31.1c4.1-12.8,14.9-21.4,27-21.4
		c2.2,0,4.4,0.3,6.6,0.9c6.8-11.7,20.9-19.4,36.3-19.4c22.5,0,40.7,16,40.7,35.6c0,1.4-0.1,2.9-0.3,4.4c12,3.9,20.7,16.5,20.7,31.1
		c0,17.7-12.3,31.8-28,32.3h-0.1H52.5L52.5,151.7z"/>
	<g id="Layer_5">
		<g id="Assets">
			
				<linearGradient id="SVGID_2_" gradientUnits="userSpaceOnUse" x1="74.9619" y1="40.0345" x2="144.5958" y2="154.5736" gradientTransform="matrix(1 0 0 -1 0 200)">
				<stop  offset="0" style="stop-color:#A6A8AB"/>
				<stop  offset="0.2877" style="stop-color:#A6A8AB"/>
				<stop  offset="0.3502" style="stop-color:#BDBDBF"/>
				<stop  offset="0.4162" style="stop-color:#D1D0D0"/>
				<stop  offset="0.6117" style="stop-color:#D5D3D3"/>
				<stop  offset="0.6641" style="stop-color:#DFDDDD"/>
				<stop  offset="0.7626" style="stop-color:#EEEDEC"/>
				<stop  offset="0.867" style="stop-color:#F7F7F6"/>
				<stop  offset="1" style="stop-color:#FFFFFF"/>
			</linearGradient>
			<path class="st1" d="M170.3,119c0-14.1-9.1-25.8-21-27.5c0.6-2.3,1-4.8,1-7.3c0-17-16.1-30.9-35.9-30.9
				c-15.3,0-28.4,8.3-33.5,19.9c-2.7-1.1-5.5-1.8-8.5-1.8c-11.1,0-20.3,8.6-23.2,20.3C38,94,29.5,105.3,29.5,118.9
				c0,15.3,10.7,27.7,24,27.7c0.2,0,0.6,0,0.8,0h90.9c0.2,0,0.6,0,0.8,0s0.6,0,0.8,0l0,0l0,0C160,146.2,170.3,134,170.3,119z"/>
			
				<linearGradient id="SVGID_3_" gradientUnits="userSpaceOnUse" x1="41.5517" y1="53.8049" x2="158.1629" y2="119.2381" gradientTransform="matrix(1 0 0 -1 0 200)">
				<stop  offset="0.1117" style="stop-color:#C3C1C1"/>
				<stop  offset="0.2725" style="stop-color:#CFCFD2"/>
				<stop  offset="0.5" style="stop-color:#DDE0E6"/>
				<stop  offset="0.7626" style="stop-color:#E1E3E4"/>
				<stop  offset="1" style="stop-color:#E1E2E3"/>
			</linearGradient>
			<path class="st2" d="M165.9,117.8c0-13.2-8.6-24.1-19.7-25.8c0.6-2.2,1-4.5,1-6.9c0-16-15-29-33.6-29c-14.4,0-26.6,7.8-31.4,18.7
				c-2.5-1-5.2-1.7-7.9-1.7c-10.3,0-19.1,8.1-21.7,19C42,94.4,34.1,105,34.1,117.7c0,14.4,10.1,25.9,22.5,25.9c0.2,0,0.5,0,0.8,0
				h85.3c0.2,0,0.5,0,0.8,0s0.5,0,0.8,0l0,0l0,0C156.3,143.3,165.9,131.8,165.9,117.8z"/>
			<g>
				
					<linearGradient id="SVGID_4_" gradientUnits="userSpaceOnUse" x1="72.3594" y1="103.5" x2="134.7594" y2="103.5" gradientTransform="matrix(1 0 0 -1 0 200)">
					<stop  offset="0" style="stop-color:#30489B"/>
					<stop  offset="1" style="stop-color:#2F489B"/>
				</linearGradient>
				<path class="st3" d="M94.7,87v-2c0-1.5-1.2-2.7-2.7-2.7H76.6c-1.5,0-2.7,1.2-2.7,2.7v2h-1.4v23.7h62.4V87H94.7z"/>
				
					<linearGradient id="SVGID_5_" gradientUnits="userSpaceOnUse" x1="104.8197" y1="106.7766" x2="105.0555" y2="82.9234" gradientTransform="matrix(1 0 0 -1 0 200)">
					<stop  offset="0" style="stop-color:#292B68"/>
					<stop  offset="0.556" style="stop-color:#2D3D87"/>
					<stop  offset="1" style="stop-color:#2F489B"/>
				</linearGradient>
				<rect x="73.7" y="89.5" class="st4" width="62.4" height="23.7"/>
			</g>
			
				<linearGradient id="SVGID_6_" gradientUnits="userSpaceOnUse" x1="67.2768" y1="79.5665" x2="15.8546" y2="68.5212" gradientTransform="matrix(1 0 0 -1 0 200)">
				<stop  offset="0" style="stop-color:#C3C1C1"/>
				<stop  offset="0.7626" style="stop-color:#C3C1C1"/>
				<stop  offset="1" style="stop-color:#D5D6DA"/>
			</linearGradient>
			<polygon class="st5" points="76.3,94.7 39.7,106.8 44.8,137.2 100,137.2 			"/>
			
				<linearGradient id="SVGID_7_" gradientUnits="userSpaceOnUse" x1="102.032" y1="104.2176" x2="100.6675" y2="59.1608" gradientTransform="matrix(1 0 0 -1 0 200)">
				<stop  offset="0" style="stop-color:#EC2225"/>
				<stop  offset="0.8073" style="stop-color:#CD2225"/>
				<stop  offset="0.8096" style="stop-color:#CC2225"/>
				<stop  offset="0.9374" style="stop-color:#981A1D"/>
				<stop  offset="1" style="stop-color:#84171A"/>
			</linearGradient>
			<path class="st6" d="M136.1,93.1h-39V90c0-1.5-1.2-2.7-2.7-2.7H71.6c-1.5,0-2.7,1.2-2.7,2.7v3.1h-2c-1.1,0-2.1,1-2.1,2.1v39.6
				c0,1.1,1,2.1,2.1,2.1H136c1.1,0,2.1-1,2.1-2.1V95.2C138.2,94,137.3,93.1,136.1,93.1z"/>
			<g class="st7">
				<path class="st8" d="M78.7,125.5v5c0,0.4,0.1,0.6,0.4,0.6s0.7-0.2,1.3-0.6l1.1,0.4c-0.5,0.3-2.1,1.6-2.4,1.7s-0.7,0.2-1,0.2
					c-1,0-1.6-0.4-1.8-1.2c-1,0.8-2.1,1.2-3.2,1.2c-0.8,0-1.5-0.3-2.1-0.8c-0.5-0.5-0.8-1.2-0.8-2.1c0-0.7,0.3-1.4,0.8-2
					c0.5-0.6,1.3-1.1,2.3-1.4l3-1v-0.6c0-1.4-0.7-2.1-2.1-2.1c-1.3,0-2.5,0.7-3.7,2v-2.6c0.9-1.1,2.2-1.6,3.9-1.6
					c1.3,0,2.3,0.3,3.1,1c0.3,0.2,0.5,0.5,0.7,0.9s0.3,0.7,0.4,1.1C78.7,123.9,78.7,124.5,78.7,125.5z M76.4,130.3v-3.5l-1.6,0.6
					c-0.8,0.3-1.4,0.6-1.7,1c-0.3,0.3-0.5,0.7-0.5,1.2s0.2,0.9,0.5,1.2s0.7,0.5,1.2,0.5C75.1,131.2,75.8,130.9,76.4,130.3z"/>
				<path class="st8" d="M82,131.8v-2.5l1-1c0,0,0.6,1.9,1,2.1c0.7,0.3,1.3,0.4,1.7,0.4c0.5,0,0.9-0.1,1.3-0.4
					c0.4-0.2,0.5-0.5,0.5-0.9c0-0.3-0.1-0.6-0.3-0.9c-0.2-0.2-0.7-0.6-1.5-1c-1.5-0.8-2.5-1.6-3-2.2s-0.7-1.2-0.7-2
					c0-0.9,0.4-1.7,1.1-2.2c0.7-0.6,1.6-0.9,2.7-0.9c1.2,0,2.3,0.3,3.6,1v2.3c-1.4-0.8-2.5-1.3-3.4-1.3c-0.5,0-0.8,0.1-1.1,0.3
					s-0.4,0.4-0.4,0.8c0,0.3,0.1,0.5,0.4,0.8c0.3,0.2,0.7,0.5,1.3,0.9l0.8,0.5c2,1.1,3,2.4,3,3.7c0,1-0.4,1.8-1.1,2.4
					s-1.7,0.9-2.9,0.9c-0.7,0-1.3-0.1-1.9-0.2C83.5,132.3,82.9,132.1,82,131.8z"/>
				<path class="st8" d="M92.1,131.8v-2.5l1-1c0,0,0.6,1.9,1,2.1c0.7,0.3,1.3,0.4,1.7,0.4c0.5,0,0.9-0.1,1.3-0.4
					c0.4-0.2,0.5-0.5,0.5-0.9c0-0.3-0.1-0.6-0.3-0.9c-0.2-0.2-0.7-0.6-1.5-1c-1.5-0.8-2.5-1.6-3-2.2s-0.7-1.2-0.7-2
					c0-0.9,0.4-1.7,1.1-2.2c0.7-0.6,1.6-0.9,2.7-0.9c1.2,0,2.3,0.3,3.6,1v2.3c-1.4-0.8-2.5-1.3-3.4-1.3c-0.5,0-0.8,0.1-1.1,0.3
					s-0.4,0.4-0.4,0.8c0,0.3,0.1,0.5,0.4,0.8c0.3,0.2,0.7,0.5,1.3,0.9l0.8,0.5c2,1.1,3,2.4,3,3.7c0,1-0.4,1.8-1.1,2.4
					s-1.7,0.9-2.9,0.9c-0.7,0-1.3-0.1-1.9-0.2C93.5,132.3,93,132.1,92.1,131.8z"/>
				<path class="st8" d="M112.9,126.9h-8.3c0.1,1.1,0.4,2,1.1,2.7c0.7,0.7,1.6,1,2.7,1c1.5,0,3-0.5,4.3-1.4l1,1.3l-1,1
					c-0.7,0.5-1.4,0.8-2.1,1s-1.5,0.3-2.5,0.3c-1.3,0-2.4-0.3-3.2-0.8c-0.8-0.5-1.5-1.3-1.9-2.2c-0.5-0.9-0.7-2-0.7-3.2
					c0-1.8,0.5-3.3,1.5-4.4s2.3-1.7,4-1.7c1.6,0,2.8,0.5,3.8,1.6c0.9,1.1,2.4,2,2.4,3.8l-1,1L112.9,126.9L112.9,126.9z M104.7,125.5
					h6c-0.1-0.9-0.3-1.7-0.8-2.2s-1.2-0.8-2-0.8s-1.5,0.3-2.1,0.8C105.2,123.9,104.8,124.6,104.7,125.5z"/>
				<path class="st8" d="M113.8,122.7l4.4-4.3v2.4h3.7l1,1.1l-1,1h-3.7v5.8c0,1.4,0.6,2,1.7,2c0.8,0,1.7-0.3,2.7-0.8l1,1.2l-1,1
					c-0.9,0.5-1.9,0.8-2.9,0.8c-1.1,0-2-0.3-2.7-0.9c-0.2-0.2-0.4-0.4-0.6-0.6c-0.1-0.2-0.3-0.5-0.4-0.9s-0.1-1.1-0.1-2.2V123h-2.1
					V122.7z"/>
				<path class="st8" d="M123.7,131.8v-2.5l1-1c0,0,0.6,1.9,1,2.1c0.7,0.3,1.3,0.4,1.7,0.4c0.5,0,0.9-0.1,1.3-0.4s0.5-0.5,0.5-0.9
					c0-0.3-0.1-0.6-0.3-0.9c-0.2-0.2-0.7-0.6-1.5-1c-1.5-0.8-2.5-1.6-3-2.2s-0.7-1.2-0.7-2c0-0.9,0.4-1.7,1.1-2.2
					c0.7-0.6,1.6-0.9,2.7-0.9c1.2,0,2.3,0.3,3.6,1l1,1.3l-1,1c-1.4-0.8-2.5-1.3-3.4-1.3c-0.5,0-0.8,0.1-1.1,0.3
					c-0.3,0.2-0.4,0.4-0.4,0.8c0,0.3,0.1,0.5,0.4,0.8s0.7,0.5,1.3,0.9l0.8,0.5c2,1.1,3,2.4,3,3.7c0,1-0.4,1.8-1.1,2.4
					c-0.8,0.6-1.7,0.9-2.9,0.9c-0.7,0-1.3-0.1-1.9-0.2C125.1,132.3,124.5,132.1,123.7,131.8z"/>
			</g>
			<path class="st9" d="M106.5,101.2c0-1.9-2.2-3.6-4.9-3.6s-4.9,1.6-4.9,3.6c0,1.4,1,2.6,2.7,3.1l-2.1,10.1
				c-0.1,0.3,0.2,0.6,0.5,0.6h8.2c0.3,0,0.6-0.3,0.5-0.6l-2.3-10.1C105.5,103.7,106.5,102.6,106.5,101.2z"/>
			<path class="st10" d="M79.8,124.5v5c0,0.4,0.1,0.6,0.4,0.6s0.7-0.2,1.3-0.6v1.4c-0.5,0.3-1,0.6-1.3,0.7s-0.7,0.2-1,0.2
				c-1,0-1.6-0.4-1.8-1.2c-1,0.8-2.1,1.2-3.2,1.2c-0.8,0-1.5-0.3-2.1-0.8c-0.5-0.5-0.8-1.2-0.8-2.1c0-0.7,0.3-1.4,0.8-2
				s1.3-1.1,2.3-1.4l3-1v-0.6c0-1.4-0.7-2.1-2.1-2.1c-1.3,0-2.5,0.7-3.7,2v-2.6c0.9-1.1,2.2-1.6,3.9-1.6c1.3,0,2.3,0.3,3.1,1
				c0.3,0.2,0.5,0.5,0.7,0.9s0.3,0.7,0.4,1.1C79.7,122.9,79.8,123.5,79.8,124.5z M77.5,129.3v-3.5l-1.6,0.6c-0.8,0.3-1.4,0.6-1.7,1
				c-0.3,0.3-0.5,0.7-0.5,1.2s0.2,0.9,0.5,1.2s0.7,0.5,1.2,0.5C76.1,130.2,76.8,129.9,77.5,129.3z M83,130.8v-2.5
				c0.7,0.5,1.3,0.8,2,1.1s1.3,0.4,1.7,0.4c0.5,0,0.9-0.1,1.3-0.4c0.4-0.2,0.5-0.5,0.5-0.9c0-0.3-0.1-0.6-0.3-0.9
				c-0.2-0.2-0.7-0.6-1.5-1c-1.5-0.8-2.5-1.6-3-2.2s-0.7-1.2-0.7-2c0-0.9,0.4-1.7,1.1-2.2c0.7-0.6,1.6-0.9,2.7-0.9
				c1.2,0,2.3,0.3,3.6,1v2.3c-1.4-0.8-2.5-1.3-3.4-1.3c-0.5,0-0.8,0.1-1.1,0.3s-0.4,0.4-0.4,0.8c0,0.3,0.1,0.5,0.4,0.8
				c0.3,0.2,0.7,0.5,1.3,0.9l0.8,0.5c2,1.1,3,2.4,3,3.7c0,1-0.4,1.8-1.1,2.4s-1.7,0.9-2.9,0.9c-0.7,0-1.3-0.1-1.9-0.2
				C84.2,131.3,83.7,131.1,83,130.8z M93.1,130.8v-2.5c0.7,0.5,1.3,0.8,2,1.1s1.3,0.4,1.7,0.4c0.5,0,0.9-0.1,1.3-0.4
				c0.4-0.2,0.5-0.5,0.5-0.9c0-0.3-0.1-0.6-0.3-0.9c-0.2-0.2-0.7-0.6-1.5-1c-1.5-0.8-2.5-1.6-3-2.2s-0.7-1.2-0.7-2
				c0-0.9,0.4-1.7,1.1-2.2c0.7-0.6,1.6-0.9,2.7-0.9c1.2,0,2.3,0.3,3.6,1v2.3c-1.4-0.8-2.5-1.3-3.4-1.3c-0.5,0-0.8,0.1-1.1,0.3
				s-0.4,0.4-0.4,0.8c0,0.3,0.1,0.5,0.4,0.8c0.3,0.2,0.7,0.5,1.3,0.9l0.8,0.5c2,1.1,3,2.4,3,3.7c0,1-0.4,1.8-1.1,2.4
				c-0.8,0.6-1.7,0.9-2.9,0.9c-0.7,0-1.3-0.1-1.9-0.2C94.5,131.2,94,131.1,93.1,130.8z M113.9,125.9h-8.3c0.1,1.1,0.4,2,1.1,2.7
				c0.7,0.7,1.6,1,2.7,1c1.5,0,3-0.5,4.3-1.4v2.3c-0.7,0.5-1.4,0.8-2.1,1s-1.5,0.3-2.5,0.3c-1.3,0-2.4-0.3-3.2-0.8
				c-0.8-0.5-1.5-1.3-1.9-2.2c-0.5-0.9-0.7-2-0.7-3.2c0-1.8,0.5-3.3,1.5-4.4s2.3-1.7,4-1.7c1.6,0,2.8,0.5,3.8,1.6
				c0.9,1.1,1.4,2.6,1.4,4.4v0.4L113.9,125.9L113.9,125.9z M105.7,124.5h6c-0.1-0.9-0.3-1.7-0.8-2.2s-1.2-0.8-2-0.8
				s-1.5,0.3-2.1,0.8C106.2,122.9,105.8,123.6,105.7,124.5z M114.8,121.7l4.4-4.3v2.4h3.7v2.1h-3.7v5.8c0,1.4,0.6,2,1.7,2
				c0.8,0,1.7-0.3,2.7-0.8v2.2c-0.9,0.5-1.9,0.8-2.9,0.8c-1.1,0-2-0.3-2.7-0.9c-0.2-0.2-0.4-0.4-0.6-0.6c-0.1-0.2-0.3-0.5-0.4-0.9
				s-0.1-1.1-0.1-2.2V122h-2.1V121.7z M124.7,130.8v-2.5c0.7,0.5,1.3,0.8,2,1.1s1.3,0.4,1.7,0.4c0.5,0,0.9-0.1,1.3-0.4
				c0.4-0.2,0.5-0.5,0.5-0.9c0-0.3-0.1-0.6-0.3-0.9c-0.2-0.2-0.7-0.6-1.5-1c-1.5-0.8-2.5-1.6-3-2.2s-0.7-1.2-0.7-2
				c0-0.9,0.4-1.7,1.1-2.2c0.7-0.6,1.6-0.9,2.7-0.9c1.2,0,2.3,0.3,3.6,1v2.3c-1.4-0.8-2.5-1.3-3.4-1.3c-0.5,0-0.8,0.1-1.1,0.3
				c-0.3,0.2-0.4,0.4-0.4,0.8c0,0.3,0.1,0.5,0.4,0.8c0.3,0.2,0.7,0.5,1.3,0.9l0.8,0.5c2,1.1,3,2.4,3,3.7c0,1-0.4,1.8-1.1,2.4
				c-0.8,0.6-1.7,0.9-2.9,0.9c-0.7,0-1.3-0.1-1.9-0.2C126.1,131.3,125.6,131.2,124.7,130.8z"/>
		</g>
	</g>
	<text transform="matrix(1 0 0 1 70.3003 116.6729)" class="st11 st12">Biz</text>
	<text transform="matrix(1 0 0 1 70.9845 116.1781)" class="st10 st11 st12">Biz</text>
</g>
<g id="Layer_2">
</g>
</svg>
