<?xml version="1.0" encoding="UTF-8"?>
<svg id="Layer_1" xmlns="http://www.w3.org/2000/svg" version="1.1" xmlns:xlink="http://www.w3.org/1999/xlink" viewBox="0 0 200 200">
  <!-- Generator: Adobe Illustrator 29.0.1, SVG Export Plug-In . SVG Version: 2.1.0 Build 192)  -->
  <defs>
    <style>
      .st0 {
        fill: url(#radial-gradient);
      }

      .st0, .st1, .st2 {
        isolation: isolate;
      }

      .st0, .st2 {
        mix-blend-mode: soft-light;
      }

      .st3 {
        fill: #fff;
      }

      .st2 {
        fill: url(#radial-gradient1);
      }

      .st4 {
        fill: url(#linear-gradient);
      }

      .st5 {
        opacity: .7;
      }
    </style>
    <linearGradient id="linear-gradient" x1="62.3" y1="99" x2="139.3" y2="99" gradientTransform="translate(0 200) scale(1 -1)" gradientUnits="userSpaceOnUse">
      <stop offset=".2" stop-color="#d54428"/>
      <stop offset=".8" stop-color="#f15b37"/>
      <stop offset=".9" stop-color="#f5845f"/>
    </linearGradient>
    <radialGradient id="radial-gradient" cx="103.8" cy="106.9" fx="110.2" fy="62.4" r="46.9" gradientTransform="translate(0 200) scale(1 -1)" gradientUnits="userSpaceOnUse">
      <stop offset="0" stop-color="#dedaed" stop-opacity=".7"/>
      <stop offset="1" stop-color="#fff" stop-opacity="0"/>
    </radialGradient>
    <radialGradient id="radial-gradient1" cy="110.7" fx="103.8" fy="68.5" r="44.5" xlink:href="#radial-gradient"/>
  </defs>
  <g class="st1">
    <g id="Layer_11">
      <path class="st5" d="M102.4,154.1c-23.4,0-44.1-5.3-44.1-24s13.2-28.7,31.2-32.7c-8.7-4.2-14.7-13.1-14.7-23.4s11.7-26,26-26,26,11.7,26,26-6,19.2-14.7,23.4c18,4,31.2,17.1,31.2,32.7s-17.5,24-40.9,24Z"/>
      <path class="st4" d="M100.8,52c12.2,0,22,9.8,22,22s-9.8,22-22,22-22-9.8-22-22,9.8-22,22-22ZM100.8,100.2c21.3,0,38.5,13.4,38.5,29.9s-15.9,19.9-37.2,19.9-39.8-3.4-39.8-19.9,17.2-29.9,38.5-29.9Z"/>
      <path class="st0" d="M100.8,52c12.2,0,22,9.8,22,22s-9.8,22-22,22-22-9.8-22-22,9.8-22,22-22ZM100.8,100.2c21.3,0,38.5,13.4,38.5,29.9s-17.2,29.9-38.5,29.9-38.5-13.4-38.5-29.9,17.2-29.9,38.5-29.9Z"/>
      <path class="st2" d="M100.8,52c12.2,0,22,9.8,22,22s-9.8,22-22,22-22-9.8-22-22,9.8-22,22-22ZM100.8,100.2c21.3,0,38.5,13.4,38.5,29.9s-15.9,19.9-37.2,19.9-39.8-3.4-39.8-19.9,17.2-29.9,38.5-29.9Z"/>
    </g>
  </g>
  <g>
    <path d="M67.1,163.9c-2.7,0-5-1-6.7-2.8-1.7-1.8-2.6-4.3-2.6-7.2s.9-5.6,2.6-7.4c1.8-1.9,4.1-2.9,6.9-2.9s4.6.8,6.2,2.3c.7.7,1.3,1.5,1.8,2.5,0,0,.1,0,.2,0,1.2-.7,2.6-1,4.1-1s3.3.5,4.7,1.4c.5-.7,1.3-1.1,2.2-1.1-1.1-.5-1.9-1.6-1.9-2.9v-13.6c0-1.7,1.4-3.2,3.2-3.2h5.4c1.3,0,2.2,0,2.9.2,1,.2,1.9.5,2.7,1.1,0,0,0,0,0,0,.6-.8,1.5-1.3,2.6-1.3h2.6c1.7,0,3.2,1.4,3.2,3.2v.6h6.9c1.7,0,3.2,1.4,3.2,3.2v1.8c0,.8-.3,1.5-.8,2.1l-.7.8c1,.5,1.8,1.6,1.8,2.8v2.3c0,1.7-1.4,3.2-3.2,3.2h-2.6c.2,0,.4.1.5.2.6.3,1.2.7,1.7,1.1,1.4-1.2,3.2-1.9,5.3-1.9s2.4.2,3.4.6c.2-.8.7-1.5,1.5-1.9l2.6-1.5c.5-.3,1-.4,1.6-.4s1.1.1,1.6.4c1,.6,1.6,1.6,1.6,2.7v.6c.1,0,.2.1.3.2,1-.5,2.3-.7,3.7-.7s3.6.4,4.8,1.2c1.3.8,2.2,2.1,2.6,3.7.2.8.1,1.7-.3,2.4.4.7.7,1.7.7,2.9,0,1.8-.8,3.5-2.2,4.7-1.3,1.2-3.2,1.7-5.4,1.7s-2.8-.3-3.9-.8c0,0-.2,0-.2.1-1,.4-2.1.6-3.3.6s-1.7-.2-2.5-.5c-.6-.3-1.2-.6-1.6-1.1-1.3,1-3,1.5-4.9,1.5s-2.9-.3-4-1c-.6.5-1.3.8-2.1.8h-2.6c-.4,0-.7,0-1-.2-.8.3-1.6.4-2.4.4-1.2,0-2.2-.3-3-.6-1,.4-2.1.6-3.2.6s-1.7-.2-2.5-.5c-.3-.1-.6-.3-.8-.4-.5.4-1.2.7-2,.7h-2.6c-.7,0-1.4-.2-1.9-.6-.5.4-1.2.6-1.9.6h-2.6c-1,0-1.9-.5-2.4-1.2-1.3.9-2.9,1.4-4.6,1.4s-2.7-.3-4-.9c-.8-.4-1.5-.9-2.1-1.5-.3.3-.6.5-.9.8-1.5,1.1-3.4,1.7-5.5,1.7Z"/>
    <g>
      <path d="M87.7,131.1h5.4c1.1,0,1.9,0,2.4.1s1,.3,1.4.6.8.7,1,1.1.4,1,.4,1.6-.2,1.2-.5,1.7-.8.9-1.4,1.2c.8.2,1.5.7,1.9,1.2s.7,1.3.7,2-.1,1.2-.4,1.8-.7,1-1.2,1.4-1.1.6-1.8.6c-.5,0-1.6,0-3.3,0h-4.6v-13.6ZM90.4,133.4v3.1h1.8c1.1,0,1.7,0,2,0,.5,0,.8-.2,1.1-.5s.4-.6.4-1.1-.1-.8-.3-1-.6-.4-1-.5c-.3,0-1.1,0-2.3,0h-1.6ZM90.4,138.8v3.6h2.5c1,0,1.6,0,1.9,0,.4,0,.7-.3,1-.5s.4-.7.4-1.2,0-.8-.3-1-.5-.5-.9-.6-1.2-.2-2.4-.2h-2.2ZM101.3,133.5v-2.4h2.6v2.4h-2.6ZM101.3,144.7v-9.8h2.6v9.8h-2.6ZM105.6,144.7v-2l3.7-4.2c.6-.7,1.1-1.2,1.3-1.5-.3,0-.7,0-1.2,0h-3.5s0-2.1,0-2.1h8.1v1.8l-3.8,4.3-1.3,1.4c.7,0,1.2,0,1.3,0h4v2.3h-8.8ZM70,155.5l2.7.8c-.4,1.5-1.1,2.6-2,3.3s-2.1,1.1-3.6,1.1-3.3-.6-4.4-1.8-1.7-2.9-1.7-5,.6-4,1.7-5.3,2.7-1.9,4.6-1.9,3,.5,4,1.5c.6.6,1.1,1.4,1.4,2.5l-2.7.6c-.2-.7-.5-1.3-1-1.7s-1.1-.6-1.9-.6-1.8.4-2.4,1.1-.9,1.9-.9,3.5.3,2.9.9,3.7,1.4,1.1,2.4,1.1,1.4-.2,1.9-.7.9-1.2,1.1-2.2ZM74.4,155.5c0-.9.2-1.7.6-2.5s1-1.4,1.8-1.9,1.7-.6,2.6-.6c1.5,0,2.7.5,3.7,1.4s1.4,2.2,1.4,3.7-.5,2.7-1.4,3.7-2.2,1.5-3.6,1.5-1.8-.2-2.6-.6-1.4-1-1.9-1.8-.6-1.7-.6-2.9ZM77.1,155.6c0,1,.2,1.7.7,2.2s1,.8,1.7.8,1.2-.3,1.7-.8.7-1.3.7-2.3-.2-1.7-.7-2.2-1-.8-1.7-.8-1.2.3-1.7.8-.7,1.3-.7,2.2ZM95.5,160.5h-2.6v-5c0-1.1,0-1.7-.2-2.1s-.3-.6-.5-.7-.6-.3-.9-.3-.9.1-1.2.4-.6.6-.7,1-.2,1.2-.2,2.3v4.5h-2.6v-9.8h2.4v1.4c.9-1.1,1.9-1.7,3.2-1.7s1.1.1,1.6.3.8.5,1.1.8.4.7.5,1.1.1,1,.1,1.7v6.1ZM102.7,150.7v2.1h-1.8v4c0,.8,0,1.3,0,1.4s.1.2.2.3.3.1.4.1.6,0,1-.2l.2,2c-.6.3-1.3.4-2.1.4s-.9,0-1.3-.2-.7-.4-.8-.6-.3-.6-.4-1c0-.3,0-.9,0-1.8v-4.3h-1.2v-2.1h1.2v-2l2.6-1.5v3.5h1.8ZM106.4,153.7l-2.4-.4c.3-1,.7-1.7,1.4-2.1s1.6-.7,2.9-.7,2,.1,2.6.4,1,.6,1.2,1,.3,1.2.3,2.3v3c0,.9,0,1.5,0,1.9s.2.8.5,1.3h-2.6c0-.2-.2-.4-.2-.8,0-.2,0-.3,0-.3-.4.4-.9.8-1.4,1s-1,.3-1.6.3c-1,0-1.8-.3-2.4-.8s-.9-1.2-.9-2.1.1-1.1.4-1.5.6-.8,1.1-1,1.2-.4,2.1-.6c1.2-.2,2.1-.4,2.5-.6v-.3c0-.5-.1-.9-.4-1.1s-.7-.3-1.4-.3-.8,0-1.1.3-.5.5-.6,1ZM109.9,155.8c-.3.1-.9.2-1.6.4s-1.2.3-1.4.5c-.3.2-.5.5-.5.9s.1.7.4.9.6.4,1,.4.9-.2,1.3-.5c.3-.2.5-.5.6-.9,0-.2.1-.6.1-1.3v-.5ZM123.6,153.6l-2.6.5c0-.5-.3-.9-.6-1.2s-.7-.4-1.2-.4-1.2.2-1.6.7-.6,1.2-.6,2.2.2,2,.6,2.5.9.7,1.6.7.9-.1,1.2-.4.5-.8.7-1.4l2.6.4c-.3,1.2-.8,2.1-1.5,2.7s-1.8.9-3,.9-2.6-.5-3.4-1.4-1.3-2.2-1.3-3.8.4-2.9,1.3-3.8,2-1.4,3.5-1.4,2.1.3,2.9.8,1.2,1.3,1.5,2.4ZM130.1,150.7v2.1h-1.8v4c0,.8,0,1.3,0,1.4s.1.2.2.3.3.1.4.1.6,0,1-.2l.2,2c-.6.3-1.3.4-2.1.4s-.9,0-1.3-.2-.7-.4-.8-.6-.3-.6-.4-1c0-.3,0-.9,0-1.8v-4.3h-1.2v-2.1h1.2v-2l2.6-1.5v3.5h1.8ZM131,157.7l2.6-.4c.1.5.3.9.7,1.2s.8.4,1.4.4,1.2-.1,1.5-.4c.2-.2.3-.4.3-.7s0-.4-.2-.5c-.1-.1-.4-.2-.9-.3-2.1-.5-3.4-.9-4-1.3-.8-.5-1.2-1.3-1.2-2.2s.3-1.6,1-2.1,1.7-.9,3.1-.9,2.3.2,3,.7,1.1,1.1,1.4,1.9l-2.5.5c-.1-.4-.3-.7-.6-.9s-.7-.3-1.3-.3-1.2,0-1.5.3c-.2.1-.3.3-.3.5s0,.3.3.5c.2.2,1,.4,2.4.7s2.4.7,2.9,1.2c.5.5.8,1.1.8,1.9s-.4,1.7-1.1,2.3-1.9,1-3.3,1-2.4-.3-3.2-.8-1.3-1.3-1.5-2.2Z"/>
      <path class="st3" d="M87.7,131.1h5.4c1.1,0,1.9,0,2.4.1s1,.3,1.4.6.8.7,1,1.1.4,1,.4,1.6-.2,1.2-.5,1.7-.8.9-1.4,1.2c.8.2,1.5.7,1.9,1.2s.7,1.3.7,2-.1,1.2-.4,1.8-.7,1-1.2,1.4-1.1.6-1.8.6c-.5,0-1.6,0-3.3,0h-4.6v-13.6ZM90.4,133.4v3.1h1.8c1.1,0,1.7,0,2,0,.5,0,.8-.2,1.1-.5s.4-.6.4-1.1-.1-.8-.3-1-.6-.4-1-.5c-.3,0-1.1,0-2.3,0h-1.6ZM90.4,138.8v3.6h2.5c1,0,1.6,0,1.9,0,.4,0,.7-.3,1-.5s.4-.7.4-1.2,0-.8-.3-1-.5-.5-.9-.6-1.2-.2-2.4-.2h-2.2ZM101.3,133.5v-2.4h2.6v2.4h-2.6ZM101.3,144.7v-9.8h2.6v9.8h-2.6ZM105.6,144.7v-2l3.7-4.2c.6-.7,1.1-1.2,1.3-1.5-.3,0-.7,0-1.2,0h-3.5s0-2.1,0-2.1h8.1v1.8l-3.8,4.3-1.3,1.4c.7,0,1.2,0,1.3,0h4v2.3h-8.8ZM70,155.5l2.7.8c-.4,1.5-1.1,2.6-2,3.3s-2.1,1.1-3.6,1.1-3.3-.6-4.4-1.8-1.7-2.9-1.7-5,.6-4,1.7-5.3,2.7-1.9,4.6-1.9,3,.5,4,1.5c.6.6,1.1,1.4,1.4,2.5l-2.7.6c-.2-.7-.5-1.3-1-1.7s-1.1-.6-1.9-.6-1.8.4-2.4,1.1-.9,1.9-.9,3.5.3,2.9.9,3.7,1.4,1.1,2.4,1.1,1.4-.2,1.9-.7.9-1.2,1.1-2.2ZM74.4,155.5c0-.9.2-1.7.6-2.5s1-1.4,1.8-1.9,1.7-.6,2.6-.6c1.5,0,2.7.5,3.7,1.4s1.4,2.2,1.4,3.7-.5,2.7-1.4,3.7-2.2,1.5-3.6,1.5-1.8-.2-2.6-.6-1.4-1-1.9-1.8-.6-1.7-.6-2.9ZM77.1,155.6c0,1,.2,1.7.7,2.2s1,.8,1.7.8,1.2-.3,1.7-.8.7-1.3.7-2.3-.2-1.7-.7-2.2-1-.8-1.7-.8-1.2.3-1.7.8-.7,1.3-.7,2.2ZM95.5,160.5h-2.6v-5c0-1.1,0-1.7-.2-2.1s-.3-.6-.5-.7-.6-.3-.9-.3-.9.1-1.2.4-.6.6-.7,1-.2,1.2-.2,2.3v4.5h-2.6v-9.8h2.4v1.4c.9-1.1,1.9-1.7,3.2-1.7s1.1.1,1.6.3.8.5,1.1.8.4.7.5,1.1.1,1,.1,1.7v6.1ZM102.7,150.7v2.1h-1.8v4c0,.8,0,1.3,0,1.4s.1.2.2.3.3.1.4.1.6,0,1-.2l.2,2c-.6.3-1.3.4-2.1.4s-.9,0-1.3-.2-.7-.4-.8-.6-.3-.6-.4-1c0-.3,0-.9,0-1.8v-4.3h-1.2v-2.1h1.2v-2l2.6-1.5v3.5h1.8ZM106.4,153.7l-2.4-.4c.3-1,.7-1.7,1.4-2.1s1.6-.7,2.9-.7,2,.1,2.6.4,1,.6,1.2,1,.3,1.2.3,2.3v3c0,.9,0,1.5,0,1.9s.2.8.5,1.3h-2.6c0-.2-.2-.4-.2-.8,0-.2,0-.3,0-.3-.4.4-.9.8-1.4,1s-1,.3-1.6.3c-1,0-1.8-.3-2.4-.8s-.9-1.2-.9-2.1.1-1.1.4-1.5.6-.8,1.1-1,1.2-.4,2.1-.6c1.2-.2,2.1-.4,2.5-.6v-.3c0-.5-.1-.9-.4-1.1s-.7-.3-1.4-.3-.8,0-1.1.3-.5.5-.6,1ZM109.9,155.8c-.3.1-.9.2-1.6.4s-1.2.3-1.4.5c-.3.2-.5.5-.5.9s.1.7.4.9.6.4,1,.4.9-.2,1.3-.5c.3-.2.5-.5.6-.9,0-.2.1-.6.1-1.3v-.5ZM123.6,153.6l-2.6.5c0-.5-.3-.9-.6-1.2s-.7-.4-1.2-.4-1.2.2-1.6.7-.6,1.2-.6,2.2.2,2,.6,2.5.9.7,1.6.7.9-.1,1.2-.4.5-.8.7-1.4l2.6.4c-.3,1.2-.8,2.1-1.5,2.7s-1.8.9-3,.9-2.6-.5-3.4-1.4-1.3-2.2-1.3-3.8.4-2.9,1.3-3.8,2-1.4,3.5-1.4,2.1.3,2.9.8,1.2,1.3,1.5,2.4ZM130.1,150.7v2.1h-1.8v4c0,.8,0,1.3,0,1.4s.1.2.2.3.3.1.4.1.6,0,1-.2l.2,2c-.6.3-1.3.4-2.1.4s-.9,0-1.3-.2-.7-.4-.8-.6-.3-.6-.4-1c0-.3,0-.9,0-1.8v-4.3h-1.2v-2.1h1.2v-2l2.6-1.5v3.5h1.8ZM131,157.7l2.6-.4c.1.5.3.9.7,1.2s.8.4,1.4.4,1.2-.1,1.5-.4c.2-.2.3-.4.3-.7s0-.4-.2-.5c-.1-.1-.4-.2-.9-.3-2.1-.5-3.4-.9-4-1.3-.8-.5-1.2-1.3-1.2-2.2s.3-1.6,1-2.1,1.7-.9,3.1-.9,2.3.2,3,.7,1.1,1.1,1.4,1.9l-2.5.5c-.1-.4-.3-.7-.6-.9s-.7-.3-1.3-.3-1.2,0-1.5.3c-.2.1-.3.3-.3.5s0,.3.3.5c.2.2,1,.4,2.4.7s2.4.7,2.9,1.2c.5.5.8,1.1.8,1.9s-.4,1.7-1.1,2.3-1.9,1-3.3,1-2.4-.3-3.2-.8-1.3-1.3-1.5-2.2Z"/>
    </g>
  </g>
</svg>