<?xml version="1.0" encoding="UTF-8"?>
<svg xmlns="http://www.w3.org/2000/svg" version="1.1" xmlns:xlink="http://www.w3.org/1999/xlink" viewBox="0 0 200 200">
  <!-- Generator: Adobe Illustrator 29.0.1, SVG Export Plug-In . SVG Version: 2.1.0 Build 192)  -->
  <defs>
    <style>
      .st0 {
        fill: url(#linear-gradient2);
      }

      .st1, .st2 {
        fill: #821818;
      }

      .st3 {
        fill: #fff;
      }

      .st4 {
        fill: url(#linear-gradient1);
      }

      .st5 {
        isolation: isolate;
      }

      .st6 {
        fill: url(#linear-gradient4);
        mix-blend-mode: multiply;
        opacity: .5;
      }

      .st7 {
        fill: url(#linear-gradient);
        mix-blend-mode: color-dodge;
        opacity: .7;
      }

      .st8 {
        fill: url(#linear-gradient3);
      }

      .st9, .st2 {
        display: none;
      }
    </style>
    <linearGradient id="linear-gradient" x1="123.2" y1="14.5" x2="94.8" y2="125.3" gradientUnits="userSpaceOnUse">
      <stop offset=".1" stop-color="#f76400"/>
      <stop offset="1" stop-color="#911617"/>
    </linearGradient>
    <linearGradient id="linear-gradient1" x1="94.2" y1="47.8" x2="79.5" y2="113.6" gradientUnits="userSpaceOnUse">
      <stop offset=".3" stop-color="#f76400"/>
      <stop offset="1" stop-color="#911617"/>
    </linearGradient>
    <linearGradient id="linear-gradient2" x1="52.6" y1="154.7" x2="121.8" y2="119.9" gradientUnits="userSpaceOnUse">
      <stop offset=".3" stop-color="#f76400"/>
      <stop offset="1" stop-color="#931816"/>
    </linearGradient>
    <linearGradient id="linear-gradient3" x1="154.1" y1="131.7" x2="124.6" y2="71" gradientUnits="userSpaceOnUse">
      <stop offset=".2" stop-color="#f76400"/>
      <stop offset="1" stop-color="#911617"/>
    </linearGradient>
    <linearGradient id="linear-gradient4" x1="100" y1="114.7" x2="100" y2="140.9" xlink:href="#linear-gradient1"/>
  </defs>
  <g class="st5">
    <g id="Layer_1">
      <rect class="st7" x="42.7" y="52.3" width="114.6" height="105.3" rx="15.3" ry="15.3"/>
      <image width="822" height="560" transform="translate(-8092 -8092)" xlink:href="channel-1.png"/>
      <image width="822" height="560" transform="translate(-240.3 -287.2)" xlink:href="channel-2.png"/>
      <g class="st9">
        <circle class="st1" cx="101.6" cy="62.5" r="12.4"/>
        <path class="st1" d="M87.7,25.4c-1.4-2.6-4.6-3.6-7.2-2.3s-3.6,4.6-2.3,7.2,2.7,2.8,4.6,2.8l20.4,39.2,4.5-2.4-20.4-39.2c1-1.6,1.2-3.6.3-5.4Z"/>
        <path class="st1" d="M131.2,40.4c2-2.1,2-5.5-.2-7.5s-5.5-2-7.5.2-1.8,3.5-1.2,5.3l-30.6,32,3.7,3.5,30.6-32c1.8.5,3.8,0,5.2-1.4Z"/>
      </g>
      <g>
        <g>
          <path class="st2" d="M110.9,58.6c0,5.3-4.3,9.6-9.6,9.6s-9.6-4.3-9.6-9.6,17.8-13.6,23.1-13.6-3.9,8.3-3.9,13.6Z"/>
          <g>
            <path class="st4" d="M89.6,109.4c3.2-3.7,6.8-8.4,10.8-13.9,8.9-11.9,9.9-28.3,34.9-38.8H57.6c-5.9,0-10.7,4.8-10.7,10.7v69.3c12.4-3.5,28.5-10.9,42.7-27.2Z"/>
            <path class="st0" d="M103.2,90.4c-1.1,1.5-3.2,5.7-4.3,7.1-4.1,5.5-5.6,7.9-8.9,11.5-14.6,15.7-30.6,24.1-43,27.6v5.8c0,5.9,4.8,10.7,10.7,10.7h75.4c.2-16.9-5.8-40.3-29.8-62.7Z"/>
            <path class="st8" d="M142.4,56.6h-7c-20.9,8.4-27.2,23-31.4,34.2,12.3,12.4,21.2,25.7,25.6,39.4,2.4,7.5,3.5,15.1,3.4,22.8h9.4c5.9,0,10.7-4.8,10.7-10.7v-75.1c0-5.9-4.8-10.7-10.7-10.7Z"/>
          </g>
          <path class="st3" d="M124,109l-32.3,18.7c-6.4,3.7-14.5-.9-14.5-8.4v-37.3c0-7.4,8-12.1,14.5-8.4l32.3,18.7c6.4,3.7,6.4,13,0,16.7Z"/>
        </g>
        <path class="st6" d="M135.3,140.6c.3-.6.3-1.3.1-2-.4-1.3-1.2-2.4-2.3-3.2-1-.7-2.3-1-4-1s-1.3,0-1.9.2c0-1.6-1.3-3-3-3h-2c-1.7,0-3,1.3-3,3h0c-.7-.1-1.5-.2-2.3-.2-1.5,0-2.8.4-3.9,1.3-.4-.3-.8-.6-1.3-.8-.8-.3-1.6-.5-2.4-.5s-1.2,0-1.8.3c-.2,0-.5,0-.7,0h-1.9c-.6,0-1.2.2-1.7.6-.2,0-.3-.2-.5-.2-.8-.3-1.6-.5-2.4-.5s-1.2,0-1.8.3c-.2,0-.5,0-.7,0h-1.9c-.6,0-1.2.2-1.7.6,0,0-.1,0-.2-.1-.9-.4-1.9-.6-3.3-.6s-3,.4-4,1.1c0,0,0,0-.1.1-.3-.2-.7-.5-1.1-.6-.6-.3-1.2-.4-1.9-.5-.1-1.6-1.4-2.8-3-2.8h-2c-.8,0-1.6.3-2.1.9-1.2-.7-2.5-1.1-4-1.1-2.3,0-4.3.8-5.8,2.4-1.4,1.5-2.2,3.6-2.2,6.2s.7,4.5,2.2,6c1.5,1.6,3.4,2.4,5.7,2.4s2.9-.4,4.1-1.1c.5.6,1.3.9,2.2.9h2c.5,0,1-.1,1.5-.4.4.2.9.4,1.5.4h2c.5,0,1-.2,1.5-.4.7.3,1.5.6,2.6.6s1.3,0,1.9-.3c.3,0,.5.1.8.1h2c.3,0,.5,0,.8-.1.2,0,.5.1.8.1h2c.5,0,1-.1,1.5-.4.4.2.9.4,1.5.4h2c.4,0,.7,0,1-.2.3.1.7.2,1,.2h2c.5,0,1-.1,1.5-.4.4.2.9.4,1.5.4h2c.7,0,1.3-.2,1.8-.6.9.5,2,.8,3.4.8s2.3-.3,3.3-.8c.5.4,1.1.6,1.8.6h2c.6,0,1.2-.2,1.7-.5,1,.5,2.1.7,3.4.7,1.9,0,3.4-.5,4.6-1.5,1.2-1.1,1.9-2.5,1.9-4.1s-.2-1.6-.5-2.3Z"/>
        <g>
          <path class="st3" d="M74.4,141.3l2.1.7c-.3,1.2-.9,2-1.6,2.6-.7.6-1.7.8-2.8.8s-2.6-.5-3.5-1.5c-.9-1-1.4-2.3-1.4-4s.5-3.2,1.4-4.1c.9-1,2.1-1.5,3.6-1.5s2.4.4,3.2,1.2c.5.5.8,1.1,1.1,2l-2.1.5c-.1-.6-.4-1-.8-1.3-.4-.3-.9-.5-1.5-.5s-1.4.3-1.9.8c-.5.6-.7,1.5-.7,2.8s.2,2.3.7,2.9c.5.6,1.1.9,1.9.9s1.1-.2,1.5-.5c.4-.4.7-.9.9-1.7Z"/>
          <path class="st3" d="M80.4,134.6v3.9c.7-.8,1.4-1.2,2.4-1.2s.9,0,1.3.3c.4.2.7.4.9.7s.3.6.4.9c0,.3.1.8.1,1.5v4.5h-2v-4.1c0-.8,0-1.3-.1-1.5,0-.2-.2-.4-.4-.5-.2-.1-.4-.2-.7-.2s-.6,0-.9.2c-.3.2-.5.4-.6.7s-.2.8-.2,1.5v3.9h-2v-10.7h2Z"/>
          <path class="st3" d="M88.9,139.9l-1.9-.3c.2-.7.6-1.3,1.1-1.7.5-.4,1.3-.5,2.3-.5s1.6.1,2,.3.8.5.9.8.3.9.3,1.8v2.4c0,.7,0,1.2,0,1.5s.2.7.4,1h-2c0-.1-.1-.3-.2-.6,0-.1,0-.2,0-.2-.3.3-.7.6-1.1.8-.4.2-.8.3-1.3.3-.8,0-1.4-.2-1.9-.6-.5-.4-.7-1-.7-1.6s.1-.8.3-1.2c.2-.3.5-.6.9-.8.4-.2.9-.3,1.6-.5,1-.2,1.6-.3,2-.5v-.2c0-.4,0-.7-.3-.8s-.6-.3-1.1-.3-.6,0-.9.2c-.2.1-.4.4-.5.8ZM91.7,141.6c-.3,0-.7.2-1.2.3s-.9.2-1.1.4c-.3.2-.4.4-.4.7s.1.5.3.7c.2.2.5.3.8.3s.7-.1,1.1-.4c.2-.2.4-.4.5-.7,0-.2,0-.5,0-1v-.4Z"/>
          <path class="st3" d="M102.7,145.3h-2v-3.9c0-.8,0-1.4-.1-1.6,0-.2-.2-.4-.4-.6s-.4-.2-.7-.2-.7,0-1,.3c-.3.2-.5.5-.6.8-.1.3-.2.9-.2,1.8v3.5h-2v-7.7h1.9v1.1c.7-.9,1.5-1.3,2.5-1.3s.9,0,1.2.2c.4.2.7.4.8.6s.3.5.4.9c0,.3.1.8.1,1.4v4.8Z"/>
          <path class="st3" d="M111.8,145.3h-2v-3.9c0-.8,0-1.4-.1-1.6,0-.2-.2-.4-.4-.6s-.4-.2-.7-.2-.7,0-1,.3c-.3.2-.5.5-.6.8-.1.3-.2.9-.2,1.8v3.5h-2v-7.7h1.9v1.1c.7-.9,1.5-1.3,2.5-1.3s.9,0,1.2.2c.4.2.7.4.8.6s.3.5.4.9c0,.3.1.8.1,1.4v4.8Z"/>
          <path class="st3" d="M118.3,142.8l2,.3c-.3.7-.7,1.3-1.2,1.7-.6.4-1.3.6-2.1.6-1.3,0-2.3-.4-3-1.3-.5-.7-.8-1.6-.8-2.7s.3-2.3,1-3c.7-.7,1.5-1.1,2.5-1.1s2.1.4,2.7,1.1c.7.8,1,1.9,1,3.5h-5.1c0,.6.2,1.1.5,1.4.3.3.7.5,1.2.5s.6,0,.8-.3c.2-.2.4-.5.5-.8ZM118.5,140.7c0-.6-.2-1-.5-1.3-.3-.3-.6-.5-1.1-.5s-.8.2-1.1.5c-.3.3-.4.8-.4,1.3h3.1Z"/>
          <path class="st3" d="M122.2,145.3v-10.7h2v10.7h-2Z"/>
          <path class="st3" d="M125.6,143.1l2-.3c0,.4.3.7.5.9.3.2.6.3,1.1.3s.9,0,1.2-.3c.2-.1.3-.3.3-.5s0-.3-.1-.4c-.1,0-.3-.2-.7-.3-1.6-.4-2.7-.7-3.1-1-.6-.4-.9-1-.9-1.7s.3-1.2.8-1.7c.5-.5,1.3-.7,2.5-.7s1.8.2,2.4.5c.5.3.9.9,1.1,1.5l-1.9.4c0-.3-.2-.5-.5-.7-.2-.2-.6-.2-1-.2s-.9,0-1.2.2c-.2.1-.2.2-.2.4s0,.3.2.4c.2.1.8.3,1.9.6s1.8.5,2.3.9c.4.4.6.9.6,1.5s-.3,1.3-.9,1.8c-.6.5-1.5.8-2.6.8s-1.9-.2-2.5-.6c-.6-.4-1-1-1.2-1.7Z"/>
        </g>
      </g>
    </g>
  </g>
</svg>