<?xml version="1.0" encoding="utf-8"?>
<!-- Generator: Adobe Illustrator 25.2.1, SVG Export Plug-In . SVG Version: 6.00 Build 0)  -->
<svg version="1.1" id="Layer_1" xmlns="http://www.w3.org/2000/svg" xmlns:xlink="http://www.w3.org/1999/xlink" x="0px" y="0px"
	 viewBox="0 0 200 200" style="enable-background:new 0 0 200 200;" xml:space="preserve">
<style type="text/css">
	.st0{display:none;}
	.st1{display:inline;}
	.st2{fill:url(#SVGID_1_);}
	.st3{fill:url(#SVGID_2_);}
	.st4{fill:url(#SVGID_3_);}
	.st5{fill:url(#SVGID_4_);}
	.st6{fill:url(#SVGID_5_);}
	.st7{fill:url(#SVGID_6_);}
	.st8{fill:url(#SVGID_7_);}
	.st9{fill:url(#SVGID_8_);}
	.st10{fill:#FFFFFF;}
	.st11{fill:url(#SVGID_9_);}
	.st12{fill:url(#SVGID_10_);}
	.st13{fill:url(#SVGID_11_);}
	.st14{fill:url(#SVGID_12_);}
	.st15{fill:url(#SVGID_13_);}
	.st16{fill:url(#SVGID_14_);}
	.st17{fill:url(#SVGID_15_);}
	.st18{fill:#3550A2;}
	.st19{display:inline;fill:url(#SVGID_16_);}
	.st20{display:inline;fill:url(#SVGID_17_);}
	.st21{display:inline;fill:#A2A2A3;}
	.st22{display:inline;fill:#C6C5C5;}
	.st23{display:inline;fill:#FFFFFF;}
	.st24{fill:url(#SVGID_18_);}
	.st25{display:none;fill:url(#SVGID_19_);}
	.st26{fill:url(#SVGID_20_);}
	.st27{fill:url(#SVGID_21_);}
	.st28{display:inline;fill:url(#SVGID_22_);}
	.st29{display:inline;fill:url(#SVGID_23_);}
	.st30{fill:url(#SVGID_24_);}
	.st31{fill:url(#SVGID_25_);}
	.st32{fill:url(#SVGID_26_);}
	.st33{fill:url(#SVGID_27_);}
	.st34{fill:url(#SVGID_28_);}
	.st35{fill:url(#SVGID_29_);}
	.st36{fill:#231F20;}
	.st37{font-family:'GillSansMT';}
	.st38{font-size:32.6424px;}
	.st39{fill:#020202;}
	.st40{font-family:'Microsoft-Himalaya';}
	.st41{font-size:73.2166px;}
	.st42{fill:url(#SVGID_30_);}
	.st43{fill:url(#SVGID_31_);}
	.st44{fill:url(#SVGID_32_);}
	.st45{fill:url(#SVGID_33_);}
	.st46{fill:url(#SVGID_34_);}
	.st47{fill:url(#SVGID_35_);}
	.st48{display:inline;fill:#F06132;}
	.st49{display:inline;fill:#77A6D8;}
	.st50{display:inline;fill:#F0E4D8;}
	.st51{display:inline;fill:none;stroke:#F0E4D8;stroke-width:2;stroke-miterlimit:10;}
	.st52{display:inline;fill:#070505;}
	.st53{display:inline;fill:url(#SVGID_36_);}
	.st54{display:inline;fill:url(#SVGID_37_);}
	.st55{display:inline;fill:url(#SVGID_38_);}
	.st56{display:inline;fill:url(#SVGID_39_);}
	.st57{display:inline;fill:url(#SVGID_40_);}
	.st58{display:inline;fill:url(#SVGID_41_);}
	.st59{display:inline;fill:url(#SVGID_42_);}
	.st60{display:inline;fill:url(#SVGID_43_);}
	.st61{display:inline;fill:url(#SVGID_44_);}
	.st62{display:inline;fill:url(#SVGID_45_);}
	.st63{display:inline;fill:url(#SVGID_46_);}
	.st64{display:inline;fill:url(#SVGID_47_);}
	.st65{display:inline;fill:url(#SVGID_48_);}
	.st66{display:inline;fill:url(#SVGID_49_);}
	.st67{display:inline;fill:#FCD33E;}
	.st68{display:inline;fill:url(#SVGID_50_);}
	.st69{display:inline;fill:url(#SVGID_51_);}
	.st70{display:inline;fill:url(#SVGID_52_);}
	.st71{display:inline;fill:url(#SVGID_53_);}
	.st72{display:inline;fill:url(#SVGID_54_);}
	.st73{display:inline;fill:#5FBD7E;}
	.st74{display:inline;fill:url(#SVGID_55_);}
	.st75{display:inline;fill:url(#SVGID_56_);}
	.st76{display:inline;fill:url(#SVGID_57_);}
	.st77{display:inline;fill:url(#SVGID_58_);}
	.st78{display:inline;fill:url(#SVGID_59_);}
	.st79{display:inline;fill:url(#SVGID_60_);}
	.st80{display:inline;fill:url(#SVGID_61_);}
	.st81{display:inline;fill:url(#SVGID_62_);}
	.st82{display:inline;fill:url(#SVGID_63_);}
	.st83{display:inline;fill:url(#SVGID_64_);}
	.st84{fill:#FF8939;}
	.st85{fill:url(#SVGID_65_);}
	.st86{fill:url(#SVGID_66_);}
	.st87{fill:url(#SVGID_67_);}
	.st88{fill:url(#SVGID_68_);}
	.st89{fill:#092B3B;}
	.st90{fill:#FF8E42;}
	.st91{fill:url(#SVGID_69_);}
	.st92{fill:#FCC5DA;}
	.st93{fill:url(#SVGID_70_);}
	.st94{fill:url(#SVGID_71_);}
	.st95{fill:url(#SVGID_72_);}
	.st96{fill:url(#SVGID_73_);}
</style>
<g id="digipal" class="st0">
	<g id="Digipal" class="st1">
		<g>
			<linearGradient id="SVGID_1_" gradientUnits="userSpaceOnUse" x1="36.6413" y1="49.1322" x2="31.1771" y2="84.0322">
				<stop  offset="0" style="stop-color:#FFFFFF"/>
				<stop  offset="1" style="stop-color:#000000"/>
			</linearGradient>
			<path class="st2" d="M44.1,50.3v33.1h-7v-1.8c-1.8,1.5-3.9,2.2-6.2,2.2c-3,0-5.5-1.1-7.5-3.3c-2-2.2-3-5-3-8.3c0-3.4,1-6.2,3-8.4
				c2-2.2,4.6-3.3,7.8-3.3c2,0,3.9,0.5,5.8,1.4V50.3H44.1z M37.1,77.3V66.6c-1.3-0.9-2.6-1.3-3.9-1.3c-1.8,0-3.1,0.6-4.1,1.8
				c-1,1.2-1.5,3-1.5,5.2c0,2.1,0.5,3.7,1.5,4.9c1,1.2,2.3,1.9,3.9,1.9C34.4,79.1,35.8,78.5,37.1,77.3z"/>
			<linearGradient id="SVGID_2_" gradientUnits="userSpaceOnUse" x1="62.1433" y1="50.222" x2="56.926" y2="83.5456">
				<stop  offset="0" style="stop-color:#FFFFFF"/>
				<stop  offset="1" style="stop-color:#000000"/>
			</linearGradient>
			<path class="st3" d="M55.6,53.7c0-1.1,0.4-2,1.1-2.7c0.8-0.8,1.7-1.1,2.7-1.1c1.1,0,2,0.4,2.8,1.1c0.8,0.8,1.1,1.7,1.1,2.7
				c0,1.1-0.4,2-1.1,2.7c-0.8,0.8-1.7,1.1-2.8,1.1s-2-0.4-2.7-1.1C55.9,55.7,55.6,54.8,55.6,53.7z M63,61v22.4h-7V61H63z"/>
			<linearGradient id="SVGID_3_" gradientUnits="userSpaceOnUse" x1="86.9059" y1="59.6231" x2="81.4218" y2="94.651">
				<stop  offset="0" style="stop-color:#FFFFFF"/>
				<stop  offset="1" style="stop-color:#000000"/>
			</linearGradient>
			<path class="st4" d="M95.7,61v4.7h-3.2c0.7,1.3,1.1,2.5,1.1,3.7c0,1.7-0.6,3.3-1.9,4.8s-3.2,2.3-5.7,2.6c-2.5,0.3-4,0.5-4.3,0.8
				c-0.3,0.2-0.5,0.6-0.5,1s0.2,0.7,0.7,1c0.4,0.2,2.2,0.5,5.2,0.8s5.2,1.1,6.4,2.4c1.2,1.3,1.8,2.8,1.8,4.3c0,2.4-1,4.3-3,5.6
				c-2,1.3-5,1.9-8.8,1.9c-3.9,0-6.9-0.6-8.9-1.8c-2-1.2-3-2.8-3-4.7c0-2.7,2-4.6,6-5.7c-1.8-0.5-2.7-1.5-2.7-2.9
				c0-1.6,1.4-2.8,4.1-3.4c-1.8-0.3-3.3-1.1-4.5-2.4s-1.8-2.8-1.8-4.5c0-2.1,0.9-4,2.6-5.7c1.7-1.6,4.2-2.5,7.4-2.5L95.7,61z
				 M83.6,90.4c1.5,0,2.7-0.3,3.7-0.8c0.9-0.6,1.4-1.2,1.4-2c0-1.6-1.8-2.5-5.5-2.5c-1.7,0-3,0.2-3.9,0.7s-1.4,1.1-1.4,1.9
				C77.8,89.5,79.8,90.4,83.6,90.4z M83,65.2c-1.1,0-2.1,0.4-2.9,1.2c-0.8,0.8-1.2,1.8-1.2,2.9s0.4,2,1.2,2.8
				c0.8,0.8,1.8,1.2,2.9,1.2s2-0.4,2.8-1.3c0.8-0.8,1.2-1.8,1.2-3c0-1.1-0.4-2-1.1-2.7C85.1,65.6,84.2,65.2,83,65.2z"/>
			<linearGradient id="SVGID_4_" gradientUnits="userSpaceOnUse" x1="110.4435" y1="50.2213" x2="105.2261" y2="83.5449">
				<stop  offset="0" style="stop-color:#FFFFFF"/>
				<stop  offset="1" style="stop-color:#000000"/>
			</linearGradient>
			<path class="st5" d="M103.9,53.7c0-1.1,0.4-2,1.1-2.7c0.8-0.8,1.7-1.1,2.7-1.1c1.1,0,2,0.4,2.8,1.1c0.8,0.8,1.1,1.7,1.1,2.7
				c0,1.1-0.4,2-1.1,2.7c-0.8,0.8-1.7,1.1-2.8,1.1c-1.1,0-2-0.4-2.7-1.1C104.2,55.7,103.9,54.8,103.9,53.7z M111.3,61v22.4h-7V61
				H111.3z"/>
		</g>
		<g>
			<linearGradient id="SVGID_5_" gradientUnits="userSpaceOnUse" x1="49.0365" y1="110.4016" x2="45.4197" y2="133.502">
				<stop  offset="0" style="stop-color:#FFFFFF"/>
				<stop  offset="1" style="stop-color:#000000"/>
			</linearGradient>
			<path class="st6" d="M39.9,110.6h9.8c2.2,0,4,0.6,5.3,1.9s2,2.8,2,4.6c0,1.8-0.6,3.4-1.9,4.7c-1.3,1.3-3.1,2-5.3,2h-4.4v8.8h-5.5
				L39.9,110.6z M45.4,114.7v5.1H48c2.3,0,3.4-0.9,3.4-2.6c0-1-0.3-1.6-0.9-2c-0.6-0.4-1.6-0.6-3.1-0.6L45.4,114.7L45.4,114.7z"/>
		</g>
		<g>
			<linearGradient id="SVGID_6_" gradientUnits="userSpaceOnUse" x1="104.9218" y1="110.7449" x2="101.196" y2="134.5414">
				<stop  offset="0" style="stop-color:#FFFFFF"/>
				<stop  offset="1" style="stop-color:#000000"/>
			</linearGradient>
			<path class="st7" d="M104.2,110.6l9.8,22h-5.9l-1.8-4.3h-9.9l-1.6,4.3H89l8.9-22C97.9,110.6,104.2,110.6,104.2,110.6z
				 M104.7,124.4l-3.6-8.6l-3.2,8.6H104.7z"/>
		</g>
		<g>
			<linearGradient id="SVGID_7_" gradientUnits="userSpaceOnUse" x1="156.2063" y1="111.3405" x2="152.7126" y2="133.6546">
				<stop  offset="0" style="stop-color:#FFFFFF"/>
				<stop  offset="1" style="stop-color:#000000"/>
			</linearGradient>
			<path class="st8" d="M163,128.6v4h-16.8v-22h5.5v18H163z"/>
		</g>
		<linearGradient id="SVGID_8_" gradientUnits="userSpaceOnUse" x1="105.7327" y1="80.6173" x2="90.1659" y2="180.0431">
			<stop  offset="0" style="stop-color:#FFFFFF"/>
			<stop  offset="1" style="stop-color:#000000"/>
		</linearGradient>
		<path class="st9" d="M126.4,130.8l1-8.9c0-0.3-0.2-0.5-0.4-0.6l-4.1-0.5c-0.2,0-0.4-0.2-0.4-0.4c-0.3-2.6-1.1-5.1-2.2-7.4
			c-0.1-0.2-0.1-0.5,0.1-0.6l3.2-2.7c0.2-0.2,0.2-0.5,0.1-0.7l-5.8-6.9c-0.2-0.2-0.5-0.2-0.7-0.1l-3.2,2.7c-0.2,0.1-0.4,0.2-0.6,0
			c-1.6-1.2-3.4-2.2-5.3-2.9c-0.2-0.1-0.3-0.3-0.3-0.5l0.6-4.1c0-0.3-0.2-0.5-0.4-0.6l-8.9-1.2c-0.3,0-0.5,0.2-0.6,0.4l-0.6,4.1
			c0,0.2-0.2,0.4-0.4,0.4c-2,0.2-3.9,0.6-5.7,1.3c-0.2,0.1-0.5,0-0.6-0.2l-2.3-3.5c-0.2-0.2-0.5-0.3-0.7-0.1l-7.5,5
			c-0.2,0.2-0.3,0.5-0.1,0.7l2.3,3.5c0.1,0.2,0.1,0.4,0,0.6c-2.1,2.2-3.7,4.9-4.7,7.8c-0.1,0.2-0.3,0.4-0.5,0.3l-4.1-0.5
			c-0.3,0-0.5,0.2-0.6,0.4l-1,8.9c0,0.3,0.2,0.5,0.4,0.6l4.1,0.5c0.2,0,0.4,0.2,0.4,0.4c0.3,2.6,1.1,5.1,2.2,7.4
			c0.1,0.2,0.1,0.5-0.1,0.6l-3.2,2.7c-0.2,0.2-0.2,0.5-0.1,0.7l5.8,6.9c0.2,0.2,0.5,0.2,0.7,0.1l3.2-2.7c0.2-0.1,0.4-0.2,0.6,0
			c1.6,1.2,3.4,2.2,5.3,2.9c0.2,0.1,0.3,0.3,0.3,0.5l-0.6,4.1c0,0.3,0.2,0.5,0.4,0.6l8.9,1.2c0.3,0,0.5-0.2,0.6-0.4l0.6-4.1
			c0-0.2,0.2-0.4,0.4-0.4c2-0.2,3.9-0.6,5.7-1.3c0.2-0.1,0.5,0,0.6,0.2l2.3,3.5c0.2,0.2,0.5,0.3,0.7,0.1l7.5-5
			c0.2-0.2,0.3-0.5,0.1-0.7l-2.3-3.5c-0.1-0.2-0.1-0.4,0-0.6c2.1-2.2,3.7-4.9,4.7-7.8c0.1-0.2,0.3-0.4,0.5-0.3l4.1,0.5
			C126.1,131.2,126.4,131,126.4,130.8z M101.4,141.2c-11.4,1.1-20.9-8.4-19.7-19.7c0.8-8.4,7.6-15.2,16.1-16.1
			c11.4-1.1,20.9,8.4,19.7,19.7C116.6,133.6,109.8,140.4,101.4,141.2z M176.2,136.1l2.8-8.6c0.1-0.3-0.1-0.5-0.3-0.6l-4-1.3
			c-0.2-0.1-0.4-0.3-0.3-0.5c0.2-2.6,0-5.2-0.7-7.7c-0.1-0.2,0-0.5,0.2-0.6l3.7-2c0.2-0.1,0.3-0.4,0.2-0.7l-4.3-7.9
			c-0.1-0.2-0.4-0.3-0.7-0.2l-3.7,2c-0.2,0.1-0.4,0.1-0.6-0.1c-1.3-1.5-2.9-2.8-4.6-3.9c-0.2-0.1-0.3-0.4-0.2-0.6l1.4-3.9
			c0.1-0.3,0-0.5-0.3-0.6l-8.5-3c-0.3-0.1-0.5,0-0.6,0.3l-1.4,3.9c-0.1,0.2-0.3,0.3-0.5,0.3c-2-0.2-3.9-0.2-5.8,0.1
			c-0.2,0-0.4-0.1-0.5-0.3l-1.6-3.9c-0.1-0.3-0.4-0.4-0.7-0.3l-8.3,3.4c-0.3,0.1-0.4,0.4-0.3,0.7l1.6,3.9c0.1,0.2,0,0.5-0.2,0.6
			c-2.5,1.8-4.6,4-6.2,6.7c-0.1,0.2-0.4,0.3-0.6,0.2l-4-1.3c-0.3-0.1-0.5,0.1-0.6,0.3l-2.8,8.6c-0.1,0.3,0.1,0.5,0.3,0.6l4,1.3
			c0.2,0.1,0.4,0.3,0.3,0.5c-0.2,2.6,0,5.2,0.7,7.7c0.1,0.2,0,0.5-0.2,0.6l-3.7,2c-0.2,0.1-0.3,0.4-0.2,0.7l4.3,7.9
			c0.1,0.2,0.4,0.3,0.7,0.2l3.7-2c0.2-0.1,0.4-0.1,0.6,0.1c1.3,1.5,2.9,2.8,4.6,3.9c0.2,0.1,0.3,0.4,0.2,0.6l-1.4,3.9
			c-0.1,0.3,0,0.5,0.3,0.6l8.5,3c0.3,0.1,0.5,0,0.6-0.3l1.4-3.9c0.1-0.2,0.3-0.3,0.5-0.3c2,0.2,3.9,0.2,5.8-0.1
			c0.2,0,0.4,0.1,0.5,0.3l1.6,3.9c0.1,0.3,0.4,0.4,0.7,0.3l8.3-3.4c0.3-0.1,0.4-0.4,0.3-0.7l-1.6-3.9c-0.1-0.2,0-0.5,0.2-0.6
			c2.5-1.8,4.6-4,6.2-6.7c0.1-0.2,0.4-0.3,0.6-0.2l4,1.3C175.8,136.5,176.1,136.3,176.2,136.1z M149.6,141.2
			c-11.4-1.2-18.7-12.4-15.3-23.4c2.5-8.1,10.6-13.4,19-12.5c11.4,1.2,18.7,12.4,15.3,23.4C166.1,136.8,158,142.1,149.6,141.2z
			 M71.5,136.1l2.8-8.6c0.1-0.3-0.1-0.5-0.3-0.6l-4-1.3c-0.2-0.1-0.4-0.3-0.3-0.5c0.2-2.6,0-5.2-0.7-7.7c-0.1-0.2,0-0.5,0.2-0.6
			l3.7-2c0.2-0.1,0.3-0.4,0.2-0.7l-4.3-7.9c-0.1-0.2-0.4-0.3-0.7-0.2l-3.7,2c-0.2,0.1-0.4,0.1-0.6-0.1c-1.3-1.5-2.9-2.8-4.6-3.9
			c-0.2-0.1-0.3-0.4-0.2-0.6l1.4-3.9c0.1-0.3,0-0.5-0.3-0.6l-8.5-3c-0.3-0.1-0.5,0-0.6,0.3l-1.4,3.9c-0.1,0.2-0.3,0.3-0.5,0.3
			c-2-0.2-3.9-0.2-5.8,0.1c-0.2,0-0.4-0.1-0.5-0.3l-1.6-3.9c-0.1-0.3-0.4-0.4-0.7-0.3l-8.3,3.4c-0.3,0.1-0.4,0.4-0.3,0.7l1.6,3.9
			c0.1,0.2,0,0.5-0.2,0.6c-2.5,1.8-4.6,4-6.2,6.7c-0.1,0.2-0.4,0.3-0.6,0.2l-4-1.3c-0.3-0.1-0.5,0.1-0.6,0.3l-2.8,8.6
			c-0.1,0.3,0.1,0.5,0.3,0.6l4,1.3c0.2,0.1,0.4,0.3,0.3,0.5c-0.2,2.6,0,5.2,0.7,7.7c0.1,0.2,0,0.5-0.2,0.6l-3.7,2
			c-0.2,0.1-0.3,0.4-0.2,0.7l4.3,7.9c0.1,0.2,0.4,0.3,0.7,0.2l3.7-2c0.2-0.1,0.4-0.1,0.6,0.1c1.3,1.5,2.9,2.8,4.6,3.9
			c0.2,0.1,0.3,0.4,0.2,0.6l-1.4,3.9c-0.1,0.3,0,0.5,0.3,0.6l8.5,3c0.3,0.1,0.5,0,0.6-0.3l1.4-3.9c0.1-0.2,0.3-0.3,0.5-0.3
			c2,0.2,3.9,0.2,5.8-0.1c0.2,0,0.4,0.1,0.5,0.3l1.6,3.9c0.1,0.3,0.4,0.4,0.7,0.3l8.3-3.4c0.3-0.1,0.4-0.4,0.3-0.7l-1.6-3.9
			c-0.1-0.2,0-0.5,0.2-0.6c2.5-1.8,4.6-4,6.2-6.7c0.1-0.2,0.4-0.3,0.6-0.2l4,1.3C71.2,136.5,71.5,136.3,71.5,136.1z M44.9,141.2
			c-11.4-1.2-18.7-12.4-15.3-23.4c2.5-8.1,10.6-13.4,19-12.5c11.4,1.2,18.7,12.4,15.3,23.4C61.4,136.8,53.3,142.1,44.9,141.2z"/>
		<path class="st10" d="M128.2,129.2l1-8.9c0-0.3-0.2-0.5-0.4-0.6l-4.1-0.5c-0.2,0-0.4-0.2-0.4-0.4c-0.3-2.6-1.1-5.1-2.2-7.4
			c-0.1-0.2-0.1-0.5,0.1-0.6l3.2-2.7c0.2-0.2,0.2-0.5,0.1-0.7l-5.8-6.9c-0.2-0.2-0.5-0.2-0.7-0.1l-3.2,2.7c-0.2,0.1-0.4,0.2-0.6,0
			c-1.6-1.2-3.4-2.2-5.3-2.9c-0.2-0.1-0.3-0.3-0.3-0.5l0.6-4.1c0-0.3-0.2-0.5-0.4-0.6l-8.9-1.2c-0.3,0-0.5,0.2-0.6,0.4l-0.6,4.1
			c0,0.2-0.2,0.4-0.4,0.4c-2,0.2-3.9,0.6-5.7,1.3c-0.2,0.1-0.5,0-0.6-0.2l-2.3-3.5c-0.2-0.2-0.5-0.3-0.7-0.1l-7.5,5
			c-0.2,0.2-0.3,0.5-0.1,0.7l2.3,3.5c0.1,0.2,0.1,0.4,0,0.6c-2.1,2.2-3.7,4.9-4.7,7.8c-0.1,0.2-0.3,0.4-0.5,0.3l-4.1-0.5
			c-0.3,0-0.5,0.2-0.6,0.4l-1,8.9c0,0.3,0.2,0.5,0.4,0.6l4.1,0.5c0.2,0,0.4,0.2,0.4,0.4c0.3,2.6,1.1,5.1,2.2,7.4
			c0.1,0.2,0.1,0.5-0.1,0.6l-3.2,2.7c-0.2,0.2-0.2,0.5-0.1,0.7l5.8,6.9c0.2,0.2,0.5,0.2,0.7,0.1l3.2-2.7c0.2-0.1,0.4-0.2,0.6,0
			c1.6,1.2,3.4,2.2,5.3,2.9c0.2,0.1,0.3,0.3,0.3,0.5l-0.6,4.1c0,0.3,0.2,0.5,0.4,0.6l8.9,1.2c0.3,0,0.5-0.2,0.6-0.4l0.6-4.1
			c0-0.2,0.2-0.4,0.4-0.4c2-0.2,3.9-0.6,5.7-1.3c0.2-0.1,0.5,0,0.6,0.2l2.3,3.5c0.2,0.2,0.5,0.3,0.7,0.1l7.5-5
			c0.2-0.2,0.3-0.5,0.1-0.7l-2.3-3.5c-0.1-0.2-0.1-0.4,0-0.6c2.1-2.2,3.7-4.9,4.7-7.8c0.1-0.2,0.3-0.4,0.5-0.3l4.1,0.5
			C127.9,129.7,128.2,129.5,128.2,129.2z M103.2,139.7c-11.4,1.1-20.9-8.4-19.7-19.7c0.8-8.4,7.6-15.2,16.1-16.1
			c11.4-1.1,20.9,8.4,19.7,19.7C118.4,132,111.6,138.9,103.2,139.7z M178,134.6l2.8-8.6c0.1-0.3-0.1-0.5-0.3-0.6l-4-1.3
			c-0.2-0.1-0.4-0.3-0.3-0.5c0.2-2.6,0-5.2-0.7-7.7c-0.1-0.2,0-0.5,0.2-0.6l3.7-2c0.2-0.1,0.3-0.4,0.2-0.7l-4.3-7.9
			c-0.1-0.2-0.4-0.3-0.7-0.2l-3.7,2c-0.2,0.1-0.4,0.1-0.6-0.1c-1.3-1.5-2.9-2.8-4.6-3.9c-0.2-0.1-0.3-0.4-0.2-0.6l1.4-3.9
			c0.1-0.3,0-0.5-0.3-0.6l-8.5-3c-0.3-0.1-0.5,0-0.6,0.3l-1.4,3.9c-0.1,0.2-0.3,0.3-0.5,0.3c-2-0.2-3.9-0.2-5.8,0.1
			c-0.2,0-0.4-0.1-0.5-0.3l-1.6-3.9c-0.1-0.3-0.4-0.4-0.7-0.3l-8.3,3.4c-0.3,0.1-0.4,0.4-0.3,0.7l1.6,3.9c0.1,0.2,0,0.5-0.2,0.6
			c-2.5,1.8-4.6,4-6.2,6.7c-0.1,0.2-0.4,0.3-0.6,0.2l-4-1.3c-0.3-0.1-0.5,0.1-0.6,0.3l-2.8,8.6c-0.1,0.3,0.1,0.5,0.3,0.6l4,1.3
			c0.2,0.1,0.4,0.3,0.3,0.5c-0.2,2.6,0,5.2,0.7,7.7c0.1,0.2,0,0.5-0.2,0.6l-3.7,2c-0.2,0.1-0.3,0.4-0.2,0.7l4.3,7.9
			c0.1,0.2,0.4,0.3,0.7,0.2l3.7-2c0.2-0.1,0.4-0.1,0.6,0.1c1.3,1.5,2.9,2.8,4.6,3.9c0.2,0.1,0.3,0.4,0.2,0.6l-1.4,3.9
			c-0.1,0.3,0,0.5,0.3,0.6l8.5,3c0.3,0.1,0.5,0,0.6-0.3l1.4-3.9c0.1-0.2,0.3-0.3,0.5-0.3c2,0.2,3.9,0.2,5.8-0.1
			c0.2,0,0.4,0.1,0.5,0.3l1.6,3.9c0.1,0.3,0.4,0.4,0.7,0.3l8.3-3.4c0.3-0.1,0.4-0.4,0.3-0.7l-1.6-3.9c-0.1-0.2,0-0.5,0.2-0.6
			c2.5-1.8,4.6-4,6.2-6.7c0.1-0.2,0.4-0.3,0.6-0.2l4,1.3C177.6,135,177.9,134.8,178,134.6z M151.4,139.7
			c-11.4-1.2-18.7-12.4-15.3-23.4c2.5-8.1,10.6-13.4,19-12.5c11.4,1.2,18.7,12.4,15.3,23.4C167.8,135.3,159.8,140.6,151.4,139.7z
			 M73.3,134.6l2.8-8.6c0.1-0.3-0.1-0.5-0.3-0.6l-4-1.3c-0.2-0.1-0.4-0.3-0.3-0.5c0.2-2.6,0-5.2-0.7-7.7c-0.1-0.2,0-0.5,0.2-0.6
			l3.7-2c0.2-0.1,0.3-0.4,0.2-0.7l-4.3-7.9c-0.1-0.2-0.4-0.3-0.7-0.2l-3.7,2c-0.2,0.1-0.4,0.1-0.6-0.1c-1.3-1.5-2.9-2.8-4.6-3.9
			c-0.2-0.1-0.3-0.4-0.2-0.6l1.4-3.9c0.1-0.3,0-0.5-0.3-0.6l-8.5-3c-0.3-0.1-0.5,0-0.6,0.3l-1.4,3.9c-0.1,0.2-0.3,0.3-0.5,0.3
			c-2-0.2-3.9-0.2-5.8,0.1c-0.2,0-0.4-0.1-0.5-0.3L43,94.8c-0.1-0.3-0.4-0.4-0.7-0.3L34.1,98c-0.3,0.1-0.4,0.4-0.3,0.7l1.6,3.9
			c0.1,0.2,0,0.5-0.2,0.6c-2.5,1.8-4.6,4-6.2,6.7c-0.1,0.2-0.4,0.3-0.6,0.2l-4-1.3c-0.3-0.1-0.5,0.1-0.6,0.3l-2.8,8.6
			c-0.1,0.3,0.1,0.5,0.3,0.6l4,1.3c0.2,0.1,0.4,0.3,0.3,0.5c-0.2,2.6,0,5.2,0.7,7.7c0.1,0.2,0,0.5-0.2,0.6l-3.7,2
			c-0.2,0.1-0.3,0.4-0.2,0.7l4.3,7.9c0.1,0.2,0.4,0.3,0.7,0.2l3.7-2c0.2-0.1,0.4-0.1,0.6,0.1c1.3,1.5,2.9,2.8,4.6,3.9
			c0.2,0.1,0.3,0.4,0.2,0.6l-1.4,3.9c-0.1,0.3,0,0.5,0.3,0.6l8.5,3c0.3,0.1,0.5,0,0.6-0.3l1.4-3.9c0.1-0.2,0.3-0.3,0.5-0.3
			c2,0.2,3.9,0.2,5.8-0.1c0.2,0,0.4,0.1,0.5,0.3l1.6,3.9c0.1,0.3,0.4,0.4,0.7,0.3l8.3-3.4c0.3-0.1,0.4-0.4,0.3-0.7l-1.6-3.9
			c-0.1-0.2,0-0.5,0.2-0.6c2.5-1.8,4.6-4,6.2-6.7c0.1-0.2,0.4-0.3,0.6-0.2l4,1.3C73,135,73.2,134.8,73.3,134.6z M46.7,139.7
			c-11.4-1.2-18.7-12.4-15.3-23.4c2.5-8.1,10.6-13.4,19-12.5c11.4,1.2,18.7,12.4,15.3,23.4C63.2,135.3,55.1,140.6,46.7,139.7z"/>
		<g>
			<path class="st10" d="M46.1,49.3v33.1h-7v-1.8c-1.8,1.5-3.9,2.2-6.2,2.2c-3,0-5.5-1.1-7.5-3.3c-2-2.2-3-5-3-8.3
				c0-3.4,1-6.2,3-8.4c2-2.2,4.6-3.3,7.8-3.3c2,0,3.9,0.5,5.8,1.4V49.3H46.1z M39.1,76.3V65.6c-1.3-0.9-2.6-1.3-3.9-1.3
				c-1.8,0-3.1,0.6-4.1,1.8c-1,1.2-1.5,3-1.5,5.2c0,2.1,0.5,3.7,1.5,4.9c1,1.2,2.3,1.9,3.9,1.9C36.4,78.1,37.8,77.5,39.1,76.3z"/>
			<path class="st10" d="M57.6,52.7c0-1.1,0.4-2,1.1-2.7c0.8-0.8,1.7-1.1,2.7-1.1c1.1,0,2,0.4,2.8,1.1c0.8,0.8,1.1,1.7,1.1,2.7
				c0,1.1-0.4,2-1.1,2.7c-0.8,0.8-1.7,1.1-2.8,1.1s-2-0.4-2.7-1.1C57.9,54.7,57.6,53.8,57.6,52.7z M65,60v22.4h-7V60H65z"/>
			<path class="st10" d="M97.7,60v4.7h-3.2c0.7,1.3,1.1,2.5,1.1,3.7c0,1.7-0.6,3.3-1.9,4.8s-3.2,2.3-5.7,2.6c-2.5,0.3-4,0.5-4.3,0.8
				c-0.3,0.2-0.5,0.6-0.5,1s0.2,0.7,0.7,1c0.4,0.2,2.2,0.5,5.2,0.8s5.2,1.1,6.4,2.4c1.2,1.3,1.8,2.8,1.8,4.3c0,2.4-1,4.3-3,5.6
				c-2,1.3-5,1.9-8.8,1.9c-3.9,0-6.9-0.6-8.9-1.8c-2-1.2-3-2.8-3-4.7c0-2.7,2-4.6,6-5.7c-1.8-0.5-2.7-1.5-2.7-2.9
				c0-1.6,1.4-2.8,4.1-3.4c-1.8-0.3-3.3-1.1-4.5-2.4s-1.8-2.8-1.8-4.5c0-2.1,0.9-4,2.6-5.7c1.7-1.6,4.2-2.5,7.4-2.5L97.7,60z
				 M85.6,89.4c1.5,0,2.7-0.3,3.7-0.8c0.9-0.6,1.4-1.2,1.4-2c0-1.6-1.8-2.5-5.5-2.5c-1.7,0-3,0.2-3.9,0.7s-1.4,1.1-1.4,1.9
				C79.8,88.5,81.8,89.4,85.6,89.4z M85,64.2c-1.1,0-2.1,0.4-2.9,1.2c-0.8,0.8-1.2,1.8-1.2,2.9s0.4,2,1.2,2.8
				c0.8,0.8,1.8,1.2,2.9,1.2s2-0.4,2.8-1.3c0.8-0.8,1.2-1.8,1.2-3c0-1.1-0.4-2-1.1-2.7C87.1,64.6,86.2,64.2,85,64.2z"/>
			<path class="st10" d="M105.9,52.7c0-1.1,0.4-2,1.1-2.7c0.8-0.8,1.7-1.1,2.7-1.1c1.1,0,2,0.4,2.8,1.1c0.8,0.8,1.1,1.7,1.1,2.7
				c0,1.1-0.4,2-1.1,2.7c-0.8,0.8-1.7,1.1-2.8,1.1c-1.1,0-2-0.4-2.7-1.1C106.2,54.7,105.9,53.8,105.9,52.7z M113.3,60v22.4h-7V60
				H113.3z"/>
		</g>
		<g>
			<path class="st10" d="M40.9,109.6h9.8c2.2,0,4,0.6,5.3,1.9s2,2.8,2,4.6c0,1.8-0.6,3.4-1.9,4.7c-1.3,1.3-3.1,2-5.3,2h-4.4v8.8
				h-5.5L40.9,109.6z M46.4,113.7v5.1H49c2.3,0,3.4-0.9,3.4-2.6c0-1-0.3-1.6-0.9-2c-0.6-0.4-1.6-0.6-3.1-0.6L46.4,113.7L46.4,113.7z
				"/>
		</g>
		<g>
			<path class="st10" d="M105.2,109.6l9.8,22h-5.9l-1.8-4.3h-9.9l-1.6,4.3H90l8.9-22C98.9,109.6,105.2,109.6,105.2,109.6z
				 M105.7,123.4l-3.6-8.6l-3.2,8.6H105.7z"/>
		</g>
		<g>
			<path class="st10" d="M164,127.6v4h-16.8v-22h5.5v18C152.7,127.6,164,127.6,164,127.6z"/>
		</g>
	</g>
</g>
<g id="truchat" class="st0">
	<g id="truchat_1_" class="st1">
		<g>
			<linearGradient id="SVGID_9_" gradientUnits="userSpaceOnUse" x1="75.5509" y1="113.4147" x2="69.8856" y2="122.4333">
				<stop  offset="0.3966" style="stop-color:#FFFFFF"/>
				<stop  offset="1" style="stop-color:#D0CECE"/>
			</linearGradient>
			<circle class="st11" cx="71.1" cy="120.5" r="5.3"/>
			<linearGradient id="SVGID_10_" gradientUnits="userSpaceOnUse" x1="73.3026" y1="118.5128" x2="64.1177" y2="141.9743">
				<stop  offset="0.2667" style="stop-color:#FFFFFF"/>
				<stop  offset="1" style="stop-color:#D0CECE"/>
			</linearGradient>
			<path class="st12" d="M58.2,128.8c0,0,11.3,0.9,16.5-3c5.2-3.8,8.7-10.6,8.7-10.6s-1.6,11.9-7,23.2c-4.4,9.4-7.7,14.4-8.9,15.8
				c-0.1,0.1-0.4-0.1-0.4-0.1s0.7-0.5,1.3-4.2c0.6-3.7,0.8-3.8,0.8-3.8s-5.5,7.4-6.2,8.1s-0.4-0.3-0.4-0.3S77.9,131.4,58.2,128.8z"
				/>
		</g>
		<g>
			<linearGradient id="SVGID_11_" gradientUnits="userSpaceOnUse" x1="138.2117" y1="115.3501" x2="133.4292" y2="123.8618">
				<stop  offset="0.2667" style="stop-color:#FFFFFF"/>
				<stop  offset="1" style="stop-color:#D0CECE"/>
			</linearGradient>
			<circle class="st13" cx="134.7" cy="121.6" r="4.9"/>
			<linearGradient id="SVGID_12_" gradientUnits="userSpaceOnUse" x1="137.8776" y1="120.6714" x2="127.7801" y2="145.3044">
				<stop  offset="0.2667" style="stop-color:#FFFFFF"/>
				<stop  offset="1" style="stop-color:#D0CECE"/>
			</linearGradient>
			<path class="st14" d="M124.9,115.1c0,0,2.2,16.4,0.9,21.7c-1.3,5.3-8.1,16.9-8.1,16.9s8.6-8.3,11.4-8.7s10.5,8.7,10.5,8.7
				s-4.9-9.8-5.6-15.8s10.4-6.7,10.4-6.7s-9.6-1.8-13.3-4.7C127.3,123.6,124.9,115.1,124.9,115.1z"/>
		</g>
		<g>
			<linearGradient id="SVGID_13_" gradientUnits="userSpaceOnUse" x1="113.7483" y1="19.0804" x2="95.2002" y2="93.9215">
				<stop  offset="0.8373" style="stop-color:#FFFFFF"/>
				<stop  offset="1" style="stop-color:#D0CECE"/>
			</linearGradient>
			<path class="st15" d="M160,71.5c0,15.4-12.5,27.8-27.9,27.8c-1.6,0-3.2-0.1-4.7-0.4c-1.5,1-3.1,1.9-4.7,2.6
				c0.2,0.5,0.3,1.1,0.3,1.7c0,3.6-4,6.4-8.9,6.4c-4.8,0-8.7-2.7-8.9-6.2c-1.3-0.2-2.6-0.6-3.9-1c-1.7,0.5-3.5,0.7-5.4,0.7h-0.1
				c-0.6,3.1-4.3,5.6-8.9,5.6c-4.9,0-8.9-2.9-8.9-6.4c0-1.9,1.1-3.6,2.9-4.8c-0.5,0-1,0-1.4,0c-3.4,0-6.7-0.6-9.7-1.7
				c-0.5,0-1.1,0-1.6,0c-15.5,0-28.1-9-28.1-20.2c0-7.4,5.5-13.9,13.8-17.4c4.4-9.8,14.2-16.7,25.6-16.7c6.6,0,12.7,2.3,17.5,6.1
				c4.1-2.2,8.8-3.4,13.8-3.4c3.5,0,6.8,0.6,9.9,1.7c3.5-1.6,7.4-2.5,11.5-2.5C147.5,43.6,160,56.1,160,71.5z"/>
			<linearGradient id="SVGID_14_" gradientUnits="userSpaceOnUse" x1="126.968" y1="106.9704" x2="122.7262" y2="111.2707">
				<stop  offset="0.8373" style="stop-color:#FFFFFF"/>
				<stop  offset="1" style="stop-color:#D0CECE"/>
			</linearGradient>
			<ellipse class="st16" cx="122.5" cy="111.5" rx="3" ry="2.2"/>
			<linearGradient id="SVGID_15_" gradientUnits="userSpaceOnUse" x1="81.5092" y1="105.5937" x2="77.9593" y2="110.4807">
				<stop  offset="0.8373" style="stop-color:#FFFFFF"/>
				<stop  offset="1" style="stop-color:#D0CECE"/>
			</linearGradient>
			<ellipse class="st17" cx="77.8" cy="110.7" rx="3" ry="2.2"/>
		</g>
		<g>
			<path class="st10" d="M161,69.5c0,15.4-12.5,27.8-27.9,27.8c-1.6,0-3.2-0.1-4.7-0.4c-1.5,1-3.1,1.9-4.7,2.6
				c0.2,0.5,0.3,1.1,0.3,1.7c0,3.6-4,6.4-8.9,6.4c-4.8,0-8.7-2.7-8.9-6.2c-1.3-0.2-2.6-0.6-3.9-1c-1.7,0.5-3.5,0.7-5.4,0.7h-0.1
				c-0.6,3.1-4.3,5.6-8.9,5.6c-4.9,0-8.9-2.9-8.9-6.4c0-1.9,1.1-3.6,2.9-4.8c-0.5,0-1,0-1.4,0c-3.4,0-6.7-0.6-9.7-1.7
				c-0.5,0-1.1,0-1.6,0c-15.5,0-28.1-9-28.1-20.2c0-7.4,5.5-13.9,13.8-17.4c4.4-9.8,14.2-16.7,25.6-16.7c6.6,0,12.7,2.3,17.5,6.1
				c4.1-2.2,8.8-3.4,13.8-3.4c3.5,0,6.8,0.6,9.9,1.7c3.5-1.6,7.4-2.5,11.5-2.5C148.5,41.6,161,54.1,161,69.5z"/>
			<ellipse class="st10" cx="123.5" cy="109.5" rx="3" ry="2.2"/>
			<ellipse class="st10" cx="78.8" cy="108.7" rx="3" ry="2.2"/>
			<g>
				<path class="st18" d="M62.4,65.9H73v3.2h-3.5V83h-3.8V69.2h-3.4v-3.3C62.3,65.9,62.4,65.9,62.4,65.9z"/>
				<path class="st18" d="M73.3,70.4h3.1v3.1c0.6-2.1,1.6-3.2,3-3.2c0.2,0,0.4,0,0.6,0.1v3.4c-0.3,0-0.5-0.1-0.6-0.1
					c-1.7,0-2.6,1.3-2.6,3.9V83h-3.5V70.4z"/>
				<path class="st18" d="M81,70.4h3.5v8.1c0,0.8,0.1,1.4,0.2,1.6c0.1,0.3,0.5,0.4,1,0.4s0.8-0.1,1-0.3s0.4-0.5,0.4-0.9
					c0.1-0.4,0.1-1.2,0.1-2.4v-6.5h3.5V83h-3.3v-1.7c-0.5,0.9-1,1.4-1.5,1.6s-1.1,0.4-1.8,0.4c-0.9,0-1.6-0.2-2.1-0.6
					s-0.8-0.9-0.9-1.4C81,80.7,81,79.8,81,78.6V70.4z"/>
				<path class="st18" d="M102,76.8l3.5,0.2c-0.1,1.9-0.7,3.4-1.8,4.5c-1.1,1.2-2.4,1.7-4.2,1.7c-2.1,0-3.7-0.8-4.8-2.3
					c-1.1-1.6-1.7-3.7-1.7-6.4c0-2.8,0.5-4.9,1.6-6.5s2.7-2.3,4.9-2.3c3.6,0,5.5,2.2,5.8,6.6l-3.4,0.2c-0.1-2.5-0.9-3.8-2.4-3.8
					c-0.8,0-1.4,0.4-1.9,1.2c-0.5,0.8-0.7,2.4-0.7,4.8c0,2.1,0.2,3.5,0.6,4.3s1.1,1.2,1.9,1.2C101,80.2,101.8,79.1,102,76.8z"/>
				<path class="st18" d="M107.4,65.9h3.5v5.8c0.6-1.1,1.7-1.6,3.1-1.6c0.9,0,1.5,0.2,2,0.6s0.8,0.9,0.9,1.5s0.2,1.5,0.2,2.7V83
					h-3.5v-8.1c0-0.8-0.1-1.4-0.2-1.6s-0.5-0.4-1-0.4s-0.9,0.1-1.1,0.4c-0.3,0.3-0.4,0.8-0.4,1.8v8h-3.5V65.9z"/>
				<path class="st18" d="M123,74.4l-3.3-0.3c0.2-1.3,0.7-2.2,1.6-2.9s2.1-1,3.5-1c1.2,0,2.1,0.2,2.9,0.7c0.7,0.5,1.2,1,1.4,1.6
					s0.3,1.5,0.3,2.8v5c0,1.6,0.1,2.5,0.2,2.8h-3.3c-0.1-0.3-0.2-1-0.2-1.9c-0.8,1.5-1.9,2.2-3.5,2.2c-1,0-1.8-0.3-2.4-0.9
					s-0.9-1.4-0.9-2.6c0-1.4,0.5-2.5,1.4-3.3s2.6-1.2,5.1-1.4v-0.5c0-0.8-0.1-1.4-0.3-1.8s-0.5-0.5-1-0.5
					C123.6,72.5,123.1,73.1,123,74.4z M125.7,77c-1,0.1-1.8,0.3-2.2,0.7c-0.4,0.3-0.7,0.9-0.7,1.7c0,1.1,0.4,1.6,1.2,1.6
					c0.4,0,0.8-0.2,1.2-0.7c0.3-0.5,0.5-1.4,0.5-2.6V77z"/>
				<path class="st18" d="M132.3,66.5l3.4-0.1v4h2.3v2.8h-2.3v4.6c0,0.9,0,1.4,0.1,1.7c0,0.3,0.2,0.5,0.4,0.6
					c0.2,0.2,0.6,0.3,1.1,0.3c0.3,0,0.6,0,1,0V83c-0.8,0.2-1.5,0.3-2.2,0.3c-1.1,0-1.9-0.2-2.5-0.6s-0.9-0.9-1.1-1.5
					c-0.2-0.6-0.2-1.6-0.2-2.9v-5h-1.4v-2.8h1.4V66.5z"/>
			</g>
		</g>
		<g>
			<circle class="st10" cx="72.1" cy="119.5" r="5.3"/>
			<path class="st10" d="M59.2,127.8c0,0,11.3,0.9,16.5-3c5.2-3.8,8.7-10.6,8.7-10.6s-1.6,11.9-7,23.2c-4.4,9.4-7.7,14.4-8.9,15.8
				c-0.1,0.1-0.4-0.1-0.4-0.1s0.7-0.5,1.3-4.2c0.6-3.7,0.8-3.8,0.8-3.8s-5.5,7.4-6.2,8.1c-0.8,0.7-0.4-0.3-0.4-0.3
				S78.9,130.4,59.2,127.8z"/>
		</g>
		<g>
			<circle class="st10" cx="135.7" cy="120.6" r="4.9"/>
			<path class="st10" d="M125.9,114.1c0,0,2.2,16.4,0.9,21.7s-8.1,16.9-8.1,16.9s8.6-8.3,11.4-8.7s10.5,8.7,10.5,8.7
				s-4.9-9.8-5.6-15.8s10.4-6.7,10.4-6.7s-9.6-1.8-13.3-4.7S125.9,114.1,125.9,114.1z"/>
		</g>
	</g>
</g>
<g id="Cards_1_" class="st0">
	
		<linearGradient id="SVGID_16_" gradientUnits="userSpaceOnUse" x1="146.9806" y1="180.7696" x2="41.3794" y2="-24.8716" gradientTransform="matrix(1 0 0 -1 0 200)">
		<stop  offset="0" style="stop-color:#FFFFFF"/>
		<stop  offset="1" style="stop-color:#A4A3A3"/>
	</linearGradient>
	<path class="st19" d="M55.6,171.4c-0.2,0-0.4,0-0.6,0c-7.3-0.2-14.2-4.9-17-11.7L10.5,93.2c-1-2.4-1.5-4.9-1.5-7.5v-0.1
		c0.2-7.5,4.9-14.2,12-17.1l107.9-44.8c2.3-0.9,4.7-1.4,7.1-1.4c7.5,0,14.1,4.3,17.2,11.1c6.9,1.2,12.6,6.1,14.8,12.8
		c6.6,2.3,11.3,8.1,12.4,15.1l10.5,71.2v0.1c0.3,2.7,0.1,5.1-0.4,7.3c-2,7.4-8.2,12.9-15.6,13.8L59.1,171.2H59c-0.3,0-0.6,0-1,0
		C57.2,171.3,56.4,171.4,55.6,171.4z"/>
	
		<linearGradient id="SVGID_17_" gradientUnits="userSpaceOnUse" x1="164.9706" y1="215.9663" x2="33.5553" y2="-39.9433" gradientTransform="matrix(1 0 0 -1 0 200)">
		<stop  offset="0" style="stop-color:#FFFFFF"/>
		<stop  offset="1" style="stop-color:#A4A3A3"/>
	</linearGradient>
	<path class="st20" d="M186.9,133l-10.5-71.1c-0.9-6-5.3-10.9-11.2-12.4c-0.2,0-0.3-0.1-0.5-0.1l-0.3-1.2c-1.6-5.9-6.5-10.2-12.5-11
		c-0.5-0.1-1-0.1-1.5-0.1l-0.6-1.5c-2.3-5.6-7.8-9.3-13.8-9.3c-1.9,0-3.8,0.4-5.6,1.1l-108,44.8c-5.6,2.2-9.3,7.6-9.4,13.5
		c0,2.1,0.4,4,1.2,6l27.5,66.5c2.2,5.3,7.6,9,13.4,9.2c0.2,0,0.3,0,0.5,0c0.7,0,1.4-0.1,2.1-0.2c0.3,0,0.6,0,0.9,0l115.6-17.5
		c5.8-0.7,10.8-5,12.3-10.8C187,137.2,187.1,135.2,186.9,133z"/>
	<path class="st21" d="M51.8,166.7c-5.6-1.6-9.9-6.5-10.8-12.2L30.5,83.2c-0.3-2-0.2-4.1,0.3-6.1c1.6-5.7,6.5-10,12.5-10.8
		l115.6-17.2c1.9-0.3,3.8-0.2,5.7,0.3c5.9,1.5,10.3,6.3,11.2,12.4l10.5,71.1c0.2,2.3,0.1,4.2-0.3,5.9c-1.5,5.8-6.5,10.1-12.3,10.8
		L57.9,167.2c-2,0.2-4,0-5.7-0.4C52.1,166.7,51.9,166.7,51.8,166.7z"/>
	<path class="st22" d="M52.8,166.7c-5.8-0.9-10.6-5.3-12.1-10.9L22,86.3c-0.6-2-0.7-4-0.4-6.1c0.9-5.8,5.3-10.6,11.1-12.1
		l112.8-30.4c1.9-0.5,3.8-0.6,5.7-0.4c6,0.8,10.9,5.1,12.5,11l18.7,69.4c0.5,2.2,0.6,4.2,0.4,5.9c-0.9,5.9-5.3,10.8-11,12.1
		L59,166.5c-1.9,0.4-4,0.5-5.7,0.2C53.1,166.7,52.9,166.7,52.8,166.7z"/>
	<path class="st23" d="M54.4,167.4c-5.8-0.2-11.2-3.9-13.4-9.2L13.4,91.7c-0.8-1.9-1.2-3.9-1.2-6c0.2-5.9,3.9-11.2,9.4-13.5
		l107.9-44.8c1.8-0.7,3.7-1.1,5.6-1.1c6.1,0,11.5,3.6,13.8,9.3l27.5,66.4c0.8,2.2,1.1,4.1,1.1,5.8c-0.1,6-3.8,11.4-9.3,13.5
		L60.5,166.4c-1.9,0.6-3.9,1-5.6,1C54.7,167.4,54.6,167.4,54.4,167.4z"/>
	<g class="st1">
		<path d="M58.4,118.1l5.1-1.7c0.9,2.7,0.9,5.3,0.1,7.6c-0.8,2.3-2.5,3.9-5,5c-3,1.2-5.8,1-8.3-0.6c-2.5-1.6-4.5-4.4-6.1-8.3
			c-1.6-4-2.1-7.4-1.4-10.3c0.7-2.9,2.5-5,5.7-6.2c5.1-2.1,9.2,0,12.3,6.1l-4.8,2.4c-1.6-3.6-3.5-5-5.7-4.1c-1.1,0.5-1.8,1.4-2,2.9
			c-0.2,1.4,0.4,3.9,1.8,7.3c1.2,3,2.4,5,3.5,5.9s2.2,1.1,3.5,0.6C58.9,123.7,59.4,121.5,58.4,118.1z"/>
		<path d="M64.8,97.2l5.4-2.2l17,21.8l-5.5,2.2l-3.3-4.6l-6.9,2.8l0.9,5.6l-5,2L64.8,97.2z M75.8,110.7l-6.6-9.1l1.7,11.1
			L75.8,110.7z"/>
		<path d="M79.4,91.3l7.7-3.1c1.5-0.6,2.7-1,3.5-1.2c0.9-0.2,1.8-0.1,2.9,0.1c1.1,0.3,2,0.8,2.9,1.7c0.9,0.9,1.6,2,2.1,3.3
			c1.2,3.1,1,5.7-0.8,7.9l8.9,8.9l-5.9,2.4l-7.2-8.4l-2.7,1.1l3.9,9.7l-5.4,2.2L79.4,91.3z M86.4,93.1l2.8,6.9l2.4-1
			c2.1-0.9,2.7-2.5,1.7-4.8c-0.3-0.8-0.8-1.4-1.3-1.8s-1-0.6-1.5-0.6s-1.1,0.1-1.9,0.5L86.4,93.1z"/>
		<path d="M99.5,83.2l5.8-2.4c2.5-1,4.7-1.5,6.6-1.5s3.6,0.8,5.3,2.2c1.7,1.4,3.2,3.7,4.4,6.8c0.9,2.2,1.4,4.3,1.5,6.2
			c0.1,1.9-0.1,3.6-0.6,5s-1.3,2.5-2.4,3.3c-1,0.8-2.4,1.6-4.2,2.3l-6.5,2.6L99.5,83.2z M106.7,85.2l6.6,16.2l0.9-0.4
			c1.3-0.5,2.1-1.1,2.6-1.9s0.7-1.8,0.6-3.2c-0.1-1.4-0.6-3.2-1.5-5.4c-0.8-2.1-1.7-3.6-2.6-4.6c-0.9-0.9-1.8-1.5-2.6-1.6
			c-0.8-0.1-1.9,0-3,0.5L106.7,85.2z"/>
		<path d="M137.5,74l-3.8,3.5c-1.5-1.8-3-2.3-4.7-1.6c-0.8,0.3-1.3,0.8-1.6,1.4c-0.3,0.6-0.3,1.3-0.1,1.9c0.3,0.7,0.8,1.1,1.5,1.3
			c0.7,0.2,2.1,0.3,4.1,0.2c1.8-0.1,3.3,0,4.5,0.2c1.1,0.2,2.2,0.7,3.2,1.5s1.7,1.8,2.2,3.1c0.9,2.3,0.9,4.5-0.1,6.6
			s-2.8,3.7-5.5,4.8c-4.5,1.8-8.2,0.7-11.3-3.3l4.2-3.3c1.6,2.2,3.4,3,5.5,2.1c0.9-0.4,1.6-0.9,2-1.7c0.4-0.7,0.4-1.5,0.1-2.3
			c-0.2-0.6-0.7-1.1-1.3-1.4s-1.7-0.4-3.4-0.4c-2.2,0.1-3.8,0.1-5-0.1c-1.1-0.2-2.2-0.6-3.2-1.4s-1.8-1.8-2.3-3.1
			c-0.9-2.2-0.9-4.3-0.1-6.3c0.9-2,2.5-3.5,4.8-4.4C131.5,69.8,134.9,70.6,137.5,74z"/>
	</g>
</g>
<g id="digibiz" class="st0">
	<g class="st1">
		<path class="st10" d="M74.5,130.9V74h25.3c13,0,19.5,4.6,19.5,13.9c0,6.6-3.9,10.8-11.8,12.7c9.5,1.9,14.2,6.9,14.2,15.1
			c0,10.1-6.4,15.1-19.1,15.1L74.5,130.9L74.5,130.9z M91,98.8h5.1c4.7,0,7-3.5,7-10.4c0-6.4-2.5-9.6-7.5-9.6H91V98.8z M91,126.2
			h4.7c6.2,0,9.2-3.5,9.2-10.6c0-8.1-3.2-12.1-9.5-12.1H91V126.2z M127.5,130.9v-42c4.7,0,9.8-0.4,15.2-1.1v43L127.5,130.9
			L127.5,130.9z M135.2,72.6c4.7,0,7.1,1.8,7.1,5.5s-2.4,5.5-7.1,5.5c-4.7,0-7.1-1.8-7.1-5.5C128.2,74.5,130.5,72.6,135.2,72.6z
			 M182.9,88.9v4.7l-18.4,32.5h18.4v4.7h-35v-5.2l18.3-32.1h-16.5v-4.7L182.9,88.9L182.9,88.9z"/>
		<g>
			<path class="st10" d="M47.8,101.9l2,3.8c0.1,0.1,0.2,0.2,0.3,0.1l1.7-0.9c0.1-0.1,0.2,0,0.3,0.1c1,1.1,2.2,2,3.5,2.6
				c0.1,0,0.2,0.2,0.1,0.3l-0.4,1.9c0,0.1,0.1,0.3,0.2,0.3l4.2,0.9c0.1,0,0.3-0.1,0.3-0.2l0.4-1.9c0-0.1,0.1-0.2,0.2-0.2
				c0.9,0,1.8-0.2,2.7-0.4c0.1,0,0.2,0,0.3,0.1l1,1.7c0.1,0.1,0.2,0.2,0.3,0.1l3.7-2.1c0.1-0.1,0.2-0.2,0.1-0.3l-1-1.7
				c-0.1-0.1,0-0.2,0-0.3c0.7-0.7,1.3-1.4,1.8-2.2c0.1-0.1,0.2-0.1,0.3-0.1l1.9,0.6c0.1,0,0.3,0,0.3-0.2l1.3-4.1
				c0-0.1,0-0.3-0.2-0.3l-1.9-0.6c-0.1,0-0.2-0.1-0.2-0.2c0.1-1.2,0-2.4-0.3-3.7c0-0.1,0-0.2,0.1-0.3l1.7-0.9
				c0.1-0.1,0.2-0.2,0.1-0.3l-2-3.8c-0.1-0.1-0.2-0.2-0.3-0.1l-1.7,0.9c-0.1,0.1-0.2,0-0.3-0.1c-1-1.1-2.2-2-3.5-2.6
				c-0.1,0-0.2-0.2-0.1-0.3l0.4-1.9c0-0.1-0.1-0.3-0.2-0.3L61,84.4c-0.1,0-0.3,0.1-0.3,0.2l-0.4,1.9c0,0.1-0.1,0.2-0.2,0.2
				c-0.9,0-1.8,0.2-2.7,0.4c-0.1,0-0.2,0-0.3-0.1l-1-1.7c-0.1-0.1-0.2-0.2-0.3-0.1L52,87.3c-0.1,0.1-0.2,0.2-0.1,0.3l1,1.7
				c0.1,0.1,0,0.2,0,0.3c-0.7,0.7-1.3,1.4-1.8,2.2C51,92,50.9,92,50.8,92l-1.9-0.6c-0.1,0-0.3,0-0.3,0.2l-1.3,4.1
				c0,0.1,0,0.3,0.2,0.3l1.9,0.6c0.1,0,0.2,0.1,0.2,0.2c-0.1,1.2,0,2.4,0.3,3.7c0,0.1,0,0.2-0.1,0.3l-1.7,0.9
				C47.8,101.6,47.8,101.8,47.8,101.9z M58.2,90c3.6-1.1,7.5,0.6,9.3,3.9c2.3,4.5,0,9.9-4.8,11.4c-3.6,1.1-7.5-0.6-9.3-3.9
				C51,96.8,53.3,91.4,58.2,90z"/>
			<path class="st10" d="M32.8,88.7l1.5,2.7c0,0.1,0.1,0.1,0.2,0.1l1.2-0.7c0.1,0,0.2,0,0.2,0c0.7,0.8,1.6,1.4,2.5,1.9
				c0.1,0,0.1,0.1,0.1,0.2l-0.3,1.4c0,0.1,0,0.2,0.1,0.2l3,0.6c0.1,0,0.2,0,0.2-0.1l0.3-1.4c0-0.1,0.1-0.1,0.2-0.1
				c0.7,0,1.3-0.1,2-0.3c0.1,0,0.2,0,0.2,0.1l0.7,1.2c0,0.1,0.2,0.1,0.2,0.1l2.7-1.5c0.1,0,0.1-0.2,0.1-0.2l-0.7-1.2
				c0-0.1,0-0.2,0-0.2c0.5-0.5,0.9-1,1.3-1.6c0-0.1,0.1-0.1,0.2-0.1l1.3,0.4c0.1,0,0.2,0,0.2-0.1l1-2.9c0-0.1,0-0.2-0.1-0.2
				l-1.3-0.4c-0.1,0-0.1-0.1-0.1-0.2c0.1-0.9,0-1.7-0.2-2.6c0-0.1,0-0.2,0.1-0.2l1.2-0.7c0.1,0,0.1-0.1,0.1-0.2L49.4,80
				c0-0.1-0.1-0.1-0.2-0.1L48,80.6c-0.1,0-0.2,0-0.2,0c-0.7-0.8-1.6-1.4-2.5-1.9c-0.1,0-0.1-0.1-0.1-0.2l0.3-1.4
				c0-0.1,0-0.2-0.1-0.2l-3-0.6c-0.1,0-0.2,0-0.2,0.1l-0.3,1.4c0,0.1-0.1,0.1-0.2,0.1c-0.7,0-1.3,0.1-2,0.3c-0.1,0-0.2,0-0.2-0.1
				l-0.7-1.2c0-0.1-0.2-0.1-0.2-0.1l-2.7,1.5c-0.1,0-0.1,0.2-0.1,0.2l0.7,1.2c0,0.1,0,0.2,0,0.2c-0.5,0.5-0.9,1-1.3,1.6
				c0,0.1-0.1,0.1-0.2,0.1l-1.3-0.4c-0.1,0-0.2,0-0.2,0.1l-1,2.9c0,0.1,0,0.2,0.1,0.2l1.3,0.4c0.1,0,0.1,0.1,0.1,0.2
				c-0.1,0.9,0,1.7,0.2,2.6c0,0.1,0,0.2-0.1,0.2l-1.2,0.7C32.7,88.5,32.7,88.6,32.8,88.7z M40.2,80.1c2.6-0.8,5.4,0.4,6.6,2.8
				c1.7,3.2,0,7.1-3.5,8.2c-2.6,0.8-5.4-0.4-6.6-2.8C35,85.1,36.7,81.2,40.2,80.1z"/>
			<path class="st10" d="M34.8,103.8l1,1.9c0,0.1,0.1,0.1,0.2,0l0.9-0.5H37c0.5,0.5,1.1,1,1.7,1.3l0.1,0.1l-0.2,1
				c0,0.1,0,0.1,0.1,0.1l2.1,0.4c0.1,0,0.1,0,0.1-0.1l0.2-1c0-0.1,0.1-0.1,0.1-0.1c0.5,0,0.9-0.1,1.4-0.2c0.1,0,0.1,0,0.1,0.1
				l0.5,0.9c0,0.1,0.1,0.1,0.2,0l1.9-1.1c0.1,0,0.1-0.1,0-0.2l-0.5-0.9v-0.1c0.4-0.3,0.7-0.7,0.9-1.1l0.1-0.1l0.9,0.3
				c0.1,0,0.1,0,0.1-0.1l0.7-2c0-0.1,0-0.1-0.1-0.1l-0.9-0.3c-0.1,0-0.1-0.1-0.1-0.1c0-0.6,0-1.2-0.2-1.8c0-0.1,0-0.1,0.1-0.1
				l0.9-0.5c0.1,0,0.1-0.1,0-0.2l-1-1.9c0-0.1-0.1-0.1-0.2,0l-0.9,0.5H45c-0.5-0.5-1.1-1-1.7-1.3l-0.1-0.1l0.2-1
				c0-0.1,0-0.1-0.1-0.1L41.2,95c-0.1,0-0.1,0-0.1,0.1l-0.2,1c0,0.1-0.1,0.1-0.1,0.1c-0.5,0-0.9,0.1-1.4,0.2c-0.1,0-0.1,0-0.1-0.1
				l-0.5-0.9c0-0.1-0.1-0.1-0.2,0l-1.9,1.1c-0.1,0-0.1,0.1,0,0.2l0.5,0.9v0.1c-0.4,0.3-0.7,0.7-0.9,1.1l-0.1,0.1l-0.9-0.3
				c-0.1,0-0.1,0-0.1,0.1l-0.7,2c0,0.1,0,0.1,0.1,0.1l0.9,0.3c0.1,0,0.1,0.1,0.1,0.1c0,0.6,0,1.2,0.2,1.8c0,0.1,0,0.1-0.1,0.1
				l-0.9,0.5C34.8,103.7,34.8,103.8,34.8,103.8z M40,97.8c1.8-0.5,3.8,0.3,4.6,2c1.2,2.2,0,5-2.4,5.7c-1.8,0.5-3.8-0.3-4.6-2
				C36.4,101.3,37.5,98.6,40,97.8z"/>
			<path class="st10" d="M52.2,84l1.8,1.2c0.1,0,0.1,0,0.2,0l0.6-0.8c0,0,0.1-0.1,0.1,0c0.7,0.3,1.4,0.4,2.1,0.4
				c0.1,0,0.1,0,0.1,0.1l0.3,1c0,0.1,0.1,0.1,0.1,0.1l2.1-0.6c0.1,0,0.1-0.1,0.1-0.1l-0.3-1c0-0.1,0-0.1,0.1-0.1
				c0.4-0.2,0.8-0.5,1.1-0.8h0.1l0.8,0.5c0.1,0,0.1,0,0.2,0l1.2-1.8c0-0.1,0-0.1,0-0.2L62,81.2c0,0-0.1-0.1,0-0.1
				c0.2-0.5,0.3-0.9,0.3-1.4c0-0.1,0-0.1,0.1-0.1l1-0.2c0.1,0,0.1-0.1,0.1-0.1l-0.3-2.1c0-0.1-0.1-0.1-0.1-0.1l-1,0.2
				c-0.1,0-0.1,0-0.1-0.1c-0.2-0.6-0.6-1.1-1-1.6v-0.1l0.6-0.8c0-0.1,0-0.1,0-0.2l-1.8-1.2c-0.1,0-0.1,0-0.2,0L59,74.1
				c0,0-0.1,0.1-0.1,0c-0.7-0.3-1.4-0.4-2.1-0.4c-0.1,0-0.1,0-0.1-0.1l-0.3-1c0-0.1-0.1-0.1-0.1-0.1l-2.1,0.6
				c-0.1,0-0.1,0.1-0.1,0.1l0.3,1c0,0.1,0,0.1-0.1,0.1c-0.4,0.2-0.8,0.5-1.1,0.8h-0.1l-0.8-0.5c-0.1,0-0.1,0-0.2,0l-1.2,1.8
				c0,0.1,0,0.1,0,0.2l0.8,0.5c0,0,0.1,0.1,0,0.1c-0.2,0.5-0.3,0.9-0.3,1.4c0,0.1,0,0.1-0.1,0.1l-1,0.2c-0.1,0-0.1,0.1-0.1,0.1
				l0.3,2.1c0,0.1,0.1,0.1,0.1,0.1l1-0.2c0.1,0,0.1,0,0.1,0.1c0.2,0.6,0.6,1.1,1,1.6v0.1l-0.6,0.8C52.1,83.9,52.1,83.9,52.2,84z
				 M54.1,76.3c1.4-1.3,3.5-1.4,5-0.3c2.1,1.5,2.3,4.4,0.4,6.2c-1.4,1.3-3.5,1.4-5,0.3C52.4,81,52.2,78,54.1,76.3z"/>
			<path class="st10" d="M24.2,97.8l1,1.9c0,0.1,0.1,0.1,0.2,0l0.9-0.5h0.1c0.5,0.5,1.1,1,1.7,1.3l0.1,0.1l-0.2,1
				c0,0.1,0,0.1,0.1,0.1l2.1,0.4c0.1,0,0.1,0,0.1-0.1l0.2-1c0-0.1,0.1-0.1,0.1-0.1c0.5,0,0.9-0.1,1.4-0.2c0.1,0,0.1,0,0.1,0.1
				l0.5,0.9c0,0.1,0.1,0.1,0.2,0l1.9-1.1c0.1,0,0.1-0.1,0-0.2l-0.5-0.9v-0.1c0.4-0.3,0.7-0.7,0.9-1.1l0.1-0.1l0.9,0.3
				c0.1,0,0.1,0,0.1-0.1l0.7-2c0-0.1,0-0.1-0.1-0.1L36,96.2c-0.1,0-0.1-0.1-0.1-0.1c0-0.6,0-1.2-0.2-1.8c0-0.1,0-0.1,0.1-0.1
				l0.9-0.5c0.1,0,0.1-0.1,0-0.2l-1-1.9c0-0.1-0.1-0.1-0.2,0l-0.9,0.5h-0.1c-0.5-0.5-1.1-1-1.7-1.3l-0.1-0.1l0.2-1
				c0-0.1,0-0.1-0.1-0.1l-2.1-0.4c-0.1,0-0.1,0-0.1,0.1l-0.2,1c0,0.1-0.1,0.1-0.1,0.1c-0.5,0-0.9,0.1-1.4,0.2c-0.1,0-0.1,0-0.1-0.1
				l-0.5-0.9c0-0.1-0.1-0.1-0.2,0l-1.9,1.1c-0.1,0-0.1,0.1,0,0.2l0.5,0.9v0.1c-0.4,0.3-0.7,0.7-0.9,1.1l-0.1,0.1l-0.9-0.3
				c-0.1,0-0.1,0-0.1,0.1l-0.7,2c0,0.1,0,0.1,0.1,0.1l0.9,0.3c0.1,0,0.1,0.1,0.1,0.1c0,0.6,0,1.2,0.2,1.8c0,0.1,0,0.1-0.1,0.1
				l-0.9,0.5C24.2,97.7,24.2,97.8,24.2,97.8z M29.4,91.8c1.8-0.5,3.8,0.3,4.6,2c1.2,2.2,0,5-2.4,5.7c-1.8,0.5-3.8-0.3-4.6-2
				C25.8,95.3,26.9,92.6,29.4,91.8z"/>
		</g>
	</g>
	<g class="st1">
		<path class="st10" d="M38.3,110.2v17c0,1.3,0,2.7,0.1,3.6h-2.3l-0.1-2.4h-0.1c-0.8,1.6-2.5,2.8-4.8,2.8c-3.4,0-6-2.9-6-7.2
			c0-4.7,2.9-7.6,6.3-7.6c2.2,0,3.6,1,4.3,2.2h0.1v-8.4L38.3,110.2L38.3,110.2z M35.7,122.5c0-0.3,0-0.8-0.1-1.1
			c-0.4-1.6-1.8-3-3.7-3c-2.7,0-4.2,2.3-4.2,5.4c0,2.9,1.4,5.2,4.2,5.2c1.7,0,3.3-1.1,3.8-3.1c0.1-0.3,0.1-0.7,0.1-1.1L35.7,122.5
			L35.7,122.5z"/>
		<path class="st10" d="M45.4,112.8c0,0.9-0.6,1.6-1.6,1.6c-0.9,0-1.5-0.7-1.5-1.6s0.7-1.6,1.6-1.6
			C44.8,111.2,45.4,111.9,45.4,112.8z M42.5,130.9v-14.1h2.6v14.1H42.5z"/>
		<path class="st10" d="M61.5,116.8c-0.1,1-0.1,2.2-0.1,3.9v8.2c0,3.2-0.6,5.2-2,6.4c-1.4,1.3-3.4,1.7-5.1,1.7
			c-1.7,0-3.6-0.4-4.7-1.2l0.6-2c0.9,0.6,2.4,1.1,4.1,1.1c2.6,0,4.5-1.4,4.5-4.9v-1.6h-0.1c-0.8,1.3-2.3,2.4-4.5,2.4
			c-3.5,0-6-3-6-6.9c0-4.8,3.1-7.5,6.4-7.5c2.4,0,3.8,1.3,4.4,2.4h0.1l0.1-2.1L61.5,116.8L61.5,116.8z M58.9,122.3
			c0-0.4,0-0.8-0.1-1.2c-0.5-1.5-1.7-2.7-3.6-2.7c-2.4,0-4.2,2.1-4.2,5.3c0,2.8,1.4,5.1,4.2,5.1c1.6,0,3-1,3.6-2.6
			c0.1-0.4,0.2-0.9,0.2-1.4v-2.5H58.9z"/>
		<path class="st10" d="M68.3,112.8c0,0.9-0.6,1.6-1.6,1.6c-0.9,0-1.5-0.7-1.5-1.6s0.7-1.6,1.6-1.6
			C67.7,111.2,68.3,111.9,68.3,112.8z M65.5,130.9v-14.1H68v14.1H65.5z"/>
	</g>
</g>
<g id="pdfkit" class="st0">
	<g id="pdf" class="st1">
		
			<linearGradient id="SVGID_18_" gradientUnits="userSpaceOnUse" x1="86.4953" y1="76.612" x2="140.3673" y2="168.6605" gradientTransform="matrix(1 0 0 -1 0 200)">
			<stop  offset="0.2688" style="stop-color:#FFFFFF"/>
			<stop  offset="1" style="stop-color:#D0D2D3"/>
		</linearGradient>
		<path class="st24" d="M130.7,152.3H71.1c-4.7,0-8.6-3.8-8.6-8.6V53.8c0-4.7,3.8-8.6,8.6-8.6h35.6L139.4,80v63.7
			C139.3,148.4,135.5,152.3,130.7,152.3z"/>
		
			<linearGradient id="SVGID_19_" gradientUnits="userSpaceOnUse" x1="127.9913" y1="146.949" x2="52.302" y2="19.0363" gradientTransform="matrix(1 0 0 -1 0 200)">
			<stop  offset="0.2688" style="stop-color:#FFFFFF"/>
			<stop  offset="1" style="stop-color:#D0D2D3"/>
		</linearGradient>
		<path class="st25" d="M71.1,155.3c-6.4,0-11.6-5.2-11.6-11.6V53.8c0-6.4,5.2-11.6,11.6-11.6H108l34.4,36.6v64.9
			c0,6.4-5.2,11.6-11.6,11.6H71.1z"/>
		
			<linearGradient id="SVGID_20_" gradientUnits="userSpaceOnUse" x1="73.9449" y1="55.1677" x2="122.0206" y2="137.3123" gradientTransform="matrix(1 0 0 -1 0 200)">
			<stop  offset="0.1005" style="stop-color:#FF1D00"/>
			<stop  offset="0.9008" style="stop-color:#860007"/>
		</linearGradient>
		<path class="st26" d="M130.7,152.3H71.1c-4.7,0-8.6-3.8-8.6-8.6V53.8c0-4.7,3.8-8.6,8.6-8.6h35.6L139.4,80v63.7
			C139.3,148.4,135.5,152.3,130.7,152.3z"/>
		
			<linearGradient id="SVGID_21_" gradientUnits="userSpaceOnUse" x1="124.1808" y1="138.5838" x2="107.5701" y2="122.6071" gradientTransform="matrix(1 0 0 -1 0 200)">
			<stop  offset="0.1005" style="stop-color:#FF0007"/>
			<stop  offset="0.7893" style="stop-color:#860007"/>
		</linearGradient>
		<path class="st27" d="M106.3,69.6l0.3-24.4L139.3,80l-22.8-0.1C110.8,79.9,106.3,75.3,106.3,69.6z"/>
		<g>
			<path class="st10" d="M79.6,106v6.5h-4.9v-18h6.8c1.7,0,3,0.2,3.9,0.7c0.9,0.4,1.6,1.1,2.1,2s0.8,1.9,0.8,3
				c0,1.7-0.5,3.1-1.6,4.2s-2.5,1.6-4.2,1.6C82.5,106,79.6,106,79.6,106z M79.5,102.1h1.6c1.4,0,2.2-0.6,2.2-1.8
				c0-1.1-0.7-1.7-2-1.7h-1.8C79.5,98.6,79.5,102.1,79.5,102.1z"/>
			<path class="st10" d="M94.7,112.5v-18h6.1c2.7,0,4.7,0.9,6,2.7c1.3,1.8,2,3.9,2,6.2c0,2.7-0.7,4.9-2.1,6.6s-3.3,2.5-5.5,2.5
				C101.2,112.5,94.7,112.5,94.7,112.5z M99.6,108.4h1.3c0.8,0,1.5-0.4,2-1.3c0.6-0.9,0.8-2.1,0.8-3.6c0-1.3-0.2-2.4-0.7-3.4
				c-0.5-0.9-1.2-1.4-2.1-1.4h-1.3C99.6,98.7,99.6,108.4,99.6,108.4z"/>
			<path class="st10" d="M125.6,105.8h-5.2v6.7h-4.8v-18h11.5v4.3h-6.7v2.9h5.2V105.8z"/>
		</g>
		<g>
			<path class="st10" d="M103.1,124.6l1.5-2.5c0.4-0.6,0.7-1.1,1-1.4c0.2-0.3,0.5-0.7,0.9-1c0.6-0.7,1.3-1.1,1.9-1.2
				c0.5-0.1,0.7,0,0.8,0.4c0.1,0.3,0.1,0.5,0,0.8s-0.2,0.6-0.4,0.8c-0.3,0.5-0.9,1.2-1.9,2.1c-0.7,0.7-1.3,1.3-1.6,1.8
				c0.2,0.5,0.4,0.9,0.5,1.2c0.2,0.4,0.3,0.7,0.5,0.9c0.2,0.3,0.4,0.6,0.7,0.9c0.3,0.4,0.7,0.8,1,1.1c0.9,0.8,1.7,1.2,2.4,1.4
				c0.2,0.1,0.4,0.1,0.4,0.2c0,0.2,0,0.4-0.2,0.6c-0.2,0.4-0.5,0.7-0.9,0.9c-0.4,0.3-0.8,0.4-1.2,0.5c-0.8,0.2-1.5,0.1-2.2-0.2
				s-1.3-0.7-1.8-1.4c-0.6-0.7-1-1.7-1.4-2.9c-0.1-0.2-0.1-0.4-0.2-0.7l0,0c-0.2,0.4-0.3,0.8-0.4,1c-0.1,0.3-0.1,0.7-0.3,1.4
				c-0.1,0.8-0.3,1.5-0.4,1.9c-0.2,0.5-0.4,0.9-0.6,1.2s-0.5,0.6-0.8,0.8s-0.6,0.4-0.8,0.5c-0.2,0-0.3,0-0.5-0.1
				c-0.1-0.1-0.2-0.2-0.3-0.4c0-0.1,0-0.2,0-0.3c0-1.3,0.1-2.5,0.2-3.9c0.1-1.3,0.2-2.5,0.3-3.7c0.1-1.2,0.3-2.2,0.4-3
				s0.3-1.4,0.4-1.6c0.2-0.3,0.4-0.5,0.8-0.8c0.4-0.2,0.8-0.4,1.2-0.5c0.4-0.1,0.7-0.1,0.9,0c0.2,0.1,0.3,0.2,0.4,0.5s0,1.5-0.3,3.5
				c0,0.1,0,0.4-0.1,0.7c0,0.3-0.1,0.5-0.1,0.7l0,0L103.1,124.6z"/>
			<path class="st10" d="M114,130.9c-0.3,0-0.6,0-0.9-0.2s-0.5-0.4-0.7-0.7s-0.3-0.6-0.4-1.1c-0.2-1-0.3-2.3-0.2-3.7
				c0.1-1.4,0.3-2.4,0.7-3.1c0.1-0.3,0.4-0.5,0.7-0.5c0.4-0.1,0.7,0,1,0.3s0.5,0.7,0.6,1.2c0.2,0.8,0.3,1.8,0.3,2.9
				s-0.1,2.3-0.2,3.6c-0.1,0.5-0.2,0.9-0.4,1.1C114.4,130.7,114.2,130.8,114,130.9L114,130.9z M113,121.1c-0.6,0.1-1-0.2-1.1-0.9
				c-0.1-0.3-0.1-0.8,0-1.3s0.2-0.9,0.4-1.2c0.1-0.1,0.2-0.3,0.3-0.3c0.1-0.1,0.3-0.1,0.4-0.2c0.3-0.1,0.6,0,0.7,0.1
				c0.2,0.1,0.3,0.4,0.4,0.7c0.1,0.4,0.1,0.9,0,1.3s-0.2,0.8-0.4,1.1C113.6,120.8,113.3,121,113,121.1L113,121.1z"/>
			<path class="st10" d="M119.1,120L119.1,120c0.2-1.4,0.3-2.3,0.5-2.8c0.1-0.3,0.3-0.5,0.5-0.7c0.4-0.4,0.8-0.7,1.3-0.8
				c0.3-0.1,0.5,0,0.6,0c0.2,0.1,0.3,0.2,0.3,0.5c0,0.1,0,0.5-0.1,1c-0.2,0.8-0.3,1.6-0.3,2.3c0.1,0,0.2,0,0.3,0c0.4,0,0.7,0,0.8,0
				s0.2,0.2,0.3,0.4c0.1,0.3,0.1,0.7-0.1,1c-0.1,0.3-0.3,0.6-0.5,0.8c-0.2,0.1-0.5,0.3-1,0.4c0,0.3,0,0.6,0,1.1
				c0,0.4,0.1,0.9,0.2,1.6c0,0.3,0,0.5,0.1,0.7c0.2,1,0.8,1.4,1.8,1.2h0.1l0,0c0.1,0,0.2,0,0.2,0c0,0.1,0,0.3-0.2,0.6
				c-0.2,0.3-0.4,0.6-0.6,0.8c-0.2,0.3-0.5,0.5-0.8,0.7s-0.6,0.3-0.9,0.4c-0.7,0.1-1.3,0-1.8-0.3s-0.9-0.9-1-1.6
				c-0.1-0.3-0.1-0.7-0.1-1.3c0-0.5,0-1.3,0.1-2.2c0-0.2,0-0.3,0-0.5s0-0.3,0-0.3c-0.3,0-0.4,0-0.6,0c-0.1-0.1-0.2-0.2-0.3-0.5
				c-0.1-0.4,0-0.8,0.2-1.2C118.4,120.5,118.8,120.2,119.1,120z"/>
		</g>
	</g>
</g>
<g id="vcall" class="st0">
	
		<linearGradient id="SVGID_22_" gradientUnits="userSpaceOnUse" x1="156.1954" y1="185.2276" x2="59.9748" y2="40.7528" gradientTransform="matrix(1 0 0 -1 0 200)">
		<stop  offset="0" style="stop-color:#F47F28"/>
		<stop  offset="8.228026e-02" style="stop-color:#F2782E"/>
		<stop  offset="0.2837" style="stop-color:#EE6D39"/>
		<stop  offset="0.4986" style="stop-color:#ED693C"/>
		<stop  offset="1" style="stop-color:#E83E39"/>
	</linearGradient>
	<circle class="st28" cx="99.7" cy="99.6" r="71.7"/>
	<path class="st23" d="M80.5,84.4c0.4,14.2,5.3,28,13.9,39.3l13.1-4.6c1.7-0.6,3.4-0.2,4.6,1c3.8,3.6,8.3,6.8,13.3,9.2
		c2.2,1.1,3.2,3.7,2.1,6l-6.7,14.1c-1.1,2.2-3.7,3.2-6,2.1C76.9,133.3,60.9,87.9,78.9,50.1c1.1-2.2,3.7-3.2,6-2.1L99,54.7
		c2.2,1.1,3.2,3.7,2.1,6c-2.4,5-3.9,10.3-4.6,15.5c-0.2,1.6-1.3,3-3,3.6L80.5,84.4z"/>
</g>
<g id="vmeet" class="st0">
	
		<linearGradient id="SVGID_23_" gradientUnits="userSpaceOnUse" x1="156.1954" y1="185.2276" x2="59.9748" y2="40.7528" gradientTransform="matrix(1 0 0 -1 0 200)">
		<stop  offset="0" style="stop-color:#D69D30"/>
		<stop  offset="7.647751e-02" style="stop-color:#C8AF32"/>
		<stop  offset="0.1858" style="stop-color:#B9C234"/>
		<stop  offset="0.2984" style="stop-color:#B0CD36"/>
		<stop  offset="0.4183" style="stop-color:#ADD136"/>
		<stop  offset="1" style="stop-color:#00A651"/>
	</linearGradient>
	<circle class="st29" cx="99.7" cy="99.6" r="71.7"/>
	<path class="st23" d="M122,95.4V83.1c0-1.9-1.6-3.5-3.5-3.5H76.1c-1.9,0-3.5,1.6-3.5,3.5v35.3c0,1.9,1.6,3.5,3.5,3.5h42.3
		c1.9,0,3.5-1.6,3.5-3.5V106l14.1,14.1V81.3"/>
</g>
<g id="assets" class="st0">
	<g id="Assets" class="st1">
		
			<linearGradient id="SVGID_24_" gradientUnits="userSpaceOnUse" x1="69.0691" y1="25.6632" x2="155.3086" y2="167.5165" gradientTransform="matrix(1 0 0 -1 0 200)">
			<stop  offset="0" style="stop-color:#A6A8AB"/>
			<stop  offset="0.2877" style="stop-color:#A6A8AB"/>
			<stop  offset="0.3502" style="stop-color:#BDBDBF"/>
			<stop  offset="0.4162" style="stop-color:#D1D0D0"/>
			<stop  offset="0.6117" style="stop-color:#D5D3D3"/>
			<stop  offset="0.6641" style="stop-color:#DFDDDD"/>
			<stop  offset="0.7626" style="stop-color:#EEEDEC"/>
			<stop  offset="0.867" style="stop-color:#F7F7F6"/>
			<stop  offset="1" style="stop-color:#FFFFFF"/>
		</linearGradient>
		<path class="st30" d="M187.1,123.5c0-17.5-11.3-31.9-26-34c0.8-2.9,1.3-5.9,1.3-9.1c0-21.1-19.9-38.3-44.4-38.3
			c-19,0-35.2,10.3-41.5,24.7c-3.3-1.4-6.8-2.2-10.5-2.2c-13.7,0-25.2,10.6-28.7,25.1c-13.9,2.9-24.4,16.9-24.4,33.7
			c0,18.9,13.3,34.3,29.7,34.3c0.3,0,0.7,0,1,0h112.6c0.3,0,0.7,0,1,0s0.7,0,1,0l0,0l0,0C174.3,157.2,187.1,142.1,187.1,123.5z"/>
		
			<linearGradient id="SVGID_25_" gradientUnits="userSpaceOnUse" x1="27.6449" y1="42.709" x2="172.0644" y2="123.746" gradientTransform="matrix(1 0 0 -1 0 200)">
			<stop  offset="0.1117" style="stop-color:#C3C1C1"/>
			<stop  offset="0.2725" style="stop-color:#CFCFD2"/>
			<stop  offset="0.5" style="stop-color:#DDE0E6"/>
			<stop  offset="0.7626" style="stop-color:#E1E3E4"/>
			<stop  offset="1" style="stop-color:#E1E2E3"/>
		</linearGradient>
		<path class="st31" d="M181.6,122.1c0-16.4-10.6-29.9-24.4-31.9c0.8-2.7,1.2-5.6,1.2-8.5c0-19.8-18.6-35.9-41.6-35.9
			c-17.8,0-33,9.6-38.9,23.2c-3.1-1.3-6.4-2.1-9.8-2.1c-12.8,0-23.6,10-26.9,23.5c-13,2.7-22.8,15.8-22.8,31.6
			c0,17.8,12.5,32.1,27.9,32.1c0.3,0,0.6,0,1,0h105.6c0.3,0,0.6,0,1,0s0.6,0,1,0l0,0l0,0C169.7,153.6,181.6,139.4,181.6,122.1z"/>
		<g>
			
				<linearGradient id="SVGID_26_" gradientUnits="userSpaceOnUse" x1="65.7679" y1="104.4" x2="143.0679" y2="104.4" gradientTransform="matrix(1 0 0 -1 0 200)">
				<stop  offset="0" style="stop-color:#30489B"/>
				<stop  offset="1" style="stop-color:#2F489B"/>
			</linearGradient>
			<path class="st32" d="M93.4,83.9v-2.5c0-1.9-1.5-3.4-3.4-3.4H71c-1.9,0-3.4,1.5-3.4,3.4v2.5h-1.7v29.3h77.3V83.9H93.4z"/>
			
				<linearGradient id="SVGID_27_" gradientUnits="userSpaceOnUse" x1="105.951" y1="108.3686" x2="106.243" y2="78.8272" gradientTransform="matrix(1 0 0 -1 0 200)">
				<stop  offset="0" style="stop-color:#292B68"/>
				<stop  offset="0.556" style="stop-color:#2D3D87"/>
				<stop  offset="1" style="stop-color:#2F489B"/>
			</linearGradient>
			<rect x="67.4" y="87" class="st33" width="77.3" height="29.3"/>
		</g>
		
			<linearGradient id="SVGID_28_" gradientUnits="userSpaceOnUse" x1="59.479" y1="74.6431" x2="-4.2059" y2="60.964" gradientTransform="matrix(1 0 0 -1 0 200)">
			<stop  offset="0" style="stop-color:#C3C1C1"/>
			<stop  offset="0.7626" style="stop-color:#C3C1C1"/>
			<stop  offset="1" style="stop-color:#D5D6DA"/>
		</linearGradient>
		<polygon class="st34" points="70.7,93.5 25.3,108.5 31.6,146.1 100,146.1 		"/>
		
			<linearGradient id="SVGID_29_" gradientUnits="userSpaceOnUse" x1="102.7189" y1="105.137" x2="101.029" y2="49.3355" gradientTransform="matrix(1 0 0 -1 0 200)">
			<stop  offset="0" style="stop-color:#EC2225"/>
			<stop  offset="0.8073" style="stop-color:#CD2225"/>
			<stop  offset="0.8096" style="stop-color:#CC2225"/>
			<stop  offset="0.9374" style="stop-color:#981A1D"/>
			<stop  offset="1" style="stop-color:#84171A"/>
		</linearGradient>
		<path class="st35" d="M144.8,91.5H96.5v-3.8c0-1.8-1.5-3.3-3.3-3.3H65c-1.8,0-3.3,1.5-3.3,3.3v3.8h-2.5c-1.4,0-2.6,1.2-2.6,2.6v49
			c0,1.4,1.2,2.6,2.6,2.6h85.6c1.4,0,2.6-1.2,2.6-2.6v-49C147.4,92.6,146.3,91.5,144.8,91.5z"/>
		<text transform="matrix(1 0 0 1 62.4107 140.4748)" class="st36 st37 st38">assets</text>
		<path class="st39" d="M108.1,101.5c0-2.4-2.7-4.4-6.1-4.4s-6.1,2-6.1,4.4c0,1.7,1.3,3.2,3.3,3.9l-2.6,12.5
			c-0.1,0.4,0.2,0.8,0.6,0.8h10.1c0.4,0,0.7-0.4,0.6-0.8l-2.9-12.5C106.8,104.6,108.1,103.2,108.1,101.5z"/>
		<text transform="matrix(1 0 0 1 63.6661 139.219)" class="st10 st37 st38">assets</text>
	</g>
</g>
<g id="voice_it" class="st0">
	<text transform="matrix(0.9141 0 0 1 26.3184 166.2881)" class="st23 st40 st41">Voice It</text>
	<g class="st1">
		
			<linearGradient id="SVGID_30_" gradientUnits="userSpaceOnUse" x1="19" y1="83.6" x2="176.2" y2="83.6" gradientTransform="matrix(1 0 0 -1 0 200)">
			<stop  offset="0.1179" style="stop-color:#FFFFFF"/>
			<stop  offset="0.5133" style="stop-color:#E8E7E7"/>
			<stop  offset="1" style="stop-color:#676767"/>
		</linearGradient>
		<path class="st42" d="M176.2,121L19,121.4c7.5-5.7,40-10,78.9-10C136,111.4,167.8,115.5,176.2,121z"/>
		
			<linearGradient id="SVGID_31_" gradientUnits="userSpaceOnUse" x1="18.1" y1="72.8" x2="177.9" y2="72.8" gradientTransform="matrix(1 0 0 -1 0 200)">
			<stop  offset="0.1179" style="stop-color:#FFFFFF"/>
			<stop  offset="0.5133" style="stop-color:#E8E7E7"/>
			<stop  offset="1" style="stop-color:#676767"/>
		</linearGradient>
		<path class="st43" d="M177.9,122.4c-4.8,6.2-38.7,11-79.9,11s-75.2-4.8-79.9-11c0.3-0.3,0.6-0.7,1-1l157.2-0.4
			C177,121.5,177.5,122,177.9,122.4z"/>
		
			<linearGradient id="SVGID_32_" gradientUnits="userSpaceOnUse" x1="17.5089" y1="78.1" x2="19.0689" y2="78.1" gradientTransform="matrix(1 0 0 -1 0 200)">
			<stop  offset="0.1179" style="stop-color:#FFFFFF"/>
			<stop  offset="0.5133" style="stop-color:#E8E7E7"/>
			<stop  offset="1" style="stop-color:#676767"/>
		</linearGradient>
		<path class="st44" d="M19.1,121.4c-0.4,0.3-0.8,0.7-1,1c-0.3-0.3-0.4-0.7-0.5-1H19.1z"/>
		
			<linearGradient id="SVGID_33_" gradientUnits="userSpaceOnUse" x1="17.4" y1="71.3" x2="178.4" y2="71.3" gradientTransform="matrix(1 0 0 -1 0 200)">
			<stop  offset="0.1179" style="stop-color:#FFFFFF"/>
			<stop  offset="0.5133" style="stop-color:#E8E7E7"/>
			<stop  offset="1" style="stop-color:#676767"/>
		</linearGradient>
		<path class="st45" d="M178.4,121v2.9c0,6.9-36,12.5-80.5,12.5s-80.5-5.6-80.5-12.5l0.1-2.5l0,0c0.1,0.3,0.2,0.7,0.5,1
			c4.7,6.2,38.7,11,79.9,11s75.2-4.8,79.9-11C178.2,122,178.4,121.5,178.4,121L178.4,121z"/>
		
			<linearGradient id="SVGID_34_" gradientUnits="userSpaceOnUse" x1="176.2489" y1="78.3" x2="178.4289" y2="78.3" gradientTransform="matrix(1 0 0 -1 0 200)">
			<stop  offset="0.1179" style="stop-color:#FFFFFF"/>
			<stop  offset="0.5133" style="stop-color:#E8E7E7"/>
			<stop  offset="1" style="stop-color:#676767"/>
		</linearGradient>
		<path class="st46" d="M178.4,121c0,0.5-0.2,1-0.6,1.4c-0.4-0.5-0.9-0.9-1.6-1.4H178.4z"/>
		
			<linearGradient id="SVGID_35_" gradientUnits="userSpaceOnUse" x1="17.4" y1="79.1" x2="178.4" y2="79.1" gradientTransform="matrix(1 0 0 -1 0 200)">
			<stop  offset="0.1179" style="stop-color:#D7D8D9"/>
			<stop  offset="0.5133" style="stop-color:#E3E3E4"/>
			<stop  offset="1" style="stop-color:#CBCDCE"/>
		</linearGradient>
		<path class="st47" d="M178.4,120.9C178.4,121,178.4,121,178.4,120.9c0,0.6-0.2,1-0.6,1.5c-4.8,6.2-38.7,11-79.9,11
			s-75.2-4.8-79.9-11c-0.3-0.3-0.4-0.7-0.5-1c0-0.2-0.1-0.3-0.1-0.5c0-6.9,36-12.5,80.5-12.5C142.4,108.4,178.4,114,178.4,120.9z"/>
	</g>
	<path class="st48" d="M80.1,69c0,0-14.6-2.1-17.8,9.9c-3.2,11.9,2.6,38.2,2.7,38.9s-1.3,1.4-1.9,0.3C62.5,117,51,92.3,51,92.3
		s-4.7,7.6-8.9,14.2c-2,3.1-3.7,5.9-4.9,7.9c-1.4,2.3-1.5,2.5-2.3,3.6c-0.9,1.3-3.5,1.6-2.5-1.3c1.1-3.2,10.1-26.5,12.7-36.9
		c4-16.2-2.3-46-2.3-46S49.2,52.7,58,59.4S80.1,69,80.1,69z"/>
	<circle class="st48" cx="64.8" cy="50.2" r="8.9"/>
	<path class="st49" d="M114.5,69.9c0,0,15.1-3.3,22.6-9s13.2-22.1,13.2-22.1s-4.9,22.4-2,37.3c3,15.6,11.5,39.3,11.5,39.3
		s-0.6,1.5-1.9,0c-1.3-1.5-15.7-24.1-15.7-24.1s-9.6,21.9-10.2,23.1c-0.6,1.2-1.8,2.3-2.3-0.1c0-3.2,5.1-27,1.7-35.9
		S114.5,69.9,114.5,69.9z"/>
	<circle class="st49" cx="131.3" cy="53.2" r="8.1"/>
	<ellipse class="st50" cx="99.3" cy="87.6" rx="3" ry="2.2"/>
	<rect x="98.1" y="88.7" class="st50" width="2.4" height="29.8"/>
	<line class="st51" x1="109.4" y1="66.2" x2="100.5" y2="86.9"/>
	<line class="st51" x1="98.3" y1="87.6" x2="88.6" y2="66.4"/>
	<ellipse transform="matrix(0.3973 -0.9177 0.9177 0.3973 9.3898 139.7081)" class="st50" cx="111.1" cy="62.7" rx="4.8" ry="3.1"/>
	<ellipse transform="matrix(0.8851 -0.4654 0.4654 0.8851 -19.2281 47.5161)" class="st50" cx="86.6" cy="62.7" rx="3.1" ry="4.8"/>
</g>
<g id="celfe" class="st0">
	<path class="st52" d="M162.3,47.7l-0.2,1.7l-4,0.3l0.7,10.7l11.1-2.7l-1.3-10H162.3z M161.5,52.6l-0.2-1.9L163,51v1.4L161.5,52.6z"
		/>
	
		<linearGradient id="SVGID_36_" gradientUnits="userSpaceOnUse" x1="158.4603" y1="143.75" x2="168.0985" y2="143.75" gradientTransform="matrix(1 0 0 -1 0 200)">
		<stop  offset="0.2183" style="stop-color:#8F6A29"/>
		<stop  offset="0.7649" style="stop-color:#8F6B29"/>
	</linearGradient>
	<polygon class="st53" points="158.5,55 167.8,52.6 168.1,58 158.8,59.9 	"/>
	
		<linearGradient id="SVGID_37_" gradientUnits="userSpaceOnUse" x1="60.0141" y1="256.9724" x2="65.8948" y2="258.3145" gradientTransform="matrix(0.9552 -0.2959 -0.2959 -0.9552 53.977 356.7493)">
		<stop  offset="0.2183" style="stop-color:#8F6A29"/>
		<stop  offset="1" style="stop-color:#BE872C"/>
	</linearGradient>
	<polygon class="st54" points="38.9,93.2 35.2,94.3 34.5,92.2 38.2,91.1 	"/>
	<path class="st52" d="M172.4,51c0,0-23.8,6.7-64.7,19.1C61.1,84.3,27.9,90.8,27.9,90.8l5.4,43.6l142.8-32.3L172.4,51z M42.6,92
		L42,89.9l3.7-1.1l0.6,2.1L42.6,92z M68.3,86.6l-0.6-2.1l3.7-1.1l0.6,2.1L68.3,86.6z M75,84.5l-0.6-2.1l3.7-1.1l0.6,2.1L75,84.5z
		 M80.8,122.4l-0.5-2.1l3.7-0.9l0.5,2.1L80.8,122.4z M81.7,82.4l-0.6-2.1l3.7-1.1l0.6,2.1L81.7,82.4z M87.7,120.8l-0.5-2.1l3.7-0.9
		l0.5,2.1L87.7,120.8z M88.5,80.3l-0.6-2.1l3.7-1.1l0.6,2.1L88.5,80.3z M94.6,119.2l-0.5-2.1l3.7-0.9l0.5,2.1L94.6,119.2z
		 M95.2,78.2l-0.6-2.1l3.7-1.1l0.6,2.1L95.2,78.2z M101.4,117.6l-0.5-2.1l3.7-0.9l0.5,2.1L101.4,117.6z M101.9,76.2l-0.6-2.1L105,73
		l0.6,2.1L101.9,76.2z M169.6,54.4l0.3,2.2l-3.8,0.6l-0.3-2.2L169.6,54.4z M108.3,116l-0.5-2.1l3.7-0.9l0.5,2.1L108.3,116z
		 M108.7,74.1L108,72l3.7-1.1l0.6,2.1L108.7,74.1z M115.2,114.4l-0.5-2.1l3.7-0.9l0.5,2.1L115.2,114.4z M115.4,72l-0.6-2.1l3.7-1.1
		l0.6,2.1L115.4,72z M122,112.8l-0.5-2.1l3.7-0.9l0.5,2.1L122,112.8z M122.1,69.9l-0.6-2.1l3.7-1.1l0.6,2.1L122.1,69.9z M131.9,64.6
		l0.6,2.1l-3.7,1.1l-0.6-2.1L131.9,64.6z M128.9,111.2l-0.5-2.1l3.7-0.9l0.5,2.1L128.9,111.2z M138.6,62.5l0.6,2.1l-3.7,1.1
		l-0.6-2.1L138.6,62.5z M135.7,109.6l-0.5-2.1l3.7-0.9l0.5,2.1L135.7,109.6z M145.4,60.4l0.6,2.1l-3.7,1.1l-0.6-2.1L145.4,60.4z
		 M142.6,108l-0.5-2.1l3.7-0.9l0.5,2.1L142.6,108z M152.1,58.3l0.6,2.1l-3.7,1.1l-0.6-2.1L152.1,58.3z M149.5,106.3l-0.5-2.1
		l3.7-0.9l0.5,2.1L149.5,106.3z M156.3,104.7l-0.5-2.1l3.7-0.9l0.5,2.1L156.3,104.7z M157.7,59.1l-0.5-2.1l3.8-0.8l0.5,2.1
		L157.7,59.1z M163.2,103.1l-0.5-2.1l3.7-0.9l0.5,2.1L163.2,103.1z M169.6,99.4l3.7-0.9l0.5,2.1l-3.7,0.9L169.6,99.4z"/>
	
		<linearGradient id="SVGID_38_" gradientUnits="userSpaceOnUse" x1="167.8318" y1="120.4973" x2="175.9619" y2="121.5308" gradientTransform="matrix(1 0 0 -1 0 200)">
		<stop  offset="0" style="stop-color:#000000;stop-opacity:0"/>
		<stop  offset="0.4368" style="stop-color:#FFFFFF"/>
		<stop  offset="0.9406" style="stop-color:#000000;stop-opacity:0"/>
	</linearGradient>
	<path class="st55" d="M172.4,51l-47.6,14l9.4,46.7l41.9-9.5L172.4,51z M169.6,54.4l0.3,2.2l-3.8,0.6l-0.3-2.2L169.6,54.4z
		 M131.9,64.6l0.6,2.1l-3.7,1.1l-0.6-2.1L131.9,64.6z M138.6,62.5l0.6,2.1l-3.7,1.1l-0.6-2.1L138.6,62.5z M135.7,109.6l-0.5-2.1
		l3.7-0.9l0.5,2.1L135.7,109.6z M145.4,60.4l0.6,2.1l-3.7,1.1l-0.6-2.1L145.4,60.4z M142.6,108l-0.5-2.1l3.7-0.9l0.5,2.1L142.6,108z
		 M152.1,58.3l0.6,2.1l-3.7,1.1l-0.6-2.1L152.1,58.3z M149.5,106.3l-0.5-2.1l3.7-0.9l0.5,2.1L149.5,106.3z M156.3,104.7l-0.5-2.1
		l3.7-0.9l0.5,2.1L156.3,104.7z M157.7,59.1l-0.5-2.1l3.8-0.8l0.5,2.1L157.7,59.1z M163.2,103.1l-0.5-2.1l3.7-0.9l0.5,2.1
		L163.2,103.1z M169.6,99.4l3.7-0.9l0.5,2.1l-3.7,0.9L169.6,99.4z"/>
	
		<linearGradient id="SVGID_39_" gradientUnits="userSpaceOnUse" x1="118.1926" y1="110.1151" x2="151.3451" y2="117.6814" gradientTransform="matrix(1 0 0 -1 0 200)">
		<stop  offset="0.2183" style="stop-color:#8F6A29"/>
		<stop  offset="0.7649" style="stop-color:#8F6B29"/>
	</linearGradient>
	<polygon class="st56" points="117.9,109.2 158.1,100 149.9,63.4 110.2,75.7 	"/>
	
		<linearGradient id="SVGID_40_" gradientUnits="userSpaceOnUse" x1="159.2555" y1="119.6164" x2="175.7395" y2="123.3785" gradientTransform="matrix(1 0 0 -1 0 200)">
		<stop  offset="0.2183" style="stop-color:#8F6A29"/>
		<stop  offset="0.7593" style="stop-color:#BE872C"/>
		<stop  offset="0.9145" style="stop-color:#CF942B"/>
	</linearGradient>
	<path class="st57" d="M161.3,99c0,0,4.8-0.9,9.3-1.8c3.9-0.8,5.1-1,5.1-1l-2.8-38.5l-20,5.2L161.3,99z"/>
	
		<linearGradient id="SVGID_41_" gradientUnits="userSpaceOnUse" x1="84.5224" y1="100.455" x2="109.8554" y2="106.2367" gradientTransform="matrix(1 0 0 -1 0 200)">
		<stop  offset="0.2183" style="stop-color:#8F6A29"/>
		<stop  offset="0.7649" style="stop-color:#8F6B29"/>
	</linearGradient>
	<polygon class="st58" points="85.7,117 77.7,85.5 107.4,76.6 115.7,109.7 	"/>
	
		<linearGradient id="SVGID_42_" gradientUnits="userSpaceOnUse" x1="61.963" y1="92.0424" x2="93.0918" y2="107.2518" gradientTransform="matrix(1 0 0 -1 0 200)">
		<stop  offset="0.2183" style="stop-color:#8F6A29"/>
		<stop  offset="1" style="stop-color:#BE872C"/>
	</linearGradient>
	<polygon class="st59" points="66,122.4 83.2,118 75.3,86.1 51.4,92.7 	"/>
	
		<linearGradient id="SVGID_43_" gradientUnits="userSpaceOnUse" x1="40.7599" y1="125.2569" x2="65.3203" y2="148.4818" gradientTransform="matrix(1 0 0 -1 0 200)">
		<stop  offset="3.732527e-02" style="stop-color:#660C0C"/>
		<stop  offset="0.2963" style="stop-color:#EF4E2C"/>
		<stop  offset="0.5753" style="stop-color:#F05A37"/>
		<stop  offset="0.659" style="stop-color:#F69771"/>
	</linearGradient>
	<circle class="st60" cx="49.9" cy="66.1" r="9.6"/>
	
		<linearGradient id="SVGID_44_" gradientUnits="userSpaceOnUse" x1="37.9148" y1="121.9115" x2="58.5224" y2="146.6138" gradientTransform="matrix(1 0 0 -1 0 200)">
		<stop  offset="0.2183" style="stop-color:#D44228"/>
		<stop  offset="0.7593" style="stop-color:#F05A37"/>
		<stop  offset="0.9145" style="stop-color:#FFFFFF"/>
	</linearGradient>
	<ellipse class="st61" cx="48.5" cy="65.4" rx="9.1" ry="9.3"/>
	
		<linearGradient id="SVGID_45_" gradientUnits="userSpaceOnUse" x1="51.8183" y1="113.0788" x2="76.0034" y2="144.8382" gradientTransform="matrix(1 0 0 -1 0 200)">
		<stop  offset="0.2183" style="stop-color:#D44228"/>
		<stop  offset="0.7593" style="stop-color:#F05A37"/>
		<stop  offset="0.9145" style="stop-color:#F4845F"/>
	</linearGradient>
	<path class="st62" d="M63.9,97.4c0,0,6.6-28.6,7.7-36.2S69,57,68.4,59.5S64.6,68.9,57.1,75S39,82,36.4,82.1c-2.1,0.1-1.4,1.2,0,1.3
		c1,0.1,7.3,1.1,9.6,3.1s2.9,11.2,2.9,11.2L63.9,97.4z"/>
	<path class="st52" d="M56.5,145.9l-5,3l0.5,5.3c0,0-2.9-0.9-3.2-1.9s-0.9-6.4-0.9-6.4h2.6l0.3,1.2l2.6-1.2L56.5,145.9z"/>
	<path class="st52" d="M80.5,141.8l-6.8-51H27.9l5.9,52.9c0,0-0.9,3,23.8,2.1C82.3,145,80.5,141.8,80.5,141.8z M38.4,92.7h4.4v2.6
		h-4.4V92.7z M30.6,95.5v-2.6H35v2.6H30.6z M39.2,143.5l-4.4-0.6l0.4-2.5l4.4,0.6L39.2,143.5z M47.3,143.8h-4.4v-2.6h4.4V143.8z
		 M50.6,95.3h-4.4v-2.6h4.4V95.3z M55.1,143.8h-4.4v-2.6h4.4V143.8z M58.2,95.3h-4.4v-2.6h4.4V95.3z M62.9,143.8h-4.4v-2.6h4.4
		V143.8z M65.7,95.1h-4.4v-2.6h4.4V95.1z M66.4,143.4l-0.3-2.6l4.4-0.5l0.3,2.6L66.4,143.4z M73.1,94.9h-4.4v-2.6h4.1L73.1,94.9z
		 M74.5,142.1l-0.6-2.5l4.3-1l0.6,2.5L74.5,142.1z"/>
	
		<linearGradient id="SVGID_46_" gradientUnits="userSpaceOnUse" x1="65.4368" y1="84.5545" x2="82.2779" y2="87.116" gradientTransform="matrix(1 0 0 -1 0 200)">
		<stop  offset="0" style="stop-color:#000000;stop-opacity:0"/>
		<stop  offset="0.4368" style="stop-color:#FFFFFF"/>
		<stop  offset="0.9406" style="stop-color:#000000;stop-opacity:0"/>
	</linearGradient>
	<path class="st63" d="M80.5,141.8l-6.8-51H27.9l5.9,52.9c0,0-0.9,3,23.8,2.1C82.3,145,80.5,141.8,80.5,141.8z M38.4,92.7h4.4v2.6
		h-4.4V92.7z M30.6,95.5v-2.6H35v2.6H30.6z M39.2,143.5l-4.4-0.6l0.4-2.5l4.4,0.6L39.2,143.5z M47.3,143.8h-4.4v-2.6h4.4V143.8z
		 M50.6,95.3h-4.4v-2.6h4.4V95.3z M55.1,143.8h-4.4v-2.6h4.4V143.8z M58.2,95.3h-4.4v-2.6h4.4V95.3z M62.9,143.8h-4.4v-2.6h4.4
		V143.8z M65.7,95.1h-4.4v-2.6h4.4V95.1z M66.4,143.4l-0.3-2.6l4.4-0.5l0.3,2.6L66.4,143.4z M73.1,94.9h-4.4v-2.6h4.1L73.1,94.9z
		 M74.5,142.1l-0.6-2.5l4.3-1l0.6,2.5L74.5,142.1z"/>
	
		<linearGradient id="SVGID_47_" gradientUnits="userSpaceOnUse" x1="47.0693" y1="79.8378" x2="75.8685" y2="86.4106" gradientTransform="matrix(1 0 0 -1 0 200)">
		<stop  offset="0.2183" style="stop-color:#8F6A29"/>
		<stop  offset="0.7593" style="stop-color:#BE872C"/>
		<stop  offset="0.9145" style="stop-color:#CF942B"/>
	</linearGradient>
	<path class="st64" d="M74.5,96.9l4.9,39.3c0,0-5,1.8-14.6,2.4c-9.6,0.6-17.6,0.5-17.6,0.5l-1.4-42.2C45.8,96.9,74.5,96.9,74.5,96.9
		z"/>
	
		<linearGradient id="SVGID_48_" gradientUnits="userSpaceOnUse" x1="31.102" y1="81.0023" x2="56.6658" y2="86.8367" gradientTransform="matrix(1 0 0 -1 0 200)">
		<stop  offset="0.2183" style="stop-color:#8F6A29"/>
		<stop  offset="1" style="stop-color:#BE872C"/>
	</linearGradient>
	<path class="st65" d="M44.1,138.8l-1.3-42H28.6l4.6,40.4c0,0,2.9,0.9,5.1,1.1C40.4,138.6,44.1,138.8,44.1,138.8z"/>
	
		<linearGradient id="SVGID_49_" gradientUnits="userSpaceOnUse" x1="95.1449" y1="101.8316" x2="108.5728" y2="101.8316" gradientTransform="matrix(1 0 0 -1 0 200)">
		<stop  offset="0.4577" style="stop-color:#F4C733"/>
		<stop  offset="0.9692" style="stop-color:#FCD33E"/>
	</linearGradient>
	<path class="st66" d="M107.6,89.1c-0.5,0.5-1.3,2.6-5.4,2.7S97,88,96.5,87.3c-0.5-0.8-1.8-0.3-1.2,1.4c1.2,2.2,3.6,4.9,4.6,9.7
		s0.8,9,0.7,10s0.7,0.8,0.9,0c0.2-0.8,1.2-6.2,1.2-6.2s0.6,6.1,0.5,6.6c-0.1,0.6,0.9,1,1.1,0c0.1-0.9,0.6-8.2,1.2-10.8
		c0.6-2.6,2.6-7.1,3.1-8.2C108.9,88.7,108.1,88.6,107.6,89.1z"/>
	<ellipse class="st67" cx="101.9" cy="87.7" rx="3.7" ry="3.1"/>
	
		<linearGradient id="SVGID_50_" gradientUnits="userSpaceOnUse" x1="98.2617" y1="112.4" x2="104.5399" y2="112.4" gradientTransform="matrix(1 0 0 -1 0 200)">
		<stop  offset="0.4577" style="stop-color:#F4C733"/>
		<stop  offset="0.9692" style="stop-color:#FCD33E"/>
	</linearGradient>
	<ellipse class="st68" cx="101.4" cy="87.6" rx="3.1" ry="3"/>
	
		<linearGradient id="SVGID_51_" gradientUnits="userSpaceOnUse" x1="125.016" y1="71.4462" x2="131.1597" y2="44.2851" gradientTransform="matrix(1 0 0 -1 0 200)">
		<stop  offset="0" style="stop-color:#FFFFFF"/>
		<stop  offset="1" style="stop-color:#000000"/>
	</linearGradient>
	<path class="st69" d="M163.5,132l-0.9,0.6c-0.9,0.6-2,1.3-4.1,1.8c-0.5,0.1-1,0.2-1.5,0.2c-2,0-3.4-1-4.2-3l11.5-2.7v-0.8
		c0-0.4-0.1-1-0.3-1.6c-0.8-3.3-3.3-7.2-7.8-7.2c-0.7,0-1.4,0.1-2.1,0.2c-5.2,1.2-7.8,6.1-6.4,12c1.1,4.7,4.4,7.5,8.7,7.5
		c0.8,0,1.7-0.1,2.6-0.3c2.8-0.7,4.7-1.7,5.7-2.5l0.6-0.5L163.5,132z M158.9,137.8c-5.1,1.2-9-1.5-10.2-6.5
		c-1.2-5.1,0.9-9.7,5.7-10.8c5.4-1.3,8,3.2,8.7,6.2c0.1,0.6,0.2,1.1,0.2,1.4l-11.7,2.7c1,4.1,4,5.2,7.1,4.5c2.2-0.5,3.4-1.2,4.4-1.9
		l1,2C163.3,136.1,161.5,137.1,158.9,137.8z M103.6,146.4c-0.8,0.6-1.7,1.2-3.2,1.5c-0.4,0.1-0.9,0.2-1.3,0.2
		c-2.4,0-4.2-1.6-4.9-4.3c-0.4-1.7-0.2-3.2,0.5-4.4c0.7-1.1,1.8-1.8,3.2-2.1c0.6-0.1,1.2-0.2,1.8-0.2c0.5,0,1,0.1,1.5,0.2l1.1,0.3
		l0.2-4.4l-0.7-0.2c-0.6-0.1-1.3-0.2-2.1-0.2c-0.9,0-1.9,0.1-2.8,0.3c-2.9,0.7-5.1,2.2-6.5,4.5c-1.3,2.2-1.7,4.9-1.1,7.6
		c1.1,4.7,4.5,7.6,8.9,7.6c0.8,0,1.7-0.1,2.5-0.3c2.2-0.5,4-1.5,4.9-2.3l0.6-0.5l-1.9-3.8L103.6,146.4z M100.6,151.4
		c-5,1.2-9.1-1.5-10.3-6.6c-1.2-5.1,1.4-9.7,6.9-11c1.8-0.4,3.5-0.3,4.4-0.1l-0.1,2.5c-0.8-0.2-2.1-0.4-3.7,0
		c-3.8,0.9-5.2,4.2-4.4,7.7c0.9,3.9,3.9,5.7,7.3,4.9c1.7-0.4,2.8-1.1,3.5-1.7l1,2.2C104.5,149.9,102.9,150.9,100.6,151.4z
		 M129.2,140.7l-4.9-20.7l-4.8,1.1l5.9,25.1l14.8-3.5l-1-4.4L129.2,140.7z M126,145.1l-5.4-23.2l3-0.7l4.9,20.7l9.9-2.3l0.6,2.5
		L126,145.1z M146.3,121.8l-4,0.9c-0.9-3.9,0.7-4.3,1.4-4.5c0.4-0.1,0.7-0.1,1-0.1c0.2,0,0.4,0,0.6,0.1l1.2,0.2l-0.3-4.3l-0.7-0.1
		c-0.4-0.1-0.8-0.1-1.2-0.1c-0.6,0-1.3,0.1-1.9,0.2c-1.8,0.4-3.3,1.5-4.3,2.9c-1.1,1.8-1.4,4.1-0.7,6.9l-2.3,0.5l1,4.1l2.3-0.5
		l3.4,14.4l4.8-1.1l-3.4-14.4l4-0.9L146.3,121.8z M142.1,126.1l3.4,14.4l-3,0.7l-3.4-14.4l-2.3,0.5l-0.5-2.3l2.3-0.5l-0.2-0.8
		c-0.6-2.4-0.5-4.6,0.6-6.3c0.9-1.4,2.3-2.2,3.7-2.5c1.1-0.3,2.1-0.2,2.7-0.1l0.1,2.4c-0.5-0.1-1.1-0.1-2,0.1
		c-2.6,0.6-2.7,3-2.1,5.6l0.2,0.9l4-0.9l0.5,2.3L142.1,126.1z M119.5,142.7c-0.9,0.6-2,1.3-4.1,1.8c-0.5,0.1-1,0.2-1.5,0.2l0,0
		c-2,0-3.4-1-4.2-3l11.5-2.7v-0.8c0-0.4-0.1-0.9-0.3-1.6c-0.8-3.3-3.3-7.2-7.8-7.2c-0.7,0-1.4,0.1-2.1,0.2c-5.2,1.2-7.8,6.1-6.4,12
		c1.1,4.7,4.4,7.5,8.7,7.5c0.8,0,1.7-0.1,2.6-0.3c2.8-0.7,4.7-1.7,5.7-2.5l0.6-0.5l-1.9-3.7L119.5,142.7z M115.8,147.9
		c-5.1,1.2-9-1.5-10.2-6.5c-1.2-5.1,0.9-9.7,5.7-10.8c5.4-1.3,8,3.2,8.7,6.2c0.1,0.6,0.2,1.1,0.2,1.4l-11.7,2.7c1,4.1,4,5.2,7.1,4.5
		c2.2-0.5,3.4-1.2,4.4-1.9l1,2C120.1,146.2,118.4,147.3,115.8,147.9z"/>
	<path class="st23" d="M105.2,149.3c-0.7,0.6-2.3,1.6-4.6,2.1c-5,1.2-9.1-1.5-10.3-6.6c-1.2-5.1,1.4-9.7,6.9-11
		c1.8-0.4,3.5-0.3,4.4-0.1l-0.1,2.5c-0.8-0.2-2.1-0.4-3.7,0c-3.8,0.9-5.2,4.2-4.4,7.7c0.9,3.9,3.9,5.7,7.3,4.9
		c1.7-0.4,2.8-1.1,3.5-1.7L105.2,149.3z M108.5,141c1,4.1,4,5.2,7.1,4.5c2.2-0.5,3.4-1.2,4.4-1.9l1,2c-0.9,0.7-2.7,1.7-5.3,2.4
		c-5.1,1.2-9-1.5-10.2-6.5c-1.2-5.1,0.9-9.7,5.7-10.8c5.4-1.3,8,3.2,8.7,6.2c0.1,0.6,0.2,1.1,0.2,1.4L108.5,141z M116.9,136.7
		c-0.4-1.9-1.9-4.7-5.3-3.9c-3.1,0.7-3.8,3.8-3.5,6L116.9,136.7z M120.6,121.8l3-0.7l4.9,20.7l9.9-2.3l0.6,2.5l-13,3L120.6,121.8z
		 M142.5,141.2l-3.4-14.4l-2.3,0.5l-0.5-2.3l2.3-0.5l-0.2-0.8c-0.6-2.4-0.5-4.6,0.6-6.3c0.9-1.4,2.3-2.2,3.7-2.5
		c1.1-0.3,2.1-0.2,2.7-0.1l0.1,2.4c-0.5-0.1-1.1-0.1-2,0.1c-2.6,0.6-2.7,3-2.1,5.6l0.2,0.9l4-0.9l0.5,2.3l-4,0.9l3.4,14.4
		L142.5,141.2z M151.7,130.9c1,4.1,4,5.2,7.1,4.5c2.2-0.5,3.4-1.2,4.4-1.9l1,2c-0.9,0.7-2.7,1.7-5.3,2.4c-5.1,1.2-9-1.5-10.2-6.5
		c-1.2-5.1,0.9-9.7,5.7-10.8c5.4-1.3,8,3.2,8.7,6.2c0.1,0.6,0.2,1.1,0.2,1.4L151.7,130.9z M160,126.6c-0.4-1.9-1.9-4.7-5.3-3.9
		c-3.1,0.7-3.8,3.8-3.5,6L160,126.6z"/>
	
		<linearGradient id="SVGID_52_" gradientUnits="userSpaceOnUse" x1="85.6916" y1="102.799" x2="90.0643" y2="108.8465" gradientTransform="matrix(1 0 0 -1 0 200)">
		<stop  offset="0.4577" style="stop-color:#9A2B7B"/>
		<stop  offset="0.9692" style="stop-color:#CE559E"/>
	</linearGradient>
	<ellipse class="st70" cx="87.5" cy="94.7" rx="3.7" ry="3.2"/>
	
		<linearGradient id="SVGID_53_" gradientUnits="userSpaceOnUse" x1="84.2035" y1="103.4082" x2="89.7432" y2="107.2176" gradientTransform="matrix(1 0 0 -1 0 200)">
		<stop  offset="0.3552" style="stop-color:#C54E9C"/>
		<stop  offset="0.5514" style="stop-color:#C54E9C"/>
		<stop  offset="0.9692" style="stop-color:#CE559E"/>
	</linearGradient>
	<ellipse class="st71" cx="87.1" cy="94.6" rx="3.3" ry="3"/>
	
		<linearGradient id="SVGID_54_" gradientUnits="userSpaceOnUse" x1="84.513" y1="90.5186" x2="96.0927" y2="108.0941" gradientTransform="matrix(1 0 0 -1 0 200)">
		<stop  offset="6.360762e-03" style="stop-color:#AB3886"/>
		<stop  offset="0.9692" style="stop-color:#CE559E"/>
	</linearGradient>
	<path class="st72" d="M83.8,100.2c1.7,0.3,4.1-0.4,4.1,4s-1.5,7.6-1.8,8.6c-0.2,1.1,0.6,1.1,0.9,0.3c0.3-0.7,2.3-5.5,2.3-5.5
		s0.6,1.6-1.1,5.8c-0.4,1,0.6,1.5,1.1,0.4s2.7-4.8,4.2-11.2c1.5-6.4,1.6-10.1,1.6-11.1s-1-1.1-1.3-0.3c-0.3,0.8-0.3,4.3-3.4,6.6
		c-3.1,2.4-5.1,1.2-6.2,1.2C83.4,99.1,82.9,100.2,83.8,100.2z"/>
	<path class="st73" d="M121.4,80.2c0.7,1.1,3.1,5.6,1.8,11.4s-4.5,10.1-4.7,11.1s1.1,0.5,1.4,0s4.7-6,6.6-5.5s6.7,4.2,7.5,4.9
		s1.3,0.2,0.9-0.4c-0.4-0.6-5.9-6.5-5.4-9.6c0.4-3.1,4.3-4.4,5.6-4.3c1.3-0.2,1.1-1.4-0.5-1.2c-1.5,0.2-4.4-0.7-6.4-2
		s-4.9-4.7-5.7-5.4C121.5,78.4,120.7,79,121.4,80.2z"/>
	
		<linearGradient id="SVGID_55_" gradientUnits="userSpaceOnUse" x1="126.4543" y1="117.1942" x2="131.5317" y2="122.013" gradientTransform="matrix(1 0 0 -1 0 200)">
		<stop  offset="0.1648" style="stop-color:#61BC65"/>
		<stop  offset="0.4752" style="stop-color:#75C27A"/>
		<stop  offset="0.9692" style="stop-color:#75C27A"/>
	</linearGradient>
	<circle class="st74" cx="129.2" cy="80.2" r="3.5"/>
	
		<linearGradient id="SVGID_56_" gradientUnits="userSpaceOnUse" x1="126.9246" y1="118.3856" x2="131.3597" y2="122.6765" gradientTransform="matrix(1 0 0 -1 0 200)">
		<stop  offset="0.1648" style="stop-color:#61BC65"/>
		<stop  offset="0.4752" style="stop-color:#75C27A"/>
		<stop  offset="0.9692" style="stop-color:#77C69D"/>
	</linearGradient>
	<circle class="st75" cx="128.8" cy="79.8" r="3.1"/>
	
		<linearGradient id="SVGID_57_" gradientUnits="userSpaceOnUse" x1="141.5839" y1="120.4592" x2="146.9401" y2="125.6412" gradientTransform="matrix(1 0 0 -1 0 200)">
		<stop  offset="0.1648" style="stop-color:#3851A2"/>
		<stop  offset="0.4847" style="stop-color:#4063AD"/>
		<stop  offset="0.9692" style="stop-color:#5F7CBC"/>
	</linearGradient>
	<ellipse class="st76" cx="143.9" cy="77.3" rx="4" ry="3.5"/>
	
		<linearGradient id="SVGID_58_" gradientUnits="userSpaceOnUse" x1="141.3286" y1="121.2927" x2="145.9108" y2="125.7259" gradientTransform="matrix(1 0 0 -1 0 200)">
		<stop  offset="0.1648" style="stop-color:#4263AD"/>
		<stop  offset="0.4847" style="stop-color:#4063AD"/>
		<stop  offset="0.9692" style="stop-color:#5F7CBC"/>
	</linearGradient>
	<ellipse class="st77" cx="143.3" cy="76.8" rx="3.4" ry="3"/>
	
		<linearGradient id="SVGID_59_" gradientUnits="userSpaceOnUse" x1="135.5262" y1="106.4731" x2="151.7557" y2="122.1749" gradientTransform="matrix(1 0 0 -1 0 200)">
		<stop  offset="0.1648" style="stop-color:#3552A2"/>
		<stop  offset="0.4847" style="stop-color:#4063AD"/>
		<stop  offset="0.9692" style="stop-color:#5372B6"/>
	</linearGradient>
	<path class="st78" d="M137.1,74.8c0,0.6,0.8,8.5,1.3,11.3s0.7,11.1,0.5,12.3c-0.2,1.2,0.6,2,1,0.7c0.4-1.2,0.7-4,1.9-5
		s4.3,3.8,4.8,4.7c0.5,0.9,1.7,0.5,1.1-0.5c-0.6-1-3.4-4.4-2.7-10.5s4.8-6.7,5.6-7.1s0.8-2.1-1-1.3c-1.8,0.8-3,2.1-7,1.8
		c-4-0.3-4.2-5.9-4.5-6.5C137.8,74.2,137.1,74.2,137.1,74.8z"/>
	
		<linearGradient id="SVGID_60_" gradientUnits="userSpaceOnUse" x1="75.4469" y1="93.5248" x2="77.1597" y2="78.5593" gradientTransform="matrix(1 0 0 -1 0 200)">
		<stop  offset="0" style="stop-color:#FFFFFF;stop-opacity:0"/>
		<stop  offset="1" style="stop-color:#FFE97E"/>
	</linearGradient>
	<polygon class="st79" points="74.5,96.9 79.4,136.2 79.1,136.3 73.8,96.9 	"/>
	
		<linearGradient id="SVGID_61_" gradientUnits="userSpaceOnUse" x1="75.5318" y1="83.4347" x2="69.2626" y2="82.5391" gradientTransform="matrix(1 0 0 -1 0 200)">
		<stop  offset="0" style="stop-color:#FFFFFF;stop-opacity:0"/>
		<stop  offset="0.2822" style="stop-color:#FFE97E"/>
		<stop  offset="0.9406" style="stop-color:#FFE97E;stop-opacity:0"/>
	</linearGradient>
	<path class="st80" d="M73.8,96.9l5.3,39.4c0,0-1.2,0.3-2.9,0.8s-4.6,0.8-4.6,0.8l-4-41C67.6,96.9,73.8,96.9,73.8,96.9z"/>
	
		<linearGradient id="SVGID_62_" gradientUnits="userSpaceOnUse" x1="158.7159" y1="119.4933" x2="175.1998" y2="123.2554" gradientTransform="matrix(1 0 0 -1 0 200)">
		<stop  offset="0.2183" style="stop-color:#8F6A29"/>
		<stop  offset="0.7593" style="stop-color:#BE872C"/>
		<stop  offset="0.9145" style="stop-color:#CF942B"/>
	</linearGradient>
	<path class="st81" d="M161.3,99c0,0,4.8-0.9,9.3-1.8c3.9-0.8,5.1-1,5.1-1l-2.8-38.5l-20,5.2L161.3,99z"/>
	
		<linearGradient id="SVGID_63_" gradientUnits="userSpaceOnUse" x1="171.3008" y1="122.3682" x2="176.4996" y2="123.5547" gradientTransform="matrix(1 0 0 -1 0 200)">
		<stop  offset="0" style="stop-color:#FFFFFF;stop-opacity:0"/>
		<stop  offset="1" style="stop-color:#FFE97E"/>
	</linearGradient>
	<polygon class="st82" points="175,96.3 175.7,96.2 172.9,57.7 172,57.9 	"/>
	
		<linearGradient id="SVGID_64_" gradientUnits="userSpaceOnUse" x1="169.6964" y1="122.3001" x2="173.253" y2="122.7533" gradientTransform="matrix(1 0 0 -1 0 200)">
		<stop  offset="0" style="stop-color:#FFFFFF;stop-opacity:0"/>
		<stop  offset="0.4368" style="stop-color:#FFE97E"/>
		<stop  offset="0.9406" style="stop-color:#FFE97E;stop-opacity:0"/>
	</linearGradient>
	<polygon class="st83" points="172.3,96.8 175,96.3 171.8,58 166.7,59.3 	"/>
</g>
<g id="Layer_8">
	<path class="st84" d="M111.5,52.9c0,0-2.2-1.9-2.4-5.6c-0.2-4.4,1.7-8.3,1.7-8.3s-6.7,2.9-7.9,10.1c0,0,1.5-5.2-2.3-10.1
		c0,0,0.3,9-2.8,9.7l-3.4-5.6l0.5,6.9c0,0-6.2-5.4-12.7-1.4c0,0,6.7,1.4,6.9,9.6C89.3,67.3,111.5,52.9,111.5,52.9z"/>
	<g>
		<path class="st84" d="M166.9,56.7l-9.8,80.7c-1,8-7.3,14.4-15.2,15.5l0,0c-8,1.2-15.9-3.4-19-10.9l-17.8-43.5l-4.4,46.4
			c-0.8,8.2-7.1,14.8-15.3,16l-1,0.1c-8,1.2-15.8-3.3-18.9-10.7L34.1,75.3C31,68,34.9,60.9,43.6,59.2c10.1-1.9,16.4,1,18.5,6.1
			l17.5,44.1c0.6,1.5,2.8,1.2,3-0.4l4.1-43.6c0.7-7.6,6.6-13.7,14.1-14.8l0,0c7.4-1.1,14.6,3.1,17.5,10.1l17,41.4
			c0.6,1.5,2.8,1.2,3-0.5L143,54c0.6-5.5,4.8-10,10.4-10.7l0,0C161.1,42.2,167.8,48.9,166.9,56.7z"/>
	</g>
	<g>
		
			<linearGradient id="SVGID_65_" gradientUnits="userSpaceOnUse" x1="24.6673" y1="51.5625" x2="180.0095" y2="146.089" gradientTransform="matrix(1 0 0 -1 0 200)">
			<stop  offset="0" style="stop-color:#FFFFFF;stop-opacity:0.1"/>
			<stop  offset="1.948598e-02" style="stop-color:#FFF6EF;stop-opacity:0.1337"/>
			<stop  offset="8.547100e-02" style="stop-color:#FFD9BF;stop-opacity:0.2479"/>
			<stop  offset="0.1534" style="stop-color:#FFC096;stop-opacity:0.3654"/>
			<stop  offset="0.2223" style="stop-color:#FFAC74;stop-opacity:0.4846"/>
			<stop  offset="0.2923" style="stop-color:#FF9D5A;stop-opacity:0.6058"/>
			<stop  offset="0.3641" style="stop-color:#FF9248;stop-opacity:0.7299"/>
			<stop  offset="0.4385" style="stop-color:#FF8B3D;stop-opacity:0.8588"/>
			<stop  offset="0.5201" style="stop-color:#FF8939"/>
			<stop  offset="0.6045" style="stop-color:#FF8B3D;stop-opacity:0.8868"/>
			<stop  offset="0.6831" style="stop-color:#FF9248;stop-opacity:0.7811"/>
			<stop  offset="0.7596" style="stop-color:#FF9D5B;stop-opacity:0.6784"/>
			<stop  offset="0.8347" style="stop-color:#FFAD75;stop-opacity:0.5775"/>
			<stop  offset="0.9088" style="stop-color:#FFC198;stop-opacity:0.478"/>
			<stop  offset="0.9813" style="stop-color:#FFDAC1;stop-opacity:0.3807"/>
			<stop  offset="1" style="stop-color:#FFE1CD;stop-opacity:0.3555"/>
		</linearGradient>
		<path class="st85" d="M81.9,159.2c-6,0-11.4-3.6-13.7-9.1L36.6,75.2c-1.1-2.6-1-5.6,0.5-8c1.5-2.5,3.9-4.2,6.7-4.5l5.7-0.8
			c0.4-0.1,0.9-0.1,1.3-0.1c3.8,0,7.1,2.2,8.5,5.8l17.5,44.1c0.7,1.7,2.3,2.8,4.2,2.8c2.3,0,4.3-1.7,4.4-4.1l4.1-43.6
			c0.6-6.3,5.3-11.3,11.6-12.2c0.6-0.1,1.3-0.1,1.9-0.1c5.5,0,10.4,3.3,12.5,8.4l17,41.4c0.7,1.6,2.3,2.7,4.1,2.7
			c2.3,0,4.3-1.7,4.4-4l4.7-47.6c0.4-4.3,3.7-7.5,7.8-8.1c0.4-0.1,0.9-0.1,1.3-0.1c2.6,0,5,1.2,6.8,3.1c1.7,1.9,2.5,4.5,2.2,7.2
			l-9.8,80.7c-0.8,6.7-6.1,12.1-12.8,13c-0.7,0.1-1.4,0.2-2.1,0.2c-6.1,0-11.5-3.7-13.8-9.3l-17.8-43.5l-5.3,0.7l-4.4,46.4
			C97,152.5,91.8,158,85,159l-1,0.1C83.2,159.2,82.5,159.2,81.9,159.2z"/>
	</g>
	<g>
		<g>
			
				<linearGradient id="SVGID_66_" gradientUnits="userSpaceOnUse" x1="48.4672" y1="79.1414" x2="74.6709" y2="95.0865" gradientTransform="matrix(1 0 0 -1 0 200)">
				<stop  offset="0" style="stop-color:#FFFFC3"/>
				<stop  offset="0.5201" style="stop-color:#FF8939"/>
				<stop  offset="0.6202" style="stop-color:#FF8C3D"/>
				<stop  offset="0.7135" style="stop-color:#FF9648"/>
				<stop  offset="0.8042" style="stop-color:#FFA65B"/>
				<stop  offset="0.8933" style="stop-color:#FFBD75"/>
				<stop  offset="0.9803" style="stop-color:#FFDA97"/>
				<stop  offset="1" style="stop-color:#FFE1A0"/>
			</linearGradient>
			<path class="st86" d="M97.7,145.5c-0.1,2.9-1.2,5.8-2.9,8.1c-1.7,2.4-4.3,4.3-7.2,5.2c-0.7,0.2-1.5,0.5-2.2,0.6
				c-0.8,0.2-1.5,0.3-2.2,0.3c-1.5,0.2-3.1,0.2-4.5-0.1c-3-0.5-5.9-2-8.1-4.2c-1.2-1.1-2.1-2.3-2.9-3.7c-0.8-1.5-1.3-2.7-1.8-4.1
				l-3.5-7.9l-6.8-16l-6.7-16c-2.1-5.3-4.4-10.6-6.5-16.1c-2-5.1-4.2-10.4-6.3-15.9c-0.6-1.4-1-3-0.9-4.4c0.1-1.5,0.5-3,1.3-4.4
				c0.8-1.3,1.8-2.4,3.1-3.2s2.7-1.3,4.2-1.4c-2.9,0.5-5.3,2.5-6.5,4.9c-0.6,1.3-0.9,2.6-0.9,4s0.4,2.6,1.1,3.9
				c2.4,5.2,4.7,10.5,7.2,15.8c2.3,5.2,4.6,10.5,7,15.9l6.8,16l6.7,16l3.3,8c0.6,1.4,1.1,2.7,1.6,3.9c0.6,1.2,1.4,2.2,2.3,3.2
				c1.8,1.9,4.3,3.3,7,3.9c1.4,0.3,2.7,0.4,4.1,0.3c0.7,0,1.5-0.1,2.1-0.2c0.7-0.1,1.4-0.3,2-0.4c2.6-0.8,5-2.3,7-4.4
				C96.1,151.1,97.2,148.4,97.7,145.5z"/>
		</g>
		<g>
			
				<linearGradient id="SVGID_67_" gradientUnits="userSpaceOnUse" x1="113.4448" y1="74.7906" x2="183.2944" y2="117.2946" gradientTransform="matrix(1 0 0 -1 0 200)">
				<stop  offset="0" style="stop-color:#FFFFC3"/>
				<stop  offset="0.5201" style="stop-color:#FF8939"/>
				<stop  offset="0.6202" style="stop-color:#FF8C3D"/>
				<stop  offset="0.7135" style="stop-color:#FF9648"/>
				<stop  offset="0.8042" style="stop-color:#FFA65B"/>
				<stop  offset="0.8933" style="stop-color:#FFBD75"/>
				<stop  offset="0.9803" style="stop-color:#FFDA97"/>
				<stop  offset="1" style="stop-color:#FFE1A0"/>
			</linearGradient>
			<path class="st87" d="M161.7,50.1c1.3,1.4,2.1,3,2.4,4.9c0.2,0.9,0.1,1.9,0,2.8l-0.3,2.7l-1,10.9c-0.7,7.3-1.5,14.5-2.2,21.8
				s-1.5,14.5-2.4,21.8l-2.5,21.8l-0.2,1.4c-0.1,0.5-0.2,1-0.3,1.5c-0.2,1-0.5,1.9-0.9,2.9c-0.8,1.8-1.9,3.6-3.3,4.9
				c-2.8,2.9-6.7,4.7-10.6,4.9c-4,0.3-8-1-11.1-3.4c-1.5-1.3-2.9-2.8-3.9-4.4c-0.5-0.9-0.9-1.7-1.3-2.6l-1-2.5
				c-5.3-13.6-10.5-27.3-15.5-41c6,13.3,11.9,26.7,17.6,40.1l1.1,2.5c0.4,0.9,0.7,1.5,1.2,2.3c0.9,1.5,2,2.7,3.4,3.7
				c2.6,2,6.1,3,9.4,2.7c3.3-0.2,6.5-1.7,8.8-4.2c1.2-1.2,2-2.6,2.7-4.2c0.3-0.8,0.6-1.5,0.8-2.3c0.1-0.4,0.1-0.8,0.2-1.3l0.2-1.4
				l2.7-21.8c1-7.3,1.8-14.5,2.9-21.8c1-7.3,2-14.5,3-21.7l1.6-10.8l0.4-2.7c0.2-0.9,0.2-1.7,0.1-2.7
				C163.5,53.3,162.8,51.6,161.7,50.1z"/>
		</g>
		<g>
			
				<linearGradient id="SVGID_68_" gradientUnits="userSpaceOnUse" x1="72.3797" y1="92.604" x2="124.9271" y2="124.5792" gradientTransform="matrix(1 0 0 -1 0 200)">
				<stop  offset="0" style="stop-color:#FFFFC3"/>
				<stop  offset="0.5201" style="stop-color:#FF8939"/>
				<stop  offset="0.6202" style="stop-color:#FF8C3D"/>
				<stop  offset="0.7135" style="stop-color:#FF9648"/>
				<stop  offset="0.8042" style="stop-color:#FFA65B"/>
				<stop  offset="0.8933" style="stop-color:#FFBD75"/>
				<stop  offset="0.9803" style="stop-color:#FFDA97"/>
				<stop  offset="1" style="stop-color:#FFE1A0"/>
			</linearGradient>
			<path class="st88" d="M76.6,111.6c0.6,1.4,1.9,2.3,3.3,2.5c1.4,0.2,2.8-0.3,3.8-1.4c0.5-0.5,0.8-1.1,1-1.7
				c0.1-0.6,0.1-1.4,0.2-2.1l0.3-4.4c0.4-5.9,0.8-11.8,1.3-17.7c0.4-5.9,1-11.8,1.5-17.7l0.2-2.2c0.1-0.8,0.2-1.6,0.4-2.4
				c0.4-1.5,1-3.1,1.8-4.5c1.7-2.8,4.4-4.9,7.4-6.1c1.5-0.6,3.2-0.9,4.7-0.9c1.6-0.1,3.3,0.2,4.8,0.6c3.1,1,5.9,3,7.7,5.6
				c0.2,0.3,0.5,0.7,0.7,1.1c0.2,0.4,0.4,0.7,0.6,1.1c0.2,0.4,0.4,0.8,0.5,1.1l0.4,1.1l1.6,4.2c1.1,2.7,2.2,5.5,3.3,8.2
				c2.1,5.5,4.3,11,6.4,16.5l3.1,8.3l0.8,2.1c0.3,0.7,0.5,1.5,0.8,2c0.7,1.3,2,2.1,3.6,2.1c-1.5,0.1-3-0.7-3.9-1.9
				c-0.5-0.7-0.7-1.4-1-2l-1-2l-3.7-8c-2.4-5.4-4.8-10.8-7.2-16.3c-1.2-2.7-2.3-5.4-3.5-8.1l-1.7-4.1l-0.4-1.1
				c-0.1-0.3-0.3-0.6-0.4-1l-0.5-0.9c-0.2-0.3-0.4-0.6-0.6-0.9c-1.5-2.1-3.9-3.8-6.4-4.5c-1.3-0.4-2.6-0.6-3.9-0.5
				c-1.4,0-2.6,0.3-3.9,0.8c-2.5,0.9-4.6,2.6-6,4.9c-0.7,1.2-1.3,2.3-1.5,3.7c-0.2,0.7-0.2,1.3-0.3,2l-0.6,2.4
				c-0.7,5.9-1.3,11.7-1.9,17.6c-0.7,5.9-1.4,11.7-2,17.6l-0.6,4.4c-0.1,0.8-0.1,1.5-0.4,2.2s-0.7,1.5-1.3,2
				c-1.2,1.2-2.9,1.5-4.4,1.2C78.4,114.1,77.1,112.9,76.6,111.6z"/>
		</g>
	</g>
	<g>
		<circle class="st89" cx="87.2" cy="67.1" r="8.9"/>
		<path class="st84" d="M94.8,71.7c-1.2,2-3.2,3.5-5.4,4.3c-2.3,0.8-5,0.6-7.3-0.5c-1.2-0.6-2.3-1.4-3.2-2.4c-0.9-1-1.6-2.2-2-3.6
			c-0.8-2.7-0.5-5.7,1-8.2c1.5-2.4,4.1-4.2,6.8-4.6c2.8-0.5,5.6,0.3,7.7,1.9c2.1,1.6,3.4,3.9,3.7,6.3C96.5,67.3,96,69.7,94.8,71.7z
			 M94.8,71.7c1.2-2,1.5-4.5,0.8-6.7c-0.7-2.2-2.3-3.9-4.3-4.7c-1.9-0.8-4-0.9-5.8-0.2c-1.8,0.6-3.3,1.8-4.2,3.4
			c-0.9,1.5-1.4,3.4-1.1,5.3c0.2,1.9,1.2,3.7,2.8,5.1c1.6,1.3,3.9,2,6.1,1.6C91.4,75.1,93.5,73.7,94.8,71.7z"/>
	</g>
	<g>
		<circle class="st89" cx="114.1" cy="61" r="8.7"/>
		<path class="st90" d="M107.4,66.5c-1.5-1.7-2.3-4-2.2-6.4c0-2.3,1-4.8,2.7-6.6c0.9-0.9,2-1.7,3.2-2.2c1.2-0.5,2.6-0.8,3.9-0.7
			c2.7,0.1,5.5,1.4,7.3,3.5c1.8,2.1,2.6,5.1,2.1,7.8c-0.4,2.7-2,5.1-4.2,6.5c-2.1,1.4-4.7,1.9-7,1.5
			C110.9,69.5,108.8,68.3,107.4,66.5z M107.4,66.5c1.4,1.8,3.7,2.8,5.9,2.8c2.2,0,4.3-0.9,5.7-2.5c1.4-1.5,2-3.4,2-5.3
			c0-1.8-0.7-3.6-1.8-4.9c-1.1-1.4-2.7-2.3-4.5-2.7c-1.8-0.4-3.8-0.1-5.6,1c-1.7,1.1-3.1,2.9-3.5,5.1
			C105.3,62.4,105.9,64.8,107.4,66.5z"/>
	</g>
	<path d="M92.9,79.7l22.3-3.8c0,0,3.7,12.6-9.6,14.2C94.5,91.5,92.9,79.7,92.9,79.7z"/>
	<ellipse transform="matrix(0.375 -0.927 0.927 0.375 -7.9593 116.1706)" class="st10" cx="82.2" cy="64" rx="2.6" ry="1.7"/>
	<ellipse transform="matrix(0.375 -0.927 0.927 0.375 14.4507 138.4088)" class="st10" cx="109.9" cy="58.5" rx="2.5" ry="1.6"/>
	<linearGradient id="SVGID_69_" gradientUnits="userSpaceOnUse" x1="106.0482" y1="91.7291" x2="105.8614" y2="83.9361">
		<stop  offset="0" style="stop-color:#FFAE92"/>
		<stop  offset="1" style="stop-color:#FF458A"/>
	</linearGradient>
	<path class="st91" d="M105.7,90.2c6.3-0.8,8.7-3.9,9.6-6.9c-1.6-2.8-5.7-4.5-10.1-3.9c-4.9,0.7-8.6,4.1-8.8,7.7
		C98.4,89.1,101.3,90.7,105.7,90.2z"/>
	<g>
		<path class="st92" d="M105.5,82c-0.4,0.6-0.2,1.2-0.2,1.7c0.1,0.6,0.2,1.2,0.3,1.8l0.4,1.8c0.1,0.6,0.2,1.3,0.3,1.9
			c-0.8-1.1-1.3-2.3-1.5-3.6c-0.1-0.7-0.2-1.4-0.1-2c0-0.3,0.1-0.7,0.2-1C104.9,82.4,105.2,82,105.5,82z"/>
	</g>
	<g>
		
			<linearGradient id="SVGID_70_" gradientUnits="userSpaceOnUse" x1="92.4438" y1="116.7638" x2="116.2552" y2="116.7638" gradientTransform="matrix(1 0 0 -1 0 200)">
			<stop  offset="0" style="stop-color:#FFFFC3"/>
			<stop  offset="0.8933" style="stop-color:#FFBD75"/>
			<stop  offset="0.9803" style="stop-color:#FFDA97"/>
			<stop  offset="1" style="stop-color:#FFE1A0"/>
		</linearGradient>
		<path class="st93" d="M115.3,75.9c1,3,1,6.6-0.6,9.5c-0.2,0.4-0.4,0.8-0.7,1.1l-0.9,1c-0.3,0.3-0.7,0.6-1,0.8
			c-0.2,0.1-0.3,0.3-0.5,0.4l-0.6,0.3c-0.4,0.2-0.8,0.4-1.1,0.6l-1.2,0.4c-0.8,0.3-1.5,0.4-2.4,0.6c-0.8,0.2-1.6,0.2-2.4,0.2
			c-0.4,0.1-0.9-0.1-1.3-0.1c-0.4-0.1-0.9,0-1.3-0.2c-1.6-0.3-3.2-1.2-4.4-2.2c-2.5-2.2-3.9-5.4-4.3-8.5c0.4,1.5,1,3.1,1.7,4.4
			c0.8,1.4,1.7,2.6,3,3.6c2.4,1.9,5.7,2.4,8.7,1.8c0.8-0.2,1.5-0.2,2.2-0.5l1.1-0.4l1.1-0.5l0.5-0.3c0.2-0.1,0.3-0.2,0.5-0.4
			c0.3-0.2,0.6-0.5,0.9-0.7l0.8-0.9c0.3-0.3,0.5-0.6,0.7-1c0.8-1.3,1.3-2.8,1.5-4.4C115.7,79.1,115.6,77.5,115.3,75.9z"/>
	</g>
	
		<radialGradient id="SVGID_71_" cx="83.2003" cy="67.3464" r="7.2017" gradientTransform="matrix(1 0 0 0.9472 0 3.7502)" gradientUnits="userSpaceOnUse">
		<stop  offset="0" style="stop-color:#FFFFFF;stop-opacity:0"/>
		<stop  offset="0.5201" style="stop-color:#FFFFFF"/>
		<stop  offset="1" style="stop-color:#FFFFFF;stop-opacity:0.1"/>
	</radialGradient>
	<path class="st94" d="M87.8,76c-1.2,0-2.3-0.2-3.4-0.6c-1.1-0.4-2.1-1-3-1.8c-1.7-1.6-2.7-3.8-2.7-6.1c0-2.3,1-4.5,2.7-6.1
		c0.9-0.8,1.9-1.4,3-1.8c1.1-0.4,2.3-0.6,3.4-0.6c-2.3,0.1-4.6,1-6.2,2.6c-1.6,1.6-2.5,3.7-2.5,5.9c0,2.2,0.9,4.3,2.5,5.9
		C83.2,74.9,85.4,75.9,87.8,76z"/>
	<radialGradient id="SVGID_72_" cx="110.2418" cy="57.1897" r="4.7754" gradientUnits="userSpaceOnUse">
		<stop  offset="0" style="stop-color:#FFFFFF;stop-opacity:0"/>
		<stop  offset="0.5201" style="stop-color:#FFFFFF"/>
		<stop  offset="1" style="stop-color:#FFFFFF;stop-opacity:0.1"/>
	</radialGradient>
	<path class="st95" d="M105.7,62c-0.1-1.2,0.1-2.5,0.6-3.6c0.4-1.2,1.2-2.2,2-3.1c0.9-0.9,2-1.6,3.1-2c1.2-0.4,2.4-0.6,3.6-0.6
		c-1.2,0.1-2.4,0.4-3.5,0.9c-1.1,0.5-2.1,1.2-2.9,2c-0.9,0.8-1.5,1.8-2,2.9C106.1,59.6,105.8,60.7,105.7,62z"/>
	<g>
		<linearGradient id="SVGID_73_" gradientUnits="userSpaceOnUse" x1="92.7997" y1="77.8542" x2="115.3106" y2="77.8542">
			<stop  offset="0" style="stop-color:#FFFFC3"/>
			<stop  offset="0.8933" style="stop-color:#FFBD75"/>
			<stop  offset="0.9803" style="stop-color:#FFDA97"/>
			<stop  offset="1" style="stop-color:#FFE1A0"/>
		</linearGradient>
		<path class="st96" d="M92.9,79.7c3.7-1,7.4-1.7,11.1-2.4c3.7-0.6,7.5-1.2,11.3-1.4c-3.7,1-7.4,1.7-11.1,2.4
			C100.4,79,96.7,79.5,92.9,79.7z"/>
	</g>
</g>
</svg>
