<?xml version="1.0" encoding="utf-8"?>
<!-- Generator: Adobe Illustrator 22.0.1, SVG Export Plug-In . SVG Version: 6.00 Build 0)  -->
<svg version="1.1" id="Layer_1" xmlns="http://www.w3.org/2000/svg" xmlns:xlink="http://www.w3.org/1999/xlink" x="0px" y="0px"
	 viewBox="0 0 24 24" style="enable-background:new 0 0 24 24;" xml:space="preserve">
<style type="text/css">
	.st0{fill:#802D8A;}
</style>
<path class="st0" d="M6,2h8l6,6v12c0,1.1-0.9,2-2,2H6c-1.1,0-2-0.9-2-2V4C4,2.9,4.9,2,6,2 M13,3.5V9h5.5L13,3.5 M17,11h-4v2h1
	l-2,1.7L10,13h1v-2H7v2h1l3,2.5L8,18H7v2h4v-2h-1l2-1.7l2,1.7h-1v2h4v-2h-1l-3-2.5l3-2.5h1V11z"/>
</svg>
