<?xml version="1.0" standalone="no"?>
<!DOCTYPE svg PUBLIC "-//W3C//DTD SVG 1.1//EN" "http://www.w3.org/Graphics/SVG/1.1/DTD/svg11.dtd" >
<svg xmlns="http://www.w3.org/2000/svg">
<metadata>Generated by IcoMoon</metadata>
<defs>
<font id="icomoon" horiz-adv-x="1024">
<font-face units-per-em="1024" ascent="960" descent="-64" />
<missing-glyph horiz-adv-x="1024" />
<glyph unicode="&#x20;" horiz-adv-x="512" d="" />
<glyph unicode="&#xe900;" glyph-name="sticker-emoji" d="M234.667 874.667c-81.067 0-149.333-68.267-149.333-149.333v-554.667c0-81.067 68.267-149.333 149.333-149.333h448l256 256v448c0 81.067-68.267 149.333-149.333 149.333h-554.667zM247.467 789.333h533.333c42.667 0 76.8-34.133 76.8-72.533v-396.8h-64c-81.067 0-149.333-68.267-149.333-149.333v-64h-396.8c-42.667 0-76.8 34.133-76.8 76.8v533.333c0 38.4 34.133 72.533 76.8 72.533zM614.4 669.867c-8.533 0-12.8 0-21.333-4.267-38.4-8.533-59.733-46.933-51.2-89.6 4.267-4.267 4.267-12.8 8.533-17.067l136.533 38.4c0 8.533 0 12.8-4.267 21.333-4.267 29.867-34.133 51.2-68.267 51.2zM349.867 597.333c-8.533 0-12.8 0-21.333-4.267-38.4-12.8-64-51.2-51.2-89.6 0-8.533 4.267-12.8 8.533-21.333l136.533 38.4c0 8.533 0 12.8-4.267 21.333-8.533 34.133-38.4 55.467-68.267 55.467zM712.533 477.867l-388.267-106.667c55.467-64 145.067-93.867 230.4-68.267 81.067 21.333 145.067 93.867 157.867 174.933z" />
<glyph unicode="&#xe901;" glyph-name="message-save" d="M827.733 618.667c-29.867 149.333-157.867 256-315.733 256-123.733 0-230.4-106.667-281.6-209.067-311.467-123.733-221.867-396.8-102.4-477.867-25.6-51.2-128-179.2-128-179.2l213.333 85.333c17.067 8.533 42.667 12.8 64 12.8h533.333c119.467 0 213.333 136.533 213.333 256 0 128-85.333 213.333-196.267 256zM512 226.133l-221.867 221.867h149.333v268.8h145.067v-268.8h149.333l-221.867-221.867z" />
<glyph unicode="&#xe902;" glyph-name="create_pdf" d="M481.28 611.84c0 0-20.48 112.64 0 112.64 25.6-5.12 0-107.52 0-112.64zM235.52 156.16c10.24 0 56.32 40.96 87.040 102.4-51.2-20.48-97.28-102.4-87.040-102.4zM680.96 355.84c0 0 112.64-40.96 117.76-25.6 0 15.36-87.040 30.72-117.76 25.6zM481.28 494.080c-25.6-81.92-76.8-174.080-76.8-174.080 56.32 25.6 174.080 46.080 174.080 46.080-71.68 66.56-97.28 128-97.28 128zM773.12-12.8h-619.52c-56.32 0-102.4 46.080-102.4 102.4v716.8c0 56.32 46.080 102.4 102.4 102.4h716.8c56.32 0 102.4-46.080 102.4-102.4v-609.28c-20.48 15.36-51.2 20.48-76.8 20.48-81.92 0-148.48-66.56-148.48-148.48 0-30.72 10.24-56.32 25.6-81.92zM829.44 330.24c25.6 92.16-153.6 71.68-189.44 66.56 0 0-102.4 66.56-128 163.84 0 0 56.32 199.68-30.72 199.68s-56.32-163.84-40.96-215.040c0 0-15.36-92.16-107.52-240.64 0 0-179.2-92.16-138.24-163.84 35.84-56.32 117.76 0 189.44 138.24 0 0 92.16 30.72 215.040 40.96 5.12 0 204.8-87.040 230.4 10.24zM988.16 110.080h-76.8v76.8h-51.2v-76.8h-76.8v-51.2h76.8v-71.68h51.2v76.8h76.8v46.080z" />
<glyph unicode="&#xe903;" glyph-name="rearrangePDF" d="M443.733 537.6c0 0-17.067 93.867 0 93.867 21.333-4.267 0-93.867 0-93.867zM238.933 157.867c8.533 0 46.933 34.133 72.533 85.333-42.667-17.067-81.067-85.333-72.533-85.333zM443.733 435.2c-21.333-68.267-64-145.067-64-145.067 46.933 21.333 145.067 38.4 145.067 38.4-59.733 55.467-81.067 106.667-81.067 106.667zM853.333 695.467v-597.333c0-46.933-38.4-85.333-85.333-85.333h-597.333c-46.933 0-85.333 38.4-85.333 85.333v597.333c0 46.933 38.4 85.333 85.333 85.333h597.333c46.933 0 85.333-34.133 85.333-85.333zM576 354.133c0 0-85.333 55.467-106.667 136.533 0 0 46.933 166.4-25.6 166.4s-46.933-132.267-34.133-174.933c0 0-12.8-76.8-89.6-200.533 0 0-149.333-76.8-115.2-136.533 29.867-46.933 98.133 0 157.867 115.2 0 0 76.8 25.6 179.2 34.133 0 0 166.4-72.533 187.733 4.267 25.6 76.8-128 59.733-153.6 55.467zM832 657.067l-72.533 72.533-17.067-17.067 38.4-38.4h-145.067l38.4 38.4-17.067 17.067-72.533-72.533 72.533-72.533 17.067 17.067-38.4 38.4h145.067l-38.4-38.4 17.067-17.067 72.533 72.533zM610.133 320c0 0 93.867-34.133 98.133-21.333 0 12.8-72.533 29.867-98.133 21.333zM853.333 883.2h-597.333c-34.133 0-68.267-21.333-81.067-55.467 12.8 8.533 25.6 12.8 42.667 12.8h597.333c46.933 0 85.333-38.4 85.333-85.333v-597.333c0-12.8-4.267-21.333-4.267-29.867 25.6 12.8 42.667 42.667 42.667 72.533v597.333c0 46.933-38.4 85.333-85.333 85.333z" />
<glyph unicode="&#xe904;" glyph-name="splitpdf" d="M281.6 213.333c8.533 0 46.933 34.133 72.533 85.333-42.667-21.333-81.067-85.333-72.533-85.333zM618.667 405.333c25.6 8.533 179.2 25.6 157.867-55.467s-187.733-4.267-187.733-4.267c-102.4-8.533-179.2-34.133-179.2-34.133-59.733-110.933-132.267-157.867-157.867-115.2-34.133 59.733 115.2 136.533 115.2 136.533 17.067 38.4 34.133 72.533 46.933 98.133h-140.8v-29.867h42.667l-64-64-64 64h42.667v29.867h-102.4v-277.333c0-46.933 38.4-85.333 85.333-85.333h597.333c46.933 0 85.333 38.4 85.333 85.333v277.333h-307.2c17.067-17.067 29.867-25.6 29.867-25.6zM810.667 836.267h-597.333c-46.933 0-85.333-38.4-85.333-85.333v-277.333h102.4v29.867h-42.667l64 64 64-64h-42.667v-29.867h157.867c12.8 38.4 17.067 59.733 17.067 59.733-12.8 42.667-42.667 170.667 34.133 174.933s29.867-166.4 29.867-166.4c4.267-25.6 21.333-46.933 34.133-68.267h349.867v277.333c0 46.933-38.4 85.333-85.333 85.333zM486.4 682.667c-17.067 0 0-89.6 0-93.867 0 4.267 21.333 93.867 0 93.867zM482.133 473.6h12.8c-4.267 8.533-8.533 17.067-8.533 17.067 0-4.267-4.267-12.8-4.267-17.067zM750.933 354.133c4.267 12.8-72.533 25.6-98.133 21.333 0 0 93.867-34.133 98.133-21.333zM422.4 345.6c46.933 21.333 145.067 38.4 145.067 38.4-17.067 17.067-34.133 29.867-42.667 46.933h-59.733c-21.333-46.933-42.667-85.333-42.667-85.333z" />
<glyph unicode="&#xe905;" glyph-name="imagetopdf" d="M746.667 349.867c-12.8-42.667-38.4-85.333-38.4-85.333 25.6 12.8 85.333 21.333 85.333 21.333-34.133 29.867-46.933 64-46.933 64zM746.667 460.8c-8.533 0 0-51.2 0-55.467 0 4.267 12.8 55.467 0 55.467zM627.2 183.467c4.267 0 29.867 17.067 42.667 51.2-25.6-12.8-51.2-51.2-42.667-51.2zM840.533 627.2h-238.933c-34.133 0-59.733-29.867-59.733-64v-482.133c0-34.133 25.6-64 59.733-64h320c34.133 0 59.733 29.867 59.733 64v349.867l-140.8 196.267zM917.333 268.8c-12.8-46.933-110.933-4.267-110.933-4.267-59.733-4.267-106.667-21.333-106.667-21.333-34.133-68.267-76.8-93.867-93.867-68.267-21.333 34.133 68.267 81.067 68.267 81.067 46.933 72.533 51.2 115.2 51.2 119.467-8.533 25.6-25.6 102.4 21.333 102.4 42.667 0 17.067-98.133 17.067-98.133 12.8-46.933 64-81.067 64-81.067 12.8 4.267 102.4 12.8 89.6-29.867zM844.8 281.6c0 0 55.467-21.333 55.467-12.8 4.267 8.533-38.4 12.8-55.467 12.8zM341.333 627.2h-234.667c-38.4 0-64-29.867-64-64v-482.133c0-34.133 25.6-64 59.733-64h320c34.133 0 59.733 29.867 59.733 64v349.867l-140.8 196.267zM81.067 226.133l89.6 119.467 64-76.8 89.6 119.467 119.467-157.867h-362.667v-4.267zM366.933 878.933c-29.867 0-55.467-25.6-55.467-55.467v-140.8h55.467v140.8h221.867v-55.467h-68.267l98.133-98.133 98.133 98.133h-68.267v55.467c0 29.867-25.6 55.467-55.467 55.467h-226.133z" />
<glyph unicode="&#xe906;" glyph-name="pdftoimage" d="M247.467 349.867c-12.8-42.667-38.4-85.333-38.4-85.333 25.6 12.8 85.333 21.333 85.333 21.333-34.133 29.867-46.933 64-46.933 64zM247.467 460.8c-8.533 0 0-51.2 0-55.467 0 4.267 12.8 55.467 0 55.467zM128 183.467c4.267 0 29.867 17.067 42.667 51.2-25.6-12.8-51.2-51.2-42.667-51.2zM341.333 627.2h-238.933c-34.133 0-59.733-29.867-59.733-64v-482.133c0-34.133 25.6-64 59.733-64h320c34.133 0 59.733 29.867 59.733 64v349.867l-140.8 196.267zM418.133 268.8c-12.8-46.933-110.933-4.267-110.933-4.267-59.733-4.267-106.667-21.333-106.667-21.333-34.133-68.267-76.8-93.867-93.867-68.267-21.333 34.133 68.267 81.067 68.267 81.067 46.933 72.533 51.2 115.2 51.2 119.467-8.533 25.6-25.6 102.4 21.333 102.4 42.667 0 17.067-98.133 17.067-98.133 12.8-46.933 64-81.067 64-81.067 12.8 4.267 102.4 12.8 89.6-29.867zM345.6 281.6c0 0 55.467-21.333 55.467-12.8 4.267 8.533-38.4 12.8-55.467 12.8zM840.533 627.2h-238.933c-34.133 0-59.733-29.867-59.733-64v-482.133c0-34.133 25.6-64 59.733-64h320c34.133 0 59.733 29.867 59.733 64v349.867l-140.8 196.267zM576 226.133l89.6 119.467 64-76.8 89.6 119.467 119.467-157.867h-362.667v-4.267zM366.933 878.933c-29.867 0-55.467-25.6-55.467-55.467v-140.8h55.467v140.8h221.867v-55.467h-68.267l98.133-98.133 98.133 98.133h-68.267v55.467c0 29.867-25.6 55.467-55.467 55.467h-226.133z" />
<glyph unicode="&#xe907;" glyph-name="pdf-password-protection" d="M481.28 611.84c0 0-20.48 112.64 0 112.64 25.6-5.12 0-107.52 0-112.64zM235.52 156.16c10.24 0 56.32 40.96 87.040 102.4-51.2-20.48-97.28-102.4-87.040-102.4zM680.96 355.84c0 0 112.64-40.96 117.76-25.6 0 15.36-87.040 30.72-117.76 25.6zM481.28 494.080c-25.6-81.92-76.8-174.080-76.8-174.080 56.32 25.6 174.080 46.080 174.080 46.080-71.68 66.56-97.28 128-97.28 128zM773.12-12.8h-619.52c-56.32 0-102.4 46.080-102.4 102.4v716.8c0 56.32 46.080 102.4 102.4 102.4h716.8c56.32 0 102.4-46.080 102.4-102.4v-609.28c-20.48 15.36-51.2 20.48-76.8 20.48-81.92 0-148.48-66.56-148.48-148.48 0-30.72 10.24-56.32 25.6-81.92zM880.64 33.28c10.24 0 20.48 10.24 20.48 20.48s-10.24 20.48-20.48 20.48c-10.24 0-20.48-10.24-20.48-20.48 5.12-15.36 10.24-20.48 20.48-20.48zM936.96 115.2c10.24 0 20.48-10.24 20.48-20.48v-92.16c0-10.24-10.24-20.48-20.48-20.48h-107.52c-10.24 0-20.48 10.24-20.48 20.48v92.16c0 10.24 10.24 20.48 20.48 20.48h10.24v20.48c0 25.6 20.48 46.080 46.080 46.080s46.080-20.48 46.080-46.080v-20.48h5.12zM880.64 161.28c-15.36 0-25.6-10.24-25.6-25.6v-20.48h56.32v20.48c0 10.24-15.36 25.6-30.72 25.6zM829.44 330.24c25.6 92.16-153.6 71.68-189.44 66.56 0 0-102.4 66.56-128 163.84 0 0 56.32 199.68-30.72 199.68s-56.32-163.84-40.96-215.040c0 0-15.36-92.16-107.52-240.64 0 0-179.2-92.16-138.24-163.84 35.84-56.32 117.76 0 189.44 138.24 0 0 92.16 30.72 215.040 40.96 5.12 0 204.8-87.040 230.4 10.24z" />
<glyph unicode="&#xe908;" glyph-name="mergepdf" d="M496.64 601.6c-10.24 0 0-61.44 0-61.44s15.36 61.44 0 61.44zM496.64 473.6c-15.36-46.080-40.96-97.28-40.96-97.28 30.72 15.36 97.28 25.6 97.28 25.6-46.080 35.84-56.32 71.68-56.32 71.68zM358.4 289.28c5.12 0 30.72 20.48 46.080 56.32-25.6-15.36-51.2-56.32-46.080-56.32zM711.68 704h-399.36c-30.72 0-56.32-25.6-56.32-56.32v-399.36c0-30.72 25.6-56.32 56.32-56.32h399.36c30.72 0 56.32 25.6 56.32 56.32v399.36c0 30.72-25.6 56.32-56.32 56.32zM440.32 355.84c-40.96-76.8-87.040-107.52-107.52-76.8-25.6 40.96 76.8 92.16 76.8 92.16 51.2 81.92 61.44 133.12 61.44 133.12-10.24 25.6-25.6 112.64 25.6 112.64s15.36-107.52 15.36-107.52c15.36-51.2 71.68-92.16 71.68-92.16 15.36 5.12 117.76 15.36 102.4-35.84s-122.88-5.12-122.88-5.12c-66.56-5.12-122.88-20.48-122.88-20.48zM670.72 381.44c0 10.24-46.080 20.48-66.56 15.36 0 0 66.56-25.6 66.56-15.36zM896 38.4h-563.2c-40.96 0-76.8 35.84-76.8 76.8v51.2h-102.4c-40.96 0-76.8 35.84-76.8 76.8v563.2c0 40.96 35.84 76.8 76.8 76.8h563.2c40.96 0 76.8-35.84 76.8-76.8v-102.4h102.4c40.96 0 76.8-35.84 76.8-76.8v-512c0-40.96-35.84-76.8-76.8-76.8zM153.6 832c-15.36 0-25.6-10.24-25.6-25.6v-563.2c0-15.36 10.24-25.6 25.6-25.6h153.6v-102.4c0-15.36 10.24-25.6 25.6-25.6h563.2c15.36 0 25.6 10.24 25.6 25.6v512c0 15.36-10.24 25.6-25.6 25.6h-153.6v153.6c0 15.36-10.24 25.6-25.6 25.6h-563.2z" />
<glyph unicode="&#xe909;" glyph-name="wordtopdf" d="M746.667 349.867c-12.8-42.667-38.4-85.333-38.4-85.333 25.6 12.8 85.333 21.333 85.333 21.333-34.133 29.867-46.933 64-46.933 64zM746.667 460.8c-8.533 0 0-51.2 0-55.467 0 4.267 12.8 55.467 0 55.467zM627.2 183.467c4.267 0 29.867 17.067 42.667 51.2-25.6-12.8-51.2-51.2-42.667-51.2zM840.533 627.2h-238.933c-34.133 0-59.733-29.867-59.733-64v-482.133c0-34.133 25.6-64 59.733-64h320c34.133 0 59.733 29.867 59.733 64v349.867l-140.8 196.267zM917.333 268.8c-12.8-46.933-110.933-4.267-110.933-4.267-59.733-4.267-106.667-21.333-106.667-21.333-34.133-68.267-76.8-93.867-93.867-68.267-21.333 34.133 68.267 81.067 68.267 81.067 46.933 72.533 51.2 115.2 51.2 119.467-8.533 25.6-25.6 102.4 21.333 102.4 42.667 0 17.067-98.133 17.067-98.133 12.8-46.933 64-81.067 64-81.067 12.8 4.267 102.4 12.8 89.6-29.867zM844.8 281.6c0 0 55.467-21.333 55.467-12.8 4.267 8.533-38.4 12.8-55.467 12.8zM268.8 247.467h153.6v-55.467h-153.6v55.467zM268.8 324.267h153.6v-55.467h-153.6v55.467zM247.467 315.733h-25.6l-17.067-68.267-21.333 68.267h-12.8l-21.333-68.267-17.067 68.267h-25.6l25.6-115.2h25.6l21.333 68.267 21.333-68.267h25.6zM200.533 170.667h221.867v-42.667h-221.867v42.667zM341.333 627.2h-234.667c-38.4 0-64-29.867-64-64v-482.133c0-34.133 25.6-64 59.733-64h320c34.133 0 59.733 29.867 59.733 64v349.867l-140.8 196.267zM426.667 102.4h-234.667l-12.8 12.8v51.2h-76.8c-4.267 0-8.533 0-8.533 4.267-4.267 4.267-4.267 8.533-4.267 8.533v149.333c0 4.267 0 8.533 4.267 8.533 4.267 4.267 8.533 4.267 8.533 4.267h72.533v51.2l8.533 12.8h238.933l12.8-12.8v-277.333l-8.533-12.8zM200.533 392.533h221.867v-42.667h-221.867v42.667zM366.933 878.933c-29.867 0-55.467-25.6-55.467-55.467v-140.8h55.467v140.8h221.867v-55.467h-68.267l98.133-98.133 98.133 98.133h-68.267v55.467c0 29.867-25.6 55.467-55.467 55.467h-226.133z" />
<glyph unicode="&#xe90a;" glyph-name="ppttopdf" d="M366.933 878.933c-29.867 0-55.467-25.6-55.467-55.467v-140.8h55.467v140.8h221.867v-55.467h-68.267l98.133-98.133 98.133 98.133h-68.267v55.467c0 29.867-25.6 55.467-55.467 55.467h-226.133zM746.667 354.133c-12.8-42.667-38.4-85.333-38.4-85.333 25.6 12.8 85.333 21.333 85.333 21.333-34.133 29.867-46.933 64-46.933 64zM746.667 465.067c-8.533 0 0-51.2 0-55.467 0 4.267 12.8 55.467 0 55.467zM622.933 187.733c4.267 0 29.867 17.067 42.667 51.2-21.333-12.8-46.933-51.2-42.667-51.2zM840.533 631.467h-238.933c-34.133 0-59.733-29.867-59.733-64v-482.133c0-34.133 25.6-64 59.733-64h320c34.133 0 59.733 29.867 59.733 64v349.867l-140.8 196.267zM917.333 273.067c-12.8-46.933-110.933-4.267-110.933-4.267-59.733-4.267-106.667-21.333-106.667-21.333-34.133-68.267-76.8-93.867-93.867-68.267-21.333 34.133 68.267 81.067 68.267 81.067 46.933 72.533 51.2 115.2 51.2 119.467-8.533 25.6-25.6 102.4 21.333 102.4 42.667 0 17.067-98.133 17.067-98.133 12.8-46.933 64-81.067 64-81.067 12.8 4.267 102.4 12.8 89.6-29.867zM844.8 285.867c0 0 55.467-21.333 55.467-12.8 4.267 8.533-42.667 12.8-55.467 12.8zM345.6 631.467h-243.2c-34.133 0-59.733-29.867-59.733-64v-482.133c0-34.133 25.6-64 59.733-64h320c34.133 0 59.733 29.867 59.733 64v349.867l-136.533 196.267zM149.333 341.333h42.667c25.6 0 34.133-8.533 34.133-29.867s-12.8-29.867-38.4-29.867h-8.533v-38.4h-29.867v98.133zM277.333 149.333c-42.667 0-85.333 21.333-110.933 55.467h68.267c21.333 0 42.667 17.067 42.667 42.667v85.333c0 21.333-21.333 42.667-42.667 42.667h-72.533c25.6 34.133 68.267 59.733 115.2 59.733 76.8 0 140.8-64 140.8-140.8s-64-145.067-140.8-145.067zM200.533 315.733c0 12.8-4.267 21.333-17.067 21.333h-4.267v-38.4h8.533c8.533-4.267 12.8 4.267 12.8 17.067z" />
<glyph unicode="&#xe90b;" glyph-name="exceltopdf" d="M746.667 354.133c-12.8-42.667-38.4-85.333-38.4-85.333 25.6 12.8 85.333 21.333 85.333 21.333-34.133 29.867-46.933 64-46.933 64zM746.667 465.067c-8.533 0 0-51.2 0-55.467 0 4.267 12.8 55.467 0 55.467zM627.2 187.733c4.267 0 29.867 17.067 42.667 51.2-25.6-12.8-51.2-51.2-42.667-51.2zM840.533 631.467h-238.933c-34.133 0-59.733-29.867-59.733-64v-482.133c0-34.133 25.6-64 59.733-64h320c34.133 0 59.733 29.867 59.733 64v349.867l-140.8 196.267zM917.333 273.067c-12.8-46.933-110.933-4.267-110.933-4.267-59.733-4.267-106.667-21.333-106.667-21.333-34.133-68.267-76.8-93.867-93.867-68.267-21.333 34.133 68.267 81.067 68.267 81.067 46.933 72.533 51.2 115.2 51.2 119.467-8.533 25.6-25.6 102.4 21.333 102.4 42.667 0 17.067-98.133 17.067-98.133 12.8-46.933 64-81.067 64-81.067 12.8 4.267 102.4 12.8 89.6-29.867zM844.8 285.867c0 0 55.467-21.333 55.467-12.8 4.267 8.533-38.4 12.8-55.467 12.8zM264.533 273.067h29.867v-51.2h-29.867v51.2zM204.8 405.333h93.867v-42.667h-93.867v42.667zM200.533 281.6l29.867 51.2h-25.6l-17.067-34.133c-4.267 4.267-4.267 12.8-8.533 17.067s-4.267 12.8-8.533 17.067h-29.867l29.867-51.2-34.133-51.2h29.867l21.333 34.133 21.333-34.133h29.867l-38.4 51.2zM311.467 200.533h89.6v-42.667h-89.6v42.667zM204.8 200.533h93.867v-42.667h-93.867v42.667zM264.533 345.6h29.867v-51.2h-29.867v51.2zM311.467 405.333h89.6v-42.667h-89.6v42.667zM311.467 273.067h89.6v-51.2h-89.6v51.2zM345.6 631.467h-238.933c-38.4 0-64-29.867-64-64v-482.133c0-34.133 25.6-64 64-64h320c34.133 0 59.733 29.867 59.733 64v349.867l-140.8 196.267zM418.133 140.8h-217.6l-12.8 12.8v46.933h-72.533c-4.267 0-8.533 0-8.533 4.267-4.267 4.267-4.267 4.267-4.267 8.533v136.533c0 4.267 0 8.533 4.267 8.533 4.267 4.267 8.533 4.267 8.533 4.267h68.267v46.933l12.8 12.8h217.6l12.8-12.8v-256l-8.533-12.8zM311.467 345.6h89.6v-51.2h-89.6v51.2zM366.933 878.933c-29.867 0-55.467-25.6-55.467-55.467v-140.8h55.467v140.8h221.867v-55.467h-68.267l98.133-98.133 98.133 98.133h-68.267v55.467c0 29.867-25.6 55.467-55.467 55.467h-226.133z" />
<glyph unicode="&#xe90c;" glyph-name="texttopdf" d="M366.933 878.933c-29.867 0-55.467-25.6-55.467-55.467v-140.8h55.467v140.8h221.867v-55.467h-68.267l98.133-98.133 98.133 98.133h-68.267v55.467c0 29.867-25.6 55.467-55.467 55.467h-226.133zM746.667 354.133c-12.8-42.667-38.4-85.333-38.4-85.333 25.6 12.8 85.333 21.333 85.333 21.333-34.133 29.867-46.933 64-46.933 64zM746.667 465.067c-8.533 0 0-51.2 0-55.467 0 4.267 12.8 55.467 0 55.467zM622.933 187.733c4.267 0 29.867 17.067 42.667 51.2-21.333-12.8-46.933-51.2-42.667-51.2zM840.533 631.467h-238.933c-34.133 0-59.733-29.867-59.733-64v-482.133c0-34.133 25.6-64 59.733-64h320c34.133 0 59.733 29.867 59.733 64v349.867l-140.8 196.267zM917.333 273.067c-12.8-46.933-110.933-4.267-110.933-4.267-59.733-4.267-106.667-21.333-106.667-21.333-34.133-68.267-76.8-93.867-93.867-68.267-21.333 34.133 68.267 81.067 68.267 81.067 46.933 72.533 51.2 115.2 51.2 119.467-8.533 25.6-25.6 102.4 21.333 102.4 42.667 0 17.067-98.133 17.067-98.133 12.8-46.933 64-81.067 64-81.067 12.8 4.267 102.4 12.8 89.6-29.867zM844.8 285.867c0 0 55.467-21.333 55.467-12.8 4.267 8.533-42.667 12.8-55.467 12.8zM345.6 631.467h-238.933c-38.4 0-64-29.867-64-64v-482.133c0-38.4 25.6-64 64-64h320c34.133 0 59.733 29.867 59.733 64v349.867l-140.8 196.267zM332.8 243.2h-213.333v55.467h217.6v-55.467zM418.133 341.333h-298.667v55.467h302.933v-55.467z" />
<glyph unicode="&#xe90d;" glyph-name="pdfwatermark" d="M481.28 724.48c-20.48 0 0-107.52 0-112.64 0 5.12 25.6 107.52 0 112.64zM481.28 494.080c-25.6-81.92-76.8-174.080-76.8-174.080 56.32 25.6 174.080 46.080 174.080 46.080-71.68 66.56-97.28 128-97.28 128zM235.52 156.16c10.24 0 56.32 40.96 87.040 102.4-51.2-20.48-97.28-102.4-87.040-102.4zM870.4 908.8h-716.8c-56.32 0-102.4-46.080-102.4-102.4v-716.8c0-56.32 46.080-102.4 102.4-102.4h716.8c56.32 0 102.4 46.080 102.4 102.4v716.8c0 56.32-46.080 102.4-102.4 102.4zM389.12 279.040c-71.68-133.12-158.72-189.44-189.44-138.24-40.96 71.68 138.24 163.84 138.24 163.84 92.16 148.48 107.52 235.52 107.52 240.64-15.36 51.2-51.2 204.8 40.96 209.92s25.6-199.68 25.6-199.68c25.6-97.28 128-163.84 128-163.84 30.72 10.24 215.040 30.72 189.44-66.56s-225.28-5.12-225.28-5.12c-122.88-5.12-215.040-40.96-215.040-40.96zM921.6 38.4h-307.2v204.8h307.2v-204.8zM798.72 330.24c5.12 15.36-87.040 30.72-117.76 25.6 0 0 112.64-40.96 117.76-25.6z" />
<glyph unicode="&#xe90e;" glyph-name="pdftoppt" d="M366.933 878.933c-29.867 0-55.467-25.6-55.467-55.467v-140.8h55.467v140.8h221.867v-55.467h-68.267l98.133-98.133 98.133 98.133h-68.267v55.467c0 29.867-25.6 55.467-55.467 55.467h-226.133zM256 354.133c-12.8-42.667-38.4-85.333-38.4-85.333 25.6 12.8 85.333 21.333 85.333 21.333-38.4 29.867-46.933 64-46.933 64zM256 465.067c-8.533 0 0-51.2 0-55.467 0 4.267 12.8 55.467 0 55.467zM132.267 187.733c4.267 0 29.867 17.067 42.667 51.2-25.6-12.8-46.933-51.2-42.667-51.2zM349.867 631.467h-243.2c-34.133 0-59.733-29.867-59.733-64v-482.133c0-38.4 25.6-64 59.733-64h320c34.133 0 59.733 29.867 59.733 64v349.867l-136.533 196.267zM426.667 273.067c-12.8-46.933-110.933-4.267-110.933-4.267-59.733-4.267-106.667-21.333-106.667-21.333-34.133-68.267-76.8-93.867-93.867-68.267-21.333 34.133 68.267 81.067 68.267 81.067 46.933 72.533 51.2 115.2 51.2 119.467-8.533 25.6-25.6 102.4 21.333 102.4 42.667 0 17.067-98.133 17.067-98.133 12.8-46.933 64-81.067 64-81.067 12.8 4.267 102.4 12.8 89.6-29.867zM354.133 285.867c0 0 55.467-21.333 55.467-12.8s-42.667 12.8-55.467 12.8zM840.533 631.467h-243.2c-34.133 0-59.733-29.867-59.733-64v-482.133c0-34.133 25.6-64 59.733-64h320c34.133 0 59.733 29.867 59.733 64v349.867l-136.533 196.267zM644.267 341.333h42.667c25.6 0 34.133-8.533 34.133-29.867s-12.8-29.867-38.4-29.867h-8.533v-38.4h-29.867v98.133zM772.267 149.333c-42.667 0-85.333 21.333-110.933 55.467h64c21.333 0 42.667 17.067 42.667 42.667v85.333c0 21.333-21.333 42.667-42.667 42.667h-72.533c25.6 34.133 68.267 59.733 115.2 59.733 76.8 0 140.8-64 140.8-140.8s-59.733-145.067-136.533-145.067zM695.467 315.733c0 12.8-4.267 21.333-17.067 21.333h-8.533v-38.4h12.8c8.533-4.267 12.8 4.267 12.8 17.067z" />
<glyph unicode="&#xe90f;" glyph-name="pdftoword" d="M247.467 349.867c-12.8-42.667-38.4-85.333-38.4-85.333 25.6 12.8 85.333 21.333 85.333 21.333-29.867 29.867-46.933 64-46.933 64zM247.467 460.8c-8.533 0 0-51.2 0-55.467 0 4.267 17.067 55.467 0 55.467zM132.267 183.467c4.267 0 29.867 17.067 42.667 51.2-25.6-12.8-51.2-51.2-42.667-51.2zM341.333 627.2h-234.667c-38.4 0-64-29.867-64-64v-482.133c0-34.133 25.6-64 59.733-64h320c34.133 0 59.733 29.867 59.733 64v349.867l-140.8 196.267zM418.133 268.8c-12.8-46.933-110.933-4.267-110.933-4.267-59.733-4.267-106.667-21.333-106.667-21.333-34.133-68.267-72.533-93.867-93.867-68.267-21.333 34.133 68.267 81.067 68.267 81.067 46.933 72.533 51.2 115.2 51.2 119.467-8.533 25.6-25.6 102.4 21.333 102.4 42.667 0 17.067-98.133 17.067-98.133 12.8-46.933 64-81.067 64-81.067 12.8 4.267 102.4 12.8 89.6-29.867zM345.6 281.6c0 0 55.467-21.333 55.467-12.8 4.267 8.533-38.4 12.8-55.467 12.8zM763.733 247.467h153.6v-55.467h-153.6v55.467zM763.733 324.267h153.6v-55.467h-153.6v55.467zM742.4 315.733h-25.6l-12.8-68.267-21.333 68.267h-17.067l-21.333-68.267-17.067 68.267h-25.6l25.6-115.2h25.6l21.333 68.267 21.333-68.267h25.6zM695.467 170.667h221.867v-42.667h-221.867v42.667zM840.533 627.2h-238.933c-34.133 0-59.733-29.867-59.733-64v-482.133c0-34.133 25.6-64 59.733-64h320c34.133 0 59.733 29.867 59.733 64v349.867l-140.8 196.267zM925.867 102.4h-238.933l-12.8 12.8v51.2h-76.8c-4.267 0-8.533 0-8.533 4.267-4.267 4.267-4.267 8.533-4.267 8.533v149.333c0 4.267 0 8.533 4.267 8.533 4.267 4.267 8.533 4.267 8.533 4.267h72.533v51.2l12.8 12.8h238.933l12.8-12.8v-277.333l-8.533-12.8zM695.467 392.533h221.867v-42.667h-221.867v42.667zM366.933 878.933c-29.867 0-55.467-25.6-55.467-55.467v-140.8h55.467v140.8h221.867v-55.467h-68.267l98.133-98.133 98.133 98.133h-68.267v55.467c0 29.867-25.6 55.467-55.467 55.467h-226.133z" />
<glyph unicode="&#xe910;" glyph-name="pdftotext" d="M366.933 878.933c-29.867 0-55.467-25.6-55.467-55.467v-140.8h55.467v140.8h221.867v-55.467h-68.267l98.133-98.133 98.133 98.133h-68.267v55.467c0 29.867-25.6 55.467-55.467 55.467h-226.133zM256 354.133c-12.8-42.667-38.4-85.333-38.4-85.333 25.6 12.8 85.333 21.333 85.333 21.333-38.4 29.867-46.933 64-46.933 64zM256 465.067c-8.533 0 0-51.2 0-55.467 0 4.267 12.8 55.467 0 55.467zM132.267 187.733c4.267 0 29.867 17.067 42.667 51.2-25.6-12.8-46.933-51.2-42.667-51.2zM349.867 631.467h-243.2c-34.133 0-59.733-29.867-59.733-64v-482.133c0-38.4 25.6-64 59.733-64h320c34.133 0 59.733 29.867 59.733 64v349.867l-136.533 196.267zM426.667 273.067c-12.8-46.933-110.933-4.267-110.933-4.267-59.733-4.267-106.667-21.333-106.667-21.333-34.133-68.267-76.8-93.867-93.867-68.267-21.333 34.133 68.267 81.067 68.267 81.067 46.933 72.533 51.2 115.2 51.2 119.467-8.533 25.6-25.6 102.4 21.333 102.4 42.667 0 17.067-98.133 17.067-98.133 12.8-46.933 64-81.067 64-81.067 12.8 4.267 102.4 12.8 89.6-29.867zM354.133 285.867c0 0 55.467-21.333 55.467-12.8s-42.667 12.8-55.467 12.8zM840.533 631.467h-238.933c-34.133 0-59.733-29.867-59.733-64v-482.133c0-34.133 25.6-64 59.733-64h320c34.133 0 59.733 29.867 59.733 64v349.867l-140.8 196.267zM827.733 243.2h-217.6v55.467h217.6v-55.467zM913.067 341.333h-302.933v55.467h302.933v-55.467z" />
<glyph unicode="&#xe911;" glyph-name="pdftoexcel" d="M247.467 354.133c-12.8-42.667-38.4-85.333-38.4-85.333 25.6 12.8 85.333 21.333 85.333 21.333-29.867 29.867-46.933 64-46.933 64zM247.467 465.067c-8.533 0 0-51.2 0-55.467 0 4.267 17.067 55.467 0 55.467zM132.267 187.733c4.267 0 29.867 17.067 42.667 51.2-25.6-12.8-51.2-51.2-42.667-51.2zM345.6 631.467h-238.933c-38.4 0-64-29.867-64-64v-482.133c0-34.133 25.6-64 64-64h320c34.133 0 59.733 29.867 59.733 64v349.867l-140.8 196.267zM422.4 273.067c-12.8-46.933-110.933-4.267-110.933-4.267-59.733-4.267-106.667-21.333-106.667-21.333-34.133-68.267-76.8-93.867-93.867-68.267-21.333 34.133 68.267 81.067 68.267 81.067 46.933 72.533 51.2 115.2 51.2 119.467-8.533 25.6-25.6 102.4 21.333 102.4 42.667 0 17.067-98.133 17.067-98.133 12.8-46.933 64-81.067 64-81.067 12.8 4.267 102.4 12.8 89.6-29.867zM349.867 285.867c0 0 55.467-21.333 55.467-12.8 4.267 8.533-38.4 12.8-55.467 12.8zM759.467 273.067h29.867v-51.2h-29.867v51.2zM699.733 405.333h93.867v-42.667h-93.867v42.667zM695.467 281.6l29.867 51.2h-25.6l-17.067-34.133c-4.267 4.267-4.267 12.8-8.533 17.067s-4.267 12.8-8.533 17.067h-29.867l29.867-51.2-34.133-51.2h29.867l21.333 34.133 21.333-34.133h29.867l-38.4 51.2zM810.667 200.533h89.6v-42.667h-89.6v42.667zM699.733 200.533h93.867v-42.667h-93.867v42.667zM759.467 345.6h29.867v-51.2h-29.867v51.2zM810.667 405.333h89.6v-42.667h-89.6v42.667zM810.667 273.067h89.6v-51.2h-89.6v51.2zM840.533 631.467h-238.933c-34.133 0-59.733-29.867-59.733-64v-482.133c0-34.133 25.6-64 59.733-64h320c34.133 0 59.733 29.867 59.733 64v349.867l-140.8 196.267zM913.067 140.8h-217.6l-12.8 12.8v46.933h-72.533c-4.267 0-8.533 0-8.533 4.267-4.267 4.267-4.267 4.267-4.267 8.533v136.533c0 4.267 0 8.533 4.267 8.533 4.267 4.267 8.533 4.267 8.533 4.267h68.267v46.933l12.8 12.8h217.6l12.8-12.8v-256l-8.533-12.8zM810.667 345.6h89.6v-51.2h-89.6v51.2zM366.933 878.933c-29.867 0-55.467-25.6-55.467-55.467v-140.8h55.467v140.8h221.867v-55.467h-68.267l98.133-98.133 98.133 98.133h-68.267v55.467c0 29.867-25.6 55.467-55.467 55.467h-226.133z" />
<glyph unicode="&#xe912;" glyph-name="pdfcompression" d="M486.4 678.4c-17.067 0 0-89.6 0-93.867 0 4.267 21.333 89.6 0 93.867zM486.4 486.4c-21.333-68.267-64-145.067-64-145.067 46.933 21.333 145.067 38.4 145.067 38.4-59.733 55.467-81.067 106.667-81.067 106.667zM128 507.733v-119.467l59.733 59.733zM281.6 204.8c8.533 0 46.933 34.133 72.533 85.333-42.667-17.067-81.067-85.333-72.533-85.333zM652.8 371.2c0 0 93.867-34.133 98.133-21.333 0 12.8-72.533 25.6-98.133 21.333zM896 507.733l-59.733-59.733 59.733-59.733zM776.533 448l119.467 119.467v179.2c0 46.933-38.4 85.333-85.333 85.333h-597.333c-46.933 0-85.333-38.4-85.333-85.333v-174.933l123.733-123.733-123.733-123.733v-174.933c0-46.933 38.4-85.333 85.333-85.333h597.333c46.933 0 85.333 38.4 85.333 85.333v179.2l-119.467 119.467zM776.533 349.867c-21.333-76.8-187.733-4.267-187.733-4.267-102.4-8.533-179.2-34.133-179.2-34.133-59.733-110.933-132.267-157.867-157.867-115.2-34.133 59.733 115.2 136.533 115.2 136.533 76.8 123.733 89.6 196.267 89.6 200.533-12.8 42.667-42.667 170.667 34.133 174.933s21.333-170.667 21.333-170.667c21.333-81.067 106.667-136.533 106.667-136.533 25.6 8.533 179.2 25.6 157.867-51.2z" />
<glyph unicode="&#xe913;" glyph-name="lock-pdf" d="M512 234.667c46.933 0 85.333 38.4 85.333 85.333s-38.4 85.333-85.333 85.333c-46.933 0-85.333-38.4-85.333-85.333s38.4-85.333 85.333-85.333zM768 618.667c46.933 0 85.333-38.4 85.333-85.333v-426.667c0-46.933-38.4-85.333-85.333-85.333h-512c-46.933 0-85.333 38.4-85.333 85.333v426.667c0 46.933 38.4 85.333 85.333 85.333h42.667v85.333c0 119.467 93.867 213.333 213.333 213.333s213.333-93.867 213.333-213.333v-85.333h42.667zM512 832c-72.533 0-128-55.467-128-128v-85.333h256v85.333c0 72.533-55.467 128-128 128z" />
<glyph unicode="&#xe914;" glyph-name="signaturebyme" d="M810.24 148.907v169.813h-84.907v-169.813h-84.907l127.147-127.573 127.573 127.573zM762.88 406.187c15.787 0 31.147-1.707 45.653-4.267v217.6l-254.72 255.147h-340.053c-47.36 0-84.907-37.973-84.907-84.907v-680.107c0-46.933 37.973-84.907 84.907-84.907h333.227c-22.613 37.973-36.267 81.92-36.267 129.707 0 138.667 113.067 251.733 252.16 251.733zM511.147 811.093l233.813-233.813h-233.813v233.813zM375.893 150.613c-33.707-11.093-79.787 15.36-107.52 32.427l18.347 30.72c18.347-11.52 46.080-29.013 68.267-29.013 8.533 0 9.387 0.427 5.547 8.533-3.413 8.107-11.093 15.36-17.067 21.333-28.587 28.587-66.987 44.373-91.733 77.227-10.24 14.080-19.627 32-14.080 49.92 6.4 20.907 26.453 24.747 45.653 21.76 33.707-4.693 69.547-21.333 97.707-39.68l-18.347-30.72c-14.933 9.387-31.147 17.493-47.787 24.32-9.387 3.84-27.733 14.507-38.4 12.373-10.24-2.133 0-13.227 4.693-19.2 11.52-14.507 26.453-26.88 42.24-37.12 22.187-14.933 44.373-30.293 60.587-52.907 17.067-22.613 23.893-57.173-8.107-69.973zM436.053 291.84h-37.547v37.547l110.933 110.933 37.547-37.547-110.933-110.933zM575.573 431.787l-18.347-18.347-37.547 37.547 18.347 18.347c3.84 3.84 10.24 3.84 14.080 0l23.467-23.467c4.267-3.84 4.267-10.24 0-14.080z" />
<glyph unicode="&#xe915;" glyph-name="signaturetome" d="M810.24 191.147v-169.813h-84.907v169.813h-84.907l127.147 127.573 127.573-127.573zM762.88 406.187c15.787 0 31.147-1.707 45.653-4.267v217.6l-254.72 255.147h-340.053c-47.36 0-84.907-37.973-84.907-84.907v-680.107c0-46.933 37.973-84.907 84.907-84.907h333.227c-22.613 37.973-36.267 81.92-36.267 129.707 0 138.667 113.067 251.733 252.16 251.733zM511.147 811.093l233.813-233.813h-233.813v233.813zM375.893 150.613c-33.707-11.093-79.787 15.36-107.52 32.427l18.347 30.72c18.347-11.52 46.080-29.013 68.267-29.013 8.533 0 9.387 0.427 5.547 8.533-3.413 8.107-11.093 15.36-17.067 21.333-28.587 28.587-66.987 44.373-91.733 77.227-10.24 14.080-19.627 32-14.080 49.92 6.4 20.907 26.453 24.747 45.653 21.76 33.707-4.693 69.547-21.333 97.707-39.68l-18.347-30.72c-14.933 9.387-31.147 17.493-47.787 24.32-9.387 3.84-27.733 14.507-38.4 12.373-10.24-2.133 0-13.227 4.693-19.2 11.52-14.507 26.453-26.88 42.24-37.12 22.187-14.933 44.373-30.293 60.587-52.907 17.067-22.613 23.893-57.173-8.107-69.973zM436.053 291.84h-37.547v37.547l110.933 110.933 37.547-37.547-110.933-110.933zM575.573 431.787l-18.347-18.347-37.547 37.547 18.347 18.347c3.84 3.84 10.24 3.84 14.080 0l23.467-23.467c4.267-3.84 4.267-10.24 0-14.080z" />
<glyph unicode="&#xe916;" glyph-name="issuebyme" d="M296.96 426.667l245.76-89.173c11.947-4.693 22.187-11.093 30.72-18.773 25.173 90.88 109.653 157.44 210.347 157.44 13.653 0 26.88-1.28 39.68-3.84v185.6l-221.013 216.747h-294.4c-40.96 0-73.813-32-73.813-72.107v-375.893h62.72zM565.76 820.48l202.667-198.827h-202.667v198.827zM898.56 257.707l-110.507-108.373-110.507 108.373h73.813v144.64h73.813v-144.64h73.387zM646.4 180.907c18.773 0 34.56-6.4 47.36-19.2s19.2-27.733 18.773-44.8l-261.12-95.573-195.413 64v287.147h30.72l236.373-85.76c17.067-6.4 25.173-18.347 25.173-35.84 0-9.813-3.84-18.773-11.093-26.027s-16.64-11.52-28.16-11.947h-90.027l-56.747 21.333-10.667-29.867 67.84-23.467h226.987zM125.44 372.48h65.707v-351.147h-65.707v351.147z" />
<glyph unicode="&#xe917;" glyph-name="issuetome" d="M646.4 183.893c18.773 0 34.56-6.4 47.36-19.627 12.8-12.8 19.2-28.16 18.773-45.653l-261.12-97.28-195.413 64.853v292.693h30.72l236.373-87.467c17.067-6.827 25.173-18.773 25.173-36.267 0-10.24-3.84-19.2-11.093-26.88s-16.64-11.52-28.16-11.947h-90.027l-56.747 21.76-10.667-30.72 67.84-23.893h226.987zM125.44 379.307h65.707v-357.973h-65.707v357.973zM788.053 393.387l-110.507-110.507h73.813v-103.68c8.107-13.653 13.227-28.16 14.933-43.52h58.453v147.2h73.813l-110.507 110.507zM296.96 434.347l245.76-90.88c13.653-5.547 25.173-13.227 34.56-22.613 29.44 85.76 110.507 147.627 206.507 147.627 13.653 0 26.88-1.28 39.68-3.84v189.013l-221.013 221.013h-294.4c-40.96 0-73.813-32.853-73.813-73.813v-366.507h62.72zM565.76 819.627l202.667-202.667h-202.667v202.667z" />
<glyph unicode="&#xe918;" glyph-name="requestbyme" d="M529.493 151.893c0 139.52 113.067 253.013 253.013 253.013 9.387 0 18.773-0.427 28.16-1.707v215.467l-256 256h-341.333c-47.36 0-85.333-37.973-85.333-85.333v-682.667c0-46.933 38.4-85.333 85.333-85.333h352.853c-23.040 38.4-36.693 82.773-36.693 130.56zM512 810.667l234.667-234.667h-234.667v234.667zM354.56 241.067l-194.133 75.093 10.24 31.573c2.987 8.107 10.24 14.933 18.347 17.92l6.4 2.987 97.707 19.627-104.107 235.947c-11.093 24.747 0.427 53.76 25.173 64.853 25.6 11.093 54.613-0.427 65.28-25.173l56.32-128 17.067 7.253 15.36 3.413 114.347-5.547c17.92 1.707 35.413-9.387 41.387-26.453l2.56-5.973 40.533-146.347c2.987-9.813 2.56-20.907-2.56-30.72-3.84-9.813-11.52-17.067-21.333-21.333l-154.88-68.267c-11.093-4.693-23.040-5.12-33.707-0.853zM896 151.040l-128-128-128 128h85.333v170.667h85.333v-170.667h85.333z" />
<glyph unicode="&#xe919;" glyph-name="requesttome" d="M530.347 151.893c0 139.52 113.067 253.013 253.013 253.013 9.387 0 18.773-0.427 28.16-1.707v215.467l-256 256h-341.333c-47.36 0-85.333-37.973-85.333-85.333v-682.667c0-46.933 38.4-85.333 85.333-85.333h352.853c-23.040 38.4-36.693 82.773-36.693 130.56zM512.853 810.667l234.667-234.667h-234.667v234.667zM354.987 241.067l-194.133 75.093 10.24 31.573c2.987 8.107 10.24 14.933 18.347 17.92l6.4 2.987 97.707 19.627-104.107 235.947c-11.093 24.747 0.427 53.76 25.173 64.853 25.6 11.093 54.613-0.427 65.28-25.173l56.32-128 17.067 7.253 15.36 3.413 114.347-5.547c17.92 1.707 35.413-9.387 41.387-26.453l2.56-5.973 40.533-146.347c2.987-9.813 2.56-20.907-2.56-30.72-3.84-9.813-11.52-17.067-21.333-21.333l-154.88-68.267c-11.093-4.693-23.040-5.12-33.707-0.853zM809.813 192.427v-170.667h-85.333v170.667h-85.333l128 128 128-128h-85.333z" />
<glyph unicode="&#xe91a;" glyph-name="sharebyme" d="M762.88 406.187c15.787 0 31.147-1.707 45.653-4.267v217.6l-254.72 255.147h-340.053c-47.36 0-84.907-37.973-84.907-84.907v-680.107c0-46.933 37.973-84.907 84.907-84.907h333.227c-22.613 37.973-36.267 81.92-36.267 129.707 0 138.667 113.067 251.733 252.16 251.733zM341.76 90.027v69.973c-84.907 0-144.64-27.307-187.307-86.613 17.067 84.907 68.267 170.24 187.307 187.307v68.267l119.040-119.040-119.040-119.893zM511.147 811.093l233.813-233.813h-233.813v233.813zM810.24 148.907v169.813h-84.907v-169.813h-84.907l127.147-127.573 127.573 127.573z" />
<glyph unicode="&#xe91b;" glyph-name="sharetome" d="M767.573 318.72l-127.147-127.573h84.907v-169.813h84.907v169.813h84.907zM762.88 406.187c15.787 0 31.147-1.707 45.653-4.267v217.6l-254.72 255.147h-340.053c-47.36 0-84.907-37.973-84.907-84.907v-680.107c0-46.933 37.973-84.907 84.907-84.907h333.227c-22.613 37.973-36.267 81.92-36.267 129.707 0 138.667 113.067 251.733 252.16 251.733zM341.76 90.88v69.973c-84.907 0-144.64-27.307-187.307-86.613 17.067 84.907 68.267 170.24 187.307 187.307v68.267l119.040-119.040-119.040-119.893zM511.147 811.093l233.813-233.813h-233.813v233.813z" />
<glyph unicode="&#xe91c;" glyph-name="issue" d="M810.24 221.867c24.32 0 45.227-8.533 61.867-25.6s25.173-37.12 24.747-59.733l-342.613-128-256 85.333v384h40.533l310.187-114.773c22.187-8.96 33.28-24.747 33.28-47.787 0-13.227-4.693-25.173-14.507-34.987s-21.76-15.36-36.693-15.787h-119.467l-74.667 28.587-14.080-40.107 88.747-31.147h298.667zM127.147 477.867h86.187v-469.333h-86.187v469.333zM337.067 532.48c0 0 313.173-111.36 363.947-129.28 50.347-18.347 26.453-104.96 26.453-104.96s61.867-3.84 105.813-10.24c18.347-2.56 42.24-20.053 64-38.827v382.293l-256 256h-341.333c-47.36 0-85.333-37.973-85.333-85.333v-269.653h122.453zM598.187 823.467l234.667-234.667h-234.667v234.667z" />
<glyph unicode="&#xe91d;" glyph-name="requestdocument" d="M597.333 874.667h-341.333c-47.36 0-85.333-37.973-85.333-85.333v-682.667c0-46.933 38.4-85.333 85.333-85.333h512c46.933 0 85.333 38.4 85.333 85.333v512l-256 256zM676.267 211.627c-3.84-9.813-11.52-17.067-21.333-21.333l-154.88-68.267c-11.093-4.693-23.040-5.12-33.707-0.853l-194.133 75.093 10.24 31.573c2.987 8.107 10.24 14.933 18.347 17.92l6.4 2.987 97.707 19.627-104.107 235.947c-11.093 24.747 0.427 53.76 25.173 64.853 25.6 11.093 54.613-0.427 65.28-25.173l56.32-128 17.067 7.253 15.36 3.413 114.347-5.547c17.92 1.707 35.413-9.387 41.387-26.453l2.56-5.973 40.533-146.347c2.987-9.813 2.56-20.907-2.56-30.72zM554.667 576v234.667l234.667-234.667h-234.667z" />
<glyph unicode="&#xe91e;" glyph-name="share" d="M597.333 874.667h-341.333c-47.36 0-85.333-37.973-85.333-85.333v-682.667c0-46.933 38.4-85.333 85.333-85.333h512c46.933 0 85.333 38.4 85.333 85.333v512l-256 256zM397.227 75.947v67.413c-81.92 0-139.52-26.453-180.48-83.627 16.213 81.92 65.707 164.267 180.48 180.48v65.707l114.773-115.2-114.773-114.773zM554.667 576v234.667l234.667-234.667h-234.667z" />
<glyph unicode="&#xe91f;" glyph-name="signature-request" d="M597.333 874.667h-341.333c-47.36 0-85.333-37.973-85.333-85.333v-682.667c0-46.933 38.4-85.333 85.333-85.333h512c46.933 0 85.333 38.4 85.333 85.333v512l-256 256zM456.96 92.16c-48.64-16.213-114.773 22.187-154.453 46.507l26.027 43.947c26.027-16.64 66.56-41.813 98.56-41.813 12.373 0 13.653 0.853 8.107 12.373-5.12 11.947-15.787 22.187-24.747 30.72-41.387 40.96-96.427 64-131.84 111.36-14.933 20.053-28.16 46.080-20.053 71.68 9.387 29.867 38.4 35.413 65.707 31.573 48.213-6.827 100.267-30.72 140.8-57.173l-26.027-43.947c-21.76 13.653-45.227 24.747-68.693 34.56-13.653 5.547-40.107 20.907-55.040 17.493-14.933-2.987-0.427-18.773 6.827-27.307 17.067-20.907 37.973-38.827 60.587-53.333 32-21.333 64-43.947 87.040-76.373 23.467-32 33.28-81.92-12.8-100.267zM543.573 295.68h-53.76v54.187l159.573 159.573 53.76-53.76-159.573-160zM744.533 497.067l-26.453-26.027-53.76 53.76 26.453 26.453c5.547 5.547 14.933 5.547 20.053 0l33.707-33.707c5.973-5.547 5.973-14.933 0-20.48zM554.667 576v234.667l234.667-234.667h-234.667z" />
<glyph unicode="&#xe920;" glyph-name="lightbulb-on" d="M512 704c141.385 0 256-114.615 256-256v0c0-94.72-51.627-177.493-128-221.867v-76.8c0-23.564-19.103-42.667-42.667-42.667v0h-170.667c-23.564 0-42.667 19.103-42.667 42.667v0 76.8c-76.373 44.373-128 127.147-128 221.867 0 141.385 114.615 256 256 256v0zM597.333 64v-42.667c0-23.564-19.103-42.667-42.667-42.667v0h-85.333c-23.564 0-42.667 19.103-42.667 42.667v0 42.667h170.667zM853.333 490.667h128v-85.333h-128v85.333zM42.667 490.667h128v-85.333h-128v85.333zM554.667 917.333v-128h-85.333v128h85.333zM209.92 810.667l90.88-91.307-60.587-60.16-90.88 90.453 60.587 61.013zM723.2 719.787l90.453 90.88 61.013-61.013-90.88-90.453-60.587 60.587z" />
<glyph unicode="&#xe921;" glyph-name="whatsappgroup" d="M512 874.667c234.667 0 426.667-192 426.667-426.667s-192-426.667-426.667-426.667c-85.333 0-162.133 25.6-226.133 64l-200.533-64 64 196.267c-38.4 68.267-64 145.067-64 230.4 0 234.667 192 426.667 426.667 426.667zM512 789.333c-187.733 0-341.333-153.6-341.333-341.333 0-72.533 21.333-140.8 64-196.267l-42.667-123.733 123.733 42.667c55.467-42.667 123.733-64 196.267-64 187.733 0 341.333 153.6 341.333 341.333s-153.6 341.333-341.333 341.333zM512 631.467c42.667 0 72.533-34.133 72.533-72.533s-29.867-72.533-72.533-72.533-72.533 34.133-72.533 72.533 29.867 72.533 72.533 72.533zM362.667 580.267c12.8 0 21.333-4.267 34.133-8.533-4.267-29.867 4.267-59.733 25.6-85.333-8.533-21.333-29.867-34.133-55.467-34.133-34.133 0-64 29.867-64 64s25.6 64 59.733 64zM661.333 580.267c34.133 0 64-29.867 64-64s-29.867-64-64-64c-25.6 0-46.933 12.8-55.467 34.133 17.067 21.333 25.6 55.467 25.6 85.333 4.267 4.267 17.067 8.533 29.867 8.533zM375.467 362.667c0 42.667 59.733 81.067 136.533 81.067s136.533-34.133 136.533-81.067v-38.4h-273.067v38.4zM260.267 324.267v29.867c0 29.867 38.4 55.467 93.867 59.733-12.8-8.533-21.333-29.867-21.333-51.2v-38.4h-72.533zM763.733 324.267h-72.533v38.4c0 21.333-8.533 42.667-21.333 55.467 55.467-8.533 93.867-29.867 93.867-59.733v-34.133z" />
<glyph unicode="&#xe922;" glyph-name="cart" d="M725.333 192c-47.36 0-85.333-37.973-85.333-85.333 0-47.128 38.205-85.333 85.333-85.333v0c47.128 0 85.333 38.205 85.333 85.333v0c0 47.36-38.4 85.333-85.333 85.333zM42.667 874.667v-85.333h85.333l153.6-323.84-58.027-104.533c-6.4-11.947-10.24-26.027-10.24-40.96 0-47.128 38.205-85.333 85.333-85.333v0h512v85.333h-494.080c-5.891 0-10.667 4.776-10.667 10.667v0c0 2.133 0.427 3.84 1.28 5.12l38.4 69.547h317.867c32 0 60.16 17.92 74.667 43.947l152.747 276.053c2.987 6.827 5.12 14.080 5.12 21.333 0 23.564-19.103 42.667-42.667 42.667v0h-631.040l-40.107 85.333zM298.667 192c-47.36 0-85.333-37.973-85.333-85.333 0-47.128 38.205-85.333 85.333-85.333v0c47.128 0 85.333 38.205 85.333 85.333v0c0 47.36-38.4 85.333-85.333 85.333z" />
<glyph unicode="&#xe923;" glyph-name="cube" d="M896 256c0-16.213-8.96-30.293-22.613-37.547l-337.067-189.44c-6.827-5.12-15.36-7.68-24.32-7.68s-17.493 2.56-24.32 7.68l-337.067 189.44c-13.653 7.253-22.613 21.333-22.613 37.547v384c0 16.213 8.96 30.293 22.613 37.547l337.067 189.44c6.827 5.12 15.36 7.68 24.32 7.68s17.493-2.56 24.32-7.68l337.067-189.44c13.653-7.253 22.613-21.333 22.613-37.547v-384zM512 782.933l-254.293-142.933 254.293-142.933 254.293 142.933-254.293 142.933z" />
<glyph unicode="&#xe924;" glyph-name="domain" d="M768 320h-85.333v-85.333h85.333zM768 490.667h-85.333v-85.333h85.333zM853.333 149.333h-341.333v85.333h85.333v85.333h-85.333v85.333h85.333v85.333h-85.333v85.333h341.333zM426.667 661.333h-85.333v85.333h85.333zM426.667 490.667h-85.333v85.333h85.333zM426.667 320h-85.333v85.333h85.333zM426.667 149.333h-85.333v85.333h85.333zM256 661.333h-85.333v85.333h85.333zM256 490.667h-85.333v85.333h85.333zM256 320h-85.333v85.333h85.333zM256 149.333h-85.333v85.333h85.333zM512 661.333v170.667h-426.667v-768h853.333v597.333h-426.667z" />
<glyph unicode="&#xe925;" glyph-name="comment-text" d="M384 21.333c-23.564 0-42.667 19.103-42.667 42.667v0 128h-170.667c-47.128 0-85.333 38.205-85.333 85.333v0 512c0 47.36 38.4 85.333 85.333 85.333h682.667c47.128 0 85.333-38.205 85.333-85.333v0-512c0-47.128-38.205-85.333-85.333-85.333v0h-260.267l-157.867-158.293c-8.533-8.107-19.2-12.373-29.867-12.373v0h-21.333zM213.333 746.667v-85.333h597.333v85.333h-597.333zM213.333 576v-85.333h341.333v85.333h-341.333zM213.333 405.333v-85.333h426.667v85.333h-426.667z" />
<glyph unicode="&#xe926;" glyph-name="seal" d="M869.973 133.547l-171.093 58.453-58.88-170.667-131.413 256-124.587-256-58.88 170.667-171.093-58.453 124.587 256c-40.96 51.2-65.28 116.053-65.28 186.453 0 164.949 133.718 298.667 298.667 298.667v0c164.949 0 298.667-133.718 298.667-298.667v0c0-70.4-24.32-135.253-65.28-186.453l124.587-256zM298.667 576l114.773-57.173-8.107-128 106.667 70.827 106.667-70.4-7.253 127.573 113.92 57.173-114.347 57.6 7.68 127.147-106.667-69.973-106.667 70.827 7.253-128.427-113.92-57.173z" />
<glyph unicode="&#xe927;" glyph-name="vapor" d="M512 106.667c-166.4 0-298.667 132.267-298.667 298.667s132.267 298.667 298.667 298.667 298.667-132.267 298.667-298.667-132.267-298.667-298.667-298.667zM512 789.333c-213.333 0-384-170.667-384-384s170.667-384 384-384 384 170.667 384 384-170.667 384-384 384zM533.333 618.667h-64v-256l204.8-119.467 34.133 51.2-170.667 102.4v221.867zM337.067 814.933l-55.467 64-196.267-162.133 55.467-64 196.267 162.133zM938.667 716.8l-196.267 166.4-55.467-64 196.267-166.4 55.467 64z" />
<glyph unicode="&#xe928;" glyph-name="push-pin-active" d="M512 960c-282.8 0-512-229.2-512-512s229.2-512 512-512 512 229.2 512 512-229.2 512-512 512zM266.6 203.6l121.2 195.4c10.2-13.4 21.6-26.8 34.4-39.6s26-24.2 39.6-34.6l-195.2-121.2zM746.2 522.8c-12.8-13-34.8-14.2-59-6l-65-64.8c32.6-53 40.4-104.6 15-130.2-10.4-10.4-25-15.2-42.2-15.2-31.8 0-72.4 16.6-111.8 46.4-0.8 0.6-1.8 1.4-2.6 2-2.8 2.2-5.6 4.4-8.4 6.6-1.2 1-2.2 1.8-3.4 2.8-2.6 2.2-5.2 4.6-8 7-1 1-2 1.8-3.2 2.8-3.6 3.2-7.2 6.6-10.6 10.2-4 4-7.8 8-11.6 12.2-2.4 2.6-4.4 5-6.6 7.6-1.2 1.4-2.4 2.8-3.6 4.2-2.8 3.4-5.6 6.8-8.2 10.2-0.4 0.4-0.6 0.8-1 1.2-46.2 61-61 125-31.6 154.4 10.4 10.4 25 15.2 42.2 15.2 25.4 0 56.4-10.6 88-30l65 64.8c-8.2 24.2-7 46.2 6 59 24.2 24.2 79.8 7.8 124-36.4 44.6-44.2 60.8-99.8 36.6-124z" />
<glyph unicode="&#xe929;" glyph-name="push-pin" d="M512 949.76c-276.48 0-501.76-225.28-501.76-501.76s225.28-501.76 501.76-501.76 501.76 225.28 501.76 501.76-225.28 501.76-501.76 501.76zM271.36 207.36l117.76 189.44c10.24-15.36 20.48-25.6 35.84-40.96 10.24-10.24 25.6-25.6 40.96-35.84l-194.56-112.64zM742.4 519.68c-10.24-10.24-35.84-15.36-56.32-5.12l-61.44-61.44c30.72-51.2 40.96-102.4 15.36-128-10.24-10.24-25.6-15.36-40.96-15.36-30.72 0-71.68 15.36-107.52 46.080v0c-5.12 0-5.12 5.12-10.24 5.12 0 0 0 0-5.12 5.12 0 0-5.12 5.12-10.24 5.12 0 0 0 0-5.12 5.12s-5.12 5.12-10.24 10.24-5.12 10.24-10.24 10.24l-5.12 5.12c0 0 0 5.12-5.12 5.12-5.12 5.12-5.12 5.12-10.24 10.24v0c-46.080 61.44-61.44 128-30.72 153.6 10.24 10.24 20.48 15.36 40.96 15.36 25.6 0 56.32-10.24 87.040-30.72l61.44 61.44c-10.24 25.6-5.12 46.080 5.12 56.32 25.6 25.6 76.8 5.12 122.88-35.84 40.96-35.84 56.32-92.16 35.84-117.76z" />
<glyph unicode="&#xe92a;" glyph-name="check-all" d="M17.067 388.267l196.267-200.533 59.733 59.733-196.267 200.533-59.733-59.733zM947.2 721.067l-448-448-179.2 174.933-59.733-59.733 238.933-238.933 512 512-64 59.733zM721.067 695.467l-59.733 59.733-247.467-247.467 59.733-59.733 247.467 247.467z" />
<glyph unicode="&#xe92b;" glyph-name="check" d="M896 661.333l-512-512-234.667 234.667 59.733 59.733 174.933-174.933 452.267 452.267 59.733-59.733z" />
<glyph unicode="&#xe92c;" glyph-name="comment-eye" d="M853.333 448v-170.667c0-46.933-38.4-85.333-85.333-85.333h-174.933l-157.867-157.867c-8.533-8.533-17.067-12.8-29.867-12.8h-21.333c-25.6 0-42.667 17.067-42.667 42.667v128h-170.667c-46.933 0-85.333 38.4-85.333 85.333v426.667c0 46.933 38.4 85.333 85.333 85.333h234.667c-25.6-29.867-42.667-59.733-59.733-93.867l-12.8-34.133 12.8-34.133c55.467-132.267 187.733-221.867 337.067-221.867 59.733 0 119.467 17.067 170.667 42.667zM682.667 704c25.6 0 42.667-17.067 42.667-42.667s-17.067-42.667-42.667-42.667c-25.6 0-42.667 17.067-42.667 42.667s17.067 42.667 42.667 42.667zM682.667 832c115.2 0 217.6-72.533 256-170.667-38.4-98.133-140.8-170.667-256-170.667s-217.6 72.533-256 170.667c38.4 98.133 140.8 170.667 256 170.667zM682.667 768c-59.733 0-106.667-46.933-106.667-106.667s46.933-106.667 106.667-106.667 106.667 46.933 106.667 106.667-46.933 106.667-106.667 106.667z" />
<glyph unicode="&#xe92d;" glyph-name="without-encrypt" d="M796.672 195.072c-4.096-46.080-41.984-80.896-88.064-80.896h-372.736c-46.080 4.096-80.896 41.984-80.896 88.064v237.568c2.048 31.744 21.504 59.392 50.176 73.728 8.192 4.096 18.432 6.144 27.648 6.144 37.888 1.024 149.504 2.048 149.504 2.048h145.408v86.016c0 54.272-43.008 100.352-97.28 103.424-44.032 4.096-84.992-20.48-101.376-61.44-3.072-10.24-12.288-18.432-23.552-18.432h-38.912c-13.312 0-24.576 11.264-24.576 24.576v0c0 2.048 0 5.12 1.024 7.168 22.528 74.752 102.4 129.024 183.296 129.024 95.232 0 189.44-74.752 189.44-168.96v-103.424c46.080-4.096 80.896-41.984 80.896-88.064v-236.544z" />
<glyph unicode="&#xe92e;" glyph-name="file-move" d="M597.333 234.667h170.667v128l213.333-192-213.333-192v128h-170.667v128zM554.667 576h234.667l-234.667 234.667v-234.667zM256 874.667h341.333l256-256v-183.467c-25.6 8.533-55.467 12.8-85.333 12.8-140.8 0-256-115.2-256-256 0-64 25.6-123.733 64-170.667h-320c-46.933 0-85.333 38.4-85.333 85.333v682.667c0 46.933 38.4 85.333 85.333 85.333z" />
<glyph unicode="&#xe92f;" glyph-name="file-excel" d="M256 874.667h341.333l256-256v-512c0-46.933-38.4-85.333-85.333-85.333h-512c-46.933 0-85.333 38.4-85.333 85.333v682.667c0 46.933 38.4 85.333 85.333 85.333zM554.667 810.667v-234.667h234.667l-234.667 234.667zM725.333 490.667h-170.667v-85.333h42.667l-85.333-72.533-85.333 72.533h42.667v85.333h-170.667v-85.333h42.667l128-106.667-128-106.667h-42.667v-85.333h170.667v85.333h-42.667l85.333 72.533 85.333-72.533h-42.667v-85.333h170.667v85.333h-42.667l-128 106.667 128 106.667h42.667v85.333z" />
<glyph unicode="&#xe930;" glyph-name="encrypt-darkmode" d="M525.312 861.696l-334.848-148.48v-223.232c0-206.848 143.36-399.36 334.848-446.464 192.512 46.080 335.872 239.616 335.872 446.464v223.232l-335.872 148.48zM525.312 638.464c52.224 0 104.448-40.96 104.448-93.184v-56.32c25.6-2.048 45.056-23.552 45.056-48.128v-130.048c-2.048-25.6-23.552-44.032-48.128-45.056h-204.8c-25.6 2.048-44.032 23.552-44.032 48.128v131.072c2.048 23.552 20.48 43.008 45.056 45.056v55.296c-1.024 52.224 51.2 93.184 102.4 93.184zM525.312 594.432c-29.696 0-56.32-18.432-56.32-48.128v-56.32h111.616v56.32c1.024 28.672-24.576 48.128-55.296 48.128z" />
<glyph unicode="&#xe931;" glyph-name="download" d="M213.333 106.667h597.333v85.333h-597.333zM810.667 576h-170.667v256h-256v-256h-170.667l298.667-298.667 298.667 298.667z" />
<glyph unicode="&#xe932;" glyph-name="delete-outline" d="M256 149.333c0-46.933 38.4-85.333 85.333-85.333h341.333c46.933 0 85.333 38.4 85.333 85.333v512h-512v-512zM341.333 576h341.333v-426.667h-341.333v426.667zM661.333 789.333l-42.667 42.667h-213.333l-42.667-42.667h-149.333v-85.333h597.333v85.333h-149.333z" />
<glyph unicode="&#xe933;" glyph-name="delete-log" d="M404.275 327.782h-70.861v115.302h-27.034v-139.059h97.894v23.757zM422.093 325.12c5.939-6.554 13.312-12.083 21.299-15.77 8.602-4.096 18.022-6.144 27.648-5.939 9.421 0 18.637 1.843 27.238 5.734 8.192 3.686 15.36 9.011 21.504 15.36 5.939 6.554 10.854 14.131 14.131 22.323 3.482 8.397 5.12 17.408 5.12 26.624 0 8.806-1.638 17.613-4.915 25.805-3.072 8.397-7.782 15.974-13.722 22.733s-13.107 12.288-21.299 16.179c-8.602 4.096-18.022 6.349-27.443 6.144-9.421 0-18.637-1.843-27.238-5.734-8.192-3.686-15.565-9.011-21.709-15.565s-11.059-14.131-14.336-22.528c-3.482-8.397-5.12-17.408-5.12-26.624 0.205-18.227 6.963-35.43 18.842-48.742v0zM433.562 390.656c1.638 5.325 4.301 10.445 7.782 14.95 3.482 4.301 7.782 7.987 12.698 10.65 10.854 5.325 23.552 5.325 34.406 0.205 4.915-2.458 9.216-5.939 12.698-10.24 3.482-4.506 6.349-9.421 7.987-14.95 1.843-5.53 2.867-11.469 2.867-17.408 0-5.734-0.819-11.469-2.662-16.998-1.638-5.325-4.301-10.445-7.782-14.95-11.059-14.541-30.925-19.046-47.104-10.65-4.915 2.458-9.216 6.144-12.698 10.445-3.482 4.506-6.144 9.421-7.987 14.95-3.686 10.854-3.686 22.938-0.205 33.997v0zM570.982 323.686c5.939-6.349 13.107-11.469 20.89-14.95 7.987-3.686 16.794-5.53 25.805-5.53 14.746 0 28.672 5.939 38.707 16.589v-15.565h22.323v71.27h-50.381v-19.661h28.058v-9.83c-10.854-12.698-22.938-19.046-36.454-19.046-5.734 0-11.264 1.229-16.384 3.686-4.915 2.458-9.421 5.734-13.107 9.83-3.686 4.301-6.758 9.421-8.602 14.746-2.048 5.939-3.277 12.083-3.072 18.227 0 6.144 0.819 12.083 2.867 17.818 1.843 5.325 4.506 10.445 7.987 14.95 3.482 4.301 7.578 7.782 12.493 10.24s10.445 3.686 16.179 3.686c7.168 0 14.336-1.843 20.685-5.53s11.469-9.216 14.746-15.77l20.275 14.95c-4.71 9.216-12.083 16.998-21.094 22.118-10.24 5.734-21.914 8.602-33.587 8.192-9.216 0-18.432-1.843-26.829-5.53-7.987-3.686-15.36-8.806-21.299-15.155-12.493-13.312-19.456-30.72-19.456-48.947 0-9.626 1.638-19.046 5.12-28.058 3.277-8.397 7.987-16.179 14.131-22.733zM430.899 726.528h20.070v-89.907h-20.070v89.907zM470.835 726.528h20.070v-89.907h-20.070v89.907zM796.058 594.637v111.206l-189.235 152.781h-448.717v-820.224h637.952v103.014h67.584v453.222h-67.584zM380.928 766.464h49.971v10.035h60.006v-10.035h49.971v-20.070h-10.035v-129.843c0-11.059-9.011-19.866-20.070-20.070h-99.942c-11.059 0-19.866 9.011-20.070 20.070v129.843h-9.83v20.070zM795.238 209.613h-578.765v316.621h578.765v-316.621z" />
<glyph unicode="&#xe934;" glyph-name="delete-empty" d="M870.4 580.267l-42.667-72.533-516.267 298.667 42.667 72.533 128-76.8 59.733 17.067 183.467-106.667 17.067-59.733 128-72.533zM256 149.333v512h217.6l294.4-170.667v-341.333c0-46.933-38.4-85.333-85.333-85.333h-341.333c-46.933 0-85.333 38.4-85.333 85.333z" />
<glyph unicode="&#xe935;" glyph-name="decrypt_and_download" d="M853.333 891.733h-47.787c-34.133 0-68.267-27.307-68.267-68.267v-68.267h-136.533c-6.827 6.827-13.653 0-13.653-13.653v-163.84c0-6.827 6.827-13.653 13.653-13.653h191.147c6.827 0 13.653 6.827 13.653 13.653v163.84c0 6.827-6.827 13.653-13.653 13.653h-6.827v68.267c0 13.653 6.827 20.48 20.48 20.48h47.787c13.653 0 20.48-6.827 20.48-20.48v-68.267h47.787v68.267c0 40.96-27.307 68.267-68.267 68.267zM723.627 605.013h-47.787l6.827 47.787c0 6.827-6.827 13.653-6.827 20.48 0 13.653 6.827 20.48 20.48 20.48s20.48-6.827 20.48-20.48c0-6.827-6.827-13.653-6.827-20.48l13.653-47.787zM839.68 202.24v-170.667c0-13.653-13.653-27.307-27.307-27.307h-682.667c-13.653 0-27.307 13.653-27.307 27.307v170.667c0 13.653 13.653 27.307 27.307 27.307h54.613c13.653 0 27.307-13.653 27.307-27.307v-68.267c0-6.827 6.827-13.653 13.653-13.653h477.867c6.827 0 13.653 6.827 13.653 13.653v68.267c0 13.653 13.653 27.307 27.307 27.307h54.613c27.307 0 40.96-13.653 40.96-27.307zM279.893 400.213c-6.827 6.827-6.827 13.653-6.827 20.48s0 13.653 6.827 20.48l40.96 40.96c6.827 6.827 6.827 6.827 20.48 6.827 6.827 0 13.653 0 20.48-6.827l27.307-27.307c6.827-6.827 20.48 0 20.48 6.827v191.147c0 13.653 13.653 27.307 27.307 27.307h54.613c13.653 0 27.307-13.653 27.307-27.307v-184.32c0-13.653 13.653-20.48 27.307-13.653l34.133 27.307c6.827 6.827 13.653 6.827 20.48 6.827s13.653 0 20.48-6.827l40.96-40.96c6.827-6.827 6.827-13.653 6.827-20.48s0-13.653-6.827-20.48l-170.667-170.667c-6.827-6.827-13.653-6.827-20.48-6.827s-13.653 0-20.48 6.827l-170.667 170.667z" />
<glyph unicode="&#xe936;" glyph-name="content-paste" d="M810.667 106.667h-597.333v682.667h85.333v-128h426.667v128h85.333zM512 874.667c25.6 0 42.667-17.067 42.667-42.667s-17.067-42.667-42.667-42.667-42.667 17.067-42.667 42.667 17.067 42.667 42.667 42.667zM810.667 874.667h-179.2c-17.067 51.2-64 85.333-119.467 85.333s-102.4-34.133-119.467-85.333h-179.2c-46.933 0-85.333-38.4-85.333-85.333v-682.667c0-46.933 38.4-85.333 85.333-85.333h597.333c46.933 0 85.333 38.4 85.333 85.333v682.667c0 46.933-38.4 85.333-85.333 85.333z" />
<glyph unicode="&#xe937;" glyph-name="content-copy" d="M810.667 64h-469.333v597.333h469.333zM810.667 746.667h-469.333c-46.933 0-85.333-38.4-85.333-85.333v-597.333c0-46.933 38.4-85.333 85.333-85.333h469.333c46.933 0 85.333 38.4 85.333 85.333v597.333c0 46.933-38.4 85.333-85.333 85.333zM682.667 917.333h-512c-46.933 0-85.333-38.4-85.333-85.333v-597.333h85.333v597.333h512v85.333z" />
<glyph unicode="&#xe938;" glyph-name="file-restore" d="M597.333 874.667h-341.333c-46.933 0-85.333-38.4-85.333-85.333v-682.667c0-46.933 38.4-85.333 85.333-85.333h512c46.933 0 85.333 38.4 85.333 85.333v512l-256 256zM512 192c-89.6 0-162.133 51.2-196.267 128h72.533c25.6-38.4 72.533-64 123.733-64 81.067 0 149.333 68.267 149.333 149.333s-68.267 149.333-149.333 149.333c-59.733 0-106.667-34.133-132.267-81.067l68.267-68.267h-170.667v170.667l55.467-55.467c38.4 59.733 102.4 98.133 179.2 98.133 119.467 0 213.333-93.867 213.333-213.333s-93.867-213.333-213.333-213.333z" />
<glyph unicode="&#xe939;" glyph-name="folder-open" d="M810.667 106.667h-640c-46.933 0-85.333 38.4-85.333 85.333v512c0 46.933 38.4 85.333 85.333 85.333h256l85.333-85.333h298.667c46.933 0 85.333-38.4 85.333-85.333v0h-725.333v-426.667l89.6 341.333h729.6l-98.133-362.667c-8.533-38.4-42.667-64-81.067-64z" />
<glyph unicode="&#xe93a;" glyph-name="folder" d="M426.667 789.333h-256c-46.933 0-85.333-38.4-85.333-85.333v-512c0-46.933 38.4-85.333 85.333-85.333h682.667c46.933 0 85.333 38.4 85.333 85.333v426.667c0 46.933-38.4 85.333-85.333 85.333h-341.333l-85.333 85.333z" />
<glyph unicode="&#xe93b;" glyph-name="custom-share" d="M896 448l-298.667 298.667v-170.667c-298.667-42.667-426.667-256-469.333-469.333 106.667 149.333 256 217.6 469.333 217.6v-174.933l298.667 298.667z" />
<glyph unicode="&#xe93c;" glyph-name="move" d="M341.333 495.787l-218.453 143.36 218.453 136.533v-81.92h211.627v-116.053h-211.627v-81.92zM737.28 502.613c75.093 0 129.707 61.44 129.707 129.707s-61.44 129.707-129.707 129.707-129.707-54.613-129.707-122.88 54.613-136.533 129.707-136.533zM901.12 256.853l-218.453 143.36v-81.92h-211.627v-116.053h211.627v-81.92l218.453 136.533zM286.72 393.387c-75.093 0-129.707-61.44-129.707-129.707s61.44-129.707 129.707-129.707 129.707 61.44 129.707 129.707-54.613 129.707-129.707 129.707z" />
<glyph unicode="&#xe93d;" glyph-name="progress-download" d="M554.667 874.667c200.533-21.333 362.667-179.2 384-384 21.333-234.667-149.333-443.733-384-465.067v85.333c153.6 17.067 277.333 140.8 298.667 298.667 21.333 187.733-110.933 358.4-298.667 379.733v85.333zM469.333 870.4v-85.333c-59.733-8.533-119.467-29.867-166.4-68.267l-59.733 59.733c64 55.467 145.067 89.6 226.133 93.867zM183.467 716.8l59.733-59.733c-38.4-46.933-64-106.667-68.267-166.4h-89.6c12.8 85.333 42.667 162.133 98.133 226.133zM89.6 405.333h85.333c8.533-59.733 34.133-119.467 68.267-166.4l-59.733-59.733c-55.467 64-85.333 140.8-93.867 226.133zM302.933 174.933c46.933-38.4 106.667-59.733 166.4-68.267v-85.333c-85.333 8.533-162.133 42.667-226.133 98.133l59.733 55.467zM512 256l-192 192h149.333v170.667h85.333v-170.667h149.333l-192-192z" />
<glyph unicode="&#xe93e;" glyph-name="rename-box" d="M768 234.667h-320l85.333 85.333h234.667zM256 234.667v106.667l337.067 337.067c8.533 8.533 21.333 8.533 29.867 0l76.8-76.8c8.533-8.533 8.533-21.333 0-29.867l-337.067-337.067zM810.667 832h-597.333c-46.933 0-85.333-38.4-85.333-85.333v-597.333c0-46.933 38.4-85.333 85.333-85.333h597.333c46.933 0 85.333 38.4 85.333 85.333v597.333c0 46.933-38.4 85.333-85.333 85.333z" />
<glyph unicode="&#xe93f;" glyph-name="restore-clock" d="M554.667 832c-213.333 0-384-170.667-384-384h-128l170.667-170.667 170.667 170.667h-128c0 166.4 132.267 298.667 298.667 298.667s298.667-132.267 298.667-298.667-132.267-298.667-298.667-298.667c-81.067 0-157.867 34.133-209.067 89.6l-59.733-59.733c68.267-72.533 162.133-115.2 268.8-115.2 213.333 0 384 170.667 384 384s-170.667 384-384 384zM512 618.667v-213.333l183.467-106.667 29.867 51.2-149.333 89.6v179.2h-64z" />
<glyph unicode="&#xe940;" glyph-name="share-cancel" d="M768 273.067c-34.133 0-59.733-12.8-85.333-34.133l-302.933 179.2c4.267 8.533 4.267 21.333 4.267 29.867s0 21.333-4.267 29.867l302.933 174.933c21.333-21.333 51.2-34.133 85.333-34.133 72.533 0 128 55.467 128 128s-55.467 128-128 128-128-55.467-128-128c0-8.533 0-21.333 4.267-29.867l-302.933-174.933c-21.333 21.333-51.2 34.133-85.333 34.133-72.533 0-128-55.467-128-128s55.467-128 128-128c34.133 0 64 12.8 85.333 34.133l302.933-179.2c-4.267-8.533-4.267-17.067-4.267-29.867 0-68.267 55.467-123.733 123.733-123.733s123.733 55.467 123.733 123.733c4.267 72.533-51.2 128-119.467 128zM708.267 520.533l25.6-29.867c8.533-8.533 12.8-17.067 17.067-21.333v0c4.267 8.533 12.8 17.067 17.067 21.333l25.6 29.867h34.133l-64-68.267 64-72.533h-38.4l-25.6 29.867c-8.533 8.533-12.8 17.067-21.333 25.6v0c-4.267-8.533-12.8-17.067-21.333-25.6l-25.6-29.867h-38.4l64 72.533-64 68.267h51.2z" />
<glyph unicode="&#xe941;" glyph-name="share-revoke" d="M768 273.067c-34.133 0-59.733-12.8-85.333-34.133l-302.933 179.2c4.267 8.533 4.267 21.333 4.267 29.867s0 21.333-4.267 29.867l302.933 174.933c21.333-21.333 51.2-34.133 85.333-34.133 72.533 0 128 55.467 128 128s-55.467 128-128 128-128-55.467-128-128c0-8.533 0-21.333 4.267-29.867l-302.933-174.933c-21.333 21.333-51.2 34.133-85.333 34.133-72.533 0-128-55.467-128-128s55.467-128 128-128c34.133 0 64 12.8 85.333 34.133l302.933-179.2c-4.267-8.533-4.267-17.067-4.267-29.867 0-68.267 55.467-123.733 123.733-123.733s123.733 55.467 123.733 123.733c4.267 72.533-51.2 128-119.467 128zM755.2 588.8c-76.8 0-140.8-64-140.8-140.8h-46.933l64-64 64 64h-46.933c0 59.733 46.933 110.933 110.933 110.933s110.933-46.933 110.933-110.933-46.933-110.933-110.933-110.933c-21.333 0-46.933 8.533-64 21.333l-21.333-21.333c25.6-17.067 55.467-29.867 85.333-29.867 76.8 0 140.8 64 140.8 140.8s-68.267 140.8-145.067 140.8z" />
<glyph unicode="&#xe942;" glyph-name="share-variant" d="M768 273.067c-34.133 0-59.733-12.8-85.333-34.133l-302.933 174.933c4.267 12.8 4.267 25.6 4.267 34.133s0 21.333-4.267 29.867l302.933 174.933c21.333-21.333 51.2-34.133 85.333-34.133 72.533 0 128 55.467 128 128s-55.467 128-128 128-128-55.467-128-128c0-8.533 0-21.333 4.267-29.867l-302.933-174.933c-21.333 21.333-51.2 34.133-85.333 34.133-72.533 0-128-55.467-128-128s55.467-128 128-128c34.133 0 64 12.8 85.333 34.133l302.933-174.933c-4.267-8.533-4.267-17.067-4.267-29.867 0-68.267 55.467-123.733 123.733-123.733s123.733 55.467 123.733 123.733c4.267 68.267-51.2 123.733-119.467 123.733z" />
<glyph unicode="&#xe943;" glyph-name="trash-can" d="M384 832v-42.667h-213.333v-85.333h42.667v-554.667c0-46.933 38.4-85.333 85.333-85.333h426.667c46.933 0 85.333 38.4 85.333 85.333v554.667h42.667v85.333h-213.333v42.667h-256zM384 618.667h85.333v-384h-85.333v384zM554.667 618.667h85.333v-384h-85.333v384z" />
<glyph unicode="&#xe944;" glyph-name="magnify" d="M405.333 832c153.6 0 277.333-123.733 277.333-277.333 0-68.267-25.6-132.267-68.267-179.2l12.8-12.8h34.133l213.333-213.333-64-64-213.333 213.333v34.133l-12.8 12.8c-46.933-42.667-110.933-68.267-179.2-68.267-153.6 0-277.333 123.733-277.333 277.333s123.733 277.333 277.333 277.333zM405.333 746.667c-106.667 0-192-85.333-192-192s85.333-192 192-192 192 85.333 192 192-85.333 192-192 192z" />
<glyph unicode="&#xe945;" glyph-name="bulb" d="M614.4 209.067c13.653 34.133 34.133 68.267 68.267 95.573 54.613 47.787 95.573 122.88 95.573 197.973 0 150.187-122.88 273.067-273.067 266.24-136.533-6.827-245.76-122.88-252.587-252.587 0-81.92 34.133-157.013 95.573-204.8 27.307-34.133 47.787-68.267 61.44-102.4h204.8zM484.693 202.24h20.48l-75.093 286.72h6.827c6.827 0 20.48 6.827 27.307 13.653s6.827 6.827 13.653 6.827 6.827 0 13.653-6.827c6.827-20.48 34.133-20.48 47.787-6.827 0 6.827 6.827 6.827 13.653 6.827s6.827 0 13.653-6.827 13.653-13.653 27.307-13.653h6.827l-75.093-286.72h20.48l68.267 307.2v6.827c-6.827 0-6.827 0-6.827 0-6.827-6.827-13.653-6.827-13.653-6.827-6.827 0-6.827 0-13.653 6.827-13.653 6.827-20.48 6.827-27.307 6.827s-20.48-6.827-27.307-13.653-20.48-6.827-27.307 0-13.653 13.653-20.48 13.653v0c-6.827 0-20.48-6.827-27.307-13.653 0 0-6.827 0-13.653 0s-6.827 0-13.653 6.827c0 0-6.827 6.827-6.827 0-6.827 0-6.827-6.827-6.827-6.827l75.093-300.373zM409.6 209.067v-143.36c0-20.48 13.653-34.133 34.133-34.133h13.653c6.827-20.48 34.133-40.96 61.44-40.96s47.787 13.653 61.44 40.96h13.653c20.48 0 34.133 13.653 34.133 34.133v143.36h-218.453zM614.4 133.973h-204.8c-13.653 0-20.48 6.827-20.48 20.48v0c0 13.653 6.827 20.48 20.48 20.48h204.8c13.653 0 20.48-6.827 20.48-20.48v0c0-6.827-6.827-20.48-20.48-20.48zM614.4 65.707h-204.8c-13.653 0-20.48 6.827-20.48 20.48v0c0 13.653 6.827 20.48 20.48 20.48h204.8c13.653 0 20.48-6.827 20.48-20.48v0c0-6.827-6.827-20.48-20.48-20.48zM512 905.387c-6.827 0-20.48-6.827-20.48-20.48v-61.44c0-6.827 6.827-20.48 20.48-20.48s20.48 6.827 20.48 20.48v61.44c0 13.653-13.653 20.48-20.48 20.48zM259.413 789.333c-6.827 6.827-20.48 6.827-27.307 0s-6.827-20.48 0-27.307l40.96-47.787c6.827-6.827 20.48-6.827 27.307 0s6.827 20.48 0 27.307l-40.96 47.787zM197.973 523.093h-68.267c-6.827 0-20.48-6.827-20.48-20.48v0c0-6.827 6.827-20.48 20.48-20.48h61.44c6.827 0 20.48 6.827 20.48 20.48v0c6.827 13.653-6.827 20.48-13.653 20.48zM273.067 297.813l-47.787-47.787c-6.827-6.827-6.827-20.48 0-27.307s20.48-6.827 27.307 0l47.787 47.787c6.827 6.827 6.827 20.48 0 27.307s-20.48 6.827-27.307 0zM750.933 297.813c-6.827 6.827-20.48 6.827-27.307 0s-6.827-20.48 0-27.307l47.787-47.787c6.827-6.827 20.48-6.827 27.307 0s6.827 20.48 0 27.307l-47.787 47.787zM894.293 523.093h-61.44c-6.827 0-20.48-6.827-20.48-20.48v0c0-6.827 6.827-20.48 20.48-20.48h61.44c6.827 0 20.48 6.827 20.48 20.48v0c-6.827 13.653-13.653 20.48-20.48 20.48zM764.587 789.333l-47.787-47.787c-6.827-6.827-6.827-20.48 0-27.307s20.48-6.827 27.307 0l47.787 47.787c6.827 6.827 6.827 20.48 0 27.307s-13.653 6.827-27.307 0z" />
<glyph unicode="&#xe946;" glyph-name="change-ownership" d="M388.267 76.8c8.533 38.4 29.867 72.533 59.733 106.667-4.267 4.267-12.8 8.533-17.067 12.8-8.533 4.267-17.067 12.8-21.333 17.067-29.867-21.333-68.267-34.133-110.933-34.133s-81.067 12.8-110.933 34.133c-8.533-8.533-12.8-12.8-21.333-17.067-38.4-25.6-68.267-59.733-76.8-102.4l-4.267-17.067c0-8.533 0-17.067 8.533-21.333s17.067-8.533 25.6-8.533h277.333c-8.533 8.533-8.533 17.067-8.533 29.867zM853.333 187.733c-8.533 4.267-12.8 8.533-21.333 17.067-38.4-25.6-85.333-42.667-136.533-42.667s-98.133 17.067-136.533 42.667c-4.267-4.267-12.8-12.8-21.333-17.067-46.933-29.867-81.067-68.267-89.6-119.467 0-4.267 0-12.8 4.267-17.067s12.8-8.533 21.333-8.533h439.467c8.533 0 17.067 4.267 21.333 8.533s8.533 12.8 4.267 17.067c-8.533 46.933-38.4 89.6-85.333 119.467zM529.067 375.467c0-93.867 72.533-170.667 166.4-170.667 89.6 0 166.4 76.8 166.4 170.667s-72.533 170.667-166.4 170.667c-89.6 0-166.4-76.8-166.4-170.667zM298.667 226.133c72.533 0 128 59.733 128 132.267s-59.733 132.267-128 132.267c-72.533 0-128-59.733-128-132.267s55.467-132.267 128-132.267zM674.133 785.067c-34.133 25.6-76.8 38.4-119.467 42.667-46.933 4.267-98.133-4.267-140.8-25.6-38.4-25.6-72.533-59.733-93.867-98.133s-29.867-85.333-25.6-128c4.267 42.667 17.067 85.333 42.667 115.2s59.733 55.467 98.133 64c38.4 12.8 72.533 12.8 110.933 0 17.067-4.267 29.867-12.8 42.667-21.333l-59.733-29.867 200.533-128 12.8 243.2-68.267-34.133z" />
<glyph unicode="&#xe947;" glyph-name="exit-group-icn" d="M550.4 409.6c-81.067 0-238.933-38.4-238.933-119.467v-81.067h477.867v81.067c0 81.067-157.867 119.467-238.933 119.467zM814.933 401.067c29.867-29.867 55.467-68.267 55.467-110.933v-81.067h119.467v81.067c0 59.733-98.133 98.133-174.933 110.933zM550.4 490.667c68.267 0 119.467 51.2 119.467 119.467s-51.2 119.467-119.467 119.467-119.467-51.2-119.467-119.467 51.2-119.467 119.467-119.467zM750.933 490.667c68.267 0 119.467 51.2 119.467 119.467s-51.2 119.467-119.467 119.467c-12.8 0-25.6-4.267-34.133-4.267 21.333-29.867 34.133-72.533 34.133-115.2s-17.067-81.067-34.133-115.2c8.533 0 21.333-4.267 34.133-4.267zM354.133 529.067h-320v-81.067h315.733v81.067z" />
<glyph unicode="&#xe948;" glyph-name="reset_password" d="M622.933 567.467c-17.067 46.933-51.2 76.8-102.4 85.333-72.533 12.8-145.067-46.933-145.067-119.467 0-17.067 0-25.6 0-42.667 0-4.267 0-4.267-4.267-4.267-8.533 0-17.067 0-17.067 0-12.8 0-12.8-4.267-12.8-8.533 0-76.8 0-145.067 0-221.867 0-25.6 17.067-42.667 42.667-42.667 42.667 0 81.067 0 123.733 0s81.067 0 128 0c21.333 0 38.4 17.067 38.4 42.667 0 17.067 0 42.667 0 59.733-4.267 59.733-4.267 110.933-4.267 166.4 0 8.533-4.267 12.8-12.8 12.8s-17.067 0-17.067 0c-4.267 0-4.267 0-4.267 4.267 0 12.8 0 17.067 0 29.867-4.267 12.8-4.267 25.6-12.8 38.4zM529.067 358.4c-4.267 0-4.267-4.267-4.267-8.533 4.267-17.067 4.267-29.867 4.267-46.933 0-8.533-4.267-12.8-12.8-12.8-4.267 0-8.533 0-8.533 0-4.267 0-4.267 0-8.533 0s-12.8 0-17.067 0c-8.533 0-12.8 4.267-12.8 12.8 0 17.067 4.267 29.867 4.267 46.933 0 4.267 0 4.267-4.267 8.533-17.067 17.067-17.067 38.4 0 51.2s38.4 17.067 51.2 0c21.333-17.067 21.333-38.4 8.533-51.2zM567.467 494.933c-21.333 0-46.933 0-68.267 0s-46.933 0-68.267 0c-4.267 0-4.267 0-4.267 4.267 0 17.067 0 29.867 0 46.933 4.267 34.133 29.867 55.467 64 59.733 29.867 4.267 64-17.067 76.8-46.933 4.267-12.8 4.267-17.067 4.267-29.867s0-17.067-4.267-34.133c4.267 0 4.267 0 0 0zM1015.467 320l-136.533 128-136.533-128h81.067v-123.733c0-42.667-34.133-76.8-76.8-76.8h-465.067c-42.667 0-76.8 34.133-76.8 76.8v128l-115.2 4.267v-153.6c0-89.6 76.8-166.4 166.4-166.4h524.8c89.6 0 166.4 76.8 166.4 166.4v145.067h68.267zM145.067 401.067l136.533 132.267h-76.8v136.533c0 42.667 34.133 76.8 76.8 76.8h477.867c42.667 0 76.8-34.133 76.8-76.8v-149.333h115.2v179.2c0 89.6-76.8 166.4-166.4 166.4h-529.067c-89.6-4.267-162.133-76.8-162.133-166.4v-170.667h-81.067l132.267-128z" />
<glyph unicode="&#xe949;" glyph-name="save-cancel" d="M132.267 29.867c-8.533 0-17.067 4.267-21.333 8.533-12.8 12.8-12.8 34.133 0 46.933l746.667 742.4c12.8 12.8 34.133 12.8 46.933 0s12.8-34.133 0-46.933l-750.933-742.4c-4.267-8.533-12.8-8.533-21.333-8.533zM738.133 430.933c-119.467 0-217.6-98.133-217.6-217.6s98.133-217.6 217.6-217.6 217.6 98.133 217.6 217.6-98.133 217.6-217.6 217.6zM844.8 136.533l-29.867-29.867-76.8 76.8-76.8-76.8-29.867 29.867 76.8 76.8-76.8 76.8 29.867 29.867 76.8-76.8 76.8 76.8 29.867-29.867-76.8-76.8 76.8-76.8zM366.933 896h-264.533c-25.6 0-42.667-21.333-42.667-42.667v-307.2c0-25.6 21.333-42.667 42.667-42.667h307.2c25.6 0 42.667 21.333 42.667 42.667v260.267l-85.333 89.6zM256 546.133c-38.4 0-64 29.867-64 64s25.6 68.267 64 68.267 64-29.867 64-64-25.6-68.267-64-68.267zM320 763.733h-217.6v89.6h217.6v-89.6z" />
<glyph unicode="&#xe94a;" glyph-name="pin" d="M682.667 448v341.333h42.667v85.333h-426.667v-85.333h42.667v-341.333l-85.333-85.333v-85.333h221.867v-256h68.267v256h221.867v85.333l-85.333 85.333z" />
<glyph unicode="&#xe94b;" glyph-name="pin-off" d="M85.333 735.147l54.613 54.187 713.387-713.387-54.187-54.613-253.013 253.013v-253.013h-68.267v256h-221.867v85.333l85.333 85.333v31.147l-256 256zM682.667 448l85.333-85.333v-85.333h-7.68l-418.987 418.987v93.013h-42.667v85.333h426.667v-85.333h-42.667v-341.333z" />
<glyph unicode="&#xe94c;" glyph-name="pin-off-outline" d="M341.333 695.467v93.867h-42.667v85.333h426.667v-85.333h-42.667v-341.333l85.333-85.333v-85.333h-8.533l-162.133 162.133v349.867h-170.667v-179.2l-85.333 85.333zM853.333 76.8l-55.467-55.467-251.733 251.733v-251.733h-68.267v256h-221.867v85.333l85.333 85.333v29.867l-256 256 55.467 55.467 712.533-712.533zM375.467 362.667h76.8l-38.4 38.4-38.4-38.4z" />
<glyph unicode="&#xe94d;" glyph-name="pin-outline" d="M682.667 448v341.333h42.667v85.333h-426.667v-85.333h42.667v-341.333l-85.333-85.333v-85.333h221.867v-256h68.267v256h221.867v85.333l-85.333 85.333zM375.467 362.667l51.2 51.2v375.467h170.667v-375.467l51.2-51.2h-273.067z" />
<glyph unicode="&#xe94e;" glyph-name="jeevi" d="M85.333 448.683c0-234.837 191.147-426.667 425.984-427.349s427.349 191.829 427.349 426.667-191.829 426.667-426.667 426.667c-233.472 0.683-425.984-191.147-426.667-425.984zM207.531 449.365c0.683 167.253 137.899 304.469 304.469 304.469 167.253 0 305.152-137.899 304.469-305.152s-137.899-304.469-304.469-304.469c-167.253 0-305.152 137.899-304.469 305.152zM408.235 213.845c16.384 35.499 31.403 70.997 42.325 101.717 41.643 124.245 64.171 273.749 64.171 273.749s-44.373-115.371-125.611-165.888c-49.835-30.72-107.861-37.547-146.091-37.547 2.048-6.144 4.096-12.288 6.827-17.749 11.605-6.144 23.893-14.336 36.181-25.259 26.624-23.211 33.451-45.056 31.403-70.997 26.624-25.941 57.344-45.056 90.795-58.027zM742.741 538.795c0-39.211-31.787-70.997-70.997-70.997s-70.997 31.787-70.997 70.997c0 39.211 31.787 70.997 70.997 70.997s70.997-31.787 70.997-70.997zM647.851 449.365c-106.496 33.451-124.245 139.264-124.245 139.264s22.528-146.091 8.192-253.269c-5.461-45.056-17.749-96.256-30.037-141.312 2.731 0 6.144 0 8.875 0 31.403 0 61.44 5.461 89.429 15.019 20.48 33.451 43.691 68.267 70.997 99.669 43.691 51.883 88.747 94.208 117.419 119.467 0.683 5.461 2.048 10.923 2.731 17.067-30.72-6.827-83.285-13.653-143.36 4.096zM416.427 501.931c0-38.834-31.481-70.315-70.315-70.315s-70.315 31.481-70.315 70.315c0 38.834 31.481 70.315 70.315 70.315s70.315-31.481 70.315-70.315zM211.627 386.56c-6.144 0.683-9.557 0.683-9.557 0.683s4.096-0.683 10.24-3.413c0 1.365 0 2.048-0.683 2.731z" />
<glyph unicode="&#xe94f;" glyph-name="employees" d="M425.984 370.176c0-33.451-8.875-110.592-68.949-197.973l-25.259 151.552 29.355 59.392c-19.797 2.048-39.595 4.096-60.757 4.096s-41.643-1.365-60.757-4.096l29.355-59.392-25.259-151.552c-60.075 86.699-68.949 164.523-68.949 197.973-75.093-21.845-125.611-61.44-125.611-108.544v-125.611h502.443v125.611c0 47.104-50.517 86.699-125.611 108.544zM974.848 232.277l0.683-59.392c0-20.48-16.384-36.864-36.864-36.864h-357.035v125.611c0 26.624-13.653 57.344-40.96 81.92 19.115 10.923 32.085 19.115 58.027 26.624 0-33.451 8.875-110.592 68.949-197.973l25.259 151.552-29.355 59.392c19.797 2.048 39.595 4.096 60.757 4.096s41.643-1.365 60.757-4.096l-29.355-59.392 25.259-151.552c60.075 86.699 68.949 164.523 68.949 197.973 75.093-21.845 124.928-90.795 124.928-137.899zM305.835 759.979c77.141 0 139.947-62.123 139.264-139.947 0-77.141-62.805-139.947-139.947-139.947s-139.947 62.805-139.947 139.947c0.683 77.824 63.488 139.947 140.629 139.947zM890.197 469.163c-25.259-24.576-291.499-26.624-326.997 0s22.528 185.685 22.528 185.685h0.683c15.019 60.757 70.315 105.813 135.851 105.131 65.536 0 120.149-45.056 135.168-105.813v0c0 0.683 58.027-160.427 32.768-185.003z" />
<glyph unicode="&#xe950;" glyph-name="business-owner" d="M567.979 15.189c-36.864 0-74.411 0-111.275 0-12.288 4.096-18.432 12.971-21.845 24.576-2.731 10.24-6.827 21.163-9.557 31.403-1.365 4.779-3.413 7.509-8.875 8.875-30.72 8.192-60.075 19.797-88.064 35.499-3.413 2.048-8.875 2.048-12.288 0.683-14.336-4.096-28.672-8.875-42.325-13.653-12.288-4.779-23.211-2.048-32.085 7.509-22.528 22.528-44.373 44.373-66.901 66.901-8.875 8.875-11.605 19.115-7.509 31.403 4.779 14.336 10.24 29.355 14.336 44.373 0.683 3.413 0.683 8.192-0.683 10.923-14.336 25.941-25.259 52.565-33.451 80.555-0.683 3.413-4.096 6.827-7.509 8.192-13.653 6.827-27.989 13.653-41.643 20.48-12.288 5.461-18.432 15.019-18.432 28.672 0 31.403 0 62.805 0 93.525 0 12.971 5.461 22.528 17.749 27.989 14.336 6.827 28.672 13.653 42.325 20.48 2.731 1.365 6.144 4.779 7.509 8.192 8.875 31.403 21.845 60.757 37.547 88.747 1.365 2.731 1.365 7.509 0 10.24-4.779 11.605-10.923 21.845-16.384 33.451-6.827 13.653-5.461 23.211 6.144 34.133 22.528 22.528 44.373 44.373 66.901 66.901 10.923 10.923 20.48 12.288 34.133 5.461 10.923-5.461 21.845-10.24 32.085-16.384 4.779-2.731 8.192-2.731 12.288 0 27.307 16.384 56.661 28.672 87.381 37.547 3.413 1.365 7.509 4.779 9.557 8.192 7.509 13.653 13.653 27.989 20.48 41.643 5.461 12.288 15.019 17.749 27.989 17.749 31.403 0 62.805 0 93.525 0 13.653 0 23.211-6.144 28.672-18.432 6.827-14.336 12.971-27.989 20.48-41.643 1.365-2.731 4.779-6.144 8.192-7.509 31.403-8.875 61.44-21.845 90.112-38.229 2.048-1.365 6.827-1.365 8.875 0 11.605 5.461 22.528 11.605 34.133 17.067 13.653 6.827 23.211 5.461 34.133-5.461 22.528-22.528 44.373-44.373 66.901-66.901 10.923-10.923 12.288-20.48 5.461-35.499-5.461-10.923-10.923-21.845-15.701-32.768-1.365-2.731-1.365-7.509 0-10.24 17.749-30.72 31.403-63.488 40.96-97.621 0.683-2.731 4.096-6.144 7.509-7.509 10.24-4.096 21.163-7.509 32.085-10.24 11.605-3.413 21.163-9.557 25.259-21.845 0-36.864 0-74.411 0-111.275-4.096-12.288-12.971-18.432-24.576-21.845-10.24-2.731-21.163-6.827-31.403-9.557-4.779-1.365-7.509-3.413-8.875-8.875-8.192-30.72-19.797-60.075-35.499-88.064-2.048-3.413-2.048-8.875-0.683-12.288 4.096-14.336 9.557-28.672 14.336-43.008 4.096-12.288 1.365-22.528-7.509-31.403-22.528-22.528-44.373-44.373-66.901-66.901-8.875-8.875-19.115-11.605-31.403-7.509-14.336 4.779-29.355 10.24-43.691 14.336-3.413 0.683-8.192 0.683-10.923-0.683-28.672-15.701-58.027-27.989-89.429-36.181-2.731-0.683-6.144-4.096-7.509-7.509-4.096-10.24-7.509-21.163-10.24-32.085-6.144-11.605-11.605-20.48-23.893-24.576zM512.683 168.789c153.6 0.683 279.211 126.293 278.528 279.211-1.365 153.6-125.611 278.528-279.211 278.528-152.917 0-279.211-125.611-279.211-279.211 0.683-152.917 126.293-278.528 279.893-278.528zM512 625.493c-69.632 0-126.293-56.661-126.976-126.293s56.661-126.976 126.293-127.659c69.632 0 126.976 56.661 126.976 126.293 0.683 70.315-56.661 127.659-126.293 127.659zM344.747 299.861c-0.683-2.048 0.683-6.144 2.731-7.509 13.653-11.605 26.624-24.576 41.643-34.816 87.381-59.392 207.531-47.104 281.941 27.989 8.192 8.192 9.557 14.336 5.461 25.259-10.24 22.528-22.528 43.008-40.277 60.075-74.411-70.315-183.637-61.44-246.443 0-21.845-20.48-36.864-43.691-45.056-70.997z" />
<glyph unicode="&#xe951;" glyph-name="customer" d="M267.605 22.699c11.605 6.144 23.211 11.605 34.816 17.749 28.672 14.336 38.229 41.643 23.893 70.315-41.643 83.285-83.285 166.571-124.928 249.856-14.336 27.989-41.643 36.864-70.315 23.893-8.192-4.096-17.067-8.192-25.259-12.288-20.48-10.24-24.576-21.845-14.336-42.325 47.787-94.891 94.891-189.781 141.995-284.672 16.384-30.037 34.133-22.528 34.133-22.528zM933.205 404.992c4.096 7.509 5.461 16.384 3.413 24.576 0 1.365-0.683 2.048-0.683 2.048-4.779 21.163-17.749 34.133-38.912 38.229-20.48 4.096-36.864-4.096-50.517-19.797-42.325-52.565-85.333-105.131-127.659-157.013-10.24-12.971-23.893-20.48-40.277-20.48-39.595-0.683-78.507-0.683-118.101 0-10.923 0-18.432 5.461-22.528 15.701-6.827 17.067 5.461 33.451 24.576 34.133 32.085 0 64.171 0 96.256 0 22.528 0 41.643 12.971 48.469 32.768 11.605 33.451-11.605 66.901-47.787 66.901-38.912 0.683-77.824 0.683-116.053 0-15.701 0-27.307 4.096-38.912 14.336-49.152 43.008-105.813 54.613-168.619 36.864-40.277-11.605-70.997-38.912-101.035-66.219 0.683-2.048 2.048-3.413 2.731-5.461 45.056-90.795 90.795-181.589 135.851-272.384 2.731-5.461 5.461-6.144 10.923-6.144 90.112 0 180.224 0 271.019 0 56.661 0 101.035 22.528 133.803 69.632 43.008 62.123 86.699 123.563 129.707 185.685 4.779 8.192 9.557 17.749 14.336 26.624zM647.851 671.232c-62.123-66.901-163.157-64.853-224.597 0.683-7.509-12.288-16.384-23.893-22.528-36.864-14.336-26.624-15.701-55.296-15.019-84.651 0.683-19.115 9.557-28.672 28.672-28.672 29.355 0 58.027 0 87.381 0 52.565 0 104.448 0 157.013 0 18.432 0 27.989 9.557 27.989 27.989 0 10.24 0 19.797 0 30.037-2.731 34.816-15.701 64.853-38.912 91.477zM636.928 772.949c0 55.296-45.739 101.035-99.669 101.035-54.613 0-101.035-46.421-101.035-101.035 0-55.296 47.104-101.717 101.717-101.717 53.931 0 98.987 46.421 98.987 101.717z" />
<glyph unicode="&#xe952;" glyph-name="prospects" d="M860.16 15.189c-23.893 3.413-40.96 17.749-57.344 34.133-44.373 45.056-88.747 89.429-133.803 133.803-2.048 2.048-4.779 4.096-8.192 6.144 43.691 30.037 79.189 65.536 109.227 108.544 6.827-7.509 13.653-14.336 20.48-21.163 39.595-39.595 79.189-79.872 119.467-119.467 17.067-16.384 31.403-34.133 34.816-58.027 0-5.461 0-11.605 0-17.067-0.683-1.365-1.365-3.413-1.365-4.779-3.413-19.115-12.971-34.816-28.672-47.104-10.923-8.875-23.893-12.971-37.547-15.701-5.461 0.683-11.605 0.683-17.067 0.683zM79.189 525.824c0-195.243 159.061-354.987 354.304-355.669s355.669 159.744 355.669 354.987c0 195.243-159.744 354.987-354.987 354.987-194.56 0.683-354.304-159.061-354.987-354.304zM180.907 526.507c0.683 139.264 114.688 253.269 253.269 253.269 139.264 0 253.952-114.688 253.269-253.952s-114.688-253.269-253.269-253.269c-139.264 0-253.952 114.688-253.269 253.952zM535.893 551.083c0 55.296-45.739 101.035-101.035 101.035-55.979 0-101.717-45.056-101.717-101.035s45.739-101.717 101.035-101.717c55.979 0 101.717 45.739 101.717 101.717zM290.816 392.021c-2.048-5.461-1.365-8.192 2.731-12.288 31.403-29.355 68.267-48.469 110.592-54.613 67.584-9.557 125.611 11.605 174.080 58.709 1.365 1.365 2.731 4.096 2.048 5.461-6.827 22.528-17.749 42.325-34.133 58.709-58.027-63.488-160.427-68.949-224.597-0.683-12.971-14.336-23.211-32.768-30.72-55.296z" />
<glyph unicode="&#xe953;" glyph-name="forward" d="M512 618.667v170.667l341.333-341.333-341.333-341.333v170.667h-341.333v341.333h341.333z" />
<glyph unicode="&#xe954;" glyph-name="business2" d="M430.933 422.4h162.133v-55.467h-162.133v55.467zM802.133 366.933h-153.6v-25.6c0-17.067-12.8-25.6-25.6-25.6h-217.6c-17.067 0-25.6 12.8-25.6 25.6v25.6h-157.867c-34.133 0-68.267 21.333-76.8 55.467l-98.133 294.4v-593.067c0-46.933 38.4-81.067 81.067-81.067h768c46.933 0 81.067 38.4 81.067 81.067v593.067l-98.133-294.4c-12.8-34.133-42.667-55.467-76.8-55.467zM618.667 857.6h-213.333c-46.933 0-81.067-38.4-81.067-81.067v-29.867h-230.4l102.4-307.2c4.267-12.8 12.8-17.067 25.6-17.067h153.6v25.6c0 17.067 12.8 25.6 25.6 25.6h217.6c17.067 0 25.6-12.8 25.6-25.6v-25.6h153.6c12.8 0 21.333 8.533 25.6 17.067l106.667 307.2h-226.133v25.6c0 46.933-38.4 85.333-85.333 85.333zM375.467 746.667v25.6c0 17.067 12.8 25.6 25.6 25.6h217.6c17.067 0 25.6-12.8 25.6-25.6v-25.6h-268.8z" />
<glyph unicode="&#xe955;" glyph-name="professional" d="M512 934.4c119.467 0 217.6-98.133 217.6-217.6s-98.133-217.6-217.6-217.6-217.6 98.133-217.6 221.867 98.133 213.333 217.6 213.333zM729.6 362.667c0-55.467-17.067-192-119.467-341.333l-42.667 260.267 51.2 102.4c-34.133 4.267-68.267 8.533-106.667 8.533s-72.533-4.267-106.667-8.533l51.2-102.4-42.667-260.267c-102.4 149.333-119.467 281.6-119.467 341.333-128-38.4-217.6-106.667-217.6-187.733v-217.6h866.133v217.6c4.267 85.333-85.333 153.6-213.333 187.733z" />
<glyph unicode="&#xe956;" glyph-name="business1" d="M418.133 904.533h192c51.2 0 93.867-42.667 93.867-93.867v-93.867h192c51.2 0 93.867-42.667 93.867-93.867v-529.067c0-51.2-42.667-93.867-93.867-93.867h-768c-51.2 0-93.867 42.667-93.867 93.867v520.533c0 51.2 42.667 93.867 93.867 93.867h192v98.133c0 55.467 42.667 98.133 98.133 98.133zM605.867 712.533v93.867h-187.733v-93.867h187.733z" />
<glyph unicode="&#xe957;" glyph-name="insurance" d="M512 448h298.667c-21.333-174.933-140.8-332.8-298.667-379.733v379.733h-298.667v243.2l298.667 132.267zM512 917.333l-384-170.667v-256c0-234.667 162.133-456.533 384-512 221.867 55.467 384 277.333 384 512v256l-384 170.667z" />
<glyph unicode="&#xe958;" glyph-name="business" d="M460.8 742.4h149.333l162.133 162.133c21.333 21.333 51.2 21.333 68.267 0 0 0 0 0 0 0l128-128c17.067-21.333 17.067-51.2 0-68.267l-115.2-115.2h-396.8v-98.133c0-25.6-21.333-51.2-51.2-51.2s-51.2 21.333-51.2 51.2v149.333c8.533 55.467 55.467 98.133 106.667 98.133zM166.4 499.2v-196.267l-115.2-115.2c-17.067-21.333-17.067-51.2 0-68.267l128-128c21.333-21.333 51.2-21.333 68.267 0 0 0 0 0 0 0l213.333 213.333h196.267c25.6 0 51.2 21.333 51.2 51.2v51.2h51.2c25.6 0 51.2 21.333 51.2 51.2v51.2h51.2c25.6 0 51.2 21.333 51.2 51.2v51.2h-345.6v-64c0-55.467-42.667-98.133-98.133-98.133h-106.667c-55.467 0-98.133 42.667-98.133 98.133v149.333l-98.133-98.133z" />
<glyph unicode="&#xe959;" glyph-name="vahicle" d="M204.8 371.2c-46.933 0-81.067-38.4-81.067-81.067s38.4-81.067 81.067-81.067c46.933 0 81.067 38.4 81.067 81.067s-34.133 81.067-81.067 81.067zM806.4 209.067v0 0zM972.8 477.867l-89.6 42.667c-4.267 0-4.267 4.267-8.533 8.533l-81.067 128c-12.8 25.6-42.667 38.4-68.267 38.4h-320c-25.6-8.533-51.2-17.067-64-38.4l-102.4-132.267c-4.267-4.267-4.267-4.267-8.533-4.267l-170.667-46.933c-25.6-8.533-42.667-29.867-42.667-55.467v-64c0-29.867 25.6-55.467 55.467-55.467h12.8c4.267 59.733 51.2 102.4 106.667 106.667 64 4.267 119.467-42.667 123.733-106.667h366.933c4.267 59.733 51.2 102.4 106.667 106.667 64 4.267 119.467-42.667 123.733-106.667h25.6c29.867 0 55.467 25.6 55.467 55.467v72.533c12.8 21.333 0 42.667-21.333 51.2zM806.4 371.2c-46.933 0-81.067-38.4-81.067-81.067 0-46.933 38.4-81.067 81.067-81.067 46.933 0 81.067 38.4 81.067 81.067s-34.133 81.067-81.067 81.067z" />
<glyph unicode="&#xe95a;" glyph-name="file-document" d="M554.667 576h234.667l-234.667 234.667v-234.667zM256 874.667h341.333l256-256v-512c0-46.933-38.4-85.333-85.333-85.333h-512c-46.933 0-85.333 38.4-85.333 85.333v682.667c0 46.933 38.4 85.333 85.333 85.333zM640 192v85.333h-384v-85.333h384zM768 362.667v85.333h-512v-85.333h512z" />
<glyph unicode="&#xe95b;" glyph-name="instagram" d="M332.8 874.667h358.4c136.533 0 247.467-110.933 247.467-247.467v-358.4c0-136.672-110.795-247.467-247.467-247.467v0h-358.4c-136.533 0-247.467 110.933-247.467 247.467v358.4c0 136.672 110.795 247.467 247.467 247.467v0zM324.267 789.333c-84.831 0-153.6-68.769-153.6-153.6v0-375.467c0-84.907 68.693-153.6 153.6-153.6h375.467c84.831 0 153.6 68.769 153.6 153.6v0 375.467c0 84.907-68.693 153.6-153.6 153.6h-375.467zM736 725.333c29.455 0 53.333-23.878 53.333-53.333v0c0-29.455-23.878-53.333-53.333-53.333v0c-29.455 0-53.333 23.878-53.333 53.333v0c0 29.455 23.878 53.333 53.333 53.333v0zM512 661.333c117.821 0 213.333-95.513 213.333-213.333v0c0-117.821-95.513-213.333-213.333-213.333v0c-117.821 0-213.333 95.513-213.333 213.333v0c0 117.821 95.513 213.333 213.333 213.333v0zM512 576c-70.692 0-128-57.308-128-128v0c0-70.692 57.308-128 128-128v0c70.692 0 128 57.308 128 128v0c0 70.692-57.308 128-128 128v0z" />
<glyph unicode="&#xe95c;" glyph-name="image-area" d="M853.333 746.667c46.933 0 85.333-38.4 85.333-85.333v-426.667c0-46.933-38.4-85.333-85.333-85.333h-682.667c-46.933 0-85.333 38.4-85.333 85.333v426.667c0 46.933 38.4 85.333 85.333 85.333h682.667zM213.333 277.333h597.333l-192 256-149.333-192-106.667 128-149.333-192z" />
<glyph unicode="&#xe95d;" glyph-name="file-word" d="M256 874.667h341.333l256-256v-512c0-46.933-38.4-85.333-85.333-85.333h-512c-46.933 0-85.333 38.4-85.333 85.333v682.667c0 46.933 38.4 85.333 85.333 85.333zM554.667 810.667v-234.667h234.667l-234.667 234.667zM298.667 405.333l64-298.667h85.333l64 128 64-128h85.333l64 298.667h42.667v85.333h-170.667v-85.333h42.667l-38.4-179.2-46.933 93.867h-85.333l-46.933-93.867-38.4 179.2h42.667v85.333h-170.667v-85.333h42.667z" />
<glyph unicode="&#xe95e;" glyph-name="file-question" d="M256 874.667c-46.933 0-85.333-38.4-85.333-85.333v-682.667c0-46.933 38.4-85.333 85.333-85.333h512c46.933 0 85.333 38.4 85.333 85.333v512l-256 256h-341.333zM554.667 810.667l234.667-234.667h-234.667v234.667zM512 490.667c72.533 0 128-55.467 128-128 0-81.067-98.133-89.6-98.133-157.867h-64c0 102.4 98.133 93.867 98.133 157.867 0 34.133-29.867 64-64 64s-64-29.867-64-64h-64c0 72.533 55.467 128 128 128zM482.133 170.667h64v-64h-64v64z" />
<glyph unicode="&#xe95f;" glyph-name="file-powerpoint" d="M256 874.667h341.333l256-256v-512c0-46.933-38.4-85.333-85.333-85.333h-512c-46.933 0-85.333 38.4-85.333 85.333v682.667c0 46.933 38.4 85.333 85.333 85.333zM554.667 810.667v-234.667h234.667l-234.667 234.667zM341.333 490.667v-85.333h42.667v-256h-42.667v-42.667h170.667v42.667h-42.667v85.333h85.333c72.533 0 128 55.467 128 128s-55.467 128-128 128h-213.333zM554.667 405.333c25.6 0 42.667-17.067 42.667-42.667s-17.067-42.667-42.667-42.667h-85.333v85.333h85.333z" />
<glyph unicode="&#xe960;" glyph-name="file-pdf" d="M597.333 576h234.667l-234.667 234.667v-234.667zM298.667 874.667h341.333l256-256v-512c0-46.933-38.4-85.333-85.333-85.333h-512c-46.933 0-85.333 38.4-85.333 85.333v682.667c0 46.933 38.4 85.333 85.333 85.333zM507.733 430.933c17.067-38.4 38.4-68.267 64-93.867l17.067-12.8c-38.4-8.533-89.6-17.067-140.8-38.4v0h-4.267l21.333 42.667c21.333 34.133 34.133 68.267 42.667 102.4zM785.067 268.8c8.533 8.533 12.8 17.067 12.8 29.867 0 8.533 0 17.067-4.267 25.6-12.8 21.333-42.667 29.867-98.133 29.867l-55.467-8.533-38.4 25.6c-25.6 21.333-51.2 59.733-68.267 110.933v4.267c12.8 55.467 25.6 123.733 0 153.6-8.533 8.533-17.067 8.533-25.6 8.533h-8.533c-17.067 0-29.867-17.067-34.133-34.133-17.067-55.467-4.267-89.6 8.533-140.8v0c-12.8-38.4-25.6-81.067-46.933-123.733l-42.667-76.8-38.4-21.333c-51.2-34.133-76.8-68.267-81.067-89.6 0-8.533 0-17.067 0-21.333v-4.267l21.333-12.8 17.067-4.267c34.133 0 72.533 42.667 128 132.267l8.533 4.267c42.667 12.8 98.133 25.6 170.667 29.867 42.667-21.333 93.867-29.867 128-29.867 25.6 0 38.4 4.267 46.933 12.8zM768 298.667l4.267-4.267c0-4.267 0-4.267-4.267-4.267v0h-8.533c-21.333 0-51.2 8.533-81.067 21.333 4.267 4.267 4.267 4.267 8.533 4.267 59.733-4.267 76.8-12.8 81.067-17.067zM375.467 234.667c-25.6-51.2-51.2-81.067-72.533-85.333 4.267 17.067 21.333 42.667 51.2 72.533l21.333 12.8zM507.733 529.067c-8.533 38.4-8.533 68.267-4.267 89.6l4.267 4.267 4.267-4.267c8.533-8.533 8.533-25.6 4.267-46.933v-8.533l-8.533-34.133z" />
<glyph unicode="&#xe961;" glyph-name="file-find" d="M384 405.333c0-72.533 55.467-128 128-128s128 55.467 128 128-55.467 128-128 128-128-55.467-128-128zM853.333 123.733v494.933l-256 256h-341.333c-46.933 0-85.333-38.4-85.333-85.333v-682.667c0-46.933 38.4-85.333 85.333-85.333h512c21.333 0 38.4 4.267 51.2 17.067l-187.733 187.733c-34.133-21.333-76.8-34.133-119.467-34.133-119.467 0-213.333 93.867-213.333 213.333s93.867 213.333 213.333 213.333 213.333-93.867 213.333-213.333c0-42.667-12.8-85.333-34.133-119.467l162.133-162.133z" />
<glyph unicode="&#xe962;" glyph-name="facebook-box" d="M213.333 832h597.333c47.128 0 85.333-38.205 85.333-85.333v0-597.333c0-47.128-38.205-85.333-85.333-85.333v0h-597.333c-47.128 0-85.333 38.205-85.333 85.333v0 597.333c0 47.128 38.205 85.333 85.333 85.333v0zM768 746.667h-106.667c-82.475 0-149.333-66.859-149.333-149.333v0-106.667h-85.333v-128h85.333v-298.667h128v298.667h128v128h-128v85.333c0 23.564 19.103 42.667 42.667 42.667v0h85.333v128z" />
<glyph unicode="&#xe963;" glyph-name="education" d="M1002.667 644.267l-482.133 170.667c-8.533 4.267-12.8 4.267-21.333 0l-482.133-170.667c-8.533-4.267-17.067-12.8-17.067-25.6s8.533-25.6 21.333-29.867l482.133-170.667c4.267 0 8.533 0 8.533 0 4.267 0 8.533 0 8.533 0l482.133 170.667c12.8 4.267 21.333 17.067 21.333 29.867s-8.533 21.333-21.333 25.6zM951.467 366.933v140.8l-59.733-21.333v-119.467c-17.067-8.533-29.867-29.867-29.867-51.2s12.8-42.667 29.867-51.2v-157.867l29.867 21.333 29.867-21.333v153.6c17.067 8.533 29.867 29.867 29.867 51.2 0 25.6-12.8 42.667-29.867 55.467zM512 358.4c-8.533 0-21.333 0-29.867 4.267l-273.067 98.133v-217.6c0-34.133 34.133-59.733 98.133-81.067 59.733-17.067 128-29.867 200.533-29.867s145.067 8.533 200.533 29.867c68.267 21.333 98.133 46.933 98.133 81.067v217.6l-264.533-98.133c-8.533-4.267-21.333-4.267-29.867-4.267z" />
<glyph unicode="&#xe964;" glyph-name="blogger" d="M597.333 405.333h-172.8c-23.564 0-42.667-19.103-42.667-42.667v0c0-23.564 19.103-42.667 42.667-42.667v0h172.8c23.564 0 42.667 19.103 42.667 42.667v0c0 23.564-19.103 42.667-42.667 42.667v0zM424.533 533.333h110.933c23.564 0 42.667 19.103 42.667 42.667v0c0 23.564-19.103 42.667-42.667 42.667v0h-110.933c-23.564 0-42.667-19.103-42.667-42.667v0c0-23.564 19.103-42.667 42.667-42.667v0zM682.667 576v-42.667c0-23.564 19.103-42.667 42.667-42.667v0c23.564 0 42.667-19.103 42.667-42.667v0-128c0-70.692-57.308-128-128-128v0h-256c-70.692 0-128 57.308-128 128v0 298.667c0 70.692 57.308 128 128 128v0h170.667c70.692 0 128-57.308 128-128v0zM853.333 874.667h-682.667c-47.36 0-85.333-37.973-85.333-85.333v-682.667c0-47.128 38.205-85.333 85.333-85.333v0h682.667c47.128 0 85.333 38.205 85.333 85.333v0 682.667c0 47.36-38.4 85.333-85.333 85.333z" />
<glyph unicode="&#xe965;" glyph-name="basic-card" d="M85.333 832h853.333c46.473-1.595 83.738-38.861 85.329-85.185l0.004-0.149v-597.333c-1.595-46.473-38.861-83.738-85.185-85.329l-0.149-0.004h-853.333c-46.473 1.595-83.738 38.861-85.329 85.185l-0.004 0.149v597.333c1.595 46.473 38.861 83.738 85.185 85.329l0.149 0.004zM341.333 366.507c-85.333 0-256-46.507-256-131.84v-42.667h512v42.667c0 85.333-170.667 131.84-256 131.84zM341.333 704c-70.692 0-128-57.308-128-128s57.308-128 128-128c70.692 0 128 57.308 128 128v0c0 70.692-57.308 128-128 128v0zM725.333 533.333v-128h170.667v128h-170.667z" />
<glyph unicode="&#xe966;" glyph-name="banking" d="M524.8 896c-153.6 0-273.067-123.733-273.067-273.067 0-153.6 123.733-273.067 273.067-273.067s273.067 123.733 273.067 273.067-123.733 273.067-273.067 273.067zM618.667 678.4c0 0 0-4.267 0-4.267s-4.267 0-4.267 0h-34.133c-4.267-21.333-12.8-34.133-25.6-46.933s-34.133-21.333-55.467-21.333c21.333-25.6 55.467-64 93.867-110.933 0-4.267 4.267-4.267 0-8.533 0-4.267-4.267-4.267-4.267-4.267h-42.667c-4.267 0-4.267 0-4.267 4.267-42.667 51.2-76.8 89.6-102.4 119.467 0 0 0 4.267 0 4.267v17.067c0 0 0 4.267 0 4.267s4.267 0 4.267 0h21.333c17.067 0 34.133 4.267 42.667 8.533 12.8 4.267 17.067 12.8 21.333 25.6h-89.6c0 0-4.267 0-4.267 0s0 4.267 0 4.267v29.867c0 0 0 4.267 0 4.267s4.267 0 4.267 0h85.333c-8.533 17.067-25.6 25.6-55.467 25.6h-29.867c0 0-4.267 0-4.267 0s0 4.267 0 4.267v29.867c0 0 0 4.267 0 4.267s4.267 0 4.267 0h174.933c0 0 4.267 0 4.267 0s0-4.267 0-4.267v-21.333c0 0 0-4.267 0-4.267s-4.267 0-4.267 0h-46.933c8.533-8.533 12.8-17.067 12.8-29.867h34.133c0 0 4.267 0 4.267 0s0-4.267 0-4.267v-25.6zM887.467 302.933l-145.067-68.267c-21.333 38.4-59.733 64-102.4 64l-136.533 4.267c-21.333 0-42.667 4.267-64 17.067l-12.8 8.533c-72.533 38.4-157.867 38.4-226.133 0v29.867c0 8.533-8.533 17.067-17.067 21.333l-149.333 4.267c-8.533 0-17.067-8.533-21.333-17.067l-12.8-337.067c0-8.533 8.533-17.067 17.067-21.333h153.6c8.533 0 17.067 8.533 17.067 17.067v17.067l38.4 21.333c17.067 8.533 34.133 8.533 51.2 4.267l234.667-64c0 0 0 0 0 0 17.067-4.267 34.133-4.267 51.2-4.267 38.4 0 72.533 8.533 106.667 21.333 0 0 0 0 4.267 0l337.067 217.6c8.533 4.267 12.8 17.067 4.267 25.6-25.6 46.933-81.067 64-128 38.4z" />
<glyph unicode="&#xe967;" glyph-name="application" d="M810.667 789.333c46.933 0 85.333-38.4 85.333-85.333v-512c0-46.933-38.4-85.333-85.333-85.333h-597.333c-46.933 0-85.333 38.4-85.333 85.333v512c0 46.933 38.4 85.333 85.333 85.333h597.333zM810.667 192v426.667h-597.333v-426.667h597.333z" />
<glyph unicode="&#xe968;" glyph-name="youtube" d="M426.667 320l221.867 128-221.867 128v-256zM921.6 652.8c4.267-21.333 8.533-46.933 12.8-81.067s4.267-64 4.267-89.6v-34.133c0-93.867-8.533-162.133-17.067-204.8-12.8-38.4-34.133-64-72.533-72.533-21.333-4.267-55.467-8.533-110.933-12.8s-106.667-4.267-153.6-4.267l-72.533-4.267c-179.2 0-290.133 8.533-332.8 17.067-38.4 12.8-64 34.133-72.533 72.533-4.267 21.333-8.533 46.933-12.8 81.067s-4.267 64-4.267 89.6l-4.267 38.4c0 93.867 8.533 162.133 17.067 204.8 12.8 38.4 34.133 64 72.533 72.533 21.333 4.267 55.467 8.533 115.2 12.8 55.467 4.267 106.667 4.267 153.6 4.267l68.267 4.267c179.2 0 290.133-8.533 332.8-17.067 38.4-12.8 64-38.4 76.8-76.8z" />
<glyph unicode="&#xe969;" glyph-name="whatsapp" d="M714.667 364.373c10.667-5.547 17.493-8.533 19.627-12.8 2.56-4.693 1.707-26.027-8.96-50.347-8.533-23.893-52.907-46.933-72.533-47.787s-20.053-15.36-126.293 31.147c-106.24 46.507-170.24 160-175.36 167.253s-40.96 58.88-39.253 111.36c2.133 52.053 29.44 76.8 40.533 87.040 10.24 11.093 21.76 12.373 29.013 11.093h20.053c6.4 0 15.36 2.56 23.467-19.2l29.44-79.787c2.56-5.547 4.267-11.947 0.427-18.773l-11.52-17.493-16.64-17.92c-5.12-5.12-11.093-10.667-5.12-21.333 5.12-11.093 26.453-46.507 56.32-75.947 38.827-37.547 72.96-49.92 83.2-55.467 10.24-5.973 16.64-5.12 23.040 1.707l34.56 40.107c8.107 10.667 14.933 8.107 24.747 4.693l71.253-37.547zM512 874.667c235.641 0 426.667-191.025 426.667-426.667v0c0-235.641-191.025-426.667-426.667-426.667v0c-84.053 0-162.133 24.32-228.267 66.133l-198.4-66.133 66.133 198.4c-41.813 66.133-66.133 144.213-66.133 228.267 0 235.641 191.025 426.667 426.667 426.667v0zM512 789.333c-188.513 0-341.333-152.82-341.333-341.333v0c0-73.387 23.040-141.227 62.293-196.693l-40.96-123.307 123.307 40.96c55.467-39.253 123.307-62.293 196.693-62.293 188.513 0 341.333 152.82 341.333 341.333v0c0 188.513-152.82 341.333-341.333 341.333v0z" />
<glyph unicode="&#xe96a;" glyph-name="web" d="M698.027 362.667c3.413 28.16 5.973 56.32 5.973 85.333s-2.56 57.173-5.973 85.333h144.213c6.827-27.307 11.093-55.893 11.093-85.333s-4.267-58.027-11.093-85.333zM622.507 125.44c25.6 47.36 45.227 98.56 58.88 151.893h125.867c-40.96-70.4-106.24-125.013-184.747-151.893zM611.84 362.667h-199.68c-4.267 28.16-6.827 56.32-6.827 85.333s2.56 57.6 6.827 85.333h199.68c3.84-27.733 6.827-56.32 6.827-85.333s-2.987-57.173-6.827-85.333zM512 108.373c-35.413 51.2-64 107.947-81.493 168.96h162.987c-17.493-61.013-46.080-117.76-81.493-168.96zM341.333 618.667h-124.587c40.533 70.827 106.24 125.44 184.32 151.893-25.6-47.36-44.8-98.56-59.733-151.893zM216.747 277.333h124.587c14.933-53.333 34.133-104.533 59.733-151.893-78.080 26.88-143.787 81.493-184.32 151.893zM181.76 362.667c-6.827 27.307-11.093 55.893-11.093 85.333s4.267 58.027 11.093 85.333h144.213c-3.413-28.16-5.973-56.32-5.973-85.333s2.56-57.173 5.973-85.333zM512 788.053c35.413-51.2 64-108.373 81.493-169.387h-162.987c17.493 61.013 46.080 118.187 81.493 169.387zM807.253 618.667h-125.867c-13.653 53.333-33.28 104.533-58.88 151.893 78.507-26.88 143.787-81.067 184.747-151.893zM512 874.667c-235.947 0-426.667-192-426.667-426.667 0-235.641 191.025-426.667 426.667-426.667v0c235.641 0 426.667 191.025 426.667 426.667v0c0 235.641-191.025 426.667-426.667 426.667v0z" />
<glyph unicode="&#xe96b;" glyph-name="twitter-box" d="M213.333 832h597.333c47.128 0 85.333-38.205 85.333-85.333v0-597.333c0-47.128-38.205-85.333-85.333-85.333v0h-597.333c-47.128 0-85.333 38.205-85.333 85.333v0 597.333c0 47.128 38.205 85.333 85.333 85.333v0zM755.627 561.92c20.48 17.067 44.373 37.547 55.040 60.16-17.493-8.96-38.4-14.507-61.44-17.493 21.333 15.36 38.827 35.413 47.787 62.72-22.187-11.947-44.8-22.187-72.96-27.307-66.133 79.787-224.427 14.933-196.267-104.533-111.36 6.827-179.2 57.173-235.52 119.040-32-52.053-4.267-130.987 33.707-152.747-19.627 1.28-34.56 7.253-48.64 14.080 1.707-65.707 37.973-97.28 88.747-114.347-15.36-2.987-32.427-3.84-48.64-1.28 15.787-45.653 48.64-74.24 104.96-80.213-38.4-32.427-109.227-55.040-166.4-46.080 49.067-31.147 104.96-55.893 182.613-52.48 188.16 8.533 314.027 143.36 317.013 340.48z" />
<glyph unicode="&#xe96c;" glyph-name="skype" d="M768 704c88.32-87.040 121.6-208.64 100.693-322.133 17.493-30.72 27.307-66.56 27.307-104.533 0-117.821-95.513-213.333-213.333-213.333v0c-37.973 0-73.813 9.813-104.533 27.307-113.493-20.907-235.093 12.373-322.133 100.693-88.32 87.040-121.6 208.64-100.693 322.133-17.493 30.72-27.307 66.56-27.307 104.533 0 117.821 95.513 213.333 213.333 213.333v0c37.973 0 73.813-9.813 104.533-27.307 113.493 20.907 235.093-12.373 322.133-100.693zM513.707 227.84c122.453 0 183.467 58.88 183.467 138.24 0 50.773-23.893 104.96-116.48 125.867l-84.907 18.773c-32.427 7.253-69.12 17.067-69.12 47.36 0 30.72 25.6 52.053 72.533 52.053 95.147 0 86.187-65.28 133.547-65.28 24.747 0 46.080 14.507 46.080 39.68 0 58.453-93.44 102.4-172.8 102.4-85.76 0-177.493-36.693-177.493-133.973 0-46.933 16.64-96.853 108.8-119.893l114.773-29.013c34.56-8.533 43.093-27.733 43.093-45.653 0-29.013-29.013-57.6-81.493-57.6-102.827 0-88.747 78.933-143.787 78.933-24.747 0-42.667-17.067-42.667-41.387 0-47.36 56.747-110.507 186.453-110.507z" />
<glyph unicode="&#xe96d;" glyph-name="license" d="M85.333 832h853.333c44.8 0 85.333-40.533 85.333-85.333v-597.333c0-44.8-40.533-85.333-85.333-85.333h-853.333c-44.8 0-85.333 40.533-85.333 85.333v597.333c0 44.8 40.533 85.333 85.333 85.333zM597.333 704v-42.667h341.333v42.667h-341.333zM597.333 618.667v-42.667h341.333v42.667h-341.333zM597.333 533.333v-42.667h298.667v42.667h-298.667zM341.333 366.507c-85.333 0-256-46.507-256-131.84v-42.667h512v42.667c0 85.333-170.667 131.84-256 131.84zM341.333 704c-70.692 0-128-57.308-128-128v0c0-70.692 57.308-128 128-128v0c70.692 0 128 57.308 128 128v0c0 70.692-57.308 128-128 128v0z" />
<glyph unicode="&#xe96e;" glyph-name="clipboard-delete" d="M512 584.533c-123.733 0-221.867-98.133-221.867-221.867s98.133-221.867 221.867-221.867 221.867 98.133 221.867 221.867-98.133 221.867-221.867 221.867zM622.933 290.133l-38.4-38.4-72.533 72.533-72.533-72.533-38.4 38.4 72.533 72.533-72.533 72.533 38.4 38.4 72.533-72.533 72.533 72.533 38.4-38.4-72.533-72.533 72.533-72.533zM512 584.533c-123.733 0-221.867-98.133-221.867-221.867s98.133-221.867 221.867-221.867 221.867 98.133 221.867 221.867-98.133 221.867-221.867 221.867zM622.933 290.133l-38.4-38.4-72.533 72.533-72.533-72.533-38.4 38.4 72.533 72.533-72.533 72.533 38.4 38.4 72.533-72.533 72.533 72.533 38.4-38.4-72.533-72.533 72.533-72.533zM810.667 789.333h-179.2c-17.067 51.2-64 85.333-119.467 85.333s-102.4-34.133-119.467-85.333h-179.2c-46.933 0-85.333-38.4-85.333-85.333v-597.333c0-46.933 38.4-85.333 85.333-85.333h597.333c46.933 0 85.333 38.4 85.333 85.333v597.333c0 46.933-38.4 85.333-85.333 85.333zM512 789.333c25.6 0 42.667-17.067 42.667-42.667s-17.067-42.667-42.667-42.667-42.667 17.067-42.667 42.667 17.067 42.667 42.667 42.667zM512 85.333c-153.6 0-277.333 123.733-277.333 277.333s123.733 277.333 277.333 277.333 277.333-123.733 277.333-277.333-123.733-277.333-277.333-277.333zM512 584.533c-123.733 0-221.867-98.133-221.867-221.867s98.133-221.867 221.867-221.867 221.867 98.133 221.867 221.867-98.133 221.867-221.867 221.867zM622.933 290.133l-38.4-38.4-72.533 72.533-72.533-72.533-38.4 38.4 72.533 72.533-72.533 72.533 38.4 38.4 72.533-72.533 72.533 72.533 38.4-38.4-72.533-72.533 72.533-72.533zM512 584.533c-123.733 0-221.867-98.133-221.867-221.867s98.133-221.867 221.867-221.867 221.867 98.133 221.867 221.867-98.133 221.867-221.867 221.867zM622.933 290.133l-38.4-38.4-72.533 72.533-72.533-72.533-38.4 38.4 72.533 72.533-72.533 72.533 38.4 38.4 72.533-72.533 72.533 72.533 38.4-38.4-72.533-72.533 72.533-72.533zM512 584.533c-123.733 0-221.867-98.133-221.867-221.867s98.133-221.867 221.867-221.867 221.867 98.133 221.867 221.867-98.133 221.867-221.867 221.867zM622.933 290.133l-38.4-38.4-72.533 72.533-72.533-72.533-38.4 38.4 72.533 72.533-72.533 72.533 38.4 38.4 72.533-72.533 72.533 72.533 38.4-38.4-72.533-72.533 72.533-72.533z" />
<glyph unicode="&#xe96f;" glyph-name="cloud-upload" d="M593.067 405.333v-166.4h-166.4v166.4h-119.467l204.8 209.067 204.8-204.8zM814.933 529.067c-29.867 140.8-153.6 247.467-302.933 247.467-119.467 0-221.867-64-277.333-166.4-123.733-17.067-217.6-119.467-217.6-247.467 0-136.533 110.933-247.467 247.467-247.467h533.333c115.2 0 204.8 89.6 204.8 204.8 4.267 110.933-76.8 200.533-187.733 209.067z" />
</font>
</defs>
</svg>
