<?xml version="1.0" encoding="utf-8"?>
<!-- Generator: Adobe Illustrator 25.2.1, SVG Export Plug-In . SVG Version: 6.00 Build 0)  -->
<svg version="1.1" id="Layer_1" xmlns="http://www.w3.org/2000/svg" xmlns:xlink="http://www.w3.org/1999/xlink" x="0px" y="0px"
	 viewBox="0 0 200 200" style="enable-background:new 0 0 200 200;" xml:space="preserve">
<style type="text/css">
	.st0{opacity:0.3;fill:url(#SVGID_1_);enable-background:new    ;}
	.st1{display:none;fill:url(#SVGID_2_);}
	.st2{fill:url(#SVGID_3_);}
	.st3{fill:url(#SVGID_4_);}
	.st4{fill:url(#SVGID_5_);}
	.st5{fill:#FFFFFF;}
</style>
<linearGradient id="SVGID_1_" gradientUnits="userSpaceOnUse" x1="86.7579" y1="67.2719" x2="123.0531" y2="148.8632">
	<stop  offset="0.2205" style="stop-color:#000000"/>
	<stop  offset="0.8847" style="stop-color:#000000"/>
</linearGradient>
<path class="st0" d="M62.8,165.3c-5.6,0-12-4.3-14.5-9.9l-22.4-54C25,99.2,24.6,97,24.6,95c0.1-6.5,4.2-12.3,10.2-14.8l87.7-36.4
	c1.8-0.8,4-1.2,6.1-1.2c6.2,0,11.8,3.5,14.5,9.1c5.2,0.9,9.6,4.4,11.8,9.2c6.3,1.6,11,6.9,12,13.4l8.5,57.9c0.2,2.1,0.1,4.3-0.3,6.1
	v0.1c-1.6,6.3-7,11-13.3,11.8l-92,14C69.8,163.9,66.9,165.3,62.8,165.3z"/>
<g id="Cards_1_">
	<linearGradient id="SVGID_2_" gradientUnits="userSpaceOnUse" x1="102.444" y1="56.9326" x2="98.2159" y2="154.2441">
		<stop  offset="0" style="stop-color:#FFFFFF;stop-opacity:0"/>
		<stop  offset="1" style="stop-color:#A4A3A3"/>
	</linearGradient>
	<path class="st1" d="M63.4,162.3c-0.2,0-0.3,0-0.5,0c-6-0.2-11.7-4-14-9.6L26.3,97.8c-0.8-2-1.2-4-1.2-6.2v-0.1
		c0.2-6.2,4-11.7,9.9-14.1l88.9-36.9c1.9-0.7,3.9-1.2,5.8-1.2c6.2,0,11.6,3.5,14.2,9.1c5.7,1,10.4,5,12.2,10.5
		c5.4,1.9,9.3,6.7,10.2,12.4l8.6,58.6v0.1c0.2,2.2,0.1,4.2-0.3,6c-1.6,6.1-6.8,10.6-12.8,11.4l-95.4,14.4h-0.1c-0.2,0-0.5,0-0.8,0
		C64.8,162.2,64.1,162.3,63.4,162.3z"/>
	<linearGradient id="SVGID_3_" gradientUnits="userSpaceOnUse" x1="80.0255" y1="154.9424" x2="147.8941" y2="50.3698">
		<stop  offset="0" style="stop-color:#EF7636"/>
		<stop  offset="0.9926" style="stop-color:#FFC066"/>
	</linearGradient>
	<path class="st2" d="M62.7,158.9c-4.5-1.3-7.9-5.2-8.6-9.7l-8.4-57c-0.2-1.6-0.2-3.3,0.2-4.9c1.3-4.6,5.2-8,10-8.6L148.2,65
		c1.5-0.2,3-0.2,4.6,0.2c4.7,1.2,8.2,5,8.9,9.9l8.4,56.8c0.2,1.8,0.1,3.4-0.2,4.7c-1.2,4.6-5.2,8.1-9.8,8.6l-92.5,14.1
		c-1.6,0.2-3.2,0-4.6-0.3C63,158.9,62.8,158.9,62.7,158.9z"/>
	<linearGradient id="SVGID_4_" gradientUnits="userSpaceOnUse" x1="68.8763" y1="154.4189" x2="143.3199" y2="49.0999">
		<stop  offset="0" style="stop-color:#EF4136"/>
		<stop  offset="0.9926" style="stop-color:#FF8736"/>
	</linearGradient>
	<path class="st3" d="M62.3,159.6c-4.6-0.7-8.5-4.2-9.7-8.7L37.7,95.4c-0.5-1.6-0.6-3.2-0.3-4.9c0.7-4.6,4.2-8.5,8.9-9.7l90.1-24.3
		c1.5-0.4,3-0.5,4.6-0.3c4.8,0.6,8.7,4.1,10,8.8l14.9,55.4c0.4,1.8,0.5,3.4,0.3,4.7c-0.7,4.7-4.2,8.6-8.8,9.7l-90.1,24.6
		c-1.5,0.3-3.2,0.4-4.6,0.2C62.5,159.6,62.4,159.6,62.3,159.6z"/>
	
		<linearGradient id="SVGID_5_" gradientUnits="userSpaceOnUse" x1="73.646" y1="46.0693" x2="114.6057" y2="138.1467" gradientTransform="matrix(1 0 0 -1 0 200)">
		<stop  offset="0.2205" style="stop-color:#0047FF"/>
		<stop  offset="0.8847" style="stop-color:#1A7AFF"/>
	</linearGradient>
	<path class="st4" d="M63.6,160.2c-4.6-0.2-8.9-3.1-10.7-7.3l-22-53.1c-0.6-1.5-1-3.1-1-4.8c0.1-4.8,3.1-9,7.5-10.8l86.2-35.8
		c1.4-0.6,3-0.9,4.5-0.9c4.9,0,9.2,2.9,11,7.4l22,53c0.6,1.8,0.9,3.3,0.9,4.6c-0.1,4.8-3,9.1-7.4,10.8l-86,36
		c-1.5,0.5-3.1,0.8-4.5,0.8C63.8,160.2,63.7,160.2,63.6,160.2z"/>
	<path d="M72.5,126.9v-1.6l4.1,0.2c0.7,2.2,0.7,4.2,0.1,6.1c-0.6,1.8-2,3.1-4,4c-2.4,1-4.6,0.8-6.6-0.5s-3.6-3.5-4.9-6.6
		c-1.3-3.2-1.7-5.9-1.1-8.2c0.6-2.3,2-4,4.6-5c3.8-1.6,7.4-0.8,9.8,3.3c0.2,0.3,0,1.6,0,1.6l-3.8,1.9c-1.3-2.9-2.8-4-4.6-3.3
		c-0.9,0.4-1.4,1.1-1.6,2.3c-0.2,1.1,0.3,3.1,1.4,5.8c1,2.4,1.9,4,2.8,4.7s1.8,0.9,2.8,0.5C72.9,131.4,73.3,129.6,72.5,126.9z
		 M77.5,110.2l4.3-1.8l13.7,15.7v1.6l-4.4,1.8l-2.6-3.7L83,126l0.7,2.9v1.6l-4,1.6L77.5,110.2z M86.3,120.9l-5.3-7.3l1.4,8.9
		L86.3,120.9z M89.1,105.4v-1.6l6.2-0.9c1.2-0.5,2.2-0.8,2.8-1c0.7-0.2,1.4-0.1,2.3,0.1s1.6,0.6,2.3,1.4s1.3,1.6,1.7,2.6
		c1,2.5,0.8,4.6-0.6,6.3l7.1,5.5v1.6l-4.7,1.9l-5.8-6.7l-2.2,0.9l3.1,6.2v1.6l-4.3,1.8L89.1,105.4z M94.7,106.9l2.2,5.5l1.9-0.8
		c1.7-0.7,2.2-2,1.4-3.8c-0.2-0.6-0.6-1.1-1-1.4s-0.8-0.5-1.2-0.5c-0.4,0-0.9,0.1-1.5,0.4L94.7,106.9z M105.1,98.9v-1.6l4.6-0.3
		c2-0.8,3.8-1.2,5.3-1.2s2.9,0.6,4.2,1.8c1.4,1.1,2.6,3,3.5,5.4c0.7,1.8,1.1,3.4,1.2,5c0.1,1.5-0.1,2.9-0.5,4s-1,2-1.9,2.6
		c-0.8,0.6-1.9,1.3-3.4,1.8l-5.2,2.1L105.1,98.9z M110.9,100.4l5.4,12.9l0.7-0.3c1-0.4,1.7-0.9,2.1-1.5s0.6-1.4,0.5-2.6
		c-0.1-1.1-0.5-2.6-1.2-4.3c-0.6-1.7-1.4-2.9-2.1-3.7c-0.7-0.7-1.4-1.2-2.1-1.3c-0.6-0.1-1.5,0-2.4,0.4L110.9,100.4z M135.4,91.4
		L135.4,91.4l-3,2.8c-1.2-1.4-2.4-1.8-3.8-1.3c-0.6,0.2-1,0.6-1.3,1.1s-0.2,1-0.1,1.5c0.2,0.6,0.6,0.9,1.2,1
		c0.6,0.2,1.7,0.2,3.3,0.2c1.4-0.1,2.6,0,3.6,0.2c0.9,0.2,1.8,0.6,2.6,1.2s1.4,1.4,1.8,2.5c0.7,1.8,0.7,3.6-0.1,5.3s-2.2,3-4.4,3.8
		c-3.6,1.4-6.6,0.6-9-2.6v-1.6l3.4-1c1.3,1.8,2.7,2.4,4.4,1.7c0.7-0.3,1.3-0.7,1.6-1.4c0.3-0.6,0.3-1.2,0.1-1.8
		c-0.2-0.5-0.6-0.9-1-1.1s-1.4-0.3-2.7-0.3c-1.8,0.1-3,0.1-4-0.1c-0.9-0.2-1.8-0.5-2.6-1.1c-0.8-0.6-1.4-1.4-1.8-2.5
		c-0.7-1.8-0.7-3.4-0.1-5c0.7-1.6,2-2.8,3.8-3.5c2.9-1.3,8.1,0.4,8.1,0.4L135.4,91.4z"/>
	<path class="st5" d="M72.5,125.3l4.1-1.4c0.7,2.2,0.7,4.2,0.1,6.1c-0.6,1.8-2,3.1-4,4c-2.4,1-4.6,0.8-6.6-0.5s-3.6-3.5-4.9-6.6
		c-1.3-3.2-1.7-5.9-1.1-8.2c0.6-2.3,2-4,4.6-5c4.1-1.7,7.3,0,9.8,4.9l-3.8,1.9c-1.3-2.9-2.8-4-4.6-3.3c-0.9,0.4-1.4,1.1-1.6,2.3
		c-0.2,1.1,0.3,3.1,1.4,5.8c1,2.4,1.9,4,2.8,4.7s1.8,0.9,2.8,0.5C72.9,129.8,73.3,128,72.5,125.3z M77.5,108.6l4.3-1.8l13.7,17.3
		l-4.4,1.8l-2.6-3.7l-5.5,2.2l0.7,4.5l-4,1.6L77.5,108.6z M86.3,119.3L81,112l1.4,8.9L86.3,119.3z M89.1,103.8l6.2-2.5
		c1.2-0.5,2.2-0.8,2.8-1c0.7-0.2,1.4-0.1,2.3,0.1s1.6,0.6,2.3,1.4c0.7,0.7,1.3,1.6,1.7,2.6c1,2.5,0.8,4.6-0.6,6.3l7.1,7.1l-4.7,1.9
		l-5.8-6.7l-2.2,0.9l3.1,7.7l-4.3,1.8L89.1,103.8z M94.7,105.3l2.2,5.5l1.9-0.8c1.7-0.7,2.2-2,1.4-3.8c-0.2-0.6-0.6-1.1-1-1.4
		s-0.8-0.5-1.2-0.5c-0.4,0-0.9,0.1-1.5,0.4L94.7,105.3z M105.1,97.3l4.6-1.9c2-0.8,3.8-1.2,5.3-1.2s2.9,0.6,4.2,1.8
		c1.4,1.1,2.6,3,3.5,5.4c0.7,1.8,1.1,3.4,1.2,5c0.1,1.5-0.1,2.9-0.5,4s-1,2-1.9,2.6c-0.8,0.6-1.9,1.3-3.4,1.8l-5.2,2.1L105.1,97.3z
		 M110.8,98.8l5.4,12.9l0.7-0.3c1-0.4,1.7-0.9,2.1-1.5s0.6-1.4,0.5-2.6c-0.1-1.1-0.5-2.6-1.2-4.3c-0.6-1.7-1.4-2.9-2.1-3.7
		c-0.7-0.7-1.4-1.2-2.1-1.3c-0.7-0.1-1.5,0-2.4,0.4L110.8,98.8z M135.4,89.8l-3,2.8c-1.2-1.4-2.4-1.8-3.8-1.3
		c-0.6,0.2-1,0.6-1.3,1.1s-0.2,1-0.1,1.5c0.2,0.6,0.6,0.9,1.2,1s1.7,0.2,3.3,0.2c1.4-0.1,2.6,0,3.6,0.2c0.9,0.2,1.8,0.6,2.6,1.2
		s1.4,1.4,1.8,2.5c0.7,1.8,0.7,3.6-0.1,5.3s-2.2,3-4.4,3.8c-3.6,1.4-6.6,0.6-9-2.6l3.4-2.6c1.3,1.8,2.7,2.4,4.4,1.7
		c0.7-0.3,1.3-0.7,1.6-1.4c0.3-0.6,0.3-1.2,0.1-1.8c-0.2-0.5-0.6-0.9-1-1.1s-1.4-0.3-2.7-0.3c-1.8,0.1-3,0.1-4-0.1
		c-0.9-0.2-1.8-0.5-2.6-1.1c-0.8-0.6-1.4-1.4-1.8-2.5c-0.7-1.8-0.7-3.4-0.1-5c0.7-1.6,2-2.8,3.8-3.5
		C130.6,86.4,133.4,87.1,135.4,89.8z"/>
</g>
<path d="M55.4,114.4l-5-11.9v-1l6.1-1.5c1.3-0.5,2.3-0.6,3.2-0.2c0.8,0.4,1.4,1,1.8,1.8c0.2,0.6,0.3,1.2,0.2,1.8
	c-0.1,0.6-0.5,1.2-1.1,1.6c1.7-0.3,2.9,0.3,3.5,1.8c0.4,0.9,0.4,1.8,0.2,2.7c-0.3,0.9-1.3,1.8-3.1,2.5L55.4,114.4z M55.7,105.6
	l1.7-0.7c0.4-0.2,0.7-0.4,0.8-0.7c0.1-0.3,0.1-0.6,0-0.8c-0.3-0.7-0.8-0.8-1.6-0.5l-1.6,0.7L55.7,105.6z M57.6,110.3l1.8-0.8
	c0.4-0.2,0.7-0.4,0.8-0.7c0.1-0.3,0.1-0.6,0-0.9s-0.3-0.5-0.6-0.6s-0.7-0.1-1.3,0.1l-1.7,0.7L57.6,110.3z M65.5,96.1l5.1,10.8
	l-0.1,1.1l-3.7,1.5l-5-11.9v-1L65.5,96.1z M80.6,100.4l1.2,1.7v1.1l-9.9,4.2l-1.1-2.7l2.6-8.7l-4.9,2.1l-1.2-2.8v-1l9.4-2.9l1,2.3
	l-2.3,9L80.6,100.4z"/>
<path class="st5" d="M55.4,113.4l-5-11.9l6.1-2.5c1.3-0.5,2.3-0.6,3.2-0.2c0.8,0.4,1.4,1,1.8,1.8c0.2,0.6,0.3,1.2,0.2,1.8
	c-0.1,0.6-0.5,1.2-1.1,1.6c1.7-0.3,2.9,0.3,3.5,1.8c0.4,0.9,0.4,1.8,0.2,2.7c-0.3,0.9-1.3,1.8-3.1,2.5L55.4,113.4z M55.7,104.6
	l1.7-0.7c0.4-0.2,0.7-0.4,0.8-0.7c0.1-0.3,0.1-0.6,0-0.8c-0.3-0.7-0.8-0.8-1.6-0.5l-1.6,0.7L55.7,104.6z M57.6,109.3l1.8-0.8
	c0.4-0.2,0.7-0.4,0.8-0.7c0.1-0.3,0.1-0.6,0-0.9s-0.3-0.5-0.6-0.6s-0.7-0.1-1.3,0.1l-1.7,0.7L57.6,109.3z M65.5,95.1l5,11.9
	l-3.7,1.5l-5-11.9L65.5,95.1z M80.6,99.4l1.2,2.8l-9.9,4.2l-1-2.3l2.4-9.1l-4.9,2.1l-1.2-2.8l9.4-3.9l1,2.3l-2.3,9L80.6,99.4z"/>
</svg>
