<?xml version="1.0" encoding="utf-8"?>
<!-- Generator: Adobe Illustrator 25.2.1, SVG Export Plug-In . SVG Version: 6.00 Build 0)  -->
<svg version="1.1" xmlns="http://www.w3.org/2000/svg" xmlns:xlink="http://www.w3.org/1999/xlink" x="0px" y="0px"
	 viewBox="0 0 200 200" style="enable-background:new 0 0 200 200;" xml:space="preserve">
<style type="text/css">
	.st0{display:none;}
	.st1{display:inline;}
	.st2{fill:url(#SVGID_1_);}
	.st3{display:none;fill:url(#SVGID_2_);}
	.st4{fill:url(#SVGID_3_);}
	.st5{fill:url(#SVGID_4_);}
	.st6{fill:#FFFFFF;}
	.st7{opacity:0.3;fill:url(#SVGID_5_);enable-background:new    ;}
	.st8{fill:url(#SVGID_6_);stroke:url(#SVGID_7_);stroke-miterlimit:10;}
	.st9{fill:url(#SVGID_8_);}
	.st10{display:none;fill:url(#SVGID_9_);}
	.st11{fill:url(#SVGID_10_);stroke:url(#SVGID_11_);stroke-miterlimit:10;}
	.st12{fill:url(#SVGID_12_);}
	.st13{fill:url(#SVGID_13_);}
	.st14{fill:url(#SVGID_14_);}
	.st15{fill:url(#SVGID_15_);}
	.st16{fill:url(#SVGID_16_);}
	.st17{fill:url(#SVGID_17_);}
</style>
<g id="Layer_1" class="st0">
	<g id="pdfkit" class="st1">
		<g id="pdf">
			
				<linearGradient id="SVGID_1_" gradientUnits="userSpaceOnUse" x1="86.4953" y1="76.612" x2="140.3673" y2="168.6605" gradientTransform="matrix(1 0 0 -1 0 200)">
				<stop  offset="0.2688" style="stop-color:#FFFFFF"/>
				<stop  offset="1" style="stop-color:#D0D2D3"/>
			</linearGradient>
			<path class="st2" d="M130.7,152.3H71.1c-4.7,0-8.6-3.8-8.6-8.6V53.8c0-4.7,3.8-8.6,8.6-8.6h35.6L139.4,80v63.7
				C139.3,148.4,135.5,152.3,130.7,152.3z"/>
			
				<linearGradient id="SVGID_2_" gradientUnits="userSpaceOnUse" x1="127.9913" y1="146.949" x2="52.302" y2="19.0363" gradientTransform="matrix(1 0 0 -1 0 200)">
				<stop  offset="0.2688" style="stop-color:#FFFFFF"/>
				<stop  offset="1" style="stop-color:#D0D2D3"/>
			</linearGradient>
			<path class="st3" d="M71.1,155.3c-6.4,0-11.6-5.2-11.6-11.6V53.8c0-6.4,5.2-11.6,11.6-11.6H108l34.4,36.6v64.9
				c0,6.4-5.2,11.6-11.6,11.6H71.1z"/>
			
				<linearGradient id="SVGID_3_" gradientUnits="userSpaceOnUse" x1="73.9449" y1="55.1677" x2="122.0206" y2="137.3123" gradientTransform="matrix(1 0 0 -1 0 200)">
				<stop  offset="0.1005" style="stop-color:#1A7AFF"/>
				<stop  offset="0.9008" style="stop-color:#1A1698"/>
			</linearGradient>
			<path class="st4" d="M130.7,152.3H71.1c-4.7,0-8.6-3.8-8.6-8.6V53.8c0-4.7,3.8-8.6,8.6-8.6h35.6L139.4,80v63.7
				C139.3,148.4,135.5,152.3,130.7,152.3z"/>
			
				<linearGradient id="SVGID_4_" gradientUnits="userSpaceOnUse" x1="124.2845" y1="138.5874" x2="107.6141" y2="122.5533" gradientTransform="matrix(1 0 0 -1 0 200)">
				<stop  offset="0.1005" style="stop-color:#1A6CF1"/>
				<stop  offset="0.7893" style="stop-color:#1A24A6"/>
			</linearGradient>
			<path class="st5" d="M106.3,69.6l0.4-24.4L139.4,80l-22.9-0.1C110.8,79.9,106.3,75.3,106.3,69.6z"/>
			<g>
				<path class="st6" d="M79.6,106v6.5h-4.9v-18h6.8c1.7,0,3,0.2,3.9,0.7c0.9,0.4,1.6,1.1,2.1,2s0.8,1.9,0.8,3
					c0,1.7-0.5,3.1-1.6,4.2s-2.5,1.6-4.2,1.6C82.5,106,79.6,106,79.6,106z M79.5,102.1h1.6c1.4,0,2.2-0.6,2.2-1.8
					c0-1.1-0.7-1.7-2-1.7h-1.8C79.5,98.6,79.5,102.1,79.5,102.1z"/>
				<path class="st6" d="M94.7,112.5v-18h6.1c2.7,0,4.7,0.9,6,2.7c1.3,1.8,2,3.9,2,6.2c0,2.7-0.7,4.9-2.1,6.6s-3.3,2.5-5.5,2.5
					C101.2,112.5,94.7,112.5,94.7,112.5z M99.6,108.4h1.3c0.8,0,1.5-0.4,2-1.3c0.6-0.9,0.8-2.1,0.8-3.6c0-1.3-0.2-2.4-0.7-3.4
					c-0.5-0.9-1.2-1.4-2.1-1.4h-1.3C99.6,98.7,99.6,108.4,99.6,108.4z"/>
				<path class="st6" d="M125.6,105.8h-5.2v6.7h-4.8v-18h11.5v4.3h-6.7v2.9h5.2V105.8z"/>
			</g>
			<g>
				<path class="st6" d="M103.1,124.6l1.5-2.5c0.4-0.6,0.7-1.1,1-1.4c0.2-0.3,0.5-0.7,0.9-1c0.6-0.7,1.3-1.1,1.9-1.2
					c0.5-0.1,0.7,0,0.8,0.4c0.1,0.3,0.1,0.5,0,0.8s-0.2,0.6-0.4,0.8c-0.3,0.5-0.9,1.2-1.9,2.1c-0.7,0.7-1.3,1.3-1.6,1.8
					c0.2,0.5,0.4,0.9,0.5,1.2c0.2,0.4,0.3,0.7,0.5,0.9c0.2,0.3,0.4,0.6,0.7,0.9c0.3,0.4,0.7,0.8,1,1.1c0.9,0.8,1.7,1.2,2.4,1.4
					c0.2,0.1,0.4,0.1,0.4,0.2c0,0.2,0,0.4-0.2,0.6c-0.2,0.4-0.5,0.7-0.9,0.9c-0.4,0.3-0.8,0.4-1.2,0.5c-0.8,0.2-1.5,0.1-2.2-0.2
					s-1.3-0.7-1.8-1.4c-0.6-0.7-1-1.7-1.4-2.9c-0.1-0.2-0.1-0.4-0.2-0.7l0,0c-0.2,0.4-0.3,0.8-0.4,1c-0.1,0.3-0.1,0.7-0.3,1.4
					c-0.1,0.8-0.3,1.5-0.4,1.9c-0.2,0.5-0.4,0.9-0.6,1.2s-0.5,0.6-0.8,0.8s-0.6,0.4-0.8,0.5c-0.2,0-0.3,0-0.5-0.1
					c-0.1-0.1-0.2-0.2-0.3-0.4c0-0.1,0-0.2,0-0.3c0-1.3,0.1-2.5,0.2-3.9c0.1-1.3,0.2-2.5,0.3-3.7c0.1-1.2,0.3-2.2,0.4-3
					s0.3-1.4,0.4-1.6c0.2-0.3,0.4-0.5,0.8-0.8c0.4-0.2,0.8-0.4,1.2-0.5c0.4-0.1,0.7-0.1,0.9,0c0.2,0.1,0.3,0.2,0.4,0.5
					s0,1.5-0.3,3.5c0,0.1,0,0.4-0.1,0.7c0,0.3-0.1,0.5-0.1,0.7l0,0L103.1,124.6z"/>
				<path class="st6" d="M114,130.9c-0.3,0-0.6,0-0.9-0.2s-0.5-0.4-0.7-0.7s-0.3-0.6-0.4-1.1c-0.2-1-0.3-2.3-0.2-3.7
					c0.1-1.4,0.3-2.4,0.7-3.1c0.1-0.3,0.4-0.5,0.7-0.5c0.4-0.1,0.7,0,1,0.3s0.5,0.7,0.6,1.2c0.2,0.8,0.3,1.8,0.3,2.9
					s-0.1,2.3-0.2,3.6c-0.1,0.5-0.2,0.9-0.4,1.1C114.4,130.7,114.2,130.8,114,130.9L114,130.9z M113,121.1c-0.6,0.1-1-0.2-1.1-0.9
					c-0.1-0.3-0.1-0.8,0-1.3s0.2-0.9,0.4-1.2c0.1-0.1,0.2-0.3,0.3-0.3c0.1-0.1,0.3-0.1,0.4-0.2c0.3-0.1,0.6,0,0.7,0.1
					c0.2,0.1,0.3,0.4,0.4,0.7c0.1,0.4,0.1,0.9,0,1.3s-0.2,0.8-0.4,1.1C113.6,120.8,113.3,121,113,121.1L113,121.1z"/>
				<path class="st6" d="M119.1,120L119.1,120c0.2-1.4,0.3-2.3,0.5-2.8c0.1-0.3,0.3-0.5,0.5-0.7c0.4-0.4,0.8-0.7,1.3-0.8
					c0.3-0.1,0.5,0,0.6,0c0.2,0.1,0.3,0.2,0.3,0.5c0,0.1,0,0.5-0.1,1c-0.2,0.8-0.3,1.6-0.3,2.3c0.1,0,0.2,0,0.3,0c0.4,0,0.7,0,0.8,0
					s0.2,0.2,0.3,0.4c0.1,0.3,0.1,0.7-0.1,1c-0.1,0.3-0.3,0.6-0.5,0.8c-0.2,0.1-0.5,0.3-1,0.4c0,0.3,0,0.6,0,1.1
					c0,0.4,0.1,0.9,0.2,1.6c0,0.3,0,0.5,0.1,0.7c0.2,1,0.8,1.4,1.8,1.2h0.1l0,0c0.1,0,0.2,0,0.2,0c0,0.1,0,0.3-0.2,0.6
					c-0.2,0.3-0.4,0.6-0.6,0.8c-0.2,0.3-0.5,0.5-0.8,0.7s-0.6,0.3-0.9,0.4c-0.7,0.1-1.3,0-1.8-0.3s-0.9-0.9-1-1.6
					c-0.1-0.3-0.1-0.7-0.1-1.3c0-0.5,0-1.3,0.1-2.2c0-0.2,0-0.3,0-0.5s0-0.3,0-0.3c-0.3,0-0.4,0-0.6,0c-0.1-0.1-0.2-0.2-0.3-0.5
					c-0.1-0.4,0-0.8,0.2-1.2C118.4,120.5,118.8,120.2,119.1,120z"/>
			</g>
		</g>
	</g>
</g>
<g id="Layer_2">
	<g id="pdfkit_1_">
		<g id="pdf_1_">
			<g>
				
					<linearGradient id="SVGID_5_" gradientUnits="userSpaceOnUse" x1="66.702" y1="42.8956" x2="128.2089" y2="147.9897" gradientTransform="matrix(1 0 0 -1 0 200)">
					<stop  offset="2.924409e-02" style="stop-color:#000000"/>
					<stop  offset="1" style="stop-color:#000000"/>
				</linearGradient>
				<path class="st7" d="M70.1,157.2c-6.6,0-12-5.4-12-12V52.3c0-6.6,5.4-12,12-12h38.1l35.5,37.8v67.1c-0.1,6.6-5.6,12-12.1,12
					H70.1z"/>
				
					<linearGradient id="SVGID_6_" gradientUnits="userSpaceOnUse" x1="69.3688" y1="47.3487" x2="125.7353" y2="143.6595" gradientTransform="matrix(1 0 0 -1 0 200)">
					<stop  offset="2.924409e-02" style="stop-color:#FFFFFF"/>
					<stop  offset="0.6457" style="stop-color:#F6F6F6"/>
					<stop  offset="1" style="stop-color:#B4B4B4"/>
				</linearGradient>
				
					<linearGradient id="SVGID_7_" gradientUnits="userSpaceOnUse" x1="69.4474" y1="46.7464" x2="125.8198" y2="144.386" gradientTransform="matrix(1 0 0 -1 0 200)">
					<stop  offset="0.1453" style="stop-color:#B4B4B4"/>
					<stop  offset="0.5451" style="stop-color:#F6F6F6"/>
					<stop  offset="1" style="stop-color:#FFFFFF"/>
				</linearGradient>
				<path class="st8" d="M130.7,152.3H71.1c-4.7,0-8.6-3.8-8.6-8.6V53.8c0-4.7,3.8-8.6,8.6-8.6h35.6L139.4,80v63.7
					C139.3,148.4,135.5,152.3,130.7,152.3z"/>
			</g>
			<linearGradient id="SVGID_8_" gradientUnits="userSpaceOnUse" x1="86.4953" y1="123.388" x2="140.3673" y2="31.3395">
				<stop  offset="0.2688" style="stop-color:#FFFFFF"/>
				<stop  offset="1" style="stop-color:#D0D2D3"/>
			</linearGradient>
			<path class="st9" d="M130.7,152.3H71.1c-4.7,0-8.6-3.8-8.6-8.6V53.8c0-4.7,3.8-8.6,8.6-8.6h35.6L139.4,80v63.7
				C139.3,148.4,135.5,152.3,130.7,152.3z"/>
			<linearGradient id="SVGID_9_" gradientUnits="userSpaceOnUse" x1="127.9913" y1="53.051" x2="52.302" y2="180.9637">
				<stop  offset="0.2688" style="stop-color:#FFFFFF"/>
				<stop  offset="1" style="stop-color:#D0D2D3"/>
			</linearGradient>
			<path class="st10" d="M71.1,155.3c-6.4,0-11.6-5.2-11.6-11.6V53.8c0-6.4,5.2-11.6,11.6-11.6H108l34.4,36.6v64.9
				c0,6.4-5.2,11.6-11.6,11.6H71.1z"/>
			<g>
				
					<linearGradient id="SVGID_10_" gradientUnits="userSpaceOnUse" x1="69.3688" y1="47.3487" x2="125.7353" y2="143.6595" gradientTransform="matrix(1 0 0 -1 0 200)">
					<stop  offset="2.924409e-02" style="stop-color:#FFFFFF"/>
					<stop  offset="0.6457" style="stop-color:#F6F6F6"/>
					<stop  offset="1" style="stop-color:#B4B4B4"/>
				</linearGradient>
				
					<linearGradient id="SVGID_11_" gradientUnits="userSpaceOnUse" x1="69.4474" y1="46.7464" x2="125.8198" y2="144.386" gradientTransform="matrix(1 0 0 -1 0 200)">
					<stop  offset="0.1453" style="stop-color:#B4B4B4"/>
					<stop  offset="0.5451" style="stop-color:#F6F6F6"/>
					<stop  offset="1" style="stop-color:#FFFFFF"/>
				</linearGradient>
				<path class="st11" d="M130.7,152.3H71.1c-4.7,0-8.6-3.8-8.6-8.6V53.8c0-4.7,3.8-8.6,8.6-8.6h35.6L139.4,80v63.7
					C139.3,148.4,135.5,152.3,130.7,152.3z"/>
			</g>
			<linearGradient id="SVGID_12_" gradientUnits="userSpaceOnUse" x1="124.2845" y1="61.4126" x2="107.6141" y2="77.4467">
				<stop  offset="0.2403" style="stop-color:#FFFFFF"/>
				<stop  offset="0.7999" style="stop-color:#B4B4B4"/>
			</linearGradient>
			<path class="st12" d="M106.3,69.6l0.4-24.4L139.4,80l-22.9-0.1C110.8,79.9,106.3,75.3,106.3,69.6z"/>
			<linearGradient id="SVGID_13_" gradientUnits="userSpaceOnUse" x1="93.9203" y1="116.7673" x2="104.2753" y2="92.4706">
				<stop  offset="0.2554" style="stop-color:#FF2200"/>
				<stop  offset="0.7893" style="stop-color:#FF6D00"/>
			</linearGradient>
			<path class="st13" d="M79.6,108v6.5h-4.9v-18h6.8c1.7,0,3,0.2,3.9,0.7c0.9,0.4,1.6,1.1,2.1,2s0.8,1.9,0.8,3
				c0,1.7-0.5,3.1-1.6,4.2s-2.5,1.6-4.2,1.6C82.5,108,79.6,108,79.6,108z M79.5,104.1h1.6c1.4,0,2.2-0.6,2.2-1.8
				c0-1.1-0.7-1.7-2-1.7h-1.8C79.5,100.6,79.5,104.1,79.5,104.1z M94.7,114.5v-18h6.1c2.7,0,4.7,0.9,6,2.7c1.3,1.8,2,3.9,2,6.2
				c0,2.7-0.7,4.9-2.1,6.6s-3.3,2.5-5.5,2.5C101.2,114.5,94.7,114.5,94.7,114.5z M99.6,110.4h1.3c0.8,0,1.5-0.4,2-1.3
				c0.6-0.9,0.8-2.1,0.8-3.6c0-1.3-0.2-2.4-0.7-3.4c-0.5-0.9-1.2-1.4-2.1-1.4h-1.3C99.6,100.7,99.6,110.4,99.6,110.4z M125.6,107.8
				h-5.2v6.7h-4.8v-18h11.5v4.3h-6.7v2.9h5.2V107.8z"/>
			<linearGradient id="SVGID_14_" gradientUnits="userSpaceOnUse" x1="113.8007" y1="130.3526" x2="117.155" y2="118.9238">
				<stop  offset="0" style="stop-color:#00287F"/>
				<stop  offset="1" style="stop-color:#3F5CFF"/>
			</linearGradient>
			<path class="st14" d="M114.4,117.7l-3.1,3.9l4.6,8.5h-4l-2.9-5.5l-0.5,0.6v4.9h-3.6v-12.5h3.6v5.5l4.3-5.5L114.4,117.7
				L114.4,117.7z M116.7,130.2V121c1,0,2.2-0.1,3.3-0.2v9.4C120,130.2,116.7,130.2,116.7,130.2z M118.4,117.4c1,0,1.6,0.4,1.6,1.2
				c0,0.8-0.5,1.2-1.6,1.2c-1,0-1.6-0.4-1.6-1.2S117.3,117.4,118.4,117.4z M126.8,121v1h-1.5v6.5c0,0.4,0.1,0.6,0.4,0.6
				c0.2,0,0.3-0.1,0.3-0.4l0.9,0.1c-0.3,1-1.1,1.4-2.5,1.4c-1.7,0-2.5-0.7-2.5-2.1V122h-1.1v-1h1.1v-1.6c1.2-0.3,2.3-0.8,3.3-1.4v3
				H126.8z"/>
		</g>
		<g>
			<linearGradient id="SVGID_15_" gradientUnits="userSpaceOnUse" x1="75.2" y1="88.8" x2="83.8171" y2="88.8">
				<stop  offset="0.2554" style="stop-color:#FF2200"/>
				<stop  offset="0.7893" style="stop-color:#FF6D00"/>
			</linearGradient>
			<path class="st15" d="M75.2,94V83.6h4.6c2.4,0,3.6,0.8,3.6,2.5c0,1.2-0.7,2-2.2,2.3c1.7,0.4,2.6,1.3,2.6,2.7
				c0,1.9-1.2,2.7-3.5,2.7L75.2,94L75.2,94z M78.2,88.1h1c0.9,0,1.3-0.7,1.3-1.9c0-1.2-0.4-1.8-1.3-1.8h-0.8L78.2,88.1L78.2,88.1z
				 M78.2,93.1h0.9c1.1,0,1.7-0.7,1.7-1.9c0-1.5-0.6-2.2-1.7-2.2h-0.8L78.2,93.1L78.2,93.1z"/>
			<linearGradient id="SVGID_16_" gradientUnits="userSpaceOnUse" x1="85.0057" y1="88.8" x2="88.0514" y2="88.8">
				<stop  offset="0.2554" style="stop-color:#FF2200"/>
				<stop  offset="0.7893" style="stop-color:#FF6D00"/>
			</linearGradient>
			<path class="st16" d="M88.1,83.6V94h-3V83.6H88.1z"/>
			<linearGradient id="SVGID_17_" gradientUnits="userSpaceOnUse" x1="89.0171" y1="88.8" x2="97.3371" y2="88.8">
				<stop  offset="0.2554" style="stop-color:#FF2200"/>
				<stop  offset="0.7893" style="stop-color:#FF6D00"/>
			</linearGradient>
			<path class="st17" d="M97.3,83.6v1l-5,8.4H97v1H89v-1l4.9-8.3h-4.2v-1H97.3z"/>
		</g>
	</g>
</g>
</svg>
