<?xml version="1.0" encoding="utf-8"?>
<!-- Generator: Adobe Illustrator 25.2.1, SVG Export Plug-In . SVG Version: 6.00 Build 0)  -->
<svg version="1.1" id="Layer_1" xmlns="http://www.w3.org/2000/svg" xmlns:xlink="http://www.w3.org/1999/xlink" x="0px" y="0px"
	 viewBox="0 0 200 200" style="enable-background:new 0 0 200 200;" xml:space="preserve">
<style type="text/css">
	.st0{opacity:0.3;fill:#020202;}
	.st1{fill:#FFFFFF;}
	.st2{fill:url(#SVGID_1_);}
	.st3{fill:url(#SVGID_2_);}
	.st4{fill:url(#SVGID_3_);}
	.st5{fill:url(#SVGID_4_);}
	.st6{fill:url(#SVGID_5_);}
	.st7{fill:url(#SVGID_6_);}
	.st8{fill:url(#SVGID_7_);}
	.st9{fill:url(#SVGID_8_);}
	.st10{fill:#1A7AFF;}
</style>
<g id="Digipal">
	<path class="st0" d="M101.8,151.6l-8.7-1.2l-0.6-0.3c-2.4-1.2-2.6-3.2-2.6-4.1v-0.3l0.2-1.2c-0.2-0.1-0.4-0.2-0.6-0.3l-1.1,1
		l-0.4,0.2c-0.6,0.3-1.3,0.5-2,0.5c-1.2,0-2.3-0.5-3.2-1.3l-0.1-0.1l-4.7-5.6l-0.6,0.6l-3.3-1c-0.8,1-1.8,2-2.8,3l0.3,0.8
		c0.5,1.1,0.5,2.3,0,3.4c-0.5,1.1-1.4,2-2.5,2.5l-7.2,3c-0.5,0.2-1.1,0.4-1.7,0.4c-1.9,0-3.5-1.2-4.2-2.9l-0.4-0.9
		c-0.1,0-0.2,0-0.3,0l-0.3,0.9c-0.7,2.2-2.6,3-4.1,3c-0.5,0-1-0.1-1.5-0.2l-7.5-2.6c-2.4-0.8-3.6-3.2-2.8-5.5l0.3-0.9
		c-0.2-0.1-0.4-0.3-0.6-0.5l-1.1,0.6c-0.6,0.3-1.3,0.5-2,0.5c-1.6,0-3.2-0.9-4-2.4l-3.8-7.1c-0.5-1-0.6-2.3-0.2-3.4
		c0.4-1.1,1.1-2,2.1-2.5l1-0.5c-0.1-0.8-0.2-1.6-0.2-2.4l-1.2-0.4L29,124c-2.4-1.2-2.9-3.6-2.3-5.3l2.6-7.9l0.1-0.3
		c1.1-2.3,3.1-2.5,3.9-2.5c0.5,0,0.9,0.1,1.4,0.2l0.9,0.3c0.8-1,1.8-2,2.8-3l-0.3-0.8c-0.5-1.1-0.5-2.3,0-3.4s1.4-2,2.5-2.4l7.1-3
		c0.6-0.2,1.2-0.4,1.8-0.4c1.9,0,3.5,1.1,4.2,2.9l0.4,0.9c0.1,0,0.2,0,0.3,0l0.3-0.9c0.7-2.2,2.6-3,4.1-3c0.5,0,1,0.1,1.5,0.2
		l7.5,2.6c2.4,0.8,3.6,3.2,2.8,5.5l-0.3,0.9c0.2,0.1,0.4,0.3,0.6,0.5l1.1-0.6c0.6-0.3,1.3-0.5,2-0.5c1.6,0,3.2,0.9,4,2.4l2.6,4.8
		c0.4-0.8,0.9-1.6,1.5-2.3l-0.4-0.7c-1.3-1.7-1.2-4.1,0.5-5.8l0.3-0.3l2.7-1.8c-3.1-0.2-5.6-0.9-7.4-2.1c-2.9-1.8-4.5-4.4-4.5-7.5
		c0-0.1,0-0.1,0-0.2H59V62.8c-0.2-0.7-0.4-1.5-0.4-2.5c0-2,0.8-3.8,2.2-5.2s3.2-2.2,5.2-2.2c1.9,0,3.6,0.7,5.1,2l0.1,0.1l0.1,0.1
		c1.4,1.4,2.2,3.2,2.2,5.2c0,0.8-0.1,1.6-0.4,2.4v26.1c0.3-1.4,1.1-3.1,2.8-4.5c-0.1-0.4-0.1-0.8-0.1-1.3s0.1-1.5,0.5-2.5
		c-1.7-1.8-2.5-4-2.5-6.6c0-2.9,1.2-5.5,3.5-7.8l0.1-0.1c2.3-2.1,5.5-3.3,9.2-3.3h15c-0.2-0.7-0.4-1.5-0.4-2.4c0-2,0.8-3.8,2.2-5.2
		c1.4-1.4,3.2-2.2,5.2-2.2c1.9,0,3.6,0.7,5.1,2l0.1,0.1l0.1,0.1c1.4,1.4,2.2,3.2,2.2,5.2c0,0.8-0.1,1.6-0.4,2.4v27.7h-14
		c-0.1,1.5-0.5,3-1.2,4.2c0.1,0,0.2,0,0.3,0h0.3l8.7,1.2l0.6,0.3c2.4,1.2,2.6,3.2,2.6,4.1v0.3l-0.2,1.2c0.2,0.1,0.4,0.2,0.6,0.3
		l1.1-1l0.4-0.2c0.6-0.3,1.3-0.5,2-0.5c1.2,0,2.3,0.5,3.2,1.3l0.1,0.1l5.1,6.1l0,0c0.5,0,1,0.1,1.4,0.2l0.9,0.3c0.8-1,1.8-2,2.8-3
		l-0.3-0.8c-0.5-1.1-0.5-2.3,0-3.4s1.4-2,2.5-2.5l7.2-3c0.5-0.2,1.1-0.4,1.7-0.4c1.9,0,3.5,1.2,4.2,2.9l0.4,0.9c0.1,0,0.2,0,0.3,0
		l0.3-0.9c0.7-2.2,2.6-3,4.1-3c0.5,0,1,0.1,1.5,0.2l7.5,2.6c2.4,0.8,3.6,3.2,2.8,5.5l-0.3,0.9c0.2,0.1,0.4,0.3,0.6,0.5l1.1-0.6
		c0.6-0.3,1.3-0.5,2-0.5c1.6,0,3.2,0.9,4,2.4l3.9,7.1c0.5,1.1,0.6,2.3,0.2,3.4c-0.4,1.1-1.1,2-2.1,2.5l-1,0.5
		c0.1,0.8,0.2,1.6,0.2,2.4l1.2,0.4l0.3,0.1c2.4,1.2,2.9,3.5,2.3,5.3l-2.4,7.3c-0.5,1.9-2.2,3.3-4.4,3.3h-0.6l-1.6-0.5
		c-0.8,1-1.8,2-2.8,3l0.3,0.8c0.5,1.1,0.5,2.3,0,3.4c-0.5,1.1-1.4,2-2.5,2.5l-7.2,2.9c-0.5,0.2-1.1,0.4-1.7,0.4
		c-1.9,0-3.5-1.2-4.2-2.9l-0.4-0.9c-0.1,0-0.2,0-0.3,0l-0.3,0.9c-0.7,2.2-2.6,3-4.1,3c-0.5,0-1-0.1-1.5-0.2l-7.5-2.6
		c-1.5-0.5-2.2-1.5-2.6-2.2c-0.3-0.6-0.7-1.8-0.2-3.4l0.3-0.9c-0.2-0.1-0.4-0.3-0.6-0.5l-1.1,0.6c-0.6,0.3-1.3,0.5-2,0.5
		c-1.7,0-3.2-0.9-4-2.4l-2.1-3.9c-0.2,0.3-0.4,0.6-0.7,1l0.5,0.7c0.6,0.7,0.9,1.6,0.9,2.6c0,0.8-0.2,2.1-1.4,3.2l-0.3,0.3l-6.8,4.5
		c-0.8,0.6-1.7,0.9-2.6,0.9c-0.8,0-2.1-0.2-3.2-1.4l-0.3-0.3l-0.8-1.3c-0.1,0-0.2,0.1-0.4,0.1l-0.2,1.6l-0.3,0.6
		c-1.2,2.4-3.2,2.6-4.1,2.6h0V151.6z M95.8,99.5c0.1,0,0.2-0.1,0.4-0.1l0.1-1c-0.3,0.1-0.6,0.3-0.9,0.4L95.8,99.5z M85.3,88.5
		L85.3,88.5z M99,83.1c1.3,1.3,2.1,2.9,2.5,4.6v-13h-1.3c-0.2,2.3-1.1,4.4-2.7,6.2c-0.2,0.2-0.3,0.4-0.5,0.5
		C97.7,82,98.4,82.5,99,83.1z M40.8,90.8c-3.6,0-6.9-1.4-9.5-4.1c-2.5-2.6-3.7-6-3.7-10.1c0-3.9,1.3-7.4,3.6-10.1
		c2.4-2.7,6-4.2,9.9-4.2c0.4,0,0.7,0,1.1,0v-9h14.3v37.2H43.7C42.7,90.7,41.8,90.8,40.8,90.8z"/>
	<path class="st1" d="M171.9,126.4l-3.5-1.1c-0.2-0.1-0.4-0.3-0.3-0.4c0.2-2.3,0-4.6-0.6-6.8c-0.1-0.2,0-0.4,0.2-0.5l3.3-1.8
		c0.2-0.1,0.3-0.4,0.2-0.6l-3.8-7c-0.1-0.2-0.4-0.3-0.6-0.2l-3.3,1.8c-0.2,0.1-0.4,0.1-0.5-0.1c-1.1-1.3-2.6-2.5-4.1-3.4
		c-0.2-0.1-0.3-0.4-0.2-0.5l1.2-3.4c0.1-0.3,0-0.4-0.3-0.5l-7.5-2.6c-0.3-0.1-0.4,0-0.5,0.3l-1.2,3.4c-0.1,0.2-0.3,0.3-0.4,0.3
		c-1.8-0.2-3.4-0.2-5.1,0.1c-0.2,0-0.4-0.1-0.4-0.3l-1.4-3.4c-0.1-0.3-0.4-0.4-0.6-0.3l-7.3,3c-0.3,0.1-0.4,0.4-0.3,0.6l1.4,3.4
		c0.1,0.2,0,0.4-0.2,0.5c-2.2,1.6-4.1,3.5-5.5,5.9c-0.1,0.2-0.4,0.3-0.5,0.2l-3.5-1.1c-0.3-0.1-0.4,0.1-0.5,0.3l-2.5,7.6
		c-0.1,0.3,0.1,0.4,0.3,0.5l3.5,1.1c0.2,0.1,0.4,0.3,0.3,0.4c-0.2,2.3,0,4.6,0.6,6.8c0.1,0.2,0,0.4-0.2,0.5l-3.3,1.8
		c-0.2,0.1-0.3,0.4-0.2,0.6l3.8,7c0.1,0.2,0.4,0.3,0.6,0.2l3.3-1.8c0.2-0.1,0.4-0.1,0.5,0.1c1.1,1.3,2.6,2.5,4.1,3.4
		c0.2,0.1,0.3,0.4,0.2,0.5l-1.2,3.4c-0.1,0.3,0,0.4,0.3,0.5l7.5,2.6c0.3,0.1,0.4,0,0.5-0.3l1.2-3.4c0.1-0.2,0.3-0.3,0.4-0.3
		c1.8,0.2,3.4,0.2,5.1-0.1c0.2,0,0.4,0.1,0.4,0.3l1.4,3.4c0.1,0.3,0.4,0.4,0.6,0.3l7.3-3c0.3-0.1,0.4-0.4,0.3-0.6l-1.4-3.4
		c-0.1-0.2,0-0.4,0.2-0.5c2.2-1.6,4.1-3.5,5.5-5.9c0.1-0.2,0.4-0.3,0.5-0.2l3.5,1.1c0.2,0,0.5-0.1,0.5-0.3l2.5-7.6
		C172.3,126.6,172.1,126.5,171.9,126.4z M163,128c-2.2,7.1-9.3,11.8-16.7,11c-10-1.1-16.5-10.9-13.5-20.6c2.2-7.1,9.3-11.8,16.7-11
		C159.5,108.5,166,118.3,163,128z M79.7,126.4l-3.5-1.1c-0.2-0.1-0.4-0.3-0.3-0.4c0.2-2.3,0-4.6-0.6-6.8c-0.1-0.2,0-0.4,0.2-0.5
		l3.3-1.8c0.2-0.1,0.3-0.4,0.2-0.6l-3.8-7c-0.1-0.2-0.4-0.3-0.6-0.2l-3.3,1.8c-0.2,0.1-0.4,0.1-0.5-0.1c-1.1-1.3-2.6-2.5-4.1-3.4
		c-0.2-0.1-0.3-0.4-0.2-0.5l1.2-3.4c0.1-0.3,0-0.4-0.3-0.5l-7.5-2.6c-0.3-0.1-0.4,0-0.5,0.3l-1.2,3.4c-0.1,0.2-0.3,0.3-0.4,0.3
		c-1.8-0.2-3.4-0.2-5.1,0.1c-0.2,0-0.4-0.1-0.4-0.3l-1.4-3.4c-0.1-0.3-0.4-0.4-0.6-0.3l-7.2,3.1c-0.3,0.1-0.4,0.4-0.3,0.6l1.4,3.4
		c0.1,0.2,0,0.4-0.2,0.5c-2.2,1.6-4.1,3.5-5.5,5.9c-0.1,0.2-0.4,0.3-0.5,0.2l-3.5-1.1c-0.3-0.1-0.4,0.1-0.5,0.3l-2.5,7.6
		c-0.1,0.3,0.1,0.4,0.3,0.5l3.5,1.1c0.2,0.1,0.4,0.3,0.3,0.4c-0.2,2.3,0,4.6,0.6,6.8c0.1,0.2,0,0.4-0.2,0.5l-3.3,1.8
		c-0.2,0.1-0.3,0.4-0.2,0.6l3.8,7c0.1,0.2,0.4,0.3,0.6,0.2l3.3-1.8c0.2-0.1,0.4-0.1,0.5,0.1c1.1,1.3,2.6,2.5,4.1,3.4
		c0.2,0.1,0.3,0.4,0.2,0.5l-1.2,3.4c-0.1,0.3,0,0.4,0.3,0.5l7.5,2.6c0.3,0.1,0.4,0,0.5-0.3l1.2-3.4c0.1-0.2,0.3-0.3,0.4-0.3
		c1.8,0.2,3.4,0.2,5.1-0.1c0.2,0,0.4,0.1,0.4,0.3l1.4,3.4c0.1,0.3,0.4,0.4,0.6,0.3l7.3-3c0.3-0.1,0.4-0.4,0.3-0.6l-1.4-3.4
		c-0.1-0.2,0-0.4,0.2-0.5c2.2-1.6,4.1-3.5,5.5-5.9c0.1-0.2,0.4-0.3,0.5-0.2l3.5,1.1c0.1-0.1,0.3-0.2,0.4-0.4l2.5-7.6
		C80.1,126.6,79.9,126.5,79.7,126.4z M70.7,128c-2.1,7.1-9.3,11.8-16.7,11c-10-1.1-16.5-10.9-13.5-20.6c2.2-7.1,9.3-11.8,16.7-11
		C67.2,108.5,73.7,118.3,70.7,128z M125.9,129.7l0.9-7.8c0-0.3-0.2-0.4-0.4-0.5l-3.6-0.4c-0.2,0-0.4-0.2-0.4-0.4
		c-0.3-2.3-1-4.5-1.9-6.5c-0.1-0.2-0.1-0.4,0.1-0.5l2.8-2.4c0.2-0.2,0.2-0.4,0.1-0.6l-5.1-6.1c-0.2-0.2-0.4-0.2-0.6-0.1l-2.8,2.4
		c-0.2,0.1-0.4,0.2-0.5,0c-1.4-1.1-3-1.9-4.7-2.6c-0.2-0.1-0.3-0.3-0.3-0.4l0.5-3.6c0-0.3-0.2-0.4-0.4-0.5l-7.8-1.1
		c-0.3,0-0.4,0.2-0.5,0.4l-0.5,3.6c0,0.2-0.2,0.4-0.4,0.4c-1.8,0.2-3.4,0.5-5,1.1c-0.2,0.1-0.4,0-0.5-0.2l-2-3.1
		c-0.2-0.2-0.4-0.3-0.6-0.1l-6.6,4.4c-0.2,0.2-0.3,0.4-0.1,0.6l2,3.1c0.1,0.2,0.1,0.4,0,0.5c-1.9,1.9-3.3,4.3-4.1,6.9
		c-0.1,0.2-0.3,0.4-0.4,0.3l-3.6-0.4c-0.3,0-0.4,0.2-0.5,0.4l-0.9,7.8c0,0.3,0.2,0.4,0.4,0.5l3.6,0.4c0.2,0,0.4,0.2,0.4,0.4
		c0.3,2.3,1,4.5,1.9,6.5c0.1,0.2,0.1,0.4-0.1,0.5l-2.8,2.4c-0.2,0.2-0.2,0.4-0.1,0.6l5.1,6.1c0.2,0.2,0.4,0.2,0.6,0.1l2.8-2.4
		c0.2-0.1,0.4-0.2,0.5,0c1.4,1.1,3,1.9,4.7,2.6c0.2,0.1,0.3,0.3,0.3,0.4l-0.5,3.6c0,0.3,0.2,0.4,0.4,0.5l7.8,1.1
		c0.3,0,0.4-0.2,0.5-0.4l0.5-3.6c0-0.2,0.2-0.4,0.4-0.4c1.8-0.2,3.4-0.5,5-1.1c0.2-0.1,0.4,0,0.5,0.2l2,3.1c0.2,0.2,0.4,0.3,0.6,0.1
		l6.6-4.4c0.2-0.2,0.3-0.4,0.1-0.6l-2-3.1c-0.1-0.2-0.1-0.4,0-0.5c1.9-1.9,3.3-4.3,4.1-6.9c0.1-0.2,0.3-0.4,0.4-0.3l3.6,0.4
		C125.6,130.2,125.9,130,125.9,129.7z M118,124.8c-0.8,7.4-6.8,13.5-14.2,14.2c-10,1-18.4-7.4-17.4-17.4c0.7-7.4,6.7-13.4,14.2-14.2
		C110.6,106.4,119,114.8,118,124.8z M41.8,86.8c2.1,0,3.9-0.6,5.5-1.9v1.6h6.2V57.3h-6.3v10.2c-1.7-0.8-3.3-1.2-5.1-1.2
		c-2.8,0-5.2,1-6.9,2.9s-2.6,4.4-2.6,7.4c0,2.9,0.8,5.4,2.6,7.3C37,85.8,39.2,86.8,41.8,86.8z M40.3,72.2c0.9-1.1,2-1.6,3.6-1.6
		c1.1,0,2.3,0.3,3.4,1.1v9.4c-1.1,1.1-2.4,1.6-3.6,1.7c-1.4,0-2.5-0.6-3.4-1.7c-0.9-1-1.3-2.4-1.3-4.3C39,74.8,39.4,73.3,40.3,72.2z
		 M64.6,62.7c-0.7-0.6-1-1.4-1-2.4s0.4-1.8,1-2.4c0.7-0.7,1.5-1,2.4-1c1,0,1.8,0.4,2.5,1c0.7,0.7,1,1.5,1,2.4c0,1-0.4,1.8-1,2.4
		c-0.7,0.7-1.5,1-2.5,1S65.2,63.3,64.6,62.7z M64,66.7h6.1v19.7H64V66.7z M77.9,90.6c0,1.6,0.8,3,2.6,4.1c1.7,1.1,4.4,1.6,7.8,1.6
		s6-0.6,7.8-1.7c1.7-1.1,2.6-2.8,2.6-4.9c0-1.3-0.5-2.7-1.6-3.8c-1-1.1-3-1.8-5.6-2.1c-2.7-0.3-4.2-0.5-4.6-0.7
		c-0.4-0.3-0.6-0.5-0.6-0.9s0.1-0.7,0.4-0.9c0.3-0.3,1.6-0.4,3.8-0.7c2.2-0.3,3.8-1,5-2.3s1.7-2.7,1.7-4.2c0-1.1-0.4-2.2-1-3.3H99
		v-4.1c0,0-11.5,0-11.4,0c-2.8,0-5,0.8-6.5,2.2c-1.5,1.5-2.3,3.1-2.3,5c0,1.5,0.5,2.9,1.6,4s2.4,1.8,4,2.1c-2.4,0.5-3.6,1.6-3.6,3
		c0,1.3,0.8,2.2,2.4,2.6C79.7,86.5,77.9,88.2,77.9,90.6z M84.1,74.1c0-1,0.4-1.9,1.1-2.6s1.6-1.1,2.6-1.1s1.8,0.4,2.6,1.2
		c0.6,0.6,1,1.4,1,2.4s-0.4,1.9-1.1,2.6s-1.5,1.1-2.5,1.1s-1.9-0.4-2.6-1.1S84.1,75.1,84.1,74.1z M84.6,88.6
		c0.8-0.4,1.9-0.6,3.4-0.6c3.2,0,4.8,0.8,4.8,2.2c0,0.7-0.4,1.3-1.2,1.8c-0.9,0.4-2,0.7-3.3,0.7c-3.3,0-5.1-0.8-4.9-2.4
		C83.4,89.6,83.8,89,84.6,88.6z M107.2,62.7c-0.7-0.6-1-1.4-1-2.4s0.4-1.8,1-2.4c0.7-0.7,1.5-1,2.4-1c1,0,1.8,0.4,2.5,1
		c0.7,0.7,1,1.5,1,2.4c0,1-0.4,1.8-1,2.4c-0.7,0.7-1.5,1-2.5,1S107.8,63.3,107.2,62.7z M106.5,66.7h6.2v19.7h-6.2V66.7z"/>
	<g>
		
			<linearGradient id="SVGID_1_" gradientUnits="userSpaceOnUse" x1="45.9624" y1="142.8938" x2="41.116" y2="111.9399" gradientTransform="matrix(1 0 0 -1 0 200)">
			<stop  offset="0" style="stop-color:#FFFFFF"/>
			<stop  offset="1" style="stop-color:#000000"/>
		</linearGradient>
		<path class="st2" d="M51.7,58.2l1.8,28.3l-1.8,0.9h-6.2v-1.6c-1.6,1.3-3.4,1.9-5.5,1.9c-2.6,0-4.8-1-6.6-2.9s-2.6-4.4-2.6-7.3
			c0-3,0.9-5.5,2.6-7.4c1.8-1.9,4.1-2.9,6.9-2.9c1.8,0,3.4,0.4,5.1,1.2V58.2l1.8-0.9L51.7,58.2z M45.6,82v-9.4
			c-1.1-0.8-2.3-1.1-3.4-1.1c-1.6,0-2.7,0.5-3.6,1.6c-0.9,1.1-1.3,2.6-1.3,4.6c0,1.9,0.4,3.3,1.3,4.3c0.9,1.1,2,1.7,3.4,1.7
			C43.2,83.6,44.4,83,45.6,82z"/>
		
			<linearGradient id="SVGID_2_" gradientUnits="userSpaceOnUse" x1="68.4936" y1="139.3988" x2="64.2952" y2="117.462" gradientTransform="matrix(1 0 0 -1 0 200)">
			<stop  offset="0" style="stop-color:#FFFFFF"/>
			<stop  offset="1" style="stop-color:#000000"/>
		</linearGradient>
		<path class="st3" d="M61.9,61.2c0-1,0.4-1.8,1-2.4c0.7-0.7,2.1-1.7,3-1.7c1,0,1.2,1.1,1.9,1.7c0.7,0.7,1,1.5,1,2.4
			c0,1,0.6,1.4,0,2c-0.7,0.7-2,1.2-3,1.2s-2.3-0.3-2.9-0.9C62.1,62.9,61.9,62.2,61.9,61.2z M68.4,67.6l1.7,18.8l-1.7,0.9h-6.2V67.6
			l1.8-0.9L68.4,67.6z"/>
		
			<linearGradient id="SVGID_3_" gradientUnits="userSpaceOnUse" x1="89.5055" y1="133.6047" x2="84.6744" y2="102.7485" gradientTransform="matrix(1 0 0 -1 0 200)">
			<stop  offset="0" style="stop-color:#FFFFFF"/>
			<stop  offset="1" style="stop-color:#000000"/>
		</linearGradient>
		<path class="st4" d="M97.2,67.6l1.8,3.2l-1.8,0.9h-2.8c0.6,1.1,1,2.2,1,3.3c0,1.5-0.5,2.9-1.7,4.2c-1.1,1.3-2.8,2-5,2.3
			s-3.5,0.4-3.8,0.7c-0.3,0.2-0.4,0.5-0.4,0.9s0.2,0.6,0.6,0.9c0.4,0.2,1.9,0.4,4.6,0.7c2.6,0.3,4.6,1,5.6,2.1
			c1.1,1.1,1.6,2.5,1.6,3.8c0,2.1-0.9,3.8-2.6,4.9c-1.8,1.1-4.4,1.7-7.8,1.7s-6.1-0.5-7.8-1.6c-1.8-1.1-2.6-2.5-2.6-4.1
			c0-2.4,1.8-4.1,5.3-5c-1.6-0.4-2.4-1.3-2.4-2.6c0-1.4,1.2-2.5,3.6-3c-1.6-0.3-2.9-1-4-2.1s-1.6-2.5-1.6-4c0-1.9,0.8-3.5,2.3-5
			c1.5-1.4,3.7-2.2,6.5-2.2C85.7,67.6,97.2,67.6,97.2,67.6z M86.5,93.5c1.3,0,2.4-0.3,3.3-0.7c0.8-0.5,1.2-1.1,1.2-1.8
			c0-1.4-1.6-2.2-4.8-2.2c-1.5,0-2.6,0.2-3.4,0.6s-1.2,1-1.2,1.7C81.4,92.7,83.2,93.5,86.5,93.5z M86,71.3c-1,0-1.9,0.4-2.6,1.1
			S82.3,74,82.3,75s0.4,1.8,1.1,2.5s1.6,1.1,2.6,1.1s1.8-0.4,2.5-1.1s1.1-1.6,1.1-2.6s-0.4-1.8-1-2.4C87.9,71.7,87.1,71.3,86,71.3z"
			/>
		
			<linearGradient id="SVGID_4_" gradientUnits="userSpaceOnUse" x1="111.1017" y1="142.6378" x2="106.3622" y2="112.3671" gradientTransform="matrix(1 0 0 -1 0 200)">
			<stop  offset="0" style="stop-color:#FFFFFF"/>
			<stop  offset="1" style="stop-color:#000000"/>
		</linearGradient>
		<path class="st5" d="M104.4,61.2c0-1,0.4-1.8,1-2.4c0.7-0.7,2.4-1.8,3.3-1.8c1,0,0.9,1.2,1.6,1.8c0.7,0.7,1,1.5,1,2.4
			c0,1,0.9,1.4,0.3,2c-0.7,0.7-2.8,1.4-3.8,1.4s-1.8-0.4-2.4-1C104.7,62.9,104.4,62.2,104.4,61.2z M111,67.6l1.7,18.8l-1.7,0.9h-6.2
			V67.6l1.8-0.9L111,67.6z"/>
	</g>
	<g>
		
			<linearGradient id="SVGID_5_" gradientUnits="userSpaceOnUse" x1="56.0686" y1="86.838" x2="52.8806" y2="66.476" gradientTransform="matrix(1 0 0 -1 0 200)">
			<stop  offset="0" style="stop-color:#FFFFFF"/>
			<stop  offset="1" style="stop-color:#4E87CC"/>
		</linearGradient>
		<path class="st6" d="M48,113.3l0.9-0.8l7.7,0.8c1.9,0,3.5,0.5,4.7,1.7c1.1,1.1,1.8,2.5,1.8,4.1s-0.5,3-1.7,4.1
			c-1.1,1.1-2.7,1.8-4.7,1.8h-3.9l0.9,7l-0.9,0.8H48C48,132.7,48,113.3,48,113.3z M52.9,117v4.5h2.3c2,0,3-0.8,3-2.3
			c0-0.9-0.3-1.4-0.8-1.8s-1.4-0.5-2.7-0.5L52.9,117L52.9,117z"/>
	</g>
	<g>
		
			<linearGradient id="SVGID_6_" gradientUnits="userSpaceOnUse" x1="105.7" y1="86.5412" x2="102.4048" y2="65.495" gradientTransform="matrix(1 0 0 -1 0 200)">
			<stop  offset="0" style="stop-color:#FFFFFF"/>
			<stop  offset="1" style="stop-color:#4D86CB"/>
		</linearGradient>
		<path class="st7" d="M104.7,113.3l9.5,18.6l-0.9,0.8h-5.2l-1.6-3.8h-8.7l-0.5,3l-0.9,0.8h-5.1l7.8-19.4l0.9-0.8L104.7,113.3z
			 M105.1,125.5l-3.2-7.6l-2.8,7.6H105.1z"/>
	</g>
	<linearGradient id="SVGID_7_" gradientUnits="userSpaceOnUse" x1="106.4395" y1="85.3868" x2="92.4124" y2="174.9783">
		<stop  offset="0" style="stop-color:#FFFFFF"/>
		<stop  offset="1" style="stop-color:#115EBA"/>
	</linearGradient>
	<path class="st8" d="M125.7,130l-0.5-6.7c0-0.3-0.2-0.4-0.4-0.5l-3.6-0.4c-0.2,0-0.4-0.2-0.4-0.4c-0.3-2.3-1-4.5-1.9-6.5
		c-0.1-0.2-0.1-0.4,0.1-0.5l2.8-2.4c0.2-0.2,0.2-0.4,0.1-0.6l-5.1-6.1c-0.2-0.2-0.4-0.2-0.6-0.1l-2.8,2.4c-0.2,0.1-0.4,0.2-0.5,0
		c-1.4-1.1-3-1.9-4.7-2.6c-0.2-0.1-0.3-0.3-0.3-0.4l0.5-3.6c0-0.3-0.2-0.4-0.4-0.5l-6.5-2.4c0,0-1.7,1.5-1.8,1.7l-0.5,3.6
		c0,0.2-0.2,0.4-0.4,0.4c-1.8,0.2-3.4,0.5-5,1.1c-0.2,0.1-0.4,0-0.5-0.2l-2-3.1c-0.2-0.2-0.4-0.3-0.6-0.1l-5.1,3.1l-1.5,1.3
		c-0.2,0.2-0.3,0.4-0.1,0.6l2,3.1c0.1,0.2,0.1,0.4,0,0.5c-1.9,1.9-3.3,4.3-4.1,6.9c-0.1,0.2-0.3,0.4-0.4,0.3l-2.2-1.7
		c0,0-1.8,1.5-1.9,1.7l-0.9,7.8c0,0.3,0.2,0.4,0.4,0.5l3.6,0.4c0.2,0,0.4,0.2,0.4,0.4c0.3,2.3,1,4.5,1.9,6.5
		c0.1,0.2,0.1,0.4-0.1,0.5l-2.8,2.4c-0.2,0.2-0.2,0.4-0.1,0.6l5.1,6.1c0.2,0.2,0.4,0.2,0.6,0.1l2.8-2.4c0.2-0.1,0.4-0.2,0.5,0
		c1.4,1.1,3,1.9,4.7,2.6c0.2,0.1,0.3,0.3,0.3,0.4l-0.5,3.6c0,0.3,0.2,0.4,0.4,0.5l7.8,1.1c0.3,0,2-1.6,2-1.6l-1-2.4
		c0-0.2,0.2-0.4,0.4-0.4c1.8-0.2,3.4-0.5,5-1.1c0.2-0.1,0.4,0,0.5,0.2l2,3.1c0.2,0.2,0.4,0.3,0.6,0.1l6.6-4.4
		c0.2-0.2,1.9-1.3,1.8-1.7l-3.7-2c-0.1-0.2-0.1-0.4,0-0.5c1.9-1.9,3.3-4.3,4.1-6.9c0.1-0.2,0.3-0.4,0.4-0.3l3.6,0.4
		C124,131.5,125.7,130,125.7,130z M102.2,140.3c-10,1-18.4-7.4-17.4-17.4c0.7-7.4,6.7-13.4,14.2-14.2c10-1,18.4,7.4,17.4,17.4
		C115.6,133.6,109.6,139.6,102.2,140.3z M169.6,134.7l1.1-6.5c0.1-0.3-0.1-0.4-0.3-0.5l-3.5-1.1c-0.2-0.1-0.4-0.3-0.3-0.4
		c0.2-2.3,0-4.6-0.6-6.8c-0.1-0.2,0-0.4,0.2-0.5l3.3-1.8c0.2-0.1,1.8-1.4,1.7-1.6l-5.3-6c-0.1-0.2-0.4-0.3-0.6-0.2l-3.3,1.8
		c-0.2,0.1-0.4,0.1-0.5-0.1c-1.1-1.3-2.6-2.5-4.1-3.4c-0.2-0.1-0.3-0.4-0.2-0.5l1.2-3.4c0.1-0.3,0-0.4-0.3-0.5l-6.4-3.9
		c0,0-1.5,1.3-1.6,1.6l-1.2,3.4c-0.1,0.2-0.3,0.3-0.4,0.3c-1.8-0.2-3.4-0.2-5.1,0.1c-0.2,0-0.4-0.1-0.4-0.3l-1.4-3.4
		c-0.1-0.3-0.4-0.4-0.6-0.3l-6,1.8l-1.3,1.2c-0.3,0.1-0.4,0.4-0.3,0.6l1.4,3.4c0.1,0.2,0,0.4-0.2,0.5c-2.2,1.6-4.1,3.5-5.5,5.9
		c-0.1,0.2-0.4,0.3-0.5,0.2l-2.2-2.4c0,0-1.8,1.2-1.9,1.4l-2.5,7.6c-0.1,0.3,0.1,0.4,0.3,0.5l3.5,1.1c0.2,0.1,0.4,0.3,0.3,0.4
		c-0.2,2.3,0,4.6,0.6,6.8c0.1,0.2,0,0.4-0.2,0.5l-1.8,0.8l-1.5,1c-0.2,0.1-0.3,0.4-0.2,0.6l3.8,7c0.1,0.2,0.4,0.3,0.6,0.2l3.3-1.8
		c0.2-0.1,0.4-0.1,0.5,0.1c1.1,1.3,2.6,2.5,4.1,3.4c0.2,0.1,0.3,0.4,0.2,0.5l-1.2,3.4c-0.1,0.3,0,0.4,0.3,0.5l7.5,2.6
		c0.3,0.1,1.9-1.1,1.9-1.1l-0.2-2.6c0.1-0.2,0.3-0.3,0.4-0.3c1.8,0.2,3.4,0.2,5.1-0.1c0.2,0,0.4,0.1,0.4,0.3l1.4,3.4
		c0.1,0.3,0.4,0.4,0.6,0.3l7.3-3c0.3-0.1,1.9-1.1,1.9-1.4l-3-2.6c-0.1-0.2,0-0.4,0.2-0.5c2.2-1.6,4.1-3.5,5.5-5.9
		c0.1-0.2,0.4-0.3,0.5-0.2l3.5,1.1C168,136.1,169.6,134.7,169.6,134.7z M144.7,140.3c-10-1.1-16.5-10.9-13.5-20.6
		c2.2-7.1,9.3-11.8,16.7-11c10,1.1,16.5,10.9,13.5,20.6C159.3,136.4,152.1,141.1,144.7,140.3z M77.3,134.7l1.1-6.5
		c0.1-0.3-0.1-0.4-0.3-0.5l-3.5-1.1c-0.2-0.1-0.4-0.3-0.3-0.4c0.2-2.3,0-4.6-0.6-6.8c-0.1-0.2,0-0.4,0.2-0.5l3.3-1.8
		c0.2-0.1,1.7-1.4,1.7-1.4l-5.3-6.2c-0.1-0.2-0.4-0.3-0.6-0.2l-3.3,1.8c-0.2,0.1-0.4,0.1-0.5-0.1c-1.1-1.3-2.6-2.5-4.1-3.4
		c-0.2-0.1-0.3-0.4-0.2-0.5l1.2-3.4c0.1-0.3,0-0.4-0.3-0.5l-6.2-3.9c0,0-1.7,1.3-1.8,1.6l-1.2,3.4c-0.1,0.2-0.3,0.3-0.4,0.3
		c-1.8-0.2-3.4-0.2-5.1,0.1c-0.2,0-0.4-0.1-0.4-0.3l-1.4-3.4c-0.1-0.3-0.4-0.4-0.6-0.3l-5.7,1.8l-1.6,1.2c-0.3,0.1-0.4,0.4-0.3,0.6
		l1.4,3.4c0.1,0.2,0,0.4-0.2,0.5c-2.2,1.6-4.1,3.5-5.5,5.9c-0.1,0.2-0.4,0.3-0.5,0.2l-2.1-2.3c0,0-1.2,0.9-1.7,1.3
		c-0.1,0.1-0.2,0.2-0.2,0.3l-2.4,7.4c-0.1,0.3,0.1,0.4,0.3,0.5l3.5,1.1c0.2,0.1,0.4,0.3,0.3,0.4c-0.2,2.3,0,4.6,0.6,6.8
		c0.1,0.2,0,0.4-0.2,0.5l-1.6,0.6l-1.7,1.2c-0.2,0.1-0.3,0.4-0.2,0.6l3.8,7c0.1,0.2,0.4,0.3,0.6,0.2l3.3-1.8
		c0.2-0.1,0.4-0.1,0.5,0.1c1.1,1.3,2.6,2.5,4.1,3.4c0.2,0.1,0.3,0.4,0.2,0.5l-1.2,3.4c-0.1,0.3,0,0.4,0.3,0.5l7.5,2.6
		c0.3,0.1,2.1-1.2,2.1-1.2l-0.2-2.5c-0.1-0.2,0.1-0.3,0.2-0.3c1.8,0.2,3.4,0.2,5.1-0.1c0.2,0,0.4,0.1,0.4,0.3l1.4,3.4
		c0.1,0.3,0.4,0.4,0.6,0.3l7.3-3c0.3-0.1,2.1-1.3,2-1.5l-3.1-2.5c-0.1-0.2,0-0.4,0.2-0.5c2.2-1.6,4.1-3.5,5.5-5.9
		c0.1-0.2,0.4-0.3,0.5-0.2l3.5,1.1C75.6,136.2,77.3,134.7,77.3,134.7z M52.4,140.3c-10-1.1-16.5-10.9-13.5-20.6
		c2.2-7.1,9.3-11.8,16.7-11c10,1.1,16.5,10.9,13.5,20.6C67,136.4,59.8,141.1,52.4,140.3z"/>
	<g>
		
			<linearGradient id="SVGID_8_" gradientUnits="userSpaceOnUse" x1="150.9258" y1="86.2376" x2="147.8021" y2="66.2858" gradientTransform="matrix(1 0 0 -1 0 200)">
			<stop  offset="0" style="stop-color:#FFFFFF"/>
			<stop  offset="1" style="stop-color:#6899D3"/>
		</linearGradient>
		<path class="st9" d="M156.5,129.2l0.9,2.6l-0.9,0.9h-14.8v-19.4l0.9-0.9l3.9,0.9v15.9H156.5z"/>
	</g>
	<path class="st10" d="M125.9,129.7l0.9-7.8c0-0.3-0.2-0.4-0.4-0.5l-3.6-0.4c-0.2,0-0.4-0.2-0.4-0.4c-0.3-2.3-1-4.5-1.9-6.5
		c-0.1-0.2-0.1-0.4,0.1-0.5l2.8-2.4c0.2-0.2,0.2-0.4,0.1-0.6l-5.1-6.1c-0.2-0.2-0.4-0.2-0.6-0.1l-2.8,2.4c-0.2,0.1-0.4,0.2-0.5,0
		c-1.4-1.1-3-1.9-4.7-2.6c-0.2-0.1-0.3-0.3-0.3-0.4l0.5-3.6c0-0.3-0.2-0.4-0.4-0.5l-7.8-1.1c-0.3,0-0.4,0.2-0.5,0.4l-0.5,3.6
		c0,0.2-0.2,0.4-0.4,0.4c-1.8,0.2-3.4,0.5-5,1.1c-0.2,0.1-0.4,0-0.5-0.2l-2-3.1c-0.2-0.2-0.4-0.3-0.6-0.1l-6.6,4.4
		c-0.2,0.2-0.3,0.4-0.1,0.6l2,3.1c0.1,0.2,0.1,0.4,0,0.5c-1.9,1.9-3.3,4.3-4.1,6.9c-0.1,0.2-0.3,0.4-0.4,0.3l-3.6-0.4
		c-0.3,0-0.4,0.2-0.5,0.4l-0.9,7.8c0,0.3,0.2,0.4,0.4,0.5l3.6,0.4c0.2,0,0.4,0.2,0.4,0.4c0.3,2.3,1,4.5,1.9,6.5
		c0.1,0.2,0.1,0.4-0.1,0.5l-2.8,2.4c-0.2,0.2-0.2,0.4-0.1,0.6l5.1,6.1c0.2,0.2,0.4,0.2,0.6,0.1l2.8-2.4c0.2-0.1,0.4-0.2,0.5,0
		c1.4,1.1,3,1.9,4.7,2.6c0.2,0.1,0.3,0.3,0.3,0.4l-0.5,3.6c0,0.3,0.2,0.4,0.4,0.5l7.8,1.1c0.3,0,0.4-0.2,0.5-0.4l0.5-3.6
		c0-0.2,0.2-0.4,0.4-0.4c1.8-0.2,3.4-0.5,5-1.1c0.2-0.1,0.4,0,0.5,0.2l2,3.1c0.2,0.2,0.4,0.3,0.6,0.1l6.6-4.4
		c0.2-0.2,0.3-0.4,0.1-0.6l-2-3.1c-0.1-0.2-0.1-0.4,0-0.5c1.9-1.9,3.3-4.3,4.1-6.9c0.1-0.2,0.3-0.4,0.4-0.3l3.6,0.4
		C125.6,130.2,125.9,130,125.9,129.7z M103.8,139c-10,1-18.4-7.4-17.4-17.4c0.7-7.4,6.7-13.4,14.2-14.2c10-1,18.4,7.4,17.4,17.4
		C117.2,132.2,111.2,138.3,103.8,139z M169.7,134.5l2.5-7.6c0.1-0.3-0.1-0.4-0.3-0.5l-3.5-1.1c-0.2-0.1-0.4-0.3-0.3-0.4
		c0.2-2.3,0-4.6-0.6-6.8c-0.1-0.2,0-0.4,0.2-0.5l3.3-1.8c0.2-0.1,0.3-0.4,0.2-0.6l-3.8-7c-0.1-0.2-0.4-0.3-0.6-0.2l-3.3,1.8
		c-0.2,0.1-0.4,0.1-0.5-0.1c-1.1-1.3-2.6-2.5-4.1-3.4c-0.2-0.1-0.3-0.4-0.2-0.5l1.2-3.4c0.1-0.3,0-0.4-0.3-0.5l-7.5-2.6
		c-0.3-0.1-0.4,0-0.5,0.3l-1.2,3.4c-0.1,0.2-0.3,0.3-0.4,0.3c-1.8-0.2-3.4-0.2-5.1,0.1c-0.2,0-0.4-0.1-0.4-0.3l-1.4-3.4
		c-0.1-0.3-0.4-0.4-0.6-0.3l-7.3,3c-0.3,0.1-0.4,0.4-0.3,0.6l1.4,3.4c0.1,0.2,0,0.4-0.2,0.5c-2.2,1.6-4.1,3.5-5.5,5.9
		c-0.1,0.2-0.4,0.3-0.5,0.2l-3.5-1.1c-0.3-0.1-0.4,0.1-0.5,0.3l-2.5,7.6c-0.1,0.3,0.1,0.4,0.3,0.5l3.5,1.1c0.2,0.1,0.4,0.3,0.3,0.4
		c-0.2,2.3,0,4.6,0.6,6.8c0.1,0.2,0,0.4-0.2,0.5l-3.3,1.8c-0.2,0.1-0.3,0.4-0.2,0.6l3.8,7c0.1,0.2,0.4,0.3,0.6,0.2l3.3-1.8
		c0.2-0.1,0.4-0.1,0.5,0.1c1.1,1.3,2.6,2.5,4.1,3.4c0.2,0.1,0.3,0.4,0.2,0.5l-1.2,3.4c-0.1,0.3,0,0.4,0.3,0.5l7.5,2.6
		c0.3,0.1,0.4,0,0.5-0.3l1.2-3.4c0.1-0.2,0.3-0.3,0.4-0.3c1.8,0.2,3.4,0.2,5.1-0.1c0.2,0,0.4,0.1,0.4,0.3l1.4,3.4
		c0.1,0.3,0.4,0.4,0.6,0.3l7.3-3c0.3-0.1,0.4-0.4,0.3-0.6l-1.4-3.4c-0.1-0.2,0-0.4,0.2-0.5c2.2-1.6,4.1-3.5,5.5-5.9
		c0.1-0.2,0.4-0.3,0.5-0.2l3.5,1.1C169.4,134.8,169.7,134.7,169.7,134.5z M146.3,139c-10-1.1-16.5-10.9-13.5-20.6
		c2.2-7.1,9.3-11.8,16.7-11c10,1.1,16.5,10.9,13.5,20.6C160.8,135.1,153.7,139.8,146.3,139z M77.5,134.5l2.5-7.6
		c0.1-0.3-0.1-0.4-0.3-0.5l-3.5-1.1c-0.2-0.1-0.4-0.3-0.3-0.4c0.2-2.3,0-4.6-0.6-6.8c-0.1-0.2,0-0.4,0.2-0.5l3.3-1.8
		c0.2-0.1,0.3-0.4,0.2-0.6l-3.8-7c-0.1-0.2-0.4-0.3-0.6-0.2l-3.3,1.8c-0.2,0.1-0.4,0.1-0.5-0.1c-1.1-1.3-2.6-2.5-4.1-3.4
		c-0.2-0.1-0.3-0.4-0.2-0.5l1.2-3.4c0.1-0.3,0-0.4-0.3-0.5l-7.5-2.6c-0.3-0.1-0.4,0-0.5,0.3l-1.2,3.4c-0.1,0.2-0.3,0.3-0.4,0.3
		c-1.8-0.2-3.4-0.2-5.1,0.1c-0.2,0-0.4-0.1-0.4-0.3l-1.4-3.4c-0.1-0.3-0.4-0.4-0.6-0.3l-7.2,3.1c-0.3,0.1-0.4,0.4-0.3,0.6l1.4,3.4
		c0.1,0.2,0,0.4-0.2,0.5c-2.2,1.6-4.1,3.5-5.5,5.9c-0.1,0.2-0.4,0.3-0.5,0.2l-3.5-1.1c-0.3-0.1-0.4,0.1-0.5,0.3l-2.5,7.6
		c-0.1,0.3,0.1,0.4,0.3,0.5l3.5,1.1c0.2,0.1,0.4,0.3,0.3,0.4c-0.2,2.3,0,4.6,0.6,6.8c0.1,0.2,0,0.4-0.2,0.5l-3.3,1.8
		c-0.2,0.1-0.3,0.4-0.2,0.6l3.8,7c0.1,0.2,0.4,0.3,0.6,0.2l3.3-1.8c0.2-0.1,0.4-0.1,0.5,0.1c1.1,1.3,2.6,2.5,4.1,3.4
		c0.2,0.1,0.3,0.4,0.2,0.5l-1.2,3.4c-0.1,0.3,0,0.4,0.3,0.5l7.5,2.6c0.3,0.1,0.4,0,0.5-0.3l1.2-3.4c0.1-0.2,0.3-0.3,0.4-0.3
		c1.8,0.2,3.4,0.2,5.1-0.1c0.2,0,0.4,0.1,0.4,0.3l1.4,3.4c0.1,0.3,0.4,0.4,0.6,0.3l7.3-3c0.3-0.1,0.4-0.4,0.3-0.6l-1.4-3.4
		c-0.1-0.2,0-0.4,0.2-0.5c2.2-1.6,4.1-3.5,5.5-5.9c0.1-0.2,0.4-0.3,0.5-0.2l3.5,1.1C77.2,134.8,77.4,134.7,77.5,134.5z M54,139
		c-10-1.1-16.5-10.9-13.5-20.6c2.2-7.1,9.3-11.8,16.7-11c10,1.1,16.5,10.9,13.5,20.6C68.6,135.1,61.4,139.8,54,139z"/>
	<g>
		<path class="st1" d="M53.5,57.3v29.2h-6.2v-1.6c-1.6,1.3-3.4,1.9-5.5,1.9c-2.6,0-4.8-1-6.6-2.9s-2.6-4.4-2.6-7.3
			c0-3,0.9-5.5,2.6-7.4s4.1-2.9,6.9-2.9c1.8,0,3.4,0.4,5.1,1.2V57.3H53.5z M47.3,81.1v-9.4c-1.1-0.8-2.3-1.1-3.4-1.1
			c-1.6,0-2.7,0.5-3.6,1.6S39,74.8,39,76.8c0,1.9,0.4,3.3,1.3,4.3c0.9,1.1,2,1.7,3.4,1.7C44.9,82.7,46.2,82.2,47.3,81.1z"/>
		<path class="st1" d="M63.6,60.3c0-1,0.4-1.8,1-2.4c0.7-0.7,1.5-1,2.4-1c1,0,1.8,0.4,2.5,1c0.7,0.7,1,1.5,1,2.4c0,1-0.4,1.8-1,2.4
			c-0.7,0.7-1.5,1-2.5,1s-1.8-0.4-2.4-1C63.9,62.1,63.6,61.3,63.6,60.3z M70.1,66.7v19.7H64V66.7H70.1z"/>
		<path class="st1" d="M99,66.7v4.1h-2.8c0.6,1.1,1,2.2,1,3.3c0,1.5-0.5,2.9-1.7,4.2s-2.8,2-5,2.3S87,81,86.7,81.3
			c-0.3,0.2-0.4,0.5-0.4,0.9s0.2,0.6,0.6,0.9c0.4,0.2,1.9,0.4,4.6,0.7c2.6,0.3,4.6,1,5.6,2.1c1.1,1.1,1.6,2.5,1.6,3.8
			c0,2.1-0.9,3.8-2.6,4.9c-1.8,1.1-4.4,1.7-7.8,1.7s-6.1-0.5-7.8-1.6c-1.8-1.1-2.6-2.5-2.6-4.1c0-2.4,1.8-4.1,5.3-5
			c-1.6-0.4-2.4-1.3-2.4-2.6c0-1.4,1.2-2.5,3.6-3c-1.6-0.3-2.9-1-4-2.1s-1.6-2.5-1.6-4c0-1.9,0.8-3.5,2.3-5c1.5-1.4,3.7-2.2,6.5-2.2
			C87.5,66.7,99,66.7,99,66.7z M88.3,92.7c1.3,0,2.4-0.3,3.3-0.7c0.8-0.5,1.2-1.1,1.2-1.8c0-1.4-1.6-2.2-4.8-2.2
			c-1.5,0-2.6,0.2-3.4,0.6s-1.2,1-1.2,1.7C83.2,91.9,85,92.7,88.3,92.7z M87.8,70.4c-1,0-1.9,0.4-2.6,1.1s-1.1,1.6-1.1,2.6
			s0.4,1.8,1.1,2.5s1.6,1.1,2.6,1.1s1.8-0.4,2.5-1.1s1.1-1.6,1.1-2.6s-0.4-1.8-1-2.4C89.6,70.8,88.8,70.4,87.8,70.4z"/>
		<path class="st1" d="M106.2,60.3c0-1,0.4-1.8,1-2.4c0.7-0.7,1.5-1,2.4-1c1,0,1.8,0.4,2.5,1c0.7,0.7,1,1.5,1,2.4c0,1-0.4,1.8-1,2.4
			c-0.7,0.7-1.5,1-2.5,1s-1.8-0.4-2.4-1C106.5,62.1,106.2,61.3,106.2,60.3z M112.7,66.7v19.7h-6.2V66.7H112.7z"/>
	</g>
	<g>
		<path class="st10" d="M48.9,112.5h8.6c1.9,0,3.5,0.5,4.7,1.7c1.1,1.1,1.8,2.5,1.8,4.1s-0.5,3-1.7,4.1c-1.1,1.1-2.7,1.8-4.7,1.8
			h-3.9v7.8h-4.8C48.9,131.8,48.9,112.5,48.9,112.5z M53.7,116.1v4.5H56c2,0,3-0.8,3-2.3c0-0.9-0.3-1.4-0.8-1.8s-1.4-0.5-2.7-0.5
			L53.7,116.1L53.7,116.1z"/>
	</g>
	<g>
		<path class="st10" d="M105.6,112.5l8.6,19.4H109l-1.6-3.8h-8.7l-1.4,3.8h-5.1l7.8-19.4C100,112.5,105.6,112.5,105.6,112.5z
			 M106,124.6l-3.2-7.6l-2.8,7.6H106z"/>
	</g>
	<g>
		<path class="st10" d="M157.4,128.3v3.5h-14.8v-19.4h4.8v15.9H157.4z"/>
	</g>
</g>
</svg>
