<?xml version="1.0" encoding="UTF-8"?>
<svg id="Layer_1" xmlns="http://www.w3.org/2000/svg" version="1.1" xmlns:xlink="http://www.w3.org/1999/xlink" viewBox="0 0 200 200">
  <!-- Generator: Adobe Illustrator 29.0.1, SVG Export Plug-In . SVG Version: 2.1.0 Build 192)  -->
  <defs>
    <style>
      .st0 {
        fill: url(#linear-gradient2);
      }

      .st1 {
        fill: #a2a2a3;
      }

      .st2 {
        fill: url(#linear-gradient36);
      }

      .st3 {
        fill: url(#linear-gradient39);
      }

      .st4 {
        fill: url(#linear-gradient34);
      }

      .st5 {
        fill: url(#linear-gradient58);
      }

      .st6 {
        fill: url(#linear-gradient33);
      }

      .st7 {
        fill: url(#linear-gradient10);
      }

      .st8 {
        fill: url(#linear-gradient63);
      }

      .st9 {
        fill: url(#linear-gradient71);
      }

      .st10 {
        fill: url(#linear-gradient32);
      }

      .st11 {
        fill: url(#linear-gradient21);
      }

      .st12 {
        fill: url(#linear-gradient37);
      }

      .st13 {
        fill: url(#linear-gradient56);
      }

      .st14 {
        fill: url(#linear-gradient27);
      }

      .st15 {
        fill: url(#linear-gradient53);
      }

      .st16 {
        fill: #3550a2;
      }

      .st17 {
        fill: url(#linear-gradient57);
      }

      .st18 {
        fill: #020202;
      }

      .st19 {
        fill: #08f9ba;
      }

      .st20 {
        fill: url(#linear-gradient35);
      }

      .st21 {
        font-family: Microsoft-Himalaya, 'Microsoft Himalaya';
        font-size: 73.2px;
      }

      .st21, .st22, .st23 {
        fill: #fff;
      }

      .st21, .st23, .st24 {
        isolation: isolate;
      }

      .st25 {
        fill: url(#linear-gradient26);
      }

      .st26 {
        fill: #ff8939;
      }

      .st27 {
        fill: url(#linear-gradient1);
      }

      .st28 {
        fill: url(#linear-gradient18);
      }

      .st28, .st29 {
        display: none;
      }

      .st30 {
        fill: url(#linear-gradient9);
      }

      .st31 {
        fill: url(#linear-gradient61);
      }

      .st32 {
        fill: url(#linear-gradient23);
      }

      .st33 {
        fill: #092b3b;
      }

      .st34 {
        fill: url(#linear-gradient43);
      }

      .st35 {
        fill: url(#linear-gradient69);
      }

      .st36 {
        fill: url(#linear-gradient8);
      }

      .st37 {
        fill: url(#linear-gradient11);
      }

      .st38 {
        fill: none;
        stroke: #f0e4d8;
        stroke-miterlimit: 10;
        stroke-width: 2px;
      }

      .st39 {
        fill: url(#linear-gradient16);
      }

      .st40 {
        fill: #070505;
      }

      .st41 {
        fill: url(#linear-gradient24);
      }

      .st42 {
        fill: url(#linear-gradient30);
      }

      .st43 {
        fill: url(#linear-gradient46);
      }

      .st44 {
        fill: #c6c5c5;
      }

      .st23, .st24 {
        font-family: ArialMT, Arial;
        font-size: 32.6px;
      }

      .st45 {
        fill: url(#linear-gradient22);
      }

      .st46 {
        fill: url(#linear-gradient29);
      }

      .st47 {
        fill: #14c6c6;
      }

      .st48 {
        fill: #fbafc9;
      }

      .st49 {
        fill: url(#linear-gradient68);
      }

      .st50 {
        fill: url(#linear-gradient49);
      }

      .st51 {
        fill: url(#linear-gradient19);
      }

      .st52 {
        fill: url(#linear-gradient12);
      }

      .st53 {
        fill: url(#linear-gradient65);
      }

      .st54 {
        fill: #5fbd7e;
      }

      .st55 {
        fill: url(#linear-gradient42);
      }

      .st56 {
        fill: #77a6d8;
      }

      .st57 {
        fill: url(#linear-gradient28);
      }

      .st58 {
        fill: url(#linear-gradient67);
      }

      .st59 {
        fill: url(#linear-gradient40);
      }

      .st60 {
        fill: url(#linear-gradient66);
      }

      .st61 {
        fill: url(#linear-gradient62);
      }

      .st62 {
        fill: #fcd33e;
      }

      .st63 {
        fill: url(#linear-gradient7);
      }

      .st64 {
        fill: url(#linear-gradient59);
      }

      .st65 {
        fill: url(#linear-gradient20);
      }

      .st66 {
        fill: url(#linear-gradient4);
      }

      .st67 {
        fill: url(#linear-gradient31);
      }

      .st68 {
        fill: url(#linear-gradient14);
      }

      .st69 {
        fill: url(#linear-gradient5);
      }

      .st70 {
        fill: url(#linear-gradient3);
      }

      .st71 {
        fill: url(#linear-gradient55);
      }

      .st72 {
        fill: url(#linear-gradient38);
      }

      .st73 {
        fill: url(#linear-gradient25);
      }

      .st74 {
        fill: url(#linear-gradient52);
      }

      .st75 {
        fill: url(#linear-gradient15);
      }

      .st76 {
        fill: url(#linear-gradient17);
      }

      .st77 {
        fill: url(#linear-gradient54);
      }

      .st78 {
        fill: url(#linear-gradient50);
      }

      .st79 {
        fill: #f06132;
      }

      .st80 {
        fill: url(#linear-gradient51);
      }

      .st81 {
        fill: #fcc5da;
      }

      .st82 {
        fill: url(#linear-gradient6);
      }

      .st83 {
        fill: url(#linear-gradient64);
      }

      .st84 {
        fill: url(#linear-gradient70);
      }

      .st85 {
        fill: url(#linear-gradient48);
      }

      .st86 {
        fill: url(#linear-gradient13);
      }

      .st87 {
        fill: url(#linear-gradient45);
      }

      .st88 {
        fill: url(#linear-gradient47);
      }

      .st89 {
        fill: url(#linear-gradient60);
      }

      .st90 {
        fill: url(#linear-gradient);
      }

      .st91 {
        fill: url(#linear-gradient44);
      }

      .st24 {
        fill: #231f20;
      }

      .st92 {
        fill: #f0e4d8;
      }

      .st93 {
        fill: url(#linear-gradient41);
      }

      .st94 {
        fill: #171616;
        opacity: .8;
      }

      .st95 {
        fill: #f2440f;
      }
    </style>
    <linearGradient id="linear-gradient" x1="36.6" y1="150.9" x2="31.2" y2="116" gradientTransform="translate(0 200) scale(1 -1)" gradientUnits="userSpaceOnUse">
      <stop offset="0" stop-color="#fff"/>
      <stop offset="1" stop-color="#000"/>
    </linearGradient>
    <linearGradient id="linear-gradient1" x1="62.1" y1="149.8" x2="56.9" y2="116.5" gradientTransform="translate(0 200) scale(1 -1)" gradientUnits="userSpaceOnUse">
      <stop offset="0" stop-color="#fff"/>
      <stop offset="1" stop-color="#000"/>
    </linearGradient>
    <linearGradient id="linear-gradient2" x1="86.9" y1="140.4" x2="81.4" y2="105.3" gradientTransform="translate(0 200) scale(1 -1)" gradientUnits="userSpaceOnUse">
      <stop offset="0" stop-color="#fff"/>
      <stop offset="1" stop-color="#000"/>
    </linearGradient>
    <linearGradient id="linear-gradient3" x1="110.4" y1="149.8" x2="105.2" y2="116.5" gradientTransform="translate(0 200) scale(1 -1)" gradientUnits="userSpaceOnUse">
      <stop offset="0" stop-color="#fff"/>
      <stop offset="1" stop-color="#000"/>
    </linearGradient>
    <linearGradient id="linear-gradient4" x1="49" y1="89.6" x2="45.4" y2="66.5" gradientTransform="translate(0 200) scale(1 -1)" gradientUnits="userSpaceOnUse">
      <stop offset="0" stop-color="#fff"/>
      <stop offset="1" stop-color="#000"/>
    </linearGradient>
    <linearGradient id="linear-gradient5" x1="104.9" y1="89.3" x2="101.2" y2="65.5" gradientTransform="translate(0 200) scale(1 -1)" gradientUnits="userSpaceOnUse">
      <stop offset="0" stop-color="#fff"/>
      <stop offset="1" stop-color="#000"/>
    </linearGradient>
    <linearGradient id="linear-gradient6" x1="156.2" y1="88.7" x2="152.7" y2="66.3" gradientTransform="translate(0 200) scale(1 -1)" gradientUnits="userSpaceOnUse">
      <stop offset="0" stop-color="#fff"/>
      <stop offset="1" stop-color="#000"/>
    </linearGradient>
    <linearGradient id="linear-gradient7" x1="105.7" y1="119.4" x2="90.2" y2="20" gradientTransform="translate(0 200) scale(1 -1)" gradientUnits="userSpaceOnUse">
      <stop offset="0" stop-color="#fff"/>
      <stop offset="1" stop-color="#000"/>
    </linearGradient>
    <linearGradient id="linear-gradient8" x1="75.6" y1="86.6" x2="69.9" y2="77.6" gradientTransform="translate(0 200) scale(1 -1)" gradientUnits="userSpaceOnUse">
      <stop offset=".4" stop-color="#fff"/>
      <stop offset="1" stop-color="#d0cece"/>
    </linearGradient>
    <linearGradient id="linear-gradient9" x1="73.3" y1="81.5" x2="64.1" y2="58" gradientTransform="translate(0 200) scale(1 -1)" gradientUnits="userSpaceOnUse">
      <stop offset=".3" stop-color="#fff"/>
      <stop offset="1" stop-color="#d0cece"/>
    </linearGradient>
    <linearGradient id="linear-gradient10" x1="138.2" y1="84.6" x2="133.4" y2="76.1" gradientTransform="translate(0 200) scale(1 -1)" gradientUnits="userSpaceOnUse">
      <stop offset=".3" stop-color="#fff"/>
      <stop offset="1" stop-color="#d0cece"/>
    </linearGradient>
    <linearGradient id="linear-gradient11" x1="137.9" y1="79.3" x2="127.8" y2="54.7" gradientTransform="translate(0 200) scale(1 -1)" gradientUnits="userSpaceOnUse">
      <stop offset=".3" stop-color="#fff"/>
      <stop offset="1" stop-color="#d0cece"/>
    </linearGradient>
    <linearGradient id="linear-gradient12" x1="113.7" y1="180.9" x2="95.2" y2="106.1" gradientTransform="translate(0 200) scale(1 -1)" gradientUnits="userSpaceOnUse">
      <stop offset=".8" stop-color="#fff"/>
      <stop offset="1" stop-color="#d0cece"/>
    </linearGradient>
    <linearGradient id="linear-gradient13" x1="127" y1="93" x2="122.7" y2="88.7" gradientTransform="translate(0 200) scale(1 -1)" gradientUnits="userSpaceOnUse">
      <stop offset=".8" stop-color="#fff"/>
      <stop offset="1" stop-color="#d0cece"/>
    </linearGradient>
    <linearGradient id="linear-gradient14" x1="81.5" y1="94.4" x2="78" y2="89.5" gradientTransform="translate(0 200) scale(1 -1)" gradientUnits="userSpaceOnUse">
      <stop offset=".8" stop-color="#fff"/>
      <stop offset="1" stop-color="#d0cece"/>
    </linearGradient>
    <linearGradient id="linear-gradient15" x1="147" y1="19.2" x2="41.4" y2="224.9" gradientUnits="userSpaceOnUse">
      <stop offset="0" stop-color="#fff"/>
      <stop offset="1" stop-color="#a4a3a3"/>
    </linearGradient>
    <linearGradient id="linear-gradient16" x1="165" y1="-16" x2="33.6" y2="239.9" gradientUnits="userSpaceOnUse">
      <stop offset="0" stop-color="#fff"/>
      <stop offset="1" stop-color="#a4a3a3"/>
    </linearGradient>
    <linearGradient id="linear-gradient17" x1="86.5" y1="123.4" x2="140.4" y2="31.3" gradientUnits="userSpaceOnUse">
      <stop offset=".3" stop-color="#fff"/>
      <stop offset="1" stop-color="#d0d2d3"/>
    </linearGradient>
    <linearGradient id="linear-gradient18" x1="128" y1="53.1" x2="52.3" y2="181" gradientUnits="userSpaceOnUse">
      <stop offset=".3" stop-color="#fff"/>
      <stop offset="1" stop-color="#d0d2d3"/>
    </linearGradient>
    <linearGradient id="linear-gradient19" x1="73.9" y1="144.8" x2="122" y2="62.7" gradientUnits="userSpaceOnUse">
      <stop offset=".1" stop-color="#ff1d00"/>
      <stop offset=".9" stop-color="#860007"/>
    </linearGradient>
    <linearGradient id="linear-gradient20" x1="124.2" y1="61.4" x2="107.6" y2="77.4" gradientUnits="userSpaceOnUse">
      <stop offset=".1" stop-color="#ff0007"/>
      <stop offset=".8" stop-color="#860007"/>
    </linearGradient>
    <linearGradient id="linear-gradient21" x1="156.2" y1="14.8" x2="60" y2="159.2" gradientUnits="userSpaceOnUse">
      <stop offset="0" stop-color="#f47f28"/>
      <stop offset="0" stop-color="#f2782e"/>
      <stop offset=".3" stop-color="#ee6d39"/>
      <stop offset=".5" stop-color="#ed693c"/>
      <stop offset="1" stop-color="#e83e39"/>
    </linearGradient>
    <linearGradient id="linear-gradient22" x1="156.2" y1="14.8" x2="60" y2="159.2" gradientUnits="userSpaceOnUse">
      <stop offset="0" stop-color="#d69d30"/>
      <stop offset="0" stop-color="#c8af32"/>
      <stop offset=".2" stop-color="#b9c234"/>
      <stop offset=".3" stop-color="#b0cd36"/>
      <stop offset=".4" stop-color="#add136"/>
      <stop offset="1" stop-color="#00a651"/>
    </linearGradient>
    <linearGradient id="linear-gradient23" x1="69.1" y1="174.3" x2="155.3" y2="32.5" gradientUnits="userSpaceOnUse">
      <stop offset="0" stop-color="#a6a8ab"/>
      <stop offset=".3" stop-color="#a6a8ab"/>
      <stop offset=".4" stop-color="#bdbdbf"/>
      <stop offset=".4" stop-color="#d1d0d0"/>
      <stop offset=".6" stop-color="#d5d3d3"/>
      <stop offset=".7" stop-color="#dfdddd"/>
      <stop offset=".8" stop-color="#eeedec"/>
      <stop offset=".9" stop-color="#f7f7f6"/>
      <stop offset="1" stop-color="#fff"/>
    </linearGradient>
    <linearGradient id="linear-gradient24" x1="27.6" y1="157.3" x2="172.1" y2="76.3" gradientUnits="userSpaceOnUse">
      <stop offset=".1" stop-color="#c3c1c1"/>
      <stop offset=".3" stop-color="#cfcfd2"/>
      <stop offset=".5" stop-color="#dde0e6"/>
      <stop offset=".8" stop-color="#e1e3e4"/>
      <stop offset="1" stop-color="#e1e2e3"/>
    </linearGradient>
    <linearGradient id="linear-gradient25" x1="65.8" y1="95.6" x2="143.1" y2="95.6" gradientUnits="userSpaceOnUse">
      <stop offset="0" stop-color="#30489b"/>
      <stop offset="1" stop-color="#2f489b"/>
    </linearGradient>
    <linearGradient id="linear-gradient26" x1="106" y1="91.6" x2="106.2" y2="121.2" gradientUnits="userSpaceOnUse">
      <stop offset="0" stop-color="#292b68"/>
      <stop offset=".6" stop-color="#2d3d87"/>
      <stop offset="1" stop-color="#2f489b"/>
    </linearGradient>
    <linearGradient id="linear-gradient27" x1="59.5" y1="125.4" x2="-4.2" y2="139" gradientUnits="userSpaceOnUse">
      <stop offset="0" stop-color="#c3c1c1"/>
      <stop offset=".8" stop-color="#c3c1c1"/>
      <stop offset="1" stop-color="#d5d6da"/>
    </linearGradient>
    <linearGradient id="linear-gradient28" x1="102.7" y1="94.9" x2="101" y2="150.7" gradientUnits="userSpaceOnUse">
      <stop offset="0" stop-color="#ec2225"/>
      <stop offset=".8" stop-color="#cd2225"/>
      <stop offset=".8" stop-color="#cc2225"/>
      <stop offset=".9" stop-color="#981a1d"/>
      <stop offset="1" stop-color="#84171a"/>
    </linearGradient>
    <linearGradient id="linear-gradient29" x1="19" y1="116.4" x2="176.2" y2="116.4" gradientUnits="userSpaceOnUse">
      <stop offset=".1" stop-color="#fff"/>
      <stop offset=".5" stop-color="#e8e7e7"/>
      <stop offset="1" stop-color="#676767"/>
    </linearGradient>
    <linearGradient id="linear-gradient30" x1="18.1" y1="127.2" x2="177.9" y2="127.2" gradientUnits="userSpaceOnUse">
      <stop offset=".1" stop-color="#fff"/>
      <stop offset=".5" stop-color="#e8e7e7"/>
      <stop offset="1" stop-color="#676767"/>
    </linearGradient>
    <linearGradient id="linear-gradient31" x1="17.5" y1="121.9" x2="19.1" y2="121.9" gradientUnits="userSpaceOnUse">
      <stop offset=".1" stop-color="#fff"/>
      <stop offset=".5" stop-color="#e8e7e7"/>
      <stop offset="1" stop-color="#676767"/>
    </linearGradient>
    <linearGradient id="linear-gradient32" x1="17.4" y1="128.7" x2="178.4" y2="128.7" gradientUnits="userSpaceOnUse">
      <stop offset=".1" stop-color="#fff"/>
      <stop offset=".5" stop-color="#e8e7e7"/>
      <stop offset="1" stop-color="#676767"/>
    </linearGradient>
    <linearGradient id="linear-gradient33" x1="176.2" y1="121.7" x2="178.4" y2="121.7" gradientUnits="userSpaceOnUse">
      <stop offset=".1" stop-color="#fff"/>
      <stop offset=".5" stop-color="#e8e7e7"/>
      <stop offset="1" stop-color="#676767"/>
    </linearGradient>
    <linearGradient id="linear-gradient34" x1="17.4" y1="120.9" x2="178.4" y2="120.9" gradientUnits="userSpaceOnUse">
      <stop offset=".1" stop-color="#d7d8d9"/>
      <stop offset=".5" stop-color="#e3e3e4"/>
      <stop offset="1" stop-color="#cbcdce"/>
    </linearGradient>
    <linearGradient id="linear-gradient35" x1="158.5" y1="56.2" x2="168.1" y2="56.2" gradientUnits="userSpaceOnUse">
      <stop offset=".2" stop-color="#8f6a29"/>
      <stop offset=".8" stop-color="#8f6b29"/>
    </linearGradient>
    <linearGradient id="linear-gradient36" x1="60" y1="-57" x2="65.9" y2="-58.3" gradientTransform="translate(-5.2 165.7) rotate(-17.2)" gradientUnits="userSpaceOnUse">
      <stop offset=".2" stop-color="#8f6a29"/>
      <stop offset="1" stop-color="#be872c"/>
    </linearGradient>
    <linearGradient id="linear-gradient37" x1="167.8" y1="79.5" x2="176" y2="78.5" gradientUnits="userSpaceOnUse">
      <stop offset="0" stop-color="#000" stop-opacity="0"/>
      <stop offset=".4" stop-color="#fff"/>
      <stop offset=".9" stop-color="#000" stop-opacity="0"/>
    </linearGradient>
    <linearGradient id="linear-gradient38" x1="118.2" y1="89.9" x2="151.3" y2="82.3" gradientUnits="userSpaceOnUse">
      <stop offset=".2" stop-color="#8f6a29"/>
      <stop offset=".8" stop-color="#8f6b29"/>
    </linearGradient>
    <linearGradient id="linear-gradient39" x1="159.3" y1="80.4" x2="175.7" y2="76.6" gradientUnits="userSpaceOnUse">
      <stop offset=".2" stop-color="#8f6a29"/>
      <stop offset=".8" stop-color="#be872c"/>
      <stop offset=".9" stop-color="#cf942b"/>
    </linearGradient>
    <linearGradient id="linear-gradient40" x1="84.5" y1="99.5" x2="109.9" y2="93.8" gradientUnits="userSpaceOnUse">
      <stop offset=".2" stop-color="#8f6a29"/>
      <stop offset=".8" stop-color="#8f6b29"/>
    </linearGradient>
    <linearGradient id="linear-gradient41" x1="62" y1="108" x2="93.1" y2="92.7" gradientUnits="userSpaceOnUse">
      <stop offset=".2" stop-color="#8f6a29"/>
      <stop offset="1" stop-color="#be872c"/>
    </linearGradient>
    <linearGradient id="linear-gradient42" x1="40.8" y1="74.7" x2="65.3" y2="51.5" gradientUnits="userSpaceOnUse">
      <stop offset="0" stop-color="#660c0c"/>
      <stop offset=".3" stop-color="#ef4e2c"/>
      <stop offset=".6" stop-color="#f05a37"/>
      <stop offset=".7" stop-color="#f69771"/>
    </linearGradient>
    <linearGradient id="linear-gradient43" x1="37.9" y1="78.1" x2="58.5" y2="53.4" gradientUnits="userSpaceOnUse">
      <stop offset=".2" stop-color="#d44228"/>
      <stop offset=".8" stop-color="#f05a37"/>
      <stop offset=".9" stop-color="#fff"/>
    </linearGradient>
    <linearGradient id="linear-gradient44" x1="51.8" y1="86.9" x2="76" y2="55.2" gradientUnits="userSpaceOnUse">
      <stop offset=".2" stop-color="#d44228"/>
      <stop offset=".8" stop-color="#f05a37"/>
      <stop offset=".9" stop-color="#f4845f"/>
    </linearGradient>
    <linearGradient id="linear-gradient45" x1="65.4" y1="115.4" x2="82.3" y2="112.9" gradientUnits="userSpaceOnUse">
      <stop offset="0" stop-color="#000" stop-opacity="0"/>
      <stop offset=".4" stop-color="#fff"/>
      <stop offset=".9" stop-color="#000" stop-opacity="0"/>
    </linearGradient>
    <linearGradient id="linear-gradient46" x1="47.1" y1="120.2" x2="75.9" y2="113.6" gradientUnits="userSpaceOnUse">
      <stop offset=".2" stop-color="#8f6a29"/>
      <stop offset=".8" stop-color="#be872c"/>
      <stop offset=".9" stop-color="#cf942b"/>
    </linearGradient>
    <linearGradient id="linear-gradient47" x1="31.1" y1="119" x2="56.7" y2="113.2" gradientUnits="userSpaceOnUse">
      <stop offset=".2" stop-color="#8f6a29"/>
      <stop offset="1" stop-color="#be872c"/>
    </linearGradient>
    <linearGradient id="linear-gradient48" x1="95.1" y1="98.2" x2="108.6" y2="98.2" gradientUnits="userSpaceOnUse">
      <stop offset=".5" stop-color="#f4c733"/>
      <stop offset="1" stop-color="#fcd33e"/>
    </linearGradient>
    <linearGradient id="linear-gradient49" x1="98.3" y1="87.6" x2="104.5" y2="87.6" gradientUnits="userSpaceOnUse">
      <stop offset=".5" stop-color="#f4c733"/>
      <stop offset="1" stop-color="#fcd33e"/>
    </linearGradient>
    <linearGradient id="linear-gradient50" x1="125" y1="128.6" x2="131.2" y2="155.7" gradientUnits="userSpaceOnUse">
      <stop offset="0" stop-color="#fff"/>
      <stop offset="1" stop-color="#000"/>
    </linearGradient>
    <linearGradient id="linear-gradient51" x1="85.7" y1="97.2" x2="90.1" y2="91.2" gradientUnits="userSpaceOnUse">
      <stop offset=".5" stop-color="#9a2b7b"/>
      <stop offset="1" stop-color="#ce559e"/>
    </linearGradient>
    <linearGradient id="linear-gradient52" x1="84.2" y1="96.6" x2="89.7" y2="92.8" gradientUnits="userSpaceOnUse">
      <stop offset=".4" stop-color="#c54e9c"/>
      <stop offset=".6" stop-color="#c54e9c"/>
      <stop offset="1" stop-color="#ce559e"/>
    </linearGradient>
    <linearGradient id="linear-gradient53" x1="84.5" y1="109.5" x2="96.1" y2="91.9" gradientUnits="userSpaceOnUse">
      <stop offset="0" stop-color="#ab3886"/>
      <stop offset="1" stop-color="#ce559e"/>
    </linearGradient>
    <linearGradient id="linear-gradient54" x1="126.5" y1="82.8" x2="131.5" y2="78" gradientUnits="userSpaceOnUse">
      <stop offset=".2" stop-color="#61bc65"/>
      <stop offset=".5" stop-color="#75c27a"/>
      <stop offset="1" stop-color="#75c27a"/>
    </linearGradient>
    <linearGradient id="linear-gradient55" x1="126.9" y1="81.6" x2="131.4" y2="77.3" gradientUnits="userSpaceOnUse">
      <stop offset=".2" stop-color="#61bc65"/>
      <stop offset=".5" stop-color="#75c27a"/>
      <stop offset="1" stop-color="#77c69d"/>
    </linearGradient>
    <linearGradient id="linear-gradient56" x1="141.6" y1="79.5" x2="146.9" y2="74.4" gradientUnits="userSpaceOnUse">
      <stop offset=".2" stop-color="#3851a2"/>
      <stop offset=".5" stop-color="#4063ad"/>
      <stop offset="1" stop-color="#5f7cbc"/>
    </linearGradient>
    <linearGradient id="linear-gradient57" x1="141.3" y1="78.7" x2="145.9" y2="74.3" gradientUnits="userSpaceOnUse">
      <stop offset=".2" stop-color="#4263ad"/>
      <stop offset=".5" stop-color="#4063ad"/>
      <stop offset="1" stop-color="#5f7cbc"/>
    </linearGradient>
    <linearGradient id="linear-gradient58" x1="135.5" y1="93.5" x2="151.8" y2="77.8" gradientUnits="userSpaceOnUse">
      <stop offset=".2" stop-color="#3552a2"/>
      <stop offset=".5" stop-color="#4063ad"/>
      <stop offset="1" stop-color="#5372b6"/>
    </linearGradient>
    <linearGradient id="linear-gradient59" x1="75.4" y1="106.5" x2="77.2" y2="121.4" gradientUnits="userSpaceOnUse">
      <stop offset="0" stop-color="#fff" stop-opacity="0"/>
      <stop offset="1" stop-color="#ffe97e"/>
    </linearGradient>
    <linearGradient id="linear-gradient60" x1="75.5" y1="116.6" x2="69.3" y2="117.5" gradientUnits="userSpaceOnUse">
      <stop offset="0" stop-color="#fff" stop-opacity="0"/>
      <stop offset=".3" stop-color="#ffe97e"/>
      <stop offset=".9" stop-color="#ffe97e" stop-opacity="0"/>
    </linearGradient>
    <linearGradient id="linear-gradient61" x1="158.7" y1="80.5" x2="175.2" y2="76.7" gradientUnits="userSpaceOnUse">
      <stop offset=".2" stop-color="#8f6a29"/>
      <stop offset=".8" stop-color="#be872c"/>
      <stop offset=".9" stop-color="#cf942b"/>
    </linearGradient>
    <linearGradient id="linear-gradient62" x1="171.3" y1="77.6" x2="176.5" y2="76.4" gradientUnits="userSpaceOnUse">
      <stop offset="0" stop-color="#fff" stop-opacity="0"/>
      <stop offset="1" stop-color="#ffe97e"/>
    </linearGradient>
    <linearGradient id="linear-gradient63" x1="169.7" y1="77.7" x2="173.3" y2="77.2" gradientUnits="userSpaceOnUse">
      <stop offset="0" stop-color="#fff" stop-opacity="0"/>
      <stop offset=".4" stop-color="#ffe97e"/>
      <stop offset=".9" stop-color="#ffe97e" stop-opacity="0"/>
    </linearGradient>
    <linearGradient id="linear-gradient64" x1="19" y1="145.9" x2="179.6" y2="48.2" gradientUnits="userSpaceOnUse">
      <stop offset="0" stop-color="#fff" stop-opacity=".1"/>
      <stop offset="0" stop-color="#fff6ef" stop-opacity=".1"/>
      <stop offset="0" stop-color="#ffd9bf" stop-opacity=".2"/>
      <stop offset=".2" stop-color="#ffc096" stop-opacity=".4"/>
      <stop offset=".2" stop-color="#ffac74" stop-opacity=".5"/>
      <stop offset=".3" stop-color="#ff9d5a" stop-opacity=".6"/>
      <stop offset=".4" stop-color="#ff9248" stop-opacity=".7"/>
      <stop offset=".4" stop-color="#ff8b3d" stop-opacity=".9"/>
      <stop offset=".5" stop-color="#ff8939"/>
      <stop offset=".6" stop-color="#ff8b3d" stop-opacity=".9"/>
      <stop offset=".7" stop-color="#ff9248" stop-opacity=".8"/>
      <stop offset=".8" stop-color="#ff9d5b" stop-opacity=".7"/>
      <stop offset=".8" stop-color="#ffad75" stop-opacity=".6"/>
      <stop offset=".9" stop-color="#ffc198" stop-opacity=".5"/>
      <stop offset="1" stop-color="#ffdac1" stop-opacity=".4"/>
      <stop offset="1" stop-color="#ffe1cd" stop-opacity=".4"/>
    </linearGradient>
    <linearGradient id="linear-gradient65" x1="43.6" y1="117.4" x2="70.7" y2="100.9" gradientUnits="userSpaceOnUse">
      <stop offset="0" stop-color="#ffffc3"/>
      <stop offset=".5" stop-color="#ff8939"/>
      <stop offset=".6" stop-color="#ff8c3d"/>
      <stop offset=".7" stop-color="#ff9648"/>
      <stop offset=".8" stop-color="#ffa65b"/>
      <stop offset=".9" stop-color="#ffbd75"/>
      <stop offset="1" stop-color="#ffda97"/>
      <stop offset="1" stop-color="#ffe1a0"/>
    </linearGradient>
    <linearGradient id="linear-gradient66" x1="110.8" y1="121.9" x2="183" y2="78" gradientUnits="userSpaceOnUse">
      <stop offset="0" stop-color="#ffffc3"/>
      <stop offset=".5" stop-color="#ff8939"/>
      <stop offset=".6" stop-color="#ff8c3d"/>
      <stop offset=".7" stop-color="#ff9648"/>
      <stop offset=".8" stop-color="#ffa65b"/>
      <stop offset=".9" stop-color="#ffbd75"/>
      <stop offset="1" stop-color="#ffda97"/>
      <stop offset="1" stop-color="#ffe1a0"/>
    </linearGradient>
    <linearGradient id="linear-gradient67" x1="68.3" y1="103.5" x2="122.6" y2="70.4" gradientUnits="userSpaceOnUse">
      <stop offset="0" stop-color="#ffffc3"/>
      <stop offset=".5" stop-color="#ff8939"/>
      <stop offset=".6" stop-color="#ff8c3d"/>
      <stop offset=".7" stop-color="#ff9648"/>
      <stop offset=".8" stop-color="#ffa65b"/>
      <stop offset=".9" stop-color="#ffbd75"/>
      <stop offset="1" stop-color="#ffda97"/>
      <stop offset="1" stop-color="#ffe1a0"/>
    </linearGradient>
    <linearGradient id="linear-gradient68" x1="89" y1="78.5" x2="113.7" y2="78.5" gradientUnits="userSpaceOnUse">
      <stop offset="0" stop-color="#fbe7ff"/>
      <stop offset=".5" stop-color="#fbafc9"/>
      <stop offset="1" stop-color="#fbafc9" stop-opacity=".3"/>
      <stop offset="1" stop-color="#fbafc9" stop-opacity=".3"/>
    </linearGradient>
    <linearGradient id="linear-gradient69" x1="56.4" y1="110.5" x2="84.6" y2="110.5" gradientTransform="translate(0 200) scale(1 -1)" gradientUnits="userSpaceOnUse">
      <stop offset="0" stop-color="#c38b44"/>
      <stop offset=".7" stop-color="#c38b44"/>
    </linearGradient>
    <linearGradient id="linear-gradient70" x1="111.3" y1="122" x2="86.7" y2="110.5" gradientTransform="translate(0 200) scale(1 -1)" gradientUnits="userSpaceOnUse">
      <stop offset="0" stop-color="#eec690"/>
      <stop offset="1" stop-color="#c38b44"/>
    </linearGradient>
    <linearGradient id="linear-gradient71" x1="106.7" y1="147.9" x2="54.1" y2="100.6" gradientTransform="translate(0 200) scale(1 -1)" gradientUnits="userSpaceOnUse">
      <stop offset="0" stop-color="#f3cd99"/>
      <stop offset="1" stop-color="#a86615"/>
    </linearGradient>
  </defs>
  <g id="digipal" class="st29">
    <g id="Digipal">
      <g>
        <path class="st90" d="M44.1,50.3v33.1h-7v-1.8c-1.8,1.5-3.9,2.2-6.2,2.2s-5.5-1.1-7.5-3.3c-2-2.2-3-5-3-8.3s1-6.2,3-8.4c2-2.2,4.6-3.3,7.8-3.3s3.9.5,5.8,1.4v-11.6h7.1ZM37.1,77.3v-10.7c-1.3-.9-2.6-1.3-3.9-1.3s-3.1.6-4.1,1.8c-1,1.2-1.5,3-1.5,5.2s.5,3.7,1.5,4.9c1,1.2,2.3,1.9,3.9,1.9s2.8-.6,4.1-1.8Z"/>
        <path class="st27" d="M55.6,53.7c0-1.1.4-2,1.1-2.7.8-.8,1.7-1.1,2.7-1.1s2,.4,2.8,1.1c.8.8,1.1,1.7,1.1,2.7s-.4,2-1.1,2.7c-.8.8-1.7,1.1-2.8,1.1s-2-.4-2.7-1.1c-.8-.7-1.1-1.6-1.1-2.7ZM63,61v22.4h-7v-22.4h7Z"/>
        <path class="st0" d="M95.7,61v4.7h-3.2c.7,1.3,1.1,2.5,1.1,3.7,0,1.7-.6,3.3-1.9,4.8s-3.2,2.3-5.7,2.6c-2.5.3-4,.5-4.3.8-.3.2-.5.6-.5,1s.2.7.7,1c.4.2,2.2.5,5.2.8s5.2,1.1,6.4,2.4c1.2,1.3,1.8,2.8,1.8,4.3,0,2.4-1,4.3-3,5.6-2,1.3-5,1.9-8.8,1.9s-6.9-.6-8.9-1.8c-2-1.2-3-2.8-3-4.7,0-2.7,2-4.6,6-5.7-1.8-.5-2.7-1.5-2.7-2.9s1.4-2.8,4.1-3.4c-1.8-.3-3.3-1.1-4.5-2.4s-1.8-2.8-1.8-4.5.9-4,2.6-5.7c1.7-1.6,4.2-2.5,7.4-2.5h13ZM83.6,90.4c1.5,0,2.7-.3,3.7-.8.9-.6,1.4-1.2,1.4-2,0-1.6-1.8-2.5-5.5-2.5s-3,.2-3.9.7-1.4,1.1-1.4,1.9c0,1.8,1.9,2.7,5.7,2.7ZM83,65.2c-1.1,0-2.1.4-2.9,1.2-.8.8-1.2,1.8-1.2,2.9s.4,2,1.2,2.8c.8.8,1.8,1.2,2.9,1.2s2-.4,2.8-1.3c.8-.8,1.2-1.8,1.2-3s-.4-2-1.1-2.7c-.8-.7-1.7-1.1-2.9-1.1Z"/>
        <path class="st70" d="M103.9,53.7c0-1.1.4-2,1.1-2.7.8-.8,1.7-1.1,2.7-1.1s2,.4,2.8,1.1c.8.8,1.1,1.7,1.1,2.7s-.4,2-1.1,2.7c-.8.8-1.7,1.1-2.8,1.1s-2-.4-2.7-1.1c-.8-.7-1.1-1.6-1.1-2.7ZM111.3,61v22.4h-7v-22.4h7Z"/>
      </g>
      <path class="st66" d="M39.9,110.6h9.8c2.2,0,4,.6,5.3,1.9s2,2.8,2,4.6-.6,3.4-1.9,4.7c-1.3,1.3-3.1,2-5.3,2h-4.4v8.8h-5.5v-22ZM45.4,114.7v5.1h2.6c2.3,0,3.4-.9,3.4-2.6s-.3-1.6-.9-2c-.6-.4-1.6-.6-3.1-.6h-2Z"/>
      <path class="st69" d="M104.2,110.6l9.8,22h-5.9l-1.8-4.3h-9.9l-1.6,4.3h-5.8l8.9-22s6.3,0,6.3,0ZM104.7,124.4l-3.6-8.6-3.2,8.6h6.8Z"/>
      <path class="st82" d="M163,128.6v4h-16.8v-22h5.5v18h11.3Z"/>
      <path class="st63" d="M126.4,130.8l1-8.9c0-.3-.2-.5-.4-.6l-4.1-.5c-.2,0-.4-.2-.4-.4-.3-2.6-1.1-5.1-2.2-7.4,0-.2,0-.5,0-.6l3.2-2.7c.2-.2.2-.5,0-.7l-5.8-6.9c-.2-.2-.5-.2-.7,0l-3.2,2.7c-.2,0-.4.2-.6,0-1.6-1.2-3.4-2.2-5.3-2.9-.2,0-.3-.3-.3-.5l.6-4.1c0-.3-.2-.5-.4-.6l-8.9-1.2c-.3,0-.5.2-.6.4l-.6,4.1c0,.2-.2.4-.4.4-2,.2-3.9.6-5.7,1.3-.2,0-.5,0-.6-.2l-2.3-3.5c-.2-.2-.5-.3-.7,0l-7.5,5c-.2.2-.3.5,0,.7l2.3,3.5c0,.2,0,.4,0,.6-2.1,2.2-3.7,4.9-4.7,7.8,0,.2-.3.4-.5.3l-4.1-.5c-.3,0-.5.2-.6.4l-1,8.9c0,.3.2.5.4.6l4.1.5c.2,0,.4.2.4.4.3,2.6,1.1,5.1,2.2,7.4,0,.2,0,.5,0,.6l-3.2,2.7c-.2.2-.2.5,0,.7l5.8,6.9c.2.2.5.2.7.1l3.2-2.7c.2-.1.4-.2.6,0,1.6,1.2,3.4,2.2,5.3,2.9.2.1.3.3.3.5l-.6,4.1c0,.3.2.5.4.6l8.9,1.2c.3,0,.5-.2.6-.4l.6-4.1c0-.2.2-.4.4-.4,2-.2,3.9-.6,5.7-1.3.2-.1.5,0,.6.2l2.3,3.5c.2.2.5.3.7.1l7.5-5c.2-.2.3-.5,0-.7l-2.3-3.5c0-.2,0-.4,0-.6,2.1-2.2,3.7-4.9,4.7-7.8,0-.2.3-.4.5-.3l4.1.5c.3,0,.6-.2.6-.4ZM101.4,141.2c-11.4,1.1-20.9-8.4-19.7-19.7.8-8.4,7.6-15.2,16.1-16.1,11.4-1.1,20.9,8.4,19.7,19.7-.9,8.5-7.7,15.3-16.1,16.1ZM176.2,136.1l2.8-8.6c.1-.3-.1-.5-.3-.6l-4-1.3c-.2,0-.4-.3-.3-.5.2-2.6,0-5.2-.7-7.7-.1-.2,0-.5.2-.6l3.7-2c.2,0,.3-.4.2-.7l-4.3-7.9c-.1-.2-.4-.3-.7-.2l-3.7,2c-.2,0-.4,0-.6,0-1.3-1.5-2.9-2.8-4.6-3.9-.2,0-.3-.4-.2-.6l1.4-3.9c.1-.3,0-.5-.3-.6l-8.5-3c-.3,0-.5,0-.6.3l-1.4,3.9c-.1.2-.3.3-.5.3-2-.2-3.9-.2-5.8,0-.2,0-.4,0-.5-.3l-1.6-3.9c-.1-.3-.4-.4-.7-.3l-8.3,3.4c-.3,0-.4.4-.3.7l1.6,3.9c.1.2,0,.5-.2.6-2.5,1.8-4.6,4-6.2,6.7-.1.2-.4.3-.6.2l-4-1.3c-.3,0-.5,0-.6.3l-2.8,8.6c0,.3,0,.5.3.6l4,1.3c.2,0,.4.3.3.5-.2,2.6,0,5.2.7,7.7.1.2,0,.5-.2.6l-3.7,2c-.2.1-.3.4-.2.7l4.3,7.9c.1.2.4.3.7.2l3.7-2c.2-.1.4-.1.6.1,1.3,1.5,2.9,2.8,4.6,3.9.2.1.3.4.2.6l-1.4,3.9c-.1.3,0,.5.3.6l8.5,3c.3.1.5,0,.6-.3l1.4-3.9c.1-.2.3-.3.5-.3,2,.2,3.9.2,5.8-.1.2,0,.4.1.5.3l1.6,3.9c.1.3.4.4.7.3l8.3-3.4c.3-.1.4-.4.3-.7l-1.6-3.9c-.1-.2,0-.5.2-.6,2.5-1.8,4.6-4,6.2-6.7.1-.2.4-.3.6-.2l4,1.3c.2,0,.5-.1.6-.3ZM149.6,141.2c-11.4-1.2-18.7-12.4-15.3-23.4,2.5-8.1,10.6-13.4,19-12.5,11.4,1.2,18.7,12.4,15.3,23.4-2.5,8.1-10.6,13.4-19,12.5ZM71.5,136.1l2.8-8.6c0-.3,0-.5-.3-.6l-4-1.3c-.2,0-.4-.3-.3-.5.2-2.6,0-5.2-.7-7.7,0-.2,0-.5.2-.6l3.7-2c.2,0,.3-.4.2-.7l-4.3-7.9c0-.2-.4-.3-.7-.2l-3.7,2c-.2,0-.4,0-.6,0-1.3-1.5-2.9-2.8-4.6-3.9-.2,0-.3-.4-.2-.6l1.4-3.9c0-.3,0-.5-.3-.6l-8.5-3c-.3,0-.5,0-.6.3l-1.4,3.9c0,.2-.3.3-.5.3-2-.2-3.9-.2-5.8,0-.2,0-.4,0-.5-.3l-1.6-3.9c0-.3-.4-.4-.7-.3l-8.3,3.4c-.3,0-.4.4-.3.7l1.6,3.9c0,.2,0,.5-.2.6-2.5,1.8-4.6,4-6.2,6.7-.1.2-.4.3-.6.2l-4-1.3c-.3,0-.5,0-.6.3l-2.8,8.6c-.1.3.1.5.3.6l4,1.3c.2,0,.4.3.3.5-.2,2.6,0,5.2.7,7.7.1.2,0,.5-.2.6l-3.7,2c-.2.1-.3.4-.2.7l4.3,7.9c.1.2.4.3.7.2l3.7-2c.2-.1.4-.1.6.1,1.3,1.5,2.9,2.8,4.6,3.9.2.1.3.4.2.6l-1.4,3.9c0,.3,0,.5.3.6l8.5,3c.3.1.5,0,.6-.3l1.4-3.9c0-.2.3-.3.5-.3,2,.2,3.9.2,5.8-.1.2,0,.4.1.5.3l1.6,3.9c0,.3.4.4.7.3l8.3-3.4c.3-.1.4-.4.3-.7l-1.6-3.9c0-.2,0-.5.2-.6,2.5-1.8,4.6-4,6.2-6.7,0-.2.4-.3.6-.2l4,1.3c.3,0,.6-.1.6-.3ZM44.9,141.2c-11.4-1.2-18.7-12.4-15.3-23.4,2.5-8.1,10.6-13.4,19-12.5,11.4,1.2,18.7,12.4,15.3,23.4-2.5,8.1-10.6,13.4-19,12.5Z"/>
      <path class="st22" d="M128.2,129.2l1-8.9c0-.3-.2-.5-.4-.6l-4.1-.5c-.2,0-.4-.2-.4-.4-.3-2.6-1.1-5.1-2.2-7.4,0-.2,0-.5,0-.6l3.2-2.7c.2-.2.2-.5,0-.7l-5.8-6.9c-.2-.2-.5-.2-.7,0l-3.2,2.7c-.2,0-.4.2-.6,0-1.6-1.2-3.4-2.2-5.3-2.9-.2,0-.3-.3-.3-.5l.6-4.1c0-.3-.2-.5-.4-.6l-8.9-1.2c-.3,0-.5.2-.6.4l-.6,4.1c0,.2-.2.4-.4.4-2,.2-3.9.6-5.7,1.3-.2,0-.5,0-.6-.2l-2.3-3.5c-.2-.2-.5-.3-.7,0l-7.5,5c-.2.2-.3.5,0,.7l2.3,3.5c0,.2,0,.4,0,.6-2.1,2.2-3.7,4.9-4.7,7.8,0,.2-.3.4-.5.3l-4.1-.5c-.3,0-.5.2-.6.4l-1,8.9c0,.3.2.5.4.6l4.1.5c.2,0,.4.2.4.4.3,2.6,1.1,5.1,2.2,7.4,0,.2,0,.5,0,.6l-3.2,2.7c-.2.2-.2.5,0,.7l5.8,6.9c.2.2.5.2.7.1l3.2-2.7c.2-.1.4-.2.6,0,1.6,1.2,3.4,2.2,5.3,2.9.2.1.3.3.3.5l-.6,4.1c0,.3.2.5.4.6l8.9,1.2c.3,0,.5-.2.6-.4l.6-4.1c0-.2.2-.4.4-.4,2-.2,3.9-.6,5.7-1.3.2-.1.5,0,.6.2l2.3,3.5c.2.2.5.3.7.1l7.5-5c.2-.2.3-.5,0-.7l-2.3-3.5c0-.2,0-.4,0-.6,2.1-2.2,3.7-4.9,4.7-7.8,0-.2.3-.4.5-.3l4.1.5c.3,0,.6-.1.6-.4ZM103.2,139.7c-11.4,1.1-20.9-8.4-19.7-19.7.8-8.4,7.6-15.2,16.1-16.1,11.4-1.1,20.9,8.4,19.7,19.7-.9,8.4-7.7,15.3-16.1,16.1ZM178,134.6l2.8-8.6c.1-.3-.1-.5-.3-.6l-4-1.3c-.2,0-.4-.3-.3-.5.2-2.6,0-5.2-.7-7.7-.1-.2,0-.5.2-.6l3.7-2c.2,0,.3-.4.2-.7l-4.3-7.9c-.1-.2-.4-.3-.7-.2l-3.7,2c-.2,0-.4,0-.6,0-1.3-1.5-2.9-2.8-4.6-3.9-.2,0-.3-.4-.2-.6l1.4-3.9c.1-.3,0-.5-.3-.6l-8.5-3c-.3,0-.5,0-.6.3l-1.4,3.9c-.1.2-.3.3-.5.3-2-.2-3.9-.2-5.8,0-.2,0-.4,0-.5-.3l-1.6-3.9c-.1-.3-.4-.4-.7-.3l-8.3,3.4c-.3,0-.4.4-.3.7l1.6,3.9c.1.2,0,.5-.2.6-2.5,1.8-4.6,4-6.2,6.7-.1.2-.4.3-.6.2l-4-1.3c-.3,0-.5,0-.6.3l-2.8,8.6c0,.3,0,.5.3.6l4,1.3c.2,0,.4.3.3.5-.2,2.6,0,5.2.7,7.7.1.2,0,.5-.2.6l-3.7,2c-.2.1-.3.4-.2.7l4.3,7.9c.1.2.4.3.7.2l3.7-2c.2-.1.4-.1.6.1,1.3,1.5,2.9,2.8,4.6,3.9.2.1.3.4.2.6l-1.4,3.9c-.1.3,0,.5.3.6l8.5,3c.3.1.5,0,.6-.3l1.4-3.9c.1-.2.3-.3.5-.3,2,.2,3.9.2,5.8-.1.2,0,.4.1.5.3l1.6,3.9c.1.3.4.4.7.3l8.3-3.4c.3-.1.4-.4.3-.7l-1.6-3.9c-.1-.2,0-.5.2-.6,2.5-1.8,4.6-4,6.2-6.7.1-.2.4-.3.6-.2l4,1.3c.2,0,.5-.1.6-.3ZM151.4,139.7c-11.4-1.2-18.7-12.4-15.3-23.4,2.5-8.1,10.6-13.4,19-12.5,11.4,1.2,18.7,12.4,15.3,23.4-2.6,8.1-10.6,13.4-19,12.5ZM73.3,134.6l2.8-8.6c0-.3,0-.5-.3-.6l-4-1.3c-.2,0-.4-.3-.3-.5.2-2.6,0-5.2-.7-7.7,0-.2,0-.5.2-.6l3.7-2c.2,0,.3-.4.2-.7l-4.3-7.9c0-.2-.4-.3-.7-.2l-3.7,2c-.2,0-.4,0-.6,0-1.3-1.5-2.9-2.8-4.6-3.9-.2,0-.3-.4-.2-.6l1.4-3.9c0-.3,0-.5-.3-.6l-8.5-3c-.3,0-.5,0-.6.3l-1.4,3.9c0,.2-.3.3-.5.3-2-.2-3.9-.2-5.8,0-.2,0-.4,0-.5-.3l-1.6-3.9c0-.3-.4-.4-.7-.3l-8.2,3.5c-.3,0-.4.4-.3.7l1.6,3.9c0,.2,0,.5-.2.6-2.5,1.8-4.6,4-6.2,6.7-.1.2-.4.3-.6.2l-4-1.3c-.3,0-.5,0-.6.3l-2.8,8.6c-.1.3.1.5.3.6l4,1.3c.2,0,.4.3.3.5-.2,2.6,0,5.2.7,7.7.1.2,0,.5-.2.6l-3.7,2c-.2.1-.3.4-.2.7l4.3,7.9c.1.2.4.3.7.2l3.7-2c.2-.1.4-.1.6.1,1.3,1.5,2.9,2.8,4.6,3.9.2.1.3.4.2.6l-1.4,3.9c0,.3,0,.5.3.6l8.5,3c.3.1.5,0,.6-.3l1.4-3.9c0-.2.3-.3.5-.3,2,.2,3.9.2,5.8-.1.2,0,.4.1.5.3l1.6,3.9c0,.3.4.4.7.3l8.3-3.4c.3-.1.4-.4.3-.7l-1.6-3.9c0-.2,0-.5.2-.6,2.5-1.8,4.6-4,6.2-6.7,0-.2.4-.3.6-.2l4,1.3c.2,0,.4-.2.5-.4ZM46.7,139.7c-11.4-1.2-18.7-12.4-15.3-23.4,2.5-8.1,10.6-13.4,19-12.5,11.4,1.2,18.7,12.4,15.3,23.4-2.5,8.1-10.6,13.4-19,12.5Z"/>
      <g>
        <path class="st22" d="M46.1,49.3v33.1h-7v-1.8c-1.8,1.5-3.9,2.2-6.2,2.2s-5.5-1.1-7.5-3.3c-2-2.2-3-5-3-8.3s1-6.2,3-8.4c2-2.2,4.6-3.3,7.8-3.3s3.9.5,5.8,1.4v-11.6h7.1ZM39.1,76.3v-10.7c-1.3-.9-2.6-1.3-3.9-1.3s-3.1.6-4.1,1.8c-1,1.2-1.5,3-1.5,5.2s.5,3.7,1.5,4.9c1,1.2,2.3,1.9,3.9,1.9s2.8-.6,4.1-1.8Z"/>
        <path class="st22" d="M57.6,52.7c0-1.1.4-2,1.1-2.7.8-.8,1.7-1.1,2.7-1.1s2,.4,2.8,1.1c.8.8,1.1,1.7,1.1,2.7s-.4,2-1.1,2.7c-.8.8-1.7,1.1-2.8,1.1s-2-.4-2.7-1.1c-.8-.7-1.1-1.6-1.1-2.7ZM65,60v22.4h-7v-22.4h7Z"/>
        <path class="st22" d="M97.7,60v4.7h-3.2c.7,1.3,1.1,2.5,1.1,3.7,0,1.7-.6,3.3-1.9,4.8s-3.2,2.3-5.7,2.6c-2.5.3-4,.5-4.3.8-.3.2-.5.6-.5,1s.2.7.7,1c.4.2,2.2.5,5.2.8s5.2,1.1,6.4,2.4c1.2,1.3,1.8,2.8,1.8,4.3,0,2.4-1,4.3-3,5.6-2,1.3-5,1.9-8.8,1.9s-6.9-.6-8.9-1.8c-2-1.2-3-2.8-3-4.7,0-2.7,2-4.6,6-5.7-1.8-.5-2.7-1.5-2.7-2.9s1.4-2.8,4.1-3.4c-1.8-.3-3.3-1.1-4.5-2.4s-1.8-2.8-1.8-4.5.9-4,2.6-5.7c1.7-1.6,4.2-2.5,7.4-2.5h13ZM85.6,89.4c1.5,0,2.7-.3,3.7-.8.9-.6,1.4-1.2,1.4-2,0-1.6-1.8-2.5-5.5-2.5s-3,.2-3.9.7-1.4,1.1-1.4,1.9c0,1.8,1.9,2.7,5.7,2.7ZM85,64.2c-1.1,0-2.1.4-2.9,1.2-.8.8-1.2,1.8-1.2,2.9s.4,2,1.2,2.8c.8.8,1.8,1.2,2.9,1.2s2-.4,2.8-1.3c.8-.8,1.2-1.8,1.2-3s-.4-2-1.1-2.7c-.8-.7-1.7-1.1-2.9-1.1Z"/>
        <path class="st22" d="M105.9,52.7c0-1.1.4-2,1.1-2.7.8-.8,1.7-1.1,2.7-1.1s2,.4,2.8,1.1c.8.8,1.1,1.7,1.1,2.7s-.4,2-1.1,2.7c-.8.8-1.7,1.1-2.8,1.1s-2-.4-2.7-1.1c-.8-.7-1.1-1.6-1.1-2.7ZM113.3,60v22.4h-7v-22.4h7Z"/>
      </g>
      <path class="st22" d="M40.9,109.6h9.8c2.2,0,4,.6,5.3,1.9s2,2.8,2,4.6-.6,3.4-1.9,4.7c-1.3,1.3-3.1,2-5.3,2h-4.4v8.8h-5.5v-22ZM46.4,113.7v5.1h2.6c2.3,0,3.4-.9,3.4-2.6s-.3-1.6-.9-2c-.6-.4-1.6-.6-3.1-.6h-2Z"/>
      <path class="st22" d="M105.2,109.6l9.8,22h-5.9l-1.8-4.3h-9.9l-1.6,4.3h-5.8l8.9-22s6.3,0,6.3,0ZM105.7,123.4l-3.6-8.6-3.2,8.6h6.8Z"/>
      <path class="st22" d="M164,127.6v4h-16.8v-22h5.5v18s11.3,0,11.3,0Z"/>
    </g>
  </g>
  <g id="truchat" class="st29">
    <g id="truchat1" data-name="truchat">
      <g>
        <circle class="st36" cx="71.1" cy="120.5" r="5.3"/>
        <path class="st30" d="M58.2,128.8s11.3.9,16.5-3c5.2-3.8,8.7-10.6,8.7-10.6,0,0-1.6,11.9-7,23.2-4.4,9.4-7.7,14.4-8.9,15.8,0,.1-.4-.1-.4-.1,0,0,.7-.5,1.3-4.2.6-3.7.8-3.8.8-3.8,0,0-5.5,7.4-6.2,8.1s-.4-.3-.4-.3c0,0,15.3-22.5-4.4-25.1Z"/>
      </g>
      <g>
        <circle class="st7" cx="134.7" cy="121.6" r="4.9"/>
        <path class="st37" d="M124.9,115.1s2.2,16.4.9,21.7c-1.3,5.3-8.1,16.9-8.1,16.9,0,0,8.6-8.3,11.4-8.7s10.5,8.7,10.5,8.7c0,0-4.9-9.8-5.6-15.8s10.4-6.7,10.4-6.7c0,0-9.6-1.8-13.3-4.7-3.8-2.9-6.2-11.4-6.2-11.4Z"/>
      </g>
      <g>
        <path class="st52" d="M160,71.5c0,15.4-12.5,27.8-27.9,27.8s-3.2,0-4.7-.4c-1.5,1-3.1,1.9-4.7,2.6.2.5.3,1.1.3,1.7,0,3.6-4,6.4-8.9,6.4s-8.7-2.7-8.9-6.2c-1.3-.2-2.6-.6-3.9-1-1.7.5-3.5.7-5.4.7h0c-.6,3.1-4.3,5.6-8.9,5.6s-8.9-2.9-8.9-6.4,1.1-3.6,2.9-4.8h-1.4c-3.4,0-6.7-.6-9.7-1.7h-1.6c-15.5,0-28.1-9-28.1-20.2s5.5-13.9,13.8-17.4c4.4-9.8,14.2-16.7,25.6-16.7s12.7,2.3,17.5,6.1c4.1-2.2,8.8-3.4,13.8-3.4s6.8.6,9.9,1.7c3.5-1.6,7.4-2.5,11.5-2.5,15.3.2,27.8,12.7,27.8,28.1Z"/>
        <ellipse class="st86" cx="122.5" cy="111.5" rx="3" ry="2.2"/>
        <ellipse class="st68" cx="77.8" cy="110.7" rx="3" ry="2.2"/>
      </g>
      <g>
        <path class="st22" d="M161,69.5c0,15.4-12.5,27.8-27.9,27.8s-3.2,0-4.7-.4c-1.5,1-3.1,1.9-4.7,2.6.2.5.3,1.1.3,1.7,0,3.6-4,6.4-8.9,6.4s-8.7-2.7-8.9-6.2c-1.3-.2-2.6-.6-3.9-1-1.7.5-3.5.7-5.4.7h0c-.6,3.1-4.3,5.6-8.9,5.6s-8.9-2.9-8.9-6.4,1.1-3.6,2.9-4.8h-1.4c-3.4,0-6.7-.6-9.7-1.7h-1.6c-15.5,0-28.1-9-28.1-20.2s5.5-13.9,13.8-17.4c4.4-9.8,14.2-16.7,25.6-16.7s12.7,2.3,17.5,6.1c4.1-2.2,8.8-3.4,13.8-3.4s6.8.6,9.9,1.7c3.5-1.6,7.4-2.5,11.5-2.5,15.3.2,27.8,12.7,27.8,28.1Z"/>
        <ellipse class="st22" cx="123.5" cy="109.5" rx="3" ry="2.2"/>
        <ellipse class="st22" cx="78.8" cy="108.7" rx="3" ry="2.2"/>
        <g>
          <path class="st16" d="M62.4,65.9h10.6v3.2h-3.5v13.9h-3.8v-13.8h-3.4v-3.3s.1,0,.1,0Z"/>
          <path class="st16" d="M73.3,70.4h3.1v3.1c.6-2.1,1.6-3.2,3-3.2s.4,0,.6,0v3.4c-.3,0-.5,0-.6,0-1.7,0-2.6,1.3-2.6,3.9v5.4h-3.5v-12.6Z"/>
          <path class="st16" d="M81,70.4h3.5v8.1c0,.8,0,1.4.2,1.6,0,.3.5.4,1,.4s.8,0,1-.3.4-.5.4-.9c0-.4,0-1.2,0-2.4v-6.5h3.5v12.6h-3.3v-1.7c-.5.9-1,1.4-1.5,1.6s-1.1.4-1.8.4-1.6-.2-2.1-.6-.8-.9-.9-1.4c0-.6,0-1.5,0-2.7v-8.2Z"/>
          <path class="st16" d="M102,76.8l3.5.2c0,1.9-.7,3.4-1.8,4.5-1.1,1.2-2.4,1.7-4.2,1.7s-3.7-.8-4.8-2.3c-1.1-1.6-1.7-3.7-1.7-6.4s.5-4.9,1.6-6.5,2.7-2.3,4.9-2.3c3.6,0,5.5,2.2,5.8,6.6l-3.4.2c0-2.5-.9-3.8-2.4-3.8s-1.4.4-1.9,1.2c-.5.8-.7,2.4-.7,4.8s.2,3.5.6,4.3,1.1,1.2,1.9,1.2c1.6,0,2.4-1.1,2.6-3.4Z"/>
          <path class="st16" d="M107.4,65.9h3.5v5.8c.6-1.1,1.7-1.6,3.1-1.6s1.5.2,2,.6.8.9.9,1.5.2,1.5.2,2.7v8.1h-3.5v-8.1c0-.8,0-1.4-.2-1.6s-.5-.4-1-.4-.9,0-1.1.4c-.3.3-.4.8-.4,1.8v8h-3.5v-17.2Z"/>
          <path class="st16" d="M123,74.4l-3.3-.3c.2-1.3.7-2.2,1.6-2.9s2.1-1,3.5-1,2.1.2,2.9.7c.7.5,1.2,1,1.4,1.6s.3,1.5.3,2.8v5c0,1.6.1,2.5.2,2.8h-3.3c0-.3-.2-1-.2-1.9-.8,1.5-1.9,2.2-3.5,2.2s-1.8-.3-2.4-.9-.9-1.4-.9-2.6.5-2.5,1.4-3.3,2.6-1.2,5.1-1.4v-.5c0-.8,0-1.4-.3-1.8s-.5-.5-1-.5c-.9.1-1.4.7-1.5,2ZM125.7,77c-1,0-1.8.3-2.2.7-.4.3-.7.9-.7,1.7s.4,1.6,1.2,1.6.8-.2,1.2-.7c.3-.5.5-1.4.5-2.6v-.7Z"/>
          <path class="st16" d="M132.3,66.5h3.4c0,0,0,3.9,0,3.9h2.3v2.8h-2.3v4.6c0,.9,0,1.4.1,1.7,0,.3.2.5.4.6.2.2.6.3,1.1.3h1v2.6c-.8.2-1.5.3-2.2.3-1.1,0-1.9-.2-2.5-.6s-.9-.9-1.1-1.5c-.2-.6-.2-1.6-.2-2.9v-5h-1.4v-2.8h1.4v-4Z"/>
        </g>
      </g>
      <g>
        <circle class="st22" cx="72.1" cy="119.5" r="5.3"/>
        <path class="st22" d="M59.2,127.8s11.3.9,16.5-3c5.2-3.8,8.7-10.6,8.7-10.6,0,0-1.6,11.9-7,23.2-4.4,9.4-7.7,14.4-8.9,15.8,0,.1-.4-.1-.4-.1,0,0,.7-.5,1.3-4.2.6-3.7.8-3.8.8-3.8,0,0-5.5,7.4-6.2,8.1-.8.7-.4-.3-.4-.3,0,0,15.3-22.5-4.4-25.1Z"/>
      </g>
      <g>
        <circle class="st22" cx="135.7" cy="120.6" r="4.9"/>
        <path class="st22" d="M125.9,114.1s2.2,16.4.9,21.7-8.1,16.9-8.1,16.9c0,0,8.6-8.3,11.4-8.7s10.5,8.7,10.5,8.7c0,0-4.9-9.8-5.6-15.8s10.4-6.7,10.4-6.7c0,0-9.6-1.8-13.3-4.7s-6.2-11.4-6.2-11.4Z"/>
      </g>
    </g>
  </g>
  <g id="Cards" class="st29">
    <path class="st75" d="M55.6,171.4h-.6c-7.3-.2-14.2-4.9-17-11.7L10.5,93.2c-1-2.4-1.5-4.9-1.5-7.5h0c.2-7.6,4.9-14.3,12-17.2l107.9-44.8c2.3-.9,4.7-1.4,7.1-1.4,7.5,0,14.1,4.3,17.2,11.1,6.9,1.2,12.6,6.1,14.8,12.8,6.6,2.3,11.3,8.1,12.4,15.1l10.5,71.2h0c.3,2.8.1,5.2-.4,7.4-2,7.4-8.2,12.9-15.6,13.8l-115.8,17.5h-1.1c-.8.1-1.6.2-2.4.2Z"/>
    <path class="st39" d="M186.9,133l-10.5-71.1c-.9-6-5.3-10.9-11.2-12.4-.2,0-.3,0-.5,0l-.3-1.2c-1.6-5.9-6.5-10.2-12.5-11-.5,0-1,0-1.5,0l-.6-1.5c-2.3-5.6-7.8-9.3-13.8-9.3s-3.8.4-5.6,1.1L22.4,72.2c-5.6,2.2-9.3,7.6-9.4,13.5,0,2.1.4,4,1.2,6l27.5,66.5c2.2,5.3,7.6,9,13.4,9.2h.5c.7,0,1.4-.1,2.1-.2h.9l115.6-17.5c5.8-.7,10.8-5,12.3-10.8.5-1.7.6-3.7.4-5.9Z"/>
    <path class="st1" d="M51.8,166.7c-5.6-1.6-9.9-6.5-10.8-12.2l-10.5-71.3c-.3-2-.2-4.1.3-6.1,1.6-5.7,6.5-10,12.5-10.8l115.6-17.2c1.9-.3,3.8-.2,5.7.3,5.9,1.5,10.3,6.3,11.2,12.4l10.5,71.1c.2,2.3.1,4.2-.3,5.9-1.5,5.8-6.5,10.1-12.3,10.8l-115.8,17.6c-2,.2-4,0-5.7-.4-.1-.1-.3-.1-.4-.1Z"/>
    <path class="st44" d="M52.8,166.7c-5.8-.9-10.6-5.3-12.1-10.9l-18.7-69.5c-.6-2-.7-4-.4-6.1.9-5.8,5.3-10.6,11.1-12.1l112.8-30.4c1.9-.5,3.8-.6,5.7-.4,6,.8,10.9,5.1,12.5,11l18.7,69.4c.5,2.2.6,4.2.4,5.9-.9,5.9-5.3,10.8-11,12.1l-112.8,30.8c-1.9.4-4,.5-5.7.2h-.5Z"/>
    <path class="st22" d="M54.4,167.4c-5.8-.2-11.2-3.9-13.4-9.2L13.4,91.7c-.8-1.9-1.2-3.9-1.2-6,.2-5.9,3.9-11.2,9.4-13.5l107.9-44.8c1.8-.7,3.7-1.1,5.6-1.1,6.1,0,11.5,3.6,13.8,9.3l27.5,66.4c.8,2.2,1.1,4.1,1.1,5.8-.1,6-3.8,11.4-9.3,13.5l-107.7,45.1c-1.9.6-3.9,1-5.6,1h-.5Z"/>
    <g>
      <path d="M58.4,118.1l5.1-1.7c.9,2.7.9,5.3,0,7.6-.8,2.3-2.5,3.9-5,5-3,1.2-5.8,1-8.3-.6-2.5-1.6-4.5-4.4-6.1-8.3-1.6-4-2.1-7.4-1.4-10.3.7-2.9,2.5-5,5.7-6.2,5.1-2.1,9.2,0,12.3,6.1l-4.8,2.4c-1.6-3.6-3.5-5-5.7-4.1-1.1.5-1.8,1.4-2,2.9-.2,1.4.4,3.9,1.8,7.3,1.2,3,2.4,5,3.5,5.9s2.2,1.1,3.5.6c1.8-1,2.3-3.2,1.3-6.6Z"/>
      <path d="M64.8,97.2l5.4-2.2,17,21.8-5.5,2.2-3.3-4.6-6.9,2.8.9,5.6-5,2-2.6-27.6ZM75.8,110.7l-6.6-9.1,1.7,11.1,4.9-2Z"/>
      <path d="M79.4,91.3l7.7-3.1c1.5-.6,2.7-1,3.5-1.2.9-.2,1.8,0,2.9,0,1.1.3,2,.8,2.9,1.7.9.9,1.6,2,2.1,3.3,1.2,3.1,1,5.7-.8,7.9l8.9,8.9-5.9,2.4-7.2-8.4-2.7,1.1,3.9,9.7-5.4,2.2-9.9-24.6ZM86.4,93.1l2.8,6.9,2.4-1c2.1-.9,2.7-2.5,1.7-4.8-.3-.8-.8-1.4-1.3-1.8s-1-.6-1.5-.6-1.1,0-1.9.5l-2.2.8Z"/>
      <path d="M99.5,83.2l5.8-2.4c2.5-1,4.7-1.5,6.6-1.5s3.6.8,5.3,2.2c1.7,1.4,3.2,3.7,4.4,6.8.9,2.2,1.4,4.3,1.5,6.2,0,1.9,0,3.6-.6,5s-1.3,2.5-2.4,3.3c-1,.8-2.4,1.6-4.2,2.3l-6.5,2.6-9.9-24.5ZM106.7,85.2l6.6,16.2.9-.4c1.3-.5,2.1-1.1,2.6-1.9s.7-1.8.6-3.2c0-1.4-.6-3.2-1.5-5.4-.8-2.1-1.7-3.6-2.6-4.6-.9-.9-1.8-1.5-2.6-1.6-.8,0-1.9,0-3,.5l-1,.4Z"/>
      <path d="M137.5,74l-3.8,3.5c-1.5-1.8-3-2.3-4.7-1.6-.8.3-1.3.8-1.6,1.4-.3.6-.3,1.3,0,1.9.3.7.8,1.1,1.5,1.3.7.2,2.1.3,4.1.2,1.8,0,3.3,0,4.5.2,1.1.2,2.2.7,3.2,1.5s1.7,1.8,2.2,3.1c.9,2.3.9,4.5-.1,6.6s-2.8,3.7-5.5,4.8c-4.5,1.8-8.2.7-11.3-3.3l4.2-3.3c1.6,2.2,3.4,3,5.5,2.1.9-.4,1.6-.9,2-1.7.4-.7.4-1.5.1-2.3-.2-.6-.7-1.1-1.3-1.4s-1.7-.4-3.4-.4c-2.2,0-3.8,0-5,0-1.1-.2-2.2-.6-3.2-1.4s-1.8-1.8-2.3-3.1c-.9-2.2-.9-4.3,0-6.3.9-2,2.5-3.5,4.8-4.4,4.3-1.5,7.7-.7,10.3,2.7Z"/>
    </g>
  </g>
  <g id="digibiz" class="st29">
    <g>
      <path class="st22" d="M74.5,130.9v-56.9h25.3c13,0,19.5,4.6,19.5,13.9s-3.9,10.8-11.8,12.7c9.5,1.9,14.2,6.9,14.2,15.1s-6.4,15.1-19.1,15.1h-28.1ZM91,98.8h5.1c4.7,0,7-3.5,7-10.4s-2.5-9.6-7.5-9.6h-4.6v20ZM91,126.2h4.7c6.2,0,9.2-3.5,9.2-10.6s-3.2-12.1-9.5-12.1h-4.4v22.7ZM127.5,130.9v-42c4.7,0,9.8-.4,15.2-1.1v43h-15.2ZM135.2,72.6c4.7,0,7.1,1.8,7.1,5.5s-2.4,5.5-7.1,5.5-7.1-1.8-7.1-5.5c.1-3.6,2.4-5.5,7.1-5.5ZM182.9,88.9v4.7l-18.4,32.5h18.4v4.7h-35v-5.2l18.3-32.1h-16.5v-4.7h33.2Z"/>
      <g>
        <path class="st22" d="M47.8,101.9l2,3.8c0,0,.2.2.3,0l1.7-.9c0,0,.2,0,.3,0,1,1.1,2.2,2,3.5,2.6,0,0,.2.2,0,.3l-.4,1.9c0,0,0,.3.2.3l4.2.9c0,0,.3,0,.3-.2l.4-1.9c0,0,0-.2.2-.2.9,0,1.8-.2,2.7-.4,0,0,.2,0,.3,0l1,1.7c0,0,.2.2.3,0l3.7-2.1c0,0,.2-.2,0-.3l-1-1.7c0,0,0-.2,0-.3.7-.7,1.3-1.4,1.8-2.2,0,0,.2,0,.3,0l1.9.6c0,0,.3,0,.3-.2l1.3-4.1c0,0,0-.3-.2-.3l-1.9-.6c0,0-.2,0-.2-.2,0-1.2,0-2.4-.3-3.7,0,0,0-.2,0-.3l1.7-.9c0,0,.2-.2,0-.3l-2-3.8c0,0-.2-.2-.3,0l-1.7.9c0,0-.2,0-.3,0-1-1.1-2.2-2-3.5-2.6,0,0-.2-.2,0-.3l.4-1.9c0,0,0-.3-.2-.3l-3.9-.9c0,0-.3,0-.3.2l-.4,1.9c0,0,0,.2-.2.2-.9,0-1.8.2-2.7.4,0,0-.2,0-.3,0l-1-1.7c0,0-.2-.2-.3,0l-3.8,2.1c0,0-.2.2,0,.3l1,1.7c0,0,0,.2,0,.3-.7.7-1.3,1.4-1.8,2.2-.1.2-.2.2-.3.2l-1.9-.6c0,0-.3,0-.3.2l-1.3,4.1c0,0,0,.3.2.3l1.9.6c0,0,.2,0,.2.2,0,1.2,0,2.4.3,3.7,0,0,0,.2,0,.3l-1.7.9c-.3,0-.3.1-.3.2ZM58.2,90c3.6-1.1,7.5.6,9.3,3.9,2.3,4.5,0,9.9-4.8,11.4-3.6,1.1-7.5-.6-9.3-3.9-2.4-4.6-.1-10,4.8-11.4Z"/>
        <path class="st22" d="M32.8,88.7l1.5,2.7c0,0,0,0,.2,0l1.2-.7h.2c.7.8,1.6,1.4,2.5,1.9,0,0,0,0,0,.2l-.3,1.4c0,0,0,.2,0,.2l3,.6c0,0,.2,0,.2,0l.3-1.4c0,0,0,0,.2,0,.7,0,1.3,0,2-.3,0,0,.2,0,.2,0l.7,1.2c0,0,.2,0,.2,0l2.7-1.5c0,0,0-.2,0-.2l-.7-1.2v-.2c.5-.5.9-1,1.3-1.6,0,0,0,0,.2,0l1.3.4c0,0,.2,0,.2,0l1-2.9c0,0,0-.2,0-.2l-1.3-.4c0,0,0,0,0-.2,0-.9,0-1.7-.2-2.6,0,0,0-.2,0-.2l1.2-.7c0,0,0,0,0-.2l-1.5-2.7c0,0,0,0-.2,0l-1.2.7h-.2c-.7-.8-1.6-1.4-2.5-1.9,0,0,0,0,0-.2l.3-1.4c0,0,0-.2,0-.2l-3-.6c0,0-.2,0-.2,0l-.3,1.4c0,0,0,0-.2,0-.7,0-1.3,0-2,.3,0,0-.2,0-.2,0l-.7-1.2c0,0-.2,0-.2,0l-2.7,1.5c0,0,0,.2,0,.2l.7,1.2v.2c-.5.5-.9,1-1.3,1.6,0,0,0,0-.2,0l-1.3-.4c0,0-.2,0-.2,0l-1,2.9c0,0,0,.2,0,.2l1.3.4c0,0,0,0,0,.2,0,.9,0,1.7.2,2.6,0,0,0,.2,0,.2l-1.2.7c-.2,0-.2.1,0,.2ZM40.2,80.1c2.6-.8,5.4.4,6.6,2.8,1.7,3.2,0,7.1-3.5,8.2-2.6.8-5.4-.4-6.6-2.8-1.7-3.2,0-7.1,3.5-8.2Z"/>
        <path class="st22" d="M34.8,103.8l1,1.9c0,0,0,0,.2,0l.9-.5h0c.5.5,1.1,1,1.7,1.3h0c0,0-.2,1.1-.2,1.1q0,0,0,0l2.1.4q0,0,0,0l.2-1c0,0,0,0,0,0,.5,0,.9,0,1.4-.2q0,0,0,0l.5.9c0,0,0,0,.2,0l1.9-1.1c0,0,0,0,0-.2l-.5-.9h0c.4-.4.7-.8.9-1.2h0c0,0,.9.2.9.2q0,0,0,0l.7-2q0,0,0,0l-.9-.3c0,0,0,0,0,0,0-.6,0-1.2-.2-1.8q0,0,0,0l.9-.5c0,0,0,0,0-.2l-1-1.9c0,0,0,0-.2,0l-.9.5h0c-.5-.5-1.1-1-1.7-1.3h0c0,0,.2-1.1.2-1.1q0,0,0,0l-2.1-.4q0,0,0,0l-.2,1c0,0,0,0,0,0-.5,0-.9,0-1.4.2q0,0,0,0l-.5-.9c0,0,0,0-.2,0l-1.9,1.1c0,0,0,0,0,.2l.5.9h0c-.4.4-.7.8-.9,1.2h0c0,0-.9-.2-.9-.2q0,0,0,0l-.7,2q0,0,0,0l.9.3c0,0,0,0,0,0,0,.6,0,1.2.2,1.8q0,0,0,0l-.9.5v.2ZM40,97.8c1.8-.5,3.8.3,4.6,2,1.2,2.2,0,5-2.4,5.7-1.8.5-3.8-.3-4.6-2-1.2-2.2,0-4.9,2.4-5.7Z"/>
        <path class="st22" d="M52.2,84l1.8,1.2h.2l.6-.8s0,0,0,0c.7.3,1.4.4,2.1.4s0,0,0,0l.3,1c0,0,0,0,0,0l2.1-.6c0,0,0,0,0,0l-.3-1q0,0,0,0c.4-.2.8-.5,1.1-.8h0l.8.5h.2l1.2-1.8v-.2l-.9-.7s0,0,0,0c.2-.5.3-.9.3-1.4s0,0,0,0l1-.2c0,0,0,0,0,0l-.3-2.1c0,0,0,0,0,0l-1,.2q0,0,0,0c-.2-.6-.6-1.1-1-1.6h0c0,0,.6-.9.6-.9v-.2l-1.8-1.2h-.2l-.6.8s0,0,0,0c-.7-.3-1.4-.4-2.1-.4s0,0,0,0l-.3-1c0,0,0,0,0,0l-2.1.6c0,0,0,0,0,0l.3,1q0,0,0,0c-.4.2-.8.5-1.1.8h0l-.8-.5h-.2l-1.2,1.8v.2l.8.5s0,0,0,0c-.2.5-.3.9-.3,1.4s0,0,0,0l-1,.2c0,0,0,0,0,0l.3,2.1c0,0,0,0,0,0l1-.2q0,0,0,0c.2.6.6,1.1,1,1.6h0c0,0-.6.9-.6.9q0,.3,0,.4ZM54.1,76.3c1.4-1.3,3.5-1.4,5-.3,2.1,1.5,2.3,4.4.4,6.2-1.4,1.3-3.5,1.4-5,.3-2.1-1.5-2.3-4.5-.4-6.2Z"/>
        <path class="st22" d="M24.2,97.8l1,1.9c0,0,.1,0,.2,0l.9-.5h.1c.5.5,1.1,1,1.7,1.3h.1c0,0-.2,1.1-.2,1.1q0,0,.1,0l2.1.4q.1,0,.1,0l.2-1c0,0,.1,0,.1,0,.5,0,.9,0,1.4-.2q0,0,0,0l.5.9c0,0,0,0,.2,0l1.9-1.1c0,0,0,0,0-.2l-.5-.9h0c.4-.4.7-.8.9-1.2h0c0,0,.9.2.9.2q0,0,0,0l.7-2q0,0,0,0h-.8c0-.1,0-.2,0-.2,0-.6,0-1.2-.2-1.8q0,0,0,0l.9-.5c0,0,0,0,0-.2l-1-1.9c0,0,0,0-.2,0l-.9.5h0c-.5-.5-1.1-1-1.7-1.3h0c0,0,.2-1.1.2-1.1q0,0,0,0l-2.1-.4q-.1,0-.1,0l-.2,1c0,0-.1,0-.1,0-.5,0-.9,0-1.4.2q-.1,0-.1,0l-.5-.9c0,0-.1,0-.2,0l-1.9,1.1c-.1,0-.1,0,0,.2l.5.9h0c-.4.4-.7.8-.9,1.2h-.1c0,0-.9-.2-.9-.2q-.1,0-.1,0l-.7,2q0,0,.1,0l.9.3c.1,0,.1,0,.1,0,0,.6,0,1.2.2,1.8q0,0-.1,0l-.9.5c-.1,0-.1,0-.1,0ZM29.4,91.8c1.8-.5,3.8.3,4.6,2,1.2,2.2,0,5-2.4,5.7-1.8.5-3.8-.3-4.6-2-1.2-2.2-.1-4.9,2.4-5.7Z"/>
      </g>
    </g>
    <g>
      <path class="st22" d="M38.3,110.2v17c0,1.3,0,2.7,0,3.6h-2.3v-2.4h-.2c-.8,1.6-2.5,2.8-4.8,2.8-3.4,0-6-2.9-6-7.2s2.9-7.6,6.3-7.6,3.6,1,4.3,2.2h0v-8.4h2.5ZM35.7,122.5c0-.3,0-.8,0-1.1-.4-1.6-1.8-3-3.7-3-2.7,0-4.2,2.3-4.2,5.4s1.4,5.2,4.2,5.2,3.3-1.1,3.8-3.1c0-.3,0-.7,0-1.1v-2.3h0Z"/>
      <path class="st22" d="M45.4,112.8c0,.9-.6,1.6-1.6,1.6s-1.5-.7-1.5-1.6.7-1.6,1.6-1.6c.9,0,1.5.7,1.5,1.6ZM42.5,130.9v-14.1h2.6v14.1h-2.6Z"/>
      <path class="st22" d="M61.5,116.8c0,1,0,2.2,0,3.9v8.2c0,3.2-.6,5.2-2,6.4-1.4,1.3-3.4,1.7-5.1,1.7s-3.6-.4-4.7-1.2l.6-2c.9.6,2.4,1.1,4.1,1.1,2.6,0,4.5-1.4,4.5-4.9v-1.6h0c-.8,1.3-2.3,2.4-4.5,2.4-3.5,0-6-3-6-6.9s3.1-7.5,6.4-7.5,3.8,1.3,4.4,2.4h0v-2.1c0,0,2.4,0,2.4,0h0ZM58.9,122.3c0-.4,0-.8,0-1.2-.5-1.5-1.7-2.7-3.6-2.7s-4.2,2.1-4.2,5.3,1.4,5.1,4.2,5.1,3-1,3.6-2.6c0-.4.2-.9.2-1.4v-2.5h-.1Z"/>
      <path class="st22" d="M68.3,112.8c0,.9-.6,1.6-1.6,1.6s-1.5-.7-1.5-1.6.7-1.6,1.6-1.6c.9,0,1.5.7,1.5,1.6ZM65.5,130.9v-14.1h2.5v14.1h-2.5Z"/>
    </g>
  </g>
  <g id="pdfkit" class="st29">
    <g id="pdf">
      <path class="st76" d="M130.7,152.3h-59.6c-4.7,0-8.6-3.8-8.6-8.6V53.8c0-4.7,3.8-8.6,8.6-8.6h35.6l32.7,34.8v63.7c0,4.7-3.9,8.6-8.7,8.6Z"/>
      <path class="st28" d="M71.1,155.3c-6.4,0-11.6-5.2-11.6-11.6V53.8c0-6.4,5.2-11.6,11.6-11.6h36.9l34.4,36.6v64.9c0,6.4-5.2,11.6-11.6,11.6h-59.7Z"/>
      <path class="st51" d="M130.7,152.3h-59.6c-4.7,0-8.6-3.8-8.6-8.6V53.8c0-4.7,3.8-8.6,8.6-8.6h35.6l32.7,34.8v63.7c0,4.7-3.9,8.6-8.7,8.6Z"/>
      <path class="st65" d="M106.3,69.6l.3-24.4,32.7,34.8h-22.8c-5.7,0-10.2-4.7-10.2-10.4Z"/>
      <g>
        <path class="st22" d="M79.6,106v6.5h-4.9v-18h6.8c1.7,0,3,.2,3.9.7.9.4,1.6,1.1,2.1,2s.8,1.9.8,3c0,1.7-.5,3.1-1.6,4.2s-2.5,1.6-4.2,1.6c0,0-2.9,0-2.9,0ZM79.5,102.1h1.6c1.4,0,2.2-.6,2.2-1.8s-.7-1.7-2-1.7h-1.8s0,3.5,0,3.5Z"/>
        <path class="st22" d="M94.7,112.5v-18h6.1c2.7,0,4.7.9,6,2.7,1.3,1.8,2,3.9,2,6.2s-.7,4.9-2.1,6.6-3.3,2.5-5.5,2.5c0,0-6.5,0-6.5,0ZM99.6,108.4h1.3c.8,0,1.5-.4,2-1.3.6-.9.8-2.1.8-3.6s-.2-2.4-.7-3.4c-.5-.9-1.2-1.4-2.1-1.4h-1.3s0,9.7,0,9.7Z"/>
        <path class="st22" d="M125.6,105.8h-5.2v6.7h-4.8v-18h11.5v4.3h-6.7v2.9h5.2v4.1Z"/>
      </g>
      <g>
        <path class="st22" d="M103.1,124.6l1.5-2.5c.4-.6.7-1.1,1-1.4.2-.3.5-.7.9-1,.6-.7,1.3-1.1,1.9-1.2.5,0,.7,0,.8.4,0,.3,0,.5,0,.8s-.2.6-.4.8c-.3.5-.9,1.2-1.9,2.1-.7.7-1.3,1.3-1.6,1.8.2.5.4.9.5,1.2.2.4.3.7.5.9.2.3.4.6.7.9.3.4.7.8,1,1.1.9.8,1.7,1.2,2.4,1.4.2.1.4.1.4.2,0,.2,0,.4-.2.6-.2.4-.5.7-.9.9-.4.3-.8.4-1.2.5-.8.2-1.5.1-2.2-.2s-1.3-.7-1.8-1.4c-.6-.7-1-1.7-1.4-2.9,0-.2,0-.4-.2-.7h0c-.2.4-.3.8-.4,1,0,.3,0,.7-.3,1.4,0,.8-.3,1.5-.4,1.9-.2.5-.4.9-.6,1.2s-.5.6-.8.8-.6.4-.8.5c-.2,0-.3,0-.5-.1,0-.1-.2-.2-.3-.4v-.3c0-1.3,0-2.5.2-3.9,0-1.3.2-2.5.3-3.7,0-1.2.3-2.2.4-3s.3-1.4.4-1.6c.2-.3.4-.5.8-.8.4-.2.8-.4,1.2-.5.4,0,.7,0,.9,0,.2,0,.3.2.4.5s0,1.5-.3,3.5c0,0,0,.4,0,.7,0,.3,0,.5,0,.7h0l.2-.2Z"/>
        <path class="st22" d="M114,130.9c-.3,0-.6,0-.9-.2s-.5-.4-.7-.7-.3-.6-.4-1.1c-.2-1-.3-2.3-.2-3.7,0-1.4.3-2.4.7-3.1,0-.3.4-.5.7-.5.4,0,.7,0,1,.3s.5.7.6,1.2c.2.8.3,1.8.3,2.9s0,2.3-.2,3.6c0,.5-.2.9-.4,1.1,0,0-.3,0-.5.2h0ZM113,121.1c-.6,0-1-.2-1.1-.9,0-.3,0-.8,0-1.3s.2-.9.4-1.2c0,0,.2-.3.3-.3,0,0,.3,0,.4-.2.3,0,.6,0,.7,0,.2,0,.3.4.4.7,0,.4,0,.9,0,1.3s-.2.8-.4,1.1c-.1.4-.4.6-.7.7h0Z"/>
        <path class="st22" d="M119.1,120h0c.2-1.4.3-2.3.5-2.8,0-.3.3-.5.5-.7.4-.4.8-.7,1.3-.8.3,0,.5,0,.6,0,.2,0,.3.2.3.5s0,.5,0,1c-.2.8-.3,1.6-.3,2.3h1.1c.1,0,.2.2.3.4,0,.3,0,.7,0,1,0,.3-.3.6-.5.8-.2,0-.5.3-1,.4v1.1c0,.4,0,.9.2,1.6,0,.3,0,.5,0,.7.2,1,.8,1.4,1.8,1.2h.3c0,0,0,.3-.2.6-.2.3-.4.6-.6.8-.2.3-.5.5-.8.7s-.6.3-.9.4c-.7.1-1.3,0-1.8-.3s-.9-.9-1-1.6c0-.3,0-.7,0-1.3s0-1.3,0-2.2v-.8h-.6c0,0-.2-.2-.3-.5,0-.4,0-.8.2-1.2.3-.8.7-1.1,1-1.3Z"/>
      </g>
    </g>
  </g>
  <g id="vcall" class="st29">
    <circle class="st11" cx="99.7" cy="99.6" r="71.7"/>
    <path class="st22" d="M80.5,84.4c.4,14.2,5.3,28,13.9,39.3l13.1-4.6c1.7-.6,3.4-.2,4.6,1,3.8,3.6,8.3,6.8,13.3,9.2,2.2,1.1,3.2,3.7,2.1,6l-6.7,14.1c-1.1,2.2-3.7,3.2-6,2.1-37.9-18.2-53.9-63.6-35.9-101.4,1.1-2.2,3.7-3.2,6-2.1l14.1,6.7c2.2,1.1,3.2,3.7,2.1,6-2.4,5-3.9,10.3-4.6,15.5-.2,1.6-1.3,3-3,3.6l-13,4.6Z"/>
  </g>
  <g id="vmeet" class="st29">
    <circle class="st45" cx="99.7" cy="99.6" r="71.7"/>
    <path class="st22" d="M122,95.4v-12.3c0-1.9-1.6-3.5-3.5-3.5h-42.4c-1.9,0-3.5,1.6-3.5,3.5v35.3c0,1.9,1.6,3.5,3.5,3.5h42.3c1.9,0,3.5-1.6,3.5-3.5v-12.4l14.1,14.1v-38.8"/>
  </g>
  <g id="assets" class="st29">
    <g id="Assets">
      <path class="st32" d="M187.1,123.5c0-17.5-11.3-31.9-26-34,.8-2.9,1.3-5.9,1.3-9.1,0-21.1-19.9-38.3-44.4-38.3s-35.2,10.3-41.5,24.7c-3.3-1.4-6.8-2.2-10.5-2.2-13.7,0-25.2,10.6-28.7,25.1-13.9,2.9-24.4,16.9-24.4,33.7s13.3,34.3,29.7,34.3h115.6c16.1-.5,28.9-15.6,28.9-34.2Z"/>
      <path class="st41" d="M181.6,122.1c0-16.4-10.6-29.9-24.4-31.9.8-2.7,1.2-5.6,1.2-8.5,0-19.8-18.6-35.9-41.6-35.9s-33,9.6-38.9,23.2c-3.1-1.3-6.4-2.1-9.8-2.1-12.8,0-23.6,10-26.9,23.5-13,2.7-22.8,15.8-22.8,31.6s12.5,32.1,27.9,32.1h108.6c14.8-.5,26.7-14.7,26.7-32Z"/>
      <g>
        <path class="st73" d="M93.4,83.9v-2.5c0-1.9-1.5-3.4-3.4-3.4h-19c-1.9,0-3.4,1.5-3.4,3.4v2.5h-1.7v29.3h77.3v-29.3h-49.8Z"/>
        <rect class="st25" x="67.4" y="87" width="77.3" height="29.3"/>
      </g>
      <polygon class="st14" points="70.7 93.5 25.3 108.5 31.6 146.1 100 146.1 70.7 93.5"/>
      <path class="st57" d="M144.8,91.5h-48.3v-3.8c0-1.8-1.5-3.3-3.3-3.3h-28.2c-1.8,0-3.3,1.5-3.3,3.3v3.8h-2.5c-1.4,0-2.6,1.2-2.6,2.6v49c0,1.4,1.2,2.6,2.6,2.6h85.6c1.4,0,2.6-1.2,2.6-2.6v-49c0-1.5-1.1-2.6-2.6-2.6Z"/>
      <text class="st24" transform="translate(62.4 140.5)"><tspan x="0" y="0">assets</tspan></text>
      <path class="st18" d="M108.1,101.5c0-2.4-2.7-4.4-6.1-4.4s-6.1,2-6.1,4.4,1.3,3.2,3.3,3.9l-2.6,12.5c0,.4.2.8.6.8h10.1c.4,0,.7-.4.6-.8l-2.9-12.5c1.8-.8,3.1-2.2,3.1-3.9Z"/>
      <text class="st23" transform="translate(63.7 139.2)"><tspan x="0" y="0">assets</tspan></text>
    </g>
  </g>
  <g id="voice_it" class="st29">
    <text class="st21" transform="translate(26.3 166.3) scale(.9 1)"><tspan x="0" y="0">Voice It</tspan></text>
    <g>
      <path class="st46" d="M176.2,121l-157.2.4c7.5-5.7,40-10,78.9-10s69.9,4.1,78.3,9.6Z"/>
      <path class="st42" d="M177.9,122.4c-4.8,6.2-38.7,11-79.9,11s-75.2-4.8-79.9-11c.3-.3.6-.7,1-1l157.2-.4c.7.5,1.2,1,1.6,1.4Z"/>
      <path class="st67" d="M19.1,121.4c-.4.3-.8.7-1,1-.3-.3-.4-.7-.5-1h1.5Z"/>
      <path class="st10" d="M178.4,121v2.9c0,6.9-36,12.5-80.5,12.5s-80.5-5.6-80.5-12.5v-2.5h.1c.1.3.2.7.5,1,4.7,6.2,38.7,11,79.9,11s75.2-4.8,79.9-11c.4-.4.6-.9.6-1.4h0Z"/>
      <path class="st6" d="M178.4,121c0,.5-.2,1-.6,1.4-.4-.5-.9-.9-1.6-1.4h2.2Z"/>
      <path class="st4" d="M178.4,120.9q0,0,0,0c0,.6-.2,1-.6,1.5-4.8,6.2-38.7,11-79.9,11s-75.2-4.8-79.9-11c-.3-.3-.4-.7-.5-1,0-.2-.1-.3-.1-.5,0-6.9,36-12.5,80.5-12.5,44.5,0,80.5,5.6,80.5,12.5Z"/>
    </g>
    <path class="st79" d="M80.1,69s-14.6-2.1-17.8,9.9c-3.2,11.9,2.6,38.2,2.7,38.9s-1.3,1.4-1.9.3c-.6-1.1-12.1-25.8-12.1-25.8,0,0-4.7,7.6-8.9,14.2-2,3.1-3.7,5.9-4.9,7.9-1.4,2.3-1.5,2.5-2.3,3.6-.9,1.3-3.5,1.6-2.5-1.3,1.1-3.2,10.1-26.5,12.7-36.9,4-16.2-2.3-46-2.3-46,0,0,6.4,18.9,15.2,25.6,8.8,6.7,22.1,9.6,22.1,9.6Z"/>
    <circle class="st79" cx="64.8" cy="50.2" r="8.9"/>
    <path class="st56" d="M114.5,69.9s15.1-3.3,22.6-9,13.2-22.1,13.2-22.1c0,0-4.9,22.4-2,37.3,3,15.6,11.5,39.3,11.5,39.3,0,0-.6,1.5-1.9,0-1.3-1.5-15.7-24.1-15.7-24.1,0,0-9.6,21.9-10.2,23.1-.6,1.2-1.8,2.3-2.3,0,0-3.2,5.1-27,1.7-35.9s-16.9-8.5-16.9-8.5Z"/>
    <circle class="st56" cx="131.3" cy="53.2" r="8.1"/>
    <ellipse class="st92" cx="99.3" cy="87.6" rx="3" ry="2.2"/>
    <rect class="st92" x="98.1" y="88.7" width="2.4" height="29.8"/>
    <line class="st38" x1="109.4" y1="66.2" x2="100.5" y2="86.9"/>
    <line class="st38" x1="98.3" y1="87.6" x2="88.6" y2="66.4"/>
    <ellipse class="st92" cx="111.1" cy="62.7" rx="4.8" ry="3.1" transform="translate(9.4 139.7) rotate(-66.6)"/>
    <ellipse class="st92" cx="86.6" cy="62.7" rx="3.1" ry="4.8" transform="translate(-19.2 47.5) rotate(-27.7)"/>
  </g>
  <g id="celfe" class="st29">
    <path class="st40" d="M162.3,47.7l-.2,1.7-4,.3.7,10.7,11.1-2.7-1.3-10h-6.3ZM161.5,52.6l-.2-1.9,1.7.3v1.4l-1.5.2Z"/>
    <polygon class="st20" points="158.5 55 167.8 52.6 168.1 58 158.8 59.9 158.5 55"/>
    <polygon class="st2" points="38.9 93.2 35.2 94.3 34.5 92.2 38.2 91.1 38.9 93.2"/>
    <path class="st40" d="M172.4,51s-23.8,6.7-64.7,19.1c-46.6,14.2-79.8,20.7-79.8,20.7l5.4,43.6,142.8-32.3-3.7-51.1ZM42.6,92l-.6-2.1,3.7-1.1.6,2.1-3.7,1.1ZM68.3,86.6l-.6-2.1,3.7-1.1.6,2.1-3.7,1.1ZM75,84.5l-.6-2.1,3.7-1.1.6,2.1-3.7,1.1ZM80.8,122.4l-.5-2.1,3.7-.9.5,2.1-3.7.9ZM81.7,82.4l-.6-2.1,3.7-1.1.6,2.1-3.7,1.1ZM87.7,120.8l-.5-2.1,3.7-.9.5,2.1-3.7.9ZM88.5,80.3l-.6-2.1,3.7-1.1.6,2.1-3.7,1.1ZM94.6,119.2l-.5-2.1,3.7-.9.5,2.1-3.7.9ZM95.2,78.2l-.6-2.1,3.7-1.1.6,2.1-3.7,1.1ZM101.4,117.6l-.5-2.1,3.7-.9.5,2.1-3.7.9ZM101.9,76.2l-.6-2.1,3.7-1.1.6,2.1-3.7,1.1ZM169.6,54.4l.3,2.2-3.8.6-.3-2.2,3.8-.6ZM108.3,116l-.5-2.1,3.7-.9.5,2.1-3.7.9ZM108.7,74.1l-.7-2.1,3.7-1.1.6,2.1-3.6,1.1ZM115.2,114.4l-.5-2.1,3.7-.9.5,2.1-3.7.9ZM115.4,72l-.6-2.1,3.7-1.1.6,2.1-3.7,1.1ZM122,112.8l-.5-2.1,3.7-.9.5,2.1-3.7.9ZM122.1,69.9l-.6-2.1,3.7-1.1.6,2.1-3.7,1.1ZM131.9,64.6l.6,2.1-3.7,1.1-.6-2.1,3.7-1.1ZM128.9,111.2l-.5-2.1,3.7-.9.5,2.1-3.7.9ZM138.6,62.5l.6,2.1-3.7,1.1-.6-2.1,3.7-1.1ZM135.7,109.6l-.5-2.1,3.7-.9.5,2.1-3.7.9ZM145.4,60.4l.6,2.1-3.7,1.1-.6-2.1,3.7-1.1ZM142.6,108l-.5-2.1,3.7-.9.5,2.1-3.7.9ZM152.1,58.3l.6,2.1-3.7,1.1-.6-2.1,3.7-1.1ZM149.5,106.3l-.5-2.1,3.7-.9.5,2.1-3.7.9ZM156.3,104.7l-.5-2.1,3.7-.9.5,2.1-3.7.9ZM157.7,59.1l-.5-2.1,3.8-.8.5,2.1-3.8.8ZM163.2,103.1l-.5-2.1,3.7-.9.5,2.1-3.7.9ZM169.6,99.4l3.7-.9.5,2.1-3.7.9-.5-2.1Z"/>
    <path class="st12" d="M172.4,51l-47.6,14,9.4,46.7,41.9-9.5-3.7-51.2ZM169.6,54.4l.3,2.2-3.8.6-.3-2.2,3.8-.6ZM131.9,64.6l.6,2.1-3.7,1.1-.6-2.1,3.7-1.1ZM138.6,62.5l.6,2.1-3.7,1.1-.6-2.1,3.7-1.1ZM135.7,109.6l-.5-2.1,3.7-.9.5,2.1-3.7.9ZM145.4,60.4l.6,2.1-3.7,1.1-.6-2.1,3.7-1.1ZM142.6,108l-.5-2.1,3.7-.9.5,2.1-3.7.9ZM152.1,58.3l.6,2.1-3.7,1.1-.6-2.1,3.7-1.1ZM149.5,106.3l-.5-2.1,3.7-.9.5,2.1-3.7.9ZM156.3,104.7l-.5-2.1,3.7-.9.5,2.1-3.7.9ZM157.7,59.1l-.5-2.1,3.8-.8.5,2.1-3.8.8ZM163.2,103.1l-.5-2.1,3.7-.9.5,2.1-3.7.9ZM169.6,99.4l3.7-.9.5,2.1-3.7.9-.5-2.1Z"/>
    <polygon class="st72" points="117.9 109.2 158.1 100 149.9 63.4 110.2 75.7 117.9 109.2"/>
    <path class="st3" d="M161.3,99s4.8-.9,9.3-1.8c3.9-.8,5.1-1,5.1-1l-2.8-38.5-20,5.2,8.4,36.1Z"/>
    <polygon class="st59" points="85.7 117 77.7 85.5 107.4 76.6 115.7 109.7 85.7 117"/>
    <polygon class="st93" points="66 122.4 83.2 118 75.3 86.1 51.4 92.7 66 122.4"/>
    <circle class="st55" cx="49.9" cy="66.1" r="9.6"/>
    <ellipse class="st34" cx="48.5" cy="65.4" rx="9.1" ry="9.3"/>
    <path class="st91" d="M63.9,97.4s6.6-28.6,7.7-36.2-2.6-4.2-3.2-1.7-3.8,9.4-11.3,15.5-18.1,7-20.7,7.1c-2.1,0-1.4,1.2,0,1.3,1,0,7.3,1.1,9.6,3.1s2.9,11.2,2.9,11.2l15-.3Z"/>
    <path class="st40" d="M56.5,145.9l-5,3,.5,5.3s-2.9-.9-3.2-1.9-.9-6.4-.9-6.4h2.6l.3,1.2,2.6-1.2h3.1Z"/>
    <path class="st40" d="M80.5,141.8l-6.8-51H27.9l5.9,52.9s-.9,3,23.8,2.1c24.7-.8,22.9-4,22.9-4ZM38.4,92.7h4.4v2.6h-4.4v-2.6ZM30.6,95.5v-2.6h4.4v2.6h-4.4ZM39.2,143.5l-4.4-.6.4-2.5,4.4.6-.4,2.5ZM47.3,143.8h-4.4v-2.6h4.4v2.6ZM50.6,95.3h-4.4v-2.6h4.4v2.6ZM55.1,143.8h-4.4v-2.6h4.4v2.6ZM58.2,95.3h-4.4v-2.6h4.4v2.6ZM62.9,143.8h-4.4v-2.6h4.4v2.6ZM65.7,95.1h-4.4v-2.6h4.4v2.6ZM66.4,143.4l-.3-2.6,4.4-.5.3,2.6-4.4.5ZM73.1,94.9h-4.4v-2.6h4.1l.3,2.6ZM74.5,142.1l-.6-2.5,4.3-1,.6,2.5-4.3,1Z"/>
    <path class="st87" d="M80.5,141.8l-6.8-51H27.9l5.9,52.9s-.9,3,23.8,2.1c24.7-.8,22.9-4,22.9-4ZM38.4,92.7h4.4v2.6h-4.4v-2.6ZM30.6,95.5v-2.6h4.4v2.6h-4.4ZM39.2,143.5l-4.4-.6.4-2.5,4.4.6-.4,2.5ZM47.3,143.8h-4.4v-2.6h4.4v2.6ZM50.6,95.3h-4.4v-2.6h4.4v2.6ZM55.1,143.8h-4.4v-2.6h4.4v2.6ZM58.2,95.3h-4.4v-2.6h4.4v2.6ZM62.9,143.8h-4.4v-2.6h4.4v2.6ZM65.7,95.1h-4.4v-2.6h4.4v2.6ZM66.4,143.4l-.3-2.6,4.4-.5.3,2.6-4.4.5ZM73.1,94.9h-4.4v-2.6h4.1l.3,2.6ZM74.5,142.1l-.6-2.5,4.3-1,.6,2.5-4.3,1Z"/>
    <path class="st43" d="M74.5,96.9l4.9,39.3s-5,1.8-14.6,2.4c-9.6.6-17.6.5-17.6.5l-1.4-42.2s28.7,0,28.7,0Z"/>
    <path class="st88" d="M44.1,138.8l-1.3-42h-14.2l4.6,40.4s2.9.9,5.1,1.1c2.1.3,5.8.5,5.8.5Z"/>
    <path class="st85" d="M107.6,89.1c-.5.5-1.3,2.6-5.4,2.7s-5.2-3.8-5.7-4.5c-.5-.8-1.8-.3-1.2,1.4,1.2,2.2,3.6,4.9,4.6,9.7s.8,9,.7,10,.7.8.9,0c.2-.8,1.2-6.2,1.2-6.2,0,0,.6,6.1.5,6.6,0,.6.9,1,1.1,0,0-.9.6-8.2,1.2-10.8.6-2.6,2.6-7.1,3.1-8.2.3-1.1-.5-1.2-1-.7Z"/>
    <ellipse class="st62" cx="101.9" cy="87.7" rx="3.7" ry="3.1"/>
    <ellipse class="st50" cx="101.4" cy="87.6" rx="3.1" ry="3"/>
    <path class="st78" d="M163.5,132l-.9.6c-.9.6-2,1.3-4.1,1.8-.5.1-1,.2-1.5.2-2,0-3.4-1-4.2-3l11.5-2.7v-.8c0-.4-.1-1-.3-1.6-.8-3.3-3.3-7.2-7.8-7.2s-1.4,0-2.1.2c-5.2,1.2-7.8,6.1-6.4,12,1.1,4.7,4.4,7.5,8.7,7.5s1.7-.1,2.6-.3c2.8-.7,4.7-1.7,5.7-2.5l.6-.5-1.8-3.7ZM158.9,137.8c-5.1,1.2-9-1.5-10.2-6.5-1.2-5.1.9-9.7,5.7-10.8,5.4-1.3,8,3.2,8.7,6.2.1.6.2,1.1.2,1.4l-11.7,2.7c1,4.1,4,5.2,7.1,4.5,2.2-.5,3.4-1.2,4.4-1.9l1,2c-.8.7-2.6,1.7-5.2,2.4ZM103.6,146.4c-.8.6-1.7,1.2-3.2,1.5-.4.1-.9.2-1.3.2-2.4,0-4.2-1.6-4.9-4.3-.4-1.7-.2-3.2.5-4.4.7-1.1,1.8-1.8,3.2-2.1.6-.1,1.2-.2,1.8-.2s1,.1,1.5.2l1.1.3.2-4.4-.7-.2c-.6-.1-1.3-.2-2.1-.2s-1.9.1-2.8.3c-2.9.7-5.1,2.2-6.5,4.5-1.3,2.2-1.7,4.9-1.1,7.6,1.1,4.7,4.5,7.6,8.9,7.6s1.7-.1,2.5-.3c2.2-.5,4-1.5,4.9-2.3l.6-.5-1.9-3.8-.7.5ZM100.6,151.4c-5,1.2-9.1-1.5-10.3-6.6-1.2-5.1,1.4-9.7,6.9-11,1.8-.4,3.5-.3,4.4-.1v2.5c-.9-.2-2.2-.4-3.8,0-3.8.9-5.2,4.2-4.4,7.7.9,3.9,3.9,5.7,7.3,4.9,1.7-.4,2.8-1.1,3.5-1.7l1,2.2c-.7.6-2.3,1.6-4.6,2.1ZM129.2,140.7l-4.9-20.7-4.8,1.1,5.9,25.1,14.8-3.5-1-4.4-10,2.4ZM126,145.1l-5.4-23.2,3-.7,4.9,20.7,9.9-2.3.6,2.5-13,3ZM146.3,121.8l-4,.9c-.9-3.9.7-4.3,1.4-4.5.4,0,.7,0,1,0s.4,0,.6,0l1.2.2-.3-4.3h-.7c-.4-.2-.8-.2-1.2-.2-.6,0-1.3,0-1.9.2-1.8.4-3.3,1.5-4.3,2.9-1.1,1.8-1.4,4.1-.7,6.9l-2.3.5,1,4.1,2.3-.5,3.4,14.4,4.8-1.1-3.4-14.4,4-.9-.9-4.2ZM142.1,126.1l3.4,14.4-3,.7-3.4-14.4-2.3.5-.5-2.3,2.3-.5-.2-.8c-.6-2.4-.5-4.6.6-6.3.9-1.4,2.3-2.2,3.7-2.5,1.1-.3,2.1-.2,2.7,0v2.4c-.4,0-1,0-1.9,0-2.6.6-2.7,3-2.1,5.6l.2.9,4-.9.5,2.3-4,.9ZM119.5,142.7c-.9.6-2,1.3-4.1,1.8-.5.1-1,.2-1.5.2h0c-2,0-3.4-1-4.2-3l11.5-2.7v-.8c0-.4,0-.9-.3-1.6-.8-3.3-3.3-7.2-7.8-7.2s-1.4.1-2.1.2c-5.2,1.2-7.8,6.1-6.4,12,1.1,4.7,4.4,7.5,8.7,7.5s1.7-.1,2.6-.3c2.8-.7,4.7-1.7,5.7-2.5l.6-.5-1.9-3.7-.8.6ZM115.8,147.9c-5.1,1.2-9-1.5-10.2-6.5-1.2-5.1.9-9.7,5.7-10.8,5.4-1.3,8,3.2,8.7,6.2,0,.6.2,1.1.2,1.4l-11.7,2.7c1,4.1,4,5.2,7.1,4.5,2.2-.5,3.4-1.2,4.4-1.9l1,2c-.9.7-2.6,1.8-5.2,2.4Z"/>
    <path class="st22" d="M105.2,149.3c-.7.6-2.3,1.6-4.6,2.1-5,1.2-9.1-1.5-10.3-6.6-1.2-5.1,1.4-9.7,6.9-11,1.8-.4,3.5-.3,4.4-.1v2.5c-.9-.2-2.2-.4-3.8,0-3.8.9-5.2,4.2-4.4,7.7.9,3.9,3.9,5.7,7.3,4.9,1.7-.4,2.8-1.1,3.5-1.7l1,2.2ZM108.5,141c1,4.1,4,5.2,7.1,4.5,2.2-.5,3.4-1.2,4.4-1.9l1,2c-.9.7-2.7,1.7-5.3,2.4-5.1,1.2-9-1.5-10.2-6.5-1.2-5.1.9-9.7,5.7-10.8,5.4-1.3,8,3.2,8.7,6.2,0,.6.2,1.1.2,1.4l-11.6,2.7ZM116.9,136.7c-.4-1.9-1.9-4.7-5.3-3.9-3.1.7-3.8,3.8-3.5,6l8.8-2.1ZM120.6,121.8l3-.7,4.9,20.7,9.9-2.3.6,2.5-13,3-5.4-23.2ZM142.5,141.2l-3.4-14.4-2.3.5-.5-2.3,2.3-.5-.2-.8c-.6-2.4-.5-4.6.6-6.3.9-1.4,2.3-2.2,3.7-2.5,1.1-.3,2.1-.2,2.7,0v2.4c-.4,0-1,0-1.9,0-2.6.6-2.7,3-2.1,5.6l.2.9,4-.9.5,2.3-4,.9,3.4,14.4-3,.7ZM151.7,130.9c1,4.1,4,5.2,7.1,4.5,2.2-.5,3.4-1.2,4.4-1.9l1,2c-.9.7-2.7,1.7-5.3,2.4-5.1,1.2-9-1.5-10.2-6.5-1.2-5.1.9-9.7,5.7-10.8,5.4-1.3,8,3.2,8.7,6.2.1.6.2,1.1.2,1.4l-11.6,2.7ZM160,126.6c-.4-1.9-1.9-4.7-5.3-3.9-3.1.7-3.8,3.8-3.5,6l8.8-2.1Z"/>
    <ellipse class="st80" cx="87.5" cy="94.7" rx="3.7" ry="3.2"/>
    <ellipse class="st74" cx="87.1" cy="94.6" rx="3.3" ry="3"/>
    <path class="st15" d="M83.8,100.2c1.7.3,4.1-.4,4.1,4s-1.5,7.6-1.8,8.6c-.2,1.1.6,1.1.9.3.3-.7,2.3-5.5,2.3-5.5,0,0,.6,1.6-1.1,5.8-.4,1,.6,1.5,1.1.4s2.7-4.8,4.2-11.2c1.5-6.4,1.6-10.1,1.6-11.1s-1-1.1-1.3-.3c-.3.8-.3,4.3-3.4,6.6-3.1,2.4-5.1,1.2-6.2,1.2-.8,0-1.3,1.2-.4,1.2Z"/>
    <path class="st54" d="M121.4,80.2c.7,1.1,3.1,5.6,1.8,11.4s-4.5,10.1-4.7,11.1,1.1.5,1.4,0,4.7-6,6.6-5.5,6.7,4.2,7.5,4.9,1.3.2.9-.4c-.4-.6-5.9-6.5-5.4-9.6.4-3.1,4.3-4.4,5.6-4.3,1.3-.2,1.1-1.4-.5-1.2-1.5.2-4.4-.7-6.4-2s-4.9-4.7-5.7-5.4c-1-.8-1.8-.2-1.1,1Z"/>
    <circle class="st77" cx="129.2" cy="80.2" r="3.5"/>
    <circle class="st71" cx="128.8" cy="79.8" r="3.1"/>
    <ellipse class="st13" cx="143.9" cy="77.3" rx="4" ry="3.5"/>
    <ellipse class="st17" cx="143.3" cy="76.8" rx="3.4" ry="3"/>
    <path class="st5" d="M137.1,74.8c0,.6.8,8.5,1.3,11.3s.7,11.1.5,12.3c-.2,1.2.6,2,1,.7.4-1.2.7-4,1.9-5s4.3,3.8,4.8,4.7c.5.9,1.7.5,1.1-.5-.6-1-3.4-4.4-2.7-10.5s4.8-6.7,5.6-7.1.8-2.1-1-1.3c-1.8.8-3,2.1-7,1.8-4-.3-4.2-5.9-4.5-6.5-.3-.5-1-.5-1,0Z"/>
    <polygon class="st64" points="74.5 96.9 79.4 136.2 79.1 136.3 73.8 96.9 74.5 96.9"/>
    <path class="st89" d="M73.8,96.9l5.3,39.4s-1.2.3-2.9.8-4.6.8-4.6.8l-4-41s6.2,0,6.2,0Z"/>
    <path class="st31" d="M161.3,99s4.8-.9,9.3-1.8c3.9-.8,5.1-1,5.1-1l-2.8-38.5-20,5.2,8.4,36.1Z"/>
    <polygon class="st61" points="175 96.3 175.7 96.2 172.9 57.7 172 57.9 175 96.3"/>
    <polygon class="st8" points="172.3 96.8 175 96.3 171.8 58 166.7 59.3 172.3 96.8"/>
  </g>
  <g id="Layer_8" class="st29">
    <path class="st33" d="M103.8,47.2l3.4-10.9s-4.2,1-7.4,6.8c0,0,1.6-5.4-2.4-10.4,0,0,.5,8.2-2.7,8.9l-3.7-4.6.5,7.1s-6.9-7.3-13.1-1.4c0,0,11.1-1.9,7.8,7s17.6-2.5,17.6-2.5Z"/>
    <path class="st26" d="M166,51.1l-10.1,83.4c-1,8.3-7.5,14.9-15.7,16h0c-8.3,1.2-16.4-3.5-19.6-11.3l-18.4-45-4.6,48c-.8,8.5-7.3,15.3-15.8,16.5h-1c-8.3,1.3-16.3-3.3-19.5-11L28.7,70.3c-3.2-7.5.9-14.9,9.8-16.6,10.4-2,17,1,19.1,6.3l18.1,45.6c.6,1.6,2.9,1.2,3.1-.4l4.2-45.1c.7-7.9,6.8-14.2,14.6-15.3h0c7.7-1.1,15.1,3.2,18.1,10.4l17.6,42.8c.6,1.5,2.9,1.2,3.1-.5l4.9-49.2c.6-5.7,5-10.3,10.7-11.1h0c8-1.1,15,5.8,14,13.9Z"/>
    <path class="st83" d="M78.1,157c-6.2,0-11.8-3.7-14.2-9.4L31.3,70.2c-1.1-2.7-1-5.8.5-8.3,1.5-2.6,4-4.3,6.9-4.7l5.9-.8c.4,0,.9,0,1.3,0,3.9,0,7.3,2.3,8.8,6l18.1,45.6c.7,1.8,2.4,2.9,4.3,2.9s4.4-1.8,4.6-4.2l4.2-45.1c.6-6.5,5.5-11.7,12-12.6.6,0,1.3,0,2,0,5.7,0,10.8,3.4,12.9,8.7l17.6,42.8c.7,1.7,2.4,2.8,4.2,2.8s4.4-1.8,4.6-4.1l4.9-49.2c.4-4.4,3.8-7.8,8.1-8.4.4,0,.9,0,1.3,0,2.7,0,5.2,1.2,7,3.2s2.6,4.7,2.3,7.4l-10.1,83.4c-.8,6.9-6.3,12.5-13.2,13.4-.7.1-1.4.2-2.2.2-6.3,0-11.9-3.8-14.3-9.6l-18.4-45-5.5.7-4.6,48c-.7,7.1-6.1,12.8-13.2,13.8h-1c-.8.2-1.5.2-2.2.2Z"/>
    <g>
      <path class="st53" d="M94.5,142.9c0,3-1.2,6-3,8.4-1.8,2.5-4.4,4.4-7.4,5.4-.7.2-1.5.5-2.3.6-.8.2-1.5.3-2.3.3-1.6.2-3.2.2-4.7-.1-3.1-.5-6.1-2.1-8.4-4.3-1.2-1.1-2.2-2.4-3-3.8-.8-1.5-1.3-2.8-1.9-4.2l-3.6-8.2-7-16.5-6.9-16.5c-2.2-5.5-4.5-11-6.7-16.6-2.1-5.3-4.3-10.8-6.5-16.4-.6-1.4-1-3.1-.9-4.6.1-1.6.5-3.1,1.3-4.5.8-1.3,1.9-2.5,3.2-3.3s2.8-1.3,4.3-1.4c-3,.5-5.5,2.6-6.7,5.1-.6,1.3-.9,2.7-.9,4.1s.4,2.7,1.1,4c2.5,5.4,4.9,10.9,7.4,16.3,2.4,5.4,4.8,10.9,7.2,16.4l7,16.5,6.9,16.5,3.4,8.3c.6,1.4,1.1,2.8,1.7,4s1.4,2.3,2.4,3.3c1.9,2,4.4,3.4,7.2,4,1.4.3,2.8.4,4.2.3.7,0,1.5-.1,2.2-.2.7-.1,1.4-.3,2.1-.4,2.7-.8,5.2-2.4,7.2-4.6,1.7-2.1,2.9-4.9,3.4-7.9Z"/>
      <path class="st60" d="M160.6,44.3c1.3,1.4,2.2,3.1,2.5,5.1.2.9.1,2,0,2.9l-.3,2.8-1,11.3c-.7,7.5-1.5,15-2.3,22.5s-1.6,15-2.5,22.5l-2.6,22.5-.2,1.4c-.1.5-.2,1-.3,1.5-.2,1-.5,2-.9,3-.8,1.9-2,3.7-3.4,5.1-2.9,3-6.9,4.9-11,5.1-4.1.3-8.3-1-11.5-3.5-1.6-1.3-3-2.9-4-4.6-.5-.9-.9-1.8-1.3-2.7l-1-2.6c-5.5-14.1-10.9-28.2-16-42.4,6.2,13.8,12.3,27.6,18.2,41.5l1.1,2.6c.4.9.7,1.6,1.2,2.4.9,1.5,2.1,2.8,3.5,3.8,2.7,2.1,6.3,3.1,9.7,2.8,3.4-.2,6.7-1.8,9.1-4.3,1.2-1.2,2.1-2.7,2.8-4.3.3-.8.6-1.6.8-2.4.1-.4.1-.8.2-1.3l.2-1.4,2.8-22.5c1-7.5,1.9-15,3-22.5,1-7.5,2.1-15,3.1-22.4l1.7-11.2.4-2.8c.2-.9.2-1.8.1-2.8-.2-1.8-.9-3.6-2.1-5.1Z"/>
      <path class="st58" d="M72.7,107.8c.6,1.4,2,2.4,3.4,2.6s2.9-.3,3.9-1.4c.5-.5.8-1.1,1-1.8,0-.6,0-1.4.2-2.2l.3-4.6c.4-6.1.8-12.2,1.3-18.3.4-6.1,1-12.2,1.5-18.3l.2-2.3c0-.8.2-1.7.4-2.5.4-1.6,1-3.2,1.9-4.7,1.8-2.9,4.5-5.1,7.7-6.3,1.6-.6,3.3-.9,4.9-.9,1.7,0,3.4.2,5,.6,3.2,1,6.1,3.1,8,5.8.2.3.5.7.7,1.1.2.4.4.7.6,1.1.2.4.4.8.5,1.1l.4,1.1,1.7,4.3c1.1,2.8,2.3,5.7,3.4,8.5,2.2,5.7,4.4,11.4,6.6,17.1l3.2,8.6.8,2.2c.3.7.5,1.5.8,2.1.7,1.3,2.1,2.2,3.7,2.2-1.5,0-3.1-.7-4-2-.5-.7-.7-1.4-1-2.1l-1-2.1-3.8-8.3c-2.5-5.6-5-11.2-7.4-16.8-1.2-2.8-2.4-5.6-3.6-8.4l-1.8-4.2-.4-1.1c0-.3-.3-.6-.4-1l-.5-.9c-.2-.3-.4-.6-.6-.9-1.6-2.2-4-3.9-6.6-4.7-1.3-.4-2.7-.6-4-.5-1.4,0-2.7.3-4,.8-2.6.9-4.8,2.7-6.2,5.1-.7,1.2-1.3,2.4-1.6,3.8-.2.7-.2,1.3-.3,2.1l-.6,2.5c-.7,6.1-1.3,12.1-2,18.2s-1.4,12.1-2.1,18.2l-.6,4.5c0,.8,0,1.5-.4,2.3s-.7,1.5-1.3,2.1c-1.2,1.2-3,1.6-4.5,1.2-1.6-.3-2.9-1.5-3.4-2.9Z"/>
    </g>
    <circle class="st33" cx="86.1" cy="59.3" r="11.7"/>
    <circle class="st33" cx="110.4" cy="55.6" r="11.7"/>
    <path class="st33" d="M89.5,74.9l23.1-3.9s3.8,13-9.9,14.7c-11.5,1.4-13.2-10.8-13.2-10.8Z"/>
    <ellipse class="st22" cx="79.5" cy="55.3" rx="3.4" ry="2.2" transform="translate(-1.6 108.2) rotate(-68)"/>
    <ellipse class="st22" cx="104.7" cy="52.3" rx="3.4" ry="2.2" transform="translate(17 129.7) rotate(-68)"/>
    <path class="st48" d="M102.8,85.7c6.5-.8,9-4,9.9-7.1-1.7-2.9-5.9-4.7-10.4-4-5.1.7-8.9,4.2-9.1,8,2,2,5,3.6,9.6,3.1Z"/>
    <path class="st81" d="M112.7,78.5c-1.2-1.7-3.1-2.7-5-3.2s-4-.6-5.9-.2c-2,.4-3.9,1.1-5.4,2.4-1.6,1.2-2.8,2.9-3.1,5,0-2.1,1-4.2,2.6-5.6,1.6-1.5,3.6-2.4,5.8-2.8,2.1-.4,4.3-.3,6.4.4,1.8.7,3.7,2.1,4.6,4Z"/>
    <path class="st81" d="M102.5,77.2c-.4.6-.2,1.2-.2,1.8,0,.6.2,1.2.3,1.9l.4,1.9c0,.6.2,1.3.3,2-.8-1.1-1.3-2.4-1.6-3.7,0-.7-.2-1.4,0-2.1,0-.3,0-.7.2-1,0-.4.4-.8.7-.8Z"/>
    <path class="st49" d="M112.7,70.9c1,3.1,1,6.8-.6,9.8-.2.4-.4.8-.7,1.1l-.9,1c-.3.3-.7.6-1,.8-.2,0-.3.3-.5.4l-.6.3c-.4.2-.8.4-1.1.6l-1.2.4c-.8.3-1.6.4-2.5.6-.8.2-1.7.2-2.5.2-.4,0-.9,0-1.3,0-.4,0-.9,0-1.3-.2-1.7-.3-3.3-1.2-4.6-2.3-2.6-2.3-4-5.6-4.4-8.8.4,1.6,1,3.2,1.8,4.6s1.8,2.7,3.1,3.7c2.5,2,5.9,2.5,9,1.9.8-.2,1.6-.2,2.3-.5l1.1-.4,1.1-.5.5-.3c.2,0,.3-.2.5-.4.3-.2.6-.5.9-.7l.8-.9c.3-.3.5-.6.7-1,.8-1.3,1.3-2.9,1.5-4.5.3-1.5.2-3.1-.1-4.8Z"/>
  </g>
  <path class="st94" d="M157.8,98.7c-.6-.8-1.5-1.4-2.5-1.8,11.2-25.1,10.4-47-2.4-57.5-2.6-2.2-5.8-3.8-9.6-5-.4-.1-.8-.2-1.1-.2-1.6,0-3,.9-3.7,2.4-.8,1.9,0,4.1,1.7,5.1.7.4,1.4.8,2.1,1.3,8.3,7.1,7.1,25-3.2,45.8-.6,1.2-.5,2.6,0,3.7-1-.2-2-.2-3.1-.2-3.1,0-5.8.7-8.1,2.1-1.4.9-2.6,1.9-3.5,3.2-1.1-1.5-2.5-2.6-4.2-3.5,0,0-.1,0-.2,0-1.2-.5-2.4-.9-3.8-1.1.6-.7,1-1.7,1-2.6v-11.9c0,0,4.1-2,4.1-2,1.1-.5,2-1.6,2.2-2.8.3-1.2-.1-2.5-1-3.5l-7.4-8.2c-.5-.5-1-.9-1.7-1.1l-27.1-9.2c-.4-.1-.9-.2-1.3-.2s-.9,0-1.4.2l-28,10.3c-.6.2-1.2.6-1.6,1.1l-8.2,9.1c-.9,1-1.2,2.3-.9,3.6.3,1.3,1.2,2.3,2.4,2.8l4.9,2v16.4c.1,1.6,1.1,3.1,2.6,3.7l14.5,5.9c.5.2,1,.3,1.5.3s1.4-.2,2.1-.6c.9-.5,1.5-1.4,1.8-2.3,0,.5,0,1,0,1.5v3c0,1.1.4,2.1,1.2,2.8.7.7,1.8,1.2,2.8,1.2s2.7,0,2.7,0v2.1h-2.6c-2.2,0-4,1.8-4,4v2.8c0,3.8.4,6.6,1,8.3.8,2.3,2.5,4.2,4.9,5.5,2.2,1.2,4.9,1.8,8.5,1.8s5.7-.6,7.8-1.7c1.6-.8,2.9-2,3.9-3.4.7,1,1.6,1.8,2.6,2.5-.7.1-1.3.4-1.9.8-13.2,10.6-26.4,16.6-36.4,16.6h0c-4.2,0-7.6-1.1-10.1-3.2-2.9-2.4-4.7-6.2-5.4-11.2-.3-2-2-3.5-4-3.5s-.2,0-.3,0c-2.1.2-3.7,2-3.7,4.1.3,10.2,3.8,18.4,10.1,23.6,4.9,4,11.1,6.1,18.3,6.1,15.9,0,35.9-10.1,53.6-27.1,1.4-1.4,1.6-3.6.5-5.2-.5-.8-1.3-1.3-2.1-1.5.8-.6,1.6-1.3,2.2-2.1.1-.2.3-.4.4-.5.2.2.4.5.6.7,1.2,1.6,2.9,2.7,5.1,3.5,1.8.6,3.9.9,6.5.9s4.2-.3,5.8-1c2-.8,3.5-2,4.8-3.5,1.3-1.6,2.1-3.2,2.6-5,.4-1.5.5-3.5.5-6.8,0,0,0-8.3,0-8.3.4.1,1.2.4,2.4.4s1.2,0,2.2-.3c1.2-.4,1.9-1.1,2.3-1.5.8-.8,1.2-1.7,1.4-2.3.3-.9.3-1.8.3-2.6v-2.5c0-.6,0-1.2-.1-2,0-.8-.4-1.8-1.1-2.7Z"/>
  <g id="Layer_9">
    <g>
      <path class="st47" d="M95.3,111.8c1.3.4,2.3,1.2,3,2.2s1,3.4,1,7.1-.3,4.9-.9,6.4-1.7,2.7-3.2,3.5-3.5,1.2-5.9,1.2-4.9-.4-6.5-1.3c-1.6-.9-2.6-2-3.1-3.4-.5-1.3-.8-3.7-.8-7v-2.8h8.7c0,0,0,5.6,0,5.6,0,1.5,0,2.5.3,2.9.2.4.6.6,1.2.6s1.1-.3,1.3-.8c.2-.5.3-1.9.3-4v-2.4c0-1.3-.2-2.3-.5-2.9s-.8-1-1.3-1.2-1.7-.3-3.4-.3v-5.1c2.1,0,3.3,0,3.8-.3.5-.2.8-.5,1-1s.3-1.4.3-2.5v-1.9c0-1.2,0-2-.4-2.4s-.6-.6-1.2-.6-1,.2-1.2.6-.3,1.3-.3,2.6v2.9h-8.7c0,0,0-2.9,0-2.9,0-3.3.7-5.6,2.2-6.8,1.5-1.2,3.9-1.8,7.2-1.8s7,.8,8.4,2.4c1.5,1.6,2.2,3.8,2.3,6.7,0,1.9-.2,3.4-.8,4.2-.6,1-1.5,1.7-2.8,2.5Z"/>
      <path class="st47" d="M123.1,105.7h-8.7c0-1.5,0-2.5,0-3,0-.4-.2-.8-.5-1.1s-.7-.4-1.3-.4-.8,0-1.1.4c-.3.3-.4.6-.5,1.1s0,1.3,0,2.6v5.5c.4-.9,1.1-1.6,1.9-2.1.9-.5,1.9-.7,3.2-.7s3,.4,4.2,1.3c1.2.8,2,1.9,2.3,3.1s.5,2.8.5,4.9v2.8c0,2.4,0,4.2-.2,5.4-.2,1.2-.7,2.3-1.5,3.3-.8,1-1.9,1.8-3.3,2.4-1.4.6-3,.9-4.9.9s-4.3-.3-5.7-.9c-1.5-.6-2.7-1.6-3.5-2.8s-1.3-2.5-1.5-3.8c0-1.3-.2-3.9-.3-7.8v-4.8c0-4.1,0-6.9,0-8.3s.6-2.7,1.5-4,2-2.2,3.6-2.8c1.5-.6,3.2-1,5.2-1s4.4.4,6,1.1c1.6.8,2.7,1.9,3.4,3.3.8,1.4,1.2,3.2,1.2,5.4ZM114.5,116.6c0-1.2-.2-2.1-.4-2.5-.3-.5-.7-.7-1.3-.7s-1,.2-1.3.7c-.3.4-.4,1.3-.4,2.6v6.3c0,1.5.3,2.5.5,3,.3.5.7.7,1.3.7s.8-.2,1.2-.6c.4-.4.6-1.4.6-3l-.2-6.5Z"/>
      <path class="st47" d="M146.6,108.1v11.6c.1,2.6,0,4.6-.3,5.8-.3,1.2-.9,2.3-1.8,3.4-.9,1.1-2,1.8-3.2,2.3s-2.7.7-4.3.7-3.8-.2-5.2-.7-2.5-1.2-3.3-2.2-1.4-2.1-1.8-3.2-.5-2.9-.6-5.4v-12.1c0-3.2,0-5.6.7-7.2s1.6-2.9,3.3-3.9c1.6-1,3.6-1.5,6-1.5s3.6.3,5.1,1,2.6,1.5,3.4,2.4c.8,1,1.3,2,1.5,3.2.3,1.2.5,3.1.5,5.8ZM137.9,105.2c0-1.8-.1-3-.3-3.5s-.6-.7-1.3-.7-1.1.3-1.3.8-.3,1.6-.3,3.4v17c.1,2,.2,3.2.4,3.7.2.4.6.6,1.3.6s1.1-.3,1.3-.7c.2-.5.3-1.6.3-3.3v-17.3Z"/>
    </g>
    <path class="st95" d="M142.7,90c.2,0,.4,0,.6.2,2.6,1.1,4.6,2.6,6.1,4.5.5.6.9,1.3,1.3,2,11-23.3,11.6-45.1-.3-54.9-2.4-2-5.2-3.3-8.2-4.2.9.5,1.8,1.1,2.6,1.7,10.3,8.6,8.8,28.7-2.1,50.7ZM120.1,137.6c-2.2.9-4.7,1.4-7.5,1.4h-.3c-3.2,0-5.8-.5-8.1-1.4-20.2,16.2-40.8,22.3-51.6,13.4-3.8-3.2-6-7.9-6.8-13.7.3,8.8,3.1,16,8.7,20.7,14.4,11.9,42.3,2.5,66.6-20.8-.2.1-.6.3-1,.4Z"/>
    <g>
      <path class="st35" d="M76.5,86.9l-20.1-8v17.2c0,0,14.6,5.9,14.6,5.9.4-3.8,1.2-7.3,3.9-9.4,2.7-2.1,5.4-3.5,9.7-4v-11.5c0,0-8.1,9.8-8.1,9.8Z"/>
      <path class="st84" d="M113.3,89.6v-12.3c0,0-19.7,9.2-19.7,9.2l-7.5-9.3v11.4c5.6-.6,12.9,1.2,16.5,4.7,0,0,2.5-2.1,5.5-3.1,2.4-.9,3.5-.7,5.2-.6Z"/>
      <polygon class="st9" points="86.7 75 94.3 84 119.7 72.1 112.3 63.9 112.3 63.9 112.3 63.9 112.3 63.9 112.3 63.9 85.2 54.7 57.2 65 49 74.1 75.8 84.8 83.9 74.5 59 65.7 85.2 56 110.7 64.6 86.7 75"/>
    </g>
    <g>
      <path class="st19" d="M95.3,111.8c1.3.4,2.3,1.2,3,2.2s1,3.4,1,7.1-.3,4.9-.9,6.4-1.7,2.7-3.2,3.5-3.5,1.2-5.9,1.2-4.9-.4-6.5-1.3c-1.6-.9-2.6-2-3.1-3.4-.5-1.3-.8-3.7-.8-7v-2.8h8.7c0,0,0,5.6,0,5.6,0,1.5,0,2.5.3,2.9.2.4.6.6,1.2.6s1.1-.3,1.3-.8c.2-.5.3-1.9.3-4v-2.4c0-1.3-.2-2.3-.5-2.9s-.8-1-1.3-1.2-1.7-.3-3.4-.3v-5.1c2.1,0,3.3,0,3.8-.3.5-.2.8-.5,1-1s.3-1.4.3-2.5v-1.9c0-1.2,0-2-.4-2.4s-.6-.6-1.2-.6-1,.2-1.2.6-.3,1.3-.3,2.6v2.9h-8.7c0,0,0-2.9,0-2.9,0-3.3.7-5.6,2.2-6.8,1.5-1.2,3.9-1.8,7.2-1.8s7,.8,8.4,2.4c1.5,1.6,2.2,3.8,2.3,6.7,0,1.9-.2,3.4-.8,4.2-.6,1-1.5,1.7-2.8,2.5Z"/>
      <path class="st19" d="M123.1,105.7h-8.7c0-1.5,0-2.5,0-3,0-.4-.2-.8-.5-1.1s-.7-.4-1.3-.4-.8,0-1.1.4c-.3.3-.4.6-.5,1.1s0,1.3,0,2.6v5.5c.4-.9,1.1-1.6,1.9-2.1.9-.5,1.9-.7,3.2-.7s3,.4,4.2,1.3c1.2.8,2,1.9,2.3,3.1s.5,2.8.5,4.9v2.8c0,2.4,0,4.2-.2,5.4-.2,1.2-.7,2.3-1.5,3.3-.8,1-1.9,1.8-3.3,2.4-1.4.6-3,.9-4.9.9s-4.3-.3-5.7-.9c-1.5-.6-2.7-1.6-3.5-2.8s-1.3-2.5-1.5-3.8c0-1.3-.2-3.9-.3-7.8v-4.8c0-4.1,0-6.9,0-8.3s.6-2.7,1.5-4,2-2.2,3.6-2.8c1.5-.6,3.2-1,5.2-1s4.4.4,6,1.1c1.6.8,2.7,1.9,3.4,3.3.8,1.4,1.2,3.2,1.2,5.4ZM114.5,116.6c0-1.2-.2-2.1-.4-2.5-.3-.5-.7-.7-1.3-.7s-1,.2-1.3.7c-.3.4-.4,1.3-.4,2.6v6.3c0,1.5.3,2.5.5,3,.3.5.7.7,1.3.7s.8-.2,1.2-.6c.4-.4.6-1.4.6-3l-.2-6.5Z"/>
      <path class="st19" d="M146.6,108.1v11.6c.1,2.6,0,4.6-.3,5.8-.3,1.2-.9,2.3-1.8,3.4-.9,1.1-2,1.8-3.2,2.3s-2.7.7-4.3.7-3.8-.2-5.2-.7-2.5-1.2-3.3-2.2-1.4-2.1-1.8-3.2-.5-2.9-.6-5.4v-12.1c0-3.2,0-5.6.7-7.2s1.6-2.9,3.3-3.9c1.6-1,3.6-1.5,6-1.5s3.6.3,5.1,1,2.6,1.5,3.4,2.4c.8,1,1.3,2,1.5,3.2.3,1.2.5,3.1.5,5.8ZM137.9,105.2c0-1.8-.1-3-.3-3.5s-.6-.7-1.3-.7-1.1.3-1.3.8-.3,1.6-.3,3.4v17c.1,2,.2,3.2.4,3.7.2.4.6.6,1.3.6s1.1-.3,1.3-.7c.2-.5.3-1.6.3-3.3v-17.3Z"/>
    </g>
    <path class="st19" d="M155.1,102.7v2.5c0,.6,0,1-.1,1.3s-.2.5-.4.7-.4.4-.7.5-.6,0-.9,0c-.5,0-.8,0-1.1-.2s-.5-.3-.7-.5-.3-.5-.4-.7c-.1-.2-.1-.6-.1-1.2v-2.7c0-.7.1-1.2.2-1.6.1-.3.4-.6.7-.8.4-.2.8-.3,1.3-.3s.8,0,1.1.2.6.3.7.5c.2.2.3.4.3.7,0,.5,0,.9,0,1.5ZM153.2,102.1c0-.4,0-.7-.1-.8,0,0-.1-.2-.3-.2s-.2,0-.3.2-.1.4-.1.7v3.7c0,.4,0,.7.1.8,0,0,.1,0,.3,0s.2,0,.3-.2c0,0,.1-.3.1-.7v-3.6Z"/>
  </g>
  <g id="Layer_10" class="st29">
    <g>
      <path d="M266.3-46.9c1.3.4,2.3,1.2,3,2.2s1,3.4,1,7.1-.3,4.9-.9,6.4-1.7,2.7-3.2,3.5-3.5,1.2-5.9,1.2-4.9-.4-6.5-1.3-2.6-2-3.1-3.4c-.5-1.3-.8-3.7-.8-7v-2.8h8.7c0,0,0,5.6,0,5.6,0,1.5.1,2.5.3,2.9.2.4.6.6,1.2.6s1.1-.3,1.3-.8c.2-.5.3-1.9.3-4v-2.4c0-1.3-.2-2.3-.5-2.9-.3-.6-.8-1-1.3-1.2s-1.7-.3-3.4-.3v-5.1c2.1,0,3.3,0,3.8-.3s.8-.5,1-1,.3-1.4.3-2.5v-1.9c0-1.2-.1-2-.4-2.4s-.6-.6-1.2-.6-1,.2-1.2.6c-.2.4-.3,1.3-.3,2.6v2.9h-8.7c0,0,0-2.9,0-2.9,0-3.3.7-5.6,2.2-6.8s3.9-1.8,7.2-1.8,7,.8,8.4,2.4c1.5,1.6,2.2,3.8,2.3,6.7,0,1.9-.2,3.4-.8,4.2-.6,1-1.5,1.8-2.8,2.5Z"/>
      <path d="M294.1-52.9h-8.7c0-1.5,0-2.5-.1-3,0-.4-.2-.8-.5-1.1s-.7-.4-1.3-.4-.8,0-1.1.4c-.3.3-.4.6-.5,1.1s-.1,1.3,0,2.6v5.5c.4-.9,1.1-1.6,1.9-2.1.9-.5,1.9-.7,3.2-.7s3,.4,4.2,1.3c1.2.8,2,1.9,2.3,3.1.3,1.2.5,2.8.5,4.9v2.8c0,2.4-.1,4.2-.2,5.4-.2,1.2-.7,2.3-1.5,3.3s-1.9,1.8-3.3,2.4-3,.9-4.9.9-4.3-.3-5.7-.9c-1.5-.6-2.7-1.6-3.5-2.8-.8-1.2-1.3-2.5-1.5-3.8-.1-1.3-.2-3.9-.3-7.8v-4.8c0-4.1,0-6.9.1-8.3.1-1.4.6-2.7,1.5-4s2-2.2,3.6-2.8c1.5-.6,3.2-1,5.2-1s4.4.4,6,1.1c1.6.8,2.7,1.9,3.4,3.3.8,1.4,1.2,3.2,1.2,5.4ZM285.5-42c0-1.2-.2-2.1-.4-2.5-.3-.5-.7-.7-1.3-.7s-1,.2-1.3.7c-.3.4-.4,1.3-.4,2.6v6.3c.1,1.5.3,2.5.5,3,.3.5.7.7,1.3.7s.8-.2,1.2-.6c.4-.4.6-1.4.6-3l-.2-6.5Z"/>
      <path d="M317.6-50.6v11.6c.1,2.6,0,4.6-.3,5.8s-.9,2.3-1.8,3.4-2,1.8-3.2,2.3-2.7.7-4.3.7-3.8-.2-5.2-.7c-1.4-.5-2.5-1.2-3.3-2.2s-1.4-2.1-1.8-3.2-.5-2.9-.6-5.4v-12.1c-.1-3.2,0-5.6.7-7.2s1.6-2.9,3.3-3.9c1.6-1,3.6-1.5,6-1.5s3.6.3,5.1,1,2.6,1.5,3.4,2.4c.8,1,1.3,2,1.5,3.2.3,1.3.5,3.2.5,5.8ZM308.9-53.4c0-1.8-.1-3-.3-3.5-.2-.5-.6-.7-1.3-.7s-1.1.3-1.3.8c-.2.5-.3,1.6-.3,3.4v17c.1,2,.2,3.2.4,3.7.2.4.6.6,1.3.6s1.1-.3,1.3-.7c.2-.5.3-1.6.3-3.3v-17.3Z"/>
    </g>
    <path d="M356.8-103.2c-2.4-2-5.2-3.3-8.2-4.2.9.5,1.8,1.1,2.6,1.7,14.6,12,5.8,46.8-19.6,77.6-25.5,30.9-57.9,46.1-72.5,34.1-3.8-3.2-6-7.9-6.8-13.7.3,8.8,3.1,16,8.7,20.7,16.7,13.8,51.7-1.1,78.1-33.1,26.5-32.2,34.4-69.3,17.7-83.1Z"/>
  </g>
</svg>