<?xml version="1.0" encoding="utf-8"?>
<!-- Generator: Adobe Illustrator 25.2.1, SVG Export Plug-In . SVG Version: 6.00 Build 0)  -->
<svg version="1.1" id="Layer_1" xmlns="http://www.w3.org/2000/svg" xmlns:xlink="http://www.w3.org/1999/xlink" x="0px" y="0px"
	 viewBox="0 0 200 200" style="enable-background:new 0 0 200 200;" xml:space="preserve">
<style type="text/css">
	.st0{fill:#FFFFFF;}
	.st1{fill:url(#SVGID_1_);}
	.st2{display:none;}
	.st3{display:inline;}
	.st4{fill:url(#SVGID_2_);}
	.st5{fill:url(#SVGID_3_);}
	.st6{fill:url(#SVGID_4_);}
	.st7{fill:url(#SVGID_5_);}
	.st8{fill:url(#SVGID_6_);}
	.st9{fill:url(#SVGID_7_);}
	.st10{fill:url(#SVGID_8_);}
	.st11{fill:url(#SVGID_9_);}
	.st12{fill:url(#SVGID_10_);}
	.st13{fill:url(#SVGID_11_);}
	.st14{fill:url(#SVGID_12_);}
	.st15{fill:url(#SVGID_13_);}
	.st16{fill:url(#SVGID_14_);}
	.st17{fill:url(#SVGID_15_);}
	.st18{fill:url(#SVGID_16_);}
	.st19{fill:#3550A2;}
	.st20{display:inline;fill:url(#SVGID_17_);}
	.st21{display:inline;fill:url(#SVGID_18_);}
	.st22{display:inline;fill:#A2A2A3;}
	.st23{display:inline;fill:#C6C5C5;}
	.st24{display:inline;fill:#FFFFFF;}
	.st25{fill:url(#SVGID_19_);}
	.st26{fill:url(#SVGID_20_);}
	.st27{fill:url(#SVGID_21_);}
	.st28{fill:url(#SVGID_22_);}
	.st29{fill:#231F20;}
	.st30{fill:#828283;}
</style>
<g id="Layer_3">
	<circle class="st0" cx="99.7" cy="99.6" r="63.3"/>
	<linearGradient id="SVGID_1_" gradientUnits="userSpaceOnUse" x1="103.0541" y1="111.8317" x2="88.2132" y2="70.0966">
		<stop  offset="0" style="stop-color:#1A36C6"/>
		<stop  offset="1" style="stop-color:#4593FF"/>
	</linearGradient>
	<path class="st1" d="M85.3,92.4c2.1,9.1,7.1,17.4,14.2,23.5l7.9-4.7c1-0.6,2.2-0.6,3.1,0c2.9,1.8,6.3,3.3,9.8,4.2
		c1.6,0.4,2.6,2,2.1,3.6l-2.5,10c-0.4,1.6-2,2.6-3.6,2.1c-26.9-6.8-43.2-34-36.6-60.8c0.4-1.6,2-2.6,3.6-2.1l10,2.5
		c1.6,0.4,2.6,2,2.1,3.6c-0.9,3.5-1.2,7.2-0.9,10.6c0.1,1.1-0.4,2.1-1.5,2.7L85.3,92.4z"/>
</g>
<g id="digipal" class="st2">
	<g id="Digipal" class="st3">
		<g>
			
				<linearGradient id="SVGID_2_" gradientUnits="userSpaceOnUse" x1="36.6413" y1="150.8678" x2="31.1771" y2="115.9678" gradientTransform="matrix(1 0 0 -1 0 200)">
				<stop  offset="0" style="stop-color:#FFFFFF"/>
				<stop  offset="1" style="stop-color:#000000"/>
			</linearGradient>
			<path class="st4" d="M44.1,50.3v33.1h-7v-1.8c-1.8,1.5-3.9,2.2-6.2,2.2c-3,0-5.5-1.1-7.5-3.3c-2-2.2-3-5-3-8.3c0-3.4,1-6.2,3-8.4
				c2-2.2,4.6-3.3,7.8-3.3c2,0,3.9,0.5,5.8,1.4V50.3H44.1z M37.1,77.3V66.6c-1.3-0.9-2.6-1.3-3.9-1.3c-1.8,0-3.1,0.6-4.1,1.8
				c-1,1.2-1.5,3-1.5,5.2c0,2.1,0.5,3.7,1.5,4.9c1,1.2,2.3,1.9,3.9,1.9C34.4,79.1,35.8,78.5,37.1,77.3z"/>
			
				<linearGradient id="SVGID_3_" gradientUnits="userSpaceOnUse" x1="62.1433" y1="149.778" x2="56.926" y2="116.4544" gradientTransform="matrix(1 0 0 -1 0 200)">
				<stop  offset="0" style="stop-color:#FFFFFF"/>
				<stop  offset="1" style="stop-color:#000000"/>
			</linearGradient>
			<path class="st5" d="M55.6,53.7c0-1.1,0.4-2,1.1-2.7c0.8-0.8,1.7-1.1,2.7-1.1c1.1,0,2,0.4,2.8,1.1c0.8,0.8,1.1,1.7,1.1,2.7
				c0,1.1-0.4,2-1.1,2.7c-0.8,0.8-1.7,1.1-2.8,1.1s-2-0.4-2.7-1.1C55.9,55.7,55.6,54.8,55.6,53.7z M63,61v22.4h-7V61H63z"/>
			
				<linearGradient id="SVGID_4_" gradientUnits="userSpaceOnUse" x1="86.9059" y1="140.3768" x2="81.4218" y2="105.349" gradientTransform="matrix(1 0 0 -1 0 200)">
				<stop  offset="0" style="stop-color:#FFFFFF"/>
				<stop  offset="1" style="stop-color:#000000"/>
			</linearGradient>
			<path class="st6" d="M95.7,61v4.7h-3.2c0.7,1.3,1.1,2.5,1.1,3.7c0,1.7-0.6,3.3-1.9,4.8s-3.2,2.3-5.7,2.6c-2.5,0.3-4,0.5-4.3,0.8
				c-0.3,0.2-0.5,0.6-0.5,1s0.2,0.7,0.7,1c0.4,0.2,2.2,0.5,5.2,0.8s5.2,1.1,6.4,2.4c1.2,1.3,1.8,2.8,1.8,4.3c0,2.4-1,4.3-3,5.6
				c-2,1.3-5,1.9-8.8,1.9c-3.9,0-6.9-0.6-8.9-1.8c-2-1.2-3-2.8-3-4.7c0-2.7,2-4.6,6-5.7c-1.8-0.5-2.7-1.5-2.7-2.9
				c0-1.6,1.4-2.8,4.1-3.4c-1.8-0.3-3.3-1.1-4.5-2.4s-1.8-2.8-1.8-4.5c0-2.1,0.9-4,2.6-5.7c1.7-1.6,4.2-2.5,7.4-2.5
				C82.7,61,95.7,61,95.7,61z M83.6,90.4c1.5,0,2.7-0.3,3.7-0.8c0.9-0.6,1.4-1.2,1.4-2c0-1.6-1.8-2.5-5.5-2.5c-1.7,0-3,0.2-3.9,0.7
				s-1.4,1.1-1.4,1.9C77.8,89.5,79.8,90.4,83.6,90.4z M83,65.2c-1.1,0-2.1,0.4-2.9,1.2c-0.8,0.8-1.2,1.8-1.2,2.9s0.4,2,1.2,2.8
				c0.8,0.8,1.8,1.2,2.9,1.2s2-0.4,2.8-1.3c0.8-0.8,1.2-1.8,1.2-3c0-1.1-0.4-2-1.1-2.7C85.1,65.6,84.2,65.2,83,65.2z"/>
			
				<linearGradient id="SVGID_5_" gradientUnits="userSpaceOnUse" x1="110.4435" y1="149.7787" x2="105.2261" y2="116.4551" gradientTransform="matrix(1 0 0 -1 0 200)">
				<stop  offset="0" style="stop-color:#FFFFFF"/>
				<stop  offset="1" style="stop-color:#000000"/>
			</linearGradient>
			<path class="st7" d="M103.9,53.7c0-1.1,0.4-2,1.1-2.7c0.8-0.8,1.7-1.1,2.7-1.1c1.1,0,2,0.4,2.8,1.1c0.8,0.8,1.1,1.7,1.1,2.7
				c0,1.1-0.4,2-1.1,2.7c-0.8,0.8-1.7,1.1-2.8,1.1c-1.1,0-2-0.4-2.7-1.1C104.2,55.7,103.9,54.8,103.9,53.7z M111.3,61v22.4h-7V61
				H111.3z"/>
		</g>
		<g>
			
				<linearGradient id="SVGID_6_" gradientUnits="userSpaceOnUse" x1="49.0365" y1="89.5984" x2="45.4197" y2="66.498" gradientTransform="matrix(1 0 0 -1 0 200)">
				<stop  offset="0" style="stop-color:#FFFFFF"/>
				<stop  offset="1" style="stop-color:#000000"/>
			</linearGradient>
			<path class="st8" d="M39.9,110.6h9.8c2.2,0,4,0.6,5.3,1.9s2,2.8,2,4.6c0,1.8-0.6,3.4-1.9,4.7c-1.3,1.3-3.1,2-5.3,2h-4.4v8.8h-5.5
				C39.9,132.6,39.9,110.6,39.9,110.6z M45.4,114.7v5.1H48c2.3,0,3.4-0.9,3.4-2.6c0-1-0.3-1.6-0.9-2c-0.6-0.4-1.6-0.6-3.1-0.6
				L45.4,114.7L45.4,114.7z"/>
		</g>
		<g>
			
				<linearGradient id="SVGID_7_" gradientUnits="userSpaceOnUse" x1="104.9218" y1="89.2551" x2="101.196" y2="65.4586" gradientTransform="matrix(1 0 0 -1 0 200)">
				<stop  offset="0" style="stop-color:#FFFFFF"/>
				<stop  offset="1" style="stop-color:#000000"/>
			</linearGradient>
			<path class="st9" d="M104.2,110.6l9.8,22h-5.9l-1.8-4.3h-9.9l-1.6,4.3H89l8.9-22C97.9,110.6,104.2,110.6,104.2,110.6z
				 M104.7,124.4l-3.6-8.6l-3.2,8.6H104.7z"/>
		</g>
		<g>
			
				<linearGradient id="SVGID_8_" gradientUnits="userSpaceOnUse" x1="156.2063" y1="88.6595" x2="152.7126" y2="66.3454" gradientTransform="matrix(1 0 0 -1 0 200)">
				<stop  offset="0" style="stop-color:#FFFFFF"/>
				<stop  offset="1" style="stop-color:#000000"/>
			</linearGradient>
			<path class="st10" d="M163,128.6v4h-16.8v-22h5.5v18H163z"/>
		</g>
		
			<linearGradient id="SVGID_9_" gradientUnits="userSpaceOnUse" x1="105.7327" y1="119.3827" x2="90.1659" y2="19.9569" gradientTransform="matrix(1 0 0 -1 0 200)">
			<stop  offset="0" style="stop-color:#FFFFFF"/>
			<stop  offset="1" style="stop-color:#000000"/>
		</linearGradient>
		<path class="st11" d="M126.4,130.8l1-8.9c0-0.3-0.2-0.5-0.4-0.6l-4.1-0.5c-0.2,0-0.4-0.2-0.4-0.4c-0.3-2.6-1.1-5.1-2.2-7.4
			c-0.1-0.2-0.1-0.5,0.1-0.6l3.2-2.7c0.2-0.2,0.2-0.5,0.1-0.7l-5.8-6.9c-0.2-0.2-0.5-0.2-0.7-0.1l-3.2,2.7c-0.2,0.1-0.4,0.2-0.6,0
			c-1.6-1.2-3.4-2.2-5.3-2.9c-0.2-0.1-0.3-0.3-0.3-0.5l0.6-4.1c0-0.3-0.2-0.5-0.4-0.6l-8.9-1.2c-0.3,0-0.5,0.2-0.6,0.4l-0.6,4.1
			c0,0.2-0.2,0.4-0.4,0.4c-2,0.2-3.9,0.6-5.7,1.3c-0.2,0.1-0.5,0-0.6-0.2l-2.3-3.5c-0.2-0.2-0.5-0.3-0.7-0.1l-7.5,5
			c-0.2,0.2-0.3,0.5-0.1,0.7l2.3,3.5c0.1,0.2,0.1,0.4,0,0.6c-2.1,2.2-3.7,4.9-4.7,7.8c-0.1,0.2-0.3,0.4-0.5,0.3l-4.1-0.5
			c-0.3,0-0.5,0.2-0.6,0.4l-1,8.9c0,0.3,0.2,0.5,0.4,0.6l4.1,0.5c0.2,0,0.4,0.2,0.4,0.4c0.3,2.6,1.1,5.1,2.2,7.4
			c0.1,0.2,0.1,0.5-0.1,0.6l-3.2,2.7c-0.2,0.2-0.2,0.5-0.1,0.7l5.8,6.9c0.2,0.2,0.5,0.2,0.7,0.1l3.2-2.7c0.2-0.1,0.4-0.2,0.6,0
			c1.6,1.2,3.4,2.2,5.3,2.9c0.2,0.1,0.3,0.3,0.3,0.5l-0.6,4.1c0,0.3,0.2,0.5,0.4,0.6l8.9,1.2c0.3,0,0.5-0.2,0.6-0.4l0.6-4.1
			c0-0.2,0.2-0.4,0.4-0.4c2-0.2,3.9-0.6,5.7-1.3c0.2-0.1,0.5,0,0.6,0.2l2.3,3.5c0.2,0.2,0.5,0.3,0.7,0.1l7.5-5
			c0.2-0.2,0.3-0.5,0.1-0.7l-2.3-3.5c-0.1-0.2-0.1-0.4,0-0.6c2.1-2.2,3.7-4.9,4.7-7.8c0.1-0.2,0.3-0.4,0.5-0.3l4.1,0.5
			C126.1,131.2,126.4,131,126.4,130.8z M101.4,141.2c-11.4,1.1-20.9-8.4-19.7-19.7c0.8-8.4,7.6-15.2,16.1-16.1
			c11.4-1.1,20.9,8.4,19.7,19.7C116.6,133.6,109.8,140.4,101.4,141.2z M176.2,136.1l2.8-8.6c0.1-0.3-0.1-0.5-0.3-0.6l-4-1.3
			c-0.2-0.1-0.4-0.3-0.3-0.5c0.2-2.6,0-5.2-0.7-7.7c-0.1-0.2,0-0.5,0.2-0.6l3.7-2c0.2-0.1,0.3-0.4,0.2-0.7l-4.3-7.9
			c-0.1-0.2-0.4-0.3-0.7-0.2l-3.7,2c-0.2,0.1-0.4,0.1-0.6-0.1c-1.3-1.5-2.9-2.8-4.6-3.9c-0.2-0.1-0.3-0.4-0.2-0.6l1.4-3.9
			c0.1-0.3,0-0.5-0.3-0.6l-8.5-3c-0.3-0.1-0.5,0-0.6,0.3l-1.4,3.9c-0.1,0.2-0.3,0.3-0.5,0.3c-2-0.2-3.9-0.2-5.8,0.1
			c-0.2,0-0.4-0.1-0.5-0.3l-1.6-3.9c-0.1-0.3-0.4-0.4-0.7-0.3l-8.3,3.4c-0.3,0.1-0.4,0.4-0.3,0.7l1.6,3.9c0.1,0.2,0,0.5-0.2,0.6
			c-2.5,1.8-4.6,4-6.2,6.7c-0.1,0.2-0.4,0.3-0.6,0.2l-4-1.3c-0.3-0.1-0.5,0.1-0.6,0.3l-2.8,8.6c-0.1,0.3,0.1,0.5,0.3,0.6l4,1.3
			c0.2,0.1,0.4,0.3,0.3,0.5c-0.2,2.6,0,5.2,0.7,7.7c0.1,0.2,0,0.5-0.2,0.6l-3.7,2c-0.2,0.1-0.3,0.4-0.2,0.7l4.3,7.9
			c0.1,0.2,0.4,0.3,0.7,0.2l3.7-2c0.2-0.1,0.4-0.1,0.6,0.1c1.3,1.5,2.9,2.8,4.6,3.9c0.2,0.1,0.3,0.4,0.2,0.6l-1.4,3.9
			c-0.1,0.3,0,0.5,0.3,0.6l8.5,3c0.3,0.1,0.5,0,0.6-0.3l1.4-3.9c0.1-0.2,0.3-0.3,0.5-0.3c2,0.2,3.9,0.2,5.8-0.1
			c0.2,0,0.4,0.1,0.5,0.3l1.6,3.9c0.1,0.3,0.4,0.4,0.7,0.3l8.3-3.4c0.3-0.1,0.4-0.4,0.3-0.7l-1.6-3.9c-0.1-0.2,0-0.5,0.2-0.6
			c2.5-1.8,4.6-4,6.2-6.7c0.1-0.2,0.4-0.3,0.6-0.2l4,1.3C175.8,136.5,176.1,136.3,176.2,136.1z M149.6,141.2
			c-11.4-1.2-18.7-12.4-15.3-23.4c2.5-8.1,10.6-13.4,19-12.5c11.4,1.2,18.7,12.4,15.3,23.4C166.1,136.8,158,142.1,149.6,141.2z
			 M71.5,136.1l2.8-8.6c0.1-0.3-0.1-0.5-0.3-0.6l-4-1.3c-0.2-0.1-0.4-0.3-0.3-0.5c0.2-2.6,0-5.2-0.7-7.7c-0.1-0.2,0-0.5,0.2-0.6
			l3.7-2c0.2-0.1,0.3-0.4,0.2-0.7l-4.3-7.9c-0.1-0.2-0.4-0.3-0.7-0.2l-3.7,2c-0.2,0.1-0.4,0.1-0.6-0.1c-1.3-1.5-2.9-2.8-4.6-3.9
			c-0.2-0.1-0.3-0.4-0.2-0.6l1.4-3.9c0.1-0.3,0-0.5-0.3-0.6l-8.5-3c-0.3-0.1-0.5,0-0.6,0.3l-1.4,3.9c-0.1,0.2-0.3,0.3-0.5,0.3
			c-2-0.2-3.9-0.2-5.8,0.1c-0.2,0-0.4-0.1-0.5-0.3l-1.6-3.9c-0.1-0.3-0.4-0.4-0.7-0.3l-8.3,3.4c-0.3,0.1-0.4,0.4-0.3,0.7l1.6,3.9
			c0.1,0.2,0,0.5-0.2,0.6c-2.5,1.8-4.6,4-6.2,6.7c-0.1,0.2-0.4,0.3-0.6,0.2l-4-1.3c-0.3-0.1-0.5,0.1-0.6,0.3l-2.8,8.6
			c-0.1,0.3,0.1,0.5,0.3,0.6l4,1.3c0.2,0.1,0.4,0.3,0.3,0.5c-0.2,2.6,0,5.2,0.7,7.7c0.1,0.2,0,0.5-0.2,0.6l-3.7,2
			c-0.2,0.1-0.3,0.4-0.2,0.7l4.3,7.9c0.1,0.2,0.4,0.3,0.7,0.2l3.7-2c0.2-0.1,0.4-0.1,0.6,0.1c1.3,1.5,2.9,2.8,4.6,3.9
			c0.2,0.1,0.3,0.4,0.2,0.6l-1.4,3.9c-0.1,0.3,0,0.5,0.3,0.6l8.5,3c0.3,0.1,0.5,0,0.6-0.3l1.4-3.9c0.1-0.2,0.3-0.3,0.5-0.3
			c2,0.2,3.9,0.2,5.8-0.1c0.2,0,0.4,0.1,0.5,0.3l1.6,3.9c0.1,0.3,0.4,0.4,0.7,0.3l8.3-3.4c0.3-0.1,0.4-0.4,0.3-0.7l-1.6-3.9
			c-0.1-0.2,0-0.5,0.2-0.6c2.5-1.8,4.6-4,6.2-6.7c0.1-0.2,0.4-0.3,0.6-0.2l4,1.3C71.2,136.5,71.5,136.3,71.5,136.1z M44.9,141.2
			c-11.4-1.2-18.7-12.4-15.3-23.4c2.5-8.1,10.6-13.4,19-12.5c11.4,1.2,18.7,12.4,15.3,23.4C61.4,136.8,53.3,142.1,44.9,141.2z"/>
		<path class="st0" d="M128.2,129.2l1-8.9c0-0.3-0.2-0.5-0.4-0.6l-4.1-0.5c-0.2,0-0.4-0.2-0.4-0.4c-0.3-2.6-1.1-5.1-2.2-7.4
			c-0.1-0.2-0.1-0.5,0.1-0.6l3.2-2.7c0.2-0.2,0.2-0.5,0.1-0.7l-5.8-6.9c-0.2-0.2-0.5-0.2-0.7-0.1l-3.2,2.7c-0.2,0.1-0.4,0.2-0.6,0
			c-1.6-1.2-3.4-2.2-5.3-2.9c-0.2-0.1-0.3-0.3-0.3-0.5l0.6-4.1c0-0.3-0.2-0.5-0.4-0.6l-8.9-1.2c-0.3,0-0.5,0.2-0.6,0.4l-0.6,4.1
			c0,0.2-0.2,0.4-0.4,0.4c-2,0.2-3.9,0.6-5.7,1.3c-0.2,0.1-0.5,0-0.6-0.2l-2.3-3.5c-0.2-0.2-0.5-0.3-0.7-0.1l-7.5,5
			c-0.2,0.2-0.3,0.5-0.1,0.7l2.3,3.5c0.1,0.2,0.1,0.4,0,0.6c-2.1,2.2-3.7,4.9-4.7,7.8c-0.1,0.2-0.3,0.4-0.5,0.3l-4.1-0.5
			c-0.3,0-0.5,0.2-0.6,0.4l-1,8.9c0,0.3,0.2,0.5,0.4,0.6l4.1,0.5c0.2,0,0.4,0.2,0.4,0.4c0.3,2.6,1.1,5.1,2.2,7.4
			c0.1,0.2,0.1,0.5-0.1,0.6l-3.2,2.7c-0.2,0.2-0.2,0.5-0.1,0.7l5.8,6.9c0.2,0.2,0.5,0.2,0.7,0.1l3.2-2.7c0.2-0.1,0.4-0.2,0.6,0
			c1.6,1.2,3.4,2.2,5.3,2.9c0.2,0.1,0.3,0.3,0.3,0.5l-0.6,4.1c0,0.3,0.2,0.5,0.4,0.6l8.9,1.2c0.3,0,0.5-0.2,0.6-0.4l0.6-4.1
			c0-0.2,0.2-0.4,0.4-0.4c2-0.2,3.9-0.6,5.7-1.3c0.2-0.1,0.5,0,0.6,0.2l2.3,3.5c0.2,0.2,0.5,0.3,0.7,0.1l7.5-5
			c0.2-0.2,0.3-0.5,0.1-0.7l-2.3-3.5c-0.1-0.2-0.1-0.4,0-0.6c2.1-2.2,3.7-4.9,4.7-7.8c0.1-0.2,0.3-0.4,0.5-0.3l4.1,0.5
			C127.9,129.7,128.2,129.5,128.2,129.2z M103.2,139.7c-11.4,1.1-20.9-8.4-19.7-19.7c0.8-8.4,7.6-15.2,16.1-16.1
			c11.4-1.1,20.9,8.4,19.7,19.7C118.4,132,111.6,138.9,103.2,139.7z M178,134.6l2.8-8.6c0.1-0.3-0.1-0.5-0.3-0.6l-4-1.3
			c-0.2-0.1-0.4-0.3-0.3-0.5c0.2-2.6,0-5.2-0.7-7.7c-0.1-0.2,0-0.5,0.2-0.6l3.7-2c0.2-0.1,0.3-0.4,0.2-0.7l-4.3-7.9
			c-0.1-0.2-0.4-0.3-0.7-0.2l-3.7,2c-0.2,0.1-0.4,0.1-0.6-0.1c-1.3-1.5-2.9-2.8-4.6-3.9c-0.2-0.1-0.3-0.4-0.2-0.6l1.4-3.9
			c0.1-0.3,0-0.5-0.3-0.6l-8.5-3c-0.3-0.1-0.5,0-0.6,0.3l-1.4,3.9c-0.1,0.2-0.3,0.3-0.5,0.3c-2-0.2-3.9-0.2-5.8,0.1
			c-0.2,0-0.4-0.1-0.5-0.3l-1.6-3.9c-0.1-0.3-0.4-0.4-0.7-0.3l-8.3,3.4c-0.3,0.1-0.4,0.4-0.3,0.7l1.6,3.9c0.1,0.2,0,0.5-0.2,0.6
			c-2.5,1.8-4.6,4-6.2,6.7c-0.1,0.2-0.4,0.3-0.6,0.2l-4-1.3c-0.3-0.1-0.5,0.1-0.6,0.3l-2.8,8.6c-0.1,0.3,0.1,0.5,0.3,0.6l4,1.3
			c0.2,0.1,0.4,0.3,0.3,0.5c-0.2,2.6,0,5.2,0.7,7.7c0.1,0.2,0,0.5-0.2,0.6l-3.7,2c-0.2,0.1-0.3,0.4-0.2,0.7l4.3,7.9
			c0.1,0.2,0.4,0.3,0.7,0.2l3.7-2c0.2-0.1,0.4-0.1,0.6,0.1c1.3,1.5,2.9,2.8,4.6,3.9c0.2,0.1,0.3,0.4,0.2,0.6l-1.4,3.9
			c-0.1,0.3,0,0.5,0.3,0.6l8.5,3c0.3,0.1,0.5,0,0.6-0.3l1.4-3.9c0.1-0.2,0.3-0.3,0.5-0.3c2,0.2,3.9,0.2,5.8-0.1
			c0.2,0,0.4,0.1,0.5,0.3l1.6,3.9c0.1,0.3,0.4,0.4,0.7,0.3l8.3-3.4c0.3-0.1,0.4-0.4,0.3-0.7l-1.6-3.9c-0.1-0.2,0-0.5,0.2-0.6
			c2.5-1.8,4.6-4,6.2-6.7c0.1-0.2,0.4-0.3,0.6-0.2l4,1.3C177.6,135,177.9,134.8,178,134.6z M151.4,139.7
			c-11.4-1.2-18.7-12.4-15.3-23.4c2.5-8.1,10.6-13.4,19-12.5c11.4,1.2,18.7,12.4,15.3,23.4C167.8,135.3,159.8,140.6,151.4,139.7z
			 M73.3,134.6l2.8-8.6c0.1-0.3-0.1-0.5-0.3-0.6l-4-1.3c-0.2-0.1-0.4-0.3-0.3-0.5c0.2-2.6,0-5.2-0.7-7.7c-0.1-0.2,0-0.5,0.2-0.6
			l3.7-2c0.2-0.1,0.3-0.4,0.2-0.7l-4.3-7.9c-0.1-0.2-0.4-0.3-0.7-0.2l-3.7,2c-0.2,0.1-0.4,0.1-0.6-0.1c-1.3-1.5-2.9-2.8-4.6-3.9
			c-0.2-0.1-0.3-0.4-0.2-0.6l1.4-3.9c0.1-0.3,0-0.5-0.3-0.6l-8.5-3c-0.3-0.1-0.5,0-0.6,0.3l-1.4,3.9c-0.1,0.2-0.3,0.3-0.5,0.3
			c-2-0.2-3.9-0.2-5.8,0.1c-0.2,0-0.4-0.1-0.5-0.3L43,94.8c-0.1-0.3-0.4-0.4-0.7-0.3L34.1,98c-0.3,0.1-0.4,0.4-0.3,0.7l1.6,3.9
			c0.1,0.2,0,0.5-0.2,0.6c-2.5,1.8-4.6,4-6.2,6.7c-0.1,0.2-0.4,0.3-0.6,0.2l-4-1.3c-0.3-0.1-0.5,0.1-0.6,0.3l-2.8,8.6
			c-0.1,0.3,0.1,0.5,0.3,0.6l4,1.3c0.2,0.1,0.4,0.3,0.3,0.5c-0.2,2.6,0,5.2,0.7,7.7c0.1,0.2,0,0.5-0.2,0.6l-3.7,2
			c-0.2,0.1-0.3,0.4-0.2,0.7l4.3,7.9c0.1,0.2,0.4,0.3,0.7,0.2l3.7-2c0.2-0.1,0.4-0.1,0.6,0.1c1.3,1.5,2.9,2.8,4.6,3.9
			c0.2,0.1,0.3,0.4,0.2,0.6l-1.4,3.9c-0.1,0.3,0,0.5,0.3,0.6l8.5,3c0.3,0.1,0.5,0,0.6-0.3l1.4-3.9c0.1-0.2,0.3-0.3,0.5-0.3
			c2,0.2,3.9,0.2,5.8-0.1c0.2,0,0.4,0.1,0.5,0.3l1.6,3.9c0.1,0.3,0.4,0.4,0.7,0.3l8.3-3.4c0.3-0.1,0.4-0.4,0.3-0.7l-1.6-3.9
			c-0.1-0.2,0-0.5,0.2-0.6c2.5-1.8,4.6-4,6.2-6.7c0.1-0.2,0.4-0.3,0.6-0.2l4,1.3C73,135,73.2,134.8,73.3,134.6z M46.7,139.7
			c-11.4-1.2-18.7-12.4-15.3-23.4c2.5-8.1,10.6-13.4,19-12.5c11.4,1.2,18.7,12.4,15.3,23.4C63.2,135.3,55.1,140.6,46.7,139.7z"/>
		<g>
			<path class="st0" d="M46.1,49.3v33.1h-7v-1.8c-1.8,1.5-3.9,2.2-6.2,2.2c-3,0-5.5-1.1-7.5-3.3c-2-2.2-3-5-3-8.3c0-3.4,1-6.2,3-8.4
				c2-2.2,4.6-3.3,7.8-3.3c2,0,3.9,0.5,5.8,1.4V49.3H46.1z M39.1,76.3V65.6c-1.3-0.9-2.6-1.3-3.9-1.3c-1.8,0-3.1,0.6-4.1,1.8
				c-1,1.2-1.5,3-1.5,5.2c0,2.1,0.5,3.7,1.5,4.9c1,1.2,2.3,1.9,3.9,1.9C36.4,78.1,37.8,77.5,39.1,76.3z"/>
			<path class="st0" d="M57.6,52.7c0-1.1,0.4-2,1.1-2.7c0.8-0.8,1.7-1.1,2.7-1.1c1.1,0,2,0.4,2.8,1.1c0.8,0.8,1.1,1.7,1.1,2.7
				c0,1.1-0.4,2-1.1,2.7c-0.8,0.8-1.7,1.1-2.8,1.1s-2-0.4-2.7-1.1C57.9,54.7,57.6,53.8,57.6,52.7z M65,60v22.4h-7V60H65z"/>
			<path class="st0" d="M97.7,60v4.7h-3.2c0.7,1.3,1.1,2.5,1.1,3.7c0,1.7-0.6,3.3-1.9,4.8s-3.2,2.3-5.7,2.6c-2.5,0.3-4,0.5-4.3,0.8
				c-0.3,0.2-0.5,0.6-0.5,1s0.2,0.7,0.7,1c0.4,0.2,2.2,0.5,5.2,0.8s5.2,1.1,6.4,2.4c1.2,1.3,1.8,2.8,1.8,4.3c0,2.4-1,4.3-3,5.6
				c-2,1.3-5,1.9-8.8,1.9c-3.9,0-6.9-0.6-8.9-1.8c-2-1.2-3-2.8-3-4.7c0-2.7,2-4.6,6-5.7c-1.8-0.5-2.7-1.5-2.7-2.9
				c0-1.6,1.4-2.8,4.1-3.4c-1.8-0.3-3.3-1.1-4.5-2.4s-1.8-2.8-1.8-4.5c0-2.1,0.9-4,2.6-5.7c1.7-1.6,4.2-2.5,7.4-2.5
				C84.7,60,97.7,60,97.7,60z M85.6,89.4c1.5,0,2.7-0.3,3.7-0.8c0.9-0.6,1.4-1.2,1.4-2c0-1.6-1.8-2.5-5.5-2.5c-1.7,0-3,0.2-3.9,0.7
				s-1.4,1.1-1.4,1.9C79.8,88.5,81.8,89.4,85.6,89.4z M85,64.2c-1.1,0-2.1,0.4-2.9,1.2c-0.8,0.8-1.2,1.8-1.2,2.9s0.4,2,1.2,2.8
				c0.8,0.8,1.8,1.2,2.9,1.2s2-0.4,2.8-1.3c0.8-0.8,1.2-1.8,1.2-3c0-1.1-0.4-2-1.1-2.7C87.1,64.6,86.2,64.2,85,64.2z"/>
			<path class="st0" d="M105.9,52.7c0-1.1,0.4-2,1.1-2.7c0.8-0.8,1.7-1.1,2.7-1.1c1.1,0,2,0.4,2.8,1.1c0.8,0.8,1.1,1.7,1.1,2.7
				c0,1.1-0.4,2-1.1,2.7c-0.8,0.8-1.7,1.1-2.8,1.1c-1.1,0-2-0.4-2.7-1.1C106.2,54.7,105.9,53.8,105.9,52.7z M113.3,60v22.4h-7V60
				H113.3z"/>
		</g>
		<g>
			<path class="st0" d="M40.9,109.6h9.8c2.2,0,4,0.6,5.3,1.9s2,2.8,2,4.6c0,1.8-0.6,3.4-1.9,4.7c-1.3,1.3-3.1,2-5.3,2h-4.4v8.8h-5.5
				C40.9,131.6,40.9,109.6,40.9,109.6z M46.4,113.7v5.1H49c2.3,0,3.4-0.9,3.4-2.6c0-1-0.3-1.6-0.9-2c-0.6-0.4-1.6-0.6-3.1-0.6
				L46.4,113.7L46.4,113.7z"/>
		</g>
		<g>
			<path class="st0" d="M105.2,109.6l9.8,22h-5.9l-1.8-4.3h-9.9l-1.6,4.3H90l8.9-22C98.9,109.6,105.2,109.6,105.2,109.6z
				 M105.7,123.4l-3.6-8.6l-3.2,8.6H105.7z"/>
		</g>
		<g>
			<path class="st0" d="M164,127.6v4h-16.8v-22h5.5v18C152.7,127.6,164,127.6,164,127.6z"/>
		</g>
	</g>
</g>
<g id="truchat" class="st2">
	<g id="truchat_1_" class="st3">
		<g>
			
				<linearGradient id="SVGID_10_" gradientUnits="userSpaceOnUse" x1="75.5509" y1="86.5853" x2="69.8856" y2="77.5667" gradientTransform="matrix(1 0 0 -1 0 200)">
				<stop  offset="0.3966" style="stop-color:#FFFFFF"/>
				<stop  offset="1" style="stop-color:#D0CECE"/>
			</linearGradient>
			<circle class="st12" cx="71.1" cy="120.5" r="5.3"/>
			
				<linearGradient id="SVGID_11_" gradientUnits="userSpaceOnUse" x1="73.3026" y1="81.4872" x2="64.1177" y2="58.0257" gradientTransform="matrix(1 0 0 -1 0 200)">
				<stop  offset="0.2667" style="stop-color:#FFFFFF"/>
				<stop  offset="1" style="stop-color:#D0CECE"/>
			</linearGradient>
			<path class="st13" d="M58.2,128.8c0,0,11.3,0.9,16.5-3c5.2-3.8,8.7-10.6,8.7-10.6s-1.6,11.9-7,23.2c-4.4,9.4-7.7,14.4-8.9,15.8
				c-0.1,0.1-0.4-0.1-0.4-0.1s0.7-0.5,1.3-4.2c0.6-3.7,0.8-3.8,0.8-3.8s-5.5,7.4-6.2,8.1s-0.4-0.3-0.4-0.3S77.9,131.4,58.2,128.8z"
				/>
		</g>
		<g>
			
				<linearGradient id="SVGID_12_" gradientUnits="userSpaceOnUse" x1="138.2117" y1="84.6499" x2="133.4292" y2="76.1382" gradientTransform="matrix(1 0 0 -1 0 200)">
				<stop  offset="0.2667" style="stop-color:#FFFFFF"/>
				<stop  offset="1" style="stop-color:#D0CECE"/>
			</linearGradient>
			<circle class="st14" cx="134.7" cy="121.6" r="4.9"/>
			
				<linearGradient id="SVGID_13_" gradientUnits="userSpaceOnUse" x1="137.8776" y1="79.3286" x2="127.7801" y2="54.6956" gradientTransform="matrix(1 0 0 -1 0 200)">
				<stop  offset="0.2667" style="stop-color:#FFFFFF"/>
				<stop  offset="1" style="stop-color:#D0CECE"/>
			</linearGradient>
			<path class="st15" d="M124.9,115.1c0,0,2.2,16.4,0.9,21.7c-1.3,5.3-8.1,16.9-8.1,16.9s8.6-8.3,11.4-8.7s10.5,8.7,10.5,8.7
				s-4.9-9.8-5.6-15.8s10.4-6.7,10.4-6.7s-9.6-1.8-13.3-4.7C127.3,123.6,124.9,115.1,124.9,115.1z"/>
		</g>
		<g>
			
				<linearGradient id="SVGID_14_" gradientUnits="userSpaceOnUse" x1="113.7483" y1="180.9196" x2="95.2002" y2="106.0785" gradientTransform="matrix(1 0 0 -1 0 200)">
				<stop  offset="0.8373" style="stop-color:#FFFFFF"/>
				<stop  offset="1" style="stop-color:#D0CECE"/>
			</linearGradient>
			<path class="st16" d="M160,71.5c0,15.4-12.5,27.8-27.9,27.8c-1.6,0-3.2-0.1-4.7-0.4c-1.5,1-3.1,1.9-4.7,2.6
				c0.2,0.5,0.3,1.1,0.3,1.7c0,3.6-4,6.4-8.9,6.4c-4.8,0-8.7-2.7-8.9-6.2c-1.3-0.2-2.6-0.6-3.9-1c-1.7,0.5-3.5,0.7-5.4,0.7h-0.1
				c-0.6,3.1-4.3,5.6-8.9,5.6c-4.9,0-8.9-2.9-8.9-6.4c0-1.9,1.1-3.6,2.9-4.8c-0.5,0-1,0-1.4,0c-3.4,0-6.7-0.6-9.7-1.7
				c-0.5,0-1.1,0-1.6,0c-15.5,0-28.1-9-28.1-20.2c0-7.4,5.5-13.9,13.8-17.4c4.4-9.8,14.2-16.7,25.6-16.7c6.6,0,12.7,2.3,17.5,6.1
				c4.1-2.2,8.8-3.4,13.8-3.4c3.5,0,6.8,0.6,9.9,1.7c3.5-1.6,7.4-2.5,11.5-2.5C147.5,43.6,160,56.1,160,71.5z"/>
			
				<linearGradient id="SVGID_15_" gradientUnits="userSpaceOnUse" x1="126.968" y1="93.0296" x2="122.7262" y2="88.7293" gradientTransform="matrix(1 0 0 -1 0 200)">
				<stop  offset="0.8373" style="stop-color:#FFFFFF"/>
				<stop  offset="1" style="stop-color:#D0CECE"/>
			</linearGradient>
			<ellipse class="st17" cx="122.5" cy="111.5" rx="3" ry="2.2"/>
			
				<linearGradient id="SVGID_16_" gradientUnits="userSpaceOnUse" x1="81.5092" y1="94.4063" x2="77.9593" y2="89.5193" gradientTransform="matrix(1 0 0 -1 0 200)">
				<stop  offset="0.8373" style="stop-color:#FFFFFF"/>
				<stop  offset="1" style="stop-color:#D0CECE"/>
			</linearGradient>
			<ellipse class="st18" cx="77.8" cy="110.7" rx="3" ry="2.2"/>
		</g>
		<g>
			<path class="st0" d="M161,69.5c0,15.4-12.5,27.8-27.9,27.8c-1.6,0-3.2-0.1-4.7-0.4c-1.5,1-3.1,1.9-4.7,2.6
				c0.2,0.5,0.3,1.1,0.3,1.7c0,3.6-4,6.4-8.9,6.4c-4.8,0-8.7-2.7-8.9-6.2c-1.3-0.2-2.6-0.6-3.9-1c-1.7,0.5-3.5,0.7-5.4,0.7h-0.1
				c-0.6,3.1-4.3,5.6-8.9,5.6c-4.9,0-8.9-2.9-8.9-6.4c0-1.9,1.1-3.6,2.9-4.8c-0.5,0-1,0-1.4,0c-3.4,0-6.7-0.6-9.7-1.7
				c-0.5,0-1.1,0-1.6,0c-15.5,0-28.1-9-28.1-20.2c0-7.4,5.5-13.9,13.8-17.4c4.4-9.8,14.2-16.7,25.6-16.7c6.6,0,12.7,2.3,17.5,6.1
				c4.1-2.2,8.8-3.4,13.8-3.4c3.5,0,6.8,0.6,9.9,1.7c3.5-1.6,7.4-2.5,11.5-2.5C148.5,41.6,161,54.1,161,69.5z"/>
			<ellipse class="st0" cx="123.5" cy="109.5" rx="3" ry="2.2"/>
			<ellipse class="st0" cx="78.8" cy="108.7" rx="3" ry="2.2"/>
			<g>
				<path class="st19" d="M62.4,65.9H73v3.2h-3.5V83h-3.8V69.2h-3.4v-3.3C62.3,65.9,62.4,65.9,62.4,65.9z"/>
				<path class="st19" d="M73.3,70.4h3.1v3.1c0.6-2.1,1.6-3.2,3-3.2c0.2,0,0.4,0,0.6,0.1v3.4c-0.3,0-0.5-0.1-0.6-0.1
					c-1.7,0-2.6,1.3-2.6,3.9V83h-3.5V70.4z"/>
				<path class="st19" d="M81,70.4h3.5v8.1c0,0.8,0.1,1.4,0.2,1.6c0.1,0.3,0.5,0.4,1,0.4s0.8-0.1,1-0.3s0.4-0.5,0.4-0.9
					c0.1-0.4,0.1-1.2,0.1-2.4v-6.5h3.5V83h-3.3v-1.7c-0.5,0.9-1,1.4-1.5,1.6s-1.1,0.4-1.8,0.4c-0.9,0-1.6-0.2-2.1-0.6
					s-0.8-0.9-0.9-1.4C81,80.7,81,79.8,81,78.6V70.4z"/>
				<path class="st19" d="M102,76.8l3.5,0.2c-0.1,1.9-0.7,3.4-1.8,4.5c-1.1,1.2-2.4,1.7-4.2,1.7c-2.1,0-3.7-0.8-4.8-2.3
					c-1.1-1.6-1.7-3.7-1.7-6.4c0-2.8,0.5-4.9,1.6-6.5s2.7-2.3,4.9-2.3c3.6,0,5.5,2.2,5.8,6.6l-3.4,0.2c-0.1-2.5-0.9-3.8-2.4-3.8
					c-0.8,0-1.4,0.4-1.9,1.2c-0.5,0.8-0.7,2.4-0.7,4.8c0,2.1,0.2,3.5,0.6,4.3s1.1,1.2,1.9,1.2C101,80.2,101.8,79.1,102,76.8z"/>
				<path class="st19" d="M107.4,65.9h3.5v5.8c0.6-1.1,1.7-1.6,3.1-1.6c0.9,0,1.5,0.2,2,0.6s0.8,0.9,0.9,1.5s0.2,1.5,0.2,2.7V83
					h-3.5v-8.1c0-0.8-0.1-1.4-0.2-1.6s-0.5-0.4-1-0.4s-0.9,0.1-1.1,0.4c-0.3,0.3-0.4,0.8-0.4,1.8v8h-3.5V65.9z"/>
				<path class="st19" d="M123,74.4l-3.3-0.3c0.2-1.3,0.7-2.2,1.6-2.9s2.1-1,3.5-1c1.2,0,2.1,0.2,2.9,0.7c0.7,0.5,1.2,1,1.4,1.6
					s0.3,1.5,0.3,2.8v5c0,1.6,0.1,2.5,0.2,2.8h-3.3c-0.1-0.3-0.2-1-0.2-1.9c-0.8,1.5-1.9,2.2-3.5,2.2c-1,0-1.8-0.3-2.4-0.9
					s-0.9-1.4-0.9-2.6c0-1.4,0.5-2.5,1.4-3.3s2.6-1.2,5.1-1.4v-0.5c0-0.8-0.1-1.4-0.3-1.8s-0.5-0.5-1-0.5
					C123.6,72.5,123.1,73.1,123,74.4z M125.7,77c-1,0.1-1.8,0.3-2.2,0.7c-0.4,0.3-0.7,0.9-0.7,1.7c0,1.1,0.4,1.6,1.2,1.6
					c0.4,0,0.8-0.2,1.2-0.7c0.3-0.5,0.5-1.4,0.5-2.6V77z"/>
				<path class="st19" d="M132.3,66.5l3.4-0.1v4h2.3v2.8h-2.3v4.6c0,0.9,0,1.4,0.1,1.7c0,0.3,0.2,0.5,0.4,0.6
					c0.2,0.2,0.6,0.3,1.1,0.3c0.3,0,0.6,0,1,0V83c-0.8,0.2-1.5,0.3-2.2,0.3c-1.1,0-1.9-0.2-2.5-0.6s-0.9-0.9-1.1-1.5
					c-0.2-0.6-0.2-1.6-0.2-2.9v-5h-1.4v-2.8h1.4V66.5z"/>
			</g>
		</g>
		<g>
			<circle class="st0" cx="72.1" cy="119.5" r="5.3"/>
			<path class="st0" d="M59.2,127.8c0,0,11.3,0.9,16.5-3c5.2-3.8,8.7-10.6,8.7-10.6s-1.6,11.9-7,23.2c-4.4,9.4-7.7,14.4-8.9,15.8
				c-0.1,0.1-0.4-0.1-0.4-0.1s0.7-0.5,1.3-4.2c0.6-3.7,0.8-3.8,0.8-3.8s-5.5,7.4-6.2,8.1c-0.8,0.7-0.4-0.3-0.4-0.3
				S78.9,130.4,59.2,127.8z"/>
		</g>
		<g>
			<circle class="st0" cx="135.7" cy="120.6" r="4.9"/>
			<path class="st0" d="M125.9,114.1c0,0,2.2,16.4,0.9,21.7s-8.1,16.9-8.1,16.9s8.6-8.3,11.4-8.7s10.5,8.7,10.5,8.7
				s-4.9-9.8-5.6-15.8s10.4-6.7,10.4-6.7s-9.6-1.8-13.3-4.7S125.9,114.1,125.9,114.1z"/>
		</g>
	</g>
</g>
<g id="Cards_1_" class="st2">
	<linearGradient id="SVGID_17_" gradientUnits="userSpaceOnUse" x1="146.9806" y1="19.2304" x2="41.3794" y2="224.8716">
		<stop  offset="0" style="stop-color:#FFFFFF"/>
		<stop  offset="1" style="stop-color:#A4A3A3"/>
	</linearGradient>
	<path class="st20" d="M55.6,171.4c-0.2,0-0.4,0-0.6,0c-7.3-0.2-14.2-4.9-17-11.7L10.5,93.2c-1-2.4-1.5-4.9-1.5-7.5v-0.1
		c0.2-7.5,4.9-14.2,12-17.1l107.9-44.8c2.3-0.9,4.7-1.4,7.1-1.4c7.5,0,14.1,4.3,17.2,11.1c6.9,1.2,12.6,6.1,14.8,12.8
		c6.6,2.3,11.3,8.1,12.4,15.1l10.5,71.2v0.1c0.3,2.7,0.1,5.1-0.4,7.3c-2,7.4-8.2,12.9-15.6,13.8L59.1,171.2H59c-0.3,0-0.6,0-1,0
		C57.2,171.3,56.4,171.4,55.6,171.4z"/>
	<linearGradient id="SVGID_18_" gradientUnits="userSpaceOnUse" x1="164.9706" y1="-15.9663" x2="33.5553" y2="239.9433">
		<stop  offset="0" style="stop-color:#FFFFFF"/>
		<stop  offset="1" style="stop-color:#A4A3A3"/>
	</linearGradient>
	<path class="st21" d="M186.9,133l-10.5-71.1c-0.9-6-5.3-10.9-11.2-12.4c-0.2,0-0.3-0.1-0.5-0.1l-0.3-1.2c-1.6-5.9-6.5-10.2-12.5-11
		c-0.5-0.1-1-0.1-1.5-0.1l-0.6-1.5c-2.3-5.6-7.8-9.3-13.8-9.3c-1.9,0-3.8,0.4-5.6,1.1l-108,44.8c-5.6,2.2-9.3,7.6-9.4,13.5
		c0,2.1,0.4,4,1.2,6l27.5,66.5c2.2,5.3,7.6,9,13.4,9.2c0.2,0,0.3,0,0.5,0c0.7,0,1.4-0.1,2.1-0.2c0.3,0,0.6,0,0.9,0l115.6-17.5
		c5.8-0.7,10.8-5,12.3-10.8C187,137.2,187.1,135.2,186.9,133z"/>
	<path class="st22" d="M51.8,166.7c-5.6-1.6-9.9-6.5-10.8-12.2L30.5,83.2c-0.3-2-0.2-4.1,0.3-6.1c1.6-5.7,6.5-10,12.5-10.8
		l115.6-17.2c1.9-0.3,3.8-0.2,5.7,0.3c5.9,1.5,10.3,6.3,11.2,12.4l10.5,71.1c0.2,2.3,0.1,4.2-0.3,5.9c-1.5,5.8-6.5,10.1-12.3,10.8
		L57.9,167.2c-2,0.2-4,0-5.7-0.4C52.1,166.7,51.9,166.7,51.8,166.7z"/>
	<path class="st23" d="M52.8,166.7c-5.8-0.9-10.6-5.3-12.1-10.9L22,86.3c-0.6-2-0.7-4-0.4-6.1c0.9-5.8,5.3-10.6,11.1-12.1
		l112.8-30.4c1.9-0.5,3.8-0.6,5.7-0.4c6,0.8,10.9,5.1,12.5,11l18.7,69.4c0.5,2.2,0.6,4.2,0.4,5.9c-0.9,5.9-5.3,10.8-11,12.1
		L59,166.5c-1.9,0.4-4,0.5-5.7,0.2C53.1,166.7,52.9,166.7,52.8,166.7z"/>
	<path class="st24" d="M54.4,167.4c-5.8-0.2-11.2-3.9-13.4-9.2L13.4,91.7c-0.8-1.9-1.2-3.9-1.2-6c0.2-5.9,3.9-11.2,9.4-13.5
		l107.9-44.8c1.8-0.7,3.7-1.1,5.6-1.1c6.1,0,11.5,3.6,13.8,9.3l27.5,66.4c0.8,2.2,1.1,4.1,1.1,5.8c-0.1,6-3.8,11.4-9.3,13.5
		L60.5,166.4c-1.9,0.6-3.9,1-5.6,1C54.7,167.4,54.6,167.4,54.4,167.4z"/>
	<g class="st3">
		<path d="M58.4,118.1l5.1-1.7c0.9,2.7,0.9,5.3,0.1,7.6c-0.8,2.3-2.5,3.9-5,5c-3,1.2-5.8,1-8.3-0.6c-2.5-1.6-4.5-4.4-6.1-8.3
			c-1.6-4-2.1-7.4-1.4-10.3c0.7-2.9,2.5-5,5.7-6.2c5.1-2.1,9.2,0,12.3,6.1l-4.8,2.4c-1.6-3.6-3.5-5-5.7-4.1c-1.1,0.5-1.8,1.4-2,2.9
			c-0.2,1.4,0.4,3.9,1.8,7.3c1.2,3,2.4,5,3.5,5.9s2.2,1.1,3.5,0.6C58.9,123.7,59.4,121.5,58.4,118.1z"/>
		<path d="M64.8,97.2l5.4-2.2l17,21.8l-5.5,2.2l-3.3-4.6l-6.9,2.8l0.9,5.6l-5,2L64.8,97.2z M75.8,110.7l-6.6-9.1l1.7,11.1
			L75.8,110.7z"/>
		<path d="M79.4,91.3l7.7-3.1c1.5-0.6,2.7-1,3.5-1.2c0.9-0.2,1.8-0.1,2.9,0.1c1.1,0.3,2,0.8,2.9,1.7c0.9,0.9,1.6,2,2.1,3.3
			c1.2,3.1,1,5.7-0.8,7.9l8.9,8.9l-5.9,2.4l-7.2-8.4l-2.7,1.1l3.9,9.7l-5.4,2.2L79.4,91.3z M86.4,93.1l2.8,6.9l2.4-1
			c2.1-0.9,2.7-2.5,1.7-4.8c-0.3-0.8-0.8-1.4-1.3-1.8s-1-0.6-1.5-0.6s-1.1,0.1-1.9,0.5L86.4,93.1z"/>
		<path d="M99.5,83.2l5.8-2.4c2.5-1,4.7-1.5,6.6-1.5s3.6,0.8,5.3,2.2c1.7,1.4,3.2,3.7,4.4,6.8c0.9,2.2,1.4,4.3,1.5,6.2
			c0.1,1.9-0.1,3.6-0.6,5s-1.3,2.5-2.4,3.3c-1,0.8-2.4,1.6-4.2,2.3l-6.5,2.6L99.5,83.2z M106.7,85.2l6.6,16.2l0.9-0.4
			c1.3-0.5,2.1-1.1,2.6-1.9s0.7-1.8,0.6-3.2c-0.1-1.4-0.6-3.2-1.5-5.4c-0.8-2.1-1.7-3.6-2.6-4.6c-0.9-0.9-1.8-1.5-2.6-1.6
			c-0.8-0.1-1.9,0-3,0.5L106.7,85.2z"/>
		<path d="M137.5,74l-3.8,3.5c-1.5-1.8-3-2.3-4.7-1.6c-0.8,0.3-1.3,0.8-1.6,1.4c-0.3,0.6-0.3,1.3-0.1,1.9c0.3,0.7,0.8,1.1,1.5,1.3
			c0.7,0.2,2.1,0.3,4.1,0.2c1.8-0.1,3.3,0,4.5,0.2c1.1,0.2,2.2,0.7,3.2,1.5s1.7,1.8,2.2,3.1c0.9,2.3,0.9,4.5-0.1,6.6
			s-2.8,3.7-5.5,4.8c-4.5,1.8-8.2,0.7-11.3-3.3l4.2-3.3c1.6,2.2,3.4,3,5.5,2.1c0.9-0.4,1.6-0.9,2-1.7c0.4-0.7,0.4-1.5,0.1-2.3
			c-0.2-0.6-0.7-1.1-1.3-1.4s-1.7-0.4-3.4-0.4c-2.2,0.1-3.8,0.1-5-0.1c-1.1-0.2-2.2-0.6-3.2-1.4s-1.8-1.8-2.3-3.1
			c-0.9-2.2-0.9-4.3-0.1-6.3c0.9-2,2.5-3.5,4.8-4.4C131.5,69.8,134.9,70.6,137.5,74z"/>
	</g>
</g>
<g id="digibiz" class="st2">
	<g class="st3">
		<path class="st0" d="M74.5,130.9V74h25.3c13,0,19.5,4.6,19.5,13.9c0,6.6-3.9,10.8-11.8,12.7c9.5,1.9,14.2,6.9,14.2,15.1
			c0,10.1-6.4,15.1-19.1,15.1L74.5,130.9L74.5,130.9z M91,98.8h5.1c4.7,0,7-3.5,7-10.4c0-6.4-2.5-9.6-7.5-9.6H91V98.8z M91,126.2
			h4.7c6.2,0,9.2-3.5,9.2-10.6c0-8.1-3.2-12.1-9.5-12.1H91V126.2z M127.5,130.9v-42c4.7,0,9.8-0.4,15.2-1.1v43L127.5,130.9
			L127.5,130.9z M135.2,72.6c4.7,0,7.1,1.8,7.1,5.5s-2.4,5.5-7.1,5.5c-4.7,0-7.1-1.8-7.1-5.5C128.2,74.5,130.5,72.6,135.2,72.6z
			 M182.9,88.9v4.7l-18.4,32.5h18.4v4.7h-35v-5.2l18.3-32.1h-16.5v-4.7L182.9,88.9L182.9,88.9z"/>
		<g>
			<path class="st0" d="M47.8,101.9l2,3.8c0.1,0.1,0.2,0.2,0.3,0.1l1.7-0.9c0.1-0.1,0.2,0,0.3,0.1c1,1.1,2.2,2,3.5,2.6
				c0.1,0,0.2,0.2,0.1,0.3l-0.4,1.9c0,0.1,0.1,0.3,0.2,0.3l4.2,0.9c0.1,0,0.3-0.1,0.3-0.2l0.4-1.9c0-0.1,0.1-0.2,0.2-0.2
				c0.9,0,1.8-0.2,2.7-0.4c0.1,0,0.2,0,0.3,0.1l1,1.7c0.1,0.1,0.2,0.2,0.3,0.1l3.7-2.1c0.1-0.1,0.2-0.2,0.1-0.3l-1-1.7
				c-0.1-0.1,0-0.2,0-0.3c0.7-0.7,1.3-1.4,1.8-2.2c0.1-0.1,0.2-0.1,0.3-0.1l1.9,0.6c0.1,0,0.3,0,0.3-0.2l1.3-4.1
				c0-0.1,0-0.3-0.2-0.3l-1.9-0.6c-0.1,0-0.2-0.1-0.2-0.2c0.1-1.2,0-2.4-0.3-3.7c0-0.1,0-0.2,0.1-0.3l1.7-0.9
				c0.1-0.1,0.2-0.2,0.1-0.3l-2-3.8c-0.1-0.1-0.2-0.2-0.3-0.1l-1.7,0.9c-0.1,0.1-0.2,0-0.3-0.1c-1-1.1-2.2-2-3.5-2.6
				c-0.1,0-0.2-0.2-0.1-0.3l0.4-1.9c0-0.1-0.1-0.3-0.2-0.3L61,84.4c-0.1,0-0.3,0.1-0.3,0.2l-0.4,1.9c0,0.1-0.1,0.2-0.2,0.2
				c-0.9,0-1.8,0.2-2.7,0.4c-0.1,0-0.2,0-0.3-0.1l-1-1.7c-0.1-0.1-0.2-0.2-0.3-0.1L52,87.3c-0.1,0.1-0.2,0.2-0.1,0.3l1,1.7
				c0.1,0.1,0,0.2,0,0.3c-0.7,0.7-1.3,1.4-1.8,2.2C51,92,50.9,92,50.8,92l-1.9-0.6c-0.1,0-0.3,0-0.3,0.2l-1.3,4.1
				c0,0.1,0,0.3,0.2,0.3l1.9,0.6c0.1,0,0.2,0.1,0.2,0.2c-0.1,1.2,0,2.4,0.3,3.7c0,0.1,0,0.2-0.1,0.3l-1.7,0.9
				C47.8,101.6,47.8,101.8,47.8,101.9z M58.2,90c3.6-1.1,7.5,0.6,9.3,3.9c2.3,4.5,0,9.9-4.8,11.4c-3.6,1.1-7.5-0.6-9.3-3.9
				C51,96.8,53.3,91.4,58.2,90z"/>
			<path class="st0" d="M32.8,88.7l1.5,2.7c0,0.1,0.1,0.1,0.2,0.1l1.2-0.7c0.1,0,0.2,0,0.2,0c0.7,0.8,1.6,1.4,2.5,1.9
				c0.1,0,0.1,0.1,0.1,0.2l-0.3,1.4c0,0.1,0,0.2,0.1,0.2l3,0.6c0.1,0,0.2,0,0.2-0.1l0.3-1.4c0-0.1,0.1-0.1,0.2-0.1
				c0.7,0,1.3-0.1,2-0.3c0.1,0,0.2,0,0.2,0.1l0.7,1.2c0,0.1,0.2,0.1,0.2,0.1l2.7-1.5c0.1,0,0.1-0.2,0.1-0.2l-0.7-1.2
				c0-0.1,0-0.2,0-0.2c0.5-0.5,0.9-1,1.3-1.6c0-0.1,0.1-0.1,0.2-0.1l1.3,0.4c0.1,0,0.2,0,0.2-0.1l1-2.9c0-0.1,0-0.2-0.1-0.2
				l-1.3-0.4c-0.1,0-0.1-0.1-0.1-0.2c0.1-0.9,0-1.7-0.2-2.6c0-0.1,0-0.2,0.1-0.2l1.2-0.7c0.1,0,0.1-0.1,0.1-0.2L49.4,80
				c0-0.1-0.1-0.1-0.2-0.1L48,80.6c-0.1,0-0.2,0-0.2,0c-0.7-0.8-1.6-1.4-2.5-1.9c-0.1,0-0.1-0.1-0.1-0.2l0.3-1.4
				c0-0.1,0-0.2-0.1-0.2l-3-0.6c-0.1,0-0.2,0-0.2,0.1l-0.3,1.4c0,0.1-0.1,0.1-0.2,0.1c-0.7,0-1.3,0.1-2,0.3c-0.1,0-0.2,0-0.2-0.1
				l-0.7-1.2c0-0.1-0.2-0.1-0.2-0.1l-2.7,1.5c-0.1,0-0.1,0.2-0.1,0.2l0.7,1.2c0,0.1,0,0.2,0,0.2c-0.5,0.5-0.9,1-1.3,1.6
				c0,0.1-0.1,0.1-0.2,0.1l-1.3-0.4c-0.1,0-0.2,0-0.2,0.1l-1,2.9c0,0.1,0,0.2,0.1,0.2l1.3,0.4c0.1,0,0.1,0.1,0.1,0.2
				c-0.1,0.9,0,1.7,0.2,2.6c0,0.1,0,0.2-0.1,0.2l-1.2,0.7C32.7,88.5,32.7,88.6,32.8,88.7z M40.2,80.1c2.6-0.8,5.4,0.4,6.6,2.8
				c1.7,3.2,0,7.1-3.5,8.2c-2.6,0.8-5.4-0.4-6.6-2.8C35,85.1,36.7,81.2,40.2,80.1z"/>
			<path class="st0" d="M34.8,103.8l1,1.9c0,0.1,0.1,0.1,0.2,0l0.9-0.5H37c0.5,0.5,1.1,1,1.7,1.3l0.1,0.1l-0.2,1
				c0,0.1,0,0.1,0.1,0.1l2.1,0.4c0.1,0,0.1,0,0.1-0.1l0.2-1c0-0.1,0.1-0.1,0.1-0.1c0.5,0,0.9-0.1,1.4-0.2c0.1,0,0.1,0,0.1,0.1
				l0.5,0.9c0,0.1,0.1,0.1,0.2,0l1.9-1.1c0.1,0,0.1-0.1,0-0.2l-0.5-0.9v-0.1c0.4-0.3,0.7-0.7,0.9-1.1l0.1-0.1l0.9,0.3
				c0.1,0,0.1,0,0.1-0.1l0.7-2c0-0.1,0-0.1-0.1-0.1l-0.9-0.3c-0.1,0-0.1-0.1-0.1-0.1c0-0.6,0-1.2-0.2-1.8c0-0.1,0-0.1,0.1-0.1
				l0.9-0.5c0.1,0,0.1-0.1,0-0.2l-1-1.9c0-0.1-0.1-0.1-0.2,0l-0.9,0.5H45c-0.5-0.5-1.1-1-1.7-1.3l-0.1-0.1l0.2-1
				c0-0.1,0-0.1-0.1-0.1L41.2,95c-0.1,0-0.1,0-0.1,0.1l-0.2,1c0,0.1-0.1,0.1-0.1,0.1c-0.5,0-0.9,0.1-1.4,0.2c-0.1,0-0.1,0-0.1-0.1
				l-0.5-0.9c0-0.1-0.1-0.1-0.2,0l-1.9,1.1c-0.1,0-0.1,0.1,0,0.2l0.5,0.9v0.1c-0.4,0.3-0.7,0.7-0.9,1.1l-0.1,0.1l-0.9-0.3
				c-0.1,0-0.1,0-0.1,0.1l-0.7,2c0,0.1,0,0.1,0.1,0.1l0.9,0.3c0.1,0,0.1,0.1,0.1,0.1c0,0.6,0,1.2,0.2,1.8c0,0.1,0,0.1-0.1,0.1
				l-0.9,0.5C34.8,103.7,34.8,103.8,34.8,103.8z M40,97.8c1.8-0.5,3.8,0.3,4.6,2c1.2,2.2,0,5-2.4,5.7c-1.8,0.5-3.8-0.3-4.6-2
				C36.4,101.3,37.5,98.6,40,97.8z"/>
			<path class="st0" d="M52.2,84l1.8,1.2c0.1,0,0.1,0,0.2,0l0.6-0.8c0,0,0.1-0.1,0.1,0c0.7,0.3,1.4,0.4,2.1,0.4c0.1,0,0.1,0,0.1,0.1
				l0.3,1c0,0.1,0.1,0.1,0.1,0.1l2.1-0.6c0.1,0,0.1-0.1,0.1-0.1l-0.3-1c0-0.1,0-0.1,0.1-0.1c0.4-0.2,0.8-0.5,1.1-0.8h0.1l0.8,0.5
				c0.1,0,0.1,0,0.2,0l1.2-1.8c0-0.1,0-0.1,0-0.2L62,81.2c0,0-0.1-0.1,0-0.1c0.2-0.5,0.3-0.9,0.3-1.4c0-0.1,0-0.1,0.1-0.1l1-0.2
				c0.1,0,0.1-0.1,0.1-0.1l-0.3-2.1c0-0.1-0.1-0.1-0.1-0.1l-1,0.2c-0.1,0-0.1,0-0.1-0.1c-0.2-0.6-0.6-1.1-1-1.6v-0.1l0.6-0.8
				c0-0.1,0-0.1,0-0.2l-1.8-1.2c-0.1,0-0.1,0-0.2,0L59,74.1c0,0-0.1,0.1-0.1,0c-0.7-0.3-1.4-0.4-2.1-0.4c-0.1,0-0.1,0-0.1-0.1
				l-0.3-1c0-0.1-0.1-0.1-0.1-0.1l-2.1,0.6c-0.1,0-0.1,0.1-0.1,0.1l0.3,1c0,0.1,0,0.1-0.1,0.1c-0.4,0.2-0.8,0.5-1.1,0.8h-0.1
				l-0.8-0.5c-0.1,0-0.1,0-0.2,0l-1.2,1.8c0,0.1,0,0.1,0,0.2l0.8,0.5c0,0,0.1,0.1,0,0.1c-0.2,0.5-0.3,0.9-0.3,1.4
				c0,0.1,0,0.1-0.1,0.1l-1,0.2c-0.1,0-0.1,0.1-0.1,0.1l0.3,2.1c0,0.1,0.1,0.1,0.1,0.1l1-0.2c0.1,0,0.1,0,0.1,0.1
				c0.2,0.6,0.6,1.1,1,1.6v0.1l-0.6,0.8C52.1,83.9,52.1,83.9,52.2,84z M54.1,76.3c1.4-1.3,3.5-1.4,5-0.3c2.1,1.5,2.3,4.4,0.4,6.2
				c-1.4,1.3-3.5,1.4-5,0.3C52.4,81,52.2,78,54.1,76.3z"/>
			<path class="st0" d="M24.2,97.8l1,1.9c0,0.1,0.1,0.1,0.2,0l0.9-0.5h0.1c0.5,0.5,1.1,1,1.7,1.3l0.1,0.1l-0.2,1
				c0,0.1,0,0.1,0.1,0.1l2.1,0.4c0.1,0,0.1,0,0.1-0.1l0.2-1c0-0.1,0.1-0.1,0.1-0.1c0.5,0,0.9-0.1,1.4-0.2c0.1,0,0.1,0,0.1,0.1
				l0.5,0.9c0,0.1,0.1,0.1,0.2,0l1.9-1.1c0.1,0,0.1-0.1,0-0.2l-0.5-0.9v-0.1c0.4-0.3,0.7-0.7,0.9-1.1l0.1-0.1l0.9,0.3
				c0.1,0,0.1,0,0.1-0.1l0.7-2c0-0.1,0-0.1-0.1-0.1L36,96.2c-0.1,0-0.1-0.1-0.1-0.1c0-0.6,0-1.2-0.2-1.8c0-0.1,0-0.1,0.1-0.1
				l0.9-0.5c0.1,0,0.1-0.1,0-0.2l-1-1.9c0-0.1-0.1-0.1-0.2,0l-0.9,0.5h-0.1c-0.5-0.5-1.1-1-1.7-1.3l-0.1-0.1l0.2-1
				c0-0.1,0-0.1-0.1-0.1l-2.1-0.4c-0.1,0-0.1,0-0.1,0.1l-0.2,1c0,0.1-0.1,0.1-0.1,0.1c-0.5,0-0.9,0.1-1.4,0.2c-0.1,0-0.1,0-0.1-0.1
				l-0.5-0.9c0-0.1-0.1-0.1-0.2,0l-1.9,1.1c-0.1,0-0.1,0.1,0,0.2l0.5,0.9v0.1c-0.4,0.3-0.7,0.7-0.9,1.1l-0.1,0.1l-0.9-0.3
				c-0.1,0-0.1,0-0.1,0.1l-0.7,2c0,0.1,0,0.1,0.1,0.1l0.9,0.3c0.1,0,0.1,0.1,0.1,0.1c0,0.6,0,1.2,0.2,1.8c0,0.1,0,0.1-0.1,0.1
				l-0.9,0.5C24.2,97.7,24.2,97.8,24.2,97.8z M29.4,91.8c1.8-0.5,3.8,0.3,4.6,2c1.2,2.2,0,5-2.4,5.7c-1.8,0.5-3.8-0.3-4.6-2
				C25.8,95.3,26.9,92.6,29.4,91.8z"/>
		</g>
	</g>
	<g class="st3">
		<path class="st0" d="M38.3,110.2v17c0,1.3,0,2.7,0.1,3.6h-2.3l-0.1-2.4h-0.1c-0.8,1.6-2.5,2.8-4.8,2.8c-3.4,0-6-2.9-6-7.2
			c0-4.7,2.9-7.6,6.3-7.6c2.2,0,3.6,1,4.3,2.2h0.1v-8.4L38.3,110.2L38.3,110.2z M35.7,122.5c0-0.3,0-0.8-0.1-1.1
			c-0.4-1.6-1.8-3-3.7-3c-2.7,0-4.2,2.3-4.2,5.4c0,2.9,1.4,5.2,4.2,5.2c1.7,0,3.3-1.1,3.8-3.1c0.1-0.3,0.1-0.7,0.1-1.1L35.7,122.5
			L35.7,122.5z"/>
		<path class="st0" d="M45.4,112.8c0,0.9-0.6,1.6-1.6,1.6c-0.9,0-1.5-0.7-1.5-1.6s0.7-1.6,1.6-1.6C44.8,111.2,45.4,111.9,45.4,112.8
			z M42.5,130.9v-14.1h2.6v14.1H42.5z"/>
		<path class="st0" d="M61.5,116.8c-0.1,1-0.1,2.2-0.1,3.9v8.2c0,3.2-0.6,5.2-2,6.4c-1.4,1.3-3.4,1.7-5.1,1.7
			c-1.7,0-3.6-0.4-4.7-1.2l0.6-2c0.9,0.6,2.4,1.1,4.1,1.1c2.6,0,4.5-1.4,4.5-4.9v-1.6h-0.1c-0.8,1.3-2.3,2.4-4.5,2.4
			c-3.5,0-6-3-6-6.9c0-4.8,3.1-7.5,6.4-7.5c2.4,0,3.8,1.3,4.4,2.4h0.1l0.1-2.1L61.5,116.8L61.5,116.8z M58.9,122.3
			c0-0.4,0-0.8-0.1-1.2c-0.5-1.5-1.7-2.7-3.6-2.7c-2.4,0-4.2,2.1-4.2,5.3c0,2.8,1.4,5.1,4.2,5.1c1.6,0,3-1,3.6-2.6
			c0.1-0.4,0.2-0.9,0.2-1.4v-2.5L58.9,122.3L58.9,122.3z"/>
		<path class="st0" d="M68.3,112.8c0,0.9-0.6,1.6-1.6,1.6c-0.9,0-1.5-0.7-1.5-1.6s0.7-1.6,1.6-1.6C67.7,111.2,68.3,111.9,68.3,112.8
			z M65.5,130.9v-14.1H68v14.1H65.5z"/>
	</g>
</g>
<g id="pdfkit" class="st2">
	<g id="pdf" class="st3">
		<linearGradient id="SVGID_19_" gradientUnits="userSpaceOnUse" x1="78.8381" y1="131.3669" x2="150.1604" y2="9.5022">
			<stop  offset="0.2688" style="stop-color:#FFFFFF"/>
			<stop  offset="1" style="stop-color:#D0D2D3"/>
		</linearGradient>
		<path class="st25" d="M137.4,169.6h-79c-6.3,0-11.3-5.1-11.3-11.3v-119C47.1,33,52.2,28,58.4,28h47.1l43.2,46v84.3
			C148.7,164.5,143.7,169.6,137.4,169.6z"/>
		<linearGradient id="SVGID_20_" gradientUnits="userSpaceOnUse" x1="133.7645" y1="38.2401" x2="33.558" y2="207.5861">
			<stop  offset="0.2688" style="stop-color:#FFFFFF"/>
			<stop  offset="1" style="stop-color:#D0D2D3"/>
		</linearGradient>
		<path class="st26" d="M58.4,173.6c-8.5,0-15.3-6.9-15.3-15.3v-119C43.1,30.8,50,24,58.4,24h48.8l45.5,48.5v85.9
			c0,8.5-6.9,15.3-15.3,15.3L58.4,173.6L58.4,173.6z"/>
		<linearGradient id="SVGID_21_" gradientUnits="userSpaceOnUse" x1="78.8381" y1="131.3669" x2="150.1604" y2="9.5022">
			<stop  offset="0.2688" style="stop-color:#FFFFFF"/>
			<stop  offset="1" style="stop-color:#D0D2D3"/>
		</linearGradient>
		<path class="st27" d="M137.4,169.6h-79c-6.3,0-11.3-5.1-11.3-11.3v-119C47.1,33,52.2,28,58.4,28h47.1l43.2,46v84.3
			C148.7,164.5,143.7,169.6,137.4,169.6z"/>
		<linearGradient id="SVGID_22_" gradientUnits="userSpaceOnUse" x1="127.9246" y1="50.9011" x2="101.9002" y2="75.9322">
			<stop  offset="0" style="stop-color:#FFFFFF"/>
			<stop  offset="0.5729" style="stop-color:#D0D2D3"/>
		</linearGradient>
		<path class="st28" d="M105.2,60.8l0.4-32.3l43.3,46.1l-30.2-0.2C111.2,74.4,105.1,68.3,105.2,60.8z"/>
		<g>
			<path class="st29" d="M73.8,105.3v6.8H68V93.4h8c2,0,3.5,0.2,4.5,0.7s1.9,1.2,2.5,2.1s0.9,2,0.9,3.2c0,1.8-0.6,3.2-1.9,4.3
				c-1.2,1.1-2.9,1.6-5,1.6C77,105.3,73.8,105.3,73.8,105.3z M73.8,101.3h1.9c1.7,0,2.5-0.6,2.5-1.9c0-1.2-0.8-1.8-2.3-1.8h-2.1
				V101.3z"/>
			<path class="st29" d="M91.6,112.1V93.4h7.2c3.1,0,5.5,0.9,7,2.8s2.3,4,2.3,6.5c0,2.8-0.8,5.1-2.5,6.8c-1.7,1.7-3.8,2.6-6.5,2.6
				C99.1,112.1,91.6,112.1,91.6,112.1z M97.4,107.8h1.5c0.9,0,1.7-0.5,2.4-1.4c0.7-0.9,1-2.2,1-3.8c0-1.4-0.3-2.5-0.9-3.5
				s-1.4-1.5-2.5-1.5h-1.5V107.8z"/>
			<path class="st29" d="M127.9,105.1h-6.1v7h-5.6V93.4h13.5v4.4h-7.9v3h6.1C127.9,100.8,127.9,105.1,127.9,105.1z"/>
		</g>
		<g>
			<path class="st30" d="M105.6,121.8l2-2.2c0.6-0.5,1-0.9,1.3-1.2c0.3-0.3,0.7-0.5,1.1-0.8c0.8-0.5,1.5-0.8,2.2-0.8
				c0.5,0,0.7,0.2,0.7,0.5s-0.1,0.6-0.2,0.8c-0.1,0.3-0.3,0.5-0.5,0.8c-0.4,0.4-1.2,1-2.3,1.6c-0.9,0.5-1.5,1-2,1.4
				c0.1,0.5,0.2,0.9,0.3,1.3c0.1,0.4,0.2,0.7,0.3,1s0.3,0.7,0.5,1.1c0.2,0.5,0.5,0.9,0.8,1.3c0.7,1,1.4,1.6,2.1,1.9
				c0.2,0.1,0.3,0.2,0.3,0.3c0,0.2-0.1,0.3-0.3,0.5c-0.3,0.3-0.7,0.6-1.1,0.7c-0.4,0.2-0.9,0.3-1.3,0.3c-0.8,0-1.5-0.2-2.2-0.6
				c-0.6-0.4-1.1-1-1.5-1.8c-0.4-0.9-0.6-1.9-0.8-3.2c0-0.2,0-0.4,0-0.7l0,0c-0.3,0.4-0.5,0.7-0.6,0.9s-0.3,0.7-0.6,1.3
				c-0.3,0.8-0.6,1.4-0.8,1.9c-0.3,0.4-0.5,0.8-0.9,1.1c-0.3,0.3-0.6,0.5-1,0.7s-0.7,0.3-0.9,0.3c-0.2,0-0.3-0.1-0.4-0.2
				s-0.2-0.3-0.2-0.5c0-0.1,0-0.2,0-0.3c0.3-1.3,0.7-2.5,1-3.8c0.4-1.3,0.7-2.5,1.1-3.6s0.7-2.1,1.1-2.9c0.3-0.8,0.6-1.3,0.8-1.5
				c0.2-0.2,0.5-0.4,0.9-0.6s0.9-0.2,1.3-0.2s0.7,0.1,0.9,0.2c0.2,0.1,0.3,0.3,0.3,0.5c0,0.3-0.4,1.5-1.1,3.4c0,0.1-0.1,0.4-0.2,0.7
				c-0.1,0.3-0.2,0.5-0.2,0.7l0,0L105.6,121.8z"/>
			<path class="st30" d="M115,130.5c-0.3,0-0.6-0.2-0.8-0.4c-0.2-0.3-0.4-0.6-0.5-0.9c-0.1-0.3-0.2-0.7-0.2-1.2
				c0-1.1,0.2-2.3,0.6-3.7c0.4-1.4,0.9-2.4,1.4-3c0.2-0.3,0.5-0.4,0.9-0.4s0.7,0.2,0.9,0.5c0.2,0.4,0.4,0.8,0.4,1.4
				c0,0.8-0.1,1.8-0.4,3c-0.2,1.1-0.6,2.3-1,3.5c-0.2,0.5-0.4,0.8-0.6,1C115.5,130.4,115.3,130.5,115,130.5L115,130.5z M116.2,120.5
				c-0.6,0-0.9-0.4-0.9-1.1c0-0.4,0.1-0.8,0.3-1.3c0.2-0.5,0.4-0.8,0.6-1.1c0.1-0.1,0.2-0.2,0.4-0.3c0.1-0.1,0.3-0.1,0.5-0.1
				c0.3,0,0.6,0.1,0.7,0.2s0.2,0.4,0.2,0.8c0,0.5-0.1,0.9-0.2,1.3c-0.2,0.4-0.4,0.8-0.7,1C116.8,120.4,116.5,120.5,116.2,120.5
				L116.2,120.5z"/>
			<path class="st30" d="M122.5,120.8L122.5,120.8c0.4-1.3,0.8-2.2,1.1-2.7c0.2-0.2,0.4-0.4,0.6-0.6c0.5-0.3,1-0.5,1.4-0.5
				c0.3,0,0.5,0.1,0.6,0.2s0.2,0.3,0.2,0.5s-0.1,0.5-0.3,0.9c-0.3,0.8-0.6,1.5-0.8,2.2c0.1,0,0.2,0,0.3,0.1c0.4,0.1,0.7,0.1,0.8,0.2
				s0.2,0.2,0.2,0.4c0,0.4-0.1,0.7-0.3,1c-0.2,0.3-0.4,0.5-0.7,0.7c-0.2,0.1-0.6,0.2-1.1,0.2c-0.1,0.3-0.2,0.6-0.3,1.1
				c-0.1,0.4-0.1,0.9-0.2,1.6c0,0.3-0.1,0.5-0.1,0.7c0,1,0.5,1.6,1.5,1.6h0.1l0,0c0.1,0,0.2,0,0.2,0.1s-0.1,0.3-0.3,0.5
				c-0.2,0.3-0.5,0.5-0.7,0.7c-0.3,0.2-0.6,0.4-1,0.5s-0.7,0.2-0.9,0.2c-0.7,0-1.3-0.2-1.7-0.7s-0.7-1.1-0.7-1.9
				c0-0.3,0.1-0.8,0.2-1.3s0.3-1.3,0.5-2.2c0-0.2,0.1-0.3,0.1-0.5s0.1-0.3,0.1-0.3c-0.3,0-0.5-0.1-0.6-0.2s-0.2-0.3-0.2-0.5
				c0-0.4,0.2-0.8,0.5-1.2S122.1,120.9,122.5,120.8z"/>
		</g>
	</g>
</g>
</svg>
