<?xml version="1.0" encoding="utf-8"?>
<!-- Generator: Adobe Illustrator 25.2.1, SVG Export Plug-In . SVG Version: 6.00 Build 0)  -->
<svg version="1.1" id="Layer_1" xmlns="http://www.w3.org/2000/svg" xmlns:xlink="http://www.w3.org/1999/xlink" x="0px" y="0px"
	 viewBox="0 0 200 200" style="enable-background:new 0 0 200 200;" xml:space="preserve">
<style type="text/css">
	.st0{opacity:0.3;}
	.st1{fill:url(#SVGID_1_);}
	.st2{fill:url(#SVGID_2_);}
	.st3{fill:url(#SVGID_3_);}
	.st4{fill:url(#SVGID_4_);}
	.st5{fill:url(#SVGID_5_);}
	.st6{fill:url(#SVGID_6_);}
	.st7{fill:url(#SVGID_7_);}
	.st8{fill:url(#SVGID_8_);}
	.st9{fill:url(#SVGID_9_);}
	.st10{fill:url(#SVGID_10_);}
	.st11{fill:#77A6D8;}
	.st12{fill:url(#SVGID_11_);}
	.st13{fill:#F0E4D8;}
	.st14{fill:#F9F5F2;}
	.st15{fill:#F06132;}
</style>
<path class="st0" d="M102.2,168.3c-1.7,0-3.3-0.4-4.9-1.1v0.2H78.6v-1.3c-0.3,0.2-0.5,0.3-0.8,0.5c-1.5,0.9-3.6,1.4-5.6,1.4
	c-2.2,0-4-0.4-5.7-1.4l-0.2-0.1l-0.1-0.1c-1-0.7-2.5-1.7-3.8-3.1l-0.1-0.1l-0.1-0.1c-0.7-0.9-1.3-1.9-1.9-3.1l-3,8H50l-11.2-27.5
	c-0.1-0.2-0.2-0.4-0.2-0.6h-4.2v-8.1c-6.3-2.5-7.5-5.2-7.5-7.8v-1.6c-0.1-0.3-0.1-0.6-0.1-1c0-5.3,6.5-7.9,13.5-9.7
	c2.6-6.9,7.8-21,9.5-28c2.7-10.6-0.7-30.2-2.1-37.9c-0.4-1.9,0.6-3.7,2.4-4.5h0.1c2.1-0.9,4.5,0.1,5.4,2.2c1.4,3.2,3.2,7.3,4.8,10.1
	c2.1-4.6,7.1-7.7,12.6-6.8c4.9,0.7,8.9,4.6,9.8,9.5c0.9,5.1-1.5,9.8-5.4,12.2c3.7,1.5,6.9,2.3,8,2.6c-1-3.5,0.1-6.9,2.9-8.4
	C89.1,62.3,90,62,91,62c2.8,0,5.5,1.9,7.1,4.9c1,1.9,1.4,4,1.1,5.9l4,8.7l3.7-8.4c-0.4-1.8-0.2-3.9,0.7-5.8c1.4-3.3,4.2-5.4,7.1-5.4
	c0.8,0,1.6,0.2,2.3,0.5c3.1,1.3,4.4,5.1,3.3,9c1-0.3,2.2-0.6,3.3-1c-2.4-2.1-4-5.2-4-8.7c0-6.2,4.8-11.2,10.6-11.2
	c4.6,0,8.4,3,9.9,7.3c1.5-2.7,3.4-6.9,4.7-10c0.8-1.8,2.7-2.9,4.6-2.4l0,0c2.2,0.5,3.6,2.6,3.2,4.8c-1.4,7.1-3.8,22-2,31
	c1.9,9.6,6.2,22.8,8.6,29.8c12.8,2.6,18,5.7,18,10.7v2.5c0,3.3-2,6.9-14.4,9.9v4h4.2v11.5h-4.2v3.9h5.5c0.7,0,1.1,0.7,0.9,1.3
	l-2.1,5.4c-0.7,1.8-1.5,3.6-3.3,5.1c-1.5,1.5-3.5,2.3-5.7,2.3c-0.8,0-1.6-0.1-2.3-0.3v0.3h-21.3v-10.8h4v-17.2h-3.7V138
	c-3,0.2-6.2,0.5-9.4,0.6c1.6,0.7,2.7,1.7,3.6,2.6l0.1,0.1l0.1,0.1c1,1.1,1.5,2.2,2,3.2l0.3,0.7l0.1,0.3c0.4,1.2,0.9,2.9,0.9,4.7v3.1
	l0.2,0.2l-0.2,0.9v0.8h-0.2l-0.2,0.9c-0.1,1.4-0.5,2.7-1.2,4.1c-0.6,1.6-1.6,2.8-2.3,3.7c-1,1.1-2.1,2-3.3,2.7
	c-1.3,1-3.1,1.5-5.2,1.5c-1.9,0-3.7-0.4-5.3-1.2l-0.1-0.1l-0.1-0.1c-1.2-0.7-2.3-1.7-3.3-2.8c-0.2,0.3-0.4,0.5-0.6,0.8l-0.1,0.1
	l-0.1,0.1c-1.3,1.3-2.7,2.2-4.2,2.7l-0.4,0.1h-0.4c-0.2,0-0.4,0.1-0.6,0.1C104.1,168.1,103.2,168.3,102.2,168.3z M110.8,140.9
	c0.2,0.2,0.4,0.4,0.6,0.6c0.8-0.8,1.8-1.6,3-2.4c-1.9,0.1-3.8,0.1-5.7,0.1C109.5,139.6,110.2,140.2,110.8,140.9z M94.6,141.1
	c0.9-0.8,1.8-1.5,2.8-2c-0.9,0-1.9,0-2.8,0V141.1z M76.6,138.5c0.4,0.2,0.8,0.3,1.3,0.5l0.1,0.1l0.1,0.1c0.6,0.4,1.3,0.8,2,1.3
	l2.6-1.2l0,0l-0.3-0.5C80.4,138.7,78.5,138.6,76.6,138.5z M58.4,104.3c-0.9,1.5-2,3.2-3,4.8c1.6-0.2,3.2-0.4,4.9-0.6
	C59.7,107,59,105.6,58.4,104.3z M139.9,108.2c1.8,0.2,3.5,0.4,5.1,0.6c-1.1-1.7-2.2-3.4-3.2-4.9
	C141.3,105.2,140.6,106.7,139.9,108.2z M82.6,79.1c-3.7,0-8.4,1-9.7,5.8c-1.1,4.2-0.9,12.1,0.6,22.4c7.8-0.5,16.1-0.8,24.6-0.9V96.1
	c-1-1.1-1.6-2.4-1.6-3.9c0-0.2,0-0.5,0.1-0.7l-6.5-14c-1.6-0.8-3-2.3-4-4.1c-0.2-0.5-0.4-0.9-0.6-1.4l0.7,2.6
	C86.7,76.8,85,79.1,82.6,79.1L82.6,79.1z M108.2,106.5c6.6,0.1,13,0.4,19.1,0.7c1-7,2.3-17.5,0.7-21.8c-1.2-3-5.7-4.2-9-4.6
	c-1.9-0.2-3.1-2.2-2.5-4l0,0c-0.1,0.1-0.3,0.2-0.5,0.3l-6.2,14c0.1,0.3,0.1,0.7,0.1,1c0,1.5-0.6,2.9-1.7,4V106.5z"/>
<linearGradient id="SVGID_1_" gradientUnits="userSpaceOnUse" x1="100.868" y1="158.1507" x2="101.2884" y2="134.6874">
	<stop  offset="0.5513" style="stop-color:#FFFFFF"/>
	<stop  offset="0.7522" style="stop-color:#E3E3E4"/>
	<stop  offset="0.895" style="stop-color:#CBCBCB"/>
</linearGradient>
<path class="st1" d="M52.5,164l-9.9-24.9c-0.3-0.8-0.6-1.3-0.8-1.7c-0.1-0.3-0.3-0.5-0.5-0.8c-0.1-0.1-0.1-0.1-0.2-0.2
	c-0.1-0.1-0.4-0.2-0.5-0.3h-0.1c-0.4-0.1-0.7-0.1-1.1-0.1h-1v-3h12.7v2.6l-0.8,0.1c-0.3,0-0.6,0.1-0.8,0.1s-0.4,0-0.5,0.1h-0.1
	c-0.1,0-0.3,0.1-0.3,0.1l-0.1,0.1v0.1l-0.1,0.2c0,0,0,0.2,0,0.3c0,0.4,0.1,1.2,0.8,2.9l5.7,14.5l5.3-14.2c0.6-1.6,0.8-2.7,0.8-3
	c0-0.1,0-0.2-0.3-0.5c-0.4-0.2-0.9-0.5-1.7-0.6l-0.9-0.1V133H66v-0.3h2.1v2.3H68v0.3l-0.8,0.1c-0.5,0.1-0.8,0.2-1,0.3
	c-0.4,0.2-0.7,0.5-0.9,0.7c-0.3,0.3-0.4,0.5-0.6,0.9c-0.1,0.3-0.2,0.5-0.3,0.7c-0.1,0.3-0.3,0.6-0.4,0.9l-9.4,25.2h-1.9L52.5,164z
	 M102.2,164.3c-1.3,0-2.4-0.3-3.4-0.8c-1-0.6-1.9-1.4-2.7-2.4c-0.8-1.1-1.5-2.3-1.8-3.5c-0.6-1.5-0.6-3.1-0.6-4.6
	c0-1.7,0.3-3.2,0.8-4.6c0.4-1.2,1-2.4,2-3.5s1.9-1.8,3-2.3c1.4-0.6,2.5-0.9,3.6-0.9c0.8,0,1.7,0.1,2.8,0.6c0.8,0.2,1.6,0.8,2.1,1.4
	c0.7,0.6,1,1.1,1.4,1.7v0.1v0.1c0.3,0.6,0.6,1.4,0.6,2s-0.1,1.5-0.8,2.1c-0.5,0.5-1.2,0.7-2.1,0.7c-0.7,0-1.4-0.1-2.1-0.7l-0.1-0.1
	c-0.5-0.5-0.9-1.5-1-2.7s-0.5-1.6-1.7-1.6c-0.6,0-1.1,0.1-1.5,0.4h-0.1h-0.1c-0.3,0.1-0.6,0.5-0.9,0.9l-0.2,0.2
	c-0.1,0.2-0.2,0.3-0.2,0.5c-0.2,0.5-0.4,0.9-0.6,1.4c-0.2,0.7-0.3,1.5-0.3,2.5c0,1.1,0.1,2,0.3,3c0.1,0.7,0.5,1.6,1.1,2.5
	c0.4,0.6,0.9,1.2,1.6,1.8c0.4,0.3,1,0.5,1.8,0.5c0.4,0,0.7-0.1,1.1-0.1h0.2c0.1,0,0.4-0.2,0.6-0.3s0.3-0.2,0.5-0.3
	c0.3-0.2,0.7-0.7,1-1.2c0.3-0.4,0.5-0.8,0.7-1.3c0.2-0.3,0.3-0.7,0.5-1l0.4-0.7l2.4,0.6l-0.1,0.9c-0.2,1.4-0.6,2.6-1,3.7v0.1
	c-0.6,1.2-1.2,2-1.9,2.8c-0.8,0.8-1.7,1.4-2.6,1.7C104.1,164,103.2,164.3,102.2,164.3z M120,164.2c-1.3,0-2.5-0.3-3.5-0.8
	c-1-0.6-1.9-1.4-2.7-2.4c-0.8-1-1.4-2.2-1.9-3.4c-0.6-1.5-0.7-3.1-0.7-4.5c0-1.8,0.2-3.4,0.8-4.8c0.5-1.2,1-2.5,1.9-3.6
	c0.7-0.9,1.7-1.7,2.8-2.4c1.1-0.6,2.3-0.8,3.7-0.8c1.1,0,2,0.2,3.2,0.7c1,0.4,1.8,1.1,2.5,1.8c0.7,0.8,1.1,1.7,1.6,2.7
	c0.3,1,0.7,2.3,0.7,3.6v1H116c0.1,1,0.2,2,0.5,2.8v0.1c0.2,0.9,0.6,1.7,1.2,2.5c0.5,0.7,1.1,1.2,1.7,1.5c0.6,0.4,1.1,0.5,2,0.5
	c1,0,1.8-0.2,2.3-0.8c0.8-0.7,1.4-1.8,1.9-3.2l0.5-1.4l2.1,1.8l-0.1,0.5c-0.1,1.2-0.4,2.1-0.9,3.1c-0.4,1.1-1.1,2-1.7,2.7
	c-0.7,0.8-1.6,1.5-2.5,1.9C122.4,163.9,121.3,164.2,120,164.2z M122.1,148.2c-0.2-1-0.4-1.8-0.8-2.2c-0.6-0.6-1.2-1-1.9-1
	c-0.5,0-0.8,0.1-1.1,0.2c-0.2,0.1-0.5,0.3-0.8,0.6c-0.1,0.1-0.1,0.1-0.2,0.2c-0.1,0.1-0.2,0.3-0.3,0.5c-0.2,0.3-0.4,0.5-0.5,0.8
	s-0.1,0.6-0.2,0.9H122.1z M72.2,164c-1.6,0-2.7-0.3-3.8-0.9c-0.9-0.6-2.1-1.4-3-2.4c-0.8-1-1.4-2.2-1.9-3.5
	c-0.4-1.3-0.7-2.7-0.7-4.1c0-1.6,0.3-3,0.8-4.3c0.6-1.5,1.1-2.5,1.9-3.5c1-1.1,2-1.9,3-2.5c1-0.7,2.2-1.1,3.6-1.1
	c1.6,0,2.8,0.3,4,0.9c1.2,0.7,2.2,1.4,3,2.3c0.8,0.9,1.5,2.1,2,3.4c0.5,1.2,0.8,2.6,0.8,4.1c0,1.8-0.2,3.3-0.8,4.7
	c-0.5,1.3-1.3,2.6-2.2,3.6c-0.9,1-1.8,1.7-3.1,2.4C74.8,163.7,73.4,164,72.2,164z M68.7,148.2c-0.2,0.8-0.3,1.9-0.3,3
	c0,1.3,0.1,2.6,0.3,3.7c0.2,1.1,0.5,2.1,1.1,3c0.5,0.9,0.9,1.6,1.5,2.1c0.4,0.4,1,0.6,1.6,0.6c0.5,0,1-0.1,1.3-0.2
	c0.3-0.1,0.6-0.4,0.9-0.9c0.3-0.6,0.6-1.3,0.8-2c0.2-0.8,0.3-2,0.3-3.4c0-1.3-0.1-2.6-0.3-3.7c-0.2-1.2-0.6-2.2-0.9-3
	c-0.4-0.8-0.8-1.3-1.4-1.8c-0.6-0.3-1.3-0.5-1.9-0.5s-1,0.1-1.2,0.2h-0.1h-0.1c-0.3,0.1-0.6,0.4-0.9,0.9l-0.1,0.1
	c-0.3,0.4-0.5,0.9-0.7,1.6L68.7,148.2z M158,163.6c-1.4,0-2.5-0.5-3.2-1.6s-1.1-2.5-1.1-4.6v-12h-2.9V143l0.6-0.3
	c0.9-0.4,1.7-1,2.6-2.1c0.9-1.2,1.6-2.6,2.2-4.4l0.2-0.7h2.3v6.5h4.2v3.5h-4.2v11.6c0,0.5,0,1.1,0.1,1.4c0.1,0.3,0.1,0.5,0.2,0.6
	l0.2,0.1h0.2c0.2,0,0.3,0,0.7-0.3c0.2-0.1,0.4-0.4,0.6-0.8l0.2-0.7h2.9l-0.5,1.3c-0.6,1.6-1.1,2.7-2.3,3.6
	C160.2,163.2,159.1,163.6,158,163.6z M138.4,163.6v-2.8h1.9c0.5,0,0.8,0,1.1-0.1c0.1,0,0.2-0.1,0.3-0.1l0.1-0.1l0.1-0.1
	c0.1-0.1,0.3-0.4,0.3-0.8c0.1-0.7,0.2-1.5,0.2-2.1v-20.1c0-0.2,0-0.4-0.1-0.6c0-0.1,0-0.1,0-0.2c0-0.1-0.1-0.3-0.1-0.3
	c-0.1-0.1-0.2-0.2-0.3-0.3c-0.5-0.2-0.9-0.4-1.3-0.4h-1.9v-2.8h13.2v2.8H150c-0.5,0-0.8,0-1.1,0.1c-0.1,0-0.2,0.1-0.3,0.1l-0.1,0.1
	l-0.1,0.1c-0.1,0.1-0.3,0.4-0.3,0.8c-0.1,0.8-0.2,1.5-0.2,2.1v20.2c0,0.2,0,0.4,0.1,0.6c0,0.1,0,0.1,0,0.2c0,0.1,0.1,0.3,0.2,0.4
	c0.1,0.1,0.2,0.1,0.3,0.2c0.7,0.3,1,0.4,1.2,0.4h2v2.7L138.4,163.6L138.4,163.6z M82.6,163.4v-2.8h1c0.5,0,0.9,0,1.2-0.1
	c0,0,0.1,0,0.1-0.1l0.1-0.1c0.1-0.1,0.1-0.4,0.1-0.6c0-0.2,0-0.5,0-0.8s0.1-0.6,0.1-1v-7.5c0-1.2,0-2.1-0.1-2.8
	c0-0.3-0.1-0.6-0.1-0.9c0-0.2,0-0.5-0.1-0.6V146c-0.1,0-0.2,0-0.2,0c-0.1,0-0.1,0-0.3,0l-0.2,0.1H84c0,0-0.2,0-0.3,0.1l-1.1,0.6
	L82,144l6.3-2.8h2.2v0.4h0.1v16.6c0,0.8,0,1.5,0.1,1.9c0.1,0.3,0.1,0.4,0.1,0.4l0.1,0.1l0,0l0,0c0,0,0,0,0.1,0h2.3v2.8H82.6z
	 M88,137.7c-0.8,0-1.5-0.3-2.1-0.9l-0.1-0.1l-0.2-0.3c-0.3-0.5-0.6-1-0.6-1.8c0-0.9,0.3-1.7,0.9-2.2c0.7-0.8,1.4-0.9,2.1-0.9
	c0.8,0,1.5,0.3,2.1,0.9l0.1,0.1l0.2,0.3c0.3,0.5,0.6,1,0.6,1.8c0,0.9-0.4,1.6-0.8,2.1C89.6,137.7,88.4,137.7,88,137.7z"/>
<g>
	<linearGradient id="SVGID_2_" gradientUnits="userSpaceOnUse" x1="32.3" y1="117.6" x2="171.1" y2="117.6">
		<stop  offset="0.1179" style="stop-color:#FFFFFF"/>
		<stop  offset="0.5133" style="stop-color:#E8E7E7"/>
		<stop  offset="1" style="stop-color:#676767"/>
	</linearGradient>
	<path class="st2" d="M171.1,121.6L32.3,122c6.6-5.1,35.3-8.8,69.7-8.8C135.6,113.2,163.8,116.8,171.1,121.6z"/>
	<linearGradient id="SVGID_3_" gradientUnits="userSpaceOnUse" x1="31.5" y1="127.15" x2="172.7" y2="127.15">
		<stop  offset="0.1179" style="stop-color:#FFFFFF"/>
		<stop  offset="0.5133" style="stop-color:#E8E7E7"/>
		<stop  offset="1" style="stop-color:#676767"/>
	</linearGradient>
	<path class="st3" d="M172.7,122.9c-4.3,5.4-34.3,9.7-70.6,9.7s-66.5-4.3-70.6-9.7c0.2-0.3,0.6-0.6,0.9-0.9l138.9-0.3
		C171.8,122.1,172.3,122.6,172.7,122.9z"/>
	<linearGradient id="SVGID_4_" gradientUnits="userSpaceOnUse" x1="30.9263" y1="122.45" x2="32.3048" y2="122.45">
		<stop  offset="0.1179" style="stop-color:#FFFFFF"/>
		<stop  offset="0.5133" style="stop-color:#E8E7E7"/>
		<stop  offset="1" style="stop-color:#676767"/>
	</linearGradient>
	<path class="st4" d="M32.3,122c-0.3,0.3-0.7,0.6-0.9,0.9c-0.2-0.3-0.3-0.6-0.5-0.9H32.3z"/>
	<linearGradient id="SVGID_5_" gradientUnits="userSpaceOnUse" x1="30.9" y1="128.4" x2="173.1" y2="128.4">
		<stop  offset="0.1179" style="stop-color:#FFFFFF"/>
		<stop  offset="0.5133" style="stop-color:#E8E7E7"/>
		<stop  offset="1" style="stop-color:#676767"/>
	</linearGradient>
	<path class="st5" d="M173.1,121.6v2.5c0,6.1-31.9,11.1-71.1,11.1s-71.1-5-71.1-11.1V122l0,0c0.1,0.3,0.2,0.6,0.5,0.9
		c4.2,5.4,34.2,9.7,70.6,9.7s66.4-4.3,70.6-9.7C172.9,122.6,173.1,122.1,173.1,121.6L173.1,121.6z"/>
	<linearGradient id="SVGID_6_" gradientUnits="userSpaceOnUse" x1="171.1891" y1="122.25" x2="173.1154" y2="122.25">
		<stop  offset="0.1179" style="stop-color:#FFFFFF"/>
		<stop  offset="0.5133" style="stop-color:#E8E7E7"/>
		<stop  offset="1" style="stop-color:#676767"/>
	</linearGradient>
	<path class="st6" d="M173.1,121.6c0,0.5-0.2,0.8-0.5,1.3c-0.3-0.5-0.8-0.8-1.4-1.3H173.1z"/>
	<linearGradient id="SVGID_7_" gradientUnits="userSpaceOnUse" x1="30.8" y1="121.5" x2="173.1" y2="121.5">
		<stop  offset="0.1179" style="stop-color:#C8C8C8"/>
		<stop  offset="0.3889" style="stop-color:#E0E0E0"/>
		<stop  offset="0.4595" style="stop-color:#CFCFCF"/>
		<stop  offset="0.5078" style="stop-color:#D2D2D2"/>
		<stop  offset="0.5313" style="stop-color:#D8D8D8"/>
		<stop  offset="0.7522" style="stop-color:#E3E3E4"/>
		<stop  offset="0.895" style="stop-color:#CBCBCB"/>
		<stop  offset="1" style="stop-color:#CBCDCE"/>
	</linearGradient>
	<path class="st7" d="M173.1,121.6L173.1,121.6c0,0.5-0.2,0.9-0.5,1.3c-4.3,5.4-34.3,9.7-70.6,9.7s-66.5-4.3-70.6-9.7
		c-0.2-0.3-0.3-0.6-0.5-0.9c0-0.1-0.1-0.2-0.1-0.5c0-6.1,31.9-11.1,71.1-11.1C141.3,110.6,173.1,115.5,173.1,121.6z"/>
</g>
<linearGradient id="SVGID_8_" gradientUnits="userSpaceOnUse" x1="44.0577" y1="105.5429" x2="64.2552" y2="78.8503">
	<stop  offset="0.1267" style="stop-color:#CB460D"/>
	<stop  offset="0.7522" style="stop-color:#F06132"/>
	<stop  offset="0.9877" style="stop-color:#D34C15"/>
</linearGradient>
<path class="st8" d="M84.7,75.2c0,0-11.4-1.4-14.2,9.2c-2.9,10.5,1.8,32.9,1.8,33.5c0.1,1-1.8,1.8-2.4,0.9c-0.5-1-9.5-22.6-9.5-22.6
	s-4.2,6.7-7.8,12.6c-1.7,2.8-3.2,5.2-4.4,7c-1.3,2-1.4,2.2-2,3.2c-0.8,1.2-4.6,1.4-3.7-1.2c1-2.8,10.4-23.4,12.7-32.7
	C58.8,71,52,45,52,45s7,16.4,14.6,22.2C74.3,73,84.7,75.2,84.7,75.2z"/>
<linearGradient id="SVGID_9_" gradientUnits="userSpaceOnUse" x1="69.0831" y1="63.0307" x2="79.7392" y2="51.4499">
	<stop  offset="0.1267" style="stop-color:#CB460D"/>
	<stop  offset="0.7522" style="stop-color:#F06132"/>
	<stop  offset="0.9877" style="stop-color:#D34C15"/>
</linearGradient>
<circle class="st9" cx="72.7" cy="59.1" r="7.8"/>
<linearGradient id="SVGID_10_" gradientUnits="userSpaceOnUse" x1="139.1637" y1="92.5526" x2="154.8953" y2="55.3464">
	<stop  offset="0.1267" style="stop-color:#007CB1"/>
	<stop  offset="0.7522" style="stop-color:#7FB8FE"/>
	<stop  offset="1" style="stop-color:#77A6D8"/>
</linearGradient>
<path class="st10" d="M117.6,76.5c0,0,13.3-2.9,20-8c5.5-4.2,9.5-16,10.9-19.6c0.2-0.7,0.9,0,0.9,0s-4.4,19.9-1.8,33
	c2.3,12.1,8.4,29.7,9.8,33.8c0.2,0.7-0.2,1.5-0.9,1.6c-0.2,0-0.6,0-0.8-0.3c-1.3-1.3-13.5-21.6-13.5-21.6s-8.5,19.4-9,20.4
	c-0.6,1-2.3,2.4-2.7,0.3c0-2.9,5.2-24.2,2.2-32.1C129.5,76.2,117.6,76.5,117.6,76.5z"/>
<path class="st11" d="M116.7,76.5c0,0,13.3-2.9,20-8S148.4,49,148.4,49s-4.4,19.9-1.8,32.9c2.7,13.7,10.2,34.7,10.2,34.7
	s-0.5,1.4-1.7,0s-13.9-21.2-13.9-21.2s-8.5,19.4-9,20.4c-0.6,1-1.6,2-2-0.1c0-2.9,4.5-23.9,1.5-31.7
	C128.6,76.2,116.7,76.5,116.7,76.5z"/>
<linearGradient id="SVGID_11_" gradientUnits="userSpaceOnUse" x1="127.8528" y1="66.0042" x2="135.3213" y2="56.9419">
	<stop  offset="0.1267" style="stop-color:#007CB1"/>
	<stop  offset="0.7522" style="stop-color:#7FB8FE"/>
	<stop  offset="1" style="stop-color:#77A6D8"/>
</linearGradient>
<circle class="st12" cx="131.4" cy="61.7" r="7.2"/>
<rect x="102.1" y="93.1" class="st13" width="2.1" height="26.3"/>
<g>
	
		<rect x="98.3" y="81.4" transform="matrix(0.4025 -0.9154 0.9154 0.4025 -10.7299 148.2712)" class="st13" width="19.9" height="2"/>
</g>
<g>
	<rect x="97.1" y="72.4" transform="matrix(0.9075 -0.42 0.42 0.9075 -25.6783 48.8422)" class="st13" width="2" height="20.7"/>
</g>
<ellipse class="st14" cx="103.2" cy="92.2" rx="2.7" ry="2"/>
<ellipse transform="matrix(0.3973 -0.9177 0.9177 0.3973 4.1792 146.4612)" class="st14" cx="113.6" cy="70" rx="4.3" ry="2.7"/>
<ellipse transform="matrix(0.8851 -0.4654 0.4654 0.8851 -22.1024 50.8821)" class="st14" cx="92" cy="70.2" rx="2.7" ry="4.3"/>
<ellipse class="st11" cx="130.1" cy="61.7" rx="6.6" ry="7.2"/>
<path class="st15" d="M84.7,75.2c0,0-12.9-1.8-15.7,8.7s2.3,33.7,2.3,34.4c0.1,0.6-1.2,1.3-1.7,0.3c-0.6-0.9-10.7-22.7-10.7-22.7
	s-4.2,6.7-7.8,12.6c-1.7,2.8-3.2,5.2-4.4,7c-1.3,2-1.4,2.2-2,3.2c-0.8,1.2-3.1,1.4-2.2-1.2c1-2.8,8.9-23.4,11.2-32.7
	c3.6-14.3-2-40.6-2-40.6s5.8,16.5,13.4,22.4C72.8,72.5,84.7,75.2,84.7,75.2z"/>
<circle class="st15" cx="71.1" cy="58.6" r="7.8"/>
</svg>
